<svg width="96" height="96" viewBox="0 0 96 96" xmlns="http://www.w3.org/2000/svg">
  <path d="M60.693 32.054A.375.375 0 0 1 61.22 32c4.659 3.79 7.635 9.57 7.635 16.044a.375.375 0 0 1-.75 0c0-6.24-2.867-11.808-7.358-15.462a.375.375 0 0 1-.054-.528ZM22.06 53.707a.375.375 0 0 1 .45.28 26.143 26.143 0 0 0 1.762 5.135.375.375 0 0 1-.68.316 26.894 26.894 0 0 1-1.813-5.282.375.375 0 0 1 .28-.45Zm53.38 13.19c.17.12.21.354.09.523a33.671 33.671 0 0 1-3.354 4.021c-6.087 6.241-14.589 10.117-23.995 10.117a.375.375 0 0 1 0-.75c9.196 0 17.507-3.788 23.458-9.89a32.907 32.907 0 0 0 3.279-3.933.375.375 0 0 1 .523-.088Zm-.743-38.735a.375.375 0 0 1 .524.08 33.438 33.438 0 0 1 4.417 8.217.375.375 0 1 1-.704.26 32.689 32.689 0 0 0-4.317-8.033.375.375 0 0 1 .08-.524ZM48.18 15.28c-4.11 0-8.042.757-11.665 2.139a.375.375 0 1 1-.267-.701A33.435 33.435 0 0 1 48.18 14.53a33.359 33.359 0 0 1 18.397 5.496.375.375 0 1 1-.413.627A32.61 32.61 0 0 0 48.18 15.28ZM22.524 27.066c.161.13.188.366.058.527a32.795 32.795 0 0 0-3.676 5.722.375.375 0 1 1-.67-.337 33.55 33.55 0 0 1 3.76-5.853.375.375 0 0 1 .528-.059Zm1.954 44.141a.375.375 0 0 1 .53 0 32.898 32.898 0 0 0 6.629 5.124.375.375 0 1 1-.38.647 33.638 33.638 0 0 1-6.779-5.24.375.375 0 0 1 0-.53Zm62.824-17.248a.375.375 0 0 1 .31.43c-1.491 9.346-6.226 17.61-13.013 23.602a.375.375 0 1 1-.496-.563c6.66-5.88 11.306-13.989 12.77-23.158a.375.375 0 0 1 .429-.311ZM31.266 83.816a.375.375 0 0 1 .498-.183 38.908 38.908 0 0 0 11.095 3.237.375.375 0 1 1-.101.743 39.654 39.654 0 0 1-11.31-3.299.375.375 0 0 1-.182-.498Zm27.96-18.732a.375.375 0 0 1-.12.516 20.574 20.574 0 0 1-4.682 2.16.375.375 0 0 1-.226-.716 19.828 19.828 0 0 0 4.511-2.08.375.375 0 0 1 .517.12ZM72.36 36.652a.375.375 0 0 1 .496.186 26.995 26.995 0 0 1 2.419 11.206c0 3.64-.718 7.113-2.02 10.284a.375.375 0 1 1-.694-.285 26.265 26.265 0 0 0 1.964-9.998c0-3.887-.841-7.577-2.352-10.897a.375.375 0 0 1 .186-.496ZM38.29 23.213a.375.375 0 0 1-.203.49 26.419 26.419 0 0 0-10.26 7.616.375.375 0 0 1-.58-.476A27.17 27.17 0 0 1 37.8 23.01c.19-.079.41.012.49.203Zm-6.98 45.555a.375.375 0 0 1 .527-.06 26.232 26.232 0 0 0 16.344 5.68.375.375 0 0 1 0 .75 26.98 26.98 0 0 1-16.81-5.843.375.375 0 0 1-.061-.527ZM48.18 8.861a39.014 39.014 0 0 0-18.068 4.406.375.375 0 1 1-.347-.665 39.763 39.763 0 0 1 18.416-4.49.375.375 0 0 1 0 .75ZM9.935 58.195c.2-.055.406.062.46.262a38.903 38.903 0 0 0 2.2 6.01.375.375 0 1 1-.681.314 39.666 39.666 0 0 1-2.241-6.125.375.375 0 0 1 .262-.461Z" fill="#0A1F44"/>
  <path d="M69.051 81.658a.375.375 0 0 1-.125.515 39.748 39.748 0 0 1-20.745 5.805c-1.84 0-3.65-.124-5.423-.365a.375.375 0 1 1 .1-.743c1.74.236 3.517.358 5.323.358a38.998 38.998 0 0 0 20.355-5.695.375.375 0 0 1 .515.125Z" fill="#0A1F44"/>
  <path d="M65.905 59.984a1.388 1.388 0 1 1-2.776 0 1.388 1.388 0 0 1 2.776 0ZM8.872 46.116a1.388 1.388 0 1 1-2.776 0 1.388 1.388 0 0 1 2.776 0Zm.188 6.477a1.388 1.388 0 1 1-2.776 0 1.388 1.388 0 0 1 2.776 0Z" fill="#0A1F44"/>
  <path d="M73.265 23.82c.207 0 .375.168.375.375a5.962 5.962 0 0 0 11.924 0 .375.375 0 0 1 .75 0 6.712 6.712 0 1 1-13.424 0c0-.207.168-.375.375-.375Zm13.669 17.832c0-.207.168-.375.375-.375a6.712 6.712 0 0 1 0 13.424.375.375 0 0 1 0-.75 5.962 5.962 0 1 0 0-11.924.375.375 0 0 1-.375-.375Z" fill="#0A1F44"/>
  <circle cx="48" cy="48" r="15" fill="#F1F0F5"/>
  <path d="M48 41a7 7 0 1 1 0 14 7 7 0 0 1 0-14Zm0 9.917a.875.875 0 1 0 0 1.75.875.875 0 0 0 0-1.75Zm0-7a2.333 2.333 0 0 0-2.333 2.333.583.583 0 1 0 1.166 0 1.167 1.167 0 0 1 2.334 0c0 .432-.097.676-.427 1.047l-.136.146-.308.314c-.632.663-.88 1.14-.88 1.993a.583.583 0 1 0 1.167 0c0-.432.097-.676.427-1.047l.136-.146.308-.314c.632-.663.88-1.14.88-1.993A2.333 2.333 0 0 0 48 43.917Z" fill="#454C6D"/>
</svg>
