<?xml version="1.0" encoding="utf-8"?>
<!-- Generator: Adobe Illustrator 22.0.0, SVG Export Plug-In . SVG Version: 6.00 Build 0)  -->
<svg version="1.1" id="illustration" xmlns="http://www.w3.org/2000/svg" xmlns:xlink="http://www.w3.org/1999/xlink" x="0px"
	 y="0px" viewBox="0 0 800 235" style="enable-background:new 0 0 800 235;" xml:space="preserve">
<style type="text/css">
	.st0{opacity:0.3;fill:url(#Shape_2_);enable-background:new    ;}
	.st1{opacity:0.8;fill:url(#Shape_3_);enable-background:new    ;}
</style>
<g id="Mask">
</g>
<linearGradient id="Shape_2_" gradientUnits="userSpaceOnUse" x1="81.9318" y1="-343.5282" x2="81.9318" y2="-342.5282" gradientTransform="matrix(303.0741 -504.4 498.6689 299.6305 146626.2656 144208.2188)">
	<stop  offset="0" style="stop-color:#A8A7D1"/>
	<stop  offset="1" style="stop-color:#6F6EA4"/>
</linearGradient>
<path id="Shape" class="st0" d="M519.4,297.5c34.5-57.4,86.6-14.3,121.1-71.7s6.4-92.9,40.9-150.4S766.5,55.2,801-2.2L128.5-12.5
	c0,0,4.1,243.9-5.6,283.8S519.4,297.5,519.4,297.5z"/>
<linearGradient id="Shape_3_" gradientUnits="userSpaceOnUse" x1="82.0039" y1="-342.7605" x2="82.07" y2="-343.2295" gradientTransform="matrix(366.5631 -610.0635 584.0363 350.9244 170616.6875 170566.0938)">
	<stop  offset="0" style="stop-color:#A2A3CA"/>
	<stop  offset="1" style="stop-color:#6F6EA4"/>
</linearGradient>
<path id="Shape_1_" class="st1" d="M498.4,291.5c34.5-57.4,104.6-14.1,139.1-71.5s-1.1-92.5,33.4-149.9S745.5,49.2,780-8.2
	l-792.3-4.3c0,0,8.9,369.1,17.3,368.8C13.4,356,498.4,291.5,498.4,291.5z"/>
</svg>
