<?xml version="1.0" encoding="UTF-8"?>
<svg width="1430px" height="883px" viewBox="0 0 1430 883" version="1.1" xmlns="http://www.w3.org/2000/svg" xmlns:xlink="http://www.w3.org/1999/xlink">
    <!-- Generator: sketchtool 61.2 (101010) - https://sketch.com -->
    <title>4154BE6B-3143-4E9E-9306-8CE1756483C3@1.00x</title>
    <desc>Created with sketchtool.</desc>
    <defs>
        <radialGradient cx="49.4094165%" cy="19.566733%" fx="49.4094165%" fy="19.566733%" r="67.1893414%" gradientTransform="translate(0.494094,0.195667),scale(0.733195,1.000000),rotate(89.428491),scale(1.000000,1.010289),translate(-0.494094,-0.195667)" id="radialGradient-1">
            <stop stop-color="#FFFFFF" stop-opacity="0.906468531" offset="0%"></stop>
            <stop stop-color="#FFFFFF" stop-opacity="0" offset="100%"></stop>
        </radialGradient>
    </defs>
    <g id="loops" stroke="none" stroke-width="1" fill="none" fill-rule="evenodd" fill-opacity="0.4">
        <g id="Loops-bcg-3" fill="url(#radialGradient-1)">
            <g id="Group" transform="translate(-167.000000, -90.000000)">
                <path d="M1554.29219,56 L1554.29219,88.0624242 L1501.22408,57.424944 L1503.69114,56 L1500.40542,56 L1500.40305,56 L1500.40305,56 L1498.7594,56 L1498.7594,56 L1498.75624,56 L1495.47131,56 L1497.93757,57.4241546 L1444.87104,88.0616347 L1444.87104,56 L1443.22818,56 L1443.22818,88.0616347 L1390.16008,57.4241546 L1392.62634,56 L1389.34141,56 L1389.33983,56 L1389.33983,56 L1387.69618,56 L1387.69618,56 L1387.6946,56 L1384.40809,56 L1386.87435,57.4241546 L1333.80783,88.0616347 L1333.80783,56 L1332.16497,56 L1332.16497,88.0616347 L1279.09686,57.4241546 L1281.56312,56 L1278.2774,56 L1278.27661,56 L1278.27661,56 L1276.63375,56 L1276.63375,56 L1276.63059,56 L1273.34487,56 L1275.81114,57.4241546 L1222.74461,88.0616347 L1222.74461,56 L1221.10175,56 L1221.10175,88.0616347 L1168.03364,57.4241546 L1170.5007,56 L1167.21497,56 L1167.2134,56 L1167.2134,56 L1165.57053,56 L1165.57053,56 L1165.56738,56 L1162.28166,56 L1164.74871,57.4241546 L1111.68139,88.0616347 L1111.68139,56 L1110.03774,56 L1110.03774,88.0616347 L1056.97121,57.4241546 L1059.43748,56 L1056.15097,56 L1056.15018,56 L1056.15018,56 L1054.50653,56 L1054.50653,56 L1054.50574,56 L1051.21923,56 L1053.68549,57.4241546 L1000.61896,88.0616347 L1000.61896,56 L998.974525,56 L998.974525,88.0624242 L945.906417,57.4241546 L948.373471,56 L945.08854,56 L945.086171,56 L945.086171,56 L943.443311,56 L943.443311,56 L943.440153,56 L940.154432,56 L942.620696,57.4241546 L889.554168,88.0616347 L889.554168,56 L887.912097,56 L887.912097,88.0624242 L834.8432,57.4241546 L837.310254,56 L832.380093,56 L832.380093,56 L832.376935,56 L829.091214,56 L831.557479,57.4241546 L778.49174,88.0616347 L778.49174,56 L776.84809,56 L776.84809,88.0624242 L723.779983,57.424944 L726.247826,56 L722.962105,56 L722.960526,56 L722.960526,56 L721.316876,56 L721.316876,56 L721.313718,56 L718.027208,56 L720.495051,57.424944 L667.427733,88.0616347 L667.427733,56 L665.785662,56 L665.785662,88.0624242 L612.717555,57.4241546 L615.183819,56 L611.898098,56 L611.896519,56 L611.896519,56 L610.253659,56 L610.253659,56 L610.250501,56 L606.96399,56 L609.431044,57.4241546 L556.365305,88.0616347 L556.365305,56 L554.721655,56 L554.721655,88.0616347 L501.653548,57.4241546 L504.119813,56 L499.190441,56 L499.190441,56 L499.188073,56 L495.902352,56 L498.368616,57.4241546 L445.301299,88.0616347 L445.301299,56 L443.658438,56 L443.658438,88.0624242 L390.59112,57.424944 L393.057385,56 L389.772453,56 L389.770085,56 L389.770085,56 L388.126435,56 L388.126435,56 L388.123277,56 L384.836766,56 L387.30461,57.424944 L334.238871,88.0616347 L334.238871,56 L332.595221,56 L332.595221,88.0616347 L279.527113,57.4241546 L281.993378,56 L278.707657,56 L278.706867,56 L278.706867,56 L277.064007,56 L277.064007,56 L277.060059,56 L273.775128,56 L276.241392,57.4241546 L223.174864,88.0616347 L223.174864,56 L221.532003,56 L221.532003,88.0624242 L168.463896,57.4241546 L170.930161,56 L167.644439,56 L167.64365,56 L167.64365,56 L166,56 L166,58.8459408 L166,120.123269 L166,120.12248 L166,122.967631 L166,184.243381 L166,187.089322 L166,248.365072 L166,251.209434 L166,312.486762 L166,315.331124 L166,376.607663 L166,379.452815 L166,440.729354 L166,443.572926 L166,504.850255 L166,507.694617 L166,568.971946 L166,571.816308 L166,1114 L167.642071,1114 L167.642861,1084.78746 L218.242335,1114 L221.528056,1114 L168.463896,1083.36331 L221.531214,1052.72583 L221.531214,1114 L223.174075,1114 L223.174075,1052.72583 L276.241392,1083.36331 L223.175653,1114 L226.462164,1114 L277.062428,1084.78667 L277.062428,1114 L278.705288,1114 L278.705288,1084.78667 L329.305552,1114 L332.592063,1114 L279.527113,1083.36331 L332.594431,1052.72583 L332.594431,1114 L334.238081,1114 L334.238081,1052.72662 L387.30382,1083.3641 L334.23966,1114 L337.525381,1114 L388.126435,1084.78667 L388.126435,1114 L389.769295,1114 L389.769295,1084.78746 L440.36877,1114 L443.654491,1114 L390.590331,1083.3641 L443.657649,1052.72583 L443.657649,1114 L445.301299,1114 L445.301299,1052.72583 L498.367037,1083.36331 L445.301299,1114 L448.58702,1114 L499.189652,1084.7851 L499.189652,1114 L500.833302,1114 L500.833302,1084.78746 L551.432776,1114 L554.718497,1114 L501.651969,1083.36331 L554.720866,1052.72583 L554.720866,1114 L556.364516,1114 L556.364516,1052.72583 L609.431044,1083.36331 L556.366095,1114 L559.650237,1114 L610.252869,1084.78588 L610.252869,1114 L611.89573,1114 L611.89573,1084.78667 L662.496783,1114 L665.781715,1114 L612.716765,1083.36331 L665.784083,1052.72583 L665.784083,1114 L667.426944,1114 L667.426944,1052.72583 L720.494262,1083.36331 L667.429312,1114 L670.715823,1114 L721.316087,1084.78667 L721.316087,1114 L722.959737,1114 L722.959737,1084.78746 L773.559211,1114 L776.846511,1114 L723.780772,1083.36331 L776.8473,1052.72583 L776.8473,1114 L778.490951,1114 L778.490951,1052.72662 L831.556689,1083.36331 L778.49174,1114 L781.778251,1114 L832.379304,1084.78588 L832.379304,1114 L834.022164,1114 L834.022164,1084.78746 L884.622428,1114 L887.908149,1114 L834.8432,1083.36331 L887.910518,1052.72583 L887.910518,1114 L889.553378,1114 L889.553378,1052.72583 L942.619907,1083.36331 L889.554957,1114 L892.841468,1114 L943.442521,1084.78588 L943.442521,1114 L945.084592,1114 L945.084592,1084.78667 L995.684856,1114 L998.971367,1114 L945.906417,1083.36331 L998.974525,1052.72583 L998.974525,1114 L1000.61739,1114 L1000.61739,1052.72741 L1053.68312,1083.3641 L1000.61896,1114 L1003.90469,1114 L1054.50574,1084.78667 L1054.50574,1114 L1056.1486,1114 L1056.1486,1084.78825 L1106.74728,1114 L1110.03379,1114 L1056.96885,1083.3641 L1110.03695,1052.72583 L1110.03695,1114 L1111.6806,1114 L1111.6806,1052.72583 L1164.74792,1083.36331 L1111.68297,1114 L1114.96948,1114 L1165.56896,1084.78667 L1165.56896,1114 L1167.21182,1114 L1167.21182,1084.78588 L1217.81287,1114 L1221.0978,1114 L1168.03364,1083.3641 L1221.10096,1052.72583 L1221.10096,1114 L1222.74303,1114 L1222.74303,1052.72583 L1275.81114,1083.36331 L1222.74461,1114 L1226.03112,1114 L1276.63217,1084.78588 L1276.63217,1114 L1278.27503,1114 L1278.27503,1084.78667 L1328.8753,1114 L1332.16181,1114 L1279.09607,1083.36331 L1332.16339,1052.72583 L1332.16339,1114 L1333.80625,1114 L1333.80625,1052.72583 L1386.87435,1083.36331 L1333.80862,1114 L1337.09434,1114 L1387.69539,1084.78588 L1387.69539,1114 L1389.33904,1114 L1389.33904,1084.78667 L1439.9393,1114 L1443.22581,1114 L1390.16008,1083.36331 L1443.22739,1052.72583 L1443.22739,1114 L1444.87025,1114 L1444.87025,1052.72662 L1497.93678,1083.3641 L1444.87262,1114 L1448.15913,1114 L1498.75861,1084.78667 L1498.75861,1114 L1500.40226,1114 L1500.40226,1084.78746 L1551.00094,1114 L1554.28666,1114 L1501.2225,1083.3641 L1554.29061,1052.72583 L1554.29061,1114 L1555.93347,1114 L1555.93347,1052.72583 L1609,1083.36331 L1609,1081.46628 L1556.75451,1051.30404 L1609,1021.14023 L1609,1019.2432 L1555.93347,1049.88068 L1555.93347,988.603349 L1609,1019.24083 L1609,1017.3438 L1556.7553,987.181563 L1609,957.018538 L1609,955.121507 L1555.93347,985.758987 L1555.93347,924.483237 L1609,955.120718 L1609,953.223687 L1556.75451,923.059872 L1609,892.896847 L1609,891.000606 L1555.93347,921.638086 L1555.93426,860.362336 L1609,890.999816 L1609,889.102786 L1556.7553,858.939761 L1609,828.777525 L1609,826.880494 L1555.93426,857.516395 L1555.93426,796.241435 L1609,826.878126 L1609,824.981885 L1556.75451,794.81807 L1609,764.655045 L1609,762.758014 L1555.93426,793.394705 L1555.93426,732.120534 L1609,762.757225 L1609,760.860983 L1556.75451,730.697169 L1609,700.533354 L1609,698.636324 L1555.93426,729.273804 L1555.93426,667.998843 L1609,698.634745 L1609,696.738503 L1556.7553,666.575478 L1609,636.412453 L1609,634.515422 L1555.93426,665.152903 L1555.93426,603.877942 L1609,634.515422 L1609,632.617602 L1556.75451,602.454577 L1609,572.292342 L1609,570.394521 L1555.93426,601.032002 L1555.93426,539.757041 L1609,570.393732 L1609,568.496701 L1556.75451,538.333676 L1609,508.170651 L1609,506.27362 L1555.93426,536.9111 L1555.93426,475.635351 L1609,506.272831 L1609,504.3758 L1556.75451,474.211986 L1609,444.04896 L1609,442.15193 L1555.93426,472.78862 L1555.93426,411.515239 L1609,442.15193 L1609,440.254899 L1556.7553,410.091874 L1609,379.928059 L1609,378.031029 L1555.93426,408.667719 L1555.93426,347.391969 L1609,378.02945 L1609,376.132419 L1556.75609,345.970183 L1609,315.807158 L1609,313.910127 L1555.93426,344.547608 L1555.93426,283.271068 L1609,313.907759 L1609,312.010728 L1556.75609,281.848493 L1609,251.686257 L1609,249.788437 L1555.93426,280.425917 L1555.93426,219.150167 L1609,249.786858 L1609,247.889827 L1556.7553,217.727592 L1609,187.564566 L1609,185.667536 L1555.93426,216.305016 L1555.93505,155.029266 L1609,185.665957 L1609,183.768926 L1556.7553,153.605901 L1609,123.442876 L1609,121.545845 L1555.93505,152.182536 L1555.93505,90.908365 L1609,121.545056 L1609,119.648025 L1556.75451,89.4849998 L1609,59.3219747 L1609,57.4241546 L1555.93505,88.0616347 L1555.93505,56 L1554.29219,56 Z M1334,89.5003929 L1387,59 L1387,120 L1334,89.5003929 Z M1223,89.5 L1276,59 L1276,120 L1223,89.5 Z M1112,89.5 L1165,59 L1165,120 L1112,89.5 Z M1056,59 L1109,89.5003929 L1056,120 L1056,59 Z M1001,89.5003929 L1054,59 L1054,120 L1001,89.5003929 Z M890,89.5003929 L943,59 L943,120 L890,89.5003929 Z M779,89.5003929 L832,59 L832,120 L779,89.5003929 Z M446,89.5003929 L499,59 L499,120 L446,89.5003929 Z M223,89.5003929 L276,59 L275.999212,120 L223,89.5003929 Z M1500,59 L1553,89.5 L1500,120 L1500,59 Z M1445,89.5003929 L1498,59 L1498,120 L1445,89.5003929 Z M1389,59 L1442,89.5003929 L1389,120 L1389,59 Z M1278,59 L1331,89.5003929 L1278,120 L1278,59 Z M1167,59 L1220,89.5 L1167,120 L1167,59 Z M945,59 L998,89.5003929 L945,120 L945,59 Z M668,89.5 L721,59 L721,120 L668,89.5 Z M557,89.4996071 L610,59 L610,120 L557,89.4996071 Z M500,59 L553,89.5 L500,120 L500,59 Z M334,89.5003929 L387,59 L387,120 L334,89.5003929 Z M278,59 L331,89.5003929 L278,120 L278,59 Z M834,59 L887,89.500393 L834,120 L834,59 Z M611,59 L664,89.5 L611,120 L611,59 Z M722,59 L775,89.500393 L722,120 L722,59 Z M389,59 L442,89.500393 L389,120 L389,59 Z M167,59 L220,89.5 L167,120 L167,59 Z M1501,121.499607 L1554,91 L1554,152 L1501,121.499607 Z M1168,121.5 L1221,91 L1221,152 L1168,121.5 Z M1111,91 L1164,121.500393 L1111,152 L1111,91 Z M723,121.499607 L776,91 L776,152 L723,121.499607 Z M390,121.499607 L443,91 L443,152 L390,121.499607 Z M168,121.499607 L221,91 L221,152 L168,121.499607 Z M1390,121.5 L1443,91 L1443,152 L1390,121.5 Z M1334,91 L1387,121.5 L1334,152 L1334,91 Z M1279,121.499607 L1332,91 L1332,152 L1279,121.499607 Z M1222,91 L1275,121.499607 L1222,152 L1222,91 Z M1057,121.5 L1110,91 L1110,152 L1057,121.5 Z M945,121.5 L998,91 L998,152 L945,121.5 Z M889,91 L942,121.500393 L889,152 L889,91 Z M834,121.5 L887,91 L887,152 L834,121.5 Z M612,121.499607 L665,91 L665,152 L612,121.499607 Z M556,91 L609,121.499607 L556,152 L556,91 Z M501,121.5 L554,91 L554,152 L501,121.5 Z M279,121.5 L332,91 L332,152 L279,121.5 Z M1445,91 L1498,121.5 L1445,152 L1445,91 Z M667,91 L720,121.499607 L667,152 L667,91 Z M445,91 L498,121.5 L445,152 L445,91 Z M334,91 L387,121.5 L334,152 L334,91 Z M222,91 L275,121.5 L222,152 L222,91 Z M1000,91 L1053,121.499607 L1000,152 L1000,91 Z M778,91 L831,121.5 L778,152 L778,91 Z M1445,153.500393 L1498,123 L1498,184 L1445,153.500393 Z M1223,153.499607 L1276,123 L1276,184 L1223,153.499607 Z M1167,123 L1220,153.499607 L1167,184 L1167,123 Z M1112,153.5 L1165,123 L1165,184 L1112,153.5 Z M890,153.5 L943,123 L943,184 L890,153.5 Z M779,153.5 L832,123 L832,184 L779,153.5 Z M668,153.499607 L721,123 L721,184 L668,153.499607 Z M334,153.5 L387,123 L387,184 L334,153.5 Z M1500,123 L1553,153.500393 L1500,184 L1500,123 Z M1334,153.5 L1387,123 L1387,184 L1334,153.5 Z M1278,123 L1331,153.5 L1278,184 L1278,123 Z M1001,153.499607 L1054,123 L1054,184 L1001,153.499607 Z M945,123 L998,153.5 L945,184 L945,123 Z M611,123 L664,153.499607 L611,184 L611,123 Z M557,153.499607 L610,123 L610,184 L557,153.499607 Z M446,153.499607 L499,123 L499,184 L446,153.499607 Z M223,153.499607 L276,123 L276,184 L223,153.499607 Z M1389,123 L1442,153.500393 L1389,184 L1389,123 Z M1056,123 L1109,153.500393 L1056,184 L1056,123 Z M834,123 L887,153.500393 L834,184 L834,123 Z M722,123 L775,153.500393 L722,184 L722,123 Z M389,123 L442,153.5 L389,184 L389,123 Z M278.000788,123 L331,153.500393 L278,184 L278.000788,123 Z M167,123 L220,153.5 L167,184 L167,123 Z M500,123 L553,153.499607 L500,184 L500,123 Z M1501,185.500393 L1554,155 L1554,216 L1501,185.500393 Z M612,185.5 L665,155 L665,216 L612,185.5 Z M279,185.499607 L332,155 L332,216 L279,185.499607 Z M1390,185.499607 L1443,155 L1443,216 L1390,185.499607 Z M1334.00079,155 L1387,185.499607 L1334,216 L1334.00079,155 Z M1222.00079,155 L1275,185.499214 L1222,216 L1222.00079,155 Z M1168,185.499607 L1221,155 L1220.99921,216 L1168,185.499607 Z M1057,185.5 L1110,155 L1110,216 L1057,185.5 Z M945,185.499607 L998,155 L998,216 L945,185.499607 Z M834,185.5 L887,155 L886.999212,216 L834,185.5 Z M723,185.499607 L776,155 L776,216 L723,185.499607 Z M667,155 L720,185.499607 L667,216 L667,155 Z M390,185.5 L443,155 L443,216 L390,185.5 Z M168,185.500393 L221,155 L221,216 L168,185.500393 Z M1445,155 L1498,185.5 L1445,216 L1445,155 Z M1279,185.499214 L1332,155 L1331.99921,216 L1279,185.499214 Z M1111,155 L1164,185.5 L1111,216 L1111,155 Z M1000,155 L1053,185.5 L1000,216 L1000,155 Z M889,155 L942,185.499607 L889,216 L889,155 Z M501,185.499607 L554,155 L554,216 L501,185.499607 Z M445,155 L498,185.499607 L445,216 L445,155 Z M222,155 L275,185.499607 L222,216 L222,155 Z M778,155 L831,185.499607 L778,216 L778,155 Z M556,155 L609,185.5 L556,216 L556,155 Z M334,155 L387,185.499607 L334,216 L334,155 Z M1334,217.500393 L1387,187 L1387,248 L1334,217.500393 Z M1278.00079,187 L1331,217.500393 L1278,248 L1278.00079,187 Z M1112,217.500393 L1165,187 L1164.99921,248 L1112,217.500393 Z M1001,217.500786 L1054,187 L1054,248 L1001,217.500786 Z M668,217.500393 L721,187 L721,248 L668,217.500393 Z M557,217.500786 L610,187 L610,248 L557,217.500786 Z M223,217.500393 L276,187 L276,248 L223,217.500393 Z M1445,217.500786 L1498,187 L1498,248 L1445,217.500786 Z M1223,217.500393 L1276,187 L1275.99921,248 L1223,217.500393 Z M890,217.500393 L943,187 L943,248 L890,217.500393 Z M779,217.500786 L832,187 L832,248 L779,217.500786 Z M446,217.500393 L499,187 L499,248 L446,217.500393 Z M334,217.500393 L387,187 L387,248 L334,217.500393 Z M167,187 L220,217.5 L167,248 L167,187 Z M1500,187 L1553,217.5 L1500,248 L1500,187 Z M1389,187 L1442,217.500393 L1389,248 L1389,187 Z M1167.00079,187 L1220,217.500393 L1167,248 L1167.00079,187 Z M1056,187 L1109,217.500393 L1056,248 L1056,187 Z M945.000788,187 L998,217.500393 L945,248 L945.000788,187 Z M834,187 L887,217.500393 L834,248 L834,187 Z M722,187 L775,217.500393 L722,248 L722,187 Z M500,187 L553,217.500393 L500,248 L500,187 Z M278,187 L331,217.500393 L278,248 L278,187 Z M611,187 L664,217.5 L611,248 L611,187 Z M389,187 L442,217.5 L389,248 L389,187 Z M1334,219 L1387,249.499607 L1334,280 L1334,219 Z M1279,249.5 L1332,219 L1332,280 L1279,249.5 Z M945,249.5 L998,219 L998,280 L945,249.5 Z M612,249.500393 L665,219 L665,280 L612,249.500393 Z M501,249.5 L554,219 L554,280 L501,249.5 Z M168,249.500393 L221,219 L221,280 L168,249.500393 Z M1390,249.499607 L1443,219 L1443,280 L1390,249.499607 Z M1057,249.499607 L1110,219 L1110,280 L1057,249.499607 Z M834,249.5 L887,219 L887,280 L834,249.5 Z M723,249.499607 L776,219 L776,280 L723,249.499607 Z M279,249.500393 L332,219 L332,280 L279,249.500393 Z M222,219 L275,249.500393 L222,280 L222,219 Z M1501,249.499607 L1554,219 L1554,280 L1501,249.499607 Z M1445,219 L1498,249.499607 L1445,280 L1445,219 Z M1222,219 L1275,249.500393 L1222,280 L1222,219 Z M1168,249.499214 L1221,219 L1221,280 L1168,249.499214 Z M1111,219 L1164,249.499607 L1111,280 L1111,219 Z M889,219 L942,249.5 L889,280 L889,219 Z M778,219 L831,249.5 L778,280 L778,219 Z M667,219 L720,249.5 L667,280 L667,219 Z M390,249.499607 L443,219 L443,280 L390,249.499607 Z M1000,219 L1053,249.5 L1000,280 L1000,219 Z M556,219 L609,249.5 L556,280 L556,219 Z M445,219 L498,249.5 L445,280 L445,219 Z M334,219 L387,249.499214 L334,280 L334,219 Z M890,281.499607 L943,251 L943,312 L890,281.499607 Z M446,281.500393 L499,251 L498.999212,312 L446,281.500393 Z M1389,251 L1442,281.5 L1389,312 L1389,251 Z M1334,281.500786 L1387,251 L1387,312 L1334,281.500786 Z M1223,281.5 L1276,251 L1276,312 L1223,281.5 Z M1112,281.500786 L1165,251 L1165,312 L1112,281.500786 Z M1001,281.500786 L1054,251 L1054,312 L1001,281.500786 Z M779,281.500786 L832,251 L832,312 L779,281.500786 Z M668,281.5 L721,251 L721,312 L668,281.5 Z M557,281.5 L610,251 L609.999212,312 L557,281.5 Z M278,251 L331,281.5 L278,312 L278,251 Z M223,281.5 L276,251 L276,312 L223,281.5 Z M1500,251 L1553,281.499607 L1500,312 L1500,251 Z M1445,281.5 L1498,251 L1498,312 L1445,281.5 Z M1278,251 L1331,281.500786 L1278,312 L1278,251 Z M1167,251 L1220,281.500393 L1167,312 L1167,251 Z M945,251 L998,281.500393 L945,312 L945,251 Z M834,251 L887,281.499607 L834,312 L834,251 Z M611,251 L664,281.5 L611,312 L611,251 Z M389,251 L442,281.500393 L389,312 L389,251 Z M334,281.5 L387,251 L387,312 L334,281.5 Z M167,251 L220,281.5 L167,312 L167,251 Z M1056.00079,251 L1109,281.500393 L1056,312 L1056.00079,251 Z M722,251 L775,281.500393 L722,312 L722,251 Z M500,251 L553,281.5 L500,312 L500,251 Z M1168,313.499607 L1221,283 L1221,344 L1168,313.499607 Z M834,313.499607 L887,283 L887,344 L834,313.499607 Z M390,313.499607 L443,283 L443,344 L390,313.499607 Z M1445,283 L1498,313.499607 L1445,344 L1445,283 Z M945,313.499607 L998,283 L998,344 L945,313.499607 Z M889,283 L942,313.499607 L889,344 L889,283 Z M612,313.499214 L665,283 L665,344 L612,313.499214 Z M501,313.499214 L554,283 L553.999212,344 L501,313.499214 Z M168,313.5 L221,283 L221,344 L168,313.5 Z M1501,313.499607 L1554,283 L1554,344 L1501,313.499607 Z M1390,313.5 L1443,283 L1443,344 L1390,313.5 Z M1334,283 L1387,313.5 L1334,344 L1334,283 Z M1279,313.499214 L1332,283 L1332,344 L1279,313.499214 Z M1222,283 L1275,313.499607 L1222,344 L1222,283 Z M1057,313.5 L1110,283 L1110,344 L1057,313.5 Z M723,313.499607 L776,283 L776,344 L723,313.499607 Z M667,283 L720,313.499607 L667,344 L667,283 Z M334,283 L387,313.500393 L334,344 L334,283 Z M279,313.500393 L332,283 L331.999212,344 L279,313.500393 Z M222,283 L275,313.500393 L222,344 L222,283 Z M1111.00079,283 L1164,313.5 L1111,344 L1111.00079,283 Z M1000.00079,283 L1053,313.5 L1000,344 L1000.00079,283 Z M778,283 L831,313.5 L778,344 L778,283 Z M556,283 L609,313.499607 L556,344 L556,283 Z M445,283 L498,313.499607 L445,344 L445,283 Z M1112,345.500786 L1165,315 L1165,376 L1112,345.500786 Z M1500,315 L1553,345.500786 L1500,376 L1500,315 Z M1223,345.500393 L1276,315 L1276,376 L1223,345.500393 Z M945,315 L998,345.500786 L945,376 L945,315 Z M890,345.500393 L943,315 L943,376 L890,345.500393 Z M779,345.5 L832,315 L832,376 L779,345.5 Z M668,345.500393 L721,315 L721,376 L668,345.500393 Z M557,345.500786 L610,315 L610,376 L557,345.500786 Z M446,345.499214 L499,315 L499,376 L446,345.499214 Z M334,345.499607 L387,315 L387,376 L334,345.499607 Z M1445,345.5 L1498,315 L1498,376 L1445,345.5 Z M1334,345.5 L1387,315 L1387,376 L1334,345.5 Z M1278,315 L1331,345.5 L1278,376 L1278,315 Z M1001,345.500393 L1054,315 L1054,376 L1001,345.500393 Z M389,315 L442,345.5 L389,376 L389,315 Z M278,315 L331,345.5 L278,376 L278,315 Z M223,345.5 L276,315 L276,376 L223,345.5 Z M1389,315 L1442,345.5 L1389,376 L1389,315 Z M1167,315 L1220,345.500393 L1167,376 L1167,315 Z M1056,315 L1109,345.5 L1056,376 L1056,315 Z M834,315 L887,345.500393 L834,376 L834,315 Z M722,315 L775,345.5 L722,376 L722,315 Z M611,315 L664,345.500393 L611,376 L611,315 Z M500,315 L553,345.500393 L500,376 L500,315 Z M167,315 L220,345.5 L167,376 L167,315 Z M1057,378.500786 L1110,348 L1110,409 L1057,378.500786 Z M723,378.5 L776,348 L776,409 L723,378.5 Z M390,378.5 L443,348 L443,409 L390,378.5 Z M279,378.5 L332,348 L332,409 L279,378.5 Z M1390,378.499607 L1443,348 L1443,409 L1390,378.499607 Z M1334,348 L1387,378.499607 L1334,409 L1334,348 Z M1168,378.499607 L1221,348 L1221,409 L1168,378.499607 Z M1000,348 L1053,378.500393 L1000,409 L1000,348 Z M945,378.499607 L998,348 L998,409 L945,378.499607 Z M834,378.5 L887,348 L887,409 L834,378.5 Z M612,378.499607 L665,348 L665,409 L612,378.499607 Z M501,378.500393 L554,348 L554,409 L501,378.500393 Z M445,348 L498,378.500393 L445,409 L445,348 Z M168,378.499607 L221,348 L221,409 L168,378.499607 Z M1501,378.499214 L1554,348 L1554,409 L1501,378.499214 Z M1445,348 L1498,378.499607 L1445,409 L1445,348 Z M1279,378.499607 L1332,348 L1332,409 L1279,378.499607 Z M1222,348 L1275,378.499607 L1222,409 L1222,348 Z M1111,348 L1164,378.500393 L1111,409 L1111,348 Z M889,348 L942,378.499607 L889,409 L889,348 Z M778,348 L831,378.500393 L778,409 L778,348 Z M667,348 L720,378.500393 L667,409 L667,348 Z M556,348 L609,378.500393 L556,409 L556,348 Z M334,348 L387,378.500393 L334,409 L334,348 Z M222.000788,348 L275,378.500393 L222,409 L222.000788,348 Z M1112,410.500786 L1165,380 L1165,441 L1112,410.500786 Z M1001,410.500393 L1054,380 L1054,441 L1001,410.500393 Z M668,410.499607 L721,380 L721,441 L668,410.499607 Z M446,410.500393 L499,380 L499,441 L446,410.500393 Z M334,410.500393 L387,380 L387,441 L334,410.500393 Z M223,410.5 L276,380 L276,441 L223,410.5 Z M1334,410.500393 L1387,380 L1387,441 L1334,410.500393 Z M1223,410.500786 L1276,380 L1276,441 L1223,410.500786 Z M1056,380 L1109,410.5 L1056,441 L1056,380 Z M890,410.500393 L943,380 L943,441 L890,410.500393 Z M779,410.5 L832,380 L832,441 L779,410.5 Z M557,410.5 L610,380 L610,441 L557,410.5 Z M500,380 L553,410.500786 L500,441 L500,380 Z M1500,380 L1553,410.5 L1500,441 L1500,380 Z M1445,410.500393 L1498,380 L1498,441 L1445,410.500393 Z M1389,380 L1442,410.5 L1389,441 L1389,380 Z M1278,380 L1331,410.499607 L1278,441 L1278,380 Z M1167,380 L1220,410.5 L1167,441 L1167,380 Z M945,380 L998,410.500393 L945,441 L945,380 Z M834,380 L887,410.5 L834,441 L834,380 Z M611,380 L664,410.500393 L611,441 L611,380 Z M389,380 L442,410.500393 L389,441 L389,380 Z M278,380 L331,410.5 L278,441 L278,380 Z M167,380 L220,410.499607 L167,441 L167,380 Z M722,380 L775,410.5 L722,441 L722,380 Z M945,442.500393 L998,412 L998,473 L945,442.500393 Z M723,442.500786 L776,412 L776,473 L723,442.500786 Z M612,442.500393 L665,412 L665,473 L612,442.500393 Z M390,442.500393 L443,412 L443,473 L390,442.500393 Z M279,442.500393 L332,412 L332,473 L279,442.500393 Z M168,442.5 L221,412 L221,473 L168,442.5 Z M1501,442.5 L1554,412 L1554,473 L1501,442.5 Z M1111,412 L1164,442.500786 L1111,473 L1111,412 Z M1057,442.500393 L1110,412 L1110,473 L1057,442.500393 Z M889,412 L942,442.5 L889,473 L889,412 Z M501,442.500786 L554,412 L554,473 L501,442.500786 Z M1445,412 L1498,442.500393 L1445,473 L1445,412 Z M1390,442.500393 L1443,412 L1443,473 L1390,442.500393 Z M1334,412 L1387,442.500393 L1334,473 L1334,412 Z M1279,442.5 L1332,412 L1332,473 L1279,442.5 Z M1222,412 L1275,442.500393 L1222,473 L1222,412 Z M1168,442.500393 L1221,412 L1221,473 L1168,442.500393 Z M834,442.5 L887,412 L887,473 L834,442.5 Z M667,412 L720,442.500393 L667,473 L667,412 Z M556,412 L609,442.5 L556,473 L556,412 Z M445,412 L498,442.500393 L445,473 L445,412 Z M222,412 L275,442.499607 L222,473 L222,412 Z M1000,412 L1053,442.5 L1000,473 L1000,412 Z M778,412 L831,442.5 L778,473 L778,412 Z M334,412 L387,442.5 L334,473 L334,412 Z M890,474.499607 L943,444 L943,505 L890,474.499607 Z M557,474.499607 L610,444 L610,505 L557,474.499607 Z M223,474.499607 L276,444 L276,505 L223,474.499607 Z M1167,444 L1220,474.5 L1167,505 L1167,444 Z M1112,474.500393 L1165,444 L1165,505 L1112,474.500393 Z M1001,474.5 L1054,444 L1054,505 L1001,474.5 Z M945,444 L998,474.500393 L945,505 L945,444 Z M779,474.5 L832,444 L832,505 L779,474.5 Z M668,474.499607 L721,444 L721,505 L668,474.499607 Z M611,444 L664,474.499607 L611,505 L611,444 Z M446,474.500393 L499,444 L499,505 L446,474.500393 Z M334,474.499214 L387,444 L387,505 L334,474.499214 Z M278,444 L331,474.500393 L278,505 L278,444 Z M1500,444 L1553,474.5 L1500,505 L1500,444 Z M1445,474.5 L1498,444 L1498,505 L1445,474.5 Z M1334,474.500393 L1387,444 L1387,505 L1334,474.500393 Z M1278,444 L1331,474.500393 L1278,505 L1278,444 Z M1223,474.5 L1276,444 L1276,505 L1223,474.5 Z M722,444 L775,474.5 L722,505 L722,444 Z M500,444 L553,474.499607 L500,505 L500,444 Z M167.000788,444 L220,474.500393 L167,505 L167.000788,444 Z M1389,444 L1442,474.500393 L1389,505 L1389,444 Z M1056,444 L1109,474.500393 L1056,505 L1056,444 Z M834,444 L887,474.499214 L834,505 L834,444 Z M389,444 L442,474.500393 L389,505 L389,444 Z M1501,506.5 L1554,476 L1554,537 L1501,506.5 Z M834,506.500393 L887,476 L887,537 L834,506.500393 Z M501,506.5 L554,476 L554,537 L501,506.5 Z M168,506.500393 L221,476 L221,537 L168,506.500393 Z M1222,476 L1275,506.499607 L1222,537 L1222,476 Z M1168,506.500393 L1221,476 L1221,537 L1168,506.500393 Z M945,506.5 L998,476 L998,537 L945,506.5 Z M723,506.500393 L776,476 L776,537 L723,506.500393 Z M667,476 L720,506.5 L667,537 L667,476 Z M612,506.5 L665,476 L665,537 L612,506.5 Z M390,506.500393 L443,476 L443,537 L390,506.500393 Z M279,506.5 L332,476 L332,537 L279,506.5 Z M1390,506.5 L1443,476 L1443,537 L1390,506.5 Z M1334,476 L1387,506.5 L1334,537 L1334,476 Z M1057,506.5 L1110,476 L1110,537 L1057,506.5 Z M889,476 L942,506.5 L889,537 L889,476 Z M334,476 L387,506.5 L334,537 L334,476 Z M1445,476 L1498,506.5 L1445,537 L1445,476 Z M1279,506.499607 L1332,476 L1332,537 L1279,506.499607 Z M1111,476 L1164,506.500393 L1111,537 L1111,476 Z M1000,476 L1053,506.499607 L1000,537 L1000,476 Z M778,476 L831,506.500393 L778,537 L778,476 Z M556,476 L609,506.5 L556,537 L556,476 Z M445,476 L498,506.5 L445,537 L445,476 Z M222,476 L275,506.499607 L222,537 L222,476 Z M446,538.5 L499,508 L499,569 L446,538.5 Z M1445,538.499607 L1498,508 L1498,569 L1445,538.499607 Z M1278,508 L1331,538.499607 L1278,569 L1278,508 Z M890,538.499607 L943,508 L942.999212,569 L890,538.499607 Z M779,538.5 L832,508 L832,569 L779,538.5 Z M668,538.499607 L721,508 L721,569 L668,538.499607 Z M557,538.499214 L610,508 L610,569 L557,538.499214 Z M334,538.499607 L387,508 L387,569 L334,538.499607 Z M223,538.499607 L276,508 L276,569 L223,538.499607 Z M1334,538.499214 L1387,508 L1387,569 L1334,538.499214 Z M1223,538.499607 L1276,508 L1276,569 L1223,538.499607 Z M1112,538.499214 L1165,508 L1165,569 L1112,538.499214 Z M1056,508 L1109,538.499607 L1056,569 L1056,508 Z M1001,538.499214 L1054,508 L1054,569 L1001,538.499214 Z M945,508 L998,538.499214 L945,569 L945,508 Z M834,508 L887,538.499607 L834,569 L834,508 Z M722,508 L775,538.500393 L722,569 L722,508 Z M611,508 L664,538.499607 L611,569 L611,508 Z M389,508 L442,538.5 L389,569 L389,508 Z M278,508 L331,538.499214 L278,569 L278,508 Z M167,508 L220,538.499607 L167,569 L167,508 Z M1500,508 L1553,538.5 L1500,569 L1500,508 Z M1389,508 L1442,538.499607 L1389,569 L1389,508 Z M1167.00079,508 L1220,538.5 L1167,569 L1167.00079,508 Z M500,508 L553,538.499214 L500,569 L500,508 Z M723,570.500393 L776,540 L776,601 L723,570.500393 Z M390,570.500393 L443,540 L443,601 L390,570.500393 Z M1501,570.500393 L1554,540 L1553.99921,601 L1501,570.500393 Z M1390,570.500393 L1443,540 L1443,601 L1390,570.500393 Z M1334,540 L1387,570.500393 L1334,601 L1334,540 Z M889.000788,540 L942,570.500786 L889,601 L889.000788,540 Z M834,570.500393 L887,540 L887,601 L834,570.500393 Z M778,540 L831,570.500393 L778,601 L778,540 Z M612,570.500393 L665,540 L664.999212,601 L612,570.500393 Z M501,570.5 L554,540 L554,601 L501,570.5 Z M279,570.5 L332,540 L332,601 L279,570.5 Z M168,570.5 L221,540 L221,601 L168,570.5 Z M1279,570.500393 L1332,540 L1332,601 L1279,570.500393 Z M1222.00079,540 L1275,570.500393 L1222,601 L1222.00079,540 Z M1168,570.500393 L1221,540 L1221,601 L1168,570.500393 Z M1111,540 L1164,570.500393 L1111,601 L1111,540 Z M1057,570.500393 L1110,540 L1110,601 L1057,570.500393 Z M945,570.500393 L998,540 L998,601 L945,570.500393 Z M667,540 L720,570.500393 L667,601 L667,540 Z M445,540 L498,570.5 L445,601 L445,540 Z M222,540 L275,570.5 L222,601 L222,540 Z M1445,540 L1498,570.5 L1445,601 L1445,540 Z M1000,540 L1053,570.500393 L1000,601 L1000,540 Z M334,540 L387,570.5 L334,601 L334,540 Z M556,540 L609,570.5 L556,601 L556,540 Z M668,602.500393 L721,572 L721,633 L668,602.500393 Z M334,602.500393 L387,572 L387,633 L334,602.500393 Z M1334,602.5 L1387,572 L1387,633 L1334,602.5 Z M446,602.5 L499,572 L499,633 L446,602.5 Z M1445,602.5 L1498,572 L1498,633 L1445,602.5 Z M1389,572 L1442,602.5 L1389,633 L1389,572 Z M1223,602.5 L1276,572 L1276,633 L1223,602.5 Z M1167,572 L1220,602.5 L1167,633 L1167,572 Z M1112,602.499607 L1165,572 L1165,633 L1112,602.499607 Z M1001,602.5 L1054,572 L1054,633 L1001,602.5 Z M945,572 L998,602.5 L945,633 L945,572 Z M890,602.5 L943,572 L943,633 L890,602.5 Z M834,572 L887,602.5 L834,633 L834,572 Z M779,602.5 L832,572 L832,633 L779,602.5 Z M557,602.5 L610,572 L610,633 L557,602.5 Z M278.000788,572 L331,602.5 L278,633 L278.000788,572 Z M223,602.499607 L276,572 L276,633 L223,602.499607 Z M1500,572 L1553,602.499607 L1500,633 L1500,572 Z M1278,572 L1331,602.499607 L1278,633 L1278,572 Z M1056,572 L1109,602.499607 L1056,633 L1056,572 Z M722,572 L775,602.499607 L722,633 L722,572 Z M500,572 L553,602.499607 L500,633 L500,572 Z M389,572 L442,602.499607 L389,633 L389,572 Z M611,572 L664,602.499607 L611,633 L611,572 Z M167,572 L220,602.499214 L167,633 L167,572 Z M612,634.5 L665,604 L665,665 L612,634.5 Z M279,634.500393 L332,604 L332,665 L279,634.500393 Z M1279,634.5 L1332,604 L1332,665 L1279,634.5 Z M889,604 L942,634.5 L889,665 L889,604 Z M723,634.500393 L776,604 L776,665 L723,634.500393 Z M390,634.500786 L443,604 L443,665 L390,634.500786 Z M168,634.500393 L221,604 L221,665 L168,634.500393 Z M1501,634.500393 L1554,604 L1554,665 L1501,634.500393 Z M1445,604 L1498,634.499607 L1445,665 L1445,604 Z M1390,634.5 L1443,604 L1443,665 L1390,634.5 Z M1334,604 L1387,634.5 L1334,665 L1334,604 Z M1222,604 L1275,634.5 L1222,665 L1222,604 Z M1168,634.500393 L1221,604 L1221,665 L1168,634.500393 Z M1111,604 L1164,634.500393 L1111,665 L1111,604 Z M945,634.5 L998,604 L998,665 L945,634.5 Z M834,634.500393 L887,604 L887,665 L834,634.500393 Z M556,604 L609,634.500393 L556,665 L556,604 Z M501,634.500393 L554,604 L554,665 L501,634.500393 Z M334.000788,604 L387,634.5 L334,665 L334.000788,604 Z M1057,634.5 L1110,604 L1110,665 L1057,634.5 Z M1000,604 L1053,634.5 L1000,665 L1000,604 Z M778,604 L831,634.5 L778,665 L778,604 Z M667,604 L720,634.5 L667,665 L667,604 Z M445,604 L498,634.5 L445,665 L445,604 Z M222,604 L275,634.500393 L222,665 L222,604 Z M945,636 L998,666.499607 L945,697 L945,636 Z M557,666.499607 L610,636 L610,697 L557,666.499607 Z M334,666.500393 L387,636 L387,697 L334,666.500393 Z M223,666.499607 L276,636 L275.999212,697 L223,666.499607 Z M1500,636 L1553,666.499607 L1500,697 L1500,636 Z M1334,666.499214 L1387,636 L1387,697 L1334,666.499214 Z M1278,636 L1331,666.5 L1278,697 L1278,636 Z M1223,666.499214 L1276,636 L1276,697 L1223,666.499214 Z M1112,666.5 L1165,636 L1165,697 L1112,666.5 Z M890,666.5 L943,636 L943,697 L890,666.5 Z M668,666.499607 L721,636 L721,697 L668,666.499607 Z M446,666.5 L499,636 L499,697 L446,666.5 Z M1445,666.499607 L1498,636 L1498,697 L1445,666.499607 Z M1167,636 L1220,666.499214 L1167,697 L1167,636 Z M1056,636 L1109,666.5 L1056,697 L1056,636 Z M1001,666.499607 L1054,636 L1054,697 L1001,666.499607 Z M834,636 L887,666.5 L834,697 L834,636 Z M779,666.499607 L832,636 L832,697 L779,666.499607 Z M611,636 L664,666.499607 L611,697 L611,636 Z M500,636 L553,666.5 L500,697 L500,636 Z M389.000788,636 L442,666.5 L389,697 L389.000788,636 Z M278,636 L331,666.5 L278,697 L278,636 Z M1389,636 L1442,666.499607 L1389,697 L1389,636 Z M722,636 L775,666.499607 L722,697 L722,636 Z M167,636 L220,666.499607 L167,697 L167,636 Z M168,698.499607 L221,668 L221,729 L168,698.499607 Z M1168,698.5 L1221,668 L1221,729 L1168,698.5 Z M501,698.499214 L554,668 L554,729 L501,698.499214 Z M279,698.5 L332,668 L332,729 L279,698.5 Z M1501,698.499214 L1554,668 L1554,729 L1501,698.499214 Z M1390,698.5 L1443,668 L1443,729 L1390,698.5 Z M1334,668 L1387,698.499607 L1334,729 L1334,668 Z M1279,698.5 L1332,668 L1332,729 L1279,698.5 Z M1222,668 L1275,698.499607 L1222,729 L1222,668 Z M1111,668 L1164,698.500393 L1111,729 L1111,668 Z M1000,668 L1053,698.5 L1000,729 L1000,668 Z M889,668 L942,698.499607 L889,729 L889,668 Z M834,698.500393 L887,668 L887,729 L834,698.500393 Z M723,698.5 L776,668 L776,729 L723,698.5 Z M667,668 L720,698.499607 L667,729 L667,668 Z M612,698.499607 L665,668 L665,729 L612,698.499607 Z M445,668 L498,698.5 L445,729 L445,668 Z M390,698.5 L443,668 L443,729 L390,698.5 Z M1445,668 L1498,698.5 L1445,729 L1445,668 Z M1057,698.500393 L1110,668 L1110,729 L1057,698.500393 Z M945,698.499607 L998,668 L998,729 L945,698.499607 Z M556,668 L609,698.500393 L556,729 L556,668 Z M222,668 L275,698.5 L222,729 L222,668 Z M778,668 L831,698.499607 L778,729 L778,668 Z M334,668 L387,698.5 L334,729 L334,668 Z M446,730.500393 L499,700 L499,761 L446,730.500393 Z M1445,730.500393 L1498,700 L1498,761 L1445,730.500393 Z M1223,730.5 L1276,700 L1276,761 L1223,730.5 Z M1112,730.5 L1165,700 L1165,761 L1112,730.5 Z M1056,700 L1109,730.5 L1056,761 L1056,700 Z M945,700 L998,730.5 L945,761 L945,700 Z M557,730.5 L610,700 L610,761 L557,730.5 Z M334,730.499607 L387,700 L387,761 L334,730.499607 Z M223,730.5 L276,700 L276,761 L223,730.5 Z M1389,700 L1442,730.5 L1389,761 L1389,700 Z M1334,730.499607 L1387,700 L1387,761 L1334,730.499607 Z M1278,700 L1331,730.499607 L1278,761 L1278,700 Z M1167,700 L1220,730.499607 L1167,761 L1167,700 Z M1001,730.499607 L1054,700 L1054,761 L1001,730.499607 Z M890,730.5 L943,700 L943,761 L890,730.5 Z M779,730.5 L832,700 L832,761 L779,730.5 Z M722,700 L775,730.500393 L722,761 L722,700 Z M668,730.499607 L721,700 L721,761 L668,730.499607 Z M611,700 L664,730.5 L611,761 L611,700 Z M500,700 L553,730.500393 L500,761 L500,700 Z M278,700 L331,730.499607 L278,761 L278,700 Z M167,700 L220,730.500393 L167,761 L167,700 Z M1500,700 L1553,730.499607 L1500,761 L1500,700 Z M834,700 L887,730.500393 L834,761 L834,700 Z M389,700 L442,730.500393 L389,761 L389,700 Z M390,762.5 L443,732 L443,793 L390,762.5 Z M1501,762.499607 L1554,732 L1554,793 L1501,762.499607 Z M1390,762.499607 L1443,732 L1442.99921,793 L1390,762.499607 Z M1334,732 L1387,762.499607 L1334,793 L1334,732 Z M1222,732 L1275,762.499607 L1222,793 L1222,732 Z M1168,762.5 L1221,732 L1221,793 L1168,762.5 Z M1111,732 L1164,762.499607 L1111,793 L1111,732 Z M1057,762.499607 L1110,732 L1109.99921,793 L1057,762.499607 Z M723,762.499607 L776,732 L776,793 L723,762.499607 Z M501,762.5 L554,732 L554,793 L501,762.5 Z M279,762.499607 L332,732 L332,793 L279,762.499607 Z M168,762.499607 L221,732 L221,793 L168,762.499607 Z M1445,732 L1498,762.499607 L1445,793 L1445,732 Z M1279,762.499214 L1332,732 L1332,793 L1279,762.499214 Z M1000,732 L1053,762.499607 L1000,793 L1000,732 Z M945,762.499607 L998,732 L998,793 L945,762.499607 Z M889,732 L942,762.5 L889,793 L889,732 Z M834,762.499607 L887,732 L887,793 L834,762.499607 Z M778,732 L831,762.499607 L778,793 L778,732 Z M667,732 L720,762.499214 L667,793 L667,732 Z M612,762.5 L665,732 L665,793 L612,762.5 Z M556,732 L609,762.499607 L556,793 L556,732 Z M222,732 L275,762.500393 L222,793 L222,732 Z M445,732 L498,762.500393 L445,793 L445,732 Z M334,732 L387,762.5 L334,793 L334,732 Z M1167,764 L1220,794.500393 L1167,825 L1167,764 Z M334,794.499607 L387,764 L387,825 L334,794.499607 Z M1334,794.5 L1387,764 L1387,825 L1334,794.5 Z M1112,794.5 L1165,764 L1165,825 L1112,794.5 Z M1001,794.499607 L1054,764 L1054,825 L1001,794.499607 Z M446,794.499607 L499,764 L499,825 L446,794.499607 Z M1500.00079,764 L1553,794.5 L1500,825 L1500.00079,764 Z M1445,794.499607 L1498,764 L1498,825 L1445,794.499607 Z M1278,764 L1331,794.499607 L1278,825 L1278,764 Z M1223,794.500393 L1276,764 L1276,825 L1223,794.500393 Z M1056,764 L1109,794.5 L1056,825 L1056,764 Z M890,794.5 L943,764 L943,825 L890,794.5 Z M834,764 L887,794.5 L834,825 L834,764 Z M779,794.499607 L832,764 L832,825 L779,794.499607 Z M668,794.499607 L721,764 L721,825 L668,794.499607 Z M611,764 L664,794.5 L611,825 L611,764 Z M557,794.5 L610,764 L610,825 L557,794.5 Z M278,764 L331,794.500393 L278,825 L278,764 Z M223,794.5 L276,764 L276,825 L223,794.5 Z M167,764 L220,794.5 L167,825 L167,764 Z M1389.00079,764 L1442,794.499607 L1389,825 L1389.00079,764 Z M945,764 L998,794.499607 L945,825 L945,764 Z M722,764 L775,794.499607 L722,825 L722,764 Z M389,764 L442,794.5 L389,825 L389,764 Z M500,764 L553,794.5 L500,825 L500,764 Z M279,826.5 L332,796 L332,857 L279,826.5 Z M1501,826.500393 L1554,796 L1554,857 L1501,826.500393 Z M1334,796 L1387,826.500393 L1334,857 L1334,796 Z M1222,796 L1275,826.499607 L1222,857 L1222,796 Z M945,826.499607 L998,796 L998,857 L945,826.499607 Z M889,796 L942,826.499607 L889,857 L889,796 Z M667,796 L720,826.500393 L667,857 L667,796 Z M390,826.500393 L443,796 L442.999212,857 L390,826.500393 Z M168,826.501179 L221,796 L221,857 L168,826.501179 Z M1445.00079,796 L1498,826.500786 L1445,857 L1445.00079,796 Z M1390,826.5 L1443,796 L1443,857 L1390,826.5 Z M1279,826.499214 L1332,796 L1332,857 L1279,826.499214 Z M1168,826.500786 L1221,796 L1221,857 L1168,826.500786 Z M1111,796 L1164,826.500786 L1111,857 L1111,796 Z M1057,826.500393 L1110,796 L1110,857 L1057,826.500393 Z M834,826.500786 L887,796 L887,857 L834,826.500786 Z M723,826.500786 L776,796 L775.999212,857 L723,826.500786 Z M612,826.500393 L665,796 L665,857 L612,826.500393 Z M501,826.500393 L554,796 L554,857 L501,826.500393 Z M222,796 L275,826.499607 L222,857 L222,796 Z M1000.00079,796 L1053,826.500393 L1000,857 L1000.00079,796 Z M778.000788,796 L831,826.500393 L778,857 L778.000788,796 Z M445,796 L498,826.500393 L445,857 L445,796 Z M334,796 L387,826.500393 L334,857 L334,796 Z M556.000788,796 L609,826.5 L556,857 L556.000788,796 Z M1278,828 L1331,858.5 L1278,889 L1278,828 Z M223,858.5 L276,828 L276,889 L223,858.5 Z M1445,858.5 L1498,828 L1497.99921,889 L1445,858.5 Z M1334,858.500393 L1387,828 L1386.99921,889 L1334,858.500393 Z M1223,858.5 L1276,828 L1276,889 L1223,858.5 Z M1167,828 L1220,858.5 L1167,889 L1167,828 Z M1001,858.500393 L1054,828 L1053.99921,889 L1001,858.500393 Z M945,828 L998,858.499607 L945,889 L945,828 Z M890,858.5 L943,828 L943,889 L890,858.5 Z M334,858.5 L387,828 L387,889 L334,858.5 Z M1112,858.499607 L1165,828 L1165,889 L1112,858.499607 Z M779,858.500393 L832,828 L831.999212,889 L779,858.500393 Z M668,858.499607 L721,828 L720.999212,889 L668,858.499607 Z M557,858.5 L610,828 L610,889 L557,858.5 Z M446,858.5 L499,828 L499,889 L446,858.5 Z M278,828 L331,858.499607 L278,889 L278,828 Z M167,828 L220,858.500393 L167,889 L167,828 Z M1500,828 L1553,858.499607 L1500,889 L1500,828 Z M1389,828 L1442,858.499607 L1389,889 L1389,828 Z M834.000788,828 L887,858.5 L834,889 L834.000788,828 Z M722.000788,828 L775,858.499607 L722,889 L722.000788,828 Z M389,828 L442,858.500393 L389,889 L389,828 Z M1056.00079,828 L1109,858.5 L1056,889 L1056.00079,828 Z M611.000788,828 L664,858.5 L611,889 L611.000788,828 Z M500.000788,828 L553,858.5 L500,889 L500.000788,828 Z M1334.00079,860 L1387,890.500393 L1334,921 L1334.00079,860 Z M168,890.5 L221,860 L221,921 L168,890.5 Z M834,890.5 L887,860 L886.999212,921 L834,890.5 Z M1501,891.5 L1554,861 L1553.99921,922 L1501,891.5 Z M1445,861 L1498,891.500393 L1445,922 L1445,861 Z M1390,890.5 L1443,860 L1443,921 L1390,890.5 Z M1279,891.499607 L1332,861 L1331.99921,922 L1279,891.499607 Z M1222,861 L1275,891.499607 L1222,922 L1222,861 Z M1168,891.5 L1221,861 L1221,922 L1168,891.5 Z M945,891.499607 L998,861 L998,922 L945,891.499607 Z M889,861 L942,891.499214 L889,922 L889,861 Z M778,860 L831,890.500393 L778,921 L778,860 Z M723,891.500786 L776,861 L776,922 L723,891.500786 Z M612,891.5 L665,861 L664.999212,922 L612,891.5 Z M501,891.499607 L554,861 L554,922 L501,891.499607 Z M390,891.499607 L443,861 L443,922 L390,891.499607 Z M279,891.499607 L332,861 L332,922 L279,891.499607 Z M222,860 L275,890.5 L222,921 L222,860 Z M1111,861 L1164,891.5 L1111,922 L1111,861 Z M1057,891.499214 L1110,861 L1110,922 L1057,891.499214 Z M1000,861 L1053,891.499214 L1000,922 L1000,861 Z M667.000788,861 L720,891.500786 L667,922 L667.000788,861 Z M445,861 L498,891.499214 L445,922 L445,861 Z M334,861 L387,891.499214 L334,922 L334,861 Z M556,861 L609,891.499607 L556,922 L556,861 Z M1389,893 L1442,923.499607 L1389,954 L1389,893 Z M1334,923.500393 L1387,893 L1387,954 L1334,923.500393 Z M1278,893 L1331,923.500393 L1278,954 L1278,893 Z M1112,923.499607 L1165,893 L1165,954 L1112,923.499607 Z M890,923.500393 L943,893 L943,954 L890,923.500393 Z M779,923.499607 L832,893 L832,954 L779,923.499607 Z M1223,923.499214 L1276,893 L1276,954 L1223,923.499214 Z M945,893 L998,923.499607 L945,954 L945,893 Z M668,923.499607 L721,893 L721,954 L668,923.499607 Z M446,923.5 L499,893 L499,954 L446,923.5 Z M278,893 L331,923.5 L278,954 L278,893 Z M223,923.499607 L276,893 L276,954 L223,923.499607 Z M1500,893 L1553,923.5 L1500,954 L1500,893 Z M1445,923.499607 L1498,893 L1498,954 L1445,923.499607 Z M1167,893 L1220,923.5 L1167,954 L1167,893 Z M1056,893 L1109,923.500393 L1056,954 L1056,893 Z M1001,923.5 L1054,893 L1054,954 L1001,923.5 Z M834,893 L887,923.500393 L834,954 L834,893 Z M557,923.5 L610,893 L610,954 L557,923.5 Z M389,893 L442,923.500393 L389,954 L389,893 Z M334,923.5 L387,893 L387,954 L334,923.5 Z M167,893 L220,923.500393 L167,954 L167,893 Z M722,893 L775,923.500393 L722,954 L722,893 Z M611,893 L664,923.499607 L611,954 L611,893 Z M500,893 L553,923.5 L500,954 L500,893 Z M1501,955.5 L1554,925 L1554,986 L1501,955.5 Z M723,955.499607 L776,925 L776,986 L723,955.499607 Z M1445,925 L1498,955.499607 L1445,986 L1445,925 Z M1334,925 L1387,955.5 L1334,986 L1334,925 Z M1279,955.5 L1332,925 L1332,986 L1279,955.5 Z M1168,955.499607 L1221,925 L1221,986 L1168,955.499607 Z M1111,925 L1164,955.499607 L1111,986 L1111,925 Z M1057,955.500393 L1110,925 L1110,986 L1057,955.500393 Z M889,925 L942,955.5 L889,986 L889,925 Z M834,955.5 L887,925 L887,986 L834,955.5 Z M612,955.5 L665,925 L665,986 L612,955.5 Z M501,955.500393 L554,925 L554,986 L501,955.500393 Z M390,955.500393 L443,925 L443,986 L390,955.500393 Z M168,955.5 L221,925 L221,986 L168,955.5 Z M1390,955.499607 L1443,925 L1443,986 L1390,955.499607 Z M1222,925 L1275,955.5 L1222,986 L1222,925 Z M1000,925 L1053,955.500393 L1000,986 L1000,925 Z M945,955.499607 L998,925 L998,986 L945,955.499607 Z M667,925 L720,955.499607 L667,986 L667,925 Z M556,925 L609,955.5 L556,986 L556,925 Z M445,925 L498,955.5 L445,986 L445,925 Z M334,925 L387,955.499214 L334,986 L334,925 Z M279,955.499607 L332,925 L332,986 L279,955.499607 Z M222,925 L275,955.5 L222,986 L222,925 Z M778,925 L831,955.499607 L778,986 L778,925 Z M1500,957 L1553,987.5 L1500,1018 L1500,957 Z M1445,987.500786 L1498,957 L1498,1018 L1445,987.500786 Z M668,987.5 L721,957 L721,1018 L668,987.5 Z M1389,957 L1442,987.500786 L1389,1018 L1389,957 Z M1223,987.500393 L1276,957 L1276,1018 L1223,987.500393 Z M1167,957 L1220,987.500393 L1167,1018 L1167,957 Z M1112,987.500393 L1165,957 L1165,1018 L1112,987.500393 Z M1001,987.500393 L1054,957 L1054,1018 L1001,987.500393 Z M945,957 L998,987.500393 L945,1018 L945,957 Z M779,987.500393 L832,957 L832,1018 L779,987.500393 Z M557,987.500393 L610,957 L610,1018 L557,987.500393 Z M446,987.500393 L499,957 L499,1018 L446,987.500393 Z M334,987.500393 L387,957 L387,1018 L334,987.500393 Z M278,957 L331,987.500393 L278,1018 L278,957 Z M1334,987.500393 L1387,957 L1387,1018 L1334,987.500393 Z M1278,957 L1331,987.500786 L1278,1018 L1278,957 Z M1056,957 L1109,987.500393 L1056,1018 L1056,957 Z M890,987.500393 L943,957 L943,1018 L890,987.500393 Z M389,957 L442,987.5 L389,1018 L389,957 Z M223,987.500786 L276,957 L276,1018 L223,987.500786 Z M834,957 L887,987.500393 L834,1018 L834,957 Z M722,957 L775,987.5 L722,1018 L722,957 Z M611,957 L664,987.5 L611,1018 L611,957 Z M500,957 L553,987.499607 L500,1018 L500,957 Z M167,957 L220,987.499607 L167,1018 L167,957 Z M612,1019.5 L665,989 L665,1050 L612,1019.5 Z M1501,1019.5 L1554,989 L1554,1050 L1501,1019.5 Z M1390,1019.49961 L1443,989 L1443,1050 L1390,1019.49961 Z M1222,989 L1275,1019.5 L1222,1050 L1222,989 Z M1168,1019.5 L1221,989 L1221,1050 L1168,1019.5 Z M1057,1019.5 L1110,989 L1110,1050 L1057,1019.5 Z M945,1019.49961 L998,989 L998,1050 L945,1019.49961 Z M723,1019.5 L776,989 L776,1050 L723,1019.5 Z M279,1019.49961 L332,989 L332,1050 L279,1019.49961 Z M1445,989 L1498,1019.5 L1445,1050 L1445,989 Z M1334,989 L1387,1019.49961 L1334,1050 L1334,989 Z M1279,1019.5 L1332,989 L1332,1050 L1279,1019.5 Z M1111,989 L1164,1019.5 L1111,1050 L1111,989 Z M1000,989 L1053,1019.49961 L1000,1050 L1000,989 Z M889,989 L942,1019.49961 L889,1050 L889,989 Z M834,1019.49961 L887,989 L887,1050 L834,1019.49961 Z M667,989 L720,1019.49961 L667,1050 L667,989 Z M556,989 L609,1019.5 L556,1050 L556,989 Z M501,1019.49961 L554,989 L554,1050 L501,1019.49961 Z M445,989 L498,1019.49961 L445,1050 L445,989 Z M390,1019.49921 L443,989 L443,1050 L390,1019.49921 Z M168,1019.49961 L221,989 L221,1050 L168,1019.49961 Z M778,989 L831,1019.49961 L778,1050 L778,989 Z M334,989 L387,1019.49961 L334,1050 L334,989 Z M222,989 L275,1019.49961 L222,1050 L222,989 Z M1334,1051.50039 L1387,1021 L1387,1082 L1334,1051.50039 Z M557,1051.50079 L610,1021 L610,1082 L557,1051.50079 Z M1500,1021 L1553,1051.5 L1500,1082 L1500,1021 Z M1445,1051.50039 L1498,1021 L1498,1082 L1445,1051.50039 Z M1278,1021 L1331,1051.5 L1278,1082 L1278,1021 Z M1112,1051.5 L1165,1021 L1165,1082 L1112,1051.5 Z M1001,1051.50039 L1054,1021 L1054,1082 L1001,1051.50039 Z M890,1051.5 L943,1021 L943,1082 L890,1051.5 Z M668,1051.50039 L721,1021 L721,1082 L668,1051.50039 Z M446,1051.50039 L499,1021 L499,1082 L446,1051.50039 Z M334,1051.50079 L387,1021 L387,1082 L334,1051.50079 Z M223,1051.5 L276,1021 L276,1082 L223,1051.5 Z M1223,1051.50039 L1276,1021 L1276,1082 L1223,1051.50039 Z M1167,1021 L1220,1051.50039 L1167,1082 L1167,1021 Z M1056,1021 L1109,1051.5 L1056,1082 L1056,1021 Z M945,1021 L998,1051.50079 L945,1082 L945,1021 Z M779,1051.5 L832,1021 L832,1082 L779,1051.5 Z M611,1021 L664,1051.5 L611,1082 L611,1021 Z M500,1021 L553,1051.5 L500,1082 L500,1021 Z M389,1021 L442,1051.5 L389,1082 L389,1021 Z M278,1021 L331,1051.50039 L278,1082 L278,1021 Z M167,1021 L220,1051.5 L167,1082 L167,1021 Z M834,1021 L887,1051.50039 L834,1082 L834,1021 Z M722,1021 L775,1051.50039 L722,1082 L722,1021 Z M1389,1021 L1442,1051.5 L1389,1082 L1389,1021 Z" id="Fill-1"></path>
            </g>
        </g>
    </g>
</svg>