<?xml version="1.0" encoding="UTF-8"?>
<svg width="745px" height="512px" viewBox="0 0 745 512" version="1.1" xmlns="http://www.w3.org/2000/svg" xmlns:xlink="http://www.w3.org/1999/xlink">
    <!-- Generator: sketchtool 61.2 (101010) - https://sketch.com -->
    <title>3BA9111D-FBB8-4FEB-87E5-F8EEC2D8B0D1@1.00x</title>
    <desc>Created with sketchtool.</desc>
    <defs>
        <linearGradient x1="0%" y1="50.0028134%" x2="99.9931642%" y2="50.0028134%" id="linearGradient-1">
            <stop stop-color="#FAE74F" offset="0%"></stop>
            <stop stop-color="#7BC142" offset="100%"></stop>
        </linearGradient>
        <linearGradient x1="49.9772341%" y1="111.878355%" x2="49.9772341%" y2="22.5315789%" id="linearGradient-2">
            <stop stop-color="#7BC142" offset="0%"></stop>
            <stop stop-color="#9CC943" offset="27.26%"></stop>
            <stop stop-color="#B3D045" offset="54.55%"></stop>
            <stop stop-color="#C1D446" offset="79.56%"></stop>
            <stop stop-color="#C6D646" offset="100%"></stop>
        </linearGradient>
        <linearGradient x1="0.0158836689%" y1="50.0056957%" x2="100.014131%" y2="50.0056957%" id="linearGradient-3">
            <stop stop-color="#FAE74F" offset="0%"></stop>
            <stop stop-color="#E0DE4A" offset="100%"></stop>
        </linearGradient>
        <linearGradient x1="57.2027842%" y1="30.758426%" x2="46.7824664%" y2="66.6865697%" id="linearGradient-4">
            <stop stop-color="#C6D646" offset="0%"></stop>
            <stop stop-color="#7BC142" offset="100%"></stop>
        </linearGradient>
        <linearGradient x1="69.1807212%" y1="49.9845781%" x2="-3.08973648%" y2="49.9845781%" id="linearGradient-5">
            <stop stop-color="#C6D646" offset="0%"></stop>
            <stop stop-color="#7BC142" offset="100%"></stop>
        </linearGradient>
    </defs>
    <g id="loops" stroke="none" stroke-width="1" fill="none" fill-rule="evenodd">
        <g id="Loops-bcg-3" transform="translate(-695.000000, -512.000000)" fill-rule="nonzero">
            <g id="Loop-Citronis" transform="translate(1121.000000, 832.000000) rotate(-180.000000) translate(-1121.000000, -832.000000) translate(695.000000, 512.000000)">
                <path d="M658.8,639.8 C658.8,639.8 658.8,639.8 658.8,639.8 L647.6,639.8 C539,639.8 450.6,551.4 450.6,442.8 L450.6,335.8 L418.4,335.8 C382.6,409.2 307.2,460 220.2,460 C98.8,460 0,361.2 0,239.6 L0,220.2 C0,98.8 98.8,0 220.4,0 L428.4,0 C490.4,0 540.8,50.4 540.8,112.4 L540.8,245.8 L654.4,245.8 C707,245.8 756.6,266.4 793.8,303.6 C831,340.8 851.4,390.6 851.4,443.6 L851.4,447.4 C851.4,498.8 831.4,547.2 795,583.4 C758.6,619.8 710.2,639.8 658.8,639.8 Z M540.6,335.8 L540.6,442.8 C540.6,501.8 588.6,549.8 647.6,549.8 L658.8,549.8 C658.8,549.8 658.8,549.8 658.8,549.8 C686.2,549.8 711.8,539.2 731.2,519.8 C750.6,500.4 761.2,474.8 761.2,447.4 L761.2,443.6 C761.2,414.6 750,387.6 729.8,367.2 C709.6,347 682.8,335.8 654.2,335.8 L540.6,335.8 Z M220.4,90 C148.4,90 90,148.4 90,220.4 L90,239.8 C90,311.6 148.4,370.2 220.4,370.2 C254.8,370.2 286,356.8 309.4,335 C252.4,327.6 208.2,278.6 208.2,219.6 L208.2,217.6 C208.2,153.4 260.4,101.2 324.6,101.2 C388.8,101.2 441,153.4 441,217.6 L441,239.8 C441,241.8 441,244 441,246 L451,246 L451,112.4 C451,100 441,90 428.6,90 L220.4,90 Z M324.4,191.2 C309.8,191.2 298,203 298,217.6 L298,219.6 C298,234.2 309.8,246 324.4,246 L350.6,246 C350.6,244 350.8,241.8 350.8,239.8 L350.8,217.6 C350.6,203 338.8,191.2 324.4,191.2 Z" id="Shape" fill="url(#linearGradient-1)"></path>
                <path d="M730,367.2 C750.2,387.6 761.4,414.6 761.4,443.6 L761.4,447.4 C761.4,474.8 750.8,500.4 731.4,519.8 C712,539.2 686.4,549.8 659,549.8 C659,549.8 659,549.8 659,549.8 L647.8,549.8 C588.8,549.8 540.8,501.8 540.8,442.8 L540.8,335.8 L450.8,335.8 L450.8,442.8 C450.8,551.4 539.2,639.8 647.8,639.8 L659,639.8 C659,639.8 659,639.8 659,639.8 C710.4,639.8 758.8,619.8 795,583.4 C831.4,547 851.4,498.8 851.4,447.4 L851.4,443.6 C851.4,404.8 840.4,367.6 819.8,335.8 L654.6,335.8 C683,335.8 709.8,347 730,367.2 Z" id="Path" fill="url(#linearGradient-2)"></path>
                <path d="M540.6,245.8 L540.6,112.4 C540.6,50.4 490.2,0 428.2,0 L220.2,0 C113.6,0 24.4,76.2 4.2,177 L93.4,190.2 C107.2,132.8 158.8,90 220.4,90 L428.4,90 C440.8,90 450.8,100 450.8,112.4 L450.8,245.8 L540.6,245.8 Z" id="Path" fill="url(#linearGradient-3)"></path>
                <path d="M208,217.4 L208,219.4 C208,278.4 252.2,327.4 309.2,334.8 C309.2,334.8 350.4,299.6 350.4,245.8 L324.2,245.8 C309.6,245.8 297.8,234 297.8,219.4 L297.8,217.4 C297.8,202.8 309.6,191 324.2,191 C337.8,191 349,201.4 350.4,214.6 C350.4,173.2 350.4,124.2 350.4,104 C342,102 333.2,101 324.2,101 C260.2,101.2 208,153.4 208,217.4 Z" id="Path" fill="url(#linearGradient-4)"></path>
                <path d="M540.6,335.8 L654.2,335.8 C682.8,335.8 709.6,347 729.8,367.2 C750,387.6 761.2,414.6 761.2,443.6 L761.2,447.4 C761.2,449 761.2,450.4 761,452 L851,452 C851,450.4 851,449 851,447.4 L851,443.6 C851,390.6 830.6,341 793.4,303.6 C756.2,266.2 706.8,245.8 654,245.8 L540.4,245.8 L450.4,245.8 L440.4,245.8 C440.4,245.8 434.2,308.6 418.4,335.8 L450.6,335.8 L540.6,335.8 Z" id="Path" fill="url(#linearGradient-5)"></path>
            </g>
        </g>
    </g>
</svg>