<?xml version="1.0" encoding="UTF-8"?>
<svg width="796px" height="432px" viewBox="0 0 796 432" version="1.1" xmlns="http://www.w3.org/2000/svg" xmlns:xlink="http://www.w3.org/1999/xlink">
    <!-- Generator: sketchtool 61.2 (101010) - https://sketch.com -->
    <title>41B2FC3B-52D9-4135-94F4-3E8F9ECE5731@1.00x</title>
    <desc>Created with sketchtool.</desc>
    <defs>
        <linearGradient x1="21.4224792%" y1="49.9959807%" x2="69.2878462%" y2="49.9959807%" id="linearGradient-1">
            <stop stop-color="#ED2024" offset="0%"></stop>
            <stop stop-color="#EE4596" offset="39.67%"></stop>
            <stop stop-color="#E64394" offset="48.64%"></stop>
            <stop stop-color="#D73E90" offset="61.48%"></stop>
            <stop stop-color="#C0388C" offset="76.65%"></stop>
            <stop stop-color="#A13287" offset="93.47%"></stop>
            <stop stop-color="#943084" offset="100%"></stop>
        </linearGradient>
        <linearGradient x1="50.0119593%" y1="47.8804922%" x2="50.0119593%" y2="125.567776%" id="linearGradient-2">
            <stop stop-color="#943084" offset="0%"></stop>
            <stop stop-color="#592C82" offset="98.39%"></stop>
            <stop stop-color="#572C82" offset="100%"></stop>
        </linearGradient>
        <linearGradient x1="136.280646%" y1="50%" x2="7.3262257%" y2="50%" id="linearGradient-3">
            <stop stop-color="#782E83" offset="0%"></stop>
            <stop stop-color="#ED2024" offset="100%"></stop>
        </linearGradient>
    </defs>
    <g id="loops" stroke="none" stroke-width="1" fill="none" fill-rule="evenodd">
        <g id="Loops-bcg-1" transform="translate(-644.000000, -592.000000)" fill-rule="nonzero">
            <g id="Loop-deviant" transform="translate(644.000000, 592.000000)">
                <path d="M306.927669,799.121569 C233.51331,799.121569 173.583221,739.380165 173.583221,665.720514 L173.583221,662.294483 C173.583221,588.848959 233.299274,528.893428 306.927669,528.893428 L343.955902,528.893428 L343.955902,433.178707 L216.604464,433.178707 C97.1723582,433.178707 0,335.965097 0,216.696417 C0,97.2136099 97.1723582,5.68434189e-14 216.604464,5.68434189e-14 L223.667653,5.68434189e-14 C343.099758,5.68434189e-14 440.272116,97.2136099 440.272116,216.696417 L440.272116,337.035731 L531.451465,337.035731 L531.451465,300.848286 C531.451465,228.045142 590.739446,168.731993 663.511697,168.731993 L663.939769,168.731993 C736.712019,168.731993 796,228.045142 796,300.848286 C796,373.223176 737.140091,432.536326 664.795913,432.96458 L627.767679,433.392834 L627.767679,528.893428 L655.8064,528.893428 C724.511966,528.893428 780.161334,584.780548 780.37537,653.301154 C780.37537,686.490822 767.533208,717.753349 743.989244,741.307307 C720.445281,764.861266 689.19602,777.708879 656.020436,777.708879 C587.31487,777.708879 531.451465,721.82176 531.451465,653.301154 L531.451465,625.250531 L440.272116,625.250531 L440.272116,665.720514 C440.05808,739.166038 380.342027,799.121569 306.927669,799.121569 Z M306.927669,625.250531 C286.594246,625.250531 269.899435,641.738301 269.899435,662.294483 L269.899435,665.720514 C269.899435,686.062569 286.38021,702.764466 306.927669,702.764466 C327.261092,702.764466 343.955902,686.276695 343.955902,665.720514 L343.955902,625.250531 L306.927669,625.250531 Z M627.767679,625.250531 L627.767679,653.301154 C627.767679,668.71829 640.395805,681.351777 655.8064,681.351777 C663.297661,681.351777 670.36085,678.354 675.71175,673.214955 C681.062651,667.861783 683.84512,660.795595 683.84512,653.301154 C683.84512,637.669891 671.216994,625.036404 655.592364,625.036404 L627.767679,625.036404 L627.767679,625.250531 Z M440.05808,528.893428 L531.237429,528.893428 L531.237429,433.178707 L440.05808,433.178707 L440.05808,528.893428 Z M216.604464,96.3571023 C150.253294,96.3571023 96.316214,150.31708 96.316214,216.696417 C96.316214,283.075754 150.253294,337.035731 216.604464,337.035731 L343.955902,337.035731 L343.955902,216.696417 C343.955902,150.31708 290.018822,96.3571023 223.667653,96.3571023 L216.604464,96.3571023 Z M663.511697,264.874968 C643.820382,264.874968 627.767679,280.934485 627.767679,300.634159 L627.767679,336.821604 L664.153805,336.393351 C683.84512,336.393351 699.683786,320.119707 699.683786,300.634159 C699.683786,280.934485 683.631084,264.874968 663.939769,264.874968 L663.511697,264.874968 L663.511697,264.874968 Z" id="Shape" fill="url(#linearGradient-1)"></path>
                <path d="M663.67885,168.564706 L663.249933,168.564706 C650.811316,168.564706 638.801617,170.277023 627.435294,173.487617 L627.435294,300.627137 C627.435294,280.935494 643.519713,264.882524 663.249933,264.882524 L663.67885,264.882524 C683.40907,264.882524 699.493489,280.935494 699.493489,300.627137 C699.493489,320.31878 683.40907,336.371749 663.893309,336.371749 L627.435294,336.799829 L627.435294,433.117647 L664.536686,432.689568 C737.023799,432.261489 796,372.97252 796,300.627137 C796,227.853674 736.594881,168.564706 663.67885,168.564706 Z" id="Path" fill="url(#linearGradient-2)"></path>
                <rect id="Rectangle" fill="url(#linearGradient-3)" x="439.360784" y="337.129412" width="91.3058824" height="95.9882353"></rect>
                <path d="M216.728548,433.117647 L344.152941,433.117647 L344.152941,336.648221 L216.728548,336.648221 C150.339368,336.648221 96.3713899,282.625343 96.3713899,216.168627 L-5.68434189e-14,216.168627 C-5.68434189e-14,335.790715 97.2280245,433.117647 216.728548,433.117647 Z" id="Path" fill="#ED2024"></path>
            </g>
        </g>
    </g>
</svg>