<?xml version="1.0" encoding="UTF-8"?>
<svg width="636px" height="680px" viewBox="0 0 636 680" version="1.1" xmlns="http://www.w3.org/2000/svg" xmlns:xlink="http://www.w3.org/1999/xlink">
    <!-- Generator: sketchtool 61.2 (101010) - https://sketch.com -->
    <title>3E8A580C-3573-4237-9D62-4A209E4E3040@1.00x</title>
    <desc>Created with sketchtool.</desc>
    <defs>
        <linearGradient x1="50.0024304%" y1="10.9008032%" x2="50.0024304%" y2="91.3949917%" id="linearGradient-1">
            <stop stop-color="#BFD8F1" offset="0%"></stop>
            <stop stop-color="#BDCAE7" offset="15.17%"></stop>
            <stop stop-color="#B8A5CF" offset="46.17%"></stop>
            <stop stop-color="#B16EAD" offset="89.89%"></stop>
            <stop stop-color="#B05FA6" offset="100%"></stop>
        </linearGradient>
        <linearGradient x1="27.5513918%" y1="6.96268495%" x2="54.0140553%" y2="78.7779141%" id="linearGradient-2">
            <stop stop-color="#BFD8F1" offset="0%"></stop>
            <stop stop-color="#BDCAE7" offset="15.17%"></stop>
            <stop stop-color="#B8A5CF" offset="46.17%"></stop>
            <stop stop-color="#B16EAD" offset="89.89%"></stop>
            <stop stop-color="#B05FA6" offset="100%"></stop>
        </linearGradient>
        <linearGradient x1="-40.914548%" y1="49.9913456%" x2="46.7016949%" y2="49.9913456%" id="linearGradient-3">
            <stop stop-color="#BFD8F1" offset="0%"></stop>
            <stop stop-color="#BDCAE7" offset="15.17%"></stop>
            <stop stop-color="#B8A5CF" offset="46.17%"></stop>
            <stop stop-color="#B16EAD" offset="89.89%"></stop>
            <stop stop-color="#B05FA6" offset="100%"></stop>
        </linearGradient>
        <linearGradient x1="49.9711697%" y1="52.0032772%" x2="49.9711697%" y2="33.3832394%" id="linearGradient-4">
            <stop stop-color="#B9A8D1" offset="6.734525%"></stop>
            <stop stop-color="#B799C8" offset="100%"></stop>
        </linearGradient>
        <linearGradient x1="49.9762295%" y1="21.9126054%" x2="49.9762295%" y2="155.186223%" id="linearGradient-5">
            <stop stop-color="#BFD8F1" offset="0%"></stop>
            <stop stop-color="#B37EB7" offset="100%"></stop>
        </linearGradient>
        <linearGradient x1="105.976954%" y1="12.3258857%" x2="39.05124%" y2="54.6116571%" id="linearGradient-6">
            <stop stop-color="#B483BA" offset="0%"></stop>
            <stop stop-color="#B05FA6" offset="100%"></stop>
        </linearGradient>
        <linearGradient x1="213.607119%" y1="-395.306557%" x2="-234.815155%" y2="817.808197%" id="linearGradient-7">
            <stop stop-color="#B483BA" offset="0%"></stop>
            <stop stop-color="#B05FA6" offset="100%"></stop>
        </linearGradient>
        <linearGradient x1="-28.6822493%" y1="49.9382977%" x2="90.7710027%" y2="49.9382977%" id="linearGradient-8">
            <stop stop-color="#B8A1CD" offset="0%"></stop>
            <stop stop-color="#B482BA" offset="100%"></stop>
        </linearGradient>
        <linearGradient x1="50.0204545%" y1="5.17146769%" x2="50.0204545%" y2="67.0553669%" id="linearGradient-9">
            <stop stop-color="#B485BC" offset="0%"></stop>
            <stop stop-color="#B05FA6" offset="100%"></stop>
        </linearGradient>
    </defs>
    <g id="loops" stroke="none" stroke-width="1" fill="none" fill-rule="evenodd">
        <g id="Loops-bcg-3" transform="translate(-804.000000, -344.000000)" fill-rule="nonzero">
            <g id="loop-fucshsia" transform="translate(804.000000, 344.000000)">
                <path d="M512.8,846.6 C445,846.6 384.4,815.8 344.2,767.4 C335,768.8 325.4,769.6 315.8,769.6 C217.4,769.6 137.2,689.4 137.2,591 L137.2,583.2 C137.2,492.4 205.4,417.2 293.2,406 L293.2,317.4 L199,317.4 L199,327 C199,381.8 154.4,426.4 99.6,426.6 L99.6,426.6 L99.6,426.6 L99.6,426.6 C99.6,426.6 99.4,426.6 99.4,426.6 C44.6,426.6 0,382 0,327.2 C0,272.2 44.6,227.6 99.6,227.6 L109,227.6 L109,137 C109,61.4 170.4,0 246,0 C321.6,0 383,61.4 383,137 L383,236.8 C447.6,259.4 494.2,320.8 494.2,393 L494.2,404.6 L516.8,404.6 C635.6,404.6 732.4,501.4 732.4,620.2 L732.4,626.8 C732.4,748 633.8,846.6 512.8,846.6 Z M431,727.4 C453.4,745.6 481.8,756.6 512.8,756.6 C584.2,756.6 642.4,698.4 642.4,627 L642.4,620.4 C642.4,551.2 586,494.8 516.8,494.8 L494.2,494.8 L494.2,591.2 C494.2,645.8 469.6,694.6 431,727.4 Z M293.2,497.6 C255.2,507.6 227.2,542.2 227.2,583.2 L227.2,591 C227.2,634.2 258.2,670.2 299.2,678 C295.2,661.6 293.2,644.4 293.2,626.8 L293.2,497.6 Z M383.2,494.8 L383.2,627 C383.2,633.8 383.8,640.4 384.8,646.8 C397,631.6 404.4,612.2 404.4,591.2 L404.4,494.8 L383.2,494.8 L383.2,494.8 Z M383.2,404.8 L404.4,404.8 L404.4,393.2 C404.4,373 396.4,354.4 383.2,340.8 L383.2,404.8 Z M99.6,317.6 C94.4,317.6 90,321.8 90,327.2 C90,332.4 94.2,336.8 99.4,336.8 C104.6,336.8 108.8,332.4 108.8,327.2 L108.8,317.6 L99.6,317.6 Z M199,227.6 L293.2,227.6 L293.2,137 C293.2,111 272,90 246.2,90 C220.2,90 199.2,111.2 199.2,137 L199.2,227.6 L199,227.6 Z" id="Shape" fill="url(#linearGradient-1)"></path>
                <path d="M270.6,317.6 L293,317.6 L293,406.2 C285.4,407.2 277.8,408.6 270.6,410.6 L270.6,507.2 C277.6,503 285,499.8 293,497.8 L293,627 C293,644.6 295,661.8 299,678.2 C288.8,676.2 279.2,672.6 270.6,667.4 L270.6,764 C285,767.8 300,769.8 315.6,769.8 C325.2,769.8 334.8,769 344,767.6 C384.4,816 445,846.8 512.6,846.8 C633.8,846.8 732.2,748.2 732.2,627.2 L732.2,620.6 C732.2,501.8 635.4,405 516.6,405 L494,405 L494,393.4 C494,355.4 481.2,320.6 459.6,292.6 L270.4,292.6 L270.4,317.6 L270.6,317.6 Z M494.2,591.2 L494.2,494.8 L516.8,494.8 C586,494.8 642.4,551.2 642.4,620.4 L642.4,627 C642.4,698.4 584.2,756.6 512.8,756.6 C481.8,756.6 453.2,745.6 431,727.4 C469.6,694.6 494.2,645.8 494.2,591.2 Z M383.2,340.8 C396.2,354.4 404.4,372.8 404.4,393.2 L404.4,404.8 L383.2,404.8 L383.2,340.8 Z M383.2,494.8 L404.4,494.8 L404.4,591.2 C404.4,612.2 397,631.6 384.8,646.8 C383.8,640.4 383.2,633.8 383.2,627 L383.2,494.8 L383.2,494.8 Z" id="Shape" fill="url(#linearGradient-2)"></path>
                <path d="M449.4,678.2 L471.6,678.2 C486,652.4 494.2,622.8 494.2,591.2 L494.2,494.8 L516.8,494.8 C586,494.8 642.4,551.2 642.4,620.4 L642.4,627 C642.4,645.2 638.6,662.6 631.8,678.2 L726.4,678.2 C730.4,661.8 732.4,644.6 732.4,627 L732.4,620.4 C732.4,501.6 635.6,404.8 516.8,404.8 L494.2,404.8 L494.2,393.2 C494.2,375 491.2,357.4 485.6,340.8 L449.2,340.8 L449.2,678.2 L449.4,678.2 Z" id="Path" fill="url(#linearGradient-3)"></path>
                <path d="M0,327.2 C0,382 44.6,426.6 99.4,426.8 C99.4,426.8 99.6,426.8 99.6,426.8 C107,426.8 114.4,426 121.4,424.4 L121.4,227.79933 L109,227.79933 L99.6,227.79933 C44.6,227.6 0,272.2 0,327.2 Z M99.6,317.6 L109,317.6 L109,327.2 C109,332.4 104.8,336.8 99.6,336.8 C94.4,336.8 90.2,332.4 90.2,327.2 C90,322 94.2,317.6 99.6,317.6 Z" id="Shape" fill="url(#linearGradient-4)"></path>
                <path d="M109,327.2 C109,332.4 104.8,336.8 99.6,336.8 L99.6,426.8 C99.6,426.8 99.6,426.8 99.6,426.8 C154.4,426.8 199,382 199,327.2 L199,317.6 L199,227.6 L199,137 C199,111.2 220,90 246,90 C246,90 246,90 246,90 L246,0 C246,0 246,0 246,0 C170.4,0 109,61.4 109,137 L109,227.6 L109,317.6 L109,327.2 Z" id="Path" fill="url(#linearGradient-5)"></path>
                <g id="Group" transform="translate(136.000000, 386.000000)">
                    <path d="M268.2,108.8 L268.2,110.2 C283.4,112.4 290.6,116.8 293.6,121.2 L281.2,0.4 L268,7.4 L268,18.8 L246.8,18.8 L156.8,20.2 C69,31.4 0.8,106.6 0.8,197.4 L0.8,205.2 C0.8,265 30.4,318 75.6,350.4 L139.2,326.4 L142.6,285.8 C112.2,271.8 91,241 91,205.4 L91,197.6 C91,156.6 119,122 157,112 C157,112 186.8,109 247,109 L268.2,109 L268.2,108.8 Z" id="Path" fill="url(#linearGradient-6)"></path>
                    <path d="M293.6,121.2 L294.8,133.4 C295,133.2 298,127.2 293.6,121.2 Z" id="Path" fill="url(#linearGradient-7)"></path>
                </g>
                <path d="M383.2,341.2 L383.2,340.8 C396,354.2 404,372.2 404.2,392.2 C404.8,399.8 404,407 404,407 L494,407 L494.2,393.2 C494.2,390.8 494.2,388.6 494,386.4 C493.4,377.2 492.4,368.4 490.8,360.2 C479.2,302.6 437.4,256 383,237 C347.8,226 317.8,227.8 317.8,227.8 L293,227.8 L199,227.8 L199,317.8 L293.2,317.8 L316,317.8 C349.2,317.6 370,327.8 383.2,341.2 Z" id="Path" fill="url(#linearGradient-8)"></path>
                <path d="M431,727.4 C469.6,694.6 494.2,645.6 494.2,591.2 L494.2,494.8 L494.2,404.8 L494.2,404.4 L404.2,404.8 L404.2,494.8 L404.2,591.2 C404.2,612.2 396.8,631.6 384.6,646.8 C345.2,681.8 299.2,678.2 299.2,678.2 C281.8,674.8 266,666.4 253.8,654.4 L195,722.6 C226.8,751.8 269.2,769.6 315.6,769.6 C325.2,769.6 334.8,768.8 344,767.4 C382,759.8 410.4,745.4 431.6,728 C431.4,727.8 431.2,727.6 431,727.4 Z" id="Path" fill="url(#linearGradient-9)"></path>
            </g>
        </g>
    </g>
</svg>