<?xml version="1.0" encoding="UTF-8"?>
<svg width="730px" height="447px" viewBox="0 0 730 447" version="1.1" xmlns="http://www.w3.org/2000/svg" xmlns:xlink="http://www.w3.org/1999/xlink">
    <!-- Generator: sketchtool 61.2 (101010) - https://sketch.com -->
    <title>90F2C3FB-7B47-43F6-98D4-F484B979B20E@1.00x</title>
    <desc>Created with sketchtool.</desc>
    <defs>
        <linearGradient x1="23.0420689%" y1="28.8883021%" x2="73.9316241%" y2="69.9925313%" id="linearGradient-1">
            <stop stop-color="#F08F2F" offset="0%"></stop>
            <stop stop-color="#E93725" offset="100%"></stop>
        </linearGradient>
        <linearGradient x1="63.8781813%" y1="42.9200255%" x2="87.8806586%" y2="67.2959353%" id="linearGradient-2">
            <stop stop-color="#EE7A2B" offset="0.392503%"></stop>
            <stop stop-color="#FDB714" offset="100%"></stop>
        </linearGradient>
        <linearGradient x1="-21.6551104%" y1="85.3260341%" x2="59.9227949%" y2="37.6745134%" id="linearGradient-3">
            <stop stop-color="#F08F2F" offset="0%"></stop>
            <stop stop-color="#E84325" offset="99.82%"></stop>
        </linearGradient>
        <linearGradient x1="-0.00940032415%" y1="50.004057%" x2="100.002971%" y2="50.004057%" id="linearGradient-4">
            <stop stop-color="#ED7829" offset="0.3474309%"></stop>
            <stop stop-color="#FDB714" offset="100%"></stop>
        </linearGradient>
        <linearGradient x1="37.0847031%" y1="62.940229%" x2="86.5999677%" y2="-1.96316317%" id="linearGradient-5">
            <stop stop-color="#F08F2F" offset="0%"></stop>
            <stop stop-color="#E93725" offset="100%"></stop>
        </linearGradient>
    </defs>
    <g id="loops" stroke="none" stroke-width="1" fill="none" fill-rule="evenodd">
        <g id="Loops-bcg-2" transform="translate(-710.000000, -577.000000)" fill-rule="nonzero">
            <g id="Loop-superfluid" transform="translate(710.000000, 577.000000)">
                <path d="M646.6,688.6 C598,737.2 519,737.2 470.6,688.6 L468.4,686.4 C419.8,637.8 419.8,558.8 468.4,510.4 L492.8,486 L429.6,422.8 L345.4,507 C266.6,585.8 138.2,585.8 59.2,507 C-19.6,428.2 -19.6,299.8 59.2,220.8 L63.8,216.2 C142.6,137.4 271,137.4 350,216.2 L429.4,295.6 L489.6,235.4 L465.6,211.4 C417.4,163.2 417.4,85 465.6,36.8 L465.8,36.6 C514,-11.6 592.2,-11.6 640.4,36.6 C688.2,84.4 688.4,162.6 641,210.6 L616.8,235.4 L680,298.6 L698.6,280 C744,234.6 817.8,234.6 863,280 C885,302 897,331.2 897.2,362.2 C897.2,393.2 885.2,422.4 863.2,444.4 C817.8,489.8 744,489.8 698.8,444.4 L680.2,425.8 L620,485.8 L646.6,512.4 C695.2,561 695.2,640 646.6,688.6 Z M531.8,573.8 C518.4,587.2 518.4,609.2 531.8,622.6 L534,624.8 C547.4,638.2 569.4,638.2 582.8,624.8 C596.2,611.4 596.2,589.4 582.8,576 L556.2,549.4 L531.8,573.8 Z M743.8,361.8 L762.4,380.4 C772.6,390.6 789.4,390.6 799.6,380.4 C804.6,375.4 807.4,368.8 807.4,361.8 C807.4,354.8 804.6,348.2 799.8,343.2 C789.6,333 772.8,333 762.6,343.2 L743.8,361.8 Z M556.2,422.2 L616.4,362 L553.2,298.8 L493,359 L556.2,422.2 Z M122.8,284.2 C79,328 79,399.2 122.8,443 C166.6,486.8 237.8,486.8 281.6,443 L365.8,358.8 L286.4,279.4 C242.6,235.6 171.4,235.6 127.6,279.4 L122.8,284.2 Z M529.4,100 C516.4,113 516.4,134.2 529.4,147.4 L553.4,171.4 L577.2,147 C590.2,134 590,112.8 577,99.8 C564,86.8 542.8,86.8 529.6,99.8 L529.4,100 Z" id="Shape" fill="url(#linearGradient-1)"></path>
                <path d="M466,36.2 L465.8,36.4 C457.6,44.6 450.8,53.6 445.4,63.4 L529.4,147.4 C516.4,134.4 516.4,113.2 529.4,100 L529.6,99.8 C542.6,86.8 563.8,86.8 577,99.8 C590,112.8 590,134 577.2,147 L553.4,171.4 L617,235 L641.2,210.2 C688.8,162 688.6,84 640.6,36.2 C592.6,-12 514.2,-12 466,36.2 Z" id="Path" fill="url(#linearGradient-2)"></path>
                <path d="M698.8,279.6 L680.2,298.2 L743.8,361.8 L762.4,343.2 C768.8,336.8 777.8,334.4 786.2,336 L852.4,269.8 C806.8,234.6 740.6,237.8 698.8,279.6 Z" id="Path" fill="url(#linearGradient-3)"></path>
                <rect id="Rectangle" fill="#FDB714" transform="translate(491.456440, 296.959360) rotate(-45.000000) translate(-491.456440, -296.959360) " x="448.856849" y="251.959792" width="85.1991829" height="89.9991369"></rect>
                <path d="M345.2,506.6 L429.4,422.4 L365.8,358.8 L281.6,443 C237.8,486.8 166.6,486.8 122.8,443 L59.2,506.6 C138,585.6 266.4,585.6 345.2,506.6 Z" id="Path" fill="url(#linearGradient-4)"></path>
                <path d="M616.6,361.8 L556.4,422 L492.8,485.6 L468.4,510 C419.8,558.6 419.8,637.6 468.4,686 L469.6,687.2 L533.2,623.6 L532,622.4 C518.6,609 518.6,587 532,573.6 L532,573.6 L556.4,549.2 L620,485.6 L680.2,425.4 L616.6,361.8 Z" id="Path" fill="url(#linearGradient-5)"></path>
            </g>
        </g>
    </g>
</svg>