<?xml version="1.0" encoding="UTF-8"?>
<svg width="8px" height="8px" viewBox="0 0 8 8" version="1.1" xmlns="http://www.w3.org/2000/svg" xmlns:xlink="http://www.w3.org/1999/xlink">
    <title>Combined Shape</title>
    <g id="Page-1" stroke="none" stroke-width="1" fill="none" fill-rule="evenodd">
        <g id="Artboard" transform="translate(-450.000000, -382.000000)" fill="#FFFFFF">
            <path d="M458,382 L458,390 L453,390 L453,390 C453.552285,390 454,389.552285 454,389 C454,388.447715 453.552285,388 453,388 C452.447715,388 452,388.447715 452,389 C452,389.552285 452.447715,390 453,390 L450,390 L450,382 L458,382 Z M457,384 C456.447715,384 456,384.447715 456,385 C456,385.552285 456.447715,386 457,386 C457.552285,386 458,385.552285 458,385 C458,384.447715 457.552285,384 457,384 Z" id="Combined-Shape"></path>
        </g>
    </g>
</svg>