<svg width="105" height="16" viewBox="0 0 105 16" xmlns="http://www.w3.org/2000/svg"><title>E28D4843-CD52-4228-BAA4-3D4BDAC29842</title><path d="M70.34 0c-1.85 0-3.268.648-4.47 1.85-1.82 1.82-1.88 4.224-1.88 6.32v7.645h3.085V8.17c0-1.388-.065-3.238 1.014-4.316.71-.708 1.264-1.048 2.251-1.048.986 0 1.54.34 2.25 1.048 1.078 1.078 1.05 2.928 1.05 4.316v7.645h3.049V8.17c0-2.096-.061-4.5-1.88-6.32C73.607.648 72.19 0 70.34 0zm29.42 6.628l-2.468-.215c-1.664-.155-2.157-.862-2.157-1.788 0-1.172.956-2.004 2.835-2.004 1.48 0 2.869.309 3.854 1.14l1.973-2.003C102.347.494 100.345 0 98.002 0c-3.267 0-5.888 1.727-5.888 4.78 0 2.742 1.696 4.068 4.624 4.315l2.497.216c1.51.123 2.096.8 2.096 1.848 0 1.48-1.51 2.159-3.422 2.159-1.54 0-3.236-.34-4.5-1.634l-2.066 2.065C93.192 15.57 95.35 16 97.909 16c3.73 0 6.506-1.695 6.506-4.963 0-2.774-1.727-4.163-4.656-4.409zm-16.756 9.187h3.144V.184h-3.144v15.631zM54.736 12.27c-.585.585-1.388.924-2.313.924-.925 0-1.696-.34-2.282-.924-.955-.956-1.078-2.59-1.078-4.285 0-1.695.123-3.329 1.078-4.285.586-.587 1.357-.894 2.282-.894s1.728.307 2.313.894c.957.956 1.08 2.59 1.08 4.285 0 1.695-.123 3.329-1.08 4.285zM52.423 0c-2.127 0-3.637.802-4.655 1.85-1.48 1.54-1.85 3.514-1.85 6.135 0 2.651.37 4.624 1.85 6.165C48.786 15.2 50.296 16 52.423 16c2.129 0 3.67-.8 4.687-1.85 1.481-1.541 1.852-3.514 1.852-6.165 0-2.62-.37-4.594-1.852-6.135C56.093.802 54.552 0 52.423 0zM38.17 11.314V.184h-3.145v11.315c0 2.312 1.295 4.316 4.285 4.316h2.179v-2.682h-1.624c-1.264 0-1.695-.616-1.695-1.819zM19.256 6.572c.032-.893.098-1.29.397-1.979.494-1.171 1.635-1.972 3.115-1.972 1.48 0 2.589.8 3.082 1.972.299.688.394 1.086.428 1.98h-7.022zM22.768 0C18.76 0 16.14 2.929 16.14 7.985c0 5.95 3.112 8.015 7.028 8.015 2.744 0 4.254-.832 5.857-2.435l-2.003-1.881c-1.11 1.11-2.036 1.603-3.792 1.603-2.538 0-3.953-1.589-3.975-4.231h10.14V7.522c0-4.44-2.434-7.522-6.627-7.522zM6.967 2.806c1.233 0 2.004.4 2.99 1.48l2.159-2.097C10.636.617 9.126 0 6.967 0 3.453 0 0 2.128 0 7.985S3.453 16 6.967 16c2.159 0 3.67-.647 5.149-2.22l-2.159-2.065c-.986 1.078-1.757 1.48-2.99 1.48-1.203 0-2.22-.493-2.898-1.388-.678-.863-.925-2.004-.925-3.822 0-1.819.247-2.93.925-3.791.679-.896 1.695-1.388 2.898-1.388z" fill="#3BD0EA" fill-rule="evenodd"/></svg>