<svg id="Layer_1" data-name="Layer 1" xmlns="http://www.w3.org/2000/svg" xmlns:xlink="http://www.w3.org/1999/xlink" viewBox="0 0 289.82 274.34"><defs><style>.cls-1{fill:url(#linear-gradient);}.cls-2{fill:url(#linear-gradient-2);}.cls-3{fill:url(#linear-gradient-3);}.cls-4{fill:url(#linear-gradient-4);}.cls-5{fill:url(#linear-gradient-5);}.cls-6{fill:url(#linear-gradient-6);}.cls-7{fill:url(#linear-gradient-7);}.cls-8{fill:url(#linear-gradient-8);}.cls-9{fill:url(#linear-gradient-9);}.cls-10{fill:url(#linear-gradient-10);}.cls-11{fill:#dbe8ef;}.cls-12{fill:#9cdbf0;}.cls-13{fill:#1e2e56;}.cls-14{fill:url(#linear-gradient-11);}.cls-15{fill:#21a5d2;}.cls-16{fill:#fff;}.cls-17{fill:#71c8e3;}.cls-18{fill:#cdebf4;}.cls-19{fill:#231f20;}.cls-20{fill:#131f3a;}.cls-21{fill:#26397a;}</style><linearGradient id="linear-gradient" x1="45.87" y1="272.98" x2="186.86" y2="185.99" gradientUnits="userSpaceOnUse"><stop offset="0" stop-color="#41bfb3" stop-opacity="0"/><stop offset="0.54" stop-color="#4cc0b4"/><stop offset="1" stop-color="#47c0b4" stop-opacity="0"/></linearGradient><linearGradient id="linear-gradient-2" x1="25.74" y1="240.35" x2="166.73" y2="153.36" xlink:href="#linear-gradient"/><linearGradient id="linear-gradient-3" x1="-0.97" y1="197.07" x2="140.02" y2="110.07" xlink:href="#linear-gradient"/><linearGradient id="linear-gradient-4" x1="-16.57" y1="171.79" x2="124.42" y2="84.79" xlink:href="#linear-gradient"/><linearGradient id="linear-gradient-5" x1="175.45" y1="109.54" x2="237.86" y2="71.64" gradientTransform="translate(73.48 -98.48) rotate(30.67)" xlink:href="#linear-gradient"/><linearGradient id="linear-gradient-6" x1="113.38" y1="165.87" x2="126.75" y2="145.3" gradientUnits="userSpaceOnUse"><stop offset="0" stop-color="#0d121f" stop-opacity="0"/><stop offset="1" stop-color="#003750" stop-opacity="0.1"/></linearGradient><linearGradient id="linear-gradient-7" x1="95.32" y1="120.97" x2="218.52" y2="120.97" gradientUnits="userSpaceOnUse"><stop offset="0" stop-color="#90d1e8"/><stop offset="1" stop-color="#23a6d3"/></linearGradient><linearGradient id="linear-gradient-8" x1="95.32" y1="117.84" x2="218.52" y2="117.84" gradientUnits="userSpaceOnUse"><stop offset="0" stop-color="#d6e8ec"/><stop offset="1" stop-color="#90d1e8"/></linearGradient><linearGradient id="linear-gradient-9" x1="110.81" y1="117.84" x2="203.03" y2="117.84" xlink:href="#linear-gradient-7"/><linearGradient id="linear-gradient-10" x1="111.44" y1="119.4" x2="202.41" y2="119.4" gradientUnits="userSpaceOnUse"><stop offset="0" stop-color="#0191b9"/><stop offset="1" stop-color="#23a6d3"/></linearGradient><linearGradient id="linear-gradient-11" x1="-248.48" y1="68.88" x2="-243.75" y2="68.88" gradientTransform="translate(422.77)" gradientUnits="userSpaceOnUse"><stop offset="0" stop-color="#eca6ca"/><stop offset="0.85" stop-color="#ee5b9f"/></linearGradient></defs><title>0103005 App Store Home Page for FKOM02</title><path class="cls-1" d="M184,209.58,132,179.46c-2.41-1.39-3.73-3.28-3.73-5.33,0-2.52,2-5.1,5.39-7.07l32-18.46-.52-.9-32,18.46c-3.74,2.17-5.9,5.07-5.9,8,0,2.43,1.51,4.64,4.24,6.22l52.1,30.12c2.4,1.39,3.73,3.29,3.73,5.34,0,2.52-2,5.1-5.39,7.07L123.21,256.7c-3.75,2.16-5.9,5.06-5.9,8,0,2.44,1.51,4.65,4.24,6.23l6,3.45h2.06L122.07,270c-2.41-1.39-3.73-3.29-3.73-5.33,0-2.53,2-5.11,5.39-7.08l58.65-33.82c3.75-2.16,5.9-5.06,5.9-8C188.29,213.37,186.78,211.16,184,209.58Z"/><path class="cls-2" d="M94.42,171.14l55.17-31.81-.51-.89L93.91,170.25c-3.75,2.16-5.9,5.06-5.9,8,0,2.43,1.5,4.64,4.24,6.22l25.38,14.68c2.4,1.39,3.73,3.28,3.72,5.33,0,2.52-2,5.1-5.38,7.08l-69.46,40c-6.67,3.85-16.77,4.27-22.52.95l-8-4.64c-4.09-2.36-10.26-2.92-16-1.8v1c5.52-1.13,11.51-.62,15.46,1.66l8,4.64c6,3.49,16.6,3.06,23.55-.94l69.46-40.05c3.75-2.16,5.9-5.07,5.9-8,0-2.43-1.5-4.64-4.24-6.22L92.76,183.54c-2.4-1.39-3.72-3.28-3.72-5.33C89,175.69,91,173.11,94.42,171.14Z"/><path class="cls-3" d="M26.59,185.92c-6.66,3.84-16.77,4.27-22.52.94A16.62,16.62,0,0,0,0,185.25v1.05a15.34,15.34,0,0,1,3.56,1.45c6,3.49,16.6,3.07,23.55-.94l102.45-59.07-.52-.89Z"/><path class="cls-4" d="M66.69,147.38c-6.67,3.84-16.77,4.26-22.52.94L17.45,132.87C13,130.3,6.11,129.86,0,131.41v1c5.91-1.56,12.64-1.17,16.93,1.31l26.72,15.45c6,3.49,16.6,3.07,23.55-.94l49-28.25-.52-.89Z"/><rect class="cls-5" x="171.45" y="84.22" width="89.68" height="1.03" transform="matrix(0.86, -0.51, 0.51, 0.86, -12.97, 122.19)"/><path class="cls-6" d="M133.73,174.29l57.56-33.23a3,3,0,0,0,0-5.25l-57.56-33.23a5.06,5.06,0,0,0-5,0L71.13,135.81a3,3,0,0,0,0,5.25l57.55,33.23A5,5,0,0,0,133.73,174.29Z"/><path class="cls-7" d="M218.5,118.17h0a3,3,0,0,0-1.5-3L159.44,82a5,5,0,0,0-5,0L96.84,115.21a3,3,0,0,0-1.49,3h0v5.92h0a3,3,0,0,0,1.52,2.63L154.4,160a5,5,0,0,0,5,0L217,126.72a3,3,0,0,0,1.5-3Z"/><path class="cls-8" d="M159.44,153.69,217,120.46a3,3,0,0,0,0-5.25L159.44,82a5,5,0,0,0-5,0L96.84,115.21a3,3,0,0,0,0,5.25l57.56,33.23A5,5,0,0,0,159.44,153.69Z"/><path class="cls-9" d="M158.81,144.68,201.9,119.8a2.27,2.27,0,0,0,0-3.93L158.81,91A3.76,3.76,0,0,0,155,91L112,115.87a2.27,2.27,0,0,0,0,3.93L155,144.68A3.81,3.81,0,0,0,158.81,144.68Z"/><path class="cls-10" d="M201.9,119,158.81,94.12a3.81,3.81,0,0,0-3.78,0L112,119a2.06,2.06,0,0,0-.51.4,2.06,2.06,0,0,0,.51.4L155,144.68a3.81,3.81,0,0,0,3.78,0L201.9,119.8a2.5,2.5,0,0,0,.51-.4A2.5,2.5,0,0,0,201.9,119Z"/><path class="cls-11" d="M173.44,44.52c-.59.57-1.68,1.16-1.43-.17a9.79,9.79,0,0,0,0-2.88c-.27-.4-.47,0-.47,0a19.23,19.23,0,0,1-.29,2.57c-.52.13-1.63,0-1.14.68a3.69,3.69,0,0,1,.31,2.31l-.75,1.56,1.06.29s-1-.49.57-.81,1.52-1.35,1.77-1.92.84-.74,1-1.28S174,44,173.44,44.52Z"/><path class="cls-12" d="M156,63.73s10.42-9,14.12-16.82a2.22,2.22,0,0,1,2,1.92s-4.6,11.11-12.54,17.55Z"/><path class="cls-13" d="M171.87,50.22A3,3,0,0,0,169.23,48S159.35,60.8,156,63.73l3.51,3S165.83,61.79,171.87,50.22Z"/><polygon class="cls-14" points="179.01 74.33 174.29 72.68 174.29 63.43 179.01 65.08 179.01 74.33"/><polygon class="cls-15" points="178.61 74.73 173.88 73.09 173.88 63.83 178.61 65.48 178.61 74.73"/><path class="cls-16" d="M174.65,65.15l3.2,1.08a.38.38,0,0,1,.38.38v7a.38.38,0,0,1-.38.37l-3.2-1.08a.38.38,0,0,1-.38-.38v-7A.38.38,0,0,1,174.65,65.15Z"/><polygon class="cls-17" points="179.01 65.08 178.61 65.48 178.61 72.97 179.01 72.61 179.01 65.08"/><path class="cls-11" d="M177.12,76.56s3-1.26,3.15-3.49S179,70.32,179,70.32v2.29s-.54-1.55-1.33-.92.62,1.2,0,2.06-1.24-.23-1.47,1.55S177.12,76.56,177.12,76.56Z"/><path class="cls-12" d="M176.18,78.81l1.24-.86a2.54,2.54,0,0,0-1.21-2.65l-1.58,1.75Z"/><polygon class="cls-18" points="174.29 63.43 173.88 63.83 178.61 65.48 179.01 65.08 174.29 63.43"/><path class="cls-19" d="M166.91,117.65s5-1.26,5.14,0-4,3.66-5.71,3.27-1.83-1.31-1.72-1.89l.57-2.37Z"/><path class="cls-19" d="M158.26,112.81s5-1.25,5.14,0-4,3.66-5.71,3.28-1.83-1.32-1.71-1.9l.57-2.37Z"/><path class="cls-13" d="M155.46,80.42l.8,32.24a1.9,1.9,0,0,0,2.74,0s.86-18.8,2.63-18.74,3.26,14.74,3.26,23.94c0,0,1.88,1,2.63,0l.74-36Z"/><path class="cls-20" d="M166.45,81.64l1.76,2.4-.14,6.76c-1.47.55-7.1,2.27-12.37-.66l-.21-8.59c.43-.38.84-.72,1.21-1Z"/><path class="cls-20" d="M158.6,92.55a3.39,3.39,0,0,1,3.49,1.72c-.15-.22-.3-.34-.46-.35-.31,0-.59.56-.85,1.51C159,93.22,154.49,92.89,158.6,92.55Z"/><path class="cls-11" d="M164.08,51.67a7,7,0,0,1,2.34,8.52,3,3,0,0,1-2.68,1.55s-1.26,1,.8,2-6.41.4-6.41.4v-.8a3.09,3.09,0,0,0,1.43-3.61C158.76,57.39,164.08,51.67,164.08,51.67Z"/><path class="cls-21" d="M159.33,60.48a5.7,5.7,0,0,1-2.8-5.95c.51-4.35,7.43-3.49,7-6.58a3.54,3.54,0,0,1,1.26,3.43,20.14,20.14,0,0,1,.68,4c-.06,1.2,0,2.63,0,2.63s-.34.68-.8-.8-1.54-.8-1.09.51,1.26,1.43,1.26,2.06S162.65,62.65,159.33,60.48Z"/><path class="cls-13" d="M163.66,62.81s5,1.21,5.31,3-1.42,13.89,1.58,13a12.13,12.13,0,0,0,5-3.25A4.17,4.17,0,0,1,176.65,79s-4.9,4.89-7.42,4.55v5.69s-3.22,2.33-5.49,1.93V85.71l-.86,5.48A13.78,13.78,0,0,1,155,88.84V66.38s0-3.68,3.32-3.73l.46-.91,4.85.56Z"/><path class="cls-20" d="M163.79,72.17c1.24-.13,1.07,0,1.37,6s4.07,5.4,4.07,5.4V89c-4.76.34-4.29-5-4.29-6.39s-.21-5.31-1.71-6.6S162.54,72.3,163.79,72.17Z"/><path class="cls-20" d="M163.66,62.81s-4.47,1-5.3-.16C158.36,62.65,158.18,64.56,163.66,62.81Z"/></svg>