<svg width="16" height="16" viewBox="0 0 16 16" fill="none" xmlns="http://www.w3.org/2000/svg">
  <path d="M4.00002 1.59998C3.11637 1.59998 2.40002 2.31632 2.40002 3.19998V4.79998C2.40002 5.68363 3.11637 6.39998 4.00002 6.39998H10.4C11.2837 6.39998 12 5.68363 12 4.79998V3.19998C12 2.31632 11.2837 1.59998 10.4 1.59998H4.00002ZM3.20002 3.19998C3.20002 2.75815 3.5582 2.39998 4.00002 2.39998H10.4C10.8419 2.39998 11.2 2.75815 11.2 3.19998V4.79998C11.2 5.2418 10.8419 5.59998 10.4 5.59998H4.00002C3.5582 5.59998 3.20002 5.2418 3.20002 4.79998V3.19998ZM5.60002 10.8C5.37911 10.8 5.20002 10.9791 5.20002 11.2C5.20002 11.4209 5.37911 11.6 5.60002 11.6H8.80002C9.02094 11.6 9.20002 11.4209 9.20002 11.2C9.20002 10.9791 9.02094 10.8 8.80002 10.8H5.60002ZM9.50297 7.99998H4.00002C3.11637 7.99998 2.40002 8.71632 2.40002 9.59998V12.8C2.40002 13.6836 3.11637 14.4 4.00002 14.4H10.4C11.2837 14.4 12 13.6836 12 12.8V11.9316C11.7417 12.0228 11.4584 12.0228 11.2 11.9316V12.8C11.2 13.2418 10.8419 13.6 10.4 13.6H4.00002C3.5582 13.6 3.20002 13.2418 3.20002 12.8V9.59998C3.20002 9.15815 3.5582 8.79998 4.00002 8.79998H8.86836C8.92612 8.63619 9.0205 8.48244 9.1515 8.35145L9.50297 7.99998ZM14.4 5.99998C14.4 5.77906 14.2209 5.59998 14 5.59998C13.7791 5.59998 13.6 5.77906 13.6 5.99998V7.59998C13.6 8.26272 13.0628 8.79998 12.4 8.79998H10.9657L11.8829 7.88282C12.0391 7.72661 12.0391 7.47334 11.8829 7.31713C11.7267 7.16092 11.4734 7.16092 11.3172 7.31713L9.71718 8.91713C9.56097 9.07334 9.56097 9.32661 9.71718 9.48282L11.3172 11.0828C11.4734 11.239 11.7267 11.239 11.8829 11.0828C12.0391 10.9266 12.0391 10.6733 11.8829 10.5171L10.9657 9.59998H12.4C13.5046 9.59998 14.4 8.70454 14.4 7.59998V5.99998Z" fill="#0A1F44"/>
</svg>