<svg width="16" height="16" viewBox="0 0 16 16" fill="none" xmlns="http://www.w3.org/2000/svg">
  <path d="M9.49999 4.5H10.5C12.433 4.5 14 6.067 14 8C14 9.86856 12.5357 11.3951 10.6941 11.4948L10.5023 11.5L9.5023 11.5046C9.22616 11.5059 9.00127 11.283 8.99999 11.0069C8.99888 10.7614 9.17481 10.5565 9.40787 10.5131L9.4977 10.5046L10.5 10.5C11.8807 10.5 13 9.38071 13 8C13 6.67452 11.9685 5.58996 10.6644 5.50532L10.5 5.5H9.49999C9.22386 5.5 8.99999 5.27614 8.99999 5C8.99999 4.75454 9.17687 4.55039 9.41012 4.50806L9.49999 4.5H10.5H9.49999ZM5.5 4.5H6.5C6.77614 4.5 7 4.72386 7 5C7 5.24546 6.82312 5.44961 6.58988 5.49194L6.5 5.5H5.5C4.11929 5.5 3 6.61929 3 8C3 9.32548 4.03154 10.41 5.33562 10.4947L5.5 10.5H6.5C6.77614 10.5 7 10.7239 7 11C7 11.2455 6.82312 11.4496 6.58988 11.4919L6.5 11.5H5.5C3.567 11.5 2 9.933 2 8C2 6.13144 3.46428 4.60487 5.30796 4.50518L5.5 4.5H6.5H5.5ZM5.50023 7.5L10.5002 7.5023C10.7764 7.50242 11.0001 7.72638 11 8.00252C10.9999 8.24798 10.8229 8.45205 10.5897 8.49428L10.4998 8.5023L5.49977 8.5C5.22363 8.49987 4.99987 8.27591 5 7.99977C5.00011 7.75431 5.17708 7.55024 5.41035 7.50801L5.50023 7.5Z" fill="#0A1F44"/>
</svg>
