<svg width="128" height="128" viewBox="0 0 128 128" fill="none" xmlns="http://www.w3.org/2000/svg">
  <path fill-rule="evenodd" clip-rule="evenodd" d="M80.9236 42.7388C81.0979 42.5246 81.4128 42.4922 81.627 42.6665C87.838 47.7201 91.807 55.4263 91.807 64.0593C91.807 64.3355 91.5831 64.5593 91.307 64.5593C91.0308 64.5593 90.807 64.3355 90.807 64.0593C90.807 55.7399 86.9835 48.3141 80.9959 43.4422C80.7817 43.2679 80.7494 42.953 80.9236 42.7388Z" fill="#0A1F44"/>
  <path fill-rule="evenodd" clip-rule="evenodd" d="M29.413 71.609C29.682 71.5469 29.9505 71.7148 30.0125 71.9838C30.5621 74.3676 31.3545 76.6588 32.3621 78.8297C32.4783 79.0802 32.3695 79.3774 32.119 79.4937C31.8686 79.61 31.5713 79.5012 31.455 79.2507C30.4186 77.0176 29.6035 74.6607 29.0381 72.2085C28.976 71.9394 29.1439 71.671 29.413 71.609Z" fill="#0A1F44"/>
  <path fill-rule="evenodd" clip-rule="evenodd" d="M100.588 89.1956C100.813 89.3554 100.866 89.6675 100.706 89.8927C99.3555 91.7959 97.8596 93.5887 96.2345 95.2549C88.1193 103.576 76.7833 108.744 64.2411 108.744C63.9649 108.744 63.7411 108.52 63.7411 108.244C63.7411 107.968 63.9649 107.744 64.2411 107.744C76.5028 107.744 87.5838 102.693 95.5186 94.5567C97.1076 92.9275 98.5701 91.1747 99.8906 89.314C100.05 89.0888 100.362 89.0358 100.588 89.1956Z" fill="#0A1F44"/>
  <path fill-rule="evenodd" clip-rule="evenodd" d="M99.5961 37.549C99.8187 37.3856 100.132 37.4337 100.295 37.6564C102.738 40.9868 104.731 44.6686 106.184 48.6118C106.279 48.8709 106.147 49.1583 105.887 49.2538C105.628 49.3493 105.341 49.2166 105.245 48.9575C103.825 45.1032 101.877 41.504 99.4886 38.2479C99.3253 38.0252 99.3734 37.7123 99.5961 37.549Z" fill="#0A1F44"/>
  <path fill-rule="evenodd" clip-rule="evenodd" d="M64.2409 20.3744C58.761 20.3744 53.5175 21.3832 48.686 23.2248C48.428 23.3232 48.1391 23.1937 48.0407 22.9357C47.9424 22.6777 48.0718 22.3888 48.3298 22.2904C53.2733 20.4061 58.6374 19.3744 64.2409 19.3744C73.2988 19.3744 81.7287 22.0701 88.77 26.7029C89.0007 26.8547 89.0647 27.1647 88.9129 27.3954C88.7611 27.6261 88.4511 27.6901 88.2204 27.5383C81.3372 23.0096 73.0975 20.3744 64.2409 20.3744Z" fill="#0A1F44"/>
  <path fill-rule="evenodd" clip-rule="evenodd" d="M30.0314 36.0882C30.247 36.2607 30.282 36.5753 30.1095 36.791C28.2247 39.1471 26.5788 41.7024 25.2085 44.4205C25.0842 44.667 24.7835 44.7662 24.537 44.6418C24.2904 44.5175 24.1913 44.2169 24.3156 43.9703C25.7173 41.1898 27.4009 38.5761 29.3286 36.1663C29.5011 35.9507 29.8157 35.9157 30.0314 36.0882Z" fill="#0A1F44"/>
  <path fill-rule="evenodd" clip-rule="evenodd" d="M32.6377 94.9433C32.833 94.7481 33.1496 94.7481 33.3448 94.9434C35.9789 97.5787 38.9481 99.879 42.1825 101.775C42.4208 101.914 42.5007 102.221 42.3611 102.459C42.2214 102.697 41.9151 102.777 41.6769 102.638C38.3683 100.698 35.3315 98.3456 32.6376 95.6504C32.4423 95.4551 32.4424 95.1385 32.6377 94.9433Z" fill="#0A1F44"/>
  <path fill-rule="evenodd" clip-rule="evenodd" d="M116.402 71.9455C116.675 71.989 116.861 72.2454 116.817 72.518C114.828 84.98 108.515 95.9985 99.4658 103.988C99.2588 104.17 98.9428 104.151 98.76 103.944C98.5773 103.737 98.5969 103.421 98.8039 103.238C107.685 95.3975 113.878 84.5859 115.83 72.3604C115.873 72.0877 116.129 71.9019 116.402 71.9455Z" fill="#0A1F44"/>
  <path fill-rule="evenodd" clip-rule="evenodd" d="M41.6876 111.755C41.8034 111.505 42.1005 111.395 42.3512 111.511C46.959 113.64 51.9293 115.118 57.1447 115.826C57.4184 115.863 57.6101 116.115 57.5729 116.389C57.5358 116.663 57.2838 116.854 57.0102 116.817C51.6946 116.095 46.6284 114.589 41.9317 112.419C41.681 112.303 41.5717 112.006 41.6876 111.755Z" fill="#0A1F44"/>
  <path fill-rule="evenodd" clip-rule="evenodd" d="M78.9674 86.7781C79.1135 87.0124 79.042 87.3208 78.8077 87.4669L78.8028 87.4699C78.5685 87.616 78.2601 87.5444 78.114 87.3101C77.9679 87.0758 78.0395 86.7674 78.2738 86.6213L78.2785 86.6184C78.5128 86.4723 78.8212 86.5438 78.9674 86.7781ZM76.0269 88.4368C76.1427 88.6875 76.0332 88.9846 75.7825 89.1003L75.7721 89.1051C75.5214 89.2207 75.2243 89.1112 75.1087 88.8604C74.9931 88.6097 75.1026 88.3126 75.3534 88.197L75.3634 88.1924C75.6141 88.0767 75.9112 88.1861 76.0269 88.4368ZM72.8969 89.7168C72.9802 89.98 72.8344 90.261 72.5711 90.3444L72.5657 90.3461C72.3024 90.4294 72.0214 90.2835 71.9381 90.0202C71.8548 89.7569 72.0007 89.476 72.264 89.3927L72.2693 89.391C72.5325 89.3077 72.8135 89.4535 72.8969 89.7168Z" fill="#0A1F44"/>
  <path fill-rule="evenodd" clip-rule="evenodd" d="M96.4784 48.8687C96.7298 48.7544 97.0263 48.8654 97.1406 49.1168L97.1427 49.1214C97.257 49.3728 97.1459 49.6693 96.8946 49.7836C96.6432 49.8979 96.3467 49.7868 96.2324 49.5354L96.2304 49.5309C96.116 49.2795 96.2271 48.9831 96.4784 48.8687ZM97.6544 51.6638C97.9146 51.5714 98.2005 51.7074 98.2929 51.9676L98.2963 51.9773C98.3886 52.2375 98.2525 52.5233 97.9923 52.6157C97.732 52.708 97.4462 52.5719 97.3539 52.3116L97.3505 52.3023C97.2581 52.042 97.3941 51.7562 97.6544 51.6638ZM98.5879 54.5543C98.8551 54.4845 99.1282 54.6446 99.198 54.9118L99.2005 54.9217C99.2702 55.1889 99.11 55.462 98.8428 55.5317C98.5756 55.6013 98.3025 55.4412 98.2329 55.1739L98.2304 55.1643C98.1606 54.8971 98.3207 54.624 98.5879 54.5543ZM99.2699 57.514C99.5421 57.4675 99.8005 57.6504 99.8471 57.9225L99.8488 57.9326C99.8953 58.2048 99.7123 58.4632 99.4401 58.5097C99.1679 58.5562 98.9096 58.3732 98.8631 58.101L98.8614 58.0912C98.8148 57.819 98.9977 57.5606 99.2699 57.514ZM99.6963 60.5215C99.9715 60.4982 100.213 60.7024 100.237 60.9776L100.237 60.9878C100.261 61.263 100.056 61.5048 99.7812 61.528C99.506 61.5511 99.2642 61.3469 99.241 61.0717L99.2402 61.0618C99.2169 60.7866 99.4211 60.5447 99.6963 60.5215ZM99.8662 63.5543C100.142 63.5542 100.366 63.7781 100.366 64.0542V64.064C100.366 64.3402 100.142 64.564 99.8662 64.5639C99.59 64.5639 99.3662 64.34 99.3662 64.0639V64.0543C99.3662 63.7782 99.59 63.5543 99.8662 63.5543ZM99.7987 66.3271C100.074 66.3483 100.28 66.5886 100.259 66.8639L100.258 66.8732C100.237 67.1486 99.9967 67.3546 99.7213 67.3334C99.446 67.3121 99.24 67.0718 99.2612 66.7964L99.2619 66.7874C99.2831 66.512 99.5234 66.306 99.7987 66.3271ZM99.518 69.086C99.7908 69.1284 99.9776 69.384 99.9352 69.6569L99.9337 69.6661C99.8912 69.939 99.6356 70.1257 99.3627 70.0832C99.0899 70.0407 98.9031 69.785 98.9457 69.5122L98.9471 69.5032C98.9895 69.2303 99.2451 69.0435 99.518 69.086ZM99.0234 71.8145C99.2921 71.8782 99.4584 72.1476 99.3947 72.4163L99.3926 72.4254C99.3289 72.6941 99.0594 72.8602 98.7907 72.7965C98.522 72.7328 98.3559 72.4634 98.4196 72.1947L98.4217 72.1858C98.4853 71.9171 98.7547 71.7509 99.0234 71.8145ZM98.3169 74.4961C98.5798 74.5807 98.7244 74.8623 98.6399 75.1252L98.637 75.1341C98.5525 75.3969 98.2708 75.5415 98.0079 75.4569C97.745 75.3723 97.6005 75.0907 97.6851 74.8278L97.6879 74.8192C97.7724 74.5563 98.054 74.4116 98.3169 74.4961ZM97.4023 77.114C97.6578 77.2189 97.7799 77.511 97.675 77.7664L97.6733 77.7707C97.5684 78.0262 97.2763 78.1482 97.0208 78.0434C96.7654 77.9385 96.6433 77.6464 96.7482 77.3909L96.7499 77.3867C96.8548 77.1313 97.1469 77.0092 97.4023 77.114Z" fill="#0A1F44"/>
  <path fill-rule="evenodd" clip-rule="evenodd" d="M51.0527 30.9506C51.1586 31.2057 51.0376 31.4982 50.7826 31.6041L50.7782 31.6059C50.5232 31.7119 50.2306 31.591 50.1247 31.336C50.0187 31.0809 50.1396 30.7883 50.3946 30.6824L50.3992 30.6805C50.6542 30.5747 50.9468 30.6956 51.0527 30.9506ZM48.4019 32.1356C48.5283 32.3811 48.4317 32.6826 48.1862 32.809L48.1777 32.8133C47.9322 32.9398 47.6307 32.8433 47.5043 32.5978C47.3778 32.3523 47.4743 32.0508 47.7198 31.9244L47.7285 31.9199C47.974 31.7935 48.2755 31.89 48.4019 32.1356ZM45.8528 33.5357C45.9988 33.7701 45.9272 34.0784 45.6928 34.2245L45.6847 34.2295C45.4504 34.3756 45.142 34.304 44.9959 34.0697C44.8498 33.8354 44.9214 33.527 45.1557 33.3809L45.164 33.3757C45.3984 33.2297 45.7068 33.3013 45.8528 33.5357ZM43.4264 35.1391C43.591 35.3608 43.5447 35.674 43.323 35.8386L43.3154 35.8443C43.0937 36.0089 42.7805 35.9627 42.6158 35.7411C42.4512 35.5194 42.4974 35.2062 42.719 35.0415L42.7269 35.0357C42.9486 34.8711 43.2618 34.9174 43.4264 35.1391ZM41.1384 36.9345C41.3205 37.1421 41.2998 37.458 41.0921 37.6401L41.085 37.6464C40.8774 37.8285 40.5615 37.8079 40.3794 37.6003C40.1972 37.3927 40.2179 37.0768 40.4254 36.8947L40.4328 36.8882C40.6404 36.7062 40.9563 36.7269 41.1384 36.9345ZM39.0036 38.9096C39.2019 39.1018 39.2069 39.4183 39.0147 39.6166L39.008 39.6235C38.8159 39.8218 38.4994 39.8269 38.301 39.6347C38.1027 39.4426 38.0976 39.1261 38.2898 38.9277L38.2966 38.9207C38.4887 38.7224 38.8053 38.7174 39.0036 38.9096ZM37.0359 41.0513C37.2491 41.2267 37.2798 41.5418 37.1043 41.7551L37.1013 41.7587C36.9258 41.972 36.6107 42.0026 36.3975 41.8272C36.1842 41.6518 36.1536 41.3367 36.329 41.1234L36.3321 41.1196C36.5076 40.9064 36.8227 40.8758 37.0359 41.0513Z" fill="#0A1F44"/>
  <path fill-rule="evenodd" clip-rule="evenodd" d="M41.7463 91.6911C41.9177 91.4746 42.2322 91.4381 42.4486 91.6096L42.4525 91.6126C42.669 91.7841 42.7055 92.0985 42.5341 92.315C42.3626 92.5315 42.0482 92.568 41.8317 92.3966L41.8278 92.3935C41.6113 92.222 41.5748 91.9076 41.7463 91.6911ZM44.1286 93.4733C44.2815 93.2433 44.5918 93.1808 44.8218 93.3336L44.8299 93.339C45.0599 93.4918 45.1225 93.8022 44.9697 94.0322C44.8169 94.2622 44.5066 94.3248 44.2766 94.172L44.2682 94.1664C44.0383 94.0136 43.9757 93.7032 44.1286 93.4733ZM46.6553 95.0533C46.7884 94.8114 47.0925 94.7232 47.3344 94.8563L47.343 94.861C47.5849 94.994 47.6733 95.298 47.5402 95.54C47.4072 95.782 47.1032 95.8703 46.8612 95.7373L46.8524 95.7324C46.6104 95.5993 46.5222 95.2953 46.6553 95.0533ZM49.3054 96.4165C49.4177 96.1642 49.7133 96.0508 49.9656 96.1631L49.9745 96.1671C50.2268 96.2793 50.3403 96.5749 50.228 96.8272C50.1157 97.0795 49.8202 97.193 49.5679 97.0807L49.5587 97.0766C49.3065 96.9643 49.1931 96.6687 49.3054 96.4165ZM52.0606 97.5522C52.1513 97.2914 52.4363 97.1535 52.6971 97.2442L52.7063 97.2474C52.9671 97.3381 53.1051 97.623 53.0145 97.8838C52.9238 98.1447 52.6389 98.2827 52.378 98.192L52.3685 98.1887C52.1077 98.098 51.9698 97.813 52.0606 97.5522ZM54.9016 98.452C54.97 98.1844 55.2423 98.0231 55.5099 98.0915L55.5193 98.0939C55.7869 98.1623 55.9484 98.4346 55.88 98.7021C55.8116 98.9697 55.5393 99.1311 55.2718 99.0628L55.2621 99.0603C54.9945 98.9919 54.8331 98.7195 54.9016 98.452ZM57.8083 99.1094C57.854 98.8371 58.1118 98.6533 58.3841 98.6991L58.3937 98.7007C58.6661 98.7463 58.8499 99.0041 58.8042 99.2764C58.7586 99.5488 58.5008 99.7326 58.2285 99.6869L58.2186 99.6853C57.9463 99.6395 57.7626 99.3817 57.8083 99.1094ZM60.7599 99.5207C60.7827 99.2455 61.0243 99.0409 61.2995 99.0637L61.3092 99.0645C61.5844 99.0872 61.7891 99.3288 61.7664 99.604C61.7436 99.8792 61.5021 100.084 61.2269 100.061L61.2169 100.06C60.9417 100.037 60.7371 99.7959 60.7599 99.5207ZM63.7357 99.685C63.7358 99.4088 63.9597 99.185 64.2358 99.1851L64.2407 99.1851C64.5168 99.1851 64.7407 99.4089 64.7407 99.6851C64.7407 99.9612 64.5168 100.185 64.2407 100.185H64.2357C63.9595 100.185 63.7357 99.9611 63.7357 99.685Z" fill="#0A1F44"/>
  <path fill-rule="evenodd" clip-rule="evenodd" d="M64.2409 11.8152L64.2357 11.8152C63.9595 11.8152 63.7357 11.5914 63.7356 11.3152C63.7356 11.0391 63.9594 10.8152 64.2356 10.8152L64.2409 10.8152C64.517 10.8152 64.7409 11.039 64.7409 11.3152C64.7409 11.5913 64.517 11.8152 64.2409 11.8152ZM61.5871 11.3784C61.6034 11.6541 61.3931 11.8908 61.1174 11.907L61.107 11.9076C60.8314 11.9239 60.5947 11.7137 60.5784 11.438C60.5621 11.1624 60.7723 10.9257 61.048 10.9094L61.0585 10.9087C61.3342 10.8925 61.5709 11.1028 61.5871 11.3784ZM58.4375 11.6284C58.4701 11.9027 58.2743 12.1514 58.0001 12.184L57.9897 12.1853C57.7155 12.218 57.4668 12.0222 57.4341 11.748C57.4014 11.4738 57.5972 11.225 57.8714 11.1923L57.8819 11.191C58.1561 11.1584 58.4048 11.3542 58.4375 11.6284ZM55.3084 12.066C55.3574 12.3378 55.1769 12.5978 54.9051 12.6468L54.8949 12.6487C54.6231 12.6978 54.3631 12.5173 54.314 12.2455C54.2649 11.9738 54.4454 11.7137 54.7172 11.6646L54.7276 11.6627C54.9994 11.6137 55.2594 11.7943 55.3084 12.066ZM52.2113 12.6907C52.2766 12.959 52.112 13.2295 51.8437 13.2948L51.8336 13.2972C51.5653 13.3626 51.2949 13.1981 51.2295 12.9298C51.1642 12.6615 51.3287 12.391 51.597 12.3256L51.6073 12.3231C51.8756 12.2578 52.146 12.4224 52.2113 12.6907ZM49.1575 13.5009C49.2389 13.7648 49.0909 14.0447 48.827 14.1261L48.8171 14.1291C48.5532 14.2105 48.2733 14.0626 48.1919 13.7988C48.1105 13.5349 48.2584 13.255 48.5223 13.1736L48.5324 13.1704C48.7963 13.0891 49.0761 13.237 49.1575 13.5009ZM46.1582 14.4939C46.2553 14.7524 46.1245 15.0407 45.866 15.1378L45.8563 15.1415C45.5978 15.2387 45.3095 15.1079 45.2123 14.8495C45.1151 14.591 45.2458 14.3027 45.5043 14.2055L45.5142 14.2018C45.7727 14.1046 46.061 14.2354 46.1582 14.4939ZM43.2242 15.666C43.3367 15.9182 43.2235 16.2138 42.9713 16.3264L42.9618 16.3306C42.7097 16.4432 42.414 16.3301 42.3014 16.0779C42.1888 15.8258 42.302 15.5301 42.5541 15.4175L42.5638 15.4132C42.816 15.3006 43.1116 15.4138 43.2242 15.666ZM40.3661 17.0127C40.4936 17.2576 40.3983 17.5595 40.1534 17.687L40.1488 17.6894C39.9038 17.8169 39.6019 17.7218 39.4744 17.4768C39.3469 17.2319 39.4421 16.93 39.687 16.8024L39.6917 16.8C39.9366 16.6725 40.2386 16.7677 40.3661 17.0127Z" fill="#0A1F44"/>
  <path fill-rule="evenodd" clip-rule="evenodd" d="M13.2461 77.5928C13.5124 77.5196 13.7876 77.6761 13.8608 77.9424L13.862 77.9469C13.9353 78.2132 13.7788 78.4884 13.5125 78.5616C13.2463 78.6349 12.9711 78.4784 12.8978 78.2121L12.8966 78.2075C12.8233 77.9412 12.9798 77.666 13.2461 77.5928ZM14.0563 80.346C14.3182 80.2583 14.6015 80.3994 14.6892 80.6613L14.6922 80.6703C14.78 80.9321 14.6388 81.2155 14.377 81.3032C14.1152 81.391 13.8318 81.2499 13.7441 80.988L13.741 80.9789C13.6533 80.717 13.7945 80.4337 14.0563 80.346ZM15.0179 83.055C15.2746 82.9531 15.5653 83.0785 15.6672 83.3351L15.6707 83.3439C15.7727 83.6005 15.6473 83.8912 15.3907 83.9932C15.1341 84.0952 14.8434 83.9698 14.7414 83.7132L14.7378 83.7043C14.6359 83.4476 14.7613 83.1569 15.0179 83.055ZM16.1267 85.7072C16.3773 85.5914 16.6745 85.7007 16.7903 85.9513L16.7923 85.9556C16.9081 86.2063 16.7989 86.5034 16.5482 86.6193C16.2975 86.7351 16.0004 86.6259 15.8846 86.3752L15.8825 86.3708C15.7667 86.1202 15.876 85.823 16.1267 85.7072Z" fill="#0A1F44"/>
  <path fill-rule="evenodd" clip-rule="evenodd" d="M92.0682 108.877C92.2118 109.113 92.1371 109.421 91.9013 109.564L91.8972 109.567C91.6613 109.71 91.3537 109.636 91.21 109.4C91.0664 109.164 91.1412 108.856 91.377 108.713L91.3811 108.71C91.6169 108.566 91.9245 108.641 92.0682 108.877ZM89.5856 110.329C89.7162 110.573 89.6248 110.876 89.3815 111.006L89.373 111.011C89.1296 111.141 88.8265 111.05 88.696 110.807C88.5655 110.563 88.6569 110.26 88.9003 110.13L88.9086 110.125C89.152 109.995 89.4551 110.086 89.5856 110.329ZM87.0231 111.646C87.1402 111.896 87.0323 112.194 86.7822 112.311L86.7734 112.315C86.5233 112.432 86.2257 112.324 86.1087 112.074C85.9917 111.824 86.0996 111.526 86.3497 111.409L86.3583 111.405C86.6084 111.288 86.9061 111.396 87.0231 111.646ZM84.3922 112.82C84.4953 113.076 84.3713 113.368 84.1151 113.471L84.1061 113.474C83.85 113.577 83.5587 113.453 83.4556 113.197C83.3526 112.941 83.4767 112.65 83.7328 112.547L83.7416 112.543C83.9978 112.44 84.2891 112.564 84.3922 112.82ZM81.7007 113.848C81.7896 114.109 81.6497 114.393 81.3882 114.482L81.3791 114.485C81.1176 114.574 80.8337 114.434 80.7448 114.173C80.656 113.911 80.7959 113.627 81.0574 113.539L81.0664 113.535C81.3278 113.447 81.6118 113.586 81.7007 113.848ZM78.9569 114.726C79.0313 114.992 78.876 115.268 78.61 115.342L78.6007 115.345C78.3348 115.419 78.0589 115.264 77.9846 114.998C77.9103 114.732 78.0657 114.456 78.3316 114.382L78.3408 114.379C78.6067 114.305 78.8826 114.46 78.9569 114.726ZM76.1689 115.452C76.2286 115.722 76.0583 115.988 75.7887 116.048L75.7793 116.05C75.5096 116.11 75.2427 115.939 75.1832 115.67C75.1236 115.4 75.2939 115.133 75.5635 115.074L75.5728 115.072C75.8424 115.012 76.1093 115.182 76.1689 115.452ZM73.3452 116.023C73.39 116.296 73.2053 116.553 72.9328 116.598L72.9233 116.599C72.6508 116.644 72.3937 116.459 72.349 116.187C72.3043 115.914 72.4889 115.657 72.7614 115.613L72.7708 115.611C73.0433 115.566 73.3005 115.751 73.3452 116.023ZM56.582 116.254C56.6191 115.981 56.8711 115.789 57.1447 115.826L57.1505 115.827C57.4242 115.864 57.6159 116.116 57.5788 116.39C57.5417 116.663 57.2898 116.855 57.0161 116.818L57.0102 116.817C56.7365 116.78 56.5448 116.528 56.582 116.254ZM70.4943 116.439C70.5241 116.714 70.3257 116.961 70.0512 116.99L70.0416 116.992C69.7671 117.021 69.5204 116.823 69.4906 116.548C69.4609 116.274 69.6593 116.027 69.9339 115.997L69.9433 115.996C70.2178 115.966 70.4645 116.165 70.4943 116.439ZM60.1462 116.65C60.1647 116.374 60.4031 116.166 60.6786 116.184L60.6904 116.185C60.966 116.204 61.1743 116.442 61.1558 116.718C61.1374 116.993 60.899 117.201 60.6235 117.183L60.6115 117.182C60.336 117.164 60.1276 116.925 60.1462 116.65ZM67.625 116.699C67.6398 116.975 67.4283 117.211 67.1526 117.226L67.1429 117.226C66.8672 117.241 66.6316 117.029 66.6168 116.754C66.602 116.478 66.8135 116.242 67.0893 116.228L67.0988 116.227C67.3745 116.212 67.6101 116.424 67.625 116.699ZM63.7349 116.804C63.735 116.528 63.9589 116.304 64.235 116.304H64.2457C64.5218 116.304 64.7457 116.528 64.7457 116.804C64.7457 117.08 64.5219 117.304 64.2458 117.304H64.2349C63.9587 117.304 63.7349 117.08 63.7349 116.804Z" fill="#0A1F44"/>
  <path d="M87.8731 79.9781C87.8731 81.0002 87.0444 81.8289 86.0224 81.8289C85.0004 81.8289 84.1719 81.0002 84.1719 79.9781C84.1719 78.9561 85.0004 78.1274 86.0224 78.1274C87.0444 78.1274 87.8731 78.9561 87.8731 79.9781Z" fill="#0A1F44"/>
  <path d="M11.8297 61.4876C11.8297 62.5096 11.0009 63.3381 9.97892 63.3381C8.95692 63.3381 8.12842 62.5096 8.12842 61.4876C8.12842 60.4656 8.95692 59.6368 9.97892 59.6368C11.0009 59.6368 11.8297 60.4656 11.8297 61.4876Z" fill="#0A1F44"/>
  <path d="M12.0797 70.1242C12.0797 71.1462 11.2509 71.9747 10.2289 71.9747C9.20692 71.9747 8.37842 71.1462 8.37842 70.1242C8.37842 69.1022 9.20692 68.2734 10.2289 68.2734C11.2509 68.2734 12.0797 69.1022 12.0797 70.1242Z" fill="#0A1F44"/>
  <path fill-rule="evenodd" clip-rule="evenodd" d="M97.6868 31.7607C97.963 31.7607 98.1868 31.9845 98.1868 32.2607C98.1868 36.6508 101.746 40.2097 106.136 40.2097C110.526 40.2097 114.085 36.6508 114.085 32.2607C114.085 31.9845 114.309 31.7607 114.585 31.7607C114.861 31.7607 115.085 31.9845 115.085 32.2607C115.085 37.2031 111.078 41.2097 106.136 41.2097C101.193 41.2097 97.1868 37.2031 97.1868 32.2607C97.1868 31.9845 97.4107 31.7607 97.6868 31.7607Z" fill="#0A1F44"/>
  <path fill-rule="evenodd" clip-rule="evenodd" d="M115.911 55.5361C115.911 55.26 116.135 55.0361 116.411 55.0361C121.354 55.0361 125.36 59.0427 125.36 63.9851C125.36 68.9275 121.354 72.9341 116.411 72.9341C116.135 72.9341 115.911 72.7102 115.911 72.4341C115.911 72.158 116.135 71.9341 116.411 71.9341C120.802 71.9341 124.36 68.3752 124.36 63.9851C124.36 59.595 120.802 56.0361 116.411 56.0361C116.135 56.0361 115.911 55.8122 115.911 55.5361Z" fill="#0A1F44"/>
  <circle cx="64" cy="64" r="20" fill="#F1F0F5"/>
  <path d="M67.75 54C68.9926 54 70 55.0074 70 56.25V71.75C70 72.9926 68.9926 74 67.75 74H60.25C59.0074 74 58 72.9926 58 71.75V56.25C58 55.0074 59.0074 54 60.25 54H67.75ZM65.25 70H62.75C62.3358 70 62 70.3358 62 70.75C62 71.1642 62.3358 71.5 62.75 71.5H65.25C65.6642 71.5 66 71.1642 66 70.75C66 70.3358 65.6642 70 65.25 70Z" fill="#454C6D"/>
</svg>
