<?xml version="1.0" encoding="UTF-8"?>
<svg width="240px" height="137px" viewBox="0 0 240 137" version="1.1" xmlns="http://www.w3.org/2000/svg" xmlns:xlink="http://www.w3.org/1999/xlink">
    <title>tile-hover--variant-1</title>
    <g stroke="none" stroke-width="1" fill="none" fill-rule="evenodd">
        <g transform="translate(0.000000, 110.000000)" fill-rule="nonzero">
            <path d="M153,25.1 C153.2,25.1 153.4,24.9 153.4,24.7 C153.4,24.5 153.2,24.3 153,24.3 C152.8,24.3 152.6,24.5 152.6,24.7 C152.6,24.9 152.8,25.1 153,25.1 Z M148.8,25.1 C149,25.1 149.2,24.9 149.2,24.7 C149.2,24.5 149,24.3 148.8,24.3 C148.6,24.3 148.4,24.5 148.4,24.7 C148.3,24.9 148.5,25.1 148.8,25.1 Z M144.5,25.1 C144.7,25.1 144.9,24.9 144.9,24.7 C144.9,24.5 144.7,24.3 144.5,24.3 C144.3,24.3 144.1,24.5 144.1,24.7 C144.1,24.9 144.3,25.1 144.5,25.1 Z M140.2,25.1 C140.4,25.1 140.6,24.9 140.6,24.7 C140.6,24.5 140.4,24.3 140.2,24.3 C140,24.3 139.8,24.5 139.8,24.7 C139.8,24.9 140,25.1 140.2,25.1 Z M136,25.1 C136.2,25.1 136.4,24.9 136.4,24.7 C136.4,24.5 136.2,24.3 136,24.3 C135.8,24.3 135.6,24.5 135.6,24.7 C135.5,24.9 135.7,25.1 136,25.1 Z M131.7,25.1 C131.9,25.1 132.1,24.9 132.1,24.7 C132.1,24.5 131.9,24.3 131.7,24.3 C131.5,24.3 131.3,24.5 131.3,24.7 C131.3,24.9 131.5,25.1 131.7,25.1 Z M127.5,25.1 C127.7,25.1 127.9,24.9 127.9,24.7 C127.9,24.5 127.7,24.3 127.5,24.3 C127.3,24.3 127.1,24.5 127.1,24.7 C127,24.9 127.2,25.1 127.5,25.1 Z M123.2,25.1 C123.4,25.1 123.6,24.9 123.6,24.7 C123.6,24.5 123.4,24.3 123.2,24.3 C123,24.3 122.8,24.5 122.8,24.7 C122.8,24.9 123,25.1 123.2,25.1 Z M119,25.1 C119.2,25.1 119.4,24.9 119.4,24.7 C119.4,24.5 119.2,24.3 119,24.3 C118.8,24.3 118.6,24.5 118.6,24.7 C118.5,24.9 118.7,25.1 119,25.1 Z M114.7,25.1 C114.9,25.1 115.1,24.9 115.1,24.7 C115.1,24.5 114.9,24.3 114.7,24.3 C114.5,24.3 114.3,24.5 114.3,24.7 C114.2,24.9 114.5,25.1 114.7,25.1 Z M110.4,25.1 C110.6,25.1 110.8,24.9 110.8,24.7 C110.8,24.5 110.6,24.3 110.4,24.3 C110.2,24.3 110,24.5 110,24.7 C110,24.9 110.2,25.1 110.4,25.1 Z M106.2,25.1 C106.4,25.1 106.6,24.9 106.6,24.7 C106.6,24.5 106.4,24.3 106.2,24.3 C106,24.3 105.8,24.5 105.8,24.7 C105.7,24.9 105.9,25.1 106.2,25.1 Z M101.9,25.1 C102.1,25.1 102.3,24.9 102.3,24.7 C102.3,24.5 102.1,24.3 101.9,24.3 C101.7,24.3 101.5,24.5 101.5,24.7 C101.5,24.9 101.7,25.1 101.9,25.1 Z M150.9,22.9 C151.1,22.9 151.3,22.7 151.3,22.5 C151.3,22.3 151.1,22.1 150.9,22.1 C150.7,22.1 150.5,22.3 150.5,22.5 C150.5,22.7 150.7,22.9 150.9,22.9 Z M146.7,22.9 C146.9,22.9 147.1,22.7 147.1,22.5 C147.1,22.3 146.9,22.1 146.7,22.1 C146.5,22.1 146.3,22.3 146.3,22.5 C146.2,22.7 146.4,22.9 146.7,22.9 Z M142.4,22.9 C142.6,22.9 142.8,22.7 142.8,22.5 C142.8,22.3 142.6,22.1 142.4,22.1 C142.2,22.1 142,22.3 142,22.5 C142,22.7 142.2,22.9 142.4,22.9 Z M138.1,22.9 C138.3,22.9 138.5,22.7 138.5,22.5 C138.5,22.3 138.3,22.1 138.1,22.1 C137.9,22.1 137.7,22.3 137.7,22.5 C137.7,22.7 137.9,22.9 138.1,22.9 Z M133.9,22 C133.7,22 133.5,22.2 133.5,22.4 C133.5,22.6 133.7,22.8 133.9,22.8 C134.1,22.8 134.3,22.6 134.3,22.4 C134.3,22.2 134.1,22 133.9,22 Z M129.6,22 C129.4,22 129.2,22.2 129.2,22.4 C129.2,22.6 129.4,22.8 129.6,22.8 C129.8,22.8 130,22.6 130,22.4 C130.1,22.2 129.9,22 129.6,22 Z M125.4,22.9 C125.6,22.9 125.8,22.7 125.8,22.5 C125.8,22.3 125.6,22.1 125.4,22.1 C125.2,22.1 125,22.3 125,22.5 C124.9,22.7 125.1,22.9 125.4,22.9 Z M121.1,22.9 C121.3,22.9 121.5,22.7 121.5,22.5 C121.5,22.3 121.3,22.1 121.1,22.1 C120.9,22.1 120.7,22.3 120.7,22.5 C120.7,22.7 120.9,22.9 121.1,22.9 Z M116.9,22.9 C117.1,22.9 117.3,22.7 117.3,22.5 C117.3,22.3 117.1,22.1 116.9,22.1 C116.7,22.1 116.5,22.3 116.5,22.5 C116.4,22.7 116.6,22.9 116.9,22.9 Z M112.6,22.9 C112.8,22.9 113,22.7 113,22.5 C113,22.3 112.8,22.1 112.6,22.1 C112.4,22.1 112.2,22.3 112.2,22.5 C112.1,22.7 112.3,22.9 112.6,22.9 Z M108.3,22.9 C108.5,22.9 108.7,22.7 108.7,22.5 C108.7,22.3 108.5,22.1 108.3,22.1 C108.1,22.1 107.9,22.3 107.9,22.5 C107.9,22.7 108.1,22.9 108.3,22.9 Z M104.1,22.9 C104.3,22.9 104.5,22.7 104.5,22.5 C104.5,22.3 104.3,22.1 104.1,22.1 C103.9,22.1 103.7,22.3 103.7,22.5 C103.6,22.7 103.8,22.9 104.1,22.9 Z M99.8,22.9 C100,22.9 100.2,22.7 100.2,22.5 C100.2,22.3 100,22.1 99.8,22.1 C99.6,22.1 99.4,22.3 99.4,22.5 C99.4,22.7 99.6,22.9 99.8,22.9 Z M153,20.9 C153.2,20.9 153.4,20.7 153.4,20.5 C153.4,20.3 153.2,20.1 153,20.1 C152.8,20.1 152.6,20.3 152.6,20.5 C152.6,20.7 152.8,20.9 153,20.9 Z M148.8,20.9 C149,20.9 149.2,20.7 149.2,20.5 C149.2,20.3 149,20.1 148.8,20.1 C148.6,20.1 148.4,20.3 148.4,20.5 C148.3,20.7 148.5,20.9 148.8,20.9 Z M144.5,20.9 C144.7,20.9 144.9,20.7 144.9,20.5 C144.9,20.3 144.7,20.1 144.5,20.1 C144.3,20.1 144.1,20.3 144.1,20.5 C144.1,20.7 144.3,20.9 144.5,20.9 Z M140.2,20.9 C140.4,20.9 140.6,20.7 140.6,20.5 C140.6,20.3 140.4,20.1 140.2,20.1 C140,20.1 139.8,20.3 139.8,20.5 C139.8,20.7 140,20.9 140.2,20.9 Z M136,20.9 C136.2,20.9 136.4,20.7 136.4,20.5 C136.4,20.3 136.2,20.1 136,20.1 C135.8,20.1 135.6,20.3 135.6,20.5 C135.5,20.7 135.7,20.9 136,20.9 Z M131.7,20.9 C131.9,20.9 132.1,20.7 132.1,20.5 C132.1,20.3 131.9,20.1 131.7,20.1 C131.5,20.1 131.3,20.3 131.3,20.5 C131.3,20.7 131.5,20.9 131.7,20.9 Z M127.5,20.9 C127.7,20.9 127.9,20.7 127.9,20.5 C127.9,20.3 127.7,20.1 127.5,20.1 C127.3,20.1 127.1,20.3 127.1,20.5 C127,20.7 127.2,20.9 127.5,20.9 Z M123.2,20.9 C123.4,20.9 123.6,20.7 123.6,20.5 C123.6,20.3 123.4,20.1 123.2,20.1 C123,20.1 122.8,20.3 122.8,20.5 C122.8,20.7 123,20.9 123.2,20.9 Z M119,20.9 C119.2,20.9 119.4,20.7 119.4,20.5 C119.4,20.3 119.2,20.1 119,20.1 C118.8,20.1 118.6,20.3 118.6,20.5 C118.5,20.7 118.7,20.9 119,20.9 Z M114.7,20.9 C114.9,20.9 115.1,20.7 115.1,20.5 C115.1,20.3 114.9,20.1 114.7,20.1 C114.5,20.1 114.3,20.3 114.3,20.5 C114.2,20.7 114.5,20.9 114.7,20.9 Z M110.4,20.9 C110.6,20.9 110.8,20.7 110.8,20.5 C110.8,20.3 110.6,20.1 110.4,20.1 C110.2,20.1 110,20.3 110,20.5 C110,20.7 110.2,20.9 110.4,20.9 Z M106.2,20.9 C106.4,20.9 106.6,20.7 106.6,20.5 C106.6,20.3 106.4,20.1 106.2,20.1 C106,20.1 105.8,20.3 105.8,20.5 C105.7,20.7 105.9,20.9 106.2,20.9 Z M101.9,20.9 C102.1,20.9 102.3,20.7 102.3,20.5 C102.3,20.3 102.1,20.1 101.9,20.1 C101.7,20.1 101.5,20.3 101.5,20.5 C101.5,20.7 101.7,20.9 101.9,20.9 Z M150.9,18.8 C151.1,18.8 151.3,18.6 151.3,18.4 C151.3,18.2 151.1,18 150.9,18 C150.7,18 150.5,18.2 150.5,18.4 C150.5,18.6 150.7,18.8 150.9,18.8 Z M146.7,18.8 C146.9,18.8 147.1,18.6 147.1,18.4 C147.1,18.2 146.9,18 146.7,18 C146.5,18 146.3,18.2 146.3,18.4 C146.2,18.6 146.4,18.8 146.7,18.8 Z M142.4,18.8 C142.6,18.8 142.8,18.6 142.8,18.4 C142.8,18.2 142.6,18 142.4,18 C142.2,18 142,18.2 142,18.4 C142,18.6 142.2,18.8 142.4,18.8 Z M138.1,18.8 C138.3,18.8 138.5,18.6 138.5,18.4 C138.5,18.2 138.3,18 138.1,18 C137.9,18 137.7,18.2 137.7,18.4 C137.7,18.6 137.9,18.8 138.1,18.8 Z M133.9,17.9 C133.7,17.9 133.5,18.1 133.5,18.3 C133.5,18.5 133.7,18.7 133.9,18.7 C134.1,18.7 134.3,18.5 134.3,18.3 C134.3,18.1 134.1,17.9 133.9,17.9 Z M129.6,17.9 C129.4,17.9 129.2,18.1 129.2,18.3 C129.2,18.5 129.4,18.7 129.6,18.7 C129.8,18.7 130,18.5 130,18.3 C130.1,18.1 129.9,17.9 129.6,17.9 Z M125.4,18.8 C125.6,18.8 125.8,18.6 125.8,18.4 C125.8,18.2 125.6,18 125.4,18 C125.2,18 125,18.2 125,18.4 C124.9,18.6 125.1,18.8 125.4,18.8 Z M121.1,18.8 C121.3,18.8 121.5,18.6 121.5,18.4 C121.5,18.2 121.3,18 121.1,18 C120.9,18 120.7,18.2 120.7,18.4 C120.7,18.6 120.9,18.8 121.1,18.8 Z M116.9,18.8 C117.1,18.8 117.3,18.6 117.3,18.4 C117.3,18.2 117.1,18 116.9,18 C116.7,18 116.5,18.2 116.5,18.4 C116.4,18.6 116.6,18.8 116.9,18.8 Z M112.6,18.8 C112.8,18.8 113,18.6 113,18.4 C113,18.2 112.8,18 112.6,18 C112.4,18 112.2,18.2 112.2,18.4 C112.1,18.6 112.3,18.8 112.6,18.8 Z M108.3,18.8 C108.5,18.8 108.7,18.6 108.7,18.4 C108.7,18.2 108.5,18 108.3,18 C108.1,18 107.9,18.2 107.9,18.4 C107.9,18.6 108.1,18.8 108.3,18.8 Z M104.1,18.8 C104.3,18.8 104.5,18.6 104.5,18.4 C104.5,18.2 104.3,18 104.1,18 C103.9,18 103.7,18.2 103.7,18.4 C103.6,18.6 103.8,18.8 104.1,18.8 Z M99.8,18.8 C100,18.8 100.2,18.6 100.2,18.4 C100.2,18.2 100,18 99.8,18 C99.6,18 99.4,18.2 99.4,18.4 C99.4,18.6 99.6,18.8 99.8,18.8 Z M153,16.6 C153.2,16.6 153.4,16.4 153.4,16.2 C153.4,16 153.2,15.8 153,15.8 C152.8,15.8 152.6,16 152.6,16.2 C152.6,16.4 152.8,16.6 153,16.6 Z M148.8,16.6 C149,16.6 149.2,16.4 149.2,16.2 C149.2,16 149,15.8 148.8,15.8 C148.6,15.8 148.4,16 148.4,16.2 C148.3,16.4 148.5,16.6 148.8,16.6 Z M144.5,16.6 C144.7,16.6 144.9,16.4 144.9,16.2 C144.9,16 144.7,15.8 144.5,15.8 C144.3,15.8 144.1,16 144.1,16.2 C144.1,16.4 144.3,16.6 144.5,16.6 Z M140.2,16.6 C140.4,16.6 140.6,16.4 140.6,16.2 C140.6,16 140.4,15.8 140.2,15.8 C140,15.8 139.8,16 139.8,16.2 C139.8,16.4 140,16.6 140.2,16.6 Z M136,16.6 C136.2,16.6 136.4,16.4 136.4,16.2 C136.4,16 136.2,15.8 136,15.8 C135.8,15.8 135.6,16 135.6,16.2 C135.5,16.4 135.7,16.6 136,16.6 Z M131.7,16.6 C131.9,16.6 132.1,16.4 132.1,16.2 C132.1,16 131.9,15.8 131.7,15.8 C131.5,15.8 131.3,16 131.3,16.2 C131.3,16.4 131.5,16.6 131.7,16.6 Z M127.5,16.6 C127.7,16.6 127.9,16.4 127.9,16.2 C127.9,16 127.7,15.8 127.5,15.8 C127.3,15.8 127.1,16 127.1,16.2 C127,16.4 127.2,16.6 127.5,16.6 Z M123.2,16.6 C123.4,16.6 123.6,16.4 123.6,16.2 C123.6,16 123.4,15.8 123.2,15.8 C123,15.8 122.8,16 122.8,16.2 C122.8,16.4 123,16.6 123.2,16.6 Z M119,16.6 C119.2,16.6 119.4,16.4 119.4,16.2 C119.4,16 119.2,15.8 119,15.8 C118.8,15.8 118.6,16 118.6,16.2 C118.5,16.4 118.7,16.6 119,16.6 Z M114.7,16.6 C114.9,16.6 115.1,16.4 115.1,16.2 C115.1,16 114.9,15.8 114.7,15.8 C114.5,15.8 114.3,16 114.3,16.2 C114.2,16.4 114.5,16.6 114.7,16.6 Z M110.4,16.6 C110.6,16.6 110.8,16.4 110.8,16.2 C110.8,16 110.6,15.8 110.4,15.8 C110.2,15.8 110,16 110,16.2 C110,16.4 110.2,16.6 110.4,16.6 Z M106.2,16.6 C106.4,16.6 106.6,16.4 106.6,16.2 C106.6,16 106.4,15.8 106.2,15.8 C106,15.8 105.8,16 105.8,16.2 C105.7,16.4 105.9,16.6 106.2,16.6 Z M101.9,16.6 C102.1,16.6 102.3,16.4 102.3,16.2 C102.3,16 102.1,15.8 101.9,15.8 C101.7,15.8 101.5,16 101.5,16.2 C101.5,16.4 101.7,16.6 101.9,16.6 Z M150.9,14.5 C151.1,14.5 151.3,14.3 151.3,14.1 C151.3,13.9 151.1,13.7 150.9,13.7 C150.7,13.7 150.5,13.9 150.5,14.1 C150.5,14.3 150.7,14.5 150.9,14.5 Z M146.7,14.5 C146.9,14.5 147.1,14.3 147.1,14.1 C147.1,13.9 146.9,13.7 146.7,13.7 C146.5,13.7 146.3,13.9 146.3,14.1 C146.2,14.3 146.4,14.5 146.7,14.5 Z M142.4,14.5 C142.6,14.5 142.8,14.3 142.8,14.1 C142.8,13.9 142.6,13.7 142.4,13.7 C142.2,13.7 142,13.9 142,14.1 C142,14.3 142.2,14.5 142.4,14.5 Z M138.1,14.5 C138.3,14.5 138.5,14.3 138.5,14.1 C138.5,13.9 138.3,13.7 138.1,13.7 C137.9,13.7 137.7,13.9 137.7,14.1 C137.7,14.3 137.9,14.5 138.1,14.5 Z M133.9,13.6 C133.7,13.6 133.5,13.8 133.5,14 C133.5,14.2 133.7,14.4 133.9,14.4 C134.1,14.4 134.3,14.2 134.3,14 C134.3,13.8 134.1,13.6 133.9,13.6 Z M129.6,13.6 C129.4,13.6 129.2,13.8 129.2,14 C129.2,14.2 129.4,14.4 129.6,14.4 C129.8,14.4 130,14.2 130,14 C130.1,13.8 129.9,13.6 129.6,13.6 Z M125.4,14.5 C125.6,14.5 125.8,14.3 125.8,14.1 C125.8,13.9 125.6,13.7 125.4,13.7 C125.2,13.7 125,13.9 125,14.1 C124.9,14.3 125.1,14.5 125.4,14.5 Z M121.1,14.5 C121.3,14.5 121.5,14.3 121.5,14.1 C121.5,13.9 121.3,13.7 121.1,13.7 C120.9,13.7 120.7,13.9 120.7,14.1 C120.7,14.3 120.9,14.5 121.1,14.5 Z M116.9,14.5 C117.1,14.5 117.3,14.3 117.3,14.1 C117.3,13.9 117.1,13.7 116.9,13.7 C116.7,13.7 116.5,13.9 116.5,14.1 C116.4,14.3 116.6,14.5 116.9,14.5 Z M112.6,14.5 C112.8,14.5 113,14.3 113,14.1 C113,13.9 112.8,13.7 112.6,13.7 C112.4,13.7 112.2,13.9 112.2,14.1 C112.1,14.3 112.3,14.5 112.6,14.5 Z M108.3,14.5 C108.5,14.5 108.7,14.3 108.7,14.1 C108.7,13.9 108.5,13.7 108.3,13.7 C108.1,13.7 107.9,13.9 107.9,14.1 C107.9,14.3 108.1,14.5 108.3,14.5 Z M104.1,14.5 C104.3,14.5 104.5,14.3 104.5,14.1 C104.5,13.9 104.3,13.7 104.1,13.7 C103.9,13.7 103.7,13.9 103.7,14.1 C103.6,14.3 103.8,14.5 104.1,14.5 Z M99.8,14.5 C100,14.5 100.2,14.3 100.2,14.1 C100.2,13.9 100,13.7 99.8,13.7 C99.6,13.7 99.4,13.9 99.4,14.1 C99.4,14.3 99.6,14.5 99.8,14.5 Z M153,12.5 C153.2,12.5 153.4,12.3 153.4,12.1 C153.4,11.9 153.2,11.7 153,11.7 C152.8,11.7 152.6,11.9 152.6,12.1 C152.6,12.3 152.8,12.5 153,12.5 Z M148.8,12.5 C149,12.5 149.2,12.3 149.2,12.1 C149.2,11.9 149,11.7 148.8,11.7 C148.6,11.7 148.4,11.9 148.4,12.1 C148.3,12.3 148.5,12.5 148.8,12.5 Z M144.5,12.5 C144.7,12.5 144.9,12.3 144.9,12.1 C144.9,11.9 144.7,11.7 144.5,11.7 C144.3,11.7 144.1,11.9 144.1,12.1 C144.1,12.3 144.3,12.5 144.5,12.5 Z M140.2,12.5 C140.4,12.5 140.6,12.3 140.6,12.1 C140.6,11.9 140.4,11.7 140.2,11.7 C140,11.7 139.8,11.9 139.8,12.1 C139.8,12.3 140,12.5 140.2,12.5 Z M136,12.5 C136.2,12.5 136.4,12.3 136.4,12.1 C136.4,11.9 136.2,11.7 136,11.7 C135.8,11.7 135.6,11.9 135.6,12.1 C135.5,12.3 135.7,12.5 136,12.5 Z M131.7,12.5 C131.9,12.5 132.1,12.3 132.1,12.1 C132.1,11.9 131.9,11.7 131.7,11.7 C131.5,11.7 131.3,11.9 131.3,12.1 C131.3,12.3 131.5,12.5 131.7,12.5 Z M127.5,12.5 C127.7,12.5 127.9,12.3 127.9,12.1 C127.9,11.9 127.7,11.7 127.5,11.7 C127.3,11.7 127.1,11.9 127.1,12.1 C127,12.3 127.2,12.5 127.5,12.5 Z M123.2,12.5 C123.4,12.5 123.6,12.3 123.6,12.1 C123.6,11.9 123.4,11.7 123.2,11.7 C123,11.7 122.8,11.9 122.8,12.1 C122.8,12.3 123,12.5 123.2,12.5 Z M119,12.5 C119.2,12.5 119.4,12.3 119.4,12.1 C119.4,11.9 119.2,11.7 119,11.7 C118.8,11.7 118.6,11.9 118.6,12.1 C118.5,12.3 118.7,12.5 119,12.5 Z M114.7,12.5 C114.9,12.5 115.1,12.3 115.1,12.1 C115.1,11.9 114.9,11.7 114.7,11.7 C114.5,11.7 114.3,11.9 114.3,12.1 C114.2,12.3 114.5,12.5 114.7,12.5 Z M110.4,12.5 C110.6,12.5 110.8,12.3 110.8,12.1 C110.8,11.9 110.6,11.7 110.4,11.7 C110.2,11.7 110,11.9 110,12.1 C110,12.3 110.2,12.5 110.4,12.5 Z M106.2,12.5 C106.4,12.5 106.6,12.3 106.6,12.1 C106.6,11.9 106.4,11.7 106.2,11.7 C106,11.7 105.8,11.9 105.8,12.1 C105.7,12.3 105.9,12.5 106.2,12.5 Z M101.9,12.5 C102.1,12.5 102.3,12.3 102.3,12.1 C102.3,11.9 102.1,11.7 101.9,11.7 C101.7,11.7 101.5,11.9 101.5,12.1 C101.5,12.3 101.7,12.5 101.9,12.5 Z M150.9,10.3 C151.1,10.3 151.3,10.1 151.3,9.9 C151.3,9.7 151.1,9.5 150.9,9.5 C150.7,9.5 150.5,9.7 150.5,9.9 C150.5,10.1 150.7,10.3 150.9,10.3 Z M146.7,10.3 C146.9,10.3 147.1,10.1 147.1,9.9 C147.1,9.7 146.9,9.5 146.7,9.5 C146.5,9.5 146.3,9.7 146.3,9.9 C146.2,10.1 146.4,10.3 146.7,10.3 Z M142.4,10.3 C142.6,10.3 142.8,10.1 142.8,9.9 C142.8,9.7 142.6,9.5 142.4,9.5 C142.2,9.5 142,9.7 142,9.9 C142,10.1 142.2,10.3 142.4,10.3 Z M138.1,10.3 C138.3,10.3 138.5,10.1 138.5,9.9 C138.5,9.7 138.3,9.5 138.1,9.5 C137.9,9.5 137.7,9.7 137.7,9.9 C137.7,10.1 137.9,10.3 138.1,10.3 Z M133.9,9.4 C133.7,9.4 133.5,9.6 133.5,9.8 C133.5,10 133.7,10.2 133.9,10.2 C134.1,10.2 134.3,10 134.3,9.8 C134.3,9.6 134.1,9.4 133.9,9.4 Z M129.6,9.4 C129.4,9.4 129.2,9.6 129.2,9.8 C129.2,10 129.4,10.2 129.6,10.2 C129.8,10.2 130,10 130,9.8 C130.1,9.6 129.9,9.4 129.6,9.4 Z M125.4,10.3 C125.6,10.3 125.8,10.1 125.8,9.9 C125.8,9.7 125.6,9.5 125.4,9.5 C125.2,9.5 125,9.7 125,9.9 C124.9,10.1 125.1,10.3 125.4,10.3 Z M121.1,10.3 C121.3,10.3 121.5,10.1 121.5,9.9 C121.5,9.7 121.3,9.5 121.1,9.5 C120.9,9.5 120.7,9.7 120.7,9.9 C120.7,10.1 120.9,10.3 121.1,10.3 Z M116.9,10.3 C117.1,10.3 117.3,10.1 117.3,9.9 C117.3,9.7 117.1,9.5 116.9,9.5 C116.7,9.5 116.5,9.7 116.5,9.9 C116.4,10.1 116.6,10.3 116.9,10.3 Z M112.6,10.3 C112.8,10.3 113,10.1 113,9.9 C113,9.7 112.8,9.5 112.6,9.5 C112.4,9.5 112.2,9.7 112.2,9.9 C112.1,10.1 112.3,10.3 112.6,10.3 Z M108.3,10.3 C108.5,10.3 108.7,10.1 108.7,9.9 C108.7,9.7 108.5,9.5 108.3,9.5 C108.1,9.5 107.9,9.7 107.9,9.9 C107.9,10.1 108.1,10.3 108.3,10.3 Z M104.1,10.3 C104.3,10.3 104.5,10.1 104.5,9.9 C104.5,9.7 104.3,9.5 104.1,9.5 C103.9,9.5 103.7,9.7 103.7,9.9 C103.6,10.1 103.8,10.3 104.1,10.3 Z M99.8,10.3 C100,10.3 100.2,10.1 100.2,9.9 C100.2,9.7 100,9.5 99.8,9.5 C99.6,9.5 99.4,9.7 99.4,9.9 C99.4,10.1 99.6,10.3 99.8,10.3 Z M153,8.2 C153.2,8.2 153.4,8 153.4,7.8 C153.4,7.6 153.2,7.4 153,7.4 C152.8,7.4 152.6,7.6 152.6,7.8 C152.6,8 152.8,8.2 153,8.2 Z M148.8,8.2 C149,8.2 149.2,8 149.2,7.8 C149.2,7.6 149,7.4 148.8,7.4 C148.6,7.4 148.4,7.6 148.4,7.8 C148.3,8 148.5,8.2 148.8,8.2 Z M144.5,8.2 C144.7,8.2 144.9,8 144.9,7.8 C144.9,7.6 144.7,7.4 144.5,7.4 C144.3,7.4 144.1,7.6 144.1,7.8 C144.1,8 144.3,8.2 144.5,8.2 Z M140.2,8.2 C140.4,8.2 140.6,8 140.6,7.8 C140.6,7.6 140.4,7.4 140.2,7.4 C140,7.4 139.8,7.6 139.8,7.8 C139.8,8 140,8.2 140.2,8.2 Z M136,8.2 C136.2,8.2 136.4,8 136.4,7.8 C136.4,7.6 136.2,7.4 136,7.4 C135.8,7.4 135.6,7.6 135.6,7.8 C135.5,8 135.7,8.2 136,8.2 Z M131.7,8.2 C131.9,8.2 132.1,8 132.1,7.8 C132.1,7.6 131.9,7.4 131.7,7.4 C131.5,7.4 131.3,7.6 131.3,7.8 C131.3,8 131.5,8.2 131.7,8.2 Z M127.5,8.2 C127.7,8.2 127.9,8 127.9,7.8 C127.9,7.6 127.7,7.4 127.5,7.4 C127.3,7.4 127.1,7.6 127.1,7.8 C127,8 127.2,8.2 127.5,8.2 Z M123.2,8.2 C123.4,8.2 123.6,8 123.6,7.8 C123.6,7.6 123.4,7.4 123.2,7.4 C123,7.4 122.8,7.6 122.8,7.8 C122.8,8 123,8.2 123.2,8.2 Z M119,8.2 C119.2,8.2 119.4,8 119.4,7.8 C119.4,7.6 119.2,7.4 119,7.4 C118.8,7.4 118.6,7.6 118.6,7.8 C118.5,8 118.7,8.2 119,8.2 Z M114.7,8.2 C114.9,8.2 115.1,8 115.1,7.8 C115.1,7.6 114.9,7.4 114.7,7.4 C114.5,7.4 114.3,7.6 114.3,7.8 C114.2,8 114.5,8.2 114.7,8.2 Z M110.4,8.2 C110.6,8.2 110.8,8 110.8,7.8 C110.8,7.6 110.6,7.4 110.4,7.4 C110.2,7.4 110,7.6 110,7.8 C110,8 110.2,8.2 110.4,8.2 Z M106.2,8.2 C106.4,8.2 106.6,8 106.6,7.8 C106.6,7.6 106.4,7.4 106.2,7.4 C106,7.4 105.8,7.6 105.8,7.8 C105.7,8 105.9,8.2 106.2,8.2 Z M101.9,8.2 C102.1,8.2 102.3,8 102.3,7.8 C102.3,7.6 102.1,7.4 101.9,7.4 C101.7,7.4 101.5,7.6 101.5,7.8 C101.5,8 101.7,8.2 101.9,8.2 Z" fill="#000000"></path>
            <path d="M97.9,25 C98.1,25 98.3,24.8 98.3,24.6 C98.3,24.4 98.1,24.2 97.9,24.2 C97.7,24.2 97.5,24.4 97.5,24.6 C97.4,24.8 97.6,25 97.9,25 Z M93.6,25 C93.8,25 94,24.8 94,24.6 C94,24.4 93.8,24.2 93.6,24.2 C93.4,24.2 93.2,24.4 93.2,24.6 C93.2,24.8 93.4,25 93.6,25 Z M89.3,25 C89.5,25 89.7,24.8 89.7,24.6 C89.7,24.4 89.5,24.2 89.3,24.2 C89.1,24.2 88.9,24.4 88.9,24.6 C88.9,24.8 89.1,25 89.3,25 Z M85.1,25 C85.3,25 85.5,24.8 85.5,24.6 C85.5,24.4 85.3,24.2 85.1,24.2 C84.9,24.2 84.7,24.4 84.7,24.6 C84.6,24.8 84.8,25 85.1,25 Z M95.8,22.8 C96,22.8 96.2,22.6 96.2,22.4 C96.2,22.2 96,22 95.8,22 C95.6,22 95.4,22.2 95.4,22.4 C95.3,22.6 95.5,22.8 95.8,22.8 Z M91.5,22.8 C91.7,22.8 91.9,22.6 91.9,22.4 C91.9,22.2 91.7,22 91.5,22 C91.3,22 91.1,22.2 91.1,22.4 C91,22.6 91.3,22.8 91.5,22.8 Z M87.2,22.8 C87.4,22.8 87.6,22.6 87.6,22.4 C87.6,22.2 87.4,22 87.2,22 C87,22 86.8,22.2 86.8,22.4 C86.8,22.6 87,22.8 87.2,22.8 Z M83,22.8 C83.2,22.8 83.4,22.6 83.4,22.4 C83.4,22.2 83.2,22 83,22 C82.8,22 82.6,22.2 82.6,22.4 C82.5,22.6 82.7,22.8 83,22.8 Z M97.9,20.8 C98.1,20.8 98.3,20.6 98.3,20.4 C98.3,20.2 98.1,20 97.9,20 C97.7,20 97.5,20.2 97.5,20.4 C97.4,20.6 97.6,20.8 97.9,20.8 Z M93.6,20.8 C93.8,20.8 94,20.6 94,20.4 C94,20.2 93.8,20 93.6,20 C93.4,20 93.2,20.2 93.2,20.4 C93.2,20.6 93.4,20.8 93.6,20.8 Z M89.3,20.8 C89.5,20.8 89.7,20.6 89.7,20.4 C89.7,20.2 89.5,20 89.3,20 C89.1,20 88.9,20.2 88.9,20.4 C88.9,20.6 89.1,20.8 89.3,20.8 Z M85.1,20.8 C85.3,20.8 85.5,20.6 85.5,20.4 C85.5,20.2 85.3,20 85.1,20 C84.9,20 84.7,20.2 84.7,20.4 C84.6,20.6 84.8,20.8 85.1,20.8 Z M95.8,18.7 C96,18.7 96.2,18.5 96.2,18.3 C96.2,18.1 96,17.9 95.8,17.9 C95.6,17.9 95.4,18.1 95.4,18.3 C95.3,18.5 95.5,18.7 95.8,18.7 Z M91.5,18.7 C91.7,18.7 91.9,18.5 91.9,18.3 C91.9,18.1 91.7,17.9 91.5,17.9 C91.3,17.9 91.1,18.1 91.1,18.3 C91,18.5 91.3,18.7 91.5,18.7 Z M87.2,18.7 C87.4,18.7 87.6,18.5 87.6,18.3 C87.6,18.1 87.4,17.9 87.2,17.9 C87,17.9 86.8,18.1 86.8,18.3 C86.8,18.5 87,18.7 87.2,18.7 Z M83,18.7 C83.2,18.7 83.4,18.5 83.4,18.3 C83.4,18.1 83.2,17.9 83,17.9 C82.8,17.9 82.6,18.1 82.6,18.3 C82.5,18.5 82.7,18.7 83,18.7 Z M97.9,16.5 C98.1,16.5 98.3,16.3 98.3,16.1 C98.3,15.9 98.1,15.7 97.9,15.7 C97.7,15.7 97.5,15.9 97.5,16.1 C97.4,16.3 97.6,16.5 97.9,16.5 Z M93.6,16.5 C93.8,16.5 94,16.3 94,16.1 C94,15.9 93.8,15.7 93.6,15.7 C93.4,15.7 93.2,15.9 93.2,16.1 C93.2,16.3 93.4,16.5 93.6,16.5 Z M89.3,16.5 C89.5,16.5 89.7,16.3 89.7,16.1 C89.7,15.9 89.5,15.7 89.3,15.7 C89.1,15.7 88.9,15.9 88.9,16.1 C88.9,16.3 89.1,16.5 89.3,16.5 Z M85.1,16.5 C85.3,16.5 85.5,16.3 85.5,16.1 C85.5,15.9 85.3,15.7 85.1,15.7 C84.9,15.7 84.7,15.9 84.7,16.1 C84.6,16.3 84.8,16.5 85.1,16.5 Z M95.8,14.4 C96,14.4 96.2,14.2 96.2,14 C96.2,13.8 96,13.6 95.8,13.6 C95.6,13.6 95.4,13.8 95.4,14 C95.3,14.2 95.5,14.4 95.8,14.4 Z M91.5,14.4 C91.7,14.4 91.9,14.2 91.9,14 C91.9,13.8 91.7,13.6 91.5,13.6 C91.3,13.6 91.1,13.8 91.1,14 C91,14.2 91.3,14.4 91.5,14.4 Z M87.2,14.4 C87.4,14.4 87.6,14.2 87.6,14 C87.6,13.8 87.4,13.6 87.2,13.6 C87,13.6 86.8,13.8 86.8,14 C86.8,14.2 87,14.4 87.2,14.4 Z M83,14.4 C83.2,14.4 83.4,14.2 83.4,14 C83.4,13.8 83.2,13.6 83,13.6 C82.8,13.6 82.6,13.8 82.6,14 C82.5,14.2 82.7,14.4 83,14.4 Z M97.9,12.4 C98.1,12.4 98.3,12.2 98.3,12 C98.3,11.8 98.1,11.6 97.9,11.6 C97.7,11.6 97.5,11.8 97.5,12 C97.4,12.2 97.6,12.4 97.9,12.4 Z M93.6,12.4 C93.8,12.4 94,12.2 94,12 C94,11.8 93.8,11.6 93.6,11.6 C93.4,11.6 93.2,11.8 93.2,12 C93.2,12.2 93.4,12.4 93.6,12.4 Z M89.3,12.4 C89.5,12.4 89.7,12.2 89.7,12 C89.7,11.8 89.5,11.6 89.3,11.6 C89.1,11.6 88.9,11.8 88.9,12 C88.9,12.2 89.1,12.4 89.3,12.4 Z M85.1,12.4 C85.3,12.4 85.5,12.2 85.5,12 C85.5,11.8 85.3,11.6 85.1,11.6 C84.9,11.6 84.7,11.8 84.7,12 C84.6,12.2 84.8,12.4 85.1,12.4 Z M95.8,10.2 C96,10.2 96.2,10 96.2,9.8 C96.2,9.6 96,9.4 95.8,9.4 C95.6,9.4 95.4,9.6 95.4,9.8 C95.3,10 95.5,10.2 95.8,10.2 Z M91.5,10.2 C91.7,10.2 91.9,10 91.9,9.8 C91.9,9.6 91.7,9.4 91.5,9.4 C91.3,9.4 91.1,9.6 91.1,9.8 C91,10 91.3,10.2 91.5,10.2 Z M87.2,10.2 C87.4,10.2 87.6,10 87.6,9.8 C87.6,9.6 87.4,9.4 87.2,9.4 C87,9.4 86.8,9.6 86.8,9.8 C86.8,10 87,10.2 87.2,10.2 Z M83,10.2 C83.2,10.2 83.4,10 83.4,9.8 C83.4,9.6 83.2,9.4 83,9.4 C82.8,9.4 82.6,9.6 82.6,9.8 C82.5,10 82.7,10.2 83,10.2 Z M97.9,8.1 C98.1,8.1 98.3,7.9 98.3,7.7 C98.3,7.5 98.1,7.3 97.9,7.3 C97.7,7.3 97.5,7.5 97.5,7.7 C97.4,7.9 97.6,8.1 97.9,8.1 Z M93.6,8.1 C93.8,8.1 94,7.9 94,7.7 C94,7.5 93.8,7.3 93.6,7.3 C93.4,7.3 93.2,7.5 93.2,7.7 C93.2,7.9 93.4,8.1 93.6,8.1 Z M89.3,8.1 C89.5,8.1 89.7,7.9 89.7,7.7 C89.7,7.5 89.5,7.3 89.3,7.3 C89.1,7.3 88.9,7.5 88.9,7.7 C88.9,7.9 89.1,8.1 89.3,8.1 Z M85.1,8.1 C85.3,8.1 85.5,7.9 85.5,7.7 C85.5,7.5 85.3,7.3 85.1,7.3 C84.9,7.3 84.7,7.5 84.7,7.7 C84.6,7.9 84.8,8.1 85.1,8.1 Z" fill="#000000"></path>
            <path d="M85.1,25.1 C85.3,25.1 85.5,24.9 85.5,24.7 C85.5,24.5 85.3,24.3 85.1,24.3 C84.9,24.3 84.7,24.5 84.7,24.7 C84.6,24.9 84.8,25.1 85.1,25.1 Z M80.8,25.1 C81,25.1 81.2,24.9 81.2,24.7 C81.2,24.5 81,24.3 80.8,24.3 C80.6,24.3 80.4,24.5 80.4,24.7 C80.4,24.9 80.6,25.1 80.8,25.1 Z M76.6,25.1 C76.8,25.1 77,24.9 77,24.7 C77,24.5 76.8,24.3 76.6,24.3 C76.4,24.3 76.2,24.5 76.2,24.7 C76.1,24.9 76.3,25.1 76.6,25.1 Z M72.3,25.1 C72.5,25.1 72.7,24.9 72.7,24.7 C72.7,24.5 72.5,24.3 72.3,24.3 C72.1,24.3 71.9,24.5 71.9,24.7 C71.9,24.9 72.1,25.1 72.3,25.1 Z M68.1,25.1 C68.3,25.1 68.5,24.9 68.5,24.7 C68.5,24.5 68.3,24.3 68.1,24.3 C67.9,24.3 67.7,24.5 67.7,24.7 C67.6,24.9 67.8,25.1 68.1,25.1 Z M63.8,25.1 C64,25.1 64.2,24.9 64.2,24.7 C64.2,24.5 64,24.3 63.8,24.3 C63.6,24.3 63.4,24.5 63.4,24.7 C63.3,24.9 63.5,25.1 63.8,25.1 Z M59.5,25.1 C59.7,25.1 59.9,24.9 59.9,24.7 C59.9,24.5 59.7,24.3 59.5,24.3 C59.3,24.3 59.1,24.5 59.1,24.7 C59.1,24.9 59.3,25.1 59.5,25.1 Z M55.3,25.1 C55.5,25.1 55.7,24.9 55.7,24.7 C55.7,24.5 55.5,24.3 55.3,24.3 C55.1,24.3 54.9,24.5 54.9,24.7 C54.8,24.9 55,25.1 55.3,25.1 Z M51,25.1 C51.2,25.1 51.4,24.9 51.4,24.7 C51.4,24.5 51.2,24.3 51,24.3 C50.8,24.3 50.6,24.5 50.6,24.7 C50.6,24.9 50.8,25.1 51,25.1 Z M46.8,25.1 C47,25.1 47.2,24.9 47.2,24.7 C47.2,24.5 47,24.3 46.8,24.3 C46.6,24.3 46.4,24.5 46.4,24.7 C46.3,24.9 46.5,25.1 46.8,25.1 Z M42.5,25.1 C42.7,25.1 42.9,24.9 42.9,24.7 C42.9,24.5 42.7,24.3 42.5,24.3 C42.3,24.3 42.1,24.5 42.1,24.7 C42.1,24.9 42.3,25.1 42.5,25.1 Z M38.2,25.1 C38.4,25.1 38.6,24.9 38.6,24.7 C38.6,24.5 38.4,24.3 38.2,24.3 C38,24.3 37.8,24.5 37.8,24.7 C37.8,24.9 38,25.1 38.2,25.1 Z M34,25.1 C34.2,25.1 34.4,24.9 34.4,24.7 C34.4,24.5 34.2,24.3 34,24.3 C33.8,24.3 33.6,24.5 33.6,24.7 C33.5,24.9 33.7,25.1 34,25.1 Z M83,22.9 C83.2,22.9 83.4,22.7 83.4,22.5 C83.4,22.3 83.2,22.1 83,22.1 C82.8,22.1 82.6,22.3 82.6,22.5 C82.5,22.7 82.7,22.9 83,22.9 Z M78.7,22.9 C78.9,22.9 79.1,22.7 79.1,22.5 C79.1,22.3 78.9,22.1 78.7,22.1 C78.5,22.1 78.3,22.3 78.3,22.5 C78.3,22.7 78.5,22.9 78.7,22.9 Z M74.5,22.9 C74.7,22.9 74.9,22.7 74.9,22.5 C74.9,22.3 74.7,22.1 74.5,22.1 C74.3,22.1 74.1,22.3 74.1,22.5 C74,22.7 74.2,22.9 74.5,22.9 Z M70.2,22.9 C70.4,22.9 70.6,22.7 70.6,22.5 C70.6,22.3 70.4,22.1 70.2,22.1 C70,22.1 69.8,22.3 69.8,22.5 C69.8,22.7 70,22.9 70.2,22.9 Z M66,22 C65.8,22 65.6,22.2 65.6,22.4 C65.6,22.6 65.8,22.8 66,22.8 C66.2,22.8 66.4,22.6 66.4,22.4 C66.4,22.2 66.2,22 66,22 Z M61.7,22 C61.5,22 61.3,22.2 61.3,22.4 C61.3,22.6 61.5,22.8 61.7,22.8 C61.9,22.8 62.1,22.6 62.1,22.4 C62.1,22.2 61.9,22 61.7,22 Z M57.4,22.9 C57.6,22.9 57.8,22.7 57.8,22.5 C57.8,22.3 57.6,22.1 57.4,22.1 C57.2,22.1 57,22.3 57,22.5 C57,22.7 57.2,22.9 57.4,22.9 Z M53.2,22.9 C53.4,22.9 53.6,22.7 53.6,22.5 C53.6,22.3 53.4,22.1 53.2,22.1 C53,22.1 52.8,22.3 52.8,22.5 C52.7,22.7 52.9,22.9 53.2,22.9 Z M48.9,22.9 C49.1,22.9 49.3,22.7 49.3,22.5 C49.3,22.3 49.1,22.1 48.9,22.1 C48.7,22.1 48.5,22.3 48.5,22.5 C48.5,22.7 48.7,22.9 48.9,22.9 Z M44.7,22.9 C44.9,22.9 45.1,22.7 45.1,22.5 C45.1,22.3 44.9,22.1 44.7,22.1 C44.5,22.1 44.3,22.3 44.3,22.5 C44.2,22.7 44.4,22.9 44.7,22.9 Z M40.4,22.9 C40.6,22.9 40.8,22.7 40.8,22.5 C40.8,22.3 40.6,22.1 40.4,22.1 C40.2,22.1 40,22.3 40,22.5 C40,22.7 40.2,22.9 40.4,22.9 Z M36.1,22.9 C36.3,22.9 36.5,22.7 36.5,22.5 C36.5,22.3 36.3,22.1 36.1,22.1 C35.9,22.1 35.7,22.3 35.7,22.5 C35.7,22.7 35.9,22.9 36.1,22.9 Z M31.9,22.9 C32.1,22.9 32.3,22.7 32.3,22.5 C32.3,22.3 32.1,22.1 31.9,22.1 C31.7,22.1 31.5,22.3 31.5,22.5 C31.4,22.7 31.6,22.9 31.9,22.9 Z M85.1,20.9 C85.3,20.9 85.5,20.7 85.5,20.5 C85.5,20.3 85.3,20.1 85.1,20.1 C84.9,20.1 84.7,20.3 84.7,20.5 C84.6,20.7 84.8,20.9 85.1,20.9 Z M80.8,20.9 C81,20.9 81.2,20.7 81.2,20.5 C81.2,20.3 81,20.1 80.8,20.1 C80.6,20.1 80.4,20.3 80.4,20.5 C80.4,20.7 80.6,20.9 80.8,20.9 Z M76.6,20.9 C76.8,20.9 77,20.7 77,20.5 C77,20.3 76.8,20.1 76.6,20.1 C76.4,20.1 76.2,20.3 76.2,20.5 C76.1,20.7 76.3,20.9 76.6,20.9 Z M72.3,20.9 C72.5,20.9 72.7,20.7 72.7,20.5 C72.7,20.3 72.5,20.1 72.3,20.1 C72.1,20.1 71.9,20.3 71.9,20.5 C71.9,20.7 72.1,20.9 72.3,20.9 Z M68.1,20.9 C68.3,20.9 68.5,20.7 68.5,20.5 C68.5,20.3 68.3,20.1 68.1,20.1 C67.9,20.1 67.7,20.3 67.7,20.5 C67.6,20.7 67.8,20.9 68.1,20.9 Z M63.8,20.9 C64,20.9 64.2,20.7 64.2,20.5 C64.2,20.3 64,20.1 63.8,20.1 C63.6,20.1 63.4,20.3 63.4,20.5 C63.3,20.7 63.5,20.9 63.8,20.9 Z M59.5,20.9 C59.7,20.9 59.9,20.7 59.9,20.5 C59.9,20.3 59.7,20.1 59.5,20.1 C59.3,20.1 59.1,20.3 59.1,20.5 C59.1,20.7 59.3,20.9 59.5,20.9 Z M55.3,20.9 C55.5,20.9 55.7,20.7 55.7,20.5 C55.7,20.3 55.5,20.1 55.3,20.1 C55.1,20.1 54.9,20.3 54.9,20.5 C54.8,20.7 55,20.9 55.3,20.9 Z M51,20.9 C51.2,20.9 51.4,20.7 51.4,20.5 C51.4,20.3 51.2,20.1 51,20.1 C50.8,20.1 50.6,20.3 50.6,20.5 C50.6,20.7 50.8,20.9 51,20.9 Z M46.8,20.9 C47,20.9 47.2,20.7 47.2,20.5 C47.2,20.3 47,20.1 46.8,20.1 C46.6,20.1 46.4,20.3 46.4,20.5 C46.3,20.7 46.5,20.9 46.8,20.9 Z M42.5,20.9 C42.7,20.9 42.9,20.7 42.9,20.5 C42.9,20.3 42.7,20.1 42.5,20.1 C42.3,20.1 42.1,20.3 42.1,20.5 C42.1,20.7 42.3,20.9 42.5,20.9 Z M38.2,20.9 C38.4,20.9 38.6,20.7 38.6,20.5 C38.6,20.3 38.4,20.1 38.2,20.1 C38,20.1 37.8,20.3 37.8,20.5 C37.8,20.7 38,20.9 38.2,20.9 Z M34,20.9 C34.2,20.9 34.4,20.7 34.4,20.5 C34.4,20.3 34.2,20.1 34,20.1 C33.8,20.1 33.6,20.3 33.6,20.5 C33.5,20.7 33.7,20.9 34,20.9 Z M83,18.8 C83.2,18.8 83.4,18.6 83.4,18.4 C83.4,18.2 83.2,18 83,18 C82.8,18 82.6,18.2 82.6,18.4 C82.5,18.6 82.7,18.8 83,18.8 Z M78.7,18.8 C78.9,18.8 79.1,18.6 79.1,18.4 C79.1,18.2 78.9,18 78.7,18 C78.5,18 78.3,18.2 78.3,18.4 C78.3,18.6 78.5,18.8 78.7,18.8 Z M74.5,18.8 C74.7,18.8 74.9,18.6 74.9,18.4 C74.9,18.2 74.7,18 74.5,18 C74.3,18 74.1,18.2 74.1,18.4 C74,18.6 74.2,18.8 74.5,18.8 Z M70.2,18.8 C70.4,18.8 70.6,18.6 70.6,18.4 C70.6,18.2 70.4,18 70.2,18 C70,18 69.8,18.2 69.8,18.4 C69.8,18.6 70,18.8 70.2,18.8 Z M66,17.9 C65.8,17.9 65.6,18.1 65.6,18.3 C65.6,18.5 65.8,18.7 66,18.7 C66.2,18.7 66.4,18.5 66.4,18.3 C66.4,18.1 66.2,17.9 66,17.9 Z M61.7,17.9 C61.5,17.9 61.3,18.1 61.3,18.3 C61.3,18.5 61.5,18.7 61.7,18.7 C61.9,18.7 62.1,18.5 62.1,18.3 C62.1,18.1 61.9,17.9 61.7,17.9 Z M57.4,18.8 C57.6,18.8 57.8,18.6 57.8,18.4 C57.8,18.2 57.6,18 57.4,18 C57.2,18 57,18.2 57,18.4 C57,18.6 57.2,18.8 57.4,18.8 Z M53.2,18.8 C53.4,18.8 53.6,18.6 53.6,18.4 C53.6,18.2 53.4,18 53.2,18 C53,18 52.8,18.2 52.8,18.4 C52.7,18.6 52.9,18.8 53.2,18.8 Z M48.9,18.8 C49.1,18.8 49.3,18.6 49.3,18.4 C49.3,18.2 49.1,18 48.9,18 C48.7,18 48.5,18.2 48.5,18.4 C48.5,18.6 48.7,18.8 48.9,18.8 Z M44.7,18.8 C44.9,18.8 45.1,18.6 45.1,18.4 C45.1,18.2 44.9,18 44.7,18 C44.5,18 44.3,18.2 44.3,18.4 C44.2,18.6 44.4,18.8 44.7,18.8 Z M40.4,18.8 C40.6,18.8 40.8,18.6 40.8,18.4 C40.8,18.2 40.6,18 40.4,18 C40.2,18 40,18.2 40,18.4 C40,18.6 40.2,18.8 40.4,18.8 Z M36.1,18.8 C36.3,18.8 36.5,18.6 36.5,18.4 C36.5,18.2 36.3,18 36.1,18 C35.9,18 35.7,18.2 35.7,18.4 C35.7,18.6 35.9,18.8 36.1,18.8 Z M31.9,18.8 C32.1,18.8 32.3,18.6 32.3,18.4 C32.3,18.2 32.1,18 31.9,18 C31.7,18 31.5,18.2 31.5,18.4 C31.4,18.6 31.6,18.8 31.9,18.8 Z M85.1,16.6 C85.3,16.6 85.5,16.4 85.5,16.2 C85.5,16 85.3,15.8 85.1,15.8 C84.9,15.8 84.7,16 84.7,16.2 C84.6,16.4 84.8,16.6 85.1,16.6 Z M80.8,16.6 C81,16.6 81.2,16.4 81.2,16.2 C81.2,16 81,15.8 80.8,15.8 C80.6,15.8 80.4,16 80.4,16.2 C80.4,16.4 80.6,16.6 80.8,16.6 Z M76.6,16.6 C76.8,16.6 77,16.4 77,16.2 C77,16 76.8,15.8 76.6,15.8 C76.4,15.8 76.2,16 76.2,16.2 C76.1,16.4 76.3,16.6 76.6,16.6 Z M72.3,16.6 C72.5,16.6 72.7,16.4 72.7,16.2 C72.7,16 72.5,15.8 72.3,15.8 C72.1,15.8 71.9,16 71.9,16.2 C71.9,16.4 72.1,16.6 72.3,16.6 Z M68.1,16.6 C68.3,16.6 68.5,16.4 68.5,16.2 C68.5,16 68.3,15.8 68.1,15.8 C67.9,15.8 67.7,16 67.7,16.2 C67.6,16.4 67.8,16.6 68.1,16.6 Z M63.8,16.6 C64,16.6 64.2,16.4 64.2,16.2 C64.2,16 64,15.8 63.8,15.8 C63.6,15.8 63.4,16 63.4,16.2 C63.3,16.4 63.5,16.6 63.8,16.6 Z M59.5,16.6 C59.7,16.6 59.9,16.4 59.9,16.2 C59.9,16 59.7,15.8 59.5,15.8 C59.3,15.8 59.1,16 59.1,16.2 C59.1,16.4 59.3,16.6 59.5,16.6 Z M55.3,16.6 C55.5,16.6 55.7,16.4 55.7,16.2 C55.7,16 55.5,15.8 55.3,15.8 C55.1,15.8 54.9,16 54.9,16.2 C54.8,16.4 55,16.6 55.3,16.6 Z M51,16.6 C51.2,16.6 51.4,16.4 51.4,16.2 C51.4,16 51.2,15.8 51,15.8 C50.8,15.8 50.6,16 50.6,16.2 C50.6,16.4 50.8,16.6 51,16.6 Z M46.8,16.6 C47,16.6 47.2,16.4 47.2,16.2 C47.2,16 47,15.8 46.8,15.8 C46.6,15.8 46.4,16 46.4,16.2 C46.3,16.4 46.5,16.6 46.8,16.6 Z M42.5,16.6 C42.7,16.6 42.9,16.4 42.9,16.2 C42.9,16 42.7,15.8 42.5,15.8 C42.3,15.8 42.1,16 42.1,16.2 C42.1,16.4 42.3,16.6 42.5,16.6 Z M38.2,16.6 C38.4,16.6 38.6,16.4 38.6,16.2 C38.6,16 38.4,15.8 38.2,15.8 C38,15.8 37.8,16 37.8,16.2 C37.8,16.4 38,16.6 38.2,16.6 Z M34,16.6 C34.2,16.6 34.4,16.4 34.4,16.2 C34.4,16 34.2,15.8 34,15.8 C33.8,15.8 33.6,16 33.6,16.2 C33.5,16.4 33.7,16.6 34,16.6 Z M83,14.5 C83.2,14.5 83.4,14.3 83.4,14.1 C83.4,13.9 83.2,13.7 83,13.7 C82.8,13.7 82.6,13.9 82.6,14.1 C82.5,14.3 82.7,14.5 83,14.5 Z M78.7,14.5 C78.9,14.5 79.1,14.3 79.1,14.1 C79.1,13.9 78.9,13.7 78.7,13.7 C78.5,13.7 78.3,13.9 78.3,14.1 C78.3,14.3 78.5,14.5 78.7,14.5 Z M74.5,14.5 C74.7,14.5 74.9,14.3 74.9,14.1 C74.9,13.9 74.7,13.7 74.5,13.7 C74.3,13.7 74.1,13.9 74.1,14.1 C74,14.3 74.2,14.5 74.5,14.5 Z M70.2,14.5 C70.4,14.5 70.6,14.3 70.6,14.1 C70.6,13.9 70.4,13.7 70.2,13.7 C70,13.7 69.8,13.9 69.8,14.1 C69.8,14.3 70,14.5 70.2,14.5 Z M66,13.6 C65.8,13.6 65.6,13.8 65.6,14 C65.6,14.2 65.8,14.4 66,14.4 C66.2,14.4 66.4,14.2 66.4,14 C66.4,13.8 66.2,13.6 66,13.6 Z M61.7,13.6 C61.5,13.6 61.3,13.8 61.3,14 C61.3,14.2 61.5,14.4 61.7,14.4 C61.9,14.4 62.1,14.2 62.1,14 C62.1,13.8 61.9,13.6 61.7,13.6 Z M57.4,14.5 C57.6,14.5 57.8,14.3 57.8,14.1 C57.8,13.9 57.6,13.7 57.4,13.7 C57.2,13.7 57,13.8 57,14 C57,14.3 57.2,14.5 57.4,14.5 Z M53.2,14.5 C53.4,14.5 53.6,14.3 53.6,14.1 C53.6,13.9 53.4,13.7 53.2,13.7 C53,13.7 52.8,13.9 52.8,14.1 C52.7,14.3 52.9,14.5 53.2,14.5 Z M48.9,14.5 C49.1,14.5 49.3,14.3 49.3,14.1 C49.3,13.9 49.1,13.7 48.9,13.7 C48.7,13.7 48.5,13.9 48.5,14.1 C48.5,14.3 48.7,14.5 48.9,14.5 Z M44.7,14.5 C44.9,14.5 45.1,14.3 45.1,14.1 C45.1,13.9 44.9,13.7 44.7,13.7 C44.5,13.7 44.3,13.9 44.3,14.1 C44.2,14.3 44.4,14.5 44.7,14.5 Z M40.4,14.5 C40.6,14.5 40.8,14.3 40.8,14.1 C40.8,13.9 40.6,13.7 40.4,13.7 C40.2,13.7 40,13.9 40,14.1 C40,14.3 40.2,14.5 40.4,14.5 Z M36.1,14.5 C36.3,14.5 36.5,14.3 36.5,14.1 C36.5,13.9 36.3,13.7 36.1,13.7 C35.9,13.7 35.7,13.9 35.7,14.1 C35.7,14.3 35.9,14.5 36.1,14.5 Z M31.9,14.5 C32.1,14.5 32.3,14.3 32.3,14.1 C32.3,13.9 32.1,13.7 31.9,13.7 C31.7,13.7 31.5,13.9 31.5,14.1 C31.4,14.3 31.6,14.5 31.9,14.5 Z M85.1,12.5 C85.3,12.5 85.5,12.3 85.5,12.1 C85.5,11.9 85.3,11.7 85.1,11.7 C84.9,11.7 84.7,11.9 84.7,12.1 C84.6,12.3 84.8,12.5 85.1,12.5 Z M80.8,12.5 C81,12.5 81.2,12.3 81.2,12.1 C81.2,11.9 81,11.7 80.8,11.7 C80.6,11.7 80.4,11.9 80.4,12.1 C80.4,12.3 80.6,12.5 80.8,12.5 Z M76.6,12.5 C76.8,12.5 77,12.3 77,12.1 C77,11.9 76.8,11.7 76.6,11.7 C76.4,11.7 76.2,11.9 76.2,12.1 C76.1,12.3 76.3,12.5 76.6,12.5 Z M72.3,12.5 C72.5,12.5 72.7,12.3 72.7,12.1 C72.7,11.9 72.5,11.7 72.3,11.7 C72.1,11.7 71.9,11.9 71.9,12.1 C71.9,12.3 72.1,12.5 72.3,12.5 Z M68.1,12.5 C68.3,12.5 68.5,12.3 68.5,12.1 C68.5,11.9 68.3,11.7 68.1,11.7 C67.9,11.7 67.7,11.9 67.7,12.1 C67.6,12.3 67.8,12.5 68.1,12.5 Z M63.8,12.5 C64,12.5 64.2,12.3 64.2,12.1 C64.2,11.9 64,11.7 63.8,11.7 C63.6,11.7 63.4,11.9 63.4,12.1 C63.3,12.3 63.5,12.5 63.8,12.5 Z M59.5,12.5 C59.7,12.5 59.9,12.3 59.9,12.1 C59.9,11.9 59.7,11.7 59.5,11.7 C59.3,11.7 59.1,11.9 59.1,12.1 C59.1,12.3 59.3,12.5 59.5,12.5 Z M55.3,12.5 C55.5,12.5 55.7,12.3 55.7,12.1 C55.7,11.9 55.5,11.7 55.3,11.7 C55.1,11.7 54.9,11.9 54.9,12.1 C54.8,12.3 55,12.5 55.3,12.5 Z M51,12.5 C51.2,12.5 51.4,12.3 51.4,12.1 C51.4,11.9 51.2,11.7 51,11.7 C50.8,11.7 50.6,11.9 50.6,12.1 C50.6,12.3 50.8,12.5 51,12.5 Z M46.8,12.5 C47,12.5 47.2,12.3 47.2,12.1 C47.2,11.9 47,11.7 46.8,11.7 C46.6,11.7 46.4,11.9 46.4,12.1 C46.3,12.3 46.5,12.5 46.8,12.5 Z M42.5,12.5 C42.7,12.5 42.9,12.3 42.9,12.1 C42.9,11.9 42.7,11.7 42.5,11.7 C42.3,11.7 42.1,11.9 42.1,12.1 C42.1,12.3 42.3,12.5 42.5,12.5 Z M38.2,12.5 C38.4,12.5 38.6,12.3 38.6,12.1 C38.6,11.9 38.4,11.7 38.2,11.7 C38,11.7 37.8,11.9 37.8,12.1 C37.8,12.3 38,12.5 38.2,12.5 Z M34,12.5 C34.2,12.5 34.4,12.3 34.4,12.1 C34.4,11.9 34.2,11.7 34,11.7 C33.8,11.7 33.6,11.9 33.6,12.1 C33.5,12.3 33.7,12.5 34,12.5 Z M83,10.3 C83.2,10.3 83.4,10.1 83.4,9.9 C83.4,9.7 83.2,9.5 83,9.5 C82.8,9.5 82.6,9.7 82.6,9.9 C82.5,10.1 82.7,10.3 83,10.3 Z M78.7,10.3 C78.9,10.3 79.1,10.1 79.1,9.9 C79.1,9.7 78.9,9.5 78.7,9.5 C78.5,9.5 78.3,9.7 78.3,9.9 C78.3,10.1 78.5,10.3 78.7,10.3 Z M74.5,10.3 C74.7,10.3 74.9,10.1 74.9,9.9 C74.9,9.7 74.7,9.5 74.5,9.5 C74.3,9.5 74.1,9.7 74.1,9.9 C74,10.1 74.2,10.3 74.5,10.3 Z M70.2,10.3 C70.4,10.3 70.6,10.1 70.6,9.9 C70.6,9.7 70.4,9.5 70.2,9.5 C70,9.5 69.8,9.7 69.8,9.9 C69.8,10.1 70,10.3 70.2,10.3 Z M66,9.4 C65.8,9.4 65.6,9.6 65.6,9.8 C65.6,10 65.8,10.2 66,10.2 C66.2,10.2 66.4,10 66.4,9.8 C66.4,9.6 66.2,9.4 66,9.4 Z M61.7,9.4 C61.5,9.4 61.3,9.6 61.3,9.8 C61.3,10 61.5,10.2 61.7,10.2 C61.9,10.2 62.1,10 62.1,9.8 C62.1,9.6 61.9,9.4 61.7,9.4 Z M57.4,10.3 C57.6,10.3 57.8,10.1 57.8,9.9 C57.8,9.7 57.6,9.5 57.4,9.5 C57.2,9.5 57,9.7 57,9.9 C57,10.1 57.2,10.3 57.4,10.3 Z M53.2,10.3 C53.4,10.3 53.6,10.1 53.6,9.9 C53.6,9.7 53.4,9.5 53.2,9.5 C53,9.5 52.8,9.7 52.8,9.9 C52.7,10.1 52.9,10.3 53.2,10.3 Z M48.9,10.3 C49.1,10.3 49.3,10.1 49.3,9.9 C49.3,9.7 49.1,9.5 48.9,9.5 C48.7,9.5 48.5,9.7 48.5,9.9 C48.5,10.1 48.7,10.3 48.9,10.3 Z M44.7,10.3 C44.9,10.3 45.1,10.1 45.1,9.9 C45.1,9.7 44.9,9.5 44.7,9.5 C44.5,9.5 44.3,9.7 44.3,9.9 C44.2,10.1 44.4,10.3 44.7,10.3 Z M40.4,10.3 C40.6,10.3 40.8,10.1 40.8,9.9 C40.8,9.7 40.6,9.5 40.4,9.5 C40.2,9.5 40,9.7 40,9.9 C40,10.1 40.2,10.3 40.4,10.3 Z M36.1,10.3 C36.3,10.3 36.5,10.1 36.5,9.9 C36.5,9.7 36.3,9.5 36.1,9.5 C35.9,9.5 35.7,9.7 35.7,9.9 C35.7,10.1 35.9,10.3 36.1,10.3 Z M31.9,10.3 C32.1,10.3 32.3,10.1 32.3,9.9 C32.3,9.7 32.1,9.5 31.9,9.5 C31.7,9.5 31.5,9.7 31.5,9.9 C31.4,10.1 31.6,10.3 31.9,10.3 Z M85.1,8.2 C85.3,8.2 85.5,8 85.5,7.8 C85.5,7.6 85.3,7.4 85.1,7.4 C84.9,7.4 84.7,7.6 84.7,7.8 C84.6,8 84.8,8.2 85.1,8.2 Z M80.8,8.2 C81,8.2 81.2,8 81.2,7.8 C81.2,7.6 81,7.4 80.8,7.4 C80.6,7.4 80.4,7.6 80.4,7.8 C80.4,8 80.6,8.2 80.8,8.2 Z M76.6,8.2 C76.8,8.2 77,8 77,7.8 C77,7.6 76.8,7.4 76.6,7.4 C76.4,7.4 76.2,7.6 76.2,7.8 C76.1,8 76.3,8.2 76.6,8.2 Z M72.3,8.2 C72.5,8.2 72.7,8 72.7,7.8 C72.7,7.6 72.5,7.4 72.3,7.4 C72.1,7.4 71.9,7.6 71.9,7.8 C71.9,8 72.1,8.2 72.3,8.2 Z M68.1,8.2 C68.3,8.2 68.5,8 68.5,7.8 C68.5,7.6 68.3,7.4 68.1,7.4 C67.9,7.4 67.7,7.6 67.7,7.8 C67.6,8 67.8,8.2 68.1,8.2 Z M63.8,8.2 C64,8.2 64.2,8 64.2,7.8 C64.2,7.6 64,7.4 63.8,7.4 C63.6,7.4 63.4,7.6 63.4,7.8 C63.3,8 63.5,8.2 63.8,8.2 Z M59.5,8.2 C59.7,8.2 59.9,8 59.9,7.8 C59.9,7.6 59.7,7.4 59.5,7.4 C59.3,7.4 59.1,7.6 59.1,7.8 C59.1,8 59.3,8.2 59.5,8.2 Z M55.3,8.2 C55.5,8.2 55.7,8 55.7,7.8 C55.7,7.6 55.5,7.4 55.3,7.4 C55.1,7.4 54.9,7.6 54.9,7.8 C54.8,8 55,8.2 55.3,8.2 Z M51,8.2 C51.2,8.2 51.4,8 51.4,7.8 C51.4,7.6 51.2,7.4 51,7.4 C50.8,7.4 50.6,7.6 50.6,7.8 C50.6,8 50.8,8.2 51,8.2 Z M46.8,8.2 C47,8.2 47.2,8 47.2,7.8 C47.2,7.6 47,7.4 46.8,7.4 C46.6,7.4 46.4,7.6 46.4,7.8 C46.3,8 46.5,8.2 46.8,8.2 Z M42.5,8.2 C42.7,8.2 42.9,8 42.9,7.8 C42.9,7.6 42.7,7.4 42.5,7.4 C42.3,7.4 42.1,7.6 42.1,7.8 C42.1,8 42.3,8.2 42.5,8.2 Z M38.2,8.2 C38.4,8.2 38.6,8 38.6,7.8 C38.6,7.6 38.4,7.4 38.2,7.4 C38,7.4 37.8,7.6 37.8,7.8 C37.8,8 38,8.2 38.2,8.2 Z M34,8.2 C34.2,8.2 34.4,8 34.4,7.8 C34.4,7.6 34.2,7.4 34,7.4 C33.8,7.4 33.6,7.6 33.6,7.8 C33.5,8 33.7,8.2 34,8.2 Z" fill="#000000"></path>
            <path d="M29.9,25 C30.1,25 30.3,24.8 30.3,24.6 C30.3,24.4 30.1,24.2 29.9,24.2 C29.7,24.2 29.5,24.4 29.5,24.6 C29.5,24.8 29.7,25 29.9,25 Z M25.7,25 C25.9,25 26.1,24.8 26.1,24.6 C26.1,24.4 25.9,24.2 25.7,24.2 C25.5,24.2 25.3,24.4 25.3,24.6 C25.2,24.8 25.4,25 25.7,25 Z M21.4,25 C21.6,25 21.8,24.8 21.8,24.6 C21.8,24.4 21.6,24.2 21.4,24.2 C21.2,24.2 21,24.4 21,24.6 C21,24.8 21.2,25 21.4,25 Z M17.2,25 C17.4,25 17.6,24.8 17.6,24.6 C17.6,24.4 17.4,24.2 17.2,24.2 C17,24.2 16.8,24.4 16.8,24.6 C16.7,24.8 16.9,25 17.2,25 Z M27.8,22.8 C28,22.8 28.2,22.6 28.2,22.4 C28.2,22.2 28,22 27.8,22 C27.6,22 27.4,22.2 27.4,22.4 C27.4,22.6 27.6,22.8 27.8,22.8 Z M23.6,22.8 C23.8,22.8 24,22.6 24,22.4 C24,22.2 23.8,22 23.6,22 C23.4,22 23.2,22.2 23.2,22.4 C23.1,22.6 23.3,22.8 23.6,22.8 Z M19.3,22.8 C19.5,22.8 19.7,22.6 19.7,22.4 C19.7,22.2 19.5,22 19.3,22 C19.1,22 18.9,22.2 18.9,22.4 C18.9,22.6 19.1,22.8 19.3,22.8 Z M15,22.8 C15.2,22.8 15.4,22.6 15.4,22.4 C15.4,22.2 15.2,22 15,22 C14.8,22 14.6,22.2 14.6,22.4 C14.6,22.6 14.8,22.8 15,22.8 Z M29.9,20.8 C30.1,20.8 30.3,20.6 30.3,20.4 C30.3,20.2 30.1,20 29.9,20 C29.7,20 29.5,20.2 29.5,20.4 C29.5,20.6 29.7,20.8 29.9,20.8 Z M25.7,20.8 C25.9,20.8 26.1,20.6 26.1,20.4 C26.1,20.2 25.9,20 25.7,20 C25.5,20 25.3,20.2 25.3,20.4 C25.2,20.6 25.4,20.8 25.7,20.8 Z M21.4,20.8 C21.6,20.8 21.8,20.6 21.8,20.4 C21.8,20.2 21.6,20 21.4,20 C21.2,20 21,20.2 21,20.4 C21,20.6 21.2,20.8 21.4,20.8 Z M17.2,20.8 C17.4,20.8 17.6,20.6 17.6,20.4 C17.6,20.2 17.4,20 17.2,20 C17,20 16.8,20.2 16.8,20.4 C16.7,20.6 16.9,20.8 17.2,20.8 Z M27.8,18.7 C28,18.7 28.2,18.5 28.2,18.3 C28.2,18.1 28,17.9 27.8,17.9 C27.6,17.9 27.4,18.1 27.4,18.3 C27.4,18.5 27.6,18.7 27.8,18.7 Z M23.6,18.7 C23.8,18.7 24,18.5 24,18.3 C24,18.1 23.8,17.9 23.6,17.9 C23.4,17.9 23.2,18.1 23.2,18.3 C23.1,18.5 23.3,18.7 23.6,18.7 Z M19.3,18.7 C19.5,18.7 19.7,18.5 19.7,18.3 C19.7,18.1 19.5,17.9 19.3,17.9 C19.1,17.9 18.9,18.1 18.9,18.3 C18.9,18.5 19.1,18.7 19.3,18.7 Z M15,18.7 C15.2,18.7 15.4,18.5 15.4,18.3 C15.4,18.1 15.2,17.9 15,17.9 C14.8,17.9 14.6,18.1 14.6,18.3 C14.6,18.5 14.8,18.7 15,18.7 Z M29.9,16.5 C30.1,16.5 30.3,16.3 30.3,16.1 C30.3,15.9 30.1,15.7 29.9,15.7 C29.7,15.7 29.5,15.9 29.5,16.1 C29.5,16.3 29.7,16.5 29.9,16.5 Z M25.7,16.5 C25.9,16.5 26.1,16.3 26.1,16.1 C26.1,15.9 25.9,15.7 25.7,15.7 C25.5,15.7 25.3,15.9 25.3,16.1 C25.2,16.3 25.4,16.5 25.7,16.5 Z M21.4,16.5 C21.6,16.5 21.8,16.3 21.8,16.1 C21.8,15.9 21.6,15.7 21.4,15.7 C21.2,15.7 21,15.9 21,16.1 C21,16.3 21.2,16.5 21.4,16.5 Z M17.2,16.5 C17.4,16.5 17.6,16.3 17.6,16.1 C17.6,15.9 17.4,15.7 17.2,15.7 C17,15.7 16.8,15.9 16.8,16.1 C16.7,16.3 16.9,16.5 17.2,16.5 Z M27.8,14.4 C28,14.4 28.2,14.2 28.2,14 C28.2,13.8 28,13.6 27.8,13.6 C27.6,13.6 27.4,13.8 27.4,14 C27.4,14.2 27.6,14.4 27.8,14.4 Z M23.6,14.4 C23.8,14.4 24,14.2 24,14 C24,13.8 23.8,13.6 23.6,13.6 C23.4,13.6 23.2,13.8 23.2,14 C23.1,14.2 23.3,14.4 23.6,14.4 Z M19.3,14.4 C19.5,14.4 19.7,14.2 19.7,14 C19.7,13.8 19.5,13.6 19.3,13.6 C19.1,13.6 18.9,13.8 18.9,14 C18.9,14.2 19.1,14.4 19.3,14.4 Z M15,14.4 C15.2,14.4 15.4,14.2 15.4,14 C15.4,13.8 15.2,13.6 15,13.6 C14.8,13.6 14.6,13.8 14.6,14 C14.6,14.2 14.8,14.4 15,14.4 Z M29.9,12.4 C30.1,12.4 30.3,12.2 30.3,12 C30.3,11.8 30.1,11.6 29.9,11.6 C29.7,11.6 29.5,11.8 29.5,12 C29.5,12.2 29.7,12.4 29.9,12.4 Z M25.7,12.4 C25.9,12.4 26.1,12.2 26.1,12 C26.1,11.8 25.9,11.6 25.7,11.6 C25.5,11.6 25.3,11.8 25.3,12 C25.2,12.2 25.4,12.4 25.7,12.4 Z M21.4,12.4 C21.6,12.4 21.8,12.2 21.8,12 C21.8,11.8 21.6,11.6 21.4,11.6 C21.2,11.6 21,11.8 21,12 C21,12.2 21.2,12.4 21.4,12.4 Z M17.2,12.4 C17.4,12.4 17.6,12.2 17.6,12 C17.6,11.8 17.4,11.6 17.2,11.6 C17,11.6 16.8,11.8 16.8,12 C16.7,12.2 16.9,12.4 17.2,12.4 Z M27.8,10.2 C28,10.2 28.2,10 28.2,9.8 C28.2,9.6 28,9.4 27.8,9.4 C27.6,9.4 27.4,9.6 27.4,9.8 C27.4,10 27.6,10.2 27.8,10.2 Z M23.6,10.2 C23.8,10.2 24,10 24,9.8 C24,9.6 23.8,9.4 23.6,9.4 C23.4,9.4 23.2,9.6 23.2,9.8 C23.1,10 23.3,10.2 23.6,10.2 Z M19.3,10.2 C19.5,10.2 19.7,10 19.7,9.8 C19.7,9.6 19.5,9.4 19.3,9.4 C19.1,9.4 18.9,9.6 18.9,9.8 C18.9,10 19.1,10.2 19.3,10.2 Z M15,10.2 C15.2,10.2 15.4,10 15.4,9.8 C15.4,9.6 15.2,9.4 15,9.4 C14.8,9.4 14.6,9.6 14.6,9.8 C14.6,10 14.8,10.2 15,10.2 Z M29.9,8.1 C30.1,8.1 30.3,7.9 30.3,7.7 C30.3,7.5 30.1,7.3 29.9,7.3 C29.7,7.3 29.5,7.5 29.5,7.7 C29.5,7.9 29.7,8.1 29.9,8.1 Z M25.7,8.1 C25.9,8.1 26.1,7.9 26.1,7.7 C26.1,7.5 25.9,7.3 25.7,7.3 C25.5,7.3 25.3,7.5 25.3,7.7 C25.2,7.9 25.4,8.1 25.7,8.1 Z M21.4,8.1 C21.6,8.1 21.8,7.9 21.8,7.7 C21.8,7.5 21.6,7.3 21.4,7.3 C21.2,7.3 21,7.5 21,7.7 C21,7.9 21.2,8.1 21.4,8.1 Z M17.2,8.1 C17.4,8.1 17.6,7.9 17.6,7.7 C17.6,7.5 17.4,7.3 17.2,7.3 C17,7.3 16.8,7.5 16.8,7.7 C16.7,7.9 16.9,8.1 17.2,8.1 Z" fill="#000000"></path>
            <polygon fill="#56F24B" points="41 27 0 27 0 7.2475359e-13 15.3 7.2475359e-13"></polygon>
        </g>
    </g>
</svg>