<?xml version="1.0" encoding="UTF-8"?>
<svg width="240px" height="137px" viewBox="0 0 240 137" version="1.1" xmlns="http://www.w3.org/2000/svg" xmlns:xlink="http://www.w3.org/1999/xlink">
    <title>tile-hover--variant-3</title>
    <g stroke="none" stroke-width="1" fill="none" fill-rule="evenodd">
        <g transform="translate(154.000000, 51.000000)" fill="#0026E6" fill-rule="nonzero">
            <path d="M84.8,25.7 C85,25.5 85,25.2 84.8,25.1 C84.6,24.9 84.3,24.9 84.2,25.1 C84,25.3 84,25.6 84.2,25.7 C84.3,25.9 84.6,25.9 84.8,25.7 Z M84.8,22.7 C85,22.5 85,22.2 84.8,22.1 C84.6,21.9 84.3,21.9 84.2,22.1 C84.1,22.3 84,22.6 84.2,22.7 C84.3,22.8 84.6,22.8 84.8,22.7 Z M81.8,25.7 C82,25.5 82,25.2 81.8,25.1 C81.6,24.9 81.3,24.9 81.2,25.1 C81,25.3 81,25.6 81.2,25.7 C81.3,25.8 81.6,25.8 81.8,25.7 Z M84.8,19.7 C85,19.5 85,19.2 84.8,19.1 C84.6,18.9 84.3,18.9 84.2,19.1 C84,19.3 84,19.6 84.2,19.7 C84.4,19.9 84.7,19.9 84.8,19.7 Z M81.8,22.7 C82,22.5 82,22.2 81.8,22.1 C81.6,21.9 81.3,21.9 81.2,22.1 C81,22.3 81,22.6 81.2,22.7 C81.4,22.9 81.6,22.9 81.8,22.7 Z M84.8,16.7 C85,16.5 85,16.2 84.8,16.1 C84.6,15.9 84.3,15.9 84.2,16.1 C84,16.3 84,16.6 84.2,16.7 C84.4,16.9 84.7,16.9 84.8,16.7 Z M81.8,19.7 C82,19.5 82,19.2 81.8,19.1 C81.6,18.9 81.3,18.9 81.2,19.1 C81.1,19.3 81,19.6 81.2,19.7 C81.4,19.9 81.7,19.9 81.8,19.7 Z M78.8,22.7 C79,22.5 79,22.2 78.8,22.1 C78.6,21.9 78.3,21.9 78.2,22.1 C78,22.3 78,22.6 78.2,22.7 C78.4,22.9 78.6,22.9 78.8,22.7 Z M84.8,13.7 C85,13.5 85,13.2 84.8,13.1 C84.6,12.9 84.3,12.9 84.2,13.1 C84,13.3 84,13.6 84.2,13.7 C84.4,13.9 84.6,13.9 84.8,13.7 Z M81.8,16.7 C82,16.5 82,16.2 81.8,16.1 C81.6,15.9 81.3,15.9 81.2,16.1 C81,16.3 81,16.6 81.2,16.7 C81.3,16.9 81.6,16.9 81.8,16.7 Z M78.8,19.7 C79,19.5 79,19.2 78.8,19.1 C78.6,18.9 78.3,18.9 78.2,19.1 C78,19.3 78,19.6 78.2,19.7 C78.3,19.9 78.6,19.9 78.8,19.7 Z M84.8,10.7 C85,10.5 85,10.2 84.8,10.1 C84.6,9.9 84.3,9.9 84.2,10.1 C84,10.3 84,10.6 84.2,10.7 C84.4,10.8 84.7,10.8 84.8,10.7 Z M81.8,13.7 C82,13.5 82,13.2 81.8,13.1 C81.6,12.9 81.3,12.9 81.2,13.1 C81,13.3 81,13.6 81.2,13.7 C81.4,13.8 81.6,13.8 81.8,13.7 Z M78.8,16.7 C79,16.5 79,16.2 78.8,16.1 C78.6,15.9 78.3,15.9 78.2,16.1 C78,16.3 78,16.6 78.2,16.7 C78.3,16.9 78.6,16.9 78.8,16.7 Z M75.8,19.7 C76,19.5 76,19.2 75.8,19.1 C75.6,18.9 75.3,18.9 75.2,19.1 C75.1,19.3 75,19.6 75.2,19.7 C75.3,19.9 75.6,19.9 75.8,19.7 Z M84.9,7.7 C85.1,7.5 85.1,7.2 84.9,7.1 C84.7,6.9 84.4,6.9 84.3,7.1 C84.1,7.3 84.1,7.6 84.3,7.7 C84.4,7.9 84.7,7.9 84.9,7.7 Z M81.9,10.8 C82.1,10.6 82.1,10.3 81.9,10.2 C81.7,10 81.4,10 81.3,10.2 C81.1,10.4 81.1,10.7 81.3,10.8 C81.4,10.9 81.7,10.9 81.9,10.8 Z M78.9,13.8 C79.1,13.6 79.1,13.3 78.9,13.2 C78.7,13 78.4,13 78.3,13.2 C78.1,13.4 78.1,13.7 78.3,13.8 C78.4,13.9 78.7,13.9 78.9,13.8 Z M75.9,16.8 C76.1,16.6 76.1,16.3 75.9,16.2 C75.7,16 75.4,16 75.3,16.2 C75.1,16.4 75.1,16.7 75.3,16.8 C75.4,16.9 75.7,16.9 75.9,16.8 Z M84.9,4.7 C85.1,4.5 85.1,4.2 84.9,4.1 C84.7,3.9 84.4,3.9 84.3,4.1 C84.1,4.3 84.1,4.6 84.3,4.7 C84.4,4.9 84.7,4.9 84.9,4.7 Z M81.9,7.7 C82.1,7.5 82.1,7.2 81.9,7.1 C81.7,6.9 81.4,6.9 81.3,7.1 C81.1,7.3 81.1,7.6 81.3,7.7 C81.4,7.9 81.7,7.9 81.9,7.7 Z M78.9,10.7 C79.1,10.5 79.1,10.2 78.9,10.1 C78.7,9.9 78.4,9.9 78.3,10.1 C78.1,10.3 78.1,10.6 78.3,10.7 C78.4,10.9 78.7,10.9 78.9,10.7 Z M75.9,13.7 C76.1,13.5 76.1,13.2 75.9,13.1 C75.7,12.9 75.4,12.9 75.3,13.1 C75.1,13.3 75.1,13.6 75.3,13.7 C75.4,13.9 75.7,13.9 75.9,13.7 Z M72.9,16.7 C73.1,16.5 73.1,16.2 72.9,16.1 C72.7,15.9 72.4,15.9 72.3,16.1 C72.2,16.3 72.1,16.6 72.3,16.7 C72.4,16.9 72.7,16.9 72.9,16.7 Z M84.9,1.7 C85.1,1.5 85.1,1.2 84.9,1.1 C84.7,0.9 84.4,0.9 84.3,1.1 C84.1,1.3 84.1,1.6 84.3,1.7 C84.4,1.9 84.7,1.9 84.9,1.7 Z M81.9,4.7 C82.1,4.5 82.1,4.2 81.9,4.1 C81.7,3.9 81.4,3.9 81.3,4.1 C81.1,4.3 81.1,4.6 81.3,4.7 C81.4,4.9 81.7,4.9 81.9,4.7 Z M78.8,7.7 C79,7.5 79,7.2 78.8,7.1 C78.6,6.9 78.3,6.9 78.2,7.1 C78,7.3 78,7.6 78.2,7.7 C78.4,7.9 78.7,7.9 78.8,7.7 Z M75.8,10.7 C76,10.5 76,10.2 75.8,10.1 C75.6,9.9 75.3,9.9 75.2,10.1 C75,10.3 75,10.6 75.2,10.7 C75.4,10.9 75.7,10.9 75.8,10.7 Z M72.8,13.7 C73,13.5 73,13.2 72.8,13.1 C72.6,12.9 72.3,12.9 72.2,13.1 C72,13.3 72,13.6 72.2,13.7 C72.4,13.9 72.7,13.9 72.8,13.7 Z"></path>
            <path d="M81.8,28.5 C82,28.3 82,28 81.8,27.9 C81.6,27.7 81.3,27.7 81.2,27.9 C81.1,28.1 81,28.4 81.2,28.5 C81.4,28.7 81.7,28.7 81.8,28.5 Z M78.8,31.5 C79,31.3 79,31 78.8,30.9 C78.6,30.7 78.3,30.7 78.2,30.9 C78,31.1 78,31.4 78.2,31.5 C78.4,31.7 78.6,31.7 78.8,31.5 Z M75.8,34.5 C76,34.3 76,34 75.8,33.9 C75.6,33.7 75.3,33.7 75.2,33.9 C75,34.1 75,34.4 75.2,34.5 C75.3,34.7 75.6,34.7 75.8,34.5 Z M72.8,37.5 C73,37.3 73,37 72.8,36.9 C72.6,36.7 72.3,36.7 72.2,36.9 C72,37.1 72,37.4 72.2,37.5 C72.3,37.7 72.6,37.7 72.8,37.5 Z M78.8,28.5 C79,28.3 79,28 78.8,27.9 C78.6,27.7 78.3,27.7 78.2,27.9 C78.1,28.1 78,28.4 78.2,28.5 C78.4,28.6 78.7,28.6 78.8,28.5 Z M75.8,31.5 C76,31.3 76,31 75.8,30.9 C75.6,30.7 75.3,30.7 75.2,30.9 C75,31.1 75,31.4 75.2,31.5 C75.4,31.7 75.6,31.7 75.8,31.5 Z M72.8,34.5 C73,34.3 73,34 72.8,33.9 C72.6,33.7 72.3,33.7 72.2,33.9 C72.1,34.1 72,34.4 72.2,34.5 C72.3,34.7 72.6,34.7 72.8,34.5 Z M69.8,37.5 C70,37.3 70,37 69.8,36.9 C69.6,36.7 69.3,36.7 69.2,36.9 C69,37.1 69,37.4 69.2,37.5 C69.3,37.7 69.6,37.7 69.8,37.5 Z M78.9,25.6 C79.1,25.4 79.1,25.1 78.9,25 C78.7,24.8 78.4,24.8 78.3,25 C78.2,25.2 78.1,25.5 78.3,25.6 C78.4,25.7 78.7,25.7 78.9,25.6 Z M75.9,28.6 C76.1,28.4 76.1,28.1 75.9,28 C75.7,27.8 75.4,27.8 75.3,28 C75.1,28.2 75.1,28.5 75.3,28.6 C75.4,28.7 75.7,28.7 75.9,28.6 Z M72.9,31.6 C73.1,31.4 73.1,31.1 72.9,31 C72.7,30.8 72.4,30.8 72.3,31 C72.1,31.2 72.1,31.5 72.3,31.6 C72.4,31.7 72.7,31.7 72.9,31.6 Z M69.8,34.6 C70,34.4 70,34.1 69.8,34 C69.6,33.8 69.3,33.8 69.2,34 C69,34.2 69,34.5 69.2,34.6 C69.4,34.8 69.7,34.8 69.8,34.6 Z M75.9,25.5 C76.1,25.3 76.1,25 75.9,24.9 C75.7,24.7 75.4,24.7 75.3,24.9 C75.1,25.1 75.1,25.4 75.3,25.5 C75.4,25.7 75.7,25.7 75.9,25.5 Z M72.9,28.5 C73.1,28.3 73.1,28 72.9,27.9 C72.7,27.7 72.4,27.7 72.3,27.9 C72.1,28.1 72.1,28.4 72.3,28.5 C72.4,28.7 72.7,28.7 72.9,28.5 Z M69.9,31.5 C70.1,31.3 70.1,31 69.9,30.9 C69.7,30.7 69.4,30.7 69.3,30.9 C69.2,31.1 69.1,31.4 69.3,31.5 C69.4,31.7 69.7,31.7 69.9,31.5 Z M66.8,34.6 C67,34.4 67,34.1 66.8,34 C66.6,33.8 66.3,33.8 66.2,34 C66,34.2 66,34.5 66.2,34.6 C66.4,34.7 66.7,34.7 66.8,34.6 Z M75.9,22.5 C76.1,22.3 76.1,22 75.9,21.9 C75.7,21.7 75.4,21.7 75.3,21.9 C75.1,22.1 75.1,22.4 75.3,22.5 C75.4,22.7 75.7,22.7 75.9,22.5 Z M72.8,25.5 C73,25.3 73,25 72.8,24.9 C72.6,24.7 72.3,24.7 72.2,24.9 C72.1,25.1 72,25.4 72.2,25.5 C72.4,25.7 72.7,25.7 72.8,25.5 Z M69.8,28.5 C70,28.3 70,28 69.8,27.9 C69.6,27.7 69.3,27.7 69.2,27.9 C69,28.1 69,28.4 69.2,28.5 C69.4,28.7 69.7,28.7 69.8,28.5 Z M66.8,31.6 C67,31.4 67,31.1 66.8,31 C66.6,30.8 66.3,30.8 66.2,31 C66,31.2 66,31.5 66.2,31.6 C66.4,31.7 66.6,31.7 66.8,31.6 Z M72.9,22.5 C73.1,22.3 73.1,22 72.9,21.9 C72.7,21.7 72.4,21.7 72.3,21.9 C72.1,22.1 72.1,22.4 72.3,22.5 C72.4,22.7 72.7,22.7 72.9,22.5 Z M69.8,25.5 C70,25.3 70,25 69.8,24.9 C69.6,24.7 69.3,24.7 69.2,24.9 C69,25.1 69,25.4 69.2,25.5 C69.4,25.7 69.7,25.7 69.8,25.5 Z M66.8,28.5 C67,28.3 67,28 66.8,27.9 C66.6,27.7 66.3,27.7 66.2,27.9 C66.1,28.1 66,28.4 66.2,28.5 C66.4,28.7 66.7,28.7 66.8,28.5 Z M63.8,31.5 C64,31.3 64,31 63.8,30.9 C63.6,30.7 63.3,30.7 63.2,30.9 C63,31.1 63,31.4 63.2,31.5 C63.4,31.7 63.6,31.7 63.8,31.5 Z M72.9,19.6 C73.1,19.4 73.1,19.1 72.9,19 C72.7,18.8 72.4,18.8 72.3,19 C72.1,19.2 72.1,19.5 72.3,19.6 C72.5,19.8 72.7,19.8 72.9,19.6 Z M69.9,22.6 C70.1,22.4 70.1,22.1 69.9,22 C69.7,21.8 69.4,21.8 69.3,22 C69.2,22.2 69.1,22.5 69.3,22.6 C69.4,22.8 69.7,22.8 69.9,22.6 Z M66.9,25.6 C67.1,25.4 67.1,25.1 66.9,25 C66.7,24.8 66.4,24.8 66.3,25 C66.1,25.2 66.1,25.5 66.3,25.6 C66.4,25.8 66.7,25.8 66.9,25.6 Z M63.9,28.6 C64.1,28.4 64.1,28.1 63.9,28 C63.7,27.8 63.4,27.8 63.3,28 C63.1,28.2 63.1,28.5 63.3,28.6 C63.4,28.8 63.7,28.8 63.9,28.6 Z M69.9,19.6 C70.1,19.4 70.1,19.1 69.9,19 C69.7,18.8 69.4,18.8 69.3,19 C69.1,19.2 69.1,19.5 69.3,19.6 C69.5,19.7 69.7,19.7 69.9,19.6 Z M66.9,22.6 C67.1,22.4 67.1,22.1 66.9,22 C66.7,21.8 66.4,21.8 66.3,22 C66.1,22.2 66.1,22.5 66.3,22.6 C66.4,22.7 66.7,22.7 66.9,22.6 Z M63.9,25.6 C64.1,25.4 64.1,25.1 63.9,25 C63.7,24.8 63.4,24.8 63.3,25 C63.1,25.2 63.1,25.5 63.3,25.6 C63.4,25.7 63.7,25.7 63.9,25.6 Z M60.9,28.6 C61.1,28.4 61.1,28.1 60.9,28 C60.7,27.8 60.4,27.8 60.3,28 C60.2,28.2 60.1,28.5 60.3,28.6 C60.4,28.8 60.7,28.8 60.9,28.6 Z M69.9,16.6 C70.1,16.4 70.1,16.1 69.9,16 C69.7,15.8 69.4,15.8 69.3,16 C69.2,16.2 69.1,16.5 69.3,16.6 C69.4,16.7 69.7,16.7 69.9,16.6 Z M66.9,19.6 C67.1,19.4 67.1,19.1 66.9,19 C66.7,18.8 66.4,18.8 66.3,19 C66.1,19.2 66.1,19.5 66.3,19.6 C66.4,19.7 66.7,19.7 66.9,19.6 Z M63.9,22.6 C64.1,22.4 64.1,22.1 63.9,22 C63.7,21.8 63.4,21.8 63.3,22 C63.1,22.2 63.1,22.5 63.3,22.6 C63.4,22.7 63.7,22.7 63.9,22.6 Z M60.9,25.6 C61.1,25.4 61.1,25.1 60.9,25 C60.7,24.8 60.4,24.8 60.3,25 C60.1,25.2 60.1,25.5 60.3,25.6 C60.4,25.8 60.7,25.8 60.9,25.6 Z"></path>
            <path d="M72.9,37.6 C73.1,37.4 73.1,37.1 72.9,37 C72.7,36.8 72.4,36.8 72.3,37 C72.1,37.2 72.1,37.5 72.3,37.6 C72.4,37.8 72.7,37.8 72.9,37.6 Z M69.9,40.6 C70.1,40.4 70.1,40.1 69.9,40 C69.7,39.8 69.4,39.8 69.3,40 C69.2,40.2 69.1,40.5 69.3,40.6 C69.4,40.8 69.7,40.8 69.9,40.6 Z M66.8,43.6 C67,43.4 67,43.1 66.8,43 C66.6,42.8 66.3,42.8 66.2,43 C66,43.2 66,43.5 66.2,43.6 C66.4,43.8 66.7,43.8 66.8,43.6 Z M63.8,46.6 C64,46.4 64,46.1 63.8,46 C63.6,45.8 63.3,45.8 63.2,46 C63,46.2 63,46.5 63.2,46.6 C63.4,46.8 63.7,46.8 63.8,46.6 Z M60.8,49.6 C61,49.4 61,49.1 60.8,49 C60.6,48.8 60.3,48.8 60.2,49 C60,49.2 60,49.5 60.2,49.6 C60.4,49.8 60.6,49.8 60.8,49.6 Z M57.8,52.7 C58,52.5 58,52.2 57.8,52.1 C57.6,51.9 57.3,51.9 57.2,52.1 C57,52.3 57,52.6 57.2,52.7 C57.4,52.8 57.6,52.8 57.8,52.7 Z M54.8,55.7 C55,55.5 55,55.2 54.8,55.1 C54.6,54.9 54.3,54.9 54.2,55.1 C54,55.3 54,55.6 54.2,55.7 C54.3,55.8 54.6,55.8 54.8,55.7 Z M51.8,58.7 C52,58.5 52,58.2 51.8,58.1 C51.6,57.9 51.3,57.9 51.2,58.1 C51,58.3 51,58.6 51.2,58.7 C51.3,58.8 51.6,58.8 51.8,58.7 Z M48.8,61.7 C49,61.5 49,61.2 48.8,61.1 C48.6,60.9 48.3,60.9 48.2,61.1 C48,61.3 48,61.6 48.2,61.7 C48.3,61.9 48.6,61.9 48.8,61.7 Z M45.8,64.7 C46,64.5 46,64.2 45.8,64.1 C45.6,63.9 45.3,63.9 45.2,64.1 C45.1,64.3 45,64.6 45.2,64.7 C45.3,64.9 45.6,64.9 45.8,64.7 Z M42.8,67.7 C43,67.5 43,67.2 42.8,67.1 C42.6,66.9 42.3,66.9 42.2,67.1 C42,67.3 42,67.6 42.2,67.7 C42.3,67.9 42.6,67.9 42.8,67.7 Z M39.7,70.7 C39.9,70.5 39.9,70.2 39.7,70.1 C39.5,69.9 39.2,69.9 39.1,70.1 C38.9,70.3 38.9,70.6 39.1,70.7 C39.3,70.9 39.6,70.9 39.7,70.7 Z M36.7,73.7 C36.9,73.5 36.9,73.2 36.7,73.1 C36.5,72.9 36.2,72.9 36.1,73.1 C35.9,73.3 35.9,73.6 36.1,73.7 C36.3,73.9 36.6,73.9 36.7,73.7 Z M69.9,37.6 C70.1,37.4 70.1,37.1 69.9,37 C69.7,36.8 69.4,36.8 69.3,37 C69.1,37.2 69.1,37.5 69.3,37.6 C69.4,37.7 69.7,37.7 69.9,37.6 Z M66.9,40.6 C67.1,40.4 67.1,40.1 66.9,40 C66.7,39.8 66.4,39.8 66.3,40 C66.1,40.2 66.1,40.5 66.3,40.6 C66.4,40.8 66.7,40.8 66.9,40.6 Z M63.8,43.6 C64,43.4 64,43.1 63.8,43 C63.6,42.8 63.3,42.8 63.2,43 C63,43.2 63,43.5 63.2,43.6 C63.4,43.8 63.7,43.8 63.8,43.6 Z M60.8,46.6 C61,46.4 61,46.1 60.8,46 C60.6,45.8 60.3,45.8 60.2,46 C60,46.2 60,46.5 60.2,46.6 C60.4,46.8 60.7,46.8 60.8,46.6 Z M57.2,49 C57,49.2 57,49.5 57.2,49.6 C57.4,49.8 57.7,49.8 57.8,49.6 C58,49.4 58,49.1 57.8,49 C57.6,48.8 57.4,48.8 57.2,49 Z M54.2,52 C54,52.2 54,52.5 54.2,52.6 C54.4,52.8 54.7,52.8 54.8,52.6 C54.9,52.4 55,52.1 54.8,52 C54.6,51.8 54.4,51.8 54.2,52 Z M51.8,55.6 C52,55.4 52,55.1 51.8,55 C51.6,54.8 51.3,54.8 51.2,55 C51,55.2 51,55.5 51.2,55.6 C51.3,55.8 51.6,55.8 51.8,55.6 Z M48.8,58.6 C49,58.4 49,58.1 48.8,58 C48.6,57.8 48.3,57.8 48.2,58 C48,58.2 48,58.5 48.2,58.6 C48.3,58.8 48.6,58.8 48.8,58.6 Z M45.8,61.7 C46,61.5 46,61.2 45.8,61.1 C45.6,60.9 45.3,60.9 45.2,61.1 C45,61.3 45,61.6 45.2,61.7 C45.3,61.8 45.6,61.8 45.8,61.7 Z M42.8,64.7 C43,64.5 43,64.2 42.8,64.1 C42.6,63.9 42.3,63.9 42.2,64.1 C42.1,64.3 42,64.6 42.2,64.7 C42.3,64.8 42.6,64.8 42.8,64.7 Z M39.8,67.7 C40,67.5 40,67.2 39.8,67.1 C39.6,66.9 39.3,66.9 39.2,67.1 C39,67.3 39,67.6 39.2,67.7 C39.3,67.9 39.6,67.9 39.8,67.7 Z M36.7,70.7 C36.9,70.5 36.9,70.2 36.7,70.1 C36.5,69.9 36.2,69.9 36.1,70.1 C36,70.3 35.9,70.6 36.1,70.7 C36.3,70.9 36.6,70.9 36.7,70.7 Z M33.7,73.7 C33.9,73.5 33.9,73.2 33.7,73.1 C33.5,72.9 33.2,72.9 33.1,73.1 C32.9,73.3 32.9,73.6 33.1,73.7 C33.3,73.9 33.6,73.9 33.7,73.7 Z M69.9,34.7 C70.1,34.5 70.1,34.2 69.9,34.1 C69.7,33.9 69.4,33.9 69.3,34.1 C69.1,34.3 69.1,34.6 69.3,34.7 C69.5,34.8 69.7,34.8 69.9,34.7 Z M66.9,37.7 C67.1,37.5 67.1,37.2 66.9,37.1 C66.7,36.9 66.4,36.9 66.3,37.1 C66.2,37.3 66.1,37.6 66.3,37.7 C66.4,37.8 66.7,37.8 66.9,37.7 Z M63.9,40.7 C64.1,40.5 64.1,40.2 63.9,40.1 C63.7,39.9 63.4,39.9 63.3,40.1 C63.1,40.3 63.1,40.6 63.3,40.7 C63.4,40.8 63.7,40.8 63.9,40.7 Z M60.9,43.7 C61.1,43.5 61.1,43.2 60.9,43.1 C60.7,42.9 60.4,42.9 60.3,43.1 C60.1,43.3 60.1,43.6 60.3,43.7 C60.4,43.9 60.7,43.9 60.9,43.7 Z M57.9,46.7 C58.1,46.5 58.1,46.2 57.9,46.1 C57.7,45.9 57.4,45.9 57.3,46.1 C57.1,46.3 57.1,46.6 57.3,46.7 C57.4,46.9 57.7,46.9 57.9,46.7 Z M54.9,49.7 C55.1,49.5 55.1,49.2 54.9,49.1 C54.7,48.9 54.4,48.9 54.3,49.1 C54.1,49.3 54.1,49.6 54.3,49.7 C54.4,49.9 54.7,49.9 54.9,49.7 Z M51.9,52.7 C52.1,52.5 52.1,52.2 51.9,52.1 C51.7,51.9 51.4,51.9 51.3,52.1 C51.1,52.3 51.1,52.6 51.3,52.7 C51.4,52.9 51.7,52.9 51.9,52.7 Z M48.8,55.7 C49,55.5 49,55.2 48.8,55.1 C48.6,54.9 48.3,54.9 48.2,55.1 C48,55.3 48,55.6 48.2,55.7 C48.4,55.9 48.7,55.9 48.8,55.7 Z M45.8,58.7 C46,58.5 46,58.2 45.8,58.1 C45.6,57.9 45.3,57.9 45.2,58.1 C45,58.3 45,58.6 45.2,58.7 C45.4,58.9 45.7,58.9 45.8,58.7 Z M42.8,61.7 C43,61.5 43,61.2 42.8,61.1 C42.6,60.9 42.3,60.9 42.2,61.1 C42.1,61.3 42,61.6 42.2,61.7 C42.4,61.9 42.6,61.9 42.8,61.7 Z M39.8,64.8 C40,64.6 40,64.3 39.8,64.2 C39.6,64 39.3,64 39.2,64.2 C39,64.4 39,64.7 39.2,64.8 C39.4,64.9 39.6,64.9 39.8,64.8 Z M36.8,67.8 C37,67.6 37,67.3 36.8,67.2 C36.6,67 36.3,67 36.2,67.2 C36,67.4 36,67.7 36.2,67.8 C36.3,67.9 36.6,67.9 36.8,67.8 Z M33.8,70.8 C34,70.6 34,70.3 33.8,70.2 C33.6,70 33.3,70 33.2,70.2 C33,70.4 33,70.7 33.2,70.8 C33.3,71 33.6,71 33.8,70.8 Z M66.9,34.6 C67.1,34.4 67.1,34.1 66.9,34 C66.7,33.8 66.4,33.8 66.3,34 C66.1,34.2 66.1,34.5 66.3,34.6 C66.5,34.8 66.7,34.8 66.9,34.6 Z M63.9,37.6 C64.1,37.4 64.1,37.1 63.9,37 C63.7,36.8 63.4,36.8 63.3,37 C63.1,37.2 63.1,37.5 63.3,37.6 C63.4,37.8 63.7,37.8 63.9,37.6 Z M60.9,40.6 C61.1,40.4 61.1,40.1 60.9,40 C60.7,39.8 60.4,39.8 60.3,40 C60.2,40.2 60.1,40.5 60.3,40.6 C60.4,40.8 60.7,40.8 60.9,40.6 Z M57.9,43.7 C58.1,43.5 58.1,43.2 57.9,43.1 C57.7,42.9 57.4,42.9 57.3,43.1 C57.1,43.3 57.1,43.6 57.3,43.7 C57.4,43.8 57.7,43.8 57.9,43.7 Z M54.2,46 C54,46.2 54,46.5 54.2,46.6 C54.4,46.8 54.7,46.8 54.8,46.6 C55,46.4 55,46.1 54.8,46 C54.7,45.9 54.4,45.9 54.2,46 Z M51.2,49 C51,49.2 51,49.5 51.2,49.6 C51.4,49.8 51.7,49.8 51.8,49.6 C51.9,49.4 52,49.1 51.8,49 C51.7,48.9 51.4,48.9 51.2,49 Z M48.9,52.7 C49.1,52.5 49.1,52.2 48.9,52.1 C48.7,51.9 48.4,51.9 48.3,52.1 C48.2,52.3 48.1,52.6 48.3,52.7 C48.4,52.9 48.7,52.9 48.9,52.7 Z M45.8,55.7 C46,55.5 46,55.2 45.8,55.1 C45.6,54.9 45.3,54.9 45.2,55.1 C45,55.3 45,55.6 45.2,55.7 C45.4,55.9 45.7,55.9 45.8,55.7 Z M42.8,58.7 C43,58.5 43,58.2 42.8,58.1 C42.6,57.9 42.3,57.9 42.2,58.1 C42,58.3 42,58.6 42.2,58.7 C42.4,58.9 42.7,58.9 42.8,58.7 Z M39.8,61.7 C40,61.5 40,61.2 39.8,61.1 C39.6,60.9 39.3,60.9 39.2,61.1 C39,61.3 39,61.6 39.2,61.7 C39.4,61.9 39.6,61.9 39.8,61.7 Z M36.8,64.7 C37,64.5 37,64.2 36.8,64.1 C36.6,63.9 36.3,63.9 36.2,64.1 C36,64.3 36,64.6 36.2,64.7 C36.3,64.9 36.6,64.9 36.8,64.7 Z M33.8,67.7 C34,67.5 34,67.2 33.8,67.1 C33.6,66.9 33.3,66.9 33.2,67.1 C33.1,67.3 33,67.6 33.2,67.7 C33.3,67.9 33.6,67.9 33.8,67.7 Z M30.8,70.8 C31,70.6 31,70.3 30.8,70.2 C30.6,70 30.3,70 30.2,70.2 C30,70.4 30,70.7 30.2,70.8 C30.3,70.9 30.6,70.9 30.8,70.8 Z M66.9,31.6 C67.1,31.4 67.1,31.1 66.9,31 C66.7,30.8 66.4,30.8 66.3,31 C66.1,31.2 66.1,31.5 66.3,31.6 C66.4,31.8 66.7,31.8 66.9,31.6 Z M63.9,34.6 C64.1,34.4 64.1,34.1 63.9,34 C63.7,33.8 63.4,33.8 63.3,34 C63.2,34.2 63.1,34.5 63.3,34.6 C63.4,34.8 63.7,34.8 63.9,34.6 Z M60.9,37.6 C61.1,37.4 61.1,37.1 60.9,37 C60.7,36.8 60.4,36.8 60.3,37 C60.1,37.2 60.1,37.5 60.3,37.6 C60.4,37.8 60.7,37.8 60.9,37.6 Z M57.9,40.7 C58.1,40.5 58.1,40.2 57.9,40.1 C57.7,39.9 57.4,39.9 57.3,40.1 C57.1,40.3 57.1,40.6 57.3,40.7 C57.4,40.8 57.7,40.8 57.9,40.7 Z M54.8,43.7 C55,43.5 55,43.2 54.8,43.1 C54.6,42.9 54.3,42.9 54.2,43.1 C54,43.3 54,43.6 54.2,43.7 C54.4,43.8 54.7,43.8 54.8,43.7 Z M51.8,46.7 C52,46.5 52,46.2 51.8,46.1 C51.6,45.9 51.3,45.9 51.2,46.1 C51,46.3 51,46.6 51.2,46.7 C51.4,46.9 51.7,46.9 51.8,46.7 Z M48.8,49.7 C49,49.5 49,49.2 48.8,49.1 C48.6,48.9 48.3,48.9 48.2,49.1 C48.1,49.3 48,49.6 48.2,49.7 C48.4,49.9 48.7,49.9 48.8,49.7 Z M45.8,52.7 C46,52.5 46,52.2 45.8,52.1 C45.6,51.9 45.3,51.9 45.2,52.1 C45.1,52.3 45,52.6 45.2,52.7 C45.4,52.9 45.6,52.9 45.8,52.7 Z M42.8,55.7 C43,55.5 43,55.2 42.8,55.1 C42.6,54.9 42.3,54.9 42.2,55.1 C42,55.3 42,55.6 42.2,55.7 C42.3,55.9 42.6,55.9 42.8,55.7 Z M39.8,58.7 C40,58.5 40,58.2 39.8,58.1 C39.6,57.9 39.3,57.9 39.2,58.1 C39,58.3 39,58.6 39.2,58.7 C39.3,58.9 39.6,58.9 39.8,58.7 Z M36.8,61.7 C37,61.5 37,61.2 36.8,61.1 C36.6,60.9 36.3,60.9 36.2,61.1 C36.1,61.3 36,61.6 36.2,61.7 C36.3,61.9 36.6,61.9 36.8,61.7 Z M33.8,64.7 C34,64.5 34,64.2 33.8,64.1 C33.6,63.9 33.3,63.9 33.2,64.1 C33,64.3 33,64.6 33.2,64.7 C33.3,64.9 33.6,64.9 33.8,64.7 Z M30.8,67.8 C31,67.6 31,67.3 30.8,67.2 C30.6,67 30.3,67 30.2,67.2 C30,67.4 30,67.7 30.2,67.8 C30.3,67.9 30.6,67.9 30.8,67.8 Z M63.9,31.6 C64.1,31.4 64.1,31.1 63.9,31 C63.7,30.8 63.4,30.8 63.3,31 C63.1,31.2 63.1,31.5 63.3,31.6 C63.4,31.8 63.7,31.8 63.9,31.6 Z M60.9,34.6 C61.1,34.4 61.1,34.1 60.9,34 C60.7,33.8 60.4,33.8 60.3,34 C60.1,34.2 60.1,34.5 60.3,34.6 C60.4,34.8 60.7,34.8 60.9,34.6 Z M57.9,37.6 C58.1,37.4 58.1,37.1 57.9,37 C57.7,36.8 57.4,36.8 57.3,37 C57.1,37.2 57.1,37.5 57.3,37.6 C57.4,37.8 57.7,37.8 57.9,37.6 Z M54.9,40.6 C55.1,40.4 55.1,40.1 54.9,40 C54.7,39.8 54.4,39.8 54.3,40 C54.1,40.2 54.1,40.5 54.3,40.6 C54.4,40.8 54.7,40.8 54.9,40.6 Z M51.2,43 C51,43.2 51,43.5 51.2,43.6 C51.4,43.8 51.7,43.8 51.8,43.6 C52,43.4 52,43.1 51.8,43 C51.7,42.8 51.4,42.8 51.2,43 Z M48.2,46 C48,46.2 48,46.5 48.2,46.6 C48.4,46.8 48.7,46.8 48.8,46.6 C49,46.4 49,46.1 48.8,46 C48.7,45.8 48.4,45.8 48.2,46 Z M45.8,49.7 C46,49.5 46,49.2 45.8,49.1 C45.6,48.9 45.3,48.9 45.2,49.1 C45,49.3 45,49.6 45.2,49.7 C45.4,49.8 45.7,49.8 45.8,49.7 Z M42.8,52.7 C43,52.5 43,52.2 42.8,52.1 C42.6,51.9 42.3,51.9 42.2,52.1 C42,52.3 42,52.6 42.2,52.7 C42.4,52.8 42.6,52.8 42.8,52.7 Z M39.8,55.7 C40,55.5 40,55.2 39.8,55.1 C39.6,54.9 39.3,54.9 39.2,55.1 C39.1,55.3 39,55.6 39.2,55.7 C39.3,55.9 39.6,55.9 39.8,55.7 Z M36.8,58.7 C37,58.5 37,58.2 36.8,58.1 C36.6,57.9 36.3,57.9 36.2,58.1 C36,58.3 36,58.6 36.2,58.7 C36.3,58.9 36.6,58.9 36.8,58.7 Z M33.8,61.7 C34,61.5 34,61.2 33.8,61.1 C33.6,60.9 33.3,60.9 33.2,61.1 C33,61.3 33,61.6 33.2,61.7 C33.3,61.9 33.6,61.9 33.8,61.7 Z M30.8,64.7 C31,64.5 31,64.2 30.8,64.1 C30.6,63.9 30.3,63.9 30.2,64.1 C30.1,64.3 30,64.6 30.2,64.7 C30.3,64.9 30.6,64.9 30.8,64.7 Z M27.8,67.7 C28,67.5 28,67.2 27.8,67.1 C27.6,66.9 27.3,66.9 27.2,67.1 C27,67.3 27,67.6 27.2,67.7 C27.3,67.9 27.6,67.9 27.8,67.7 Z M63.9,28.7 C64.1,28.5 64.1,28.2 63.9,28.1 C63.7,27.9 63.4,27.9 63.3,28.1 C63.2,28.3 63.1,28.6 63.3,28.7 C63.5,28.9 63.8,28.9 63.9,28.7 Z M60.9,31.7 C61.1,31.5 61.1,31.2 60.9,31.1 C60.7,30.9 60.4,30.9 60.3,31.1 C60.1,31.3 60.1,31.6 60.3,31.7 C60.5,31.9 60.8,31.9 60.9,31.7 Z M57.9,34.7 C58.1,34.5 58.1,34.2 57.9,34.1 C57.7,33.9 57.4,33.9 57.3,34.1 C57.1,34.3 57.1,34.6 57.3,34.7 C57.5,34.9 57.7,34.9 57.9,34.7 Z M54.9,37.7 C55.1,37.5 55.1,37.2 54.9,37.1 C54.7,36.9 54.4,36.9 54.3,37.1 C54.1,37.3 54.1,37.6 54.3,37.7 C54.5,37.9 54.7,37.9 54.9,37.7 Z M51.9,40.7 C52.1,40.5 52.1,40.2 51.9,40.1 C51.7,39.9 51.4,39.9 51.3,40.1 C51.2,40.3 51.1,40.6 51.3,40.7 C51.4,40.9 51.7,40.9 51.9,40.7 Z M48.9,43.7 C49.1,43.5 49.1,43.2 48.9,43.1 C48.7,42.9 48.4,42.9 48.3,43.1 C48.1,43.3 48.1,43.6 48.3,43.7 C48.4,43.9 48.7,43.9 48.9,43.7 Z M45.9,46.7 C46.1,46.5 46.1,46.2 45.9,46.1 C45.7,45.9 45.4,45.9 45.3,46.1 C45.1,46.3 45.1,46.6 45.3,46.7 C45.4,46.9 45.7,46.9 45.9,46.7 Z M42.9,49.8 C43.1,49.6 43.1,49.3 42.9,49.2 C42.7,49 42.4,49 42.3,49.2 C42.1,49.4 42.1,49.7 42.3,49.8 C42.4,49.9 42.7,49.9 42.9,49.8 Z M39.9,52.8 C40.1,52.6 40.1,52.3 39.9,52.2 C39.7,52 39.4,52 39.3,52.2 C39.1,52.4 39.1,52.7 39.3,52.8 C39.4,52.9 39.7,52.9 39.9,52.8 Z M36.8,55.8 C37,55.6 37,55.3 36.8,55.2 C36.6,55 36.3,55 36.2,55.2 C36,55.4 36,55.7 36.2,55.8 C36.4,56 36.7,56 36.8,55.8 Z M33.8,58.8 C34,58.6 34,58.3 33.8,58.2 C33.6,58 33.3,58 33.2,58.2 C33.1,58.4 33,58.7 33.2,58.8 C33.4,59 33.7,59 33.8,58.8 Z M30.8,61.8 C31,61.6 31,61.3 30.8,61.2 C30.6,61 30.3,61 30.2,61.2 C30,61.4 30,61.7 30.2,61.8 C30.4,62 30.7,62 30.8,61.8 Z M27.8,64.8 C28,64.6 28,64.3 27.8,64.2 C27.6,64 27.3,64 27.2,64.2 C27,64.4 27,64.7 27.2,64.8 C27.4,65 27.6,65 27.8,64.8 Z M60.9,28.7 C61.1,28.5 61.1,28.2 60.9,28.1 C60.7,27.9 60.4,27.9 60.3,28.1 C60.1,28.3 60.1,28.6 60.3,28.7 C60.5,28.8 60.8,28.8 60.9,28.7 Z M57.9,31.7 C58.1,31.5 58.1,31.2 57.9,31.1 C57.7,30.9 57.4,30.9 57.3,31.1 C57.1,31.3 57.1,31.6 57.3,31.7 C57.5,31.8 57.8,31.8 57.9,31.7 Z M54.9,34.7 C55.1,34.5 55.1,34.2 54.9,34.1 C54.7,33.9 54.4,33.9 54.3,34.1 C54.2,34.3 54.1,34.6 54.3,34.7 C54.5,34.8 54.7,34.8 54.9,34.7 Z M51.9,37.7 C52.1,37.5 52.1,37.2 51.9,37.1 C51.7,36.9 51.4,36.9 51.3,37.1 C51.1,37.3 51.1,37.6 51.3,37.7 C51.5,37.9 51.7,37.9 51.9,37.7 Z M48.3,40.1 C48.1,40.3 48.1,40.6 48.3,40.7 C48.5,40.9 48.8,40.9 48.9,40.7 C49.1,40.5 49.1,40.2 48.9,40.1 C48.7,39.9 48.4,39.9 48.3,40.1 Z M45.3,43.1 C45.1,43.3 45.1,43.6 45.3,43.7 C45.5,43.9 45.8,43.9 45.9,43.7 C46,43.5 46.1,43.2 45.9,43.1 C45.7,42.9 45.4,42.9 45.3,43.1 Z M42.9,46.7 C43.1,46.5 43.1,46.2 42.9,46.1 C42.7,45.9 42.4,45.9 42.3,46.1 C42.2,46.3 42.1,46.6 42.3,46.7 C42.4,46.9 42.7,46.9 42.9,46.7 Z M39.9,49.7 C40.1,49.5 40.1,49.2 39.9,49.1 C39.7,48.9 39.4,48.9 39.3,49.1 C39.1,49.3 39.1,49.6 39.3,49.7 C39.4,49.9 39.7,49.9 39.9,49.7 Z M36.9,52.7 C37.1,52.5 37.1,52.2 36.9,52.1 C36.7,51.9 36.4,51.9 36.3,52.1 C36.2,52.3 36.1,52.6 36.3,52.7 C36.4,52.9 36.7,52.9 36.9,52.7 Z M33.8,55.7 C34,55.5 34,55.2 33.8,55.1 C33.6,54.9 33.3,54.9 33.2,55.1 C33,55.3 33,55.6 33.2,55.7 C33.4,55.9 33.7,55.9 33.8,55.7 Z M30.8,58.8 C31,58.6 31,58.3 30.8,58.2 C30.6,58 30.3,58 30.2,58.2 C30,58.4 30,58.7 30.2,58.8 C30.4,58.9 30.7,58.9 30.8,58.8 Z M27.8,61.8 C28,61.6 28,61.3 27.8,61.2 C27.6,61 27.3,61 27.2,61.2 C27,61.4 27,61.7 27.2,61.8 C27.4,61.9 27.7,61.9 27.8,61.8 Z M24.8,64.8 C25,64.6 25,64.3 24.8,64.2 C24.6,64 24.3,64 24.2,64.2 C24.1,64.4 24,64.7 24.2,64.8 C24.4,65 24.6,65 24.8,64.8 Z M60.9,25.7 C61.1,25.5 61.1,25.2 60.9,25.1 C60.7,24.9 60.4,24.9 60.3,25.1 C60.1,25.3 60.1,25.6 60.3,25.7 C60.5,25.8 60.7,25.8 60.9,25.7 Z M57.9,28.7 C58.1,28.5 58.1,28.2 57.9,28.1 C57.7,27.9 57.4,27.9 57.3,28.1 C57.2,28.3 57.1,28.6 57.3,28.7 C57.4,28.8 57.7,28.8 57.9,28.7 Z M54.9,31.7 C55.1,31.5 55.1,31.2 54.9,31.1 C54.7,30.9 54.4,30.9 54.3,31.1 C54.1,31.3 54.1,31.6 54.3,31.7 C54.4,31.8 54.7,31.8 54.9,31.7 Z M51.9,34.7 C52.1,34.5 52.1,34.2 51.9,34.1 C51.7,33.9 51.4,33.9 51.3,34.1 C51.1,34.3 51.1,34.6 51.3,34.7 C51.4,34.9 51.7,34.9 51.9,34.7 Z M48.9,37.7 C49.1,37.5 49.1,37.2 48.9,37.1 C48.7,36.9 48.4,36.9 48.3,37.1 C48.1,37.3 48.1,37.6 48.3,37.7 C48.4,37.9 48.7,37.9 48.9,37.7 Z M45.9,40.7 C46.1,40.5 46.1,40.2 45.9,40.1 C45.7,39.9 45.4,39.9 45.3,40.1 C45.1,40.3 45.1,40.6 45.3,40.7 C45.4,40.9 45.7,40.9 45.9,40.7 Z M42.9,43.7 C43.1,43.5 43.1,43.2 42.9,43.1 C42.7,42.9 42.4,42.9 42.3,43.1 C42.1,43.3 42.1,43.6 42.3,43.7 C42.4,43.9 42.7,43.9 42.9,43.7 Z M39.8,46.7 C40,46.5 40,46.2 39.8,46.1 C39.6,45.9 39.3,45.9 39.2,46.1 C39,46.3 39,46.6 39.2,46.7 C39.4,46.9 39.7,46.9 39.8,46.7 Z M36.8,49.7 C37,49.5 37,49.2 36.8,49.1 C36.6,48.9 36.3,48.9 36.2,49.1 C36,49.3 36,49.6 36.2,49.7 C36.4,49.9 36.7,49.9 36.8,49.7 Z M33.8,52.7 C34,52.5 34,52.2 33.8,52.1 C33.6,51.9 33.3,51.9 33.2,52.1 C33.1,52.3 33,52.6 33.2,52.7 C33.4,52.9 33.6,52.9 33.8,52.7 Z M30.8,55.8 C31,55.6 31,55.3 30.8,55.2 C30.6,55 30.3,55 30.2,55.2 C30,55.4 30,55.7 30.2,55.8 C30.4,55.9 30.6,55.9 30.8,55.8 Z M27.8,58.8 C28,58.6 28,58.3 27.8,58.2 C27.6,58 27.3,58 27.2,58.2 C27,58.4 27,58.7 27.2,58.8 C27.3,58.9 27.6,58.9 27.8,58.8 Z M24.8,61.8 C25,61.6 25,61.3 24.8,61.2 C24.6,61 24.3,61 24.2,61.2 C24,61.4 24,61.7 24.2,61.8 C24.3,62 24.6,62 24.8,61.8 Z"></path>
            <path d="M33.8,76.5 C34,76.3 34,76 33.8,75.9 C33.6,75.7 33.3,75.7 33.2,75.9 C33.1,76.1 33,76.4 33.2,76.5 C33.3,76.7 33.6,76.7 33.8,76.5 Z M30.8,79.5 C31,79.3 31,79 30.8,78.9 C30.6,78.7 30.3,78.7 30.2,78.9 C30,79.1 30,79.4 30.2,79.5 C30.3,79.7 30.6,79.7 30.8,79.5 Z M27.8,82.6 C28,82.4 28,82.1 27.8,82 C27.6,81.8 27.3,81.8 27.2,82 C27,82.2 27,82.5 27.2,82.6 C27.3,82.7 27.6,82.7 27.8,82.6 Z M24.8,85.6 C25,85.4 25,85.1 24.8,85 C24.6,84.8 24.3,84.8 24.2,85 C24,85.2 24,85.5 24.2,85.6 C24.3,85.7 24.6,85.7 24.8,85.6 Z M30.8,76.5 C31,76.3 31,76 30.8,75.9 C30.6,75.7 30.3,75.7 30.2,75.9 C30.1,76.1 30,76.4 30.2,76.5 C30.3,76.7 30.6,76.7 30.8,76.5 Z M27.8,79.5 C28,79.3 28,79 27.8,78.9 C27.6,78.7 27.3,78.7 27.2,78.9 C27,79.1 27,79.4 27.2,79.5 C27.3,79.7 27.6,79.7 27.8,79.5 Z M24.8,82.5 C25,82.3 25,82 24.8,81.9 C24.6,81.7 24.3,81.7 24.2,81.9 C24.1,82.1 24,82.4 24.2,82.5 C24.3,82.7 24.6,82.7 24.8,82.5 Z M21.8,85.5 C22,85.3 22,85 21.8,84.9 C21.6,84.7 21.3,84.7 21.2,84.9 C21.1,85.1 21,85.4 21.2,85.5 C21.3,85.7 21.6,85.7 21.8,85.5 Z M30.8,73.6 C31,73.4 31,73.1 30.8,73 C30.6,72.8 30.3,72.8 30.2,73 C30.1,73.2 30,73.5 30.2,73.6 C30.4,73.8 30.7,73.8 30.8,73.6 Z M27.8,76.6 C28,76.4 28,76.1 27.8,76 C27.6,75.8 27.3,75.8 27.2,76 C27.1,76.2 27,76.5 27.2,76.6 C27.4,76.8 27.7,76.8 27.8,76.6 Z M24.8,79.6 C25,79.4 25,79.1 24.8,79 C24.6,78.8 24.3,78.8 24.2,79 C24,79.2 24,79.5 24.2,79.6 C24.4,79.8 24.6,79.8 24.8,79.6 Z M21.8,82.6 C22,82.4 22,82.1 21.8,82 C21.6,81.8 21.3,81.8 21.2,82 C21,82.2 21,82.5 21.2,82.6 C21.4,82.8 21.6,82.8 21.8,82.6 Z M27.8,73.6 C28,73.4 28,73.1 27.8,73 C27.6,72.8 27.3,72.8 27.2,73 C27,73.2 27,73.5 27.2,73.6 C27.4,73.7 27.7,73.7 27.8,73.6 Z M24.8,76.6 C25,76.4 25,76.1 24.8,76 C24.6,75.8 24.3,75.8 24.2,76 C24,76.2 24,76.5 24.2,76.6 C24.4,76.7 24.7,76.7 24.8,76.6 Z M21.8,79.6 C22,79.4 22,79.1 21.8,79 C21.6,78.8 21.3,78.8 21.2,79 C21,79.2 21,79.5 21.2,79.6 C21.4,79.8 21.6,79.8 21.8,79.6 Z M18.8,82.6 C19,82.4 19,82.1 18.8,82 C18.6,81.8 18.3,81.8 18.2,82 C18,82.2 18,82.5 18.2,82.6 C18.4,82.8 18.6,82.8 18.8,82.6 Z M27.8,70.6 C28,70.4 28,70.1 27.8,70 C27.6,69.8 27.3,69.8 27.2,70 C27.1,70.2 27,70.5 27.2,70.6 C27.4,70.7 27.6,70.7 27.8,70.6 Z M24.8,73.6 C25,73.4 25,73.1 24.8,73 C24.6,72.8 24.3,72.8 24.2,73 C24,73.2 24,73.5 24.2,73.6 C24.4,73.7 24.6,73.7 24.8,73.6 Z M21.8,76.6 C22,76.4 22,76.1 21.8,76 C21.6,75.8 21.3,75.8 21.2,76 C21,76.2 21,76.5 21.2,76.6 C21.3,76.8 21.6,76.8 21.8,76.6 Z M18.8,79.6 C19,79.4 19,79.1 18.8,79 C18.6,78.8 18.3,78.8 18.2,79 C18,79.2 18,79.5 18.2,79.6 C18.3,79.8 18.6,79.8 18.8,79.6 Z M24.8,70.5 C25,70.3 25,70 24.8,69.9 C24.6,69.7 24.3,69.7 24.2,69.9 C24,70.1 24,70.4 24.2,70.5 C24.4,70.7 24.6,70.7 24.8,70.5 Z M21.8,73.5 C22,73.3 22,73 21.8,72.9 C21.6,72.7 21.3,72.7 21.2,72.9 C21,73.1 21,73.4 21.2,73.5 C21.4,73.7 21.6,73.7 21.8,73.5 Z M18.8,76.6 C19,76.4 19,76.1 18.8,76 C18.6,75.8 18.3,75.8 18.2,76 C18.1,76.2 18,76.5 18.2,76.6 C18.3,76.7 18.6,76.7 18.8,76.6 Z M15.8,79.6 C16,79.4 16,79.1 15.8,79 C15.6,78.8 15.3,78.8 15.2,79 C15,79.2 15,79.5 15.2,79.6 C15.3,79.7 15.6,79.7 15.8,79.6 Z M24.9,67.6 C25.1,67.4 25.1,67.1 24.9,67 C24.7,66.8 24.4,66.8 24.3,67 C24.1,67.2 24.1,67.5 24.3,67.6 C24.4,67.8 24.7,67.8 24.9,67.6 Z M21.9,70.6 C22.1,70.4 22.1,70.1 21.9,70 C21.7,69.8 21.4,69.8 21.3,70 C21.2,70.2 21.1,70.5 21.3,70.6 C21.4,70.8 21.7,70.8 21.9,70.6 Z M18.9,73.6 C19.1,73.4 19.1,73.1 18.9,73 C18.7,72.8 18.4,72.8 18.3,73 C18.1,73.2 18.1,73.5 18.3,73.6 C18.4,73.8 18.7,73.8 18.9,73.6 Z M15.8,76.6 C16,76.4 16,76.1 15.8,76 C15.6,75.8 15.3,75.8 15.2,76 C15,76.2 15,76.5 15.2,76.6 C15.4,76.8 15.7,76.8 15.8,76.6 Z M21.9,67.6 C22.1,67.4 22.1,67.1 21.9,67 C21.7,66.8 21.4,66.8 21.3,67 C21.1,67.2 21.1,67.5 21.3,67.6 C21.4,67.8 21.7,67.8 21.9,67.6 Z M18.9,70.6 C19.1,70.4 19.1,70.1 18.9,70 C18.7,69.8 18.4,69.8 18.3,70 C18.1,70.2 18.1,70.5 18.3,70.6 C18.4,70.8 18.7,70.8 18.9,70.6 Z M15.9,73.6 C16.1,73.4 16.1,73.1 15.9,73 C15.7,72.8 15.4,72.8 15.3,73 C15.1,73.2 15.1,73.5 15.3,73.6 C15.4,73.8 15.7,73.8 15.9,73.6 Z M12.8,76.6 C13,76.4 13,76.1 12.8,76 C12.6,75.8 12.3,75.8 12.2,76 C12.1,76.2 12,76.5 12.2,76.6 C12.4,76.8 12.7,76.8 12.8,76.6 Z M21.8,64.6 C22,64.4 22,64.1 21.8,64 C21.6,63.8 21.3,63.8 21.2,64 C21.1,64.2 21,64.5 21.2,64.6 C21.4,64.8 21.7,64.8 21.8,64.6 Z M18.8,67.6 C19,67.4 19,67.1 18.8,67 C18.6,66.8 18.3,66.8 18.2,67 C18,67.2 18,67.5 18.2,67.6 C18.4,67.8 18.7,67.8 18.8,67.6 Z M15.8,70.6 C16,70.4 16,70.1 15.8,70 C15.6,69.8 15.3,69.8 15.2,70 C15,70.2 15,70.5 15.2,70.6 C15.4,70.8 15.7,70.8 15.8,70.6 Z M12.8,73.6 C13,73.4 13,73.1 12.8,73 C12.6,72.8 12.3,72.8 12.2,73 C12,73.2 12,73.5 12.2,73.6 C12.4,73.8 12.6,73.8 12.8,73.6 Z"></path>
            <path d="M24.8,85.6 C25,85.4 25,85.1 24.8,85 C24.6,84.8 24.3,84.8 24.2,85 C24.1,85.2 24,85.5 24.2,85.6 C24.3,85.7 24.6,85.7 24.8,85.6 Z M21.8,85.5 C22,85.3 22,85 21.8,84.9 C21.6,84.7 21.3,84.7 21.2,84.9 C21,85.1 21,85.4 21.2,85.5 C21.3,85.7 21.6,85.7 21.8,85.5 Z M21.8,82.6 C22,82.4 22,82.1 21.8,82 C21.6,81.8 21.3,81.8 21.2,82 C21.1,82.2 21,82.5 21.2,82.6 C21.4,82.8 21.7,82.8 21.8,82.6 Z M18.8,85.6 C19,85.4 19,85.1 18.8,85 C18.6,84.8 18.3,84.8 18.2,85 C18.1,85.2 18,85.5 18.2,85.6 C18.4,85.8 18.7,85.8 18.8,85.6 Z M18.8,82.6 C19,82.4 19,82.1 18.8,82 C18.6,81.8 18.3,81.8 18.2,82 C18,82.2 18,82.5 18.2,82.6 C18.4,82.8 18.7,82.8 18.8,82.6 Z M15.8,85.6 C16,85.4 16,85.1 15.8,85 C15.6,84.8 15.3,84.8 15.2,85 C15,85.2 15,85.5 15.2,85.6 C15.4,85.8 15.7,85.8 15.8,85.6 Z M18.8,79.6 C19,79.4 19,79.1 18.8,79 C18.6,78.8 18.3,78.8 18.2,79 C18.1,79.2 18,79.5 18.2,79.6 C18.4,79.8 18.6,79.8 18.8,79.6 Z M15.8,82.6 C16,82.4 16,82.1 15.8,82 C15.6,81.8 15.3,81.8 15.2,82 C15.1,82.2 15,82.5 15.2,82.6 C15.3,82.8 15.6,82.8 15.8,82.6 Z M12.8,85.6 C13,85.4 13,85.1 12.8,85 C12.6,84.8 12.3,84.8 12.2,85 C12,85.2 12,85.5 12.2,85.6 C12.3,85.8 12.6,85.8 12.8,85.6 Z M15.8,79.6 C16,79.4 16,79.1 15.8,79 C15.6,78.8 15.3,78.8 15.2,79 C15,79.2 15,79.5 15.2,79.6 C15.4,79.7 15.6,79.7 15.8,79.6 Z M12.8,82.6 C13,82.4 13,82.1 12.8,82 C12.6,81.8 12.3,81.8 12.2,82 C12,82.2 12,82.5 12.2,82.6 C12.3,82.8 12.6,82.8 12.8,82.6 Z M9.8,85.6 C10,85.4 10,85.1 9.8,85 C9.6,84.8 9.3,84.8 9.2,85 C9,85.2 9,85.5 9.2,85.6 C9.3,85.8 9.6,85.8 9.8,85.6 Z M15.9,76.7 C16.1,76.5 16.1,76.2 15.9,76.1 C15.7,75.9 15.4,75.9 15.3,76.1 C15.1,76.3 15.1,76.6 15.3,76.7 C15.4,76.8 15.7,76.8 15.9,76.7 Z M12.9,79.7 C13.1,79.5 13.1,79.2 12.9,79.1 C12.7,78.9 12.4,78.9 12.3,79.1 C12.2,79.3 12.1,79.6 12.3,79.7 C12.4,79.8 12.7,79.8 12.9,79.7 Z M9.8,82.7 C10,82.5 10,82.2 9.8,82.1 C9.6,81.9 9.3,81.9 9.2,82.1 C9,82.3 9,82.6 9.2,82.7 C9.4,82.8 9.7,82.8 9.8,82.7 Z M6.8,85.7 C7,85.5 7,85.2 6.8,85.1 C6.6,84.9 6.3,84.9 6.2,85.1 C6.1,85.3 6,85.6 6.2,85.7 C6.4,85.9 6.7,85.9 6.8,85.7 Z M12.9,76.6 C13.1,76.4 13.1,76.1 12.9,76 C12.7,75.8 12.4,75.8 12.3,76 C12.1,76.2 12.1,76.5 12.3,76.6 C12.4,76.8 12.7,76.8 12.9,76.6 Z M9.9,79.6 C10.1,79.4 10.1,79.1 9.9,79 C9.7,78.8 9.4,78.8 9.3,79 C9.1,79.2 9.1,79.5 9.3,79.6 C9.4,79.8 9.7,79.8 9.9,79.6 Z M6.8,82.6 C7,82.4 7,82.1 6.8,82 C6.6,81.8 6.3,81.8 6.2,82 C6.1,82.2 6,82.5 6.2,82.6 C6.4,82.8 6.7,82.8 6.8,82.6 Z M3.8,85.7 C4,85.5 4,85.2 3.8,85.1 C3.6,84.9 3.3,84.9 3.2,85.1 C3,85.3 3,85.6 3.2,85.7 C3.4,85.8 3.7,85.8 3.8,85.7 Z M12.8,73.6 C13,73.4 13,73.1 12.8,73 C12.6,72.8 12.3,72.8 12.2,73 C12.1,73.2 12,73.5 12.2,73.6 C12.4,73.8 12.7,73.8 12.8,73.6 Z M9.8,76.6 C10,76.4 10,76.1 9.8,76 C9.6,75.8 9.3,75.8 9.2,76 C9,76.2 9,76.5 9.2,76.6 C9.4,76.8 9.7,76.8 9.8,76.6 Z M6.8,79.6 C7,79.4 7,79.1 6.8,79 C6.6,78.8 6.3,78.8 6.2,79 C6,79.2 6,79.5 6.2,79.6 C6.4,79.8 6.6,79.8 6.8,79.6 Z M3.8,82.7 C4,82.5 4,82.2 3.8,82.1 C3.6,81.9 3.3,81.9 3.2,82.1 C3.1,82.3 3,82.6 3.2,82.7 C3.4,82.8 3.6,82.8 3.8,82.7 Z M0.8,85.7 C1,85.5 1,85.2 0.8,85.1 C0.6,84.9 0.3,84.9 0.2,85.1 C0.1,85.3 2.87825319e-14,85.6 0.2,85.7 C0.3,85.8 0.6,85.8 0.8,85.7 Z"></path>
            <path d="M84.9,28.8 C85.1,28.6 85.1,28.3 84.9,28.2 C84.7,28 84.4,28 84.3,28.2 C84.2,28.4 84.1,28.7 84.3,28.8 C84.4,28.9 84.7,28.9 84.9,28.8 Z M84.8,25.8 C85,25.6 85,25.3 84.8,25.2 C84.6,25 84.3,25 84.2,25.2 C84,25.4 84,25.7 84.2,25.8 C84.4,25.9 84.7,25.9 84.8,25.8 Z"></path>
            <path d="M84.8,49.5 C85,49.3 85,49 84.8,48.9 C84.6,48.7 84.3,48.7 84.2,48.9 C84,49.1 84,49.4 84.2,49.5 C84.3,49.7 84.6,49.7 84.8,49.5 Z M84.8,46.5 C85,46.3 85,46 84.8,45.9 C84.6,45.7 84.3,45.7 84.2,45.9 C84.1,46.1 84,46.4 84.2,46.5 C84.4,46.7 84.6,46.7 84.8,46.5 Z M81.8,49.5 C82,49.3 82,49 81.8,48.9 C81.6,48.7 81.3,48.7 81.2,48.9 C81,49.1 81,49.4 81.2,49.5 C81.3,49.7 81.6,49.7 81.8,49.5 Z M84.9,43.6 C85.1,43.4 85.1,43.1 84.9,43 C84.7,42.8 84.4,42.8 84.3,43 C84.1,43.2 84.1,43.5 84.3,43.6 C84.4,43.8 84.7,43.8 84.9,43.6 Z M81.9,46.6 C82.1,46.4 82.1,46.1 81.9,46 C81.7,45.8 81.4,45.8 81.3,46 C81.1,46.2 81.1,46.5 81.3,46.6 C81.4,46.8 81.7,46.8 81.9,46.6 Z M84.9,40.5 C85.1,40.3 85.1,40 84.9,39.9 C84.7,39.7 84.4,39.7 84.3,39.9 C84.1,40.1 84.1,40.4 84.3,40.5 C84.4,40.7 84.7,40.7 84.9,40.5 Z M81.9,43.6 C82.1,43.4 82.1,43.1 81.9,43 C81.7,42.8 81.4,42.8 81.3,43 C81.2,43.2 81.1,43.5 81.3,43.6 C81.4,43.7 81.7,43.7 81.9,43.6 Z M78.9,46.6 C79.1,46.4 79.1,46.1 78.9,46 C78.7,45.8 78.4,45.8 78.3,46 C78.1,46.2 78.1,46.5 78.3,46.6 C78.4,46.7 78.7,46.7 78.9,46.6 Z M84.9,37.5 C85.1,37.3 85.1,37 84.9,36.9 C84.7,36.7 84.4,36.7 84.3,36.9 C84.1,37.1 84.1,37.4 84.3,37.5 C84.4,37.7 84.7,37.7 84.9,37.5 Z M81.8,40.6 C82,40.4 82,40.1 81.8,40 C81.6,39.8 81.3,39.8 81.2,40 C81,40.2 81,40.5 81.2,40.6 C81.4,40.7 81.7,40.7 81.8,40.6 Z M78.8,43.6 C79,43.4 79,43.1 78.8,43 C78.6,42.8 78.3,42.8 78.2,43 C78,43.2 78,43.5 78.2,43.6 C78.4,43.7 78.7,43.7 78.8,43.6 Z M84.9,34.5 C85.1,34.3 85.1,34 84.9,33.9 C84.7,33.7 84.4,33.7 84.3,33.9 C84.1,34.1 84.1,34.4 84.3,34.5 C84.4,34.7 84.7,34.7 84.9,34.5 Z M81.9,37.5 C82.1,37.3 82.1,37 81.9,36.9 C81.7,36.7 81.4,36.7 81.3,36.9 C81.1,37.1 81.1,37.4 81.3,37.5 C81.4,37.7 81.7,37.7 81.9,37.5 Z M78.8,40.5 C79,40.3 79,40 78.8,39.9 C78.6,39.7 78.3,39.7 78.2,39.9 C78.1,40.1 78,40.4 78.2,40.5 C78.4,40.7 78.7,40.7 78.8,40.5 Z M75.8,43.5 C76,43.3 76,43 75.8,42.9 C75.6,42.7 75.3,42.7 75.2,42.9 C75,43.1 75,43.4 75.2,43.5 C75.4,43.7 75.7,43.7 75.8,43.5 Z M84.9,31.6 C85.1,31.4 85.1,31.1 84.9,31 C84.7,30.8 84.4,30.8 84.3,31 C84.1,31.2 84.1,31.5 84.3,31.6 C84.5,31.8 84.7,31.8 84.9,31.6 Z M81.9,34.6 C82.1,34.4 82.1,34.1 81.9,34 C81.7,33.8 81.4,33.8 81.3,34 C81.2,34.2 81.1,34.5 81.3,34.6 C81.5,34.8 81.7,34.8 81.9,34.6 Z M78.9,37.6 C79.1,37.4 79.1,37.1 78.9,37 C78.7,36.8 78.4,36.8 78.3,37 C78.1,37.2 78.1,37.5 78.3,37.6 C78.4,37.8 78.7,37.8 78.9,37.6 Z M75.9,40.6 C76.1,40.4 76.1,40.1 75.9,40 C75.7,39.8 75.4,39.8 75.3,40 C75.1,40.2 75.1,40.5 75.3,40.6 C75.4,40.8 75.7,40.8 75.9,40.6 Z M81.9,31.6 C82.1,31.4 82.1,31.1 81.9,31 C81.7,30.8 81.4,30.8 81.3,31 C81.1,31.2 81.1,31.5 81.3,31.6 C81.5,31.7 81.7,31.7 81.9,31.6 Z M78.9,34.6 C79.1,34.4 79.1,34.1 78.9,34 C78.7,33.8 78.4,33.8 78.3,34 C78.1,34.2 78.1,34.5 78.3,34.6 C78.5,34.8 78.7,34.8 78.9,34.6 Z M75.9,37.6 C76.1,37.4 76.1,37.1 75.9,37 C75.7,36.8 75.4,36.8 75.3,37 C75.1,37.2 75.1,37.5 75.3,37.6 C75.4,37.8 75.7,37.8 75.9,37.6 Z M72.9,40.6 C73.1,40.4 73.1,40.1 72.9,40 C72.7,39.8 72.4,39.8 72.3,40 C72.2,40.2 72.1,40.5 72.3,40.6 C72.4,40.8 72.7,40.8 72.9,40.6 Z M81.9,28.6 C82.1,28.4 82.1,28.1 81.9,28 C81.7,27.8 81.4,27.8 81.3,28 C81.2,28.2 81.1,28.5 81.3,28.6 C81.4,28.7 81.7,28.7 81.9,28.6 Z M78.9,31.6 C79.1,31.4 79.1,31.1 78.9,31 C78.7,30.8 78.4,30.8 78.3,31 C78.1,31.2 78.1,31.5 78.3,31.6 C78.4,31.8 78.7,31.8 78.9,31.6 Z M75.9,34.6 C76.1,34.4 76.1,34.1 75.9,34 C75.7,33.8 75.4,33.8 75.3,34 C75.1,34.2 75.1,34.5 75.3,34.6 C75.4,34.8 75.7,34.8 75.9,34.6 Z M72.9,37.6 C73.1,37.4 73.1,37.1 72.9,37 C72.7,36.8 72.4,36.8 72.3,37 C72.1,37.2 72.1,37.5 72.3,37.6 C72.4,37.8 72.7,37.8 72.9,37.6 Z"></path>
            <path d="M84.9,49.6 C85.1,49.4 85.1,49.1 84.9,49 C84.7,48.8 84.4,48.8 84.3,49 C84.1,49.2 84.1,49.5 84.3,49.6 C84.4,49.8 84.7,49.8 84.9,49.6 Z M81.9,52.6 C82.1,52.4 82.1,52.1 81.9,52 C81.7,51.8 81.4,51.8 81.3,52 C81.2,52.2 81.1,52.5 81.3,52.6 C81.4,52.8 81.7,52.8 81.9,52.6 Z M78.9,55.6 C79.1,55.4 79.1,55.1 78.9,55 C78.7,54.8 78.4,54.8 78.3,55 C78.1,55.2 78.1,55.5 78.3,55.6 C78.4,55.8 78.7,55.8 78.9,55.6 Z M75.8,58.6 C76,58.4 76,58.1 75.8,58 C75.6,57.8 75.3,57.8 75.2,58 C75,58.2 75,58.5 75.2,58.6 C75.4,58.8 75.7,58.8 75.8,58.6 Z M72.8,61.7 C73,61.5 73,61.2 72.8,61.1 C72.6,60.9 72.3,60.9 72.2,61.1 C72,61.3 72,61.6 72.2,61.7 C72.4,61.8 72.7,61.8 72.8,61.7 Z M69.8,64.7 C70,64.5 70,64.2 69.8,64.1 C69.6,63.9 69.3,63.9 69.2,64.1 C69,64.3 69,64.6 69.2,64.7 C69.4,64.8 69.6,64.8 69.8,64.7 Z M66.8,67.7 C67,67.5 67,67.2 66.8,67.1 C66.6,66.9 66.3,66.9 66.2,67.1 C66,67.3 66,67.6 66.2,67.7 C66.4,67.8 66.6,67.8 66.8,67.7 Z M63.8,70.7 C64,70.5 64,70.2 63.8,70.1 C63.6,69.9 63.3,69.9 63.2,70.1 C63,70.3 63,70.6 63.2,70.7 C63.3,70.9 63.6,70.9 63.8,70.7 Z M60.8,73.7 C61,73.5 61,73.2 60.8,73.1 C60.6,72.9 60.3,72.9 60.2,73.1 C60,73.3 60,73.6 60.2,73.7 C60.3,73.9 60.6,73.9 60.8,73.7 Z M57.8,76.7 C58,76.5 58,76.2 57.8,76.1 C57.6,75.9 57.3,75.9 57.2,76.1 C57.1,76.3 57,76.6 57.2,76.7 C57.3,76.9 57.6,76.9 57.8,76.7 Z M54.8,79.7 C55,79.5 55,79.2 54.8,79.1 C54.6,78.9 54.3,78.9 54.2,79.1 C54.1,79.3 54,79.6 54.2,79.7 C54.3,79.9 54.6,79.9 54.8,79.7 Z M51.8,82.7 C52,82.5 52,82.2 51.8,82.1 C51.6,81.9 51.3,81.9 51.2,82.1 C51,82.3 51,82.6 51.2,82.7 C51.3,82.9 51.6,82.9 51.8,82.7 Z M48.7,85.7 C48.9,85.5 48.9,85.2 48.7,85.1 C48.5,84.9 48.2,84.9 48.1,85.1 C47.9,85.3 47.9,85.6 48.1,85.7 C48.3,85.9 48.6,85.9 48.7,85.7 Z M81.9,49.6 C82.1,49.4 82.1,49.1 81.9,49 C81.7,48.8 81.4,48.8 81.3,49 C81.1,49.2 81.1,49.5 81.3,49.6 C81.4,49.8 81.7,49.8 81.9,49.6 Z M78.9,52.6 C79.1,52.4 79.1,52.1 78.9,52 C78.7,51.8 78.4,51.8 78.3,52 C78.1,52.2 78.1,52.5 78.3,52.6 C78.4,52.8 78.7,52.8 78.9,52.6 Z M75.9,55.6 C76.1,55.4 76.1,55.1 75.9,55 C75.7,54.8 75.4,54.8 75.3,55 C75.1,55.2 75.1,55.5 75.3,55.6 C75.4,55.8 75.7,55.8 75.9,55.6 Z M72.8,58.6 C73,58.4 73,58.1 72.8,58 C72.6,57.8 72.3,57.8 72.2,58 C72,58.2 72,58.5 72.2,58.6 C72.4,58.8 72.7,58.8 72.8,58.6 Z M69.2,61 C69,61.2 69,61.5 69.2,61.6 C69.4,61.8 69.7,61.8 69.8,61.6 C70,61.4 70,61.1 69.8,61 C69.7,60.8 69.4,60.8 69.2,61 Z M66.2,64 C66,64.2 66,64.5 66.2,64.6 C66.4,64.8 66.7,64.8 66.8,64.6 C66.9,64.4 67,64.1 66.8,64 C66.6,63.8 66.4,63.8 66.2,64 Z M63.8,67.6 C64,67.4 64,67.1 63.8,67 C63.6,66.8 63.3,66.8 63.2,67 C63,67.2 63,67.5 63.2,67.6 C63.4,67.8 63.6,67.8 63.8,67.6 Z M60.8,70.7 C61,70.5 61,70.2 60.8,70.1 C60.6,69.9 60.3,69.9 60.2,70.1 C60,70.3 60,70.6 60.2,70.7 C60.3,70.8 60.6,70.8 60.8,70.7 Z M57.8,73.7 C58,73.5 58,73.2 57.8,73.1 C57.6,72.9 57.3,72.9 57.2,73.1 C57,73.3 57,73.6 57.2,73.7 C57.3,73.8 57.6,73.8 57.8,73.7 Z M54.8,76.7 C55,76.5 55,76.2 54.8,76.1 C54.6,75.9 54.3,75.9 54.2,76.1 C54.1,76.3 54,76.6 54.2,76.7 C54.3,76.9 54.6,76.9 54.8,76.7 Z M51.8,79.7 C52,79.5 52,79.2 51.8,79.1 C51.6,78.9 51.3,78.9 51.2,79.1 C51,79.3 51,79.6 51.2,79.7 C51.3,79.9 51.6,79.9 51.8,79.7 Z M48.8,82.7 C49,82.5 49,82.2 48.8,82.1 C48.6,81.9 48.3,81.9 48.2,82.1 C48.1,82.3 48,82.6 48.2,82.7 C48.3,82.9 48.6,82.9 48.8,82.7 Z M45.7,85.7 C45.9,85.5 45.9,85.2 45.7,85.1 C45.5,84.9 45.2,84.9 45.1,85.1 C44.9,85.3 44.9,85.6 45.1,85.7 C45.3,85.9 45.6,85.9 45.7,85.7 Z M81.9,46.7 C82.1,46.5 82.1,46.2 81.9,46.1 C81.7,45.9 81.4,45.9 81.3,46.1 C81.1,46.3 81.1,46.6 81.3,46.7 C81.5,46.8 81.8,46.8 81.9,46.7 Z M78.9,49.7 C79.1,49.5 79.1,49.2 78.9,49.1 C78.7,48.9 78.4,48.9 78.3,49.1 C78.2,49.3 78.1,49.6 78.3,49.7 C78.5,49.8 78.7,49.8 78.9,49.7 Z M75.9,52.7 C76.1,52.5 76.1,52.2 75.9,52.1 C75.7,51.9 75.4,51.9 75.3,52.1 C75.1,52.3 75.1,52.6 75.3,52.7 C75.4,52.9 75.7,52.9 75.9,52.7 Z M72.9,55.7 C73.1,55.5 73.1,55.2 72.9,55.1 C72.7,54.9 72.4,54.9 72.3,55.1 C72.1,55.3 72.1,55.6 72.3,55.7 C72.4,55.9 72.7,55.9 72.9,55.7 Z M69.9,58.7 C70.1,58.5 70.1,58.2 69.9,58.1 C69.7,57.9 69.4,57.9 69.3,58.1 C69.2,58.3 69.1,58.6 69.3,58.7 C69.4,58.9 69.7,58.9 69.9,58.7 Z M66.9,61.7 C67.1,61.5 67.1,61.2 66.9,61.1 C66.7,60.9 66.4,60.9 66.3,61.1 C66.1,61.3 66.1,61.6 66.3,61.7 C66.4,61.9 66.7,61.9 66.9,61.7 Z M63.9,64.7 C64.1,64.5 64.1,64.2 63.9,64.1 C63.7,63.9 63.4,63.9 63.3,64.1 C63.1,64.3 63.1,64.6 63.3,64.7 C63.4,64.9 63.7,64.9 63.9,64.7 Z M60.9,67.7 C61.1,67.5 61.1,67.2 60.9,67.1 C60.7,66.9 60.4,66.9 60.3,67.1 C60.1,67.3 60.1,67.6 60.3,67.7 C60.4,67.9 60.7,67.9 60.9,67.7 Z M57.8,70.7 C58,70.5 58,70.2 57.8,70.1 C57.6,69.9 57.3,69.9 57.2,70.1 C57,70.3 57,70.6 57.2,70.7 C57.4,70.9 57.7,70.9 57.8,70.7 Z M54.8,73.8 C55,73.6 55,73.3 54.8,73.2 C54.6,73 54.3,73 54.2,73.2 C54.1,73.4 54,73.7 54.2,73.8 C54.4,73.9 54.7,73.9 54.8,73.8 Z M51.8,76.8 C52,76.6 52,76.3 51.8,76.2 C51.6,76 51.3,76 51.2,76.2 C51.1,76.4 51,76.7 51.2,76.8 C51.4,76.9 51.6,76.9 51.8,76.8 Z M48.8,79.8 C49,79.6 49,79.3 48.8,79.2 C48.6,79 48.3,79 48.2,79.2 C48,79.4 48,79.7 48.2,79.8 C48.4,80 48.6,80 48.8,79.8 Z M45.8,82.8 C46,82.6 46,82.3 45.8,82.2 C45.6,82 45.3,82 45.2,82.2 C45,82.4 45,82.7 45.2,82.8 C45.3,83 45.6,83 45.8,82.8 Z M78.9,46.6 C79.1,46.4 79.1,46.1 78.9,46 C78.7,45.8 78.4,45.8 78.3,46 C78.1,46.2 78.1,46.5 78.3,46.6 C78.5,46.8 78.8,46.8 78.9,46.6 Z M75.9,49.6 C76.1,49.4 76.1,49.1 75.9,49 C75.7,48.8 75.4,48.8 75.3,49 C75.1,49.2 75.1,49.5 75.3,49.6 C75.5,49.8 75.7,49.8 75.9,49.6 Z M72.9,52.7 C73.1,52.5 73.1,52.2 72.9,52.1 C72.7,51.9 72.4,51.9 72.3,52.1 C72.2,52.3 72.1,52.6 72.3,52.7 C72.4,52.8 72.7,52.8 72.9,52.7 Z M69.9,55.7 C70.1,55.5 70.1,55.2 69.9,55.1 C69.7,54.9 69.4,54.9 69.3,55.1 C69.1,55.3 69.1,55.6 69.3,55.7 C69.4,55.8 69.7,55.8 69.9,55.7 Z M66.3,58 C66.1,58.2 66.1,58.5 66.3,58.6 C66.5,58.8 66.8,58.8 66.9,58.6 C67.1,58.4 67.1,58.1 66.9,58 C66.7,57.9 66.4,57.9 66.3,58 Z M63.2,61.1 C63,61.3 63,61.6 63.2,61.7 C63.4,61.9 63.7,61.9 63.8,61.7 C63.9,61.5 64,61.2 63.8,61.1 C63.7,60.9 63.4,60.9 63.2,61.1 Z M60.9,64.7 C61.1,64.5 61.1,64.2 60.9,64.1 C60.7,63.9 60.4,63.9 60.3,64.1 C60.2,64.3 60.1,64.6 60.3,64.7 C60.4,64.9 60.7,64.9 60.9,64.7 Z M57.9,67.7 C58.1,67.5 58.1,67.2 57.9,67.1 C57.7,66.9 57.4,66.9 57.3,67.1 C57.1,67.3 57.1,67.6 57.3,67.7 C57.4,67.9 57.7,67.9 57.9,67.7 Z M54.8,70.7 C55,70.5 55,70.2 54.8,70.1 C54.6,69.9 54.3,69.9 54.2,70.1 C54,70.3 54,70.6 54.2,70.7 C54.4,70.9 54.7,70.9 54.8,70.7 Z M51.8,73.7 C52,73.5 52,73.2 51.8,73.1 C51.6,72.9 51.3,72.9 51.2,73.1 C51,73.3 51,73.6 51.2,73.7 C51.4,73.9 51.7,73.9 51.8,73.7 Z M48.8,76.7 C49,76.5 49,76.2 48.8,76.1 C48.6,75.9 48.3,75.9 48.2,76.1 C48,76.3 48,76.6 48.2,76.7 C48.4,76.9 48.6,76.9 48.8,76.7 Z M45.8,79.8 C46,79.6 46,79.3 45.8,79.2 C45.6,79 45.3,79 45.2,79.2 C45.1,79.4 45,79.7 45.2,79.8 C45.4,79.9 45.6,79.9 45.8,79.8 Z M42.8,82.8 C43,82.6 43,82.3 42.8,82.2 C42.6,82 42.3,82 42.2,82.2 C42,82.4 42,82.7 42.2,82.8 C42.3,82.9 42.6,82.9 42.8,82.8 Z M78.9,43.6 C79.1,43.4 79.1,43.1 78.9,43 C78.7,42.8 78.4,42.8 78.3,43 C78.1,43.2 78.1,43.5 78.3,43.6 C78.4,43.8 78.7,43.8 78.9,43.6 Z M75.9,46.6 C76.1,46.4 76.1,46.1 75.9,46 C75.7,45.8 75.4,45.8 75.3,46 C75.2,46.2 75.1,46.5 75.3,46.6 C75.4,46.8 75.7,46.8 75.9,46.6 Z M72.9,49.7 C73.1,49.5 73.1,49.2 72.9,49.1 C72.7,48.9 72.4,48.9 72.3,49.1 C72.1,49.3 72.1,49.6 72.3,49.7 C72.4,49.8 72.7,49.8 72.9,49.7 Z M69.9,52.7 C70.1,52.5 70.1,52.2 69.9,52.1 C69.7,51.9 69.4,51.9 69.3,52.1 C69.2,52.3 69.1,52.6 69.3,52.7 C69.4,52.8 69.7,52.8 69.9,52.7 Z M66.9,55.7 C67.1,55.5 67.1,55.2 66.9,55.1 C66.7,54.9 66.4,54.9 66.3,55.1 C66.1,55.3 66.1,55.6 66.3,55.7 C66.4,55.9 66.7,55.9 66.9,55.7 Z M63.8,58.7 C64,58.5 64,58.2 63.8,58.1 C63.6,57.9 63.3,57.9 63.2,58.1 C63,58.3 63,58.6 63.2,58.7 C63.4,58.9 63.7,58.9 63.8,58.7 Z M60.8,61.7 C61,61.5 61,61.2 60.8,61.1 C60.6,60.9 60.3,60.9 60.2,61.1 C60.1,61.3 60,61.6 60.2,61.7 C60.4,61.9 60.7,61.9 60.8,61.7 Z M57.8,64.7 C58,64.5 58,64.2 57.8,64.1 C57.6,63.9 57.3,63.9 57.2,64.1 C57.1,64.3 57,64.6 57.2,64.7 C57.4,64.9 57.7,64.9 57.8,64.7 Z M54.8,67.7 C55,67.5 55,67.2 54.8,67.1 C54.6,66.9 54.3,66.9 54.2,67.1 C54,67.3 54,67.6 54.2,67.7 C54.4,67.9 54.6,67.9 54.8,67.7 Z M51.8,70.7 C52,70.5 52,70.2 51.8,70.1 C51.6,69.9 51.3,69.9 51.2,70.1 C51,70.3 51,70.6 51.2,70.7 C51.3,70.9 51.6,70.9 51.8,70.7 Z M48.8,73.7 C49,73.5 49,73.2 48.8,73.1 C48.6,72.9 48.3,72.9 48.2,73.1 C48,73.3 48,73.6 48.2,73.7 C48.3,73.9 48.6,73.9 48.8,73.7 Z M45.8,76.8 C46,76.6 46,76.3 45.8,76.2 C45.6,76 45.3,76 45.2,76.2 C45,76.4 45,76.7 45.2,76.8 C45.3,76.9 45.6,76.9 45.8,76.8 Z M42.8,79.8 C43,79.6 43,79.3 42.8,79.2 C42.6,79 42.3,79 42.2,79.2 C42,79.4 42,79.7 42.2,79.8 C42.3,79.9 42.6,79.9 42.8,79.8 Z M75.9,43.6 C76.1,43.4 76.1,43.1 75.9,43 C75.7,42.8 75.4,42.8 75.3,43 C75.1,43.2 75.1,43.5 75.3,43.6 C75.4,43.8 75.7,43.8 75.9,43.6 Z M72.9,46.6 C73.1,46.4 73.1,46.1 72.9,46 C72.7,45.8 72.4,45.8 72.3,46 C72.1,46.2 72.1,46.5 72.3,46.6 C72.4,46.8 72.7,46.8 72.9,46.6 Z M69.9,49.6 C70.1,49.4 70.1,49.1 69.9,49 C69.7,48.8 69.4,48.8 69.3,49 C69.1,49.2 69.1,49.5 69.3,49.6 C69.4,49.8 69.7,49.8 69.9,49.6 Z M66.9,52.6 C67.1,52.4 67.1,52.1 66.9,52 C66.7,51.8 66.4,51.8 66.3,52 C66.1,52.2 66.1,52.5 66.3,52.6 C66.4,52.8 66.7,52.8 66.9,52.6 Z M63.2,55 C63,55.2 63,55.5 63.2,55.6 C63.4,55.8 63.7,55.8 63.8,55.6 C64,55.4 64,55.1 63.8,55 C63.7,54.8 63.4,54.8 63.2,55 Z M60.2,58 C60,58.2 60,58.5 60.2,58.6 C60.4,58.8 60.7,58.8 60.8,58.6 C61,58.4 61,58.1 60.8,58 C60.7,57.9 60.4,57.9 60.2,58 Z M57.8,61.7 C58,61.5 58,61.2 57.8,61.1 C57.6,60.9 57.3,60.9 57.2,61.1 C57,61.3 57,61.6 57.2,61.7 C57.4,61.8 57.7,61.8 57.8,61.7 Z M54.8,64.7 C55,64.5 55,64.2 54.8,64.1 C54.6,63.9 54.3,63.9 54.2,64.1 C54,64.3 54,64.6 54.2,64.7 C54.4,64.9 54.7,64.9 54.8,64.7 Z M51.8,67.7 C52,67.5 52,67.2 51.8,67.1 C51.6,66.9 51.3,66.9 51.2,67.1 C51,67.3 51,67.6 51.2,67.7 C51.4,67.9 51.6,67.9 51.8,67.7 Z M48.8,70.7 C49,70.5 49,70.2 48.8,70.1 C48.6,69.9 48.3,69.9 48.2,70.1 C48,70.3 48,70.6 48.2,70.7 C48.3,70.9 48.6,70.9 48.8,70.7 Z M45.8,73.7 C46,73.5 46,73.2 45.8,73.1 C45.6,72.9 45.3,72.9 45.2,73.1 C45,73.3 45,73.6 45.2,73.7 C45.3,73.9 45.6,73.9 45.8,73.7 Z M42.8,76.7 C43,76.5 43,76.2 42.8,76.1 C42.6,75.9 42.3,75.9 42.2,76.1 C42.1,76.3 42,76.6 42.2,76.7 C42.3,76.9 42.6,76.9 42.8,76.7 Z M39.8,79.7 C40,79.5 40,79.2 39.8,79.1 C39.6,78.9 39.3,78.9 39.2,79.1 C39.1,79.3 39,79.6 39.2,79.7 C39.3,79.9 39.6,79.9 39.8,79.7 Z M76,40.7 C76.2,40.5 76.2,40.2 76,40.1 C75.8,39.9 75.5,39.9 75.4,40.1 C75.3,40.3 75.2,40.6 75.4,40.7 C75.5,40.9 75.8,40.9 76,40.7 Z M72.9,43.7 C73.1,43.5 73.1,43.2 72.9,43.1 C72.7,42.9 72.4,42.9 72.3,43.1 C72.1,43.3 72.1,43.6 72.3,43.7 C72.5,43.9 72.8,43.9 72.9,43.7 Z M69.9,46.7 C70.1,46.5 70.1,46.2 69.9,46.1 C69.7,45.9 69.4,45.9 69.3,46.1 C69.1,46.3 69.1,46.6 69.3,46.7 C69.5,46.9 69.8,46.9 69.9,46.7 Z M66.9,49.7 C67.1,49.5 67.1,49.2 66.9,49.1 C66.7,48.9 66.4,48.9 66.3,49.1 C66.1,49.3 66.1,49.6 66.3,49.7 C66.5,49.9 66.7,49.9 66.9,49.7 Z M63.9,52.7 C64.1,52.5 64.1,52.2 63.9,52.1 C63.7,51.9 63.4,51.9 63.3,52.1 C63.2,52.3 63.1,52.6 63.3,52.7 C63.5,52.9 63.7,52.9 63.9,52.7 Z M60.9,55.7 C61.1,55.5 61.1,55.2 60.9,55.1 C60.7,54.9 60.4,54.9 60.3,55.1 C60.1,55.3 60.1,55.6 60.3,55.7 C60.4,55.9 60.7,55.9 60.9,55.7 Z M57.9,58.8 C58.1,58.6 58.1,58.3 57.9,58.2 C57.7,58 57.4,58 57.3,58.2 C57.1,58.4 57.1,58.7 57.3,58.8 C57.4,58.9 57.7,58.9 57.9,58.8 Z M54.9,61.8 C55.1,61.6 55.1,61.3 54.9,61.2 C54.7,61 54.4,61 54.3,61.2 C54.1,61.4 54.1,61.7 54.3,61.8 C54.4,61.9 54.7,61.9 54.9,61.8 Z M51.9,64.8 C52.1,64.6 52.1,64.3 51.9,64.2 C51.7,64 51.4,64 51.3,64.2 C51.1,64.4 51.1,64.7 51.3,64.8 C51.4,65 51.7,65 51.9,64.8 Z M48.9,67.8 C49.1,67.6 49.1,67.3 48.9,67.2 C48.7,67 48.4,67 48.3,67.2 C48.1,67.4 48.1,67.7 48.3,67.8 C48.4,68 48.7,68 48.9,67.8 Z M45.8,70.8 C46,70.6 46,70.3 45.8,70.2 C45.6,70 45.3,70 45.2,70.2 C45,70.4 45,70.7 45.2,70.8 C45.4,71 45.7,71 45.8,70.8 Z M42.8,73.8 C43,73.6 43,73.3 42.8,73.2 C42.6,73 42.3,73 42.2,73.2 C42,73.4 42,73.7 42.2,73.8 C42.4,74 42.7,74 42.8,73.8 Z M39.8,76.8 C40,76.6 40,76.3 39.8,76.2 C39.6,76 39.3,76 39.2,76.2 C39,76.4 39,76.7 39.2,76.8 C39.4,77 39.7,77 39.8,76.8 Z M73,40.7 C73.2,40.5 73.2,40.2 73,40.1 C72.8,39.9 72.5,39.9 72.4,40.1 C72.2,40.3 72.2,40.6 72.4,40.7 C72.5,40.8 72.8,40.8 73,40.7 Z M69.9,43.7 C70.1,43.5 70.1,43.2 69.9,43.1 C69.7,42.9 69.4,42.9 69.3,43.1 C69.1,43.3 69.1,43.6 69.3,43.7 C69.5,43.8 69.8,43.8 69.9,43.7 Z M66.9,46.7 C67.1,46.5 67.1,46.2 66.9,46.1 C66.7,45.9 66.4,45.9 66.3,46.1 C66.2,46.3 66.1,46.6 66.3,46.7 C66.5,46.9 66.8,46.9 66.9,46.7 Z M63.9,49.7 C64.1,49.5 64.1,49.2 63.9,49.1 C63.7,48.9 63.4,48.9 63.3,49.1 C63.1,49.3 63.1,49.6 63.3,49.7 C63.5,49.9 63.7,49.9 63.9,49.7 Z M60.3,52.1 C60.1,52.3 60.1,52.6 60.3,52.7 C60.5,52.9 60.8,52.9 60.9,52.7 C61.1,52.5 61.1,52.2 60.9,52.1 C60.7,51.9 60.5,51.9 60.3,52.1 Z M57.3,55.1 C57.1,55.3 57.1,55.6 57.3,55.7 C57.5,55.9 57.8,55.9 57.9,55.7 C58,55.5 58.1,55.2 57.9,55.1 C57.7,54.9 57.4,54.9 57.3,55.1 Z M54.9,58.7 C55.1,58.5 55.1,58.2 54.9,58.1 C54.7,57.9 54.4,57.9 54.3,58.1 C54.2,58.3 54.1,58.6 54.3,58.7 C54.4,58.9 54.7,58.9 54.9,58.7 Z M51.9,61.7 C52.1,61.5 52.1,61.2 51.9,61.1 C51.7,60.9 51.4,60.9 51.3,61.1 C51.1,61.3 51.1,61.6 51.3,61.7 C51.4,61.9 51.7,61.9 51.9,61.7 Z M48.9,64.8 C49.1,64.6 49.1,64.3 48.9,64.2 C48.7,64 48.4,64 48.3,64.2 C48.2,64.4 48.1,64.7 48.3,64.8 C48.4,64.9 48.7,64.9 48.9,64.8 Z M45.9,67.8 C46.1,67.6 46.1,67.3 45.9,67.2 C45.7,67 45.4,67 45.3,67.2 C45.1,67.4 45.1,67.7 45.3,67.8 C45.4,67.9 45.7,67.9 45.9,67.8 Z M42.8,70.8 C43,70.6 43,70.3 42.8,70.2 C42.6,70 42.3,70 42.2,70.2 C42,70.4 42,70.7 42.2,70.8 C42.4,70.9 42.7,70.9 42.8,70.8 Z M39.8,73.8 C40,73.6 40,73.3 39.8,73.2 C39.6,73 39.3,73 39.2,73.2 C39,73.4 39,73.7 39.2,73.8 C39.4,74 39.7,74 39.8,73.8 Z M36.8,76.8 C37,76.6 37,76.3 36.8,76.2 C36.6,76 36.3,76 36.2,76.2 C36.1,76.4 36,76.7 36.2,76.8 C36.4,77 36.7,77 36.8,76.8 Z M72.9,37.7 C73.1,37.5 73.1,37.2 72.9,37.1 C72.7,36.9 72.4,36.9 72.3,37.1 C72.1,37.3 72.1,37.6 72.3,37.7 C72.5,37.8 72.8,37.8 72.9,37.7 Z M69.9,40.7 C70.1,40.5 70.1,40.2 69.9,40.1 C69.7,39.9 69.4,39.9 69.3,40.1 C69.2,40.3 69.1,40.6 69.3,40.7 C69.5,40.8 69.7,40.8 69.9,40.7 Z M66.9,43.7 C67.1,43.5 67.1,43.2 66.9,43.1 C66.7,42.9 66.4,42.9 66.3,43.1 C66.1,43.3 66.1,43.6 66.3,43.7 C66.4,43.9 66.7,43.9 66.9,43.7 Z M63.9,46.7 C64.1,46.5 64.1,46.2 63.9,46.1 C63.7,45.9 63.4,45.9 63.3,46.1 C63.1,46.3 63.1,46.6 63.3,46.7 C63.4,46.9 63.7,46.9 63.9,46.7 Z M60.9,49.7 C61.1,49.5 61.1,49.2 60.9,49.1 C60.7,48.9 60.4,48.9 60.3,49.1 C60.1,49.3 60.1,49.6 60.3,49.7 C60.4,49.9 60.7,49.9 60.9,49.7 Z M57.9,52.7 C58.1,52.5 58.1,52.2 57.9,52.1 C57.7,51.9 57.4,51.9 57.3,52.1 C57.1,52.3 57.1,52.6 57.3,52.7 C57.4,52.9 57.7,52.9 57.9,52.7 Z M54.9,55.7 C55.1,55.5 55.1,55.2 54.9,55.1 C54.7,54.9 54.4,54.9 54.3,55.1 C54.1,55.3 54.1,55.6 54.3,55.7 C54.4,55.9 54.7,55.9 54.9,55.7 Z M51.9,58.7 C52.1,58.5 52.1,58.2 51.9,58.1 C51.7,57.9 51.4,57.9 51.3,58.1 C51.1,58.3 51.1,58.6 51.3,58.7 C51.4,58.9 51.7,58.9 51.9,58.7 Z M48.8,61.8 C49,61.6 49,61.3 48.8,61.2 C48.6,61 48.3,61 48.2,61.2 C48,61.4 48,61.7 48.2,61.8 C48.4,61.9 48.7,61.9 48.8,61.8 Z M45.8,64.8 C46,64.6 46,64.3 45.8,64.2 C45.6,64 45.3,64 45.2,64.2 C45.1,64.4 45,64.7 45.2,64.8 C45.4,64.9 45.7,64.9 45.8,64.8 Z M42.8,67.8 C43,67.6 43,67.3 42.8,67.2 C42.6,67 42.3,67 42.2,67.2 C42,67.4 42,67.7 42.2,67.8 C42.4,67.9 42.6,67.9 42.8,67.8 Z M39.8,70.8 C40,70.6 40,70.3 39.8,70.2 C39.6,70 39.3,70 39.2,70.2 C39,70.4 39,70.7 39.2,70.8 C39.4,71 39.6,71 39.8,70.8 Z M36.8,73.8 C37,73.6 37,73.3 36.8,73.2 C36.6,73 36.3,73 36.2,73.2 C36,73.4 36,73.7 36.2,73.8 C36.3,74 36.6,74 36.8,73.8 Z"></path>
            <path d="M42.9,85.6 C43.1,85.4 43.1,85.1 42.9,85 C42.7,84.8 42.4,84.8 42.3,85 C42.2,85.2 42.1,85.5 42.3,85.6 C42.4,85.8 42.7,85.8 42.9,85.6 Z M39.9,85.6 C40.1,85.4 40.1,85.1 39.9,85 C39.7,84.8 39.4,84.8 39.3,85 C39.2,85.2 39.1,85.5 39.3,85.6 C39.4,85.7 39.7,85.7 39.9,85.6 Z M39.8,82.6 C40,82.4 40,82.1 39.8,82 C39.6,81.8 39.3,81.8 39.2,82 C39.1,82.2 39,82.5 39.2,82.6 C39.4,82.7 39.7,82.7 39.8,82.6 Z M36.8,85.6 C37,85.4 37,85.1 36.8,85 C36.6,84.8 36.3,84.8 36.2,85 C36.1,85.2 36,85.5 36.2,85.6 C36.4,85.8 36.6,85.8 36.8,85.6 Z M36.8,82.5 C37,82.3 37,82 36.8,81.9 C36.6,81.7 36.3,81.7 36.2,81.9 C36,82.1 36,82.4 36.2,82.5 C36.4,82.7 36.7,82.7 36.8,82.5 Z M33.8,85.6 C34,85.4 34,85.1 33.8,85 C33.6,84.8 33.3,84.8 33.2,85 C33,85.2 33,85.5 33.2,85.6 C33.4,85.7 33.6,85.7 33.8,85.6 Z M36.9,79.6 C37.1,79.4 37.1,79.1 36.9,79 C36.7,78.8 36.4,78.8 36.3,79 C36.1,79.2 36.1,79.5 36.3,79.6 C36.4,79.8 36.7,79.8 36.9,79.6 Z M33.9,82.6 C34.1,82.4 34.1,82.1 33.9,82 C33.7,81.8 33.4,81.8 33.3,82 C33.1,82.2 33.1,82.5 33.3,82.6 C33.4,82.8 33.7,82.8 33.9,82.6 Z M30.9,85.6 C31.1,85.4 31.1,85.1 30.9,85 C30.7,84.8 30.4,84.8 30.3,85 C30.1,85.2 30.1,85.5 30.3,85.6 C30.4,85.8 30.7,85.8 30.9,85.6 Z M33.9,79.6 C34.1,79.4 34.1,79.1 33.9,79 C33.7,78.8 33.4,78.8 33.3,79 C33.1,79.2 33.1,79.5 33.3,79.6 C33.4,79.8 33.7,79.8 33.9,79.6 Z M30.9,82.6 C31.1,82.4 31.1,82.1 30.9,82 C30.7,81.8 30.4,81.8 30.3,82 C30.1,82.2 30.1,82.5 30.3,82.6 C30.4,82.8 30.7,82.8 30.9,82.6 Z M27.9,85.6 C28.1,85.4 28.1,85.1 27.9,85 C27.7,84.8 27.4,84.8 27.3,85 C27.2,85.2 27.1,85.5 27.3,85.6 C27.4,85.8 27.7,85.8 27.9,85.6 Z M33.9,76.6 C34.1,76.4 34.1,76.1 33.9,76 C33.7,75.8 33.4,75.8 33.3,76 C33.2,76.2 33.1,76.5 33.3,76.6 C33.4,76.8 33.7,76.8 33.9,76.6 Z M30.8,79.6 C31,79.4 31,79.1 30.8,79 C30.6,78.8 30.3,78.8 30.2,79 C30,79.2 30,79.5 30.2,79.6 C30.4,79.8 30.7,79.8 30.8,79.6 Z M27.8,82.6 C28,82.4 28,82.1 27.8,82 C27.6,81.8 27.3,81.8 27.2,82 C27,82.2 27,82.5 27.2,82.6 C27.4,82.8 27.7,82.8 27.8,82.6 Z M24.8,85.6 C25,85.4 25,85.1 24.8,85 C24.6,84.8 24.3,84.8 24.2,85 C24,85.2 24,85.5 24.2,85.6 C24.4,85.8 24.7,85.8 24.8,85.6 Z"></path>
            <path d="M24.9,85.6 C25.1,85.4 25.1,85.1 24.9,85 C24.7,84.8 24.4,84.8 24.3,85 C24.2,85.2 24.1,85.5 24.3,85.6 C24.4,85.8 24.7,85.8 24.9,85.6 Z"></path>
            <path d="M84.8,52.5 C85,52.3 85,52 84.8,51.9 C84.6,51.7 84.3,51.7 84.2,51.9 C84.1,52.1 84,52.4 84.2,52.5 C84.4,52.7 84.7,52.7 84.8,52.5 Z M84.8,49.5 C85,49.3 85,49 84.8,48.9 C84.6,48.7 84.3,48.7 84.2,48.9 C84,49.1 84,49.4 84.2,49.5 C84.3,49.7 84.6,49.7 84.8,49.5 Z"></path>
            <path d="M84.8,73.6 C85,73.4 85,73.1 84.8,73 C84.6,72.8 84.3,72.8 84.2,73 C84,73.2 84,73.5 84.2,73.6 C84.3,73.8 84.6,73.8 84.8,73.6 Z M81.8,76.6 C82,76.4 82,76.1 81.8,76 C81.6,75.8 81.3,75.8 81.2,76 C81,76.2 81,76.5 81.2,76.6 C81.3,76.8 81.6,76.8 81.8,76.6 Z M78.8,79.6 C79,79.4 79,79.1 78.8,79 C78.6,78.8 78.3,78.8 78.2,79 C78,79.2 78,79.5 78.2,79.6 C78.3,79.8 78.6,79.8 78.8,79.6 Z M75.7,82.6 C75.9,82.4 75.9,82.1 75.7,82 C75.5,81.8 75.2,81.8 75.1,82 C74.9,82.2 74.9,82.5 75.1,82.6 C75.3,82.8 75.6,82.8 75.7,82.6 Z M72.7,85.6 C72.9,85.4 72.9,85.1 72.7,85 C72.5,84.8 72.2,84.8 72.1,85 C71.9,85.2 71.9,85.5 72.1,85.6 C72.3,85.8 72.6,85.8 72.7,85.6 Z M84.8,70.6 C85,70.4 85,70.1 84.8,70 C84.6,69.8 84.3,69.8 84.2,70 C84,70.2 84,70.5 84.2,70.6 C84.3,70.7 84.6,70.7 84.8,70.6 Z M81.1,72.9 C80.9,73.1 80.9,73.4 81.1,73.5 C81.3,73.7 81.6,73.7 81.7,73.5 C81.9,73.3 81.9,73 81.7,72.9 C81.6,72.8 81.3,72.8 81.1,72.9 Z M78.1,75.9 C77.9,76.1 77.9,76.4 78.1,76.5 C78.3,76.7 78.6,76.7 78.7,76.5 C78.8,76.3 78.9,76 78.7,75.9 C78.6,75.8 78.3,75.8 78.1,75.9 Z M75.8,79.6 C76,79.4 76,79.1 75.8,79 C75.6,78.8 75.3,78.8 75.2,79 C75.1,79.2 75,79.5 75.2,79.6 C75.3,79.8 75.6,79.8 75.8,79.6 Z M72.7,82.6 C72.9,82.4 72.9,82.1 72.7,82 C72.5,81.8 72.2,81.8 72.1,82 C71.9,82.2 71.9,82.5 72.1,82.6 C72.3,82.8 72.6,82.8 72.7,82.6 Z M69.7,85.6 C69.9,85.4 69.9,85.1 69.7,85 C69.5,84.8 69.2,84.8 69.1,85 C68.9,85.2 68.9,85.5 69.1,85.6 C69.3,85.8 69.6,85.8 69.7,85.6 Z M84.8,67.6 C85,67.4 85,67.1 84.8,67 C84.6,66.8 84.3,66.8 84.2,67 C84,67.2 84,67.5 84.2,67.6 C84.4,67.8 84.7,67.8 84.8,67.6 Z M81.8,70.6 C82,70.4 82,70.1 81.8,70 C81.6,69.8 81.3,69.8 81.2,70 C81.1,70.2 81,70.5 81.2,70.6 C81.4,70.8 81.7,70.8 81.8,70.6 Z M78.8,73.7 C79,73.5 79,73.2 78.8,73.1 C78.6,72.9 78.3,72.9 78.2,73.1 C78,73.3 78,73.6 78.2,73.7 C78.4,73.8 78.6,73.8 78.8,73.7 Z M75.8,76.7 C76,76.5 76,76.2 75.8,76.1 C75.6,75.9 75.3,75.9 75.2,76.1 C75,76.3 75,76.6 75.2,76.7 C75.3,76.8 75.6,76.8 75.8,76.7 Z M72.8,79.7 C73,79.5 73,79.2 72.8,79.1 C72.6,78.9 72.3,78.9 72.2,79.1 C72,79.3 72,79.6 72.2,79.7 C72.3,79.9 72.6,79.9 72.8,79.7 Z M69.8,82.7 C70,82.5 70,82.2 69.8,82.1 C69.6,81.9 69.3,81.9 69.2,82.1 C69,82.3 69,82.6 69.2,82.7 C69.3,82.9 69.6,82.9 69.8,82.7 Z M66.8,85.7 C67,85.5 67,85.2 66.8,85.1 C66.6,84.9 66.3,84.9 66.2,85.1 C66,85.3 66,85.6 66.2,85.7 C66.3,85.9 66.6,85.9 66.8,85.7 Z M84.8,64.6 C85,64.4 85,64.1 84.8,64 C84.6,63.8 84.3,63.8 84.2,64 C84.1,64.2 84,64.5 84.2,64.6 C84.4,64.8 84.7,64.8 84.8,64.6 Z M81.8,67.6 C82,67.4 82,67.1 81.8,67 C81.6,66.8 81.3,66.8 81.2,67 C81,67.2 81,67.5 81.2,67.6 C81.4,67.8 81.7,67.8 81.8,67.6 Z M78.2,70 C78,70.2 78,70.5 78.2,70.6 C78.4,70.8 78.7,70.8 78.8,70.6 C79,70.4 79,70.1 78.8,70 C78.7,69.8 78.4,69.8 78.2,70 Z M75.2,73 C75,73.2 75,73.5 75.2,73.6 C75.4,73.8 75.7,73.8 75.8,73.6 C75.9,73.4 76,73.1 75.8,73 C75.6,72.8 75.4,72.8 75.2,73 Z M72.8,76.6 C73,76.4 73,76.1 72.8,76 C72.6,75.8 72.3,75.8 72.2,76 C72.1,76.2 72,76.5 72.2,76.6 C72.3,76.8 72.6,76.8 72.8,76.6 Z M69.8,79.7 C70,79.5 70,79.2 69.8,79.1 C69.6,78.9 69.3,78.9 69.2,79.1 C69,79.3 69,79.6 69.2,79.7 C69.3,79.8 69.6,79.8 69.8,79.7 Z M66.8,82.7 C67,82.5 67,82.2 66.8,82.1 C66.6,81.9 66.3,81.9 66.2,82.1 C66,82.3 66,82.6 66.2,82.7 C66.3,82.8 66.6,82.8 66.8,82.7 Z M63.8,85.7 C64,85.5 64,85.2 63.8,85.1 C63.6,84.9 63.3,84.9 63.2,85.1 C63.1,85.3 63,85.6 63.2,85.7 C63.3,85.9 63.6,85.9 63.8,85.7 Z M84.8,61.6 C85,61.4 85,61.1 84.8,61 C84.6,60.8 84.3,60.8 84.2,61 C84,61.2 84,61.5 84.2,61.6 C84.4,61.8 84.6,61.8 84.8,61.6 Z M81.8,64.6 C82,64.4 82,64.1 81.8,64 C81.6,63.8 81.3,63.8 81.2,64 C81.1,64.2 81,64.5 81.2,64.6 C81.4,64.8 81.6,64.8 81.8,64.6 Z M78.8,67.6 C79,67.4 79,67.1 78.8,67 C78.6,66.8 78.3,66.8 78.2,67 C78,67.2 78,67.5 78.2,67.6 C78.3,67.8 78.6,67.8 78.8,67.6 Z M75.8,70.6 C76,70.4 76,70.1 75.8,70 C75.6,69.8 75.3,69.8 75.2,70 C75,70.2 75,70.5 75.2,70.6 C75.3,70.8 75.6,70.8 75.8,70.6 Z M72.8,73.6 C73,73.4 73,73.1 72.8,73 C72.6,72.8 72.3,72.8 72.2,73 C72.1,73.2 72,73.5 72.2,73.6 C72.3,73.8 72.6,73.8 72.8,73.6 Z M69.8,76.7 C70,76.5 70,76.2 69.8,76.1 C69.6,75.9 69.3,75.9 69.2,76.1 C69.1,76.3 69,76.6 69.2,76.7 C69.3,76.8 69.6,76.8 69.8,76.7 Z M66.8,79.7 C67,79.5 67,79.2 66.8,79.1 C66.6,78.9 66.3,78.9 66.2,79.1 C66,79.3 66,79.6 66.2,79.7 C66.3,79.8 66.6,79.8 66.8,79.7 Z M63.7,82.7 C63.9,82.5 63.9,82.2 63.7,82.1 C63.5,81.9 63.2,81.9 63.1,82.1 C63,82.3 62.9,82.6 63.1,82.7 C63.3,82.9 63.6,82.9 63.7,82.7 Z M60.7,85.7 C60.9,85.5 60.9,85.2 60.7,85.1 C60.5,84.9 60.2,84.9 60.1,85.1 C60,85.3 59.9,85.6 60.1,85.7 C60.3,85.9 60.6,85.9 60.7,85.7 Z M84.8,58.6 C85,58.4 85,58.1 84.8,58 C84.6,57.8 84.3,57.8 84.2,58 C84,58.2 84,58.5 84.2,58.6 C84.4,58.7 84.7,58.7 84.8,58.6 Z M81.8,61.6 C82,61.4 82,61.1 81.8,61 C81.6,60.8 81.3,60.8 81.2,61 C81,61.2 81,61.5 81.2,61.6 C81.4,61.8 81.6,61.8 81.8,61.6 Z M78.8,64.6 C79,64.4 79,64.1 78.8,64 C78.6,63.8 78.3,63.8 78.2,64 C78,64.2 78,64.5 78.2,64.6 C78.4,64.8 78.6,64.8 78.8,64.6 Z M75.2,67 C75,67.2 75,67.5 75.2,67.6 C75.4,67.8 75.7,67.8 75.8,67.6 C76,67.4 76,67.1 75.8,67 C75.6,66.8 75.3,66.8 75.2,67 Z M72.2,70 C72,70.2 72,70.5 72.2,70.6 C72.4,70.8 72.7,70.8 72.8,70.6 C73,70.4 73,70.1 72.8,70 C72.6,69.8 72.3,69.8 72.2,70 Z M69.8,73.6 C70,73.4 70,73.1 69.8,73 C69.6,72.8 69.3,72.8 69.2,73 C69,73.2 69,73.5 69.2,73.6 C69.3,73.8 69.6,73.8 69.8,73.6 Z M66.8,76.6 C67,76.4 67,76.1 66.8,76 C66.6,75.8 66.3,75.8 66.2,76 C66,76.2 66,76.5 66.2,76.6 C66.3,76.8 66.6,76.8 66.8,76.6 Z M63.8,79.6 C64,79.4 64,79.1 63.8,79 C63.6,78.8 63.3,78.8 63.2,79 C63.1,79.2 63,79.5 63.2,79.6 C63.3,79.8 63.6,79.8 63.8,79.6 Z M60.7,82.7 C60.9,82.5 60.9,82.2 60.7,82.1 C60.5,81.9 60.2,81.9 60.1,82.1 C59.9,82.3 59.9,82.6 60.1,82.7 C60.3,82.8 60.6,82.8 60.7,82.7 Z M57.7,85.7 C57.9,85.5 57.9,85.2 57.7,85.1 C57.5,84.9 57.2,84.9 57.1,85.1 C56.9,85.3 56.9,85.6 57.1,85.7 C57.3,85.8 57.6,85.8 57.7,85.7 Z M84.9,55.6 C85.1,55.4 85.1,55.1 84.9,55 C84.7,54.8 84.4,54.8 84.3,55 C84.1,55.2 84.1,55.5 84.3,55.6 C84.4,55.8 84.7,55.8 84.9,55.6 Z M81.9,58.7 C82.1,58.5 82.1,58.2 81.9,58.1 C81.7,57.9 81.4,57.9 81.3,58.1 C81.1,58.3 81.1,58.6 81.3,58.7 C81.4,58.8 81.7,58.8 81.9,58.7 Z M78.9,61.7 C79.1,61.5 79.1,61.2 78.9,61.1 C78.7,60.9 78.4,60.9 78.3,61.1 C78.1,61.3 78.1,61.6 78.3,61.7 C78.4,61.8 78.7,61.8 78.9,61.7 Z M75.9,64.7 C76.1,64.5 76.1,64.2 75.9,64.1 C75.7,63.9 75.4,63.9 75.3,64.1 C75.2,64.3 75.1,64.6 75.3,64.7 C75.4,64.9 75.7,64.9 75.9,64.7 Z M72.8,67.7 C73,67.5 73,67.2 72.8,67.1 C72.6,66.9 72.3,66.9 72.2,67.1 C72,67.3 72,67.6 72.2,67.7 C72.4,67.9 72.7,67.9 72.8,67.7 Z M69.8,70.7 C70,70.5 70,70.2 69.8,70.1 C69.6,69.9 69.3,69.9 69.2,70.1 C69,70.3 69,70.6 69.2,70.7 C69.4,70.9 69.7,70.9 69.8,70.7 Z M66.8,73.7 C67,73.5 67,73.2 66.8,73.1 C66.6,72.9 66.3,72.9 66.2,73.1 C66,73.3 66,73.6 66.2,73.7 C66.4,73.9 66.6,73.9 66.8,73.7 Z M63.8,76.7 C64,76.5 64,76.2 63.8,76.1 C63.6,75.9 63.3,75.9 63.2,76.1 C63,76.3 63,76.6 63.2,76.7 C63.4,76.9 63.6,76.9 63.8,76.7 Z M60.8,79.7 C61,79.5 61,79.2 60.8,79.1 C60.6,78.9 60.3,78.9 60.2,79.1 C60,79.3 60,79.6 60.2,79.7 C60.3,79.9 60.6,79.9 60.8,79.7 Z M57.8,82.7 C58,82.5 58,82.2 57.8,82.1 C57.6,81.9 57.3,81.9 57.2,82.1 C57,82.3 57,82.6 57.2,82.7 C57.3,82.9 57.6,82.9 57.8,82.7 Z M54.8,85.8 C55,85.6 55,85.3 54.8,85.2 C54.6,85 54.3,85 54.2,85.2 C54,85.4 54,85.7 54.2,85.8 C54.3,85.9 54.6,85.9 54.8,85.8 Z M84.9,52.6 C85.1,52.4 85.1,52.1 84.9,52 C84.7,51.8 84.4,51.8 84.3,52 C84.1,52.2 84.1,52.5 84.3,52.6 C84.4,52.8 84.7,52.8 84.9,52.6 Z M81.9,55.6 C82.1,55.4 82.1,55.1 81.9,55 C81.7,54.8 81.4,54.8 81.3,55 C81.1,55.2 81.1,55.5 81.3,55.6 C81.4,55.8 81.7,55.8 81.9,55.6 Z M78.9,58.6 C79.1,58.4 79.1,58.1 78.9,58 C78.7,57.8 78.4,57.8 78.3,58 C78.2,58.2 78.1,58.5 78.3,58.6 C78.4,58.8 78.7,58.8 78.9,58.6 Z M75.9,61.6 C76.1,61.4 76.1,61.1 75.9,61 C75.7,60.8 75.4,60.8 75.3,61 C75.1,61.2 75.1,61.5 75.3,61.6 C75.4,61.8 75.7,61.8 75.9,61.6 Z M72.2,64 C72,64.2 72,64.5 72.2,64.6 C72.4,64.8 72.7,64.8 72.8,64.6 C73,64.4 73,64.1 72.8,64 C72.7,63.8 72.4,63.8 72.2,64 Z M69.2,67 C69,67.2 69,67.5 69.2,67.6 C69.4,67.8 69.7,67.8 69.8,67.6 C69.9,67.4 70,67.1 69.8,67 C69.7,66.9 69.4,66.9 69.2,67 Z M66.8,70.7 C67,70.5 67,70.2 66.8,70.1 C66.6,69.9 66.3,69.9 66.2,70.1 C66.1,70.3 66,70.6 66.2,70.7 C66.4,70.8 66.7,70.8 66.8,70.7 Z M63.8,73.7 C64,73.5 64,73.2 63.8,73.1 C63.6,72.9 63.3,72.9 63.2,73.1 C63,73.3 63,73.6 63.2,73.7 C63.4,73.9 63.6,73.9 63.8,73.7 Z M60.8,76.7 C61,76.5 61,76.2 60.8,76.1 C60.6,75.9 60.3,75.9 60.2,76.1 C60.1,76.3 60,76.6 60.2,76.7 C60.4,76.9 60.6,76.9 60.8,76.7 Z M57.8,79.7 C58,79.5 58,79.2 57.8,79.1 C57.6,78.9 57.3,78.9 57.2,79.1 C57,79.3 57,79.6 57.2,79.7 C57.3,79.9 57.6,79.9 57.8,79.7 Z M54.8,82.7 C55,82.5 55,82.2 54.8,82.1 C54.6,81.9 54.3,81.9 54.2,82.1 C54,82.3 54,82.6 54.2,82.7 C54.3,82.9 54.6,82.9 54.8,82.7 Z M51.8,85.7 C52,85.5 52,85.2 51.8,85.1 C51.6,84.9 51.3,84.9 51.2,85.1 C51,85.3 51,85.6 51.2,85.7 C51.3,85.9 51.6,85.9 51.8,85.7 Z M84.9,49.6 C85.1,49.4 85.1,49.1 84.9,49 C84.7,48.8 84.4,48.8 84.3,49 C84.1,49.2 84.1,49.5 84.3,49.6 C84.4,49.8 84.7,49.8 84.9,49.6 Z M81.9,52.6 C82.1,52.4 82.1,52.1 81.9,52 C81.7,51.8 81.4,51.8 81.3,52 C81.2,52.2 81.1,52.5 81.3,52.6 C81.4,52.8 81.7,52.8 81.9,52.6 Z M78.9,55.6 C79.1,55.4 79.1,55.1 78.9,55 C78.7,54.8 78.4,54.8 78.3,55 C78.1,55.2 78.1,55.5 78.3,55.6 C78.4,55.8 78.7,55.8 78.9,55.6 Z M75.8,58.6 C76,58.4 76,58.1 75.8,58 C75.6,57.8 75.3,57.8 75.2,58 C75,58.2 75,58.5 75.2,58.6 C75.4,58.8 75.7,58.8 75.8,58.6 Z M72.8,61.7 C73,61.5 73,61.2 72.8,61.1 C72.6,60.9 72.3,60.9 72.2,61.1 C72,61.3 72,61.6 72.2,61.7 C72.4,61.8 72.7,61.8 72.8,61.7 Z M69.8,64.7 C70,64.5 70,64.2 69.8,64.1 C69.6,63.9 69.3,63.9 69.2,64.1 C69,64.3 69,64.6 69.2,64.7 C69.4,64.8 69.6,64.8 69.8,64.7 Z M66.8,67.7 C67,67.5 67,67.2 66.8,67.1 C66.6,66.9 66.3,66.9 66.2,67.1 C66,67.3 66,67.6 66.2,67.7 C66.4,67.8 66.6,67.8 66.8,67.7 Z M63.8,70.7 C64,70.5 64,70.2 63.8,70.1 C63.6,69.9 63.3,69.9 63.2,70.1 C63,70.3 63,70.6 63.2,70.7 C63.3,70.9 63.6,70.9 63.8,70.7 Z M60.8,73.7 C61,73.5 61,73.2 60.8,73.1 C60.6,72.9 60.3,72.9 60.2,73.1 C60,73.3 60,73.6 60.2,73.7 C60.3,73.9 60.6,73.9 60.8,73.7 Z M57.8,76.7 C58,76.5 58,76.2 57.8,76.1 C57.6,75.9 57.3,75.9 57.2,76.1 C57.1,76.3 57,76.6 57.2,76.7 C57.3,76.9 57.6,76.9 57.8,76.7 Z M54.8,79.7 C55,79.5 55,79.2 54.8,79.1 C54.6,78.9 54.3,78.9 54.2,79.1 C54.1,79.3 54,79.6 54.2,79.7 C54.3,79.9 54.6,79.9 54.8,79.7 Z M51.8,82.7 C52,82.5 52,82.2 51.8,82.1 C51.6,81.9 51.3,81.9 51.2,82.1 C51,82.3 51,82.6 51.2,82.7 C51.3,82.9 51.6,82.9 51.8,82.7 Z M48.7,85.7 C48.9,85.5 48.9,85.2 48.7,85.1 C48.5,84.9 48.2,84.9 48.1,85.1 C47.9,85.3 47.9,85.6 48.1,85.7 C48.3,85.9 48.6,85.9 48.7,85.7 Z"></path>
            <path d="M84.8,85.7 C85,85.5 85,85.2 84.8,85.1 C84.6,84.9 84.3,84.9 84.2,85.1 C84.1,85.3 84,85.6 84.2,85.7 C84.3,85.8 84.6,85.8 84.8,85.7 Z M84.2,82 C84,82.2 84,82.5 84.2,82.6 C84.4,82.8 84.7,82.8 84.8,82.6 C85,82.4 85,82.1 84.8,82 C84.6,81.8 84.3,81.8 84.2,82 Z M81.8,85.6 C82,85.4 82,85.1 81.8,85 C81.6,84.8 81.3,84.8 81.2,85 C81.1,85.2 81,85.5 81.2,85.6 C81.3,85.8 81.6,85.8 81.8,85.6 Z M84.9,79.7 C85.1,79.5 85.1,79.2 84.9,79.1 C84.7,78.9 84.4,78.9 84.3,79.1 C84.1,79.3 84.1,79.6 84.3,79.7 C84.4,79.9 84.7,79.9 84.9,79.7 Z M81.8,82.7 C82,82.5 82,82.2 81.8,82.1 C81.6,81.9 81.3,81.9 81.2,82.1 C81,82.3 81,82.6 81.2,82.7 C81.4,82.9 81.7,82.9 81.8,82.7 Z M78.8,85.7 C79,85.5 79,85.2 78.8,85.1 C78.6,84.9 78.3,84.9 78.2,85.1 C78.1,85.3 78,85.6 78.2,85.7 C78.4,85.9 78.7,85.9 78.8,85.7 Z M84.2,76 C84,76.2 84,76.5 84.2,76.6 C84.4,76.8 84.7,76.8 84.8,76.6 C85,76.4 85,76.1 84.8,76 C84.7,75.9 84.4,75.9 84.2,76 Z M81.2,79 C81,79.2 81,79.5 81.2,79.6 C81.4,79.8 81.7,79.8 81.8,79.6 C81.9,79.4 82,79.1 81.8,79 C81.7,78.9 81.4,78.9 81.2,79 Z M78.8,82.7 C79,82.5 79,82.2 78.8,82.1 C78.6,81.9 78.3,81.9 78.2,82.1 C78,82.3 78,82.6 78.2,82.7 C78.4,82.9 78.7,82.9 78.8,82.7 Z M75.8,85.7 C76,85.5 76,85.2 75.8,85.1 C75.6,84.9 75.3,84.9 75.2,85.1 C75,85.3 75,85.6 75.2,85.7 C75.4,85.9 75.7,85.9 75.8,85.7 Z M84.8,73.7 C85,73.5 85,73.2 84.8,73.1 C84.6,72.9 84.3,72.9 84.2,73.1 C84,73.3 84,73.6 84.2,73.7 C84.4,73.8 84.7,73.8 84.8,73.7 Z M81.8,76.7 C82,76.5 82,76.2 81.8,76.1 C81.6,75.9 81.3,75.9 81.2,76.1 C81,76.3 81,76.6 81.2,76.7 C81.4,76.8 81.7,76.8 81.8,76.7 Z M78.8,79.7 C79,79.5 79,79.2 78.8,79.1 C78.6,78.9 78.3,78.9 78.2,79.1 C78.1,79.3 78,79.6 78.2,79.7 C78.4,79.9 78.6,79.9 78.8,79.7 Z M75.8,82.7 C76,82.5 76,82.2 75.8,82.1 C75.6,81.9 75.3,81.9 75.2,82.1 C75,82.3 75,82.6 75.2,82.7 C75.4,82.9 75.6,82.9 75.8,82.7 Z M72.8,85.7 C73,85.5 73,85.2 72.8,85.1 C72.6,84.9 72.3,84.9 72.2,85.1 C72,85.3 72,85.6 72.2,85.7 C72.3,85.9 72.6,85.9 72.8,85.7 Z"></path>
        </g>
    </g>
</svg>