<?xml version="1.0" encoding="UTF-8"?>
<svg width="240px" height="137px" viewBox="0 0 240 137" version="1.1" xmlns="http://www.w3.org/2000/svg" xmlns:xlink="http://www.w3.org/1999/xlink">
    <title>tile-hover--variant-2</title>
    <g stroke="none" stroke-width="1" fill="none" fill-rule="evenodd">
        <g transform="translate(0.000000, 90.000000)" fill-rule="nonzero">
            <g transform="translate(2.000000, 29.000000)" fill="#000000">
                <g transform="translate(27.000000, 0.000000)">
                    <g transform="translate(68.000000, 0.000000)">
                        <path d="M71.3,18 C71.5,18 71.7,17.8 71.7,17.6 C71.7,17.4 71.5,17.2 71.3,17.2 C71.1,17.2 70.9,17.4 70.9,17.6 C70.8,17.8 71,18 71.3,18 Z M67,18 C67.2,18 67.4,17.8 67.4,17.6 C67.4,17.4 67.2,17.2 67,17.2 C66.8,17.2 66.6,17.4 66.6,17.6 C66.6,17.8 66.8,18 67,18 Z M62.8,18 C63,18 63.2,17.8 63.2,17.6 C63.2,17.4 63,17.2 62.8,17.2 C62.6,17.2 62.4,17.4 62.4,17.6 C62.3,17.8 62.5,18 62.8,18 Z M58.5,18 C58.7,18 58.9,17.8 58.9,17.6 C58.9,17.4 58.7,17.2 58.5,17.2 C58.3,17.2 58.1,17.4 58.1,17.6 C58.1,17.8 58.3,18 58.5,18 Z M54.3,18 C54.5,18 54.7,17.8 54.7,17.6 C54.7,17.4 54.5,17.2 54.3,17.2 C54.1,17.2 53.9,17.4 53.9,17.6 C53.8,17.8 54,18 54.3,18 Z M50,18 C50.2,18 50.4,17.8 50.4,17.6 C50.4,17.4 50.2,17.2 50,17.2 C49.8,17.2 49.6,17.4 49.6,17.6 C49.6,17.8 49.8,18 50,18 Z M45.7,18 C45.9,18 46.1,17.8 46.1,17.6 C46.1,17.4 45.9,17.2 45.7,17.2 C45.5,17.2 45.3,17.4 45.3,17.6 C45.3,17.8 45.5,18 45.7,18 Z M41.5,18 C41.7,18 41.9,17.8 41.9,17.6 C41.9,17.4 41.7,17.2 41.5,17.2 C41.3,17.2 41.1,17.4 41.1,17.6 C41,17.8 41.2,18 41.5,18 Z M37.2,18 C37.4,18 37.6,17.8 37.6,17.6 C37.6,17.4 37.4,17.2 37.2,17.2 C37,17.2 36.8,17.4 36.8,17.6 C36.8,17.8 37,18 37.2,18 Z M33,18 C33.2,18 33.4,17.8 33.4,17.6 C33.4,17.4 33.2,17.2 33,17.2 C32.8,17.2 32.6,17.4 32.6,17.6 C32.5,17.8 32.7,18 33,18 Z M28.7,18 C28.9,18 29.1,17.8 29.1,17.6 C29.1,17.4 28.9,17.2 28.7,17.2 C28.5,17.2 28.3,17.4 28.3,17.6 C28.3,17.8 28.5,18 28.7,18 Z M24.5,18 C24.7,18 24.9,17.8 24.9,17.6 C24.9,17.4 24.7,17.2 24.5,17.2 C24.3,17.2 24.1,17.4 24.1,17.6 C24,17.8 24.2,18 24.5,18 Z M20.2,18 C20.4,18 20.6,17.8 20.6,17.6 C20.6,17.4 20.4,17.2 20.2,17.2 C20,17.2 19.8,17.4 19.8,17.6 C19.7,17.8 19.9,18 20.2,18 Z M69.2,15.9 C69.4,15.9 69.6,15.7 69.6,15.5 C69.6,15.3 69.4,15.1 69.2,15.1 C69,15.1 68.8,15.3 68.8,15.5 C68.7,15.7 68.9,15.9 69.2,15.9 Z M64.9,15.9 C65.1,15.9 65.3,15.7 65.3,15.5 C65.3,15.3 65.1,15.1 64.9,15.1 C64.7,15.1 64.5,15.3 64.5,15.5 C64.5,15.7 64.7,15.9 64.9,15.9 Z M60.7,15.9 C60.9,15.9 61.1,15.7 61.1,15.5 C61.1,15.3 60.9,15.1 60.7,15.1 C60.5,15.1 60.3,15.3 60.3,15.5 C60.2,15.7 60.4,15.9 60.7,15.9 Z M56.4,15.9 C56.6,15.9 56.8,15.7 56.8,15.5 C56.8,15.3 56.6,15.1 56.4,15.1 C56.2,15.1 56,15.3 56,15.5 C56,15.7 56.2,15.9 56.4,15.9 Z M52.2,15 C52,15 51.8,15.2 51.8,15.4 C51.8,15.6 52,15.8 52.2,15.8 C52.4,15.8 52.6,15.6 52.6,15.4 C52.6,15.2 52.4,15 52.2,15 Z M47.9,15 C47.7,15 47.5,15.2 47.5,15.4 C47.5,15.6 47.7,15.8 47.9,15.8 C48.1,15.8 48.3,15.6 48.3,15.4 C48.3,15.2 48.1,15 47.9,15 Z M43.6,15.9 C43.8,15.9 44,15.7 44,15.5 C44,15.3 43.8,15.1 43.6,15.1 C43.4,15.1 43.2,15.3 43.2,15.5 C43.2,15.7 43.4,15.9 43.6,15.9 Z M39.4,15.9 C39.6,15.9 39.8,15.7 39.8,15.5 C39.8,15.3 39.6,15.1 39.4,15.1 C39.2,15.1 39,15.3 39,15.5 C38.9,15.7 39.1,15.9 39.4,15.9 Z M35.1,15.9 C35.3,15.9 35.5,15.7 35.5,15.5 C35.5,15.3 35.3,15.1 35.1,15.1 C34.9,15.1 34.7,15.3 34.7,15.5 C34.7,15.7 34.9,15.9 35.1,15.9 Z M30.9,15.9 C31.1,15.9 31.3,15.7 31.3,15.5 C31.3,15.3 31.1,15.1 30.9,15.1 C30.7,15.1 30.5,15.3 30.5,15.5 C30.4,15.7 30.6,15.9 30.9,15.9 Z M26.6,15.9 C26.8,15.9 27,15.7 27,15.5 C27,15.3 26.8,15.1 26.6,15.1 C26.4,15.1 26.2,15.3 26.2,15.5 C26.2,15.7 26.4,15.9 26.6,15.9 Z M22.4,15.9 C22.6,15.9 22.8,15.7 22.8,15.5 C22.8,15.3 22.6,15.1 22.4,15.1 C22.2,15.1 22,15.3 22,15.5 C21.9,15.7 22.1,15.9 22.4,15.9 Z M18.1,15.9 C18.3,15.9 18.5,15.7 18.5,15.5 C18.5,15.3 18.3,15.1 18.1,15.1 C17.9,15.1 17.7,15.3 17.7,15.5 C17.6,15.7 17.8,15.9 18.1,15.9 Z M71.3,13.8 C71.5,13.8 71.7,13.6 71.7,13.4 C71.7,13.2 71.5,13 71.3,13 C71.1,13 70.9,13.2 70.9,13.4 C70.8,13.6 71,13.8 71.3,13.8 Z M67,13.8 C67.2,13.8 67.4,13.6 67.4,13.4 C67.4,13.2 67.2,13 67,13 C66.8,13 66.6,13.2 66.6,13.4 C66.6,13.6 66.8,13.8 67,13.8 Z M62.8,13.8 C63,13.8 63.2,13.6 63.2,13.4 C63.2,13.2 63,13 62.8,13 C62.6,13 62.4,13.2 62.4,13.4 C62.3,13.6 62.5,13.8 62.8,13.8 Z M58.5,13.8 C58.7,13.8 58.9,13.6 58.9,13.4 C58.9,13.2 58.7,13 58.5,13 C58.3,13 58.1,13.2 58.1,13.4 C58.1,13.6 58.3,13.8 58.5,13.8 Z M54.3,13.8 C54.5,13.8 54.7,13.6 54.7,13.4 C54.7,13.2 54.5,13 54.3,13 C54.1,13 53.9,13.2 53.9,13.4 C53.8,13.6 54,13.8 54.3,13.8 Z M50,13.8 C50.2,13.8 50.4,13.6 50.4,13.4 C50.4,13.2 50.2,13 50,13 C49.8,13 49.6,13.2 49.6,13.4 C49.6,13.6 49.8,13.8 50,13.8 Z M45.7,13.8 C45.9,13.8 46.1,13.6 46.1,13.4 C46.1,13.2 45.9,13 45.7,13 C45.5,13 45.3,13.2 45.3,13.4 C45.3,13.6 45.5,13.8 45.7,13.8 Z M41.5,13.8 C41.7,13.8 41.9,13.6 41.9,13.4 C41.9,13.2 41.7,13 41.5,13 C41.3,13 41.1,13.2 41.1,13.4 C41,13.6 41.2,13.8 41.5,13.8 Z M37.2,13.8 C37.4,13.8 37.6,13.6 37.6,13.4 C37.6,13.2 37.4,13 37.2,13 C37,13 36.8,13.2 36.8,13.4 C36.8,13.6 37,13.8 37.2,13.8 Z M33,13.8 C33.2,13.8 33.4,13.6 33.4,13.4 C33.4,13.2 33.2,13 33,13 C32.8,13 32.6,13.2 32.6,13.4 C32.5,13.6 32.7,13.8 33,13.8 Z M28.7,13.8 C28.9,13.8 29.1,13.6 29.1,13.4 C29.1,13.2 28.9,13 28.7,13 C28.5,13 28.3,13.2 28.3,13.4 C28.3,13.6 28.5,13.8 28.7,13.8 Z M24.5,13.8 C24.7,13.8 24.9,13.6 24.9,13.4 C24.9,13.2 24.7,13 24.5,13 C24.3,13 24.1,13.2 24.1,13.4 C24,13.6 24.2,13.8 24.5,13.8 Z M20.2,13.8 C20.4,13.8 20.6,13.6 20.6,13.4 C20.6,13.2 20.4,13 20.2,13 C20,13 19.8,13.2 19.8,13.4 C19.7,13.6 19.9,13.8 20.2,13.8 Z M69.2,11.7 C69.4,11.7 69.6,11.5 69.6,11.3 C69.6,11.1 69.4,10.9 69.2,10.9 C69,10.9 68.8,11.1 68.8,11.3 C68.7,11.5 68.9,11.7 69.2,11.7 Z M64.9,11.7 C65.1,11.7 65.3,11.5 65.3,11.3 C65.3,11.1 65.1,10.9 64.9,10.9 C64.7,10.9 64.5,11.1 64.5,11.3 C64.5,11.5 64.7,11.7 64.9,11.7 Z M60.7,11.7 C60.9,11.7 61.1,11.5 61.1,11.3 C61.1,11.1 60.9,10.9 60.7,10.9 C60.5,10.9 60.3,11.1 60.3,11.3 C60.2,11.5 60.4,11.7 60.7,11.7 Z M56.4,11.7 C56.6,11.7 56.8,11.5 56.8,11.3 C56.8,11.1 56.6,10.9 56.4,10.9 C56.2,10.9 56,11.1 56,11.3 C56,11.5 56.2,11.7 56.4,11.7 Z M52.2,10.8 C52,10.8 51.8,11 51.8,11.2 C51.8,11.4 52,11.6 52.2,11.6 C52.4,11.6 52.6,11.4 52.6,11.2 C52.6,11 52.4,10.8 52.2,10.8 Z M47.9,10.8 C47.7,10.8 47.5,11 47.5,11.2 C47.5,11.4 47.7,11.6 47.9,11.6 C48.1,11.6 48.3,11.4 48.3,11.2 C48.3,11 48.1,10.8 47.9,10.8 Z M43.6,11.7 C43.8,11.7 44,11.5 44,11.3 C44,11.1 43.8,10.9 43.6,10.9 C43.4,10.9 43.2,11.1 43.2,11.3 C43.2,11.5 43.4,11.7 43.6,11.7 Z M39.4,11.7 C39.6,11.7 39.8,11.5 39.8,11.3 C39.8,11.1 39.6,10.9 39.4,10.9 C39.2,10.9 39,11.1 39,11.3 C38.9,11.5 39.1,11.7 39.4,11.7 Z M35.1,11.7 C35.3,11.7 35.5,11.5 35.5,11.3 C35.5,11.1 35.3,10.9 35.1,10.9 C34.9,10.9 34.7,11.1 34.7,11.3 C34.7,11.5 34.9,11.7 35.1,11.7 Z M30.9,11.7 C31.1,11.7 31.3,11.5 31.3,11.3 C31.3,11.1 31.1,10.9 30.9,10.9 C30.7,10.9 30.5,11.1 30.5,11.3 C30.4,11.5 30.6,11.7 30.9,11.7 Z M26.6,11.7 C26.8,11.7 27,11.5 27,11.3 C27,11.1 26.8,10.9 26.6,10.9 C26.4,10.9 26.2,11.1 26.2,11.3 C26.2,11.5 26.4,11.7 26.6,11.7 Z M22.4,11.7 C22.6,11.7 22.8,11.5 22.8,11.3 C22.8,11.1 22.6,10.9 22.4,10.9 C22.2,10.9 22,11.1 22,11.3 C21.9,11.5 22.1,11.7 22.4,11.7 Z M18.1,11.7 C18.3,11.7 18.5,11.5 18.5,11.3 C18.5,11.1 18.3,10.9 18.1,10.9 C17.9,10.9 17.7,11.1 17.7,11.3 C17.6,11.5 17.8,11.7 18.1,11.7 Z M71.3,9.6 C71.5,9.6 71.7,9.4 71.7,9.2 C71.7,9 71.5,8.8 71.3,8.8 C71.1,8.8 70.9,9 70.9,9.2 C70.8,9.4 71,9.6 71.3,9.6 Z M67,9.6 C67.2,9.6 67.4,9.4 67.4,9.2 C67.4,9 67.2,8.8 67,8.8 C66.8,8.8 66.6,9 66.6,9.2 C66.6,9.4 66.8,9.6 67,9.6 Z M62.8,9.6 C63,9.6 63.2,9.4 63.2,9.2 C63.2,9 63,8.8 62.8,8.8 C62.6,8.8 62.4,9 62.4,9.2 C62.3,9.4 62.5,9.6 62.8,9.6 Z M58.5,9.6 C58.7,9.6 58.9,9.4 58.9,9.2 C58.9,9 58.7,8.8 58.5,8.8 C58.3,8.8 58.1,9 58.1,9.2 C58.1,9.4 58.3,9.6 58.5,9.6 Z M54.3,9.6 C54.5,9.6 54.7,9.4 54.7,9.2 C54.7,9 54.5,8.8 54.3,8.8 C54.1,8.8 53.9,9 53.9,9.2 C53.8,9.4 54,9.6 54.3,9.6 Z M50,9.6 C50.2,9.6 50.4,9.4 50.4,9.2 C50.4,9 50.2,8.8 50,8.8 C49.8,8.8 49.6,9 49.6,9.2 C49.6,9.4 49.8,9.6 50,9.6 Z M45.7,9.6 C45.9,9.6 46.1,9.4 46.1,9.2 C46.1,9 45.9,8.8 45.7,8.8 C45.5,8.8 45.3,9 45.3,9.2 C45.3,9.4 45.5,9.6 45.7,9.6 Z M41.5,9.6 C41.7,9.6 41.9,9.4 41.9,9.2 C41.9,9 41.7,8.8 41.5,8.8 C41.3,8.8 41.1,9 41.1,9.2 C41,9.4 41.2,9.6 41.5,9.6 Z M37.2,9.6 C37.4,9.6 37.6,9.4 37.6,9.2 C37.6,9 37.4,8.8 37.2,8.8 C37,8.8 36.8,9 36.8,9.2 C36.8,9.4 37,9.6 37.2,9.6 Z M33,9.6 C33.2,9.6 33.4,9.4 33.4,9.2 C33.4,9 33.2,8.8 33,8.8 C32.8,8.8 32.6,9 32.6,9.2 C32.5,9.4 32.7,9.6 33,9.6 Z M28.7,9.6 C28.9,9.6 29.1,9.4 29.1,9.2 C29.1,9 28.9,8.8 28.7,8.8 C28.5,8.8 28.3,9 28.3,9.2 C28.3,9.4 28.5,9.6 28.7,9.6 Z M24.5,9.6 C24.7,9.6 24.9,9.4 24.9,9.2 C24.9,9 24.7,8.8 24.5,8.8 C24.3,8.8 24.1,9 24.1,9.2 C24,9.4 24.2,9.6 24.5,9.6 Z M20.2,9.6 C20.4,9.6 20.6,9.4 20.6,9.2 C20.6,9 20.4,8.8 20.2,8.8 C20,8.8 19.8,9 19.8,9.2 C19.7,9.4 19.9,9.6 20.2,9.6 Z M69.2,7.4 C69.4,7.4 69.6,7.2 69.6,7 C69.6,6.8 69.4,6.6 69.2,6.6 C69,6.6 68.8,6.8 68.8,7 C68.7,7.2 68.9,7.4 69.2,7.4 Z M64.9,7.4 C65.1,7.4 65.3,7.2 65.3,7 C65.3,6.8 65.1,6.6 64.9,6.6 C64.7,6.6 64.5,6.8 64.5,7 C64.5,7.2 64.7,7.4 64.9,7.4 Z M60.7,7.4 C60.9,7.4 61.1,7.2 61.1,7 C61.1,6.8 60.9,6.6 60.7,6.6 C60.5,6.6 60.3,6.8 60.3,7 C60.2,7.2 60.4,7.4 60.7,7.4 Z M56.4,7.4 C56.6,7.4 56.8,7.2 56.8,7 C56.8,6.8 56.6,6.6 56.4,6.6 C56.2,6.6 56,6.8 56,7 C56,7.2 56.2,7.4 56.4,7.4 Z M52.2,6.5 C52,6.5 51.8,6.7 51.8,6.9 C51.8,7.1 52,7.3 52.2,7.3 C52.4,7.3 52.6,7.1 52.6,6.9 C52.6,6.7 52.4,6.5 52.2,6.5 Z M47.9,6.5 C47.7,6.5 47.5,6.7 47.5,6.9 C47.5,7.1 47.7,7.3 47.9,7.3 C48.1,7.3 48.3,7.1 48.3,6.9 C48.3,6.7 48.1,6.5 47.9,6.5 Z M43.6,7.4 C43.8,7.4 44,7.2 44,7 C44,6.8 43.8,6.6 43.6,6.6 C43.4,6.6 43.2,6.8 43.2,7 C43.2,7.2 43.4,7.4 43.6,7.4 Z M39.4,7.4 C39.6,7.4 39.8,7.2 39.8,7 C39.8,6.8 39.6,6.6 39.4,6.6 C39.2,6.6 39,6.8 39,7 C38.9,7.2 39.1,7.4 39.4,7.4 Z M35.1,7.4 C35.3,7.4 35.5,7.2 35.5,7 C35.5,6.8 35.3,6.6 35.1,6.6 C34.9,6.6 34.7,6.8 34.7,7 C34.7,7.2 34.9,7.4 35.1,7.4 Z M30.9,7.4 C31.1,7.4 31.3,7.2 31.3,7 C31.3,6.8 31.1,6.6 30.9,6.6 C30.7,6.6 30.5,6.8 30.5,7 C30.4,7.2 30.6,7.4 30.9,7.4 Z M26.6,7.4 C26.8,7.4 27,7.2 27,7 C27,6.8 26.8,6.6 26.6,6.6 C26.4,6.6 26.2,6.8 26.2,7 C26.2,7.2 26.4,7.4 26.6,7.4 Z M22.4,7.4 C22.6,7.4 22.8,7.2 22.8,7 C22.8,6.8 22.6,6.6 22.4,6.6 C22.2,6.6 22,6.8 22,7 C21.9,7.2 22.1,7.4 22.4,7.4 Z M18.1,7.4 C18.3,7.4 18.5,7.2 18.5,7 C18.5,6.8 18.3,6.6 18.1,6.6 C17.9,6.6 17.7,6.8 17.7,7 C17.6,7.2 17.8,7.4 18.1,7.4 Z M71.3,5.4 C71.5,5.4 71.7,5.2 71.7,5 C71.7,4.8 71.5,4.6 71.3,4.6 C71.1,4.6 70.9,4.8 70.9,5 C70.8,5.2 71,5.4 71.3,5.4 Z M67,5.4 C67.2,5.4 67.4,5.2 67.4,5 C67.4,4.8 67.2,4.6 67,4.6 C66.8,4.6 66.6,4.8 66.6,5 C66.6,5.2 66.8,5.4 67,5.4 Z M62.8,5.4 C63,5.4 63.2,5.2 63.2,5 C63.2,4.8 63,4.6 62.8,4.6 C62.6,4.6 62.4,4.8 62.4,5 C62.3,5.2 62.5,5.4 62.8,5.4 Z M58.5,5.4 C58.7,5.4 58.9,5.2 58.9,5 C58.9,4.8 58.7,4.6 58.5,4.6 C58.3,4.6 58.1,4.8 58.1,5 C58.1,5.2 58.3,5.4 58.5,5.4 Z M54.3,5.4 C54.5,5.4 54.7,5.2 54.7,5 C54.7,4.8 54.5,4.6 54.3,4.6 C54.1,4.6 53.9,4.8 53.9,5 C53.8,5.2 54,5.4 54.3,5.4 Z M50,5.4 C50.2,5.4 50.4,5.2 50.4,5 C50.4,4.8 50.2,4.6 50,4.6 C49.8,4.6 49.6,4.8 49.6,5 C49.6,5.2 49.8,5.4 50,5.4 Z M45.7,5.4 C45.9,5.4 46.1,5.2 46.1,5 C46.1,4.8 45.9,4.6 45.7,4.6 C45.5,4.6 45.3,4.8 45.3,5 C45.3,5.2 45.5,5.4 45.7,5.4 Z M41.5,5.4 C41.7,5.4 41.9,5.2 41.9,5 C41.9,4.8 41.7,4.6 41.5,4.6 C41.3,4.6 41.1,4.8 41.1,5 C41,5.2 41.2,5.4 41.5,5.4 Z M37.2,5.4 C37.4,5.4 37.6,5.2 37.6,5 C37.6,4.8 37.4,4.6 37.2,4.6 C37,4.6 36.8,4.8 36.8,5 C36.8,5.2 37,5.4 37.2,5.4 Z M33,5.4 C33.2,5.4 33.4,5.2 33.4,5 C33.4,4.8 33.2,4.6 33,4.6 C32.8,4.6 32.6,4.8 32.6,5 C32.5,5.2 32.7,5.4 33,5.4 Z M28.7,5.4 C28.9,5.4 29.1,5.2 29.1,5 C29.1,4.8 28.9,4.6 28.7,4.6 C28.5,4.6 28.3,4.8 28.3,5 C28.3,5.2 28.5,5.4 28.7,5.4 Z M24.5,5.4 C24.7,5.4 24.9,5.2 24.9,5 C24.9,4.8 24.7,4.6 24.5,4.6 C24.3,4.6 24.1,4.8 24.1,5 C24,5.2 24.2,5.4 24.5,5.4 Z M20.2,5.4 C20.4,5.4 20.6,5.2 20.6,5 C20.6,4.8 20.4,4.6 20.2,4.6 C20,4.6 19.8,4.8 19.8,5 C19.7,5.2 19.9,5.4 20.2,5.4 Z M69.2,3.2 C69.4,3.2 69.6,3 69.6,2.8 C69.6,2.6 69.4,2.4 69.2,2.4 C69,2.4 68.8,2.6 68.8,2.8 C68.7,3 68.9,3.2 69.2,3.2 Z M64.9,3.2 C65.1,3.2 65.3,3 65.3,2.8 C65.3,2.6 65.1,2.4 64.9,2.4 C64.7,2.4 64.5,2.6 64.5,2.8 C64.5,3 64.7,3.2 64.9,3.2 Z M60.7,3.2 C60.9,3.2 61.1,3 61.1,2.8 C61.1,2.6 60.9,2.4 60.7,2.4 C60.5,2.4 60.3,2.6 60.3,2.8 C60.2,3 60.4,3.2 60.7,3.2 Z M56.4,3.2 C56.6,3.2 56.8,3 56.8,2.8 C56.8,2.6 56.6,2.4 56.4,2.4 C56.2,2.4 56,2.6 56,2.8 C56,3 56.2,3.2 56.4,3.2 Z M52.2,2.4 C52,2.4 51.8,2.6 51.8,2.8 C51.8,3 52,3.2 52.2,3.2 C52.4,3.2 52.6,3 52.6,2.8 C52.6,2.6 52.4,2.4 52.2,2.4 Z M47.9,2.4 C47.7,2.4 47.5,2.6 47.5,2.8 C47.5,3 47.7,3.2 47.9,3.2 C48.1,3.2 48.3,3 48.3,2.8 C48.3,2.6 48.1,2.4 47.9,2.4 Z M43.6,3.2 C43.8,3.2 44,3 44,2.8 C44,2.6 43.8,2.4 43.6,2.4 C43.4,2.4 43.2,2.6 43.2,2.8 C43.2,3 43.4,3.2 43.6,3.2 Z M39.4,3.2 C39.6,3.2 39.8,3 39.8,2.8 C39.8,2.6 39.6,2.4 39.4,2.4 C39.2,2.4 39,2.6 39,2.8 C38.9,3 39.1,3.2 39.4,3.2 Z M35.1,3.2 C35.3,3.2 35.5,3 35.5,2.8 C35.5,2.6 35.3,2.4 35.1,2.4 C34.9,2.4 34.7,2.6 34.7,2.8 C34.7,3 34.9,3.2 35.1,3.2 Z M30.9,3.2 C31.1,3.2 31.3,3 31.3,2.8 C31.3,2.6 31.1,2.4 30.9,2.4 C30.7,2.4 30.5,2.6 30.5,2.8 C30.4,3 30.6,3.2 30.9,3.2 Z M26.6,3.2 C26.8,3.2 27,3 27,2.8 C27,2.6 26.8,2.4 26.6,2.4 C26.4,2.4 26.2,2.6 26.2,2.8 C26.2,3 26.4,3.2 26.6,3.2 Z M22.4,3.2 C22.6,3.2 22.8,3 22.8,2.8 C22.8,2.6 22.6,2.4 22.4,2.4 C22.2,2.4 22,2.6 22,2.8 C21.9,3 22.1,3.2 22.4,3.2 Z M18.1,3.2 C18.3,3.2 18.5,3 18.5,2.8 C18.5,2.6 18.3,2.4 18.1,2.4 C17.9,2.4 17.7,2.6 17.7,2.8 C17.6,3 17.8,3.2 18.1,3.2 Z M71.3,1.1 C71.5,1.1 71.7,0.9 71.7,0.7 C71.7,0.5 71.5,0.3 71.3,0.3 C71.1,0.3 70.9,0.5 70.9,0.7 C70.8,0.9 71,1.1 71.3,1.1 Z M67,1.1 C67.2,1.1 67.4,0.9 67.4,0.7 C67.4,0.5 67.2,0.3 67,0.3 C66.8,0.3 66.6,0.5 66.6,0.7 C66.6,0.9 66.8,1.1 67,1.1 Z M62.8,1.1 C63,1.1 63.2,0.9 63.2,0.7 C63.2,0.5 63,0.3 62.8,0.3 C62.6,0.3 62.4,0.5 62.4,0.7 C62.3,0.9 62.5,1.1 62.8,1.1 Z M58.5,1.1 C58.7,1.1 58.9,0.9 58.9,0.7 C58.9,0.5 58.7,0.3 58.5,0.3 C58.3,0.3 58.1,0.5 58.1,0.7 C58.1,0.9 58.3,1.1 58.5,1.1 Z M54.3,1.1 C54.5,1.1 54.7,0.9 54.7,0.7 C54.7,0.5 54.5,0.3 54.3,0.3 C54.1,0.3 53.9,0.5 53.9,0.7 C53.8,0.9 54,1.1 54.3,1.1 Z M50,1.1 C50.2,1.1 50.4,0.9 50.4,0.7 C50.4,0.5 50.2,0.3 50,0.3 C49.8,0.3 49.6,0.5 49.6,0.7 C49.6,0.9 49.8,1.1 50,1.1 Z M45.7,1.1 C45.9,1.1 46.1,0.9 46.1,0.7 C46.1,0.5 45.9,0.3 45.7,0.3 C45.5,0.3 45.3,0.5 45.3,0.7 C45.3,0.9 45.5,1.1 45.7,1.1 Z M41.5,1.1 C41.7,1.1 41.9,0.9 41.9,0.7 C41.9,0.5 41.7,0.3 41.5,0.3 C41.3,0.3 41.1,0.5 41.1,0.7 C41,0.9 41.2,1.1 41.5,1.1 Z M37.2,1.1 C37.4,1.1 37.6,0.9 37.6,0.7 C37.6,0.5 37.4,0.3 37.2,0.3 C37,0.3 36.8,0.5 36.8,0.7 C36.8,0.9 37,1.1 37.2,1.1 Z M33,1.1 C33.2,1.1 33.4,0.9 33.4,0.7 C33.4,0.5 33.2,0.3 33,0.3 C32.8,0.3 32.6,0.5 32.6,0.7 C32.5,0.9 32.7,1.1 33,1.1 Z M28.7,1.1 C28.9,1.1 29.1,0.9 29.1,0.7 C29.1,0.5 28.9,0.3 28.7,0.3 C28.5,0.3 28.3,0.5 28.3,0.7 C28.3,0.9 28.5,1.1 28.7,1.1 Z M24.5,1.1 C24.7,1.1 24.9,0.9 24.9,0.7 C24.9,0.5 24.7,0.3 24.5,0.3 C24.3,0.3 24.1,0.5 24.1,0.7 C24,0.9 24.2,1.1 24.5,1.1 Z M20.2,1.1 C20.4,1.1 20.6,0.9 20.6,0.7 C20.6,0.5 20.4,0.3 20.2,0.3 C20,0.3 19.8,0.5 19.8,0.7 C19.7,0.9 19.9,1.1 20.2,1.1 Z"></path>
                        <path d="M16.1,17.9 C16.3,17.9 16.5,17.7 16.5,17.5 C16.5,17.3 16.3,17.1 16.1,17.1 C15.9,17.1 15.7,17.3 15.7,17.5 C15.7,17.7 15.9,17.9 16.1,17.9 Z M11.9,17.9 C12.1,17.9 12.3,17.7 12.3,17.5 C12.3,17.3 12.1,17.1 11.9,17.1 C11.7,17.1 11.5,17.3 11.5,17.5 C11.4,17.7 11.6,17.9 11.9,17.9 Z M7.6,17.9 C7.8,17.9 8,17.7 8,17.5 C8,17.3 7.8,17.1 7.6,17.1 C7.4,17.1 7.2,17.3 7.2,17.5 C7.2,17.7 7.4,17.9 7.6,17.9 Z M3.4,17.9 C3.6,17.9 3.8,17.7 3.8,17.5 C3.8,17.3 3.6,17.1 3.4,17.1 C3.2,17.1 3,17.3 3,17.5 C2.9,17.7 3.1,17.9 3.4,17.9 Z M14,15.8 C14.2,15.8 14.4,15.6 14.4,15.4 C14.4,15.2 14.2,15 14,15 C13.8,15 13.6,15.2 13.6,15.4 C13.6,15.6 13.8,15.8 14,15.8 Z M9.8,15.8 C10,15.8 10.2,15.6 10.2,15.4 C10.2,15.2 10,15 9.8,15 C9.6,15 9.4,15.2 9.4,15.4 C9.3,15.6 9.5,15.8 9.8,15.8 Z M5.5,15.8 C5.7,15.8 5.9,15.6 5.9,15.4 C5.9,15.2 5.7,15 5.5,15 C5.3,15 5.1,15.2 5.1,15.4 C5.1,15.6 5.3,15.8 5.5,15.8 Z M1.3,15.8 C1.5,15.8 1.7,15.6 1.7,15.4 C1.7,15.2 1.5,15 1.3,15 C1.1,15 0.9,15.2 0.9,15.4 C0.8,15.6 1,15.8 1.3,15.8 Z M16.1,13.7 C16.3,13.7 16.5,13.5 16.5,13.3 C16.5,13.1 16.3,12.9 16.1,12.9 C15.9,12.9 15.7,13.1 15.7,13.3 C15.7,13.5 15.9,13.7 16.1,13.7 Z M11.9,13.7 C12.1,13.7 12.3,13.5 12.3,13.3 C12.3,13.1 12.1,12.9 11.9,12.9 C11.7,12.9 11.5,13.1 11.5,13.3 C11.4,13.5 11.6,13.7 11.9,13.7 Z M7.6,13.7 C7.8,13.7 8,13.5 8,13.3 C8,13.1 7.8,12.9 7.6,12.9 C7.4,12.9 7.2,13.1 7.2,13.3 C7.2,13.5 7.4,13.7 7.6,13.7 Z M3.4,13.7 C3.6,13.7 3.8,13.5 3.8,13.3 C3.8,13.1 3.6,12.9 3.4,12.9 C3.2,12.9 3,13.1 3,13.3 C2.9,13.5 3.1,13.7 3.4,13.7 Z M14,11.6 C14.2,11.6 14.4,11.4 14.4,11.2 C14.4,11 14.2,10.8 14,10.8 C13.8,10.8 13.6,11 13.6,11.2 C13.6,11.4 13.8,11.6 14,11.6 Z M9.8,11.6 C10,11.6 10.2,11.4 10.2,11.2 C10.2,11 10,10.8 9.8,10.8 C9.6,10.8 9.4,11 9.4,11.2 C9.3,11.4 9.5,11.6 9.8,11.6 Z M5.5,11.6 C5.7,11.6 5.9,11.4 5.9,11.2 C5.9,11 5.7,10.8 5.5,10.8 C5.3,10.8 5.1,11 5.1,11.2 C5.1,11.4 5.3,11.6 5.5,11.6 Z M1.3,11.6 C1.5,11.6 1.7,11.4 1.7,11.2 C1.7,11 1.5,10.8 1.3,10.8 C1.1,10.8 0.9,11 0.9,11.2 C0.8,11.4 1,11.6 1.3,11.6 Z M16.1,9.5 C16.3,9.5 16.5,9.3 16.5,9.1 C16.5,8.9 16.3,8.7 16.1,8.7 C15.9,8.7 15.7,8.9 15.7,9.1 C15.7,9.3 15.9,9.5 16.1,9.5 Z M11.9,9.5 C12.1,9.5 12.3,9.3 12.3,9.1 C12.3,8.9 12.1,8.7 11.9,8.7 C11.7,8.7 11.5,8.9 11.5,9.1 C11.4,9.3 11.6,9.5 11.9,9.5 Z M7.6,9.5 C7.8,9.5 8,9.3 8,9.1 C8,8.9 7.8,8.7 7.6,8.7 C7.4,8.7 7.2,8.9 7.2,9.1 C7.2,9.3 7.4,9.5 7.6,9.5 Z M3.4,9.5 C3.6,9.5 3.8,9.3 3.8,9.1 C3.8,8.9 3.6,8.7 3.4,8.7 C3.2,8.7 3,8.9 3,9.1 C2.9,9.3 3.1,9.5 3.4,9.5 Z M14,7.3 C14.2,7.3 14.4,7.1 14.4,6.9 C14.4,6.7 14.2,6.5 14,6.5 C13.8,6.5 13.6,6.7 13.6,6.9 C13.6,7.1 13.8,7.3 14,7.3 Z M9.8,7.3 C10,7.3 10.2,7.1 10.2,6.9 C10.2,6.7 10,6.5 9.8,6.5 C9.6,6.5 9.4,6.7 9.4,6.9 C9.3,7.1 9.5,7.3 9.8,7.3 Z M5.5,7.3 C5.7,7.3 5.9,7.1 5.9,6.9 C5.9,6.7 5.7,6.5 5.5,6.5 C5.3,6.5 5.1,6.7 5.1,6.9 C5.1,7.1 5.3,7.3 5.5,7.3 Z M1.3,7.3 C1.5,7.3 1.7,7.1 1.7,6.9 C1.7,6.7 1.5,6.5 1.3,6.5 C1.1,6.5 0.9,6.7 0.9,6.9 C0.8,7.1 1,7.3 1.3,7.3 Z M16.1,5.3 C16.3,5.3 16.5,5.1 16.5,4.9 C16.5,4.7 16.3,4.5 16.1,4.5 C15.9,4.5 15.7,4.7 15.7,4.9 C15.7,5.1 15.9,5.3 16.1,5.3 Z M11.9,5.3 C12.1,5.3 12.3,5.1 12.3,4.9 C12.3,4.7 12.1,4.5 11.9,4.5 C11.7,4.5 11.5,4.7 11.5,4.9 C11.4,5.1 11.6,5.3 11.9,5.3 Z M7.6,5.3 C7.8,5.3 8,5.1 8,4.9 C8,4.7 7.8,4.5 7.6,4.5 C7.4,4.5 7.2,4.7 7.2,4.9 C7.2,5.1 7.4,5.3 7.6,5.3 Z M3.4,5.3 C3.6,5.3 3.8,5.1 3.8,4.9 C3.8,4.7 3.6,4.5 3.4,4.5 C3.2,4.5 3,4.7 3,4.9 C2.9,5.1 3.1,5.3 3.4,5.3 Z M14,3.2 C14.2,3.2 14.4,3 14.4,2.8 C14.4,2.6 14.2,2.4 14,2.4 C13.8,2.4 13.6,2.6 13.6,2.8 C13.6,3 13.8,3.2 14,3.2 Z M9.8,3.2 C10,3.2 10.2,3 10.2,2.8 C10.2,2.6 10,2.4 9.8,2.4 C9.6,2.4 9.4,2.6 9.4,2.8 C9.3,3 9.5,3.2 9.8,3.2 Z M5.5,3.2 C5.7,3.2 5.9,3 5.9,2.8 C5.9,2.6 5.7,2.4 5.5,2.4 C5.3,2.4 5.1,2.6 5.1,2.8 C5.1,3 5.3,3.2 5.5,3.2 Z M1.3,3.2 C1.5,3.2 1.7,3 1.7,2.8 C1.7,2.6 1.5,2.4 1.3,2.4 C1.1,2.4 0.9,2.6 0.9,2.8 C0.8,3 1,3.2 1.3,3.2 Z M16.1,1 C16.3,1 16.5,0.8 16.5,0.6 C16.5,0.4 16.3,0.2 16.1,0.2 C15.9,0.2 15.7,0.4 15.7,0.6 C15.7,0.8 15.9,1 16.1,1 Z M11.9,1 C12.1,1 12.3,0.8 12.3,0.6 C12.3,0.4 12.1,0.2 11.9,0.2 C11.7,0.2 11.5,0.4 11.5,0.6 C11.4,0.8 11.6,1 11.9,1 Z M7.6,1 C7.8,1 8,0.8 8,0.6 C8,0.4 7.8,0.2 7.6,0.2 C7.4,0.2 7.2,0.4 7.2,0.6 C7.2,0.8 7.4,1 7.6,1 Z M3.4,1 C3.6,1 3.8,0.8 3.8,0.6 C3.8,0.4 3.6,0.2 3.4,0.2 C3.2,0.2 3,0.4 3,0.6 C2.9,0.8 3.1,1 3.4,1 Z"></path>
                    </g>
                    <g>
                        <path d="M71.4,18 C71.6,18 71.8,17.8 71.8,17.6 C71.8,17.4 71.6,17.2 71.4,17.2 C71.2,17.2 71,17.4 71,17.6 C70.9,17.8 71.1,18 71.4,18 Z M67.1,18 C67.3,18 67.5,17.8 67.5,17.6 C67.5,17.4 67.3,17.2 67.1,17.2 C66.9,17.2 66.7,17.4 66.7,17.6 C66.7,17.8 66.9,18 67.1,18 Z M62.8,18 C63,18 63.2,17.8 63.2,17.6 C63.2,17.4 63,17.2 62.8,17.2 C62.6,17.2 62.4,17.4 62.4,17.6 C62.4,17.8 62.6,18 62.8,18 Z M58.6,18 C58.8,18 59,17.8 59,17.6 C59,17.4 58.8,17.2 58.6,17.2 C58.4,17.2 58.2,17.4 58.2,17.6 C58.1,17.8 58.3,18 58.6,18 Z M54.3,18 C54.5,18 54.7,17.8 54.7,17.6 C54.7,17.4 54.5,17.2 54.3,17.2 C54.1,17.2 53.9,17.4 53.9,17.6 C53.9,17.8 54.1,18 54.3,18 Z M50.1,18 C50.3,18 50.5,17.8 50.5,17.6 C50.5,17.4 50.3,17.2 50.1,17.2 C49.9,17.2 49.7,17.4 49.7,17.6 C49.6,17.8 49.8,18 50.1,18 Z M45.8,18 C46,18 46.2,17.8 46.2,17.6 C46.2,17.4 46,17.2 45.8,17.2 C45.6,17.2 45.4,17.4 45.4,17.6 C45.4,17.8 45.6,18 45.8,18 Z M41.6,18 C41.8,18 42,17.8 42,17.6 C42,17.4 41.8,17.2 41.6,17.2 C41.4,17.2 41.2,17.4 41.2,17.6 C41.1,17.8 41.3,18 41.6,18 Z M37.3,18 C37.5,18 37.7,17.8 37.7,17.6 C37.7,17.4 37.5,17.2 37.3,17.2 C37.1,17.2 36.9,17.4 36.9,17.6 C36.8,17.8 37,18 37.3,18 Z M33,18 C33.2,18 33.4,17.8 33.4,17.6 C33.4,17.4 33.2,17.2 33,17.2 C32.8,17.2 32.6,17.4 32.6,17.6 C32.6,17.8 32.8,18 33,18 Z M28.8,18 C29,18 29.2,17.8 29.2,17.6 C29.2,17.4 29,17.2 28.8,17.2 C28.6,17.2 28.4,17.4 28.4,17.6 C28.3,17.8 28.5,18 28.8,18 Z M24.5,18 C24.7,18 24.9,17.8 24.9,17.6 C24.9,17.4 24.7,17.2 24.5,17.2 C24.3,17.2 24.1,17.4 24.1,17.6 C24.1,17.8 24.3,18 24.5,18 Z M20.3,18 C20.5,18 20.7,17.8 20.7,17.6 C20.7,17.4 20.5,17.2 20.3,17.2 C20.1,17.2 19.9,17.4 19.9,17.6 C19.8,17.8 20,18 20.3,18 Z M69.3,15.9 C69.5,15.9 69.7,15.7 69.7,15.5 C69.7,15.3 69.5,15.1 69.3,15.1 C69.1,15.1 68.9,15.3 68.9,15.5 C68.8,15.7 69,15.9 69.3,15.9 Z M65,15.9 C65.2,15.9 65.4,15.7 65.4,15.5 C65.4,15.3 65.2,15.1 65,15.1 C64.8,15.1 64.6,15.3 64.6,15.5 C64.5,15.7 64.7,15.9 65,15.9 Z M60.7,15.9 C60.9,15.9 61.1,15.7 61.1,15.5 C61.1,15.3 60.9,15.1 60.7,15.1 C60.5,15.1 60.3,15.3 60.3,15.5 C60.3,15.7 60.5,15.9 60.7,15.9 Z M56.5,15.9 C56.7,15.9 56.9,15.7 56.9,15.5 C56.9,15.3 56.7,15.1 56.5,15.1 C56.3,15.1 56.1,15.3 56.1,15.5 C56,15.7 56.2,15.9 56.5,15.9 Z M52.2,15 C52,15 51.8,15.2 51.8,15.4 C51.8,15.6 52,15.8 52.2,15.8 C52.4,15.8 52.6,15.6 52.6,15.4 C52.7,15.2 52.5,15 52.2,15 Z M48,15 C47.8,15 47.6,15.2 47.6,15.4 C47.6,15.6 47.8,15.8 48,15.8 C48.2,15.8 48.4,15.6 48.4,15.4 C48.4,15.2 48.2,15 48,15 Z M43.7,15.9 C43.9,15.9 44.1,15.7 44.1,15.5 C44.1,15.3 43.9,15.1 43.7,15.1 C43.5,15.1 43.3,15.3 43.3,15.5 C43.3,15.7 43.5,15.9 43.7,15.9 Z M39.5,15.9 C39.7,15.9 39.9,15.7 39.9,15.5 C39.9,15.3 39.7,15.1 39.5,15.1 C39.3,15.1 39.1,15.3 39.1,15.5 C39,15.7 39.2,15.9 39.5,15.9 Z M35.2,15.9 C35.4,15.9 35.6,15.7 35.6,15.5 C35.6,15.3 35.4,15.1 35.2,15.1 C35,15.1 34.8,15.3 34.8,15.5 C34.7,15.7 34.9,15.9 35.2,15.9 Z M30.9,15.9 C31.1,15.9 31.3,15.7 31.3,15.5 C31.3,15.3 31.1,15.1 30.9,15.1 C30.7,15.1 30.5,15.3 30.5,15.5 C30.5,15.7 30.7,15.9 30.9,15.9 Z M26.7,15.9 C26.9,15.9 27.1,15.7 27.1,15.5 C27.1,15.3 26.9,15.1 26.7,15.1 C26.5,15.1 26.3,15.3 26.3,15.5 C26.2,15.7 26.4,15.9 26.7,15.9 Z M22.4,15.9 C22.6,15.9 22.8,15.7 22.8,15.5 C22.8,15.3 22.6,15.1 22.4,15.1 C22.2,15.1 22,15.3 22,15.5 C22,15.7 22.2,15.9 22.4,15.9 Z M18.2,15.9 C18.4,15.9 18.6,15.7 18.6,15.5 C18.6,15.3 18.4,15.1 18.2,15.1 C18,15.1 17.8,15.3 17.8,15.5 C17.7,15.7 17.9,15.9 18.2,15.9 Z M71.4,13.8 C71.6,13.8 71.8,13.6 71.8,13.4 C71.8,13.2 71.6,13 71.4,13 C71.2,13 71,13.2 71,13.4 C70.9,13.6 71.1,13.8 71.4,13.8 Z M67.1,13.8 C67.3,13.8 67.5,13.6 67.5,13.4 C67.5,13.2 67.3,13 67.1,13 C66.9,13 66.7,13.2 66.7,13.4 C66.7,13.6 66.9,13.8 67.1,13.8 Z M62.8,13.8 C63,13.8 63.2,13.6 63.2,13.4 C63.2,13.2 63,13 62.8,13 C62.6,13 62.4,13.2 62.4,13.4 C62.4,13.6 62.6,13.8 62.8,13.8 Z M58.6,13.8 C58.8,13.8 59,13.6 59,13.4 C59,13.2 58.8,13 58.6,13 C58.4,13 58.2,13.2 58.2,13.4 C58.1,13.6 58.3,13.8 58.6,13.8 Z M54.3,13.8 C54.5,13.8 54.7,13.6 54.7,13.4 C54.7,13.2 54.5,13 54.3,13 C54.1,13 53.9,13.2 53.9,13.4 C53.9,13.6 54.1,13.8 54.3,13.8 Z M50.1,13.8 C50.3,13.8 50.5,13.6 50.5,13.4 C50.5,13.2 50.3,13 50.1,13 C49.9,13 49.7,13.2 49.7,13.4 C49.6,13.6 49.8,13.8 50.1,13.8 Z M45.8,13.8 C46,13.8 46.2,13.6 46.2,13.4 C46.2,13.2 46,13 45.8,13 C45.6,13 45.4,13.2 45.4,13.4 C45.4,13.6 45.6,13.8 45.8,13.8 Z M41.6,13.8 C41.8,13.8 42,13.6 42,13.4 C42,13.2 41.8,13 41.6,13 C41.4,13 41.2,13.2 41.2,13.4 C41.1,13.6 41.3,13.8 41.6,13.8 Z M37.3,13.8 C37.5,13.8 37.7,13.6 37.7,13.4 C37.7,13.2 37.5,13 37.3,13 C37.1,13 36.9,13.2 36.9,13.4 C36.8,13.6 37,13.8 37.3,13.8 Z M33,13.8 C33.2,13.8 33.4,13.6 33.4,13.4 C33.4,13.2 33.2,13 33,13 C32.8,13 32.6,13.2 32.6,13.4 C32.6,13.6 32.8,13.8 33,13.8 Z M28.8,13.8 C29,13.8 29.2,13.6 29.2,13.4 C29.2,13.2 29,13 28.8,13 C28.6,13 28.4,13.2 28.4,13.4 C28.3,13.6 28.5,13.8 28.8,13.8 Z M24.5,13.8 C24.7,13.8 24.9,13.6 24.9,13.4 C24.9,13.2 24.7,13 24.5,13 C24.3,13 24.1,13.2 24.1,13.4 C24.1,13.6 24.3,13.8 24.5,13.8 Z M20.3,13.8 C20.5,13.8 20.7,13.6 20.7,13.4 C20.7,13.2 20.5,13 20.3,13 C20.1,13 19.9,13.2 19.9,13.4 C19.8,13.6 20,13.8 20.3,13.8 Z M69.3,11.7 C69.5,11.7 69.7,11.5 69.7,11.3 C69.7,11.1 69.5,10.9 69.3,10.9 C69.1,10.9 68.9,11.1 68.9,11.3 C68.8,11.5 69,11.7 69.3,11.7 Z M65,11.7 C65.2,11.7 65.4,11.5 65.4,11.3 C65.4,11.1 65.2,10.9 65,10.9 C64.8,10.9 64.6,11.1 64.6,11.3 C64.5,11.5 64.7,11.7 65,11.7 Z M60.7,11.7 C60.9,11.7 61.1,11.5 61.1,11.3 C61.1,11.1 60.9,10.9 60.7,10.9 C60.5,10.9 60.3,11.1 60.3,11.3 C60.3,11.5 60.5,11.7 60.7,11.7 Z M56.5,11.7 C56.7,11.7 56.9,11.5 56.9,11.3 C56.9,11.1 56.7,10.9 56.5,10.9 C56.3,10.9 56.1,11.1 56.1,11.3 C56,11.5 56.2,11.7 56.5,11.7 Z M52.2,10.8 C52,10.8 51.8,11 51.8,11.2 C51.8,11.4 52,11.6 52.2,11.6 C52.4,11.6 52.6,11.4 52.6,11.2 C52.7,11 52.5,10.8 52.2,10.8 Z M48,10.8 C47.8,10.8 47.6,11 47.6,11.2 C47.6,11.4 47.8,11.6 48,11.6 C48.2,11.6 48.4,11.4 48.4,11.2 C48.4,11 48.2,10.8 48,10.8 Z M43.7,11.7 C43.9,11.7 44.1,11.5 44.1,11.3 C44.1,11.1 43.9,10.9 43.7,10.9 C43.5,10.9 43.3,11.1 43.3,11.3 C43.3,11.5 43.5,11.7 43.7,11.7 Z M39.5,11.7 C39.7,11.7 39.9,11.5 39.9,11.3 C39.9,11.1 39.7,10.9 39.5,10.9 C39.3,10.9 39.1,11.1 39.1,11.3 C39,11.5 39.2,11.7 39.5,11.7 Z M35.2,11.7 C35.4,11.7 35.6,11.5 35.6,11.3 C35.6,11.1 35.4,10.9 35.2,10.9 C35,10.9 34.8,11.1 34.8,11.3 C34.7,11.5 34.9,11.7 35.2,11.7 Z M30.9,11.7 C31.1,11.7 31.3,11.5 31.3,11.3 C31.3,11.1 31.1,10.9 30.9,10.9 C30.7,10.9 30.5,11.1 30.5,11.3 C30.5,11.5 30.7,11.7 30.9,11.7 Z M26.7,11.7 C26.9,11.7 27.1,11.5 27.1,11.3 C27.1,11.1 26.9,10.9 26.7,10.9 C26.5,10.9 26.3,11.1 26.3,11.3 C26.2,11.5 26.4,11.7 26.7,11.7 Z M22.4,11.7 C22.6,11.7 22.8,11.5 22.8,11.3 C22.8,11.1 22.6,10.9 22.4,10.9 C22.2,10.9 22,11.1 22,11.3 C22,11.5 22.2,11.7 22.4,11.7 Z M18.2,11.7 C18.4,11.7 18.6,11.5 18.6,11.3 C18.6,11.1 18.4,10.9 18.2,10.9 C18,10.9 17.8,11.1 17.8,11.3 C17.7,11.5 17.9,11.7 18.2,11.7 Z M71.4,9.6 C71.6,9.6 71.8,9.4 71.8,9.2 C71.8,9 71.6,8.8 71.4,8.8 C71.2,8.8 71,9 71,9.2 C70.9,9.4 71.1,9.6 71.4,9.6 Z M67.1,9.6 C67.3,9.6 67.5,9.4 67.5,9.2 C67.5,9 67.3,8.8 67.1,8.8 C66.9,8.8 66.7,9 66.7,9.2 C66.7,9.4 66.9,9.6 67.1,9.6 Z M62.8,9.6 C63,9.6 63.2,9.4 63.2,9.2 C63.2,9 63,8.8 62.8,8.8 C62.6,8.8 62.4,9 62.4,9.2 C62.4,9.4 62.6,9.6 62.8,9.6 Z M58.6,9.6 C58.8,9.6 59,9.4 59,9.2 C59,9 58.8,8.8 58.6,8.8 C58.4,8.8 58.2,9 58.2,9.2 C58.1,9.4 58.3,9.6 58.6,9.6 Z M54.3,9.6 C54.5,9.6 54.7,9.4 54.7,9.2 C54.7,9 54.5,8.8 54.3,8.8 C54.1,8.8 53.9,9 53.9,9.2 C53.9,9.4 54.1,9.6 54.3,9.6 Z M50.1,9.6 C50.3,9.6 50.5,9.4 50.5,9.2 C50.5,9 50.3,8.8 50.1,8.8 C49.9,8.8 49.7,9 49.7,9.2 C49.6,9.4 49.8,9.6 50.1,9.6 Z M45.8,9.6 C46,9.6 46.2,9.4 46.2,9.2 C46.2,9 46,8.8 45.8,8.8 C45.6,8.8 45.4,9 45.4,9.2 C45.4,9.4 45.6,9.6 45.8,9.6 Z M41.6,9.6 C41.8,9.6 42,9.4 42,9.2 C42,9 41.8,8.8 41.6,8.8 C41.4,8.8 41.2,9 41.2,9.2 C41.1,9.4 41.3,9.6 41.6,9.6 Z M37.3,9.6 C37.5,9.6 37.7,9.4 37.7,9.2 C37.7,9 37.5,8.8 37.3,8.8 C37.1,8.8 36.9,9 36.9,9.2 C36.8,9.4 37,9.6 37.3,9.6 Z M33,9.6 C33.2,9.6 33.4,9.4 33.4,9.2 C33.4,9 33.2,8.8 33,8.8 C32.8,8.8 32.6,9 32.6,9.2 C32.6,9.4 32.8,9.6 33,9.6 Z M28.8,9.6 C29,9.6 29.2,9.4 29.2,9.2 C29.2,9 29,8.8 28.8,8.8 C28.6,8.8 28.4,9 28.4,9.2 C28.3,9.4 28.5,9.6 28.8,9.6 Z M24.5,9.6 C24.7,9.6 24.9,9.4 24.9,9.2 C24.9,9 24.7,8.8 24.5,8.8 C24.3,8.8 24.1,9 24.1,9.2 C24.1,9.4 24.3,9.6 24.5,9.6 Z M20.3,9.6 C20.5,9.6 20.7,9.4 20.7,9.2 C20.7,9 20.5,8.8 20.3,8.8 C20.1,8.8 19.9,9 19.9,9.2 C19.8,9.4 20,9.6 20.3,9.6 Z M69.3,7.4 C69.5,7.4 69.7,7.2 69.7,7 C69.7,6.8 69.5,6.6 69.3,6.6 C69.1,6.6 68.9,6.8 68.9,7 C68.8,7.2 69,7.4 69.3,7.4 Z M65,7.4 C65.2,7.4 65.4,7.2 65.4,7 C65.4,6.8 65.2,6.6 65,6.6 C64.8,6.6 64.6,6.8 64.6,7 C64.5,7.2 64.7,7.4 65,7.4 Z M60.7,7.4 C60.9,7.4 61.1,7.2 61.1,7 C61.1,6.8 60.9,6.6 60.7,6.6 C60.5,6.6 60.3,6.8 60.3,7 C60.3,7.2 60.5,7.4 60.7,7.4 Z M56.5,7.4 C56.7,7.4 56.9,7.2 56.9,7 C56.9,6.8 56.7,6.6 56.5,6.6 C56.3,6.6 56.1,6.8 56.1,7 C56,7.2 56.2,7.4 56.5,7.4 Z M52.2,6.5 C52,6.5 51.8,6.7 51.8,6.9 C51.8,7.1 52,7.3 52.2,7.3 C52.4,7.3 52.6,7.1 52.6,6.9 C52.7,6.7 52.5,6.5 52.2,6.5 Z M48,6.5 C47.8,6.5 47.6,6.7 47.6,6.9 C47.6,7.1 47.8,7.3 48,7.3 C48.2,7.3 48.4,7.1 48.4,6.9 C48.4,6.7 48.2,6.5 48,6.5 Z M43.7,7.4 C43.9,7.4 44.1,7.2 44.1,7 C44.1,6.8 43.9,6.6 43.7,6.6 C43.5,6.6 43.3,6.8 43.3,7 C43.3,7.2 43.5,7.4 43.7,7.4 Z M39.5,7.4 C39.7,7.4 39.9,7.2 39.9,7 C39.9,6.8 39.7,6.6 39.5,6.6 C39.3,6.6 39.1,6.8 39.1,7 C39,7.2 39.2,7.4 39.5,7.4 Z M35.2,7.4 C35.4,7.4 35.6,7.2 35.6,7 C35.6,6.8 35.4,6.6 35.2,6.6 C35,6.6 34.8,6.8 34.8,7 C34.7,7.2 34.9,7.4 35.2,7.4 Z M30.9,7.4 C31.1,7.4 31.3,7.2 31.3,7 C31.3,6.8 31.1,6.6 30.9,6.6 C30.7,6.6 30.5,6.8 30.5,7 C30.5,7.2 30.7,7.4 30.9,7.4 Z M26.7,7.4 C26.9,7.4 27.1,7.2 27.1,7 C27.1,6.8 26.9,6.6 26.7,6.6 C26.5,6.6 26.3,6.8 26.3,7 C26.2,7.2 26.4,7.4 26.7,7.4 Z M22.4,7.4 C22.6,7.4 22.8,7.2 22.8,7 C22.8,6.8 22.6,6.6 22.4,6.6 C22.2,6.6 22,6.8 22,7 C22,7.2 22.2,7.4 22.4,7.4 Z M18.2,7.4 C18.4,7.4 18.6,7.2 18.6,7 C18.6,6.8 18.4,6.6 18.2,6.6 C18,6.6 17.8,6.8 17.8,7 C17.7,7.2 17.9,7.4 18.2,7.4 Z M71.4,5.4 C71.6,5.4 71.8,5.2 71.8,5 C71.8,4.8 71.6,4.6 71.4,4.6 C71.2,4.6 71,4.8 71,5 C70.9,5.2 71.1,5.4 71.4,5.4 Z M67.1,5.4 C67.3,5.4 67.5,5.2 67.5,5 C67.5,4.8 67.3,4.6 67.1,4.6 C66.9,4.6 66.7,4.8 66.7,5 C66.7,5.2 66.9,5.4 67.1,5.4 Z M62.8,5.4 C63,5.4 63.2,5.2 63.2,5 C63.2,4.8 63,4.6 62.8,4.6 C62.6,4.6 62.4,4.8 62.4,5 C62.4,5.2 62.6,5.4 62.8,5.4 Z M58.6,5.4 C58.8,5.4 59,5.2 59,5 C59,4.8 58.8,4.6 58.6,4.6 C58.4,4.6 58.2,4.8 58.2,5 C58.1,5.2 58.3,5.4 58.6,5.4 Z M54.3,5.4 C54.5,5.4 54.7,5.2 54.7,5 C54.7,4.8 54.5,4.6 54.3,4.6 C54.1,4.6 53.9,4.8 53.9,5 C53.9,5.2 54.1,5.4 54.3,5.4 Z M50.1,5.4 C50.3,5.4 50.5,5.2 50.5,5 C50.5,4.8 50.3,4.6 50.1,4.6 C49.9,4.6 49.7,4.8 49.7,5 C49.6,5.2 49.8,5.4 50.1,5.4 Z M45.8,5.4 C46,5.4 46.2,5.2 46.2,5 C46.2,4.8 46,4.6 45.8,4.6 C45.6,4.6 45.4,4.8 45.4,5 C45.4,5.2 45.6,5.4 45.8,5.4 Z M41.6,5.4 C41.8,5.4 42,5.2 42,5 C42,4.8 41.8,4.6 41.6,4.6 C41.4,4.6 41.2,4.8 41.2,5 C41.1,5.2 41.3,5.4 41.6,5.4 Z M37.3,5.4 C37.5,5.4 37.7,5.2 37.7,5 C37.7,4.8 37.5,4.6 37.3,4.6 C37.1,4.6 36.9,4.8 36.9,5 C36.8,5.2 37,5.4 37.3,5.4 Z M33,5.4 C33.2,5.4 33.4,5.2 33.4,5 C33.4,4.8 33.2,4.6 33,4.6 C32.8,4.6 32.6,4.8 32.6,5 C32.6,5.2 32.8,5.4 33,5.4 Z M28.8,5.4 C29,5.4 29.2,5.2 29.2,5 C29.2,4.8 29,4.6 28.8,4.6 C28.6,4.6 28.4,4.8 28.4,5 C28.3,5.2 28.5,5.4 28.8,5.4 Z M24.5,5.4 C24.7,5.4 24.9,5.2 24.9,5 C24.9,4.8 24.7,4.6 24.5,4.6 C24.3,4.6 24.1,4.8 24.1,5 C24.1,5.2 24.3,5.4 24.5,5.4 Z M20.3,5.4 C20.5,5.4 20.7,5.2 20.7,5 C20.7,4.8 20.5,4.6 20.3,4.6 C20.1,4.6 19.9,4.8 19.9,5 C19.8,5.2 20,5.4 20.3,5.4 Z M69.3,3.2 C69.5,3.2 69.7,3 69.7,2.8 C69.7,2.6 69.5,2.4 69.3,2.4 C69.1,2.4 68.9,2.6 68.9,2.8 C68.8,3 69,3.2 69.3,3.2 Z M65,3.2 C65.2,3.2 65.4,3 65.4,2.8 C65.4,2.6 65.2,2.4 65,2.4 C64.8,2.4 64.6,2.6 64.6,2.8 C64.5,3 64.7,3.2 65,3.2 Z M60.7,3.2 C60.9,3.2 61.1,3 61.1,2.8 C61.1,2.6 60.9,2.4 60.7,2.4 C60.5,2.4 60.3,2.6 60.3,2.8 C60.3,3 60.5,3.2 60.7,3.2 Z M56.5,3.2 C56.7,3.2 56.9,3 56.9,2.8 C56.9,2.6 56.7,2.4 56.5,2.4 C56.3,2.4 56.1,2.6 56.1,2.8 C56,3 56.2,3.2 56.5,3.2 Z M52.2,2.4 C52,2.4 51.8,2.6 51.8,2.8 C51.8,3 52,3.2 52.2,3.2 C52.4,3.2 52.6,3 52.6,2.8 C52.7,2.6 52.5,2.4 52.2,2.4 Z M48,2.4 C47.8,2.4 47.6,2.6 47.6,2.8 C47.6,3 47.8,3.2 48,3.2 C48.2,3.2 48.4,3 48.4,2.8 C48.4,2.6 48.2,2.4 48,2.4 Z M43.7,3.2 C43.9,3.2 44.1,3 44.1,2.8 C44.1,2.6 43.9,2.4 43.7,2.4 C43.5,2.4 43.3,2.6 43.3,2.8 C43.3,3 43.5,3.2 43.7,3.2 Z M39.5,3.2 C39.7,3.2 39.9,3 39.9,2.8 C39.9,2.6 39.7,2.4 39.5,2.4 C39.3,2.4 39.1,2.6 39.1,2.8 C39,3 39.2,3.2 39.5,3.2 Z M35.2,3.2 C35.4,3.2 35.6,3 35.6,2.8 C35.6,2.6 35.4,2.4 35.2,2.4 C35,2.4 34.8,2.6 34.8,2.8 C34.7,3 34.9,3.2 35.2,3.2 Z M30.9,3.2 C31.1,3.2 31.3,3 31.3,2.8 C31.3,2.6 31.1,2.4 30.9,2.4 C30.7,2.4 30.5,2.6 30.5,2.8 C30.5,3 30.7,3.2 30.9,3.2 Z M26.7,3.2 C26.9,3.2 27.1,3 27.1,2.8 C27.1,2.6 26.9,2.4 26.7,2.4 C26.5,2.4 26.3,2.6 26.3,2.8 C26.2,3 26.4,3.2 26.7,3.2 Z M22.4,3.2 C22.6,3.2 22.8,3 22.8,2.8 C22.8,2.6 22.6,2.4 22.4,2.4 C22.2,2.4 22,2.6 22,2.8 C22,3 22.2,3.2 22.4,3.2 Z M18.2,3.2 C18.4,3.2 18.6,3 18.6,2.8 C18.6,2.6 18.4,2.4 18.2,2.4 C18,2.4 17.8,2.6 17.8,2.8 C17.7,3 17.9,3.2 18.2,3.2 Z M71.4,1.1 C71.6,1.1 71.8,0.9 71.8,0.7 C71.8,0.5 71.6,0.3 71.4,0.3 C71.2,0.3 71,0.5 71,0.7 C70.9,0.9 71.1,1.1 71.4,1.1 Z M67.1,1.1 C67.3,1.1 67.5,0.9 67.5,0.7 C67.5,0.5 67.3,0.3 67.1,0.3 C66.9,0.3 66.7,0.5 66.7,0.7 C66.7,0.9 66.9,1.1 67.1,1.1 Z M62.8,1.1 C63,1.1 63.2,0.9 63.2,0.7 C63.2,0.5 63,0.3 62.8,0.3 C62.6,0.3 62.4,0.5 62.4,0.7 C62.4,0.9 62.6,1.1 62.8,1.1 Z M58.6,1.1 C58.8,1.1 59,0.9 59,0.7 C59,0.5 58.8,0.3 58.6,0.3 C58.4,0.3 58.2,0.5 58.2,0.7 C58.1,0.9 58.3,1.1 58.6,1.1 Z M54.3,1.1 C54.5,1.1 54.7,0.9 54.7,0.7 C54.7,0.5 54.5,0.3 54.3,0.3 C54.1,0.3 53.9,0.5 53.9,0.7 C53.9,0.9 54.1,1.1 54.3,1.1 Z M50.1,1.1 C50.3,1.1 50.5,0.9 50.5,0.7 C50.5,0.5 50.3,0.3 50.1,0.3 C49.9,0.3 49.7,0.5 49.7,0.7 C49.6,0.9 49.8,1.1 50.1,1.1 Z M45.8,1.1 C46,1.1 46.2,0.9 46.2,0.7 C46.2,0.5 46,0.3 45.8,0.3 C45.6,0.3 45.4,0.5 45.4,0.7 C45.4,0.9 45.6,1.1 45.8,1.1 Z M41.6,1.1 C41.8,1.1 42,0.9 42,0.7 C42,0.5 41.8,0.3 41.6,0.3 C41.4,0.3 41.2,0.5 41.2,0.7 C41.1,0.9 41.3,1.1 41.6,1.1 Z M37.3,1.1 C37.5,1.1 37.7,0.9 37.7,0.7 C37.7,0.5 37.5,0.3 37.3,0.3 C37.1,0.3 36.9,0.5 36.9,0.7 C36.8,0.9 37,1.1 37.3,1.1 Z M33,1.1 C33.2,1.1 33.4,0.9 33.4,0.7 C33.4,0.5 33.2,0.3 33,0.3 C32.8,0.3 32.6,0.5 32.6,0.7 C32.6,0.9 32.8,1.1 33,1.1 Z M28.8,1.1 C29,1.1 29.2,0.9 29.2,0.7 C29.2,0.5 29,0.3 28.8,0.3 C28.6,0.3 28.4,0.5 28.4,0.7 C28.3,0.9 28.5,1.1 28.8,1.1 Z M24.5,1.1 C24.7,1.1 24.9,0.9 24.9,0.7 C24.9,0.5 24.7,0.3 24.5,0.3 C24.3,0.3 24.1,0.5 24.1,0.7 C24.1,0.9 24.3,1.1 24.5,1.1 Z M20.3,1.1 C20.5,1.1 20.7,0.9 20.7,0.7 C20.7,0.5 20.5,0.3 20.3,0.3 C20.1,0.3 19.9,0.5 19.9,0.7 C19.8,0.9 20,1.1 20.3,1.1 Z"></path>
                        <path d="M16.2,17.9 C16.4,17.9 16.6,17.7 16.6,17.5 C16.6,17.3 16.4,17.1 16.2,17.1 C16,17.1 15.8,17.3 15.8,17.5 C15.8,17.7 16,17.9 16.2,17.9 Z M11.9,17.9 C12.1,17.9 12.3,17.7 12.3,17.5 C12.3,17.3 12.1,17.1 11.9,17.1 C11.7,17.1 11.5,17.3 11.5,17.5 C11.5,17.7 11.7,17.9 11.9,17.9 Z M7.7,17.9 C7.9,17.9 8.1,17.7 8.1,17.5 C8.1,17.3 7.9,17.1 7.7,17.1 C7.5,17.1 7.3,17.3 7.3,17.5 C7.2,17.7 7.4,17.9 7.7,17.9 Z M3.4,17.9 C3.6,17.9 3.8,17.7 3.8,17.5 C3.8,17.3 3.6,17.1 3.4,17.1 C3.2,17.1 3,17.3 3,17.5 C3,17.7 3.2,17.9 3.4,17.9 Z M14.1,15.8 C14.3,15.8 14.5,15.6 14.5,15.4 C14.5,15.2 14.3,15 14.1,15 C13.9,15 13.7,15.2 13.7,15.4 C13.6,15.6 13.8,15.8 14.1,15.8 Z M9.8,15.8 C10,15.8 10.2,15.6 10.2,15.4 C10.2,15.2 10,15 9.8,15 C9.6,15 9.4,15.2 9.4,15.4 C9.4,15.6 9.6,15.8 9.8,15.8 Z M5.6,15.8 C5.8,15.8 6,15.6 6,15.4 C6,15.2 5.8,15 5.6,15 C5.4,15 5.2,15.2 5.2,15.4 C5.1,15.6 5.3,15.8 5.6,15.8 Z M1.3,15.8 C1.5,15.8 1.7,15.6 1.7,15.4 C1.7,15.2 1.5,15 1.3,15 C1.1,15 0.9,15.2 0.9,15.4 C0.9,15.6 1.1,15.8 1.3,15.8 Z M16.2,13.7 C16.4,13.7 16.6,13.5 16.6,13.3 C16.6,13.1 16.4,12.9 16.2,12.9 C16,12.9 15.8,13.1 15.8,13.3 C15.8,13.5 16,13.7 16.2,13.7 Z M11.9,13.7 C12.1,13.7 12.3,13.5 12.3,13.3 C12.3,13.1 12.1,12.9 11.9,12.9 C11.7,12.9 11.5,13.1 11.5,13.3 C11.5,13.5 11.7,13.7 11.9,13.7 Z M7.7,13.7 C7.9,13.7 8.1,13.5 8.1,13.3 C8.1,13.1 7.9,12.9 7.7,12.9 C7.5,12.9 7.3,13.1 7.3,13.3 C7.2,13.5 7.4,13.7 7.7,13.7 Z M3.4,13.7 C3.6,13.7 3.8,13.5 3.8,13.3 C3.8,13.1 3.6,12.9 3.4,12.9 C3.2,12.9 3,13.1 3,13.3 C3,13.5 3.2,13.7 3.4,13.7 Z M14.1,11.6 C14.3,11.6 14.5,11.4 14.5,11.2 C14.5,11 14.3,10.8 14.1,10.8 C13.9,10.8 13.7,11 13.7,11.2 C13.6,11.4 13.8,11.6 14.1,11.6 Z M9.8,11.6 C10,11.6 10.2,11.4 10.2,11.2 C10.2,11 10,10.8 9.8,10.8 C9.6,10.8 9.4,11 9.4,11.2 C9.4,11.4 9.6,11.6 9.8,11.6 Z M5.6,11.6 C5.8,11.6 6,11.4 6,11.2 C6,11 5.8,10.8 5.6,10.8 C5.4,10.8 5.2,11 5.2,11.2 C5.1,11.4 5.3,11.6 5.6,11.6 Z M1.3,11.6 C1.5,11.6 1.7,11.4 1.7,11.2 C1.7,11 1.5,10.8 1.3,10.8 C1.1,10.8 0.9,11 0.9,11.2 C0.9,11.4 1.1,11.6 1.3,11.6 Z M16.2,9.5 C16.4,9.5 16.6,9.3 16.6,9.1 C16.6,8.9 16.4,8.7 16.2,8.7 C16,8.7 15.8,8.9 15.8,9.1 C15.8,9.3 16,9.5 16.2,9.5 Z M11.9,9.5 C12.1,9.5 12.3,9.3 12.3,9.1 C12.3,8.9 12.1,8.7 11.9,8.7 C11.7,8.7 11.5,8.9 11.5,9.1 C11.5,9.3 11.7,9.5 11.9,9.5 Z M7.7,9.5 C7.9,9.5 8.1,9.3 8.1,9.1 C8.1,8.9 7.9,8.7 7.7,8.7 C7.5,8.7 7.3,8.9 7.3,9.1 C7.2,9.3 7.4,9.5 7.7,9.5 Z M3.4,9.5 C3.6,9.5 3.8,9.3 3.8,9.1 C3.8,8.9 3.6,8.7 3.4,8.7 C3.2,8.7 3,8.9 3,9.1 C3,9.3 3.2,9.5 3.4,9.5 Z M14.1,7.3 C14.3,7.3 14.5,7.1 14.5,6.9 C14.5,6.7 14.3,6.5 14.1,6.5 C13.9,6.5 13.7,6.7 13.7,6.9 C13.6,7.1 13.8,7.3 14.1,7.3 Z M9.8,7.3 C10,7.3 10.2,7.1 10.2,6.9 C10.2,6.7 10,6.5 9.8,6.5 C9.6,6.5 9.4,6.7 9.4,6.9 C9.4,7.1 9.6,7.3 9.8,7.3 Z M5.6,7.3 C5.8,7.3 6,7.1 6,6.9 C6,6.7 5.8,6.5 5.6,6.5 C5.4,6.5 5.2,6.7 5.2,6.9 C5.1,7.1 5.3,7.3 5.6,7.3 Z M1.3,7.3 C1.5,7.3 1.7,7.1 1.7,6.9 C1.7,6.7 1.5,6.5 1.3,6.5 C1.1,6.5 0.9,6.7 0.9,6.9 C0.9,7.1 1.1,7.3 1.3,7.3 Z M16.2,5.3 C16.4,5.3 16.6,5.1 16.6,4.9 C16.6,4.7 16.4,4.5 16.2,4.5 C16,4.5 15.8,4.7 15.8,4.9 C15.8,5.1 16,5.3 16.2,5.3 Z M11.9,5.3 C12.1,5.3 12.3,5.1 12.3,4.9 C12.3,4.7 12.1,4.5 11.9,4.5 C11.7,4.5 11.5,4.7 11.5,4.9 C11.5,5.1 11.7,5.3 11.9,5.3 Z M7.7,5.3 C7.9,5.3 8.1,5.1 8.1,4.9 C8.1,4.7 7.9,4.5 7.7,4.5 C7.5,4.5 7.3,4.7 7.3,4.9 C7.2,5.1 7.4,5.3 7.7,5.3 Z M3.4,5.3 C3.6,5.3 3.8,5.1 3.8,4.9 C3.8,4.7 3.6,4.5 3.4,4.5 C3.2,4.5 3,4.7 3,4.9 C3,5.1 3.2,5.3 3.4,5.3 Z M14.1,3.2 C14.3,3.2 14.5,3 14.5,2.8 C14.5,2.6 14.3,2.4 14.1,2.4 C13.9,2.4 13.7,2.6 13.7,2.8 C13.6,3 13.8,3.2 14.1,3.2 Z M9.8,3.2 C10,3.2 10.2,3 10.2,2.8 C10.2,2.6 10,2.4 9.8,2.4 C9.6,2.4 9.4,2.6 9.4,2.8 C9.4,3 9.6,3.2 9.8,3.2 Z M5.6,3.2 C5.8,3.2 6,3 6,2.8 C6,2.6 5.8,2.4 5.6,2.4 C5.4,2.4 5.2,2.6 5.2,2.8 C5.1,3 5.3,3.2 5.6,3.2 Z M1.3,3.2 C1.5,3.2 1.7,3 1.7,2.8 C1.7,2.6 1.5,2.4 1.3,2.4 C1.1,2.4 0.9,2.6 0.9,2.8 C0.9,3 1.1,3.2 1.3,3.2 Z M16.2,1 C16.4,1 16.6,0.8 16.6,0.6 C16.6,0.4 16.4,0.2 16.2,0.2 C16,0.2 15.8,0.4 15.8,0.6 C15.8,0.8 16,1 16.2,1 Z M11.9,1 C12.1,1 12.3,0.8 12.3,0.6 C12.3,0.4 12.1,0.2 11.9,0.2 C11.7,0.2 11.5,0.4 11.5,0.6 C11.5,0.8 11.7,1 11.9,1 Z M7.7,1 C7.9,1 8.1,0.8 8.1,0.6 C8.1,0.4 7.9,0.2 7.7,0.2 C7.5,0.2 7.3,0.4 7.3,0.6 C7.2,0.8 7.4,1 7.7,1 Z M3.4,1 C3.6,1 3.8,0.8 3.8,0.6 C3.8,0.4 3.6,0.2 3.4,0.2 C3.2,0.2 3,0.4 3,0.6 C3,0.8 3.2,1 3.4,1 Z"></path>
                    </g>
                </g>
                <path d="M30.4,17.9 C30.6,17.9 30.8,17.7 30.8,17.5 C30.8,17.3 30.6,17.1 30.4,17.1 C30.2,17.1 30,17.3 30,17.5 C30,17.7 30.2,17.9 30.4,17.9 Z M26.2,17.9 C26.4,17.9 26.6,17.7 26.6,17.5 C26.6,17.3 26.4,17.1 26.2,17.1 C26,17.1 25.8,17.3 25.8,17.5 C25.7,17.7 25.9,17.9 26.2,17.9 Z M21.9,17.9 C22.1,17.9 22.3,17.7 22.3,17.5 C22.3,17.3 22.1,17.1 21.9,17.1 C21.7,17.1 21.5,17.3 21.5,17.5 C21.5,17.7 21.7,17.9 21.9,17.9 Z M17.7,17.9 C17.9,17.9 18.1,17.7 18.1,17.5 C18.1,17.3 17.9,17.1 17.7,17.1 C17.5,17.1 17.3,17.3 17.3,17.5 C17.2,17.7 17.4,17.9 17.7,17.9 Z M13.4,17.9 C13.6,17.9 13.8,17.7 13.8,17.5 C13.8,17.3 13.6,17.1 13.4,17.1 C13.2,17.1 13,17.3 13,17.5 C13,17.7 13.2,17.9 13.4,17.9 Z M9.2,17.9 C9.4,17.9 9.6,17.7 9.6,17.5 C9.6,17.3 9.4,17.1 9.2,17.1 C9,17.1 8.8,17.3 8.8,17.5 C8.7,17.7 8.9,17.9 9.2,17.9 Z M4.9,17.9 C5.1,17.9 5.3,17.7 5.3,17.5 C5.3,17.3 5.1,17.1 4.9,17.1 C4.7,17.1 4.5,17.3 4.5,17.5 C4.4,17.7 4.6,17.9 4.9,17.9 Z M0.6,17.9 C0.8,17.9 1,17.7 1,17.5 C1,17.3 0.8,17.1 0.6,17.1 C0.4,17.1 0.2,17.3 0.2,17.5 C0.2,17.7 0.4,17.9 0.6,17.9 Z M28.3,15.8 C28.5,15.8 28.7,15.6 28.7,15.4 C28.7,15.2 28.5,15 28.3,15 C28.1,15 27.9,15.2 27.9,15.4 C27.9,15.6 28.1,15.8 28.3,15.8 Z M24.1,15.8 C24.3,15.8 24.5,15.6 24.5,15.4 C24.5,15.2 24.3,15 24.1,15 C23.9,15 23.7,15.2 23.7,15.4 C23.6,15.6 23.8,15.8 24.1,15.8 Z M19.8,15.8 C20,15.8 20.2,15.6 20.2,15.4 C20.2,15.2 20,15 19.8,15 C19.6,15 19.4,15.2 19.4,15.4 C19.4,15.6 19.6,15.8 19.8,15.8 Z M15.6,15.8 C15.8,15.8 16,15.6 16,15.4 C16,15.2 15.8,15 15.6,15 C15.4,15 15.2,15.2 15.2,15.4 C15.1,15.6 15.3,15.8 15.6,15.8 Z M11.3,14.9 C11.1,14.9 10.9,15.1 10.9,15.3 C10.9,15.5 11.1,15.7 11.3,15.7 C11.5,15.7 11.7,15.5 11.7,15.3 C11.8,15.1 11.6,14.9 11.3,14.9 Z M7,14.9 C6.8,14.9 6.6,15.1 6.6,15.3 C6.6,15.5 6.8,15.7 7,15.7 C7.2,15.7 7.4,15.5 7.4,15.3 C7.5,15.1 7.3,14.9 7,14.9 Z M2.8,15.8 C3,15.8 3.2,15.6 3.2,15.4 C3.2,15.2 3,15 2.8,15 C2.6,15 2.4,15.2 2.4,15.4 C2.3,15.6 2.5,15.8 2.8,15.8 Z M30.4,13.8 C30.6,13.8 30.8,13.6 30.8,13.4 C30.8,13.2 30.6,13 30.4,13 C30.2,13 30,13.2 30,13.4 C30,13.6 30.2,13.8 30.4,13.8 Z M26.2,13.8 C26.4,13.8 26.6,13.6 26.6,13.4 C26.6,13.2 26.4,13 26.2,13 C26,13 25.8,13.2 25.8,13.4 C25.7,13.6 25.9,13.8 26.2,13.8 Z M21.9,13.8 C22.1,13.8 22.3,13.6 22.3,13.4 C22.3,13.2 22.1,13 21.9,13 C21.7,13 21.5,13.2 21.5,13.4 C21.5,13.6 21.7,13.8 21.9,13.8 Z M17.7,13.8 C17.9,13.8 18.1,13.6 18.1,13.4 C18.1,13.2 17.9,13 17.7,13 C17.5,13 17.3,13.2 17.3,13.4 C17.2,13.6 17.4,13.8 17.7,13.8 Z M13.4,13.8 C13.6,13.8 13.8,13.6 13.8,13.4 C13.8,13.2 13.6,13 13.4,13 C13.2,13 13,13.2 13,13.4 C13,13.6 13.2,13.8 13.4,13.8 Z M9.2,13.8 C9.4,13.8 9.6,13.6 9.6,13.4 C9.6,13.2 9.4,13 9.2,13 C9,13 8.8,13.2 8.8,13.4 C8.7,13.6 8.9,13.8 9.2,13.8 Z M4.9,13.8 C5.1,13.8 5.3,13.6 5.3,13.4 C5.3,13.2 5.1,13 4.9,13 C4.7,13 4.5,13.2 4.5,13.4 C4.4,13.6 4.6,13.8 4.9,13.8 Z M0.6,13.8 C0.8,13.8 1,13.6 1,13.4 C1,13.2 0.8,13 0.6,13 C0.4,13 0.2,13.2 0.2,13.4 C0.2,13.6 0.4,13.8 0.6,13.8 Z M28.3,11.6 C28.5,11.6 28.7,11.4 28.7,11.2 C28.7,11 28.5,10.8 28.3,10.8 C28.1,10.8 27.9,11 27.9,11.2 C27.9,11.4 28.1,11.6 28.3,11.6 Z M24.1,11.6 C24.3,11.6 24.5,11.4 24.5,11.2 C24.5,11 24.3,10.8 24.1,10.8 C23.9,10.8 23.7,11 23.7,11.2 C23.6,11.4 23.8,11.6 24.1,11.6 Z M19.8,11.6 C20,11.6 20.2,11.4 20.2,11.2 C20.2,11 20,10.8 19.8,10.8 C19.6,10.8 19.4,11 19.4,11.2 C19.4,11.4 19.6,11.6 19.8,11.6 Z M15.6,11.6 C15.8,11.6 16,11.4 16,11.2 C16,11 15.8,10.8 15.6,10.8 C15.4,10.8 15.2,11 15.2,11.2 C15.1,11.4 15.3,11.6 15.6,11.6 Z M11.3,10.7 C11.1,10.7 10.9,10.9 10.9,11.1 C10.9,11.3 11.1,11.5 11.3,11.5 C11.5,11.5 11.7,11.3 11.7,11.1 C11.8,10.9 11.6,10.7 11.3,10.7 Z M7,10.7 C6.8,10.7 6.6,10.9 6.6,11.1 C6.6,11.3 6.8,11.5 7,11.5 C7.2,11.5 7.4,11.3 7.4,11.1 C7.5,10.9 7.3,10.7 7,10.7 Z M2.8,11.6 C3,11.6 3.2,11.4 3.2,11.2 C3.2,11 3,10.8 2.8,10.8 C2.6,10.8 2.4,11 2.4,11.2 C2.3,11.4 2.5,11.6 2.8,11.6 Z M30.4,9.5 C30.6,9.5 30.8,9.3 30.8,9.1 C30.8,8.9 30.6,8.7 30.4,8.7 C30.2,8.7 30,8.8 30,9 C30,9.3 30.2,9.5 30.4,9.5 Z M26.2,9.5 C26.4,9.5 26.6,9.3 26.6,9.1 C26.6,8.9 26.4,8.7 26.2,8.7 C26,8.7 25.8,8.9 25.8,9.1 C25.7,9.3 25.9,9.5 26.2,9.5 Z M21.9,9.5 C22.1,9.5 22.3,9.3 22.3,9.1 C22.3,8.9 22.1,8.7 21.9,8.7 C21.7,8.7 21.5,8.9 21.5,9.1 C21.5,9.3 21.7,9.5 21.9,9.5 Z M17.7,9.5 C17.9,9.5 18.1,9.3 18.1,9.1 C18.1,8.9 17.9,8.7 17.7,8.7 C17.5,8.7 17.3,8.9 17.3,9.1 C17.2,9.3 17.4,9.5 17.7,9.5 Z M13.4,9.5 C13.6,9.5 13.8,9.3 13.8,9.1 C13.8,8.9 13.6,8.7 13.4,8.7 C13.2,8.7 13,8.8 13,9 C13,9.3 13.2,9.5 13.4,9.5 Z M9.2,9.5 C9.4,9.5 9.6,9.3 9.6,9.1 C9.6,8.9 9.4,8.7 9.2,8.7 C9,8.7 8.8,8.9 8.8,9.1 C8.7,9.3 8.9,9.5 9.2,9.5 Z M4.9,9.5 C5.1,9.5 5.3,9.3 5.3,9.1 C5.3,8.9 5.1,8.7 4.9,8.7 C4.7,8.7 4.5,8.9 4.5,9.1 C4.4,9.3 4.6,9.5 4.9,9.5 Z M0.6,9.5 C0.8,9.5 1,9.3 1,9.1 C1,8.9 0.8,8.7 0.6,8.7 C0.4,8.7 0.2,8.9 0.2,9.1 C0.2,9.3 0.4,9.5 0.6,9.5 Z M28.3,7.3 C28.5,7.3 28.7,7.1 28.7,6.9 C28.7,6.7 28.5,6.5 28.3,6.5 C28.1,6.5 27.9,6.7 27.9,6.9 C27.9,7.1 28.1,7.3 28.3,7.3 Z M24.1,7.3 C24.3,7.3 24.5,7.1 24.5,6.9 C24.5,6.7 24.3,6.5 24.1,6.5 C23.9,6.5 23.7,6.7 23.7,6.9 C23.6,7.1 23.8,7.3 24.1,7.3 Z M19.8,7.3 C20,7.3 20.2,7.1 20.2,6.9 C20.2,6.7 20,6.5 19.8,6.5 C19.6,6.5 19.4,6.7 19.4,6.9 C19.4,7.1 19.6,7.3 19.8,7.3 Z M15.6,7.3 C15.8,7.3 16,7.1 16,6.9 C16,6.7 15.8,6.5 15.6,6.5 C15.4,6.5 15.2,6.7 15.2,6.9 C15.1,7.1 15.3,7.3 15.6,7.3 Z M11.3,6.4 C11.1,6.4 10.9,6.6 10.9,6.8 C10.9,7 11.1,7.2 11.3,7.2 C11.5,7.2 11.7,7 11.7,6.8 C11.8,6.6 11.6,6.4 11.3,6.4 Z M7,6.4 C6.8,6.4 6.6,6.6 6.6,6.8 C6.6,7 6.8,7.2 7,7.2 C7.2,7.2 7.4,7 7.4,6.8 C7.5,6.6 7.3,6.4 7,6.4 Z M2.8,7.3 C3,7.3 3.2,7.1 3.2,6.9 C3.2,6.7 3,6.5 2.8,6.5 C2.6,6.5 2.4,6.7 2.4,6.9 C2.3,7.1 2.5,7.3 2.8,7.3 Z M30.4,5.3 C30.6,5.3 30.8,5.1 30.8,4.9 C30.8,4.7 30.6,4.5 30.4,4.5 C30.2,4.5 30,4.7 30,4.9 C30,5.1 30.2,5.3 30.4,5.3 Z M26.2,5.3 C26.4,5.3 26.6,5.1 26.6,4.9 C26.6,4.7 26.4,4.5 26.2,4.5 C26,4.5 25.8,4.7 25.8,4.9 C25.7,5.1 25.9,5.3 26.2,5.3 Z M21.9,5.3 C22.1,5.3 22.3,5.1 22.3,4.9 C22.3,4.7 22.1,4.5 21.9,4.5 C21.7,4.5 21.5,4.7 21.5,4.9 C21.5,5.1 21.7,5.3 21.9,5.3 Z M17.7,5.3 C17.9,5.3 18.1,5.1 18.1,4.9 C18.1,4.7 17.9,4.5 17.7,4.5 C17.5,4.5 17.3,4.7 17.3,4.9 C17.2,5.1 17.4,5.3 17.7,5.3 Z M13.4,5.3 C13.6,5.3 13.8,5.1 13.8,4.9 C13.8,4.7 13.6,4.5 13.4,4.5 C13.2,4.5 13,4.7 13,4.9 C13,5.1 13.2,5.3 13.4,5.3 Z M9.2,5.3 C9.4,5.3 9.6,5.1 9.6,4.9 C9.6,4.7 9.4,4.5 9.2,4.5 C9,4.5 8.8,4.7 8.8,4.9 C8.7,5.1 8.9,5.3 9.2,5.3 Z M4.9,5.3 C5.1,5.3 5.3,5.1 5.3,4.9 C5.3,4.7 5.1,4.5 4.9,4.5 C4.7,4.5 4.5,4.7 4.5,4.9 C4.4,5.1 4.6,5.3 4.9,5.3 Z M0.6,5.3 C0.8,5.3 1,5.1 1,4.9 C1,4.7 0.8,4.5 0.6,4.5 C0.4,4.5 0.2,4.7 0.2,4.9 C0.2,5.1 0.4,5.3 0.6,5.3 Z M28.3,3.2 C28.5,3.2 28.7,3 28.7,2.8 C28.7,2.6 28.5,2.4 28.3,2.4 C28.1,2.4 27.9,2.6 27.9,2.8 C27.9,3 28.1,3.2 28.3,3.2 Z M24.1,3.2 C24.3,3.2 24.5,3 24.5,2.8 C24.5,2.6 24.3,2.4 24.1,2.4 C23.9,2.4 23.7,2.6 23.7,2.8 C23.6,3 23.8,3.2 24.1,3.2 Z M19.8,3.2 C20,3.2 20.2,3 20.2,2.8 C20.2,2.6 20,2.4 19.8,2.4 C19.6,2.4 19.4,2.6 19.4,2.8 C19.4,3 19.6,3.2 19.8,3.2 Z M15.6,3.2 C15.8,3.2 16,3 16,2.8 C16,2.6 15.8,2.4 15.6,2.4 C15.4,2.4 15.2,2.6 15.2,2.8 C15.1,3 15.3,3.2 15.6,3.2 Z M11.3,2.3 C11.1,2.3 10.9,2.5 10.9,2.7 C10.9,2.9 11.1,3.1 11.3,3.1 C11.5,3.1 11.7,2.9 11.7,2.7 C11.8,2.5 11.6,2.3 11.3,2.3 Z M7,2.3 C6.8,2.3 6.6,2.5 6.6,2.7 C6.6,2.9 6.8,3.1 7,3.1 C7.2,3.1 7.4,2.9 7.4,2.7 C7.5,2.5 7.3,2.3 7,2.3 Z M2.8,3.2 C3,3.2 3.2,3 3.2,2.8 C3.2,2.6 3,2.4 2.8,2.4 C2.6,2.4 2.4,2.6 2.4,2.8 C2.3,3 2.5,3.2 2.8,3.2 Z M30.4,1 C30.6,1 30.8,0.8 30.8,0.6 C30.8,0.4 30.6,0.2 30.4,0.2 C30.2,0.2 30,0.4 30,0.6 C30,0.8 30.2,1 30.4,1 Z M26.2,1 C26.4,1 26.6,0.8 26.6,0.6 C26.6,0.4 26.4,0.2 26.2,0.2 C26,0.2 25.8,0.4 25.8,0.6 C25.7,0.8 25.9,1 26.2,1 Z M21.9,1 C22.1,1 22.3,0.8 22.3,0.6 C22.3,0.4 22.1,0.2 21.9,0.2 C21.7,0.2 21.5,0.4 21.5,0.6 C21.5,0.8 21.7,1 21.9,1 Z M17.7,1 C17.9,1 18.1,0.8 18.1,0.6 C18.1,0.4 17.9,0.2 17.7,0.2 C17.5,0.2 17.3,0.4 17.3,0.6 C17.2,0.8 17.4,1 17.7,1 Z M13.4,1 C13.6,1 13.8,0.8 13.8,0.6 C13.8,0.4 13.6,0.2 13.4,0.2 C13.2,0.2 13,0.4 13,0.6 C13,0.8 13.2,1 13.4,1 Z M9.2,1 C9.4,1 9.6,0.8 9.6,0.6 C9.6,0.4 9.4,0.2 9.2,0.2 C9,0.2 8.8,0.4 8.8,0.6 C8.7,0.8 8.9,1 9.2,1 Z M4.9,1 C5.1,1 5.3,0.8 5.3,0.6 C5.3,0.4 5.1,0.2 4.9,0.2 C4.7,0.2 4.5,0.4 4.5,0.6 C4.4,0.8 4.6,1 4.9,1 Z M0.6,1 C0.8,1 1,0.8 1,0.6 C1,0.4 0.8,0.2 0.6,0.2 C0.4,0.2 0.2,0.4 0.2,0.6 C0.2,0.8 0.4,1 0.6,1 Z"></path>
            </g>
            <path d="M56,47 C55.7,34.7 51.2,23.1 42.4,14.4 C33.6,5.8 21.9,1 9.5,1 C6.7,1 2.7,1.5 0,2 L0,1 C2.8,0.5 6.6,0 9.5,0 C22.1,0 34.1,4.9 43.1,13.7 C52.1,22.5 56.7,34.4 57,47 L56,47 Z" fill="#000000"></path>
            <circle fill="#56F24B" cx="51" cy="27.4" r="10.3"></circle>
        </g>
    </g>
</svg>