<?xml version="1.0" encoding="UTF-8"?>
<svg width="240px" height="137px" viewBox="0 0 240 137" version="1.1" xmlns="http://www.w3.org/2000/svg" xmlns:xlink="http://www.w3.org/1999/xlink">
    <title>variant-4</title>
    <g stroke="none" stroke-width="1" fill="none" fill-rule="evenodd">
        <g transform="translate(8.000000, 0.000000)" fill-rule="nonzero">
            <g fill="#F3F3F3">
                <rect x="0.3" y="0" width="2" height="137"></rect>
                <rect x="13.6" y="0" width="2" height="137"></rect>
                <rect x="26.9" y="0" width="2" height="137"></rect>
                <rect x="40.1" y="0" width="2" height="137"></rect>
                <rect x="53.4" y="0" width="2" height="137"></rect>
                <rect x="66.7" y="0" width="2" height="137"></rect>
                <rect x="80" y="0" width="2" height="137"></rect>
                <rect x="93.3" y="0" width="2" height="137"></rect>
            </g>
            <g transform="translate(0.000000, 77.000000)" fill="#C6C6C6">
                <rect x="0.3" y="20.4" width="2" height="39.6"></rect>
                <rect x="13.6" y="9.2" width="2" height="50.8"></rect>
                <rect x="26.9" y="2.9" width="2" height="57.1"></rect>
                <rect x="40.1" y="0" width="2" height="60"></rect>
                <rect x="53.4" y="0" width="2" height="60"></rect>
                <rect x="66.7" y="2.9" width="2" height="57.1"></rect>
                <rect x="80" y="9.2" width="2" height="50.8"></rect>
                <rect x="93.3" y="20.5" width="2" height="39.6"></rect>
            </g>
        </g>
    </g>
</svg>