<?xml version="1.0" encoding="UTF-8" standalone="no"?>
<svg width="105px" height="16px" viewBox="0 0 105 16" version="1.1" xmlns="http://www.w3.org/2000/svg" xmlns:xlink="http://www.w3.org/1999/xlink">
    <!-- Generator: sketchtool 42 (36781) - http://www.bohemiancoding.com/sketch -->
    <title>5D204DB6-CB9E-4CD9-AD23-D61A41DE4D03</title>
    <desc>Created with sketchtool.</desc>
    <defs></defs>
    <g id="STYLEGUIDE" stroke="none" stroke-width="1" fill="none" fill-rule="evenodd">
        <g id="Admin-icons" transform="translate(-212.000000, -127.000000)" fill="#FFFFFF">
            <path d="M282.34037,127 C280.489736,127 279.071772,127.647547 277.869268,128.850051 C276.050662,130.669239 275.989518,133.073664 275.989518,135.170039 L275.989518,142.815403 L279.075266,142.815403 L279.075266,135.170039 C279.075266,133.782356 279.010045,131.932305 280.088514,130.854418 C280.798369,130.145727 281.353327,129.806231 282.34037,129.806231 C283.326248,129.806231 283.880623,130.145727 284.589897,130.854418 C285.668365,131.932305 285.639831,133.782356 285.639831,135.170039 L285.639831,142.815403 L288.688892,142.815403 L288.688892,135.170039 C288.688892,133.073664 288.627748,130.669239 286.809143,128.850051 C285.606639,127.647547 284.189838,127 282.34037,127 L282.34037,127 Z M311.759499,133.628039 L309.292182,133.413161 C307.628476,133.258262 307.134663,132.550735 307.134663,131.624836 C307.134663,130.453196 308.091425,129.621051 309.97001,129.621051 C311.450866,129.621051 312.83855,129.929684 313.824429,130.761246 L315.796768,128.758043 C314.34794,127.493813 312.344737,127 310.002038,127 C306.734605,127 304.114136,128.726598 304.114136,131.779153 C304.114136,134.522492 305.80987,135.84845 308.73839,136.094774 L311.234823,136.310817 C312.745378,136.43427 313.331198,137.111516 313.331198,138.159121 C313.331198,139.639394 311.820643,140.317805 309.908866,140.317805 C308.368613,140.317805 306.672878,139.978308 305.408065,138.683797 L303.342554,140.749308 C305.192022,142.569078 307.349541,143 309.908866,143 C313.639249,143 316.414616,141.304848 316.414616,138.036832 C316.414616,135.262629 314.688019,133.874363 311.759499,133.628039 L311.759499,133.628039 Z M295.00364,142.815403 L298.148202,142.815403 L298.148202,127.184015 L295.00364,127.184015 L295.00364,142.815403 Z M266.735769,139.270199 C266.151114,139.854855 265.348086,140.194351 264.422769,140.194351 C263.498035,140.194351 262.727035,139.854855 262.141214,139.270199 C261.186199,138.31402 261.063328,136.680012 261.063328,134.98486 C261.063328,133.289707 261.186199,131.656282 262.141214,130.69952 C262.727035,130.113117 263.498035,129.806231 264.422769,129.806231 C265.348086,129.806231 266.151114,130.113117 266.735769,130.69952 C267.692532,131.656282 267.815403,133.289707 267.815403,134.98486 C267.815403,136.680012 267.692532,138.31402 266.735769,139.270199 L266.735769,139.270199 Z M264.422769,127 C262.296113,127 260.785558,127.801863 259.767652,128.850051 C258.287378,130.390887 257.918765,132.364391 257.918765,134.98486 C257.918765,137.636192 258.287378,139.608531 259.767652,141.149949 C260.785558,142.199301 262.296113,143 264.422769,143 C266.551754,143 268.09259,142.199301 269.110496,141.149949 C270.591352,139.608531 270.962294,137.636192 270.962294,134.98486 C270.962294,132.364391 270.591352,130.390887 269.110496,128.850051 C268.09259,127.801863 266.551754,127 264.422769,127 L264.422769,127 Z M250.17033,138.31402 L250.17033,127.184015 L247.025186,127.184015 L247.025186,138.499199 C247.025186,140.811035 248.319697,142.815403 251.309943,142.815403 L253.489009,142.815403 L253.489009,140.133207 L251.8649,140.133207 C250.601252,140.133207 250.17033,139.516524 250.17033,138.31402 L250.17033,138.31402 Z M231.255787,133.572136 C231.287815,132.678847 231.3542,132.281118 231.652933,131.593391 C232.147329,130.42175 233.288106,129.621051 234.767797,129.621051 C236.247489,129.621051 237.35682,130.42175 237.850051,131.593391 C238.148784,132.281118 238.243704,132.678847 238.278061,133.572136 L231.255787,133.572136 L231.255787,133.572136 Z M234.767797,127 C230.760227,127 228.139758,129.928519 228.139758,134.98486 C228.139758,140.935071 231.252293,143 235.167856,143 C237.911778,143 239.422332,142.167856 241.025477,140.564711 L239.021692,138.683797 C237.911778,139.794293 236.986461,140.286941 235.230165,140.286941 C232.691804,140.286941 231.277333,138.698355 231.254622,136.055758 L241.395254,136.055758 L241.395254,134.522492 C241.395254,130.082836 238.960547,127 234.767797,127 L234.767797,127 Z M218.966953,129.806231 C220.199738,129.806231 220.970738,130.205707 221.957199,131.28534 L224.115883,129.188965 C222.636192,127.617266 221.125637,127 218.966953,127 C215.452613,127 212,129.127821 212,134.98486 C212,140.842481 215.452613,143 218.966953,143 C221.125637,143 222.636192,142.353035 224.115883,140.780754 L221.957199,138.715242 C220.970738,139.793129 220.199738,140.194351 218.966953,140.194351 C217.764449,140.194351 216.747707,139.702286 216.068715,138.806668 C215.390887,137.944242 215.14398,136.803465 215.14398,134.98486 C215.14398,133.166254 215.390887,132.055758 216.068715,131.193915 C216.747707,130.297714 217.764449,129.806231 218.966953,129.806231 L218.966953,129.806231 Z" id="logo-blue"></path>
        </g>
    </g>
</svg>