<svg xmlns="http://www.w3.org/2000/svg" width="130" height="130" viewBox="0 0 130 130" xmlns:xlink="http://www.w3.org/1999/xlink">
  <defs>
    <circle id="a" cx="68" cy="68" r="65"/>
    <circle id="b" cx="116" cy="68" r="5"/>
    <circle id="c" cx="68" cy="115" r="5"/>
    <circle id="d" cx="20" cy="68" r="5"/>
    <circle id="e" cx="68" cy="21" r="5"/>
  </defs>
  <g fill="none" fill-rule="evenodd" transform="translate(-3 -3)">
    <use fill="#FFFFFF" xlink:href="#a"/>
    <circle cx="68" cy="68" r="63.5" stroke="#7585A9" stroke-width="3"/>
    <use fill="#ABE8F5" xlink:href="#b"/>
    <circle cx="116" cy="68" r="4" stroke="#7585A9" stroke-width="2"/>
    <use fill="#ABE8F5" xlink:href="#c"/>
    <circle cx="68" cy="115" r="4" stroke="#7585A9" stroke-width="2"/>
    <g>
      <use fill="#ABE8F5" xlink:href="#d"/>
      <circle cx="20" cy="68" r="4" stroke="#7585A9" stroke-width="2"/>
    </g>
    <g>
      <use fill="#ABE8F5" xlink:href="#e"/>
      <circle cx="68" cy="21" r="4" stroke="#7585A9" stroke-width="2"/>
    </g>
    <g fill="#7585A9" transform="rotate(30 25.278 94.954)">
      <circle cx="47.5" cy="97.964" r="1.5"/>
      <circle cx="96" cy="50.098" r="1.5"/>
      <circle cx="25.268" cy="91.098" r="1.5"/>
      <circle cx="90.366" cy="73.464" r="1.5"/>
      <circle cx="72.5" cy="9.232" r="1.5"/>
      <circle cx="7.5" cy="27.232" r="1.5"/>
      <circle cx="1.866" cy="49.598" r="1.5"/>
      <circle cx="46.5" cy="2.232" r="1.5"/>
    </g>
  </g>
</svg>
