<svg xmlns="http://www.w3.org/2000/svg" width="64" height="64" viewBox="0 0 64 64">
  <path fill="#DAE0EA" fill-rule="evenodd" stroke="#7585A9" stroke-width="3" d="M60.1946386,30.5873916 C60.1946386,32.6419207 58.5291123,34.3074471 56.4745805,34.3074471 L55.9186317,34.3074471 C54.2460829,34.3074471 52.8256058,35.4375096 52.3354972,37.0366395 C51.9068951,38.4350893 51.3503742,39.7769923 50.6780546,41.0487404 C49.8954087,42.5291741 50.0973605,44.3337929 51.2814704,45.5179027 L51.6701013,45.9065336 C53.1228663,47.3592988 53.1228714,49.7146904 51.6701168,51.1674659 L51.1456497,51.6919435 C49.6928794,53.1447292 47.3374565,53.1447397 45.8846759,51.691959 L45.4960032,51.3032864 C44.3118935,50.1191766 42.5072746,49.9172248 41.0268383,50.6998706 C39.7550772,51.3722005 38.4131559,51.9287372 37.0146879,52.35736 C35.4155842,52.8474793 34.2855477,54.2679512 34.2855477,55.9404791 L34.2855477,56.4964799 C34.2855477,58.5510116 32.6200214,60.216538 30.5654922,60.216538 L29.823785,60.216538 C27.7692559,60.216538 26.1037295,58.5510116 26.1037295,56.4964799 L26.1037295,55.9404791 C26.1037295,54.267951 24.9736931,52.8474793 23.3745894,52.3573597 C21.9761214,51.9287369 20.6342002,51.3722003 19.3624391,50.6998703 C17.882004,49.9172245 16.0773813,50.1191763 14.8932754,51.3032861 L14.5046002,51.6919588 C13.0518209,53.1447394 10.6963966,53.1447291 9.24362767,51.6919432 L8.71915922,51.1674656 C7.26640526,49.7146901 7.26641372,47.3592983 8.71917872,45.9065333 L9.10780963,45.5179024 C10.2919155,44.3337926 10.4938673,42.5291738 9.71122403,41.0487401 C9.03890576,39.7769921 8.48238217,38.4350891 8.05377953,37.0366393 C7.56367131,35.4375096 6.14319231,34.3074471 4.47064349,34.3074471 L3.91469413,34.3074471 C1.86016431,34.3074471 0.194638625,32.6419207 0.194638625,30.5873916 L0.194638625,29.8456844 C0.194638625,27.7911553 1.86016431,26.1256289 3.91469413,26.1256289 L4.4706949,26.1256289 C6.14322353,26.1256289 7.56369681,24.9955924 8.05381553,23.3964888 C8.48243958,21.9980208 9.0389749,20.6560995 9.7113049,19.3843384 C10.4939508,17.9039033 10.2919976,16.0992806 9.10789172,14.9151748 L8.71919699,14.52648 C7.26642476,13.0737085 7.26642476,10.7182986 8.71919699,9.26552703 L9.24362753,8.74109621 C10.6963991,7.28832398 13.051809,7.28832398 14.5045805,8.74109621 L14.8932753,9.12979094 C16.0773811,10.3138968 17.8820039,10.51585 19.3624389,9.73320412 C20.6342,9.06087425 21.9761213,8.50433894 23.3745893,8.07571475 C24.9736931,7.58559616 26.1037295,6.16512289 26.1037295,4.49259425 L26.1037295,3.93659348 C26.1037295,1.88206366 27.7692559,0.216537981 29.823785,0.216537981 L30.5654922,0.216537981 C32.6200214,0.216537981 34.2855477,1.88206366 34.2855477,3.93659348 L34.2855477,4.49259425 C34.2855477,6.16512289 35.4155842,7.58559616 37.0146881,8.07571475 C38.4131561,8.5043388 39.7550774,9.06087412 41.0268384,9.73320412 C42.5072748,10.51585 44.3118935,10.3138968 45.4960034,9.12979094 L45.8846967,8.74109621 C47.3374669,7.28832398 49.6928795,7.28832398 51.1456497,8.74109621 L51.6700804,9.26552689 C53.1228506,10.7182984 53.1228506,13.0737083 51.6700804,14.5264799 L51.281387,14.9151746 C50.0972772,16.0992805 49.8953254,17.9039032 50.6779713,19.3843383 C51.3503011,20.6560994 51.9068378,21.9980207 52.3354606,23.3964887 C52.8255799,24.9955924 54.2460518,26.1256289 55.9185798,26.1256289 L56.4745805,26.1256289 C58.5291123,26.1256289 60.1946386,27.7911553 60.1946386,29.8456844 L60.1946386,30.5873916 Z M30.2245942,41.249807 C36.2997264,41.249807 41.2245942,36.3249392 41.2245942,30.249807 C41.2245942,24.1746748 36.2997264,19.249807 30.2245942,19.249807 C24.1494619,19.249807 19.2245942,24.1746748 19.2245942,30.249807 C19.2245942,36.3249392 24.1494619,41.249807 30.2245942,41.249807 Z" transform="rotate(-8 42.866 17.265)" stroke-linecap="round" stroke-linejoin="round"/>
</svg>
