<svg xmlns="http://www.w3.org/2000/svg" width="85" height="86" viewBox="0 0 85 86">
  <path fill="#C1EEBF" fill-rule="evenodd" stroke="#7585A9" stroke-width="3" d="M95.2043811,53.5264629 C95.2043811,56.4028037 92.8726443,58.7345406 89.9962998,58.7345406 L89.2179715,58.7345406 C86.8764032,58.7345406 84.8877352,60.3166281 84.2015831,62.55541 C83.6015402,64.5132396 82.822411,66.3919038 81.8811634,68.1723512 C80.7854592,70.2449584 81.0681918,72.7714247 82.7259455,74.4291785 L83.2700288,74.9732617 C85.3038999,77.0071329 85.3039071,80.3046812 83.2700505,82.3385669 L82.5357966,83.0728355 C80.5019182,85.1067356 77.2043262,85.1067503 75.1704332,83.0728573 L74.6262916,82.5287156 C72.968538,80.8709619 70.4420715,80.5882294 68.3694606,81.6839336 C66.5889951,82.6251954 64.7103054,83.4043467 62.7524502,84.0044187 C60.5137049,84.6905856 58.9316539,86.6792464 58.9316539,89.0207855 L58.9316539,89.7991865 C58.9316539,92.675531 56.5999169,95.0072678 53.7235762,95.0072678 L52.6851861,95.0072678 C49.8088453,95.0072678 47.4771084,92.675531 47.4771084,89.7991865 L47.4771084,89.0207855 C47.4771084,86.6792462 45.8950573,84.6905856 43.6563123,84.0044183 C41.698457,83.4043463 39.8197673,82.6251952 38.0393018,81.6839332 C35.9666926,80.588229 33.4402208,80.8709615 31.7824726,82.5287153 L31.2383273,83.072857 C29.2044362,85.1067499 25.9068423,85.1067354 23.8729658,83.0728352 L23.13871,82.3385665 C21.1048544,80.3046808 21.1048662,77.0071324 23.1387373,74.9732613 L23.6828205,74.4291781 C25.3405687,72.7714244 25.6233013,70.244958 24.5276007,68.1723508 C23.586355,66.3919036 22.807222,64.5132394 22.2071783,62.5554096 C21.5210268,60.3166281 19.5323562,58.7345406 17.1907879,58.7345406 L16.4124588,58.7345406 C13.536117,58.7345406 11.2043811,56.4028037 11.2043811,53.5264629 L11.2043811,52.4880728 C11.2043811,49.611732 13.536117,47.2799951 16.4124588,47.2799951 L17.1908599,47.2799951 C19.5324,47.2799951 21.5210626,45.6979441 22.2072288,43.459199 C22.8073024,41.5013437 23.5864519,39.622654 24.5277139,37.8421885 C25.623418,35.7695793 25.3406836,33.2431075 23.6829354,31.5853593 L23.1387628,31.0411867 C21.1048817,29.0073065 21.1048817,25.7097326 23.1387628,23.6758525 L23.8729656,22.9416494 C25.9068457,20.9077682 29.2044196,20.9077682 31.2382998,22.9416494 L31.7824724,23.485822 C33.4402206,25.1435701 35.9666924,25.4263046 38.0393016,24.3306004 C39.8197671,23.3893386 41.6984568,22.6101891 43.6563121,22.0101153 C45.8950573,21.3239493 47.4771084,19.3352867 47.4771084,16.9937466 L47.4771084,16.2153455 C47.4771084,13.3390038 49.8088453,11.0072678 52.6851861,11.0072678 L53.7235762,11.0072678 C56.5999169,11.0072678 58.9316539,13.3390038 58.9316539,16.2153455 L58.9316539,16.9937466 C58.9316539,19.3352867 60.5137049,21.3239493 62.7524504,22.0101153 C64.7103056,22.610189 66.5889953,23.3893384 68.3694609,24.3306004 C70.4420717,25.4263046 72.968538,25.1435701 74.6262918,23.485822 L75.1704624,22.9416494 C77.2043407,20.9077682 80.5019184,20.9077682 82.5357966,22.9416494 L83.2699996,23.6758523 C85.3038779,25.7097324 85.3038779,29.0073063 83.2699996,31.0411865 L82.7258289,31.5853591 C81.0680752,33.2431073 80.7853426,35.7695791 81.8810468,37.8421883 C82.8223086,39.6226538 83.60146,41.5013435 84.2015319,43.4591988 C84.8876989,45.6979441 86.8763595,47.2799951 89.2178988,47.2799951 L89.9962998,47.2799951 C92.8726443,47.2799951 95.2043811,49.611732 95.2043811,52.4880728 L95.2043811,53.5264629 Z M52.5199476,68.0433481 C61.0251327,68.0433481 67.9199476,61.1485333 67.9199476,52.643348 C67.9199476,44.1381629 61.0251327,37.243348 52.5199476,37.243348 C44.0147625,37.243348 37.1199476,44.1381629 37.1199476,52.643348 C37.1199476,61.1485333 44.0147625,68.0433481 52.5199476,68.0433481 Z" transform="rotate(17 81.16 11.206)" stroke-linecap="round" stroke-linejoin="round"/>
</svg>
