<svg xmlns="http://www.w3.org/2000/svg" width="65" height="67" viewBox="0 0 65 67">
  <g fill="none" fill-rule="evenodd" transform="rotate(-8 42.866 17.265)">
    <path fill="#DDE3EC" d="M62.1946386,35.5873916 C62.1946386,37.6419207 60.5291123,39.3074471 58.4745805,39.3074471 L57.9186317,39.3074471 C56.2460829,39.3074471 54.8256058,40.4375096 54.3354972,42.0366395 C53.9068951,43.4350893 53.3503742,44.7769923 52.6780546,46.0487404 C51.8954087,47.5291741 52.0973605,49.3337929 53.2814704,50.5179027 L53.6701013,50.9065336 C55.1228663,52.3592988 55.1228714,54.7146904 53.6701168,56.1674659 L53.1456497,56.6919435 C51.6928794,58.1447292 49.3374565,58.1447397 47.8846759,56.691959 L47.4960032,56.3032864 C46.3118935,55.1191766 44.5072746,54.9172248 43.0268383,55.6998706 C41.7550772,56.3722005 40.4131559,56.9287372 39.0146879,57.35736 C37.4155842,57.8474793 36.2855477,59.2679512 36.2855477,60.9404791 L36.2855477,61.4964799 C36.2855477,63.5510116 34.6200214,65.216538 32.5654922,65.216538 L31.823785,65.216538 C29.7692559,65.216538 28.1037295,63.5510116 28.1037295,61.4964799 L28.1037295,60.9404791 C28.1037295,59.267951 26.9736931,57.8474793 25.3745894,57.3573597 C23.9761214,56.9287369 22.6342002,56.3722003 21.3624391,55.6998703 C19.882004,54.9172245 18.0773813,55.1191763 16.8932754,56.3032861 L16.5046002,56.6919588 C15.0518209,58.1447394 12.6963966,58.1447291 11.2436277,56.6919432 L10.7191592,56.1674656 C9.26640526,54.7146901 9.26641372,52.3592983 10.7191787,50.9065333 L11.1078096,50.5179024 C12.2919155,49.3337926 12.4938673,47.5291738 11.711224,46.0487401 C11.0389058,44.7769921 10.4823822,43.4350891 10.0537795,42.0366393 C9.56367131,40.4375096 8.14319231,39.3074471 6.47064349,39.3074471 L5.91469413,39.3074471 C3.86016431,39.3074471 2.19463863,37.6419207 2.19463863,35.5873916 L2.19463863,34.8456844 C2.19463863,32.7911553 3.86016431,31.1256289 5.91469413,31.1256289 L6.4706949,31.1256289 C8.14322353,31.1256289 9.56369681,29.9955924 10.0538155,28.3964888 C10.4824396,26.9980208 11.0389749,25.6560995 11.7113049,24.3843384 C12.4939508,22.9039033 12.2919976,21.0992806 11.1078917,19.9151748 L10.719197,19.52648 C9.26642476,18.0737085 9.26642476,15.7182986 10.719197,14.265527 L11.2436275,13.7410962 C12.6963991,12.288324 15.051809,12.288324 16.5045805,13.7410962 L16.8932753,14.1297909 C18.0773811,15.3138968 19.8820039,15.51585 21.3624389,14.7332041 C22.6342,14.0608743 23.9761213,13.5043389 25.3745893,13.0757148 C26.9736931,12.5855962 28.1037295,11.1651229 28.1037295,9.49259425 L28.1037295,8.93659348 C28.1037295,6.88206366 29.7692559,5.21653798 31.823785,5.21653798 L32.5654922,5.21653798 C34.6200214,5.21653798 36.2855477,6.88206366 36.2855477,8.93659348 L36.2855477,9.49259425 C36.2855477,11.1651229 37.4155842,12.5855962 39.0146881,13.0757148 C40.4131561,13.5043388 41.7550774,14.0608741 43.0268384,14.7332041 C44.5072748,15.51585 46.3118935,15.3138968 47.4960034,14.1297909 L47.8846967,13.7410962 C49.3374669,12.288324 51.6928795,12.288324 53.1456497,13.7410962 L53.6700804,14.2655269 C55.1228506,15.7182984 55.1228506,18.0737083 53.6700804,19.5264799 L53.281387,19.9151746 C52.0972772,21.0992805 51.8953254,22.9039032 52.6779713,24.3843383 C53.3503011,25.6560994 53.9068378,26.9980207 54.3354606,28.3964887 C54.8255799,29.9955924 56.2460518,31.1256289 57.9185798,31.1256289 L58.4745805,31.1256289 C60.5291123,31.1256289 62.1946386,32.7911553 62.1946386,34.8456844 L62.1946386,35.5873916 Z M32.2245942,46.249807 C38.2997264,46.249807 43.2245942,41.3249392 43.2245942,35.249807 C43.2245942,29.1746748 38.2997264,24.249807 32.2245942,24.249807 C26.1494619,24.249807 21.2245942,29.1746748 21.2245942,35.249807 C21.2245942,41.3249392 26.1494619,46.249807 32.2245942,46.249807 Z"/>
    <path fill="#DAE0EA" stroke="#7585A9" stroke-width="3" d="M60.1946386,30.5873916 C60.1946386,32.6419207 58.5291123,34.3074471 56.4745805,34.3074471 L55.9186317,34.3074471 C54.2460829,34.3074471 52.8256058,35.4375096 52.3354972,37.0366395 C51.9068951,38.4350893 51.3503742,39.7769923 50.6780546,41.0487404 C49.8954087,42.5291741 50.0973605,44.3337929 51.2814704,45.5179027 L51.6701013,45.9065336 C53.1228663,47.3592988 53.1228714,49.7146904 51.6701168,51.1674659 L51.1456497,51.6919435 C49.6928794,53.1447292 47.3374565,53.1447397 45.8846759,51.691959 L45.4960032,51.3032864 C44.3118935,50.1191766 42.5072746,49.9172248 41.0268383,50.6998706 C39.7550772,51.3722005 38.4131559,51.9287372 37.0146879,52.35736 C35.4155842,52.8474793 34.2855477,54.2679512 34.2855477,55.9404791 L34.2855477,56.4964799 C34.2855477,58.5510116 32.6200214,60.216538 30.5654922,60.216538 L29.823785,60.216538 C27.7692559,60.216538 26.1037295,58.5510116 26.1037295,56.4964799 L26.1037295,55.9404791 C26.1037295,54.267951 24.9736931,52.8474793 23.3745894,52.3573597 C21.9761214,51.9287369 20.6342002,51.3722003 19.3624391,50.6998703 C17.882004,49.9172245 16.0773813,50.1191763 14.8932754,51.3032861 L14.5046002,51.6919588 C13.0518209,53.1447394 10.6963966,53.1447291 9.24362767,51.6919432 L8.71915922,51.1674656 C7.26640526,49.7146901 7.26641372,47.3592983 8.71917872,45.9065333 L9.10780963,45.5179024 C10.2919155,44.3337926 10.4938673,42.5291738 9.71122403,41.0487401 C9.03890576,39.7769921 8.48238217,38.4350891 8.05377953,37.0366393 C7.56367131,35.4375096 6.14319231,34.3074471 4.47064349,34.3074471 L3.91469413,34.3074471 C1.86016431,34.3074471 0.194638625,32.6419207 0.194638625,30.5873916 L0.194638625,29.8456844 C0.194638625,27.7911553 1.86016431,26.1256289 3.91469413,26.1256289 L4.4706949,26.1256289 C6.14322353,26.1256289 7.56369681,24.9955924 8.05381553,23.3964888 C8.48243958,21.9980208 9.0389749,20.6560995 9.7113049,19.3843384 C10.4939508,17.9039033 10.2919976,16.0992806 9.10789172,14.9151748 L8.71919699,14.52648 C7.26642476,13.0737085 7.26642476,10.7182986 8.71919699,9.26552703 L9.24362753,8.74109621 C10.6963991,7.28832398 13.051809,7.28832398 14.5045805,8.74109621 L14.8932753,9.12979094 C16.0773811,10.3138968 17.8820039,10.51585 19.3624389,9.73320412 C20.6342,9.06087425 21.9761213,8.50433894 23.3745893,8.07571475 C24.9736931,7.58559616 26.1037295,6.16512289 26.1037295,4.49259425 L26.1037295,3.93659348 C26.1037295,1.88206366 27.7692559,0.216537981 29.823785,0.216537981 L30.5654922,0.216537981 C32.6200214,0.216537981 34.2855477,1.88206366 34.2855477,3.93659348 L34.2855477,4.49259425 C34.2855477,6.16512289 35.4155842,7.58559616 37.0146881,8.07571475 C38.4131561,8.5043388 39.7550774,9.06087412 41.0268384,9.73320412 C42.5072748,10.51585 44.3118935,10.3138968 45.4960034,9.12979094 L45.8846967,8.74109621 C47.3374669,7.28832398 49.6928795,7.28832398 51.1456497,8.74109621 L51.6700804,9.26552689 C53.1228506,10.7182984 53.1228506,13.0737083 51.6700804,14.5264799 L51.281387,14.9151746 C50.0972772,16.0992805 49.8953254,17.9039032 50.6779713,19.3843383 C51.3503011,20.6560994 51.9068378,21.9980207 52.3354606,23.3964887 C52.8255799,24.9955924 54.2460518,26.1256289 55.9185798,26.1256289 L56.4745805,26.1256289 C58.5291123,26.1256289 60.1946386,27.7911553 60.1946386,29.8456844 L60.1946386,30.5873916 Z M30.2245942,41.249807 C36.2997264,41.249807 41.2245942,36.3249392 41.2245942,30.249807 C41.2245942,24.1746748 36.2997264,19.249807 30.2245942,19.249807 C24.1494619,19.249807 19.2245942,24.1746748 19.2245942,30.249807 C19.2245942,36.3249392 24.1494619,41.249807 30.2245942,41.249807 Z" stroke-linecap="round" stroke-linejoin="round"/>
  </g>
</svg>
