<svg xmlns="http://www.w3.org/2000/svg" width="88" height="91" viewBox="0 0 88 91">
  <g fill="none" fill-rule="evenodd" transform="rotate(17 41.699 40.382)">
    <path fill="#DEE3ED" d="M91.2630913,49.057447 C91.2630913,51.9128722 88.9483099,54.2276537 86.092881,54.2276537 L85.3202124,54.2276537 C82.995671,54.2276537 81.0214638,55.7982369 80.3403011,58.0207393 C79.7446215,59.9643324 78.9711578,61.8293357 78.0367546,63.5968364 C76.9490179,65.6543725 77.2296946,68.1624673 78.8753938,69.8081666 L79.4155207,70.3482935 C81.4346023,72.3673752 81.4346095,75.6409451 79.4155423,77.6600412 L78.6866276,78.3889705 C76.6675387,80.4080809 73.3939254,80.4080955 71.3748221,78.3889921 L70.8346372,77.8488072 C69.1889381,76.203108 66.6808431,75.9224314 64.6233034,77.0101681 C62.8557847,77.9445854 60.990756,78.7180711 59.0471375,79.3137796 C56.8246715,79.994957 55.2541245,81.969157 55.2541245,84.2936694 L55.2541245,85.0664102 C55.2541245,87.9218391 52.939343,90.2366205 50.0839178,90.2366205 L49.0530785,90.2366205 C46.1976532,90.2366205 43.8828718,87.9218391 43.8828718,85.0664102 L43.8828718,84.2936694 C43.8828718,81.9691568 42.3123247,79.994957 40.0898589,79.3137792 C38.1462404,78.7180707 36.2812117,77.9445852 34.513693,77.0101677 C32.456155,75.922431 29.9480547,76.2031076 28.3023609,77.8488069 L27.7621724,78.3889918 C25.743071,80.4080951 22.4694558,80.4080807 20.4503688,78.3889702 L19.7214522,77.6600408 C17.702386,75.6409447 17.7023977,72.3673747 19.7214793,70.3482931 L20.2616062,69.8081662 C21.9072999,68.162467 22.1879766,65.6543721 21.1002435,63.596836 C20.1658422,61.8293355 19.3923747,59.9643322 18.7966943,58.0207389 C18.1155322,55.7982369 16.1413224,54.2276537 13.816781,54.2276537 L13.0441116,54.2276537 C10.1886854,54.2276537 7.87390488,51.9128722 7.87390488,49.057447 L7.87390488,48.0266077 C7.87390488,45.1711824 10.1886854,42.856401 13.0441116,42.856401 L13.8168524,42.856401 C16.1413658,42.856401 18.1155677,41.285854 18.7967444,39.0633881 C19.3924545,37.1197696 20.1659383,35.2547409 21.1003559,33.4872222 C22.1880925,31.4296842 21.907414,28.9215839 20.2617203,27.2758901 L19.7215047,26.7356745 C17.7024131,24.7165839 17.7024131,21.4429886 19.7215047,19.423898 L20.4503686,18.6950337 C22.4694592,16.6759421 25.7430545,16.6759421 27.7621451,18.6950337 L28.3023607,19.2352493 C29.9480545,20.880943 32.4561548,21.1616216 34.5136928,20.0738849 C36.2812115,19.1394675 38.1462402,18.3659837 40.0898587,17.7702734 C42.3123247,17.0890969 43.8828718,15.114895 43.8828718,12.7903817 L43.8828718,12.0176408 C43.8828718,9.16221462 46.1976532,6.84743409 49.0530785,6.84743409 L50.0839178,6.84743409 C52.939343,6.84743409 55.2541245,9.16221462 55.2541245,12.0176408 L55.2541245,12.7903817 C55.2541245,15.114895 56.8246715,17.0890969 59.0471377,17.7702734 C60.9907562,18.3659836 62.8557849,19.1394673 64.6233036,20.0738849 C66.6808433,21.1616216 69.1889381,20.880943 70.8346374,19.2352493 L71.3748511,18.6950337 C73.3939398,16.6759421 76.6675389,16.6759421 78.6866276,18.6950337 L79.4154917,19.4238978 C81.4345805,21.4429884 81.4345805,24.7165837 79.4154917,26.7356743 L78.875278,27.2758899 C77.2295788,28.9215837 76.9489021,31.429684 78.0366388,33.487222 C78.9710562,35.2547407 79.7445419,37.1197694 80.3402503,39.0633879 C81.0214278,41.285854 82.9956277,42.856401 85.3201402,42.856401 L86.092881,42.856401 C88.9483099,42.856401 91.2630913,45.1711824 91.2630913,48.0266077 L91.2630913,49.057447 Z M48.8890415,63.4687714 C57.3323804,63.4687714 64.177059,56.6240928 64.177059,48.1807538 C64.177059,39.7374149 57.3323804,32.8927363 48.8890415,32.8927363 C40.4457026,32.8927363 33.601024,39.7374149 33.601024,48.1807538 C33.601024,56.6240928 40.4457026,63.4687714 48.8890415,63.4687714 Z"/>
    <path fill="#C1EEBF" stroke="#7585A9" stroke-width="3" d="M84.2630913,43.057447 C84.2630913,45.9128722 81.9483099,48.2276537 79.092881,48.2276537 L78.3202124,48.2276537 C75.995671,48.2276537 74.0214638,49.7982369 73.3403011,52.0207393 C72.7446215,53.9643324 71.9711578,55.8293357 71.0367546,57.5968364 C69.9490179,59.6543725 70.2296946,62.1624673 71.8753938,63.8081666 L72.4155207,64.3482935 C74.4346023,66.3673752 74.4346095,69.6409451 72.4155423,71.6600412 L71.6866276,72.3889705 C69.6675387,74.4080809 66.3939254,74.4080955 64.3748221,72.3889921 L63.8346372,71.8488072 C62.1889381,70.203108 59.6808431,69.9224314 57.6233034,71.0101681 C55.8557847,71.9445854 53.990756,72.7180711 52.0471375,73.3137796 C49.8246715,73.994957 48.2541245,75.969157 48.2541245,78.2936694 L48.2541245,79.0664102 C48.2541245,81.9218391 45.939343,84.2366205 43.0839178,84.2366205 L42.0530785,84.2366205 C39.1976532,84.2366205 36.8828718,81.9218391 36.8828718,79.0664102 L36.8828718,78.2936694 C36.8828718,75.9691568 35.3123247,73.994957 33.0898589,73.3137792 C31.1462404,72.7180707 29.2812117,71.9445852 27.513693,71.0101677 C25.456155,69.922431 22.9480547,70.2031076 21.3023609,71.8488069 L20.7621724,72.3889918 C18.743071,74.4080951 15.4694558,74.4080807 13.4503688,72.3889702 L12.7214522,71.6600408 C10.702386,69.6409447 10.7023977,66.3673747 12.7214793,64.3482931 L13.2616062,63.8081662 C14.9072999,62.162467 15.1879766,59.6543721 14.1002435,57.596836 C13.1658422,55.8293355 12.3923747,53.9643322 11.7966943,52.0207389 C11.1155322,49.7982369 9.14132242,48.2276537 6.81678099,48.2276537 L6.04411158,48.2276537 C3.18868541,48.2276537 0.873904881,45.9128722 0.873904881,43.057447 L0.873904881,42.0266077 C0.873904881,39.1711824 3.18868541,36.856401 6.04411158,36.856401 L6.81685244,36.856401 C9.14136582,36.856401 11.1155677,35.285854 11.7967444,33.0633881 C12.3924545,31.1197696 13.1659383,29.2547409 14.1003559,27.4872222 C15.1880925,25.4296842 14.907414,22.9215839 13.2617203,21.2758901 L12.7215047,20.7356745 C10.7024131,18.7165839 10.7024131,15.4429886 12.7215047,13.423898 L13.4503686,12.6950337 C15.4694592,10.6759421 18.7430545,10.6759421 20.7621451,12.6950337 L21.3023607,13.2352493 C22.9480545,14.880943 25.4561548,15.1616216 27.5136928,14.0738849 C29.2812115,13.1394675 31.1462402,12.3659837 33.0898587,11.7702734 C35.3123247,11.0890969 36.8828718,9.11489503 36.8828718,6.79038166 L36.8828718,6.01764079 C36.8828718,3.16221462 39.1976532,0.847434094 42.0530785,0.847434094 L43.0839178,0.847434094 C45.939343,0.847434094 48.2541245,3.16221462 48.2541245,6.01764079 L48.2541245,6.79038166 C48.2541245,9.11489503 49.8246715,11.0890969 52.0471377,11.7702734 C53.9907562,12.3659836 55.8557849,13.1394673 57.6233036,14.0738849 C59.6808433,15.1616216 62.1889381,14.880943 63.8346374,13.2352493 L64.3748511,12.6950337 C66.3939398,10.6759421 69.6675389,10.6759421 71.6866276,12.6950337 L72.4154917,13.4238978 C74.4345805,15.4429884 74.4345805,18.7165837 72.4154917,20.7356743 L71.875278,21.2758899 C70.2295788,22.9215837 69.9489021,25.429684 71.0366388,27.487222 C71.9710562,29.2547407 72.7445419,31.1197694 73.3402503,33.0633879 C74.0214278,35.285854 75.9956277,36.856401 78.3201402,36.856401 L79.092881,36.856401 C81.9483099,36.856401 84.2630913,39.1711824 84.2630913,42.0266077 L84.2630913,43.057447 Z M41.8890415,57.4687714 C50.3323804,57.4687714 57.177059,50.6240928 57.177059,42.1807538 C57.177059,33.7374149 50.3323804,26.8927363 41.8890415,26.8927363 C33.4457026,26.8927363 26.601024,33.7374149 26.601024,42.1807538 C26.601024,50.6240928 33.4457026,57.4687714 41.8890415,57.4687714 Z" stroke-linecap="round" stroke-linejoin="round"/>
  </g>
</svg>
