<svg xmlns="http://www.w3.org/2000/svg" width="79" height="81" viewBox="0 0 79 81">
  <g fill="none" fill-rule="evenodd" transform="rotate(19 40.36 37.852)">
    <path fill="#DDE3EC" d="M82.0950942,43.4850836 C82.0950942,46.1217293 79.9576687,48.2591548 77.3210196,48.2591548 L76.607552,48.2591548 C74.4611143,48.2591548 72.6381687,49.7094017 72.009196,51.7616185 C71.4591566,53.5562956 70.7449548,55.2784045 69.8821446,56.9104812 C68.8777491,58.8103712 69.1369206,61.1262986 70.6565282,62.6459062 L71.1552712,63.1446492 C73.019653,65.0090311 73.0196596,68.0317837 71.1552912,69.896179 L70.4822251,70.5692585 C68.6178365,72.4336669 65.5950438,72.4336804 63.7306419,70.5692785 L63.2318454,70.0704819 C61.712238,68.5508743 59.3963104,68.2917028 57.4964171,69.2960984 C55.8643237,70.1589217 54.1421914,70.8731438 52.3474908,71.4232097 C50.2953076,72.0521961 48.8450942,73.8751351 48.8450942,76.0215459 L48.8450942,76.7350803 C48.8450942,79.3717293 46.7076687,81.5091548 44.0710229,81.5091548 L43.1191654,81.5091548 C40.4825197,81.5091548 38.3450942,79.3717293 38.3450942,76.7350803 L38.3450942,76.0215459 C38.3450942,73.8751349 36.8948807,72.0521961 34.8426977,71.4232094 C33.0479971,70.8731434 31.3258648,70.1589215 29.6937714,69.296098 C27.7938797,68.2917025 25.4779472,68.550874 23.9583447,70.0704816 L23.4595448,70.5692781 C21.5951447,72.43368 18.5723503,72.4336667 16.7079634,70.5692582 L16.0348956,69.8961786 C14.170528,68.0317834 14.1705389,65.0090306 16.0349206,63.1446489 L16.5336636,62.6459059 C18.0532661,61.1262983 18.3124376,58.8103708 17.3080454,56.9104809 C16.445237,55.2784043 15.7310317,53.5562954 15.1809917,51.7616181 C14.5520194,49.7094017 12.7290714,48.2591548 10.5826337,48.2591548 L9.86916538,48.2591548 C7.23251878,48.2591548 5.09509415,46.1217293 5.09509415,43.4850836 L5.09509415,42.533226 C5.09509415,39.8965803 7.23251878,37.7591548 9.86916538,37.7591548 L10.5826997,37.7591548 C12.7291115,37.7591548 14.5520522,36.3089414 15.1810379,34.2567584 C15.7311054,32.4620578 16.4453257,30.7399255 17.3081492,29.1078321 C18.3125447,27.2079404 18.0533715,24.8920079 16.533769,23.3724053 L16.0349441,22.8735804 C14.170553,21.0091903 14.170553,17.9864142 16.0349441,16.1220241 L16.7079633,15.4490045 C18.5723534,13.5846135 21.5951295,13.5846135 23.4595196,15.4490045 L23.9583445,15.9478294 C25.477947,17.467432 27.7938795,17.7266052 29.6937712,16.7222097 C31.3258646,15.8593864 33.0479969,15.145166 34.8426975,14.5950983 C36.8948807,13.9661128 38.3450942,12.1431721 38.3450942,9.99676037 L38.3450942,9.28322604 C38.3450942,6.64657944 40.4825197,4.50915482 43.1191654,4.50915482 L44.0710229,4.50915482 C46.7076687,4.50915482 48.8450942,6.64657944 48.8450942,9.28322604 L48.8450942,9.99676037 C48.8450942,12.1431721 50.2953076,13.9661128 52.347491,14.5950983 C54.1421916,15.1451659 55.8643239,15.8593862 57.4964173,16.7222097 C59.3963105,17.7266052 61.712238,17.467432 63.2318456,15.9478294 L63.7306687,15.4490045 C65.5950571,13.5846135 68.6178367,13.5846135 70.4822251,15.4490045 L71.1552444,16.1220239 C73.0196328,17.9864141 73.0196328,21.0091901 71.1552444,22.8735803 L70.6564213,23.3724052 C69.1368137,24.8920077 68.8776422,27.2079402 69.8820377,29.1078319 C70.744861,30.7399253 71.4590831,32.4620576 72.0091491,34.2567582 C72.6381355,36.3089414 74.4610744,37.7591548 76.6074853,37.7591548 L77.3210196,37.7591548 C79.9576687,37.7591548 82.0950942,39.8965803 82.0950942,42.533226 L82.0950942,43.4850836 Z M42.8080625,57.4416055 C50.540049,57.4416055 56.8080625,51.173592 56.8080625,43.4416055 C56.8080625,35.709619 50.540049,29.4416055 42.8080625,29.4416055 C35.076076,29.4416055 28.8080625,35.709619 28.8080625,43.4416055 C28.8080625,51.173592 35.076076,57.4416055 42.8080625,57.4416055 Z"/>
    <path fill="#ABE8F5" stroke="#7585A9" stroke-width="3" d="M77.0950942,39.4850836 C77.0950942,42.1217293 74.9576687,44.2591548 72.3210196,44.2591548 L71.607552,44.2591548 C69.4611143,44.2591548 67.6381687,45.7094017 67.009196,47.7616185 C66.4591566,49.5562956 65.7449548,51.2784045 64.8821446,52.9104812 C63.8777491,54.8103712 64.1369206,57.1262986 65.6565282,58.6459062 L66.1552712,59.1446492 C68.019653,61.0090311 68.0196596,64.0317837 66.1552912,65.896179 L65.4822251,66.5692585 C63.6178365,68.4336669 60.5950438,68.4336804 58.7306419,66.5692785 L58.2318454,66.0704819 C56.712238,64.5508743 54.3963104,64.2917028 52.4964171,65.2960984 C50.8643237,66.1589217 49.1421914,66.8731438 47.3474908,67.4232097 C45.2953076,68.0521961 43.8450942,69.8751351 43.8450942,72.0215459 L43.8450942,72.7350803 C43.8450942,75.3717293 41.7076687,77.5091548 39.0710229,77.5091548 L38.1191654,77.5091548 C35.4825197,77.5091548 33.3450942,75.3717293 33.3450942,72.7350803 L33.3450942,72.0215459 C33.3450942,69.8751349 31.8948807,68.0521961 29.8426977,67.4232094 C28.0479971,66.8731434 26.3258648,66.1589215 24.6937714,65.296098 C22.7938797,64.2917025 20.4779472,64.550874 18.9583447,66.0704816 L18.4595448,66.5692781 C16.5951447,68.43368 13.5723503,68.4336667 11.7079634,66.5692582 L11.0348956,65.8961786 C9.170528,64.0317834 9.17053885,61.0090306 11.0349206,59.1446489 L11.5336636,58.6459059 C13.0532661,57.1262983 13.3124376,54.8103708 12.3080454,52.9104809 C11.445237,51.2784043 10.7310317,49.5562954 10.1809917,47.7616181 C9.55201943,45.7094017 7.72907138,44.2591548 5.58263373,44.2591548 L4.86916538,44.2591548 C2.23251878,44.2591548 0.0950941515,42.1217293 0.0950941515,39.4850836 L0.0950941515,38.533226 C0.0950941515,35.8965803 2.23251878,33.7591548 4.86916538,33.7591548 L5.5826997,33.7591548 C7.72911145,33.7591548 9.55205215,32.3089414 10.1810379,30.2567584 C10.7311054,28.4620578 11.4453257,26.7399255 12.3081492,25.1078321 C13.3125447,23.2079404 13.0533715,20.8920079 11.533769,19.3724053 L11.0349441,18.8735804 C9.17055303,17.0091903 9.17055303,13.9864142 11.0349441,12.1220241 L11.7079633,11.4490045 C13.5723534,9.58461352 16.5951295,9.58461352 18.4595196,11.4490045 L18.9583445,11.9478294 C20.477947,13.467432 22.7938795,13.7266052 24.6937712,12.7222097 C26.3258646,11.8593864 28.0479969,11.145166 29.8426975,10.5950983 C31.8948807,9.96611282 33.3450942,8.14317212 33.3450942,5.99676037 L33.3450942,5.28322604 C33.3450942,2.64657944 35.4825197,0.509154818 38.1191654,0.509154818 L39.0710229,0.509154818 C41.7076687,0.509154818 43.8450942,2.64657944 43.8450942,5.28322604 L43.8450942,5.99676037 C43.8450942,8.14317212 45.2953076,9.96611282 47.347491,10.5950983 C49.1421916,11.1451659 50.8643239,11.8593862 52.4964173,12.7222097 C54.3963105,13.7266052 56.712238,13.467432 58.2318456,11.9478294 L58.7306687,11.4490045 C60.5950571,9.58461352 63.6178367,9.58461352 65.4822251,11.4490045 L66.1552444,12.1220239 C68.0196328,13.9864141 68.0196328,17.0091901 66.1552444,18.8735803 L65.6564213,19.3724052 C64.1368137,20.8920077 63.8776422,23.2079402 64.8820377,25.1078319 C65.744861,26.7399253 66.4590831,28.4620576 67.0091491,30.2567582 C67.6381355,32.3089414 69.4610744,33.7591548 71.6074853,33.7591548 L72.3210196,33.7591548 C74.9576687,33.7591548 77.0950942,35.8965803 77.0950942,38.533226 L77.0950942,39.4850836 Z M37.8080625,53.4416055 C45.540049,53.4416055 51.8080625,47.173592 51.8080625,39.4416055 C51.8080625,31.709619 45.540049,25.4416055 37.8080625,25.4416055 C30.076076,25.4416055 23.8080625,31.709619 23.8080625,39.4416055 C23.8080625,47.173592 30.076076,53.4416055 37.8080625,53.4416055 Z" stroke-linecap="round" stroke-linejoin="round"/>
  </g>
</svg>
