<svg xmlns="http://www.w3.org/2000/svg" width="60" height="61" viewBox="0 0 60 61">
  <path fill="#DDE3EC" fill-rule="evenodd" d="M62.1946386,35.5873916 C62.1946386,37.6419207 60.5291123,39.3074471 58.4745805,39.3074471 L57.9186317,39.3074471 C56.2460829,39.3074471 54.8256058,40.4375096 54.3354972,42.0366395 C53.9068951,43.4350893 53.3503742,44.7769923 52.6780546,46.0487404 C51.8954087,47.5291741 52.0973605,49.3337929 53.2814704,50.5179027 L53.6701013,50.9065336 C55.1228663,52.3592988 55.1228714,54.7146904 53.6701168,56.1674659 L53.1456497,56.6919435 C51.6928794,58.1447292 49.3374565,58.1447397 47.8846759,56.691959 L47.4960032,56.3032864 C46.3118935,55.1191766 44.5072746,54.9172248 43.0268383,55.6998706 C41.7550772,56.3722005 40.4131559,56.9287372 39.0146879,57.35736 C37.4155842,57.8474793 36.2855477,59.2679512 36.2855477,60.9404791 L36.2855477,61.4964799 C36.2855477,63.5510116 34.6200214,65.216538 32.5654922,65.216538 L31.823785,65.216538 C29.7692559,65.216538 28.1037295,63.5510116 28.1037295,61.4964799 L28.1037295,60.9404791 C28.1037295,59.267951 26.9736931,57.8474793 25.3745894,57.3573597 C23.9761214,56.9287369 22.6342002,56.3722003 21.3624391,55.6998703 C19.882004,54.9172245 18.0773813,55.1191763 16.8932754,56.3032861 L16.5046002,56.6919588 C15.0518209,58.1447394 12.6963966,58.1447291 11.2436277,56.6919432 L10.7191592,56.1674656 C9.26640526,54.7146901 9.26641372,52.3592983 10.7191787,50.9065333 L11.1078096,50.5179024 C12.2919155,49.3337926 12.4938673,47.5291738 11.711224,46.0487401 C11.0389058,44.7769921 10.4823822,43.4350891 10.0537795,42.0366393 C9.56367131,40.4375096 8.14319231,39.3074471 6.47064349,39.3074471 L5.91469413,39.3074471 C3.86016431,39.3074471 2.19463863,37.6419207 2.19463863,35.5873916 L2.19463863,34.8456844 C2.19463863,32.7911553 3.86016431,31.1256289 5.91469413,31.1256289 L6.4706949,31.1256289 C8.14322353,31.1256289 9.56369681,29.9955924 10.0538155,28.3964888 C10.4824396,26.9980208 11.0389749,25.6560995 11.7113049,24.3843384 C12.4939508,22.9039033 12.2919976,21.0992806 11.1078917,19.9151748 L10.719197,19.52648 C9.26642476,18.0737085 9.26642476,15.7182986 10.719197,14.265527 L11.2436275,13.7410962 C12.6963991,12.288324 15.051809,12.288324 16.5045805,13.7410962 L16.8932753,14.1297909 C18.0773811,15.3138968 19.8820039,15.51585 21.3624389,14.7332041 C22.6342,14.0608743 23.9761213,13.5043389 25.3745893,13.0757148 C26.9736931,12.5855962 28.1037295,11.1651229 28.1037295,9.49259425 L28.1037295,8.93659348 C28.1037295,6.88206366 29.7692559,5.21653798 31.823785,5.21653798 L32.5654922,5.21653798 C34.6200214,5.21653798 36.2855477,6.88206366 36.2855477,8.93659348 L36.2855477,9.49259425 C36.2855477,11.1651229 37.4155842,12.5855962 39.0146881,13.0757148 C40.4131561,13.5043388 41.7550774,14.0608741 43.0268384,14.7332041 C44.5072748,15.51585 46.3118935,15.3138968 47.4960034,14.1297909 L47.8846967,13.7410962 C49.3374669,12.288324 51.6928795,12.288324 53.1456497,13.7410962 L53.6700804,14.2655269 C55.1228506,15.7182984 55.1228506,18.0737083 53.6700804,19.5264799 L53.281387,19.9151746 C52.0972772,21.0992805 51.8953254,22.9039032 52.6779713,24.3843383 C53.3503011,25.6560994 53.9068378,26.9980207 54.3354606,28.3964887 C54.8255799,29.9955924 56.2460518,31.1256289 57.9185798,31.1256289 L58.4745805,31.1256289 C60.5291123,31.1256289 62.1946386,32.7911553 62.1946386,34.8456844 L62.1946386,35.5873916 Z M32.2245942,46.249807 C38.2997264,46.249807 43.2245942,41.3249392 43.2245942,35.249807 C43.2245942,29.1746748 38.2997264,24.249807 32.2245942,24.249807 C26.1494619,24.249807 21.2245942,29.1746748 21.2245942,35.249807 C21.2245942,41.3249392 26.1494619,46.249807 32.2245942,46.249807 Z" transform="rotate(-8 -2.536 50.017)"/>
</svg>
