<svg xmlns="http://www.w3.org/2000/svg" width="82" height="82" viewBox="0 0 82 82">
  <path fill="#DEE3ED" fill-rule="evenodd" d="M95.1443871,53.3111422 C95.1443871,56.187483 92.8126502,58.5192199 89.9363057,58.5192199 L89.1579774,58.5192199 C86.8164091,58.5192199 84.8277411,60.1013074 84.141589,62.3400893 C83.5415462,64.297919 82.7624169,66.1765832 81.8211694,67.9570305 C80.7254652,70.0296378 81.0081978,72.556104 82.6659515,74.2138578 L83.2100347,74.7579411 C85.2439058,76.7918122 85.2439131,80.0893606 83.2100565,82.1232463 L82.4758026,82.8575149 C80.4419242,84.8914149 77.1443321,84.8914296 75.1104392,82.8575366 L74.5662975,82.3133949 C72.9085439,80.6556412 70.3820775,80.3729087 68.3094666,81.4686129 C66.5290011,82.4098747 64.6503113,83.1890261 62.6924561,83.789098 C60.4537109,84.475265 58.8716599,86.4639257 58.8716599,88.8054648 L58.8716599,89.5838658 C58.8716599,92.4602103 56.5399229,94.7919472 53.6635821,94.7919472 L52.6251921,94.7919472 C49.7488512,94.7919472 47.4171144,92.4602103 47.4171144,89.5838658 L47.4171144,88.8054648 C47.4171144,86.4639255 45.8350633,84.475265 43.5963182,83.7890976 C41.638463,83.1890257 39.7597732,82.4098745 37.9793077,81.4686125 C35.9066986,80.3729083 33.3802268,80.6556408 31.7224785,82.3133946 L31.1783332,82.8575363 C29.1444422,84.8914292 25.8468482,84.8914147 23.8129717,82.8575146 L23.0787159,82.1232459 C21.0448604,80.0893602 21.0448721,76.7918117 23.0787432,74.7579407 L23.6228265,74.2138574 C25.2805746,72.5561037 25.5633073,70.0296374 24.4676067,67.9570301 C23.526361,66.176583 22.747228,64.2979188 22.1471843,62.3400889 C21.4610328,60.1013074 19.4723622,58.5192199 17.1307939,58.5192199 L16.3524648,58.5192199 C13.476123,58.5192199 11.1443871,56.187483 11.1443871,53.3111422 L11.1443871,52.2727522 C11.1443871,49.3964113 13.476123,47.0646745 16.3524648,47.0646745 L17.1308658,47.0646745 C19.4724059,47.0646745 21.4610686,45.4826235 22.1472348,43.2438783 C22.7473084,41.2860231 23.5264578,39.4073333 24.4677199,37.6268678 C25.563424,35.5542587 25.2806896,33.0277869 23.6229414,31.3700386 L23.0787688,30.825866 C21.0448877,28.7919859 21.0448877,25.494412 23.0787688,23.4605318 L23.8129715,22.7263287 C25.8468517,20.6924476 29.1444256,20.6924476 31.1783057,22.7263287 L31.7224783,23.2705013 C33.3802266,24.9282495 35.9066984,25.210984 37.9793075,24.1152798 C39.759773,23.1740179 41.6384628,22.3948685 43.596318,21.7947947 C45.8350633,21.1086286 47.4171144,19.119966 47.4171144,16.778426 L47.4171144,16.0000249 C47.4171144,13.1236831 49.7488512,10.7919472 52.6251921,10.7919472 L53.6635821,10.7919472 C56.5399229,10.7919472 58.8716599,13.1236831 58.8716599,16.0000249 L58.8716599,16.778426 C58.8716599,19.119966 60.4537109,21.1086286 62.6924563,21.7947947 C64.6503115,22.3948684 66.5290013,23.1740177 68.3094668,24.1152798 C70.3820777,25.210984 72.9085439,24.9282495 74.5662977,23.2705013 L75.1104684,22.7263287 C77.1443466,20.6924476 80.4419244,20.6924476 82.4758026,22.7263287 L83.2100055,23.4605316 C85.2438839,25.4944118 85.2438839,28.7919857 83.2100055,30.8258658 L82.6658348,31.3700384 C81.0080811,33.0277867 80.7253485,35.5542585 81.8210527,37.6268676 C82.7623146,39.4073331 83.541466,41.2860229 84.1415379,43.2438781 C84.8277049,45.4826235 86.8163655,47.0646745 89.1579047,47.0646745 L89.9363057,47.0646745 C92.8126502,47.0646745 95.1443871,49.3964113 95.1443871,52.2727522 L95.1443871,53.3111422 Z M52.4599535,67.8280275 C60.9651387,67.8280275 67.8599535,60.9332126 67.8599535,52.4280274 C67.8599535,43.9228423 60.9651387,37.0280274 52.4599535,37.0280274 C43.9547684,37.0280274 37.0599536,43.9228423 37.0599536,52.4280274 C37.0599536,60.9332126 43.9547684,67.8280275 52.4599535,67.8280275 Z" transform="rotate(17 87.291 6.645)"/>
</svg>
