<svg xmlns="http://www.w3.org/2000/svg" width="75" height="74" viewBox="0 0 75 74">
  <path fill="#DDE3EC" fill-rule="evenodd" d="M82.0950942,43.4850836 C82.0950942,46.1217293 79.9576687,48.2591548 77.3210196,48.2591548 L76.607552,48.2591548 C74.4611143,48.2591548 72.6381687,49.7094017 72.009196,51.7616185 C71.4591566,53.5562956 70.7449548,55.2784045 69.8821446,56.9104812 C68.8777491,58.8103712 69.1369206,61.1262986 70.6565282,62.6459062 L71.1552712,63.1446492 C73.019653,65.0090311 73.0196596,68.0317837 71.1552912,69.896179 L70.4822251,70.5692585 C68.6178365,72.4336669 65.5950438,72.4336804 63.7306419,70.5692785 L63.2318454,70.0704819 C61.712238,68.5508743 59.3963104,68.2917028 57.4964171,69.2960984 C55.8643237,70.1589217 54.1421914,70.8731438 52.3474908,71.4232097 C50.2953076,72.0521961 48.8450942,73.8751351 48.8450942,76.0215459 L48.8450942,76.7350803 C48.8450942,79.3717293 46.7076687,81.5091548 44.0710229,81.5091548 L43.1191654,81.5091548 C40.4825197,81.5091548 38.3450942,79.3717293 38.3450942,76.7350803 L38.3450942,76.0215459 C38.3450942,73.8751349 36.8948807,72.0521961 34.8426977,71.4232094 C33.0479971,70.8731434 31.3258648,70.1589215 29.6937714,69.296098 C27.7938797,68.2917025 25.4779472,68.550874 23.9583447,70.0704816 L23.4595448,70.5692781 C21.5951447,72.43368 18.5723503,72.4336667 16.7079634,70.5692582 L16.0348956,69.8961786 C14.170528,68.0317834 14.1705389,65.0090306 16.0349206,63.1446489 L16.5336636,62.6459059 C18.0532661,61.1262983 18.3124376,58.8103708 17.3080454,56.9104809 C16.445237,55.2784043 15.7310317,53.5562954 15.1809917,51.7616181 C14.5520194,49.7094017 12.7290714,48.2591548 10.5826337,48.2591548 L9.86916538,48.2591548 C7.23251878,48.2591548 5.09509415,46.1217293 5.09509415,43.4850836 L5.09509415,42.533226 C5.09509415,39.8965803 7.23251878,37.7591548 9.86916538,37.7591548 L10.5826997,37.7591548 C12.7291115,37.7591548 14.5520522,36.3089414 15.1810379,34.2567584 C15.7311054,32.4620578 16.4453257,30.7399255 17.3081492,29.1078321 C18.3125447,27.2079404 18.0533715,24.8920079 16.533769,23.3724053 L16.0349441,22.8735804 C14.170553,21.0091903 14.170553,17.9864142 16.0349441,16.1220241 L16.7079633,15.4490045 C18.5723534,13.5846135 21.5951295,13.5846135 23.4595196,15.4490045 L23.9583445,15.9478294 C25.477947,17.467432 27.7938795,17.7266052 29.6937712,16.7222097 C31.3258646,15.8593864 33.0479969,15.145166 34.8426975,14.5950983 C36.8948807,13.9661128 38.3450942,12.1431721 38.3450942,9.99676037 L38.3450942,9.28322604 C38.3450942,6.64657944 40.4825197,4.50915482 43.1191654,4.50915482 L44.0710229,4.50915482 C46.7076687,4.50915482 48.8450942,6.64657944 48.8450942,9.28322604 L48.8450942,9.99676037 C48.8450942,12.1431721 50.2953076,13.9661128 52.347491,14.5950983 C54.1421916,15.1451659 55.8643239,15.8593862 57.4964173,16.7222097 C59.3963105,17.7266052 61.712238,17.467432 63.2318456,15.9478294 L63.7306687,15.4490045 C65.5950571,13.5846135 68.6178367,13.5846135 70.4822251,15.4490045 L71.1552444,16.1220239 C73.0196328,17.9864141 73.0196328,21.0091901 71.1552444,22.8735803 L70.6564213,23.3724052 C69.1368137,24.8920077 68.8776422,27.2079402 69.8820377,29.1078319 C70.744861,30.7399253 71.4590831,32.4620576 72.0091491,34.2567582 C72.6381355,36.3089414 74.4610744,37.7591548 76.6074853,37.7591548 L77.3210196,37.7591548 C79.9576687,37.7591548 82.0950942,39.8965803 82.0950942,42.533226 L82.0950942,43.4850836 Z M42.8080625,57.4416055 C50.540049,57.4416055 56.8080625,51.173592 56.8080625,43.4416055 C56.8080625,35.709619 50.540049,29.4416055 42.8080625,29.4416055 C35.076076,29.4416055 28.8080625,35.709619 28.8080625,43.4416055 C28.8080625,51.173592 35.076076,57.4416055 42.8080625,57.4416055 Z" transform="rotate(19 59.275 22.4)"/>
</svg>
