<?xml version="1.0" encoding="UTF-8"?>
<svg width="24px" height="24px" viewBox="0 0 24 24" version="1.1" xmlns="http://www.w3.org/2000/svg" xmlns:xlink="http://www.w3.org/1999/xlink">
    <title>Actions Icon 2</title>
    <g id="Actions-Icon-2" stroke="none" stroke-width="1" fill="none" fill-rule="evenodd">
        <circle id="Oval" fill="#058E8F" cx="12" cy="12" r="12"></circle>
        <g id="New-icons-002-06" transform="translate(4.000000, 4.000000)" fill="#FFFFFF" fill-rule="nonzero">
            <path d="M2.54297408,13.4570259 L2.54297408,14.9085948 L1.09140518,14.9085948 L1.09140518,13.4570259 L2.54297408,13.4570259 M3.63437926,12.3656207 L-9.69362532e-16,12.3656207 L-9.69362532e-16,16 L3.63437926,16 L3.63437926,12.3656207 L3.63437926,12.3656207 Z" id="Shape"></path>
            <path d="M2.54297408,8 L2.54297408,9.45156889 L1.09140518,9.45156889 L1.09140518,8 L2.54297408,8 M3.63437926,6.90859482 L-9.69362532e-16,6.90859482 L-9.69362532e-16,10.5429741 L3.63437926,10.5429741 L3.63437926,6.90859482 L3.63437926,6.90859482 Z" id="Shape"></path>
            <path d="M8,13.4570259 L8,14.9085948 L6.54843111,14.9085948 L6.54843111,13.4570259 L8,13.4570259 M9.09140518,12.3656207 L5.45702592,12.3656207 L5.45702592,16 L9.09140518,16 L9.09140518,12.3656207 L9.09140518,12.3656207 Z" id="Shape"></path>
            <rect id="Rectangle" x="5.45702592" y="6.90859482" width="3.63437926" height="3.63437926"></rect>
            <path d="M8,-9.69362532e-16 C4.36562074,-9.69362532e-16 1.29877217,2.43383356 0.327421555,5.75170532 L1.473397,5.75170532 C2.40109141,3.04502046 4.97680764,1.09140518 8,1.09140518 C11.8090041,1.09140518 14.9085948,4.19099591 14.9085948,8 C14.9085948,11.0231924 12.9549795,13.5989086 10.2482947,14.526603 L10.2482947,15.6725784 C13.5770805,14.7012278 16,11.6343793 16,8 C16,3.579809 12.420191,-9.69362532e-16 8,-9.69362532e-16 Z" id="Path"></path>
            <path d="M8,3.63437926 C6.40654843,3.63437926 5.0313779,4.48567531 4.26739427,5.75170532 L5.63165075,5.75170532 C6.2319236,5.11869031 7.06139154,4.72578445 8,4.72578445 C9.80081855,4.72578445 11.2742156,6.19918145 11.2742156,8 C11.2742156,8.93860846 10.8813097,9.7680764 10.2482947,10.3683492 L10.2482947,11.7326057 C11.5143247,10.9686221 12.3656207,9.59345157 12.3656207,8 C12.3656207,5.58799454 10.4120055,3.63437926 8,3.63437926 Z" id="Path"></path>
        </g>
    </g>
</svg>