<?xml version="1.0" encoding="UTF-8"?>
<svg width="48px" height="48px" viewBox="0 0 48 48" version="1.1" xmlns="http://www.w3.org/2000/svg" xmlns:xlink="http://www.w3.org/1999/xlink">
    <title>Avatars/avatar icons/user_Icon Copy 3</title>
    <g id="Page-1" stroke="none" stroke-width="1" fill="none" fill-rule="evenodd">
        <g id="permissionsfix" transform="translate(-333.000000, -1000.000000)">
            <g id="Avatars/avatar-icons/user_Icon-Copy-3" transform="translate(333.000000, 1000.000000)">
                <g id="icon__shape-2" opacity="0.2" fill="#56F24B">
                    <circle id="icon__shape" cx="24" cy="24" r="24"></circle>
                </g>
                <g id="Icons/24px/Menu/settings" transform="translate(12.000000, 12.000000)" fill="#51C300">
                    <path d="M15,2 C11.1,2 8,5.1 8,9 C8,9.8 8.1,10.6 8.4,11.3 L3.5,13 L5.8,15.3 L2,19.1 L4.9,22 L8.7,18.2 L11.1,20.6 L12.8,15.6 C13.5,15.8 14.3,16 15.1,16 C19,16 22.1,12.9 22.1,9 C22,5.1 18.9,2 15,2 Z M10.4,17.8 L9.7,17.1 L8.6,16 L7.5,17.1 L4.8,19.8 L4.1,19 L6.8,16.3 L7.9,15.2 L6.8,14.1 L6.2,13.5 L12.6,11.3 L10.4,17.8 Z M15,14.5 C14.4,14.5 13.8,14.4 13.2,14.2 L15,9 L9.8,10.8 C9.6,10.2 9.5,9.6 9.5,9 C9.5,6 12,3.5 15,3.5 C18,3.5 20.5,6 20.5,9 C20.5,12 18,14.5 15,14.5 Z" id="Shape"></path>
                </g>
            </g>
        </g>
    </g>
</svg>