<?xml version="1.0" encoding="UTF-8"?>
<svg width="48px" height="48px" viewBox="0 0 48 48" version="1.1" xmlns="http://www.w3.org/2000/svg" xmlns:xlink="http://www.w3.org/1999/xlink">
    <title>Avatars/avatar icons/user_Icon Copy 4</title>
    <g id="Page-1" stroke="none" stroke-width="1" fill="none" fill-rule="evenodd">
        <g id="permissionsfix" transform="translate(-405.000000, -1000.000000)">
            <g id="Avatars/avatar-icons/user_Icon-Copy-4" transform="translate(405.000000, 1000.000000)">
                <g id="icon__shape-2" opacity="0.2" fill="#56F24B">
                    <circle id="icon__shape" cx="24" cy="24" r="24"></circle>
                </g>
                <g id="Icons/24px/Menu/settings" transform="translate(12.000000, 12.000000)" fill="#51C300">
                    <path d="M19.5,3.0225 L16.5,3.0225 L16.5,1.5225 L15,1.5225 L15,3.0225 L9,3.0225 L9,1.5225 L7.5,1.5225 L7.5,3.0225 L4.5,3.0225 C3.67157288,3.0225 3,3.69407288 3,4.5225 L3,19.5225 C3,20.3509271 3.67157288,21.0225 4.5,21.0225 L19.5,21.0225 C20.3284271,21.0225 21,20.3509271 21,19.5225 L21,4.5225 C21,3.69407288 20.3284271,3.0225 19.5,3.0225 Z M19.5,19.5225 L4.5,19.5225 L4.5,9.0225 L19.5,9.0225 L19.5,19.5225 Z M19.5,7.5225 L4.5,7.5225 L4.5,4.5225 L7.5,4.5225 L7.5,6.0225 L9,6.0225 L9,4.5225 L15,4.5225 L15,6.0225 L16.5,6.0225 L16.5,4.5225 L19.5,4.5225 L19.5,7.5225 Z" id="Fill"></path>
                </g>
            </g>
        </g>
    </g>
</svg>