<?xml version="1.0" encoding="UTF-8"?>
<svg width="90px" height="91px" viewBox="0 0 90 91" version="1.1" xmlns="http://www.w3.org/2000/svg" xmlns:xlink="http://www.w3.org/1999/xlink">
    <title>0037 Rebranded help page-31</title>
    <g id="Page-1" stroke="none" stroke-width="1" fill="none" fill-rule="evenodd">
        <g id="membersfix-copy" transform="translate(-550.000000, -134.000000)">
            <g id="Group-7" transform="translate(246.000000, 110.000000)">
                <g id="0037-Rebranded-help-page-31" transform="translate(304.000000, 24.000000)">
                    <polygon id="Path" fill="#56F24B" fill-rule="nonzero" points="45.6 74.7 45.6 85.125 34.125 85.125 34.125 90.75 90 90.75 90 74.7"></polygon>
                    <g id="Group" transform="translate(0.000000, 14.250000)" fill="#898989" fill-rule="nonzero">
                        <path d="M9.675,24.075 C9.9,24.075 10.125,23.85 10.125,23.625 C10.125,23.4 9.9,23.175 9.675,23.175 C9.45,23.175 9.225,23.4 9.225,23.625 C9.225,23.925 9.45,24.075 9.675,24.075 Z M5.1,24.075 C5.325,24.075 5.55,23.85 5.55,23.625 C5.55,23.4 5.325,23.175 5.1,23.175 C4.875,23.175 4.65,23.4 4.65,23.625 C4.65,23.925 4.8,24.075 5.1,24.075 Z M7.35,21.825 C7.575,21.825 7.8,21.6 7.8,21.375 C7.8,21.15 7.575,20.925 7.35,20.925 C7.125,20.925 6.9,21.15 6.9,21.375 C6.9,21.6 7.05,21.825 7.35,21.825 Z M9.675,19.5 C9.9,19.5 10.125,19.275 10.125,19.05 C10.125,18.825 9.9,18.6 9.675,18.6 C9.45,18.6 9.225,18.825 9.225,19.05 C9.225,19.275 9.45,19.5 9.675,19.5 Z M5.1,19.5 C5.325,19.5 5.55,19.275 5.55,19.05 C5.55,18.825 5.325,18.6 5.1,18.6 C4.875,18.6 4.65,18.75 4.65,19.05 C4.65,19.35 4.8,19.5 5.1,19.5 Z M7.35,17.325 C7.575,17.325 7.8,17.1 7.8,16.875 C7.8,16.65 7.575,16.425 7.35,16.425 C7.125,16.425 6.9,16.65 6.9,16.875 C6.9,17.1 7.05,17.325 7.35,17.325 Z M9.675,15 C9.9,15 10.125,14.775 10.125,14.55 C10.125,14.325 9.9,14.1 9.675,14.1 C9.45,14.1 9.225,14.325 9.225,14.55 C9.225,14.775 9.45,15 9.675,15 Z M5.1,15 C5.325,15 5.55,14.775 5.55,14.55 C5.55,14.325 5.325,14.1 5.1,14.1 C4.875,14.1 4.65,14.25 4.65,14.475 C4.65,14.7 4.8,15 5.1,15 Z M7.35,12.675 C7.575,12.675 7.8,12.45 7.8,12.225 C7.8,12 7.575,11.775 7.35,11.775 C7.125,11.775 6.9,12 6.9,12.225 C6.9,12.45 7.05,12.675 7.35,12.675 Z M9.675,10.35 C9.9,10.35 10.125,10.125 10.125,9.9 C10.125,9.675 9.9,9.45 9.675,9.45 C9.45,9.45 9.225,9.675 9.225,9.9 C9.225,10.125 9.45,10.35 9.675,10.35 Z M5.1,10.35 C5.325,10.35 5.55,10.125 5.55,9.9 C5.55,9.675 5.325,9.45 5.1,9.45 C4.875,9.45 4.65,9.675 4.65,9.9 C4.65,10.125 4.8,10.35 5.1,10.35 Z M7.35,8.175 C7.575,8.175 7.8,7.95 7.8,7.725 C7.8,7.5 7.575,7.275 7.35,7.275 C7.125,7.275 6.9,7.5 6.9,7.725 C6.9,7.95 7.05,8.175 7.35,8.175 Z M9.675,5.85 C9.9,5.85 10.125,5.625 10.125,5.4 C10.125,5.175 9.9,4.95 9.675,4.95 C9.45,4.95 9.225,5.175 9.225,5.4 C9.225,5.625 9.45,5.85 9.675,5.85 Z M5.1,5.85 C5.325,5.85 5.55,5.625 5.55,5.4 C5.55,5.175 5.325,4.95 5.1,4.95 C4.875,4.95 4.65,5.175 4.65,5.4 C4.65,5.625 4.8,5.85 5.1,5.85 Z M7.35,3.525 C7.575,3.525 7.8,3.3 7.8,3.075 C7.8,2.85 7.575,2.625 7.35,2.625 C7.125,2.625 6.9,2.85 6.9,3.075 C6.9,3.375 7.05,3.525 7.35,3.525 Z M9.675,1.275 C9.9,1.275 10.125,1.05 10.125,0.825 C10.125,0.6 9.9,0.375 9.675,0.375 C9.45,0.375 9.225,0.6 9.225,0.825 C9.225,1.05 9.45,1.275 9.675,1.275 Z M5.1,1.275 C5.325,1.275 5.55,1.05 5.55,0.825 C5.55,0.6 5.325,0.375 5.1,0.375 C4.875,0.375 4.65,0.525 4.65,0.75 C4.65,1.05 4.8,1.275 5.1,1.275 Z" id="Shape"></path>
                        <path d="M11.925,12.675 C12.15,12.675 12.375,12.45 12.375,12.225 C12.375,12 12.15,11.775 11.925,11.775 C11.7,11.775 11.475,12 11.475,12.225 C11.475,12.45 11.7,12.675 11.925,12.675 Z M14.325,10.35 C14.55,10.35 14.775,10.125 14.775,9.9 C14.775,9.675 14.55,9.45 14.325,9.45 C14.1,9.45 13.875,9.675 13.875,9.9 C13.875,10.125 14.025,10.35 14.325,10.35 Z M11.925,8.175 C12.15,8.175 12.375,7.95 12.375,7.725 C12.375,7.5 12.15,7.275 11.925,7.275 C11.7,7.275 11.475,7.5 11.475,7.725 C11.475,7.95 11.7,8.175 11.925,8.175 Z M14.325,5.85 C14.55,5.85 14.775,5.625 14.775,5.4 C14.775,5.175 14.55,4.95 14.325,4.95 C14.1,4.95 13.875,5.175 13.875,5.4 C13.875,5.625 14.025,5.85 14.325,5.85 Z M11.925,3.525 C12.15,3.525 12.375,3.3 12.375,3.075 C12.375,2.85 12.15,2.625 11.925,2.625 C11.7,2.625 11.475,2.85 11.475,3.075 C11.475,3.375 11.7,3.525 11.925,3.525 Z M14.325,1.275 C14.55,1.275 14.775,1.05 14.775,0.825 C14.775,0.6 14.55,0.375 14.325,0.375 C14.1,0.375 13.875,0.6 13.875,0.825 C13.875,1.05 14.025,1.275 14.325,1.275 Z" id="Shape"></path>
                        <path d="M0.45,24.225 C0.675,24.225 0.9,24 0.9,23.775 C0.9,23.55 0.75,23.25 0.45,23.25 C0.15,23.25 0,23.475 0,23.7 C0,23.925 0.225,24.225 0.45,24.225 Z M2.7,21.9 C2.925,21.9 3.15,21.675 3.15,21.45 C3.15,21.225 3,20.925 2.7,20.925 C2.4,20.925 2.25,21.15 2.25,21.45 C2.25,21.675 2.475,21.9 2.7,21.9 Z M0.45,19.575 C0.675,19.575 0.9,19.35 0.9,19.125 C0.9,18.9 0.75,18.675 0.45,18.675 C0.15,18.675 0,18.825 0,19.125 C0,19.425 0.225,19.575 0.45,19.575 Z M2.7,17.4 C2.925,17.4 3.15,17.175 3.15,16.95 C3.15,16.725 3,16.425 2.7,16.425 C2.4,16.425 2.25,16.65 2.25,16.95 C2.25,17.25 2.475,17.4 2.7,17.4 Z M0.45,15.075 C0.675,15.075 0.9,14.85 0.9,14.625 C0.9,14.4 0.675,14.175 0.45,14.175 C0.225,14.175 0,14.325 0,14.625 C0,14.925 0.225,15.075 0.45,15.075 Z M2.7,12.75 C2.925,12.75 3.15,12.525 3.15,12.3 C3.15,12.075 3,11.85 2.7,11.85 C2.4,11.85 2.25,12.075 2.25,12.3 C2.25,12.525 2.475,12.75 2.7,12.75 Z M0.45,10.5 C0.675,10.5 0.9,10.275 0.9,10.05 C0.9,9.825 0.75,9.525 0.45,9.525 C0.15,9.525 0,9.75 0,9.975 C0,10.2 0.225,10.5 0.45,10.5 Z M2.7,8.25 C2.925,8.25 3.15,8.025 3.15,7.8 C3.15,7.575 3,7.35 2.7,7.35 C2.4,7.35 2.25,7.575 2.25,7.8 C2.25,8.025 2.475,8.25 2.7,8.25 Z M0.45,6 C0.675,6 0.9,5.775 0.9,5.55 C0.9,5.325 0.675,5.1 0.45,5.1 C0.225,5.1 0,5.25 0,5.475 C0,5.775 0.225,6 0.45,6 Z M2.7,3.675 C2.925,3.675 3.15,3.45 3.15,3.225 C3.15,3 3,2.7 2.7,2.7 C2.4,2.7 2.25,2.925 2.25,3.15 C2.25,3.375 2.475,3.675 2.7,3.675 Z M0.45,1.35 C0.675,1.35 0.9,1.125 0.9,0.9 C0.9,0.675 0.75,0.375 0.45,0.375 C0.15,0.375 0,0.6 0,0.9 C0,1.2 0.225,1.35 0.45,1.35 Z" id="Shape"></path>
                        <g transform="translate(15.750000, 0.000000)" id="Shape">
                            <path d="M16.725,10.5 C16.95,10.5 17.175,10.275 17.175,10.05 C17.175,9.825 16.95,9.6 16.725,9.6 C16.5,9.6 16.275,9.825 16.275,10.05 C16.275,10.275 16.5,10.5 16.725,10.5 Z M16.725,6 C16.95,6 17.175,5.775 17.175,5.55 C17.175,5.325 16.95,5.1 16.725,5.1 C16.5,5.1 16.275,5.325 16.275,5.55 C16.275,5.775 16.5,6 16.725,6 Z M16.725,1.35 C16.95,1.35 17.175,1.125 17.175,0.9 C17.175,0.675 16.95,0.45 16.725,0.45 C16.5,0.45 16.275,0.675 16.275,0.9 C16.275,1.125 16.5,1.35 16.725,1.35 Z"></path>
                            <path d="M3.15,10.35 C3.375,10.35 3.6,10.125 3.6,9.9 C3.6,9.675 3.375,9.45 3.15,9.45 C2.925,9.45 2.7,9.675 2.7,9.9 C2.7,10.125 2.925,10.35 3.15,10.35 Z M14.625,8.175 C14.85,8.175 15.075,7.95 15.075,7.725 C15.075,7.5 14.85,7.275 14.625,7.275 C14.4,7.275 14.175,7.5 14.175,7.725 C14.1,7.95 14.325,8.175 14.625,8.175 Z M10.05,8.175 C10.275,8.175 10.5,7.95 10.5,7.725 C10.5,7.5 10.275,7.275 10.05,7.275 C9.825,7.275 9.6,7.5 9.6,7.725 C9.6,7.95 9.75,8.175 10.05,8.175 Z M5.4,8.175 C5.625,8.175 5.85,7.95 5.85,7.725 C5.85,7.5 5.625,7.275 5.4,7.275 C5.175,7.275 4.95,7.5 4.95,7.725 C4.95,7.95 5.175,8.175 5.4,8.175 Z M0.825,8.175 C1.05,8.175 1.275,7.95 1.275,7.725 C1.275,7.5 1.05,7.275 0.825,7.275 C0.6,7.275 0.375,7.5 0.375,7.725 C0.375,7.95 0.525,8.175 0.825,8.175 Z M12.375,5.85 C12.6,5.85 12.825,5.625 12.825,5.4 C12.825,5.175 12.6,4.95 12.375,4.95 C12.15,4.95 11.925,5.175 11.925,5.4 C11.85,5.625 12.075,5.85 12.375,5.85 Z M7.725,5.85 C7.95,5.85 8.175,5.625 8.175,5.4 C8.175,5.175 7.95,4.95 7.725,4.95 C7.5,4.95 7.275,5.175 7.275,5.4 C7.275,5.625 7.5,5.85 7.725,5.85 Z M3.15,5.85 C3.375,5.85 3.6,5.625 3.6,5.4 C3.6,5.175 3.375,4.95 3.15,4.95 C2.925,4.95 2.7,5.175 2.7,5.4 C2.7,5.625 2.925,5.85 3.15,5.85 Z M14.625,3.525 C14.85,3.525 15.075,3.3 15.075,3.075 C15.075,2.85 14.85,2.625 14.625,2.625 C14.4,2.625 14.175,2.85 14.175,3.075 C14.1,3.375 14.325,3.525 14.625,3.525 Z M10.05,3.525 C10.275,3.525 10.5,3.3 10.5,3.075 C10.5,2.85 10.275,2.625 10.05,2.625 C9.825,2.625 9.6,2.85 9.6,3.075 C9.6,3.375 9.75,3.525 10.05,3.525 Z M5.4,3.525 C5.625,3.525 5.85,3.3 5.85,3.075 C5.85,2.85 5.625,2.625 5.4,2.625 C5.175,2.625 4.95,2.85 4.95,3.075 C4.95,3.375 5.175,3.525 5.4,3.525 Z M0.825,3.525 C1.05,3.525 1.275,3.3 1.275,3.075 C1.275,2.85 1.05,2.625 0.825,2.625 C0.6,2.625 0.375,2.85 0.375,3.075 C0.375,3.375 0.525,3.525 0.825,3.525 Z M12.375,1.275 C12.6,1.275 12.825,1.05 12.825,0.825 C12.825,0.6 12.6,0.375 12.375,0.375 C12.15,0.375 11.925,0.6 11.925,0.825 C11.85,1.05 12.075,1.275 12.375,1.275 Z M7.725,1.275 C7.95,1.275 8.175,1.05 8.175,0.825 C8.175,0.6 7.95,0.375 7.725,0.375 C7.5,0.375 7.275,0.6 7.275,0.825 C7.275,1.05 7.5,1.275 7.725,1.275 Z M3.15,1.275 C3.375,1.275 3.6,1.05 3.6,0.825 C3.6,0.6 3.375,0.375 3.15,0.375 C2.925,0.375 2.7,0.6 2.7,0.825 C2.7,1.05 2.925,1.275 3.15,1.275 Z"></path>
                        </g>
                    </g>
                    <circle id="Oval" stroke="#000000" stroke-width="0.522675" cx="25.125" cy="38.1" r="14.25"></circle>
                    <path d="M34.5,48.825 C37.5,46.2 39.375,42.375 39.375,38.1 C39.375,30.225 33,23.85 25.125,23.85 C17.25,23.85 10.875,30.225 10.875,38.1 C10.875,42.45 12.825,46.275 15.825,48.9 C9.3,52.275 4.8,59.1 4.8,66.975 L4.8,85.125 L45.525,85.125 L45.525,66.975 C45.6,59.025 41.1,52.2 34.5,48.825 Z" id="Path" stroke="#000000" stroke-width="0.522675"></path>
                    <g id="Group" transform="translate(4.500000, 4.500000)" stroke="#000000" stroke-width="0.5">
                        <polygon id="Path" points="60.9 18.675 60.9 9.675 60.9 0.6 54 7.5 47.1 0.6 40.2 7.5 33.3 0.6 33.3 9.675 33.3 18.675 33.3 19.8 60.9 19.8"></polygon>
                        <path d="M63.6,21.6 L30.6,21.6 L30.6,23.4 C28.05,20.85 24.525,19.35 20.625,19.35 C12.75,19.35 6.375,25.725 6.375,33.6 C6.375,37.95 8.325,41.775 11.325,44.4 C4.8,47.775 0.3,54.6 0.3,62.475 L0.3,80.625 L41.025,80.625 L41.025,62.475 C41.025,54.6 36.525,47.7 29.925,44.325 C32.925,41.7 34.8,37.875 34.8,33.6 C34.8,30.75 33.975,28.125 32.55,25.875 L63.525,25.875 L63.525,21.6 L63.6,21.6 Z" id="Path"></path>
                    </g>
                    <circle id="Oval" fill="#56F24B" fill-rule="nonzero" cx="51.6" cy="17.925" r="2.475"></circle>
                    <circle id="Oval" fill="#56F24B" fill-rule="nonzero" cx="62.475" cy="17.925" r="1.725"></circle>
                    <circle id="Oval" fill="#56F24B" fill-rule="nonzero" cx="41.1" cy="17.925" r="1.725"></circle>
                    <g id="Group" transform="translate(66.000000, 39.750000)" fill="#898989" fill-rule="nonzero">
                        <path d="M23.925,23.775 C23.925,23.55 23.7,23.325 23.475,23.325 C23.25,23.325 23.025,23.55 23.025,23.775 C23.025,24 23.25,24.225 23.475,24.225 C23.7,24.225 23.925,24 23.925,23.775 Z M23.925,28.35 C23.925,28.125 23.7,27.9 23.475,27.9 C23.25,27.9 23.025,28.125 23.025,28.35 C23.025,28.575 23.25,28.8 23.475,28.8 C23.7,28.8 23.925,28.65 23.925,28.35 Z M21.6,26.1 C21.6,25.875 21.375,25.65 21.15,25.65 C20.925,25.65 20.7,25.875 20.7,26.1 C20.7,26.325 20.925,26.55 21.15,26.55 C21.375,26.625 21.6,26.4 21.6,26.1 Z M19.275,23.775 C19.275,23.55 19.05,23.325 18.825,23.325 C18.6,23.325 18.375,23.55 18.375,23.775 C18.375,24 18.6,24.225 18.825,24.225 C19.05,24.225 19.275,24 19.275,23.775 Z M19.275,28.35 C19.275,28.125 19.05,27.9 18.825,27.9 C18.6,27.9 18.375,28.125 18.375,28.35 C18.375,28.575 18.6,28.8 18.825,28.8 C19.05,28.8 19.275,28.65 19.275,28.35 Z M17.1,26.1 C17.1,25.875 16.875,25.65 16.65,25.65 C16.425,25.65 16.2,25.875 16.2,26.1 C16.2,26.325 16.425,26.55 16.65,26.55 C16.875,26.55 17.1,26.4 17.1,26.1 Z M14.775,23.775 C14.775,23.55 14.55,23.325 14.325,23.325 C14.1,23.325 13.875,23.55 13.875,23.775 C13.875,24 14.1,24.225 14.325,24.225 C14.55,24.225 14.775,24 14.775,23.775 Z M14.775,28.35 C14.775,28.125 14.55,27.9 14.325,27.9 C14.1,27.9 13.875,28.125 13.875,28.35 C13.875,28.575 14.1,28.8 14.325,28.8 C14.55,28.8 14.775,28.65 14.775,28.35 Z M12.45,26.1 C12.45,25.875 12.225,25.65 12,25.65 C11.775,25.65 11.55,25.875 11.55,26.1 C11.55,26.325 11.775,26.55 12,26.55 C12.225,26.55 12.45,26.4 12.45,26.1 Z M10.125,23.775 C10.125,23.55 9.9,23.325 9.675,23.325 C9.45,23.325 9.225,23.55 9.225,23.775 C9.225,24 9.45,24.225 9.675,24.225 C9.975,24.225 10.125,24 10.125,23.775 Z M10.125,28.35 C10.125,28.125 9.9,27.9 9.675,27.9 C9.45,27.9 9.225,28.125 9.225,28.35 C9.225,28.575 9.45,28.8 9.675,28.8 C9.975,28.875 10.125,28.65 10.125,28.35 Z M7.95,26.1 C7.95,25.875 7.725,25.65 7.5,25.65 C7.275,25.65 7.05,25.875 7.05,26.1 C7.05,26.325 7.275,26.55 7.5,26.55 C7.725,26.55 7.95,26.4 7.95,26.1 Z M5.625,23.775 C5.625,23.55 5.4,23.325 5.175,23.325 C4.95,23.325 4.725,23.55 4.725,23.775 C4.725,24 4.95,24.225 5.175,24.225 C5.4,24.225 5.625,24 5.625,23.775 Z M5.625,28.35 C5.625,28.125 5.4,27.9 5.175,27.9 C4.95,27.9 4.725,28.125 4.725,28.35 C4.725,28.575 4.95,28.8 5.175,28.8 C5.4,28.8 5.625,28.65 5.625,28.35 Z M3.375,26.1 C3.375,25.875 3.15,25.65 2.925,25.65 C2.7,25.65 2.475,25.875 2.475,26.1 C2.475,26.325 2.7,26.55 2.925,26.55 C3.15,26.55 3.375,26.4 3.375,26.1 Z M1.05,23.775 C1.05,23.55 0.825,23.325 0.6,23.325 C0.375,23.325 0.15,23.55 0.15,23.775 C0.15,24 0.375,24.225 0.6,24.225 C0.825,24.225 1.05,24 1.05,23.775 Z M1.05,28.35 C1.05,28.125 0.825,27.9 0.6,27.9 C0.375,27.9 0.15,28.125 0.15,28.35 C0.15,28.575 0.375,28.8 0.6,28.8 C0.825,28.875 1.05,28.65 1.05,28.35 Z" id="Shape"></path>
                        <path d="M23.925,19.125 C23.925,18.9 23.7,18.675 23.475,18.675 C23.25,18.675 23.025,18.9 23.025,19.125 C23.025,19.35 23.25,19.575 23.475,19.575 C23.7,19.575 23.925,19.425 23.925,19.125 Z M21.6,21.525 C21.6,21.3 21.375,21.075 21.15,21.075 C20.925,21.075 20.7,21.3 20.7,21.525 C20.7,21.75 20.925,21.975 21.15,21.975 C21.375,21.975 21.6,21.75 21.6,21.525 Z M19.275,19.125 C19.275,18.9 19.05,18.675 18.825,18.675 C18.6,18.675 18.375,18.9 18.375,19.125 C18.375,19.35 18.6,19.575 18.825,19.575 C19.05,19.575 19.275,19.425 19.275,19.125 Z M17.1,21.525 C17.1,21.3 16.875,21.075 16.65,21.075 C16.425,21.075 16.2,21.3 16.2,21.525 C16.2,21.75 16.425,21.975 16.65,21.975 C16.875,21.975 17.1,21.75 17.1,21.525 Z M14.775,19.125 C14.775,18.9 14.55,18.675 14.325,18.675 C14.1,18.675 13.875,18.9 13.875,19.125 C13.875,19.35 14.1,19.575 14.325,19.575 C14.55,19.575 14.775,19.425 14.775,19.125 Z M12.45,21.525 C12.45,21.3 12.225,21.075 12,21.075 C11.775,21.075 11.55,21.3 11.55,21.525 C11.55,21.75 11.775,21.975 12,21.975 C12.225,21.975 12.45,21.75 12.45,21.525 Z M10.125,19.125 C10.125,18.9 9.9,18.675 9.675,18.675 C9.45,18.675 9.225,18.9 9.225,19.125 C9.225,19.35 9.45,19.575 9.675,19.575 C9.975,19.65 10.125,19.425 10.125,19.125 Z M7.95,21.525 C7.95,21.3 7.725,21.075 7.5,21.075 C7.275,21.075 7.05,21.3 7.05,21.525 C7.05,21.75 7.275,21.975 7.5,21.975 C7.725,21.975 7.95,21.75 7.95,21.525 Z M5.625,19.125 C5.625,18.9 5.4,18.675 5.175,18.675 C4.95,18.675 4.725,18.9 4.725,19.125 C4.725,19.35 4.95,19.575 5.175,19.575 C5.4,19.575 5.625,19.425 5.625,19.125 Z M3.375,21.525 C3.375,21.3 3.15,21.075 2.925,21.075 C2.7,21.075 2.475,21.3 2.475,21.525 C2.475,21.75 2.7,21.975 2.925,21.975 C3.15,21.975 3.375,21.75 3.375,21.525 Z M1.05,19.125 C1.05,18.9 0.825,18.675 0.6,18.675 C0.375,18.675 0.15,18.9 0.15,19.125 C0.15,19.35 0.375,19.575 0.6,19.575 C0.825,19.65 1.05,19.425 1.05,19.125 Z" id="Shape"></path>
                        <path d="M24,33 C24,32.775 23.775,32.55 23.55,32.55 C23.325,32.55 23.1,32.775 23.1,33 C23.1,33.225 23.325,33.45 23.55,33.45 C23.775,33.45 24,33.225 24,33 Z M21.675,30.75 C21.675,30.525 21.45,30.3 21.225,30.3 C21,30.3 20.775,30.525 20.775,30.75 C20.775,30.975 21,31.2 21.225,31.2 C21.45,31.2 21.675,30.975 21.675,30.75 Z M19.35,33 C19.35,32.775 19.125,32.55 18.9,32.55 C18.675,32.55 18.45,32.775 18.45,33 C18.45,33.225 18.675,33.45 18.9,33.45 C19.125,33.45 19.35,33.225 19.35,33 Z M17.175,30.75 C17.175,30.525 16.95,30.3 16.725,30.3 C16.5,30.3 16.275,30.525 16.275,30.75 C16.275,30.975 16.5,31.2 16.725,31.2 C16.95,31.2 17.175,30.975 17.175,30.75 Z M14.85,33 C14.85,32.775 14.625,32.55 14.4,32.55 C14.175,32.55 13.95,32.775 13.95,33 C13.95,33.225 14.175,33.45 14.4,33.45 C14.7,33.45 14.85,33.225 14.85,33 Z M12.6,30.75 C12.6,30.525 12.375,30.3 12.15,30.3 C11.925,30.3 11.7,30.525 11.7,30.75 C11.7,30.975 11.925,31.2 12.15,31.2 C12.375,31.2 12.6,30.975 12.6,30.75 Z M10.275,33 C10.275,32.775 10.05,32.55 9.825,32.55 C9.6,32.55 9.375,32.775 9.375,33 C9.375,33.225 9.6,33.45 9.825,33.45 C10.05,33.45 10.275,33.225 10.275,33 Z M8.1,30.75 C8.1,30.525 7.875,30.3 7.65,30.3 C7.425,30.3 7.2,30.525 7.2,30.75 C7.2,30.975 7.425,31.2 7.65,31.2 C7.875,31.2 8.1,30.975 8.1,30.75 Z M5.775,33 C5.775,32.775 5.55,32.55 5.325,32.55 C5.1,32.55 4.875,32.775 4.875,33 C4.875,33.225 5.1,33.45 5.325,33.45 C5.55,33.45 5.775,33.225 5.775,33 Z M3.45,30.75 C3.45,30.525 3.225,30.3 3,30.3 C2.775,30.3 2.55,30.525 2.55,30.75 C2.55,30.975 2.775,31.2 3,31.2 C3.225,31.2 3.45,30.975 3.45,30.75 Z M1.125,33 C1.125,32.775 0.9,32.55 0.675,32.55 C0.45,32.55 0.225,32.775 0.225,33 C0.225,33.225 0.45,33.45 0.675,33.45 C0.9,33.45 1.125,33.225 1.125,33 Z" id="Shape"></path>
                        <g id="Shape">
                            <path d="M24,0.975 C24,0.75 23.775,0.525 23.55,0.525 C23.325,0.525 23.1,0.75 23.1,0.975 C23.1,1.2 23.325,1.425 23.55,1.425 C23.775,1.425 24,1.2 24,0.975 Z M19.35,0.975 C19.35,0.75 19.125,0.525 18.9,0.525 C18.675,0.525 18.45,0.75 18.45,0.975 C18.45,1.2 18.675,1.425 18.9,1.425 C19.125,1.425 19.35,1.2 19.35,0.975 Z M14.85,0.975 C14.85,0.75 14.625,0.525 14.4,0.525 C14.175,0.525 13.95,0.75 13.95,0.975 C13.95,1.2 14.175,1.425 14.4,1.425 C14.7,1.425 14.85,1.2 14.85,0.975 Z M10.275,0.975 C10.275,0.75 10.05,0.525 9.825,0.525 C9.6,0.525 9.375,0.75 9.375,0.975 C9.375,1.2 9.6,1.425 9.825,1.425 C10.05,1.425 10.275,1.2 10.275,0.975 Z M5.775,0.975 C5.775,0.75 5.55,0.525 5.325,0.525 C5.1,0.525 4.875,0.75 4.875,0.975 C4.875,1.2 5.1,1.425 5.325,1.425 C5.55,1.425 5.775,1.2 5.775,0.975 Z M1.125,0.975 C1.125,0.75 0.9,0.525 0.675,0.525 C0.45,0.525 0.225,0.75 0.225,0.975 C0.225,1.2 0.45,1.425 0.675,1.425 C0.9,1.425 1.125,1.2 1.125,0.975 Z"></path>
                            <path d="M23.925,5.4 C23.925,5.175 23.7,4.95 23.475,4.95 C23.25,4.95 23.025,5.175 23.025,5.4 C23.025,5.625 23.25,5.85 23.475,5.85 C23.7,5.85 23.925,5.625 23.925,5.4 Z M23.925,9.975 C23.925,9.75 23.7,9.525 23.475,9.525 C23.25,9.525 23.025,9.75 23.025,9.975 C23.025,10.2 23.25,10.425 23.475,10.425 C23.7,10.425 23.925,10.275 23.925,9.975 Z M23.925,14.55 C23.925,14.325 23.7,14.1 23.475,14.1 C23.25,14.1 23.025,14.325 23.025,14.55 C23.025,14.775 23.25,15 23.475,15 C23.7,15 23.925,14.775 23.925,14.55 Z M21.6,3.075 C21.6,2.85 21.375,2.625 21.15,2.625 C20.925,2.625 20.7,2.85 20.7,3.075 C20.7,3.3 20.925,3.525 21.15,3.525 C21.375,3.6 21.6,3.375 21.6,3.075 Z M21.6,7.65 C21.6,7.425 21.375,7.2 21.15,7.2 C20.925,7.2 20.7,7.425 20.7,7.65 C20.7,7.875 20.925,8.1 21.15,8.1 C21.375,8.175 21.6,7.95 21.6,7.65 Z M21.6,12.3 C21.6,12.075 21.375,11.85 21.15,11.85 C20.925,11.85 20.7,12.075 20.7,12.3 C20.7,12.525 20.925,12.75 21.15,12.75 C21.375,12.75 21.6,12.525 21.6,12.3 Z M21.6,16.875 C21.6,16.65 21.375,16.425 21.15,16.425 C20.925,16.425 20.7,16.65 20.7,16.875 C20.7,17.1 20.925,17.325 21.15,17.325 C21.375,17.4 21.6,17.175 21.6,16.875 Z M19.275,5.4 C19.275,5.175 19.05,4.95 18.825,4.95 C18.6,4.95 18.375,5.175 18.375,5.4 C18.375,5.625 18.6,5.85 18.825,5.85 C19.05,5.85 19.275,5.625 19.275,5.4 Z M19.275,9.975 C19.275,9.75 19.05,9.525 18.825,9.525 C18.6,9.525 18.375,9.75 18.375,9.975 C18.375,10.2 18.6,10.425 18.825,10.425 C19.05,10.425 19.275,10.275 19.275,9.975 Z M19.275,14.55 C19.275,14.325 19.05,14.1 18.825,14.1 C18.6,14.1 18.375,14.325 18.375,14.55 C18.375,14.775 18.6,15 18.825,15 C19.05,15 19.275,14.775 19.275,14.55 Z M17.1,3.075 C17.1,2.85 16.875,2.625 16.65,2.625 C16.425,2.625 16.2,2.85 16.2,3.075 C16.2,3.3 16.425,3.525 16.65,3.525 C16.875,3.6 17.1,3.375 17.1,3.075 Z M17.1,7.65 C17.1,7.425 16.875,7.2 16.65,7.2 C16.425,7.2 16.2,7.425 16.2,7.65 C16.2,7.875 16.425,8.1 16.65,8.1 C16.875,8.175 17.1,7.95 17.1,7.65 Z M17.1,12.3 C17.1,12.075 16.875,11.85 16.65,11.85 C16.425,11.85 16.2,12.075 16.2,12.3 C16.2,12.525 16.425,12.75 16.65,12.75 C16.875,12.75 17.1,12.525 17.1,12.3 Z M17.1,16.875 C17.1,16.65 16.875,16.425 16.65,16.425 C16.425,16.425 16.2,16.65 16.2,16.875 C16.2,17.1 16.425,17.325 16.65,17.325 C16.875,17.325 17.1,17.175 17.1,16.875 Z M14.775,5.4 C14.775,5.175 14.55,4.95 14.325,4.95 C14.1,4.95 13.875,5.175 13.875,5.4 C13.875,5.625 14.1,5.85 14.325,5.85 C14.55,5.85 14.775,5.625 14.775,5.4 Z M14.775,9.975 C14.775,9.75 14.55,9.525 14.325,9.525 C14.1,9.525 13.875,9.75 13.875,9.975 C13.875,10.2 14.1,10.425 14.325,10.425 C14.55,10.425 14.775,10.275 14.775,9.975 Z M14.775,14.55 C14.775,14.325 14.55,14.1 14.325,14.1 C14.1,14.1 13.875,14.325 13.875,14.55 C13.875,14.775 14.1,15 14.325,15 C14.55,15 14.775,14.775 14.775,14.55 Z M12.45,3.075 C12.45,2.85 12.225,2.625 12,2.625 C11.775,2.625 11.55,2.85 11.55,3.075 C11.55,3.3 11.775,3.525 12,3.525 C12.225,3.6 12.45,3.375 12.45,3.075 Z M12.45,7.65 C12.45,7.425 12.225,7.2 12,7.2 C11.775,7.2 11.55,7.425 11.55,7.65 C11.55,7.875 11.775,8.1 12,8.1 C12.225,8.175 12.45,7.95 12.45,7.65 Z M12.45,12.3 C12.45,12.075 12.225,11.85 12,11.85 C11.775,11.85 11.55,12.075 11.55,12.3 C11.55,12.525 11.775,12.75 12,12.75 C12.225,12.75 12.45,12.525 12.45,12.3 Z M12.45,16.875 C12.45,16.65 12.225,16.425 12,16.425 C11.775,16.425 11.55,16.65 11.55,16.875 C11.55,17.1 11.775,17.325 12,17.325 C12.225,17.325 12.45,17.175 12.45,16.875 Z M10.125,5.4 C10.125,5.175 9.9,4.95 9.675,4.95 C9.45,4.95 9.225,5.175 9.225,5.4 C9.225,5.625 9.45,5.85 9.675,5.85 C9.975,5.85 10.125,5.625 10.125,5.4 Z M10.125,9.975 C10.125,9.75 9.9,9.525 9.675,9.525 C9.45,9.525 9.225,9.75 9.225,9.975 C9.225,10.2 9.45,10.425 9.675,10.425 C9.975,10.425 10.125,10.275 10.125,9.975 Z M10.125,14.55 C10.125,14.325 9.9,14.1 9.675,14.1 C9.45,14.1 9.225,14.325 9.225,14.55 C9.225,14.775 9.45,15 9.675,15 C9.975,15 10.125,14.775 10.125,14.55 Z M7.95,3.075 C7.95,2.85 7.725,2.625 7.5,2.625 C7.275,2.625 7.05,2.85 7.05,3.075 C7.05,3.3 7.275,3.525 7.5,3.525 C7.725,3.6 7.95,3.375 7.95,3.075 Z M7.95,7.65 C7.95,7.425 7.725,7.2 7.5,7.2 C7.275,7.2 7.05,7.425 7.05,7.65 C7.05,7.875 7.275,8.1 7.5,8.1 C7.725,8.175 7.95,7.95 7.95,7.65 Z M7.95,12.3 C7.95,12.075 7.725,11.85 7.5,11.85 C7.275,11.85 7.05,12.075 7.05,12.3 C7.05,12.525 7.2,12.75 7.5,12.75 C7.725,12.75 7.95,12.525 7.95,12.3 Z M7.95,16.875 C7.95,16.65 7.725,16.425 7.5,16.425 C7.275,16.425 7.05,16.65 7.05,16.875 C7.05,17.1 7.275,17.325 7.5,17.325 C7.725,17.325 7.95,17.175 7.95,16.875 Z M5.625,5.4 C5.625,5.175 5.4,4.95 5.175,4.95 C4.95,4.95 4.725,5.175 4.725,5.4 C4.725,5.625 4.95,5.85 5.175,5.85 C5.4,5.85 5.625,5.625 5.625,5.4 Z M5.625,9.975 C5.625,9.75 5.4,9.525 5.175,9.525 C4.95,9.525 4.725,9.75 4.725,9.975 C4.725,10.2 4.95,10.425 5.175,10.425 C5.4,10.425 5.625,10.275 5.625,9.975 Z M5.625,14.55 C5.625,14.325 5.4,14.1 5.175,14.1 C4.95,14.1 4.725,14.325 4.725,14.55 C4.725,14.775 4.95,15 5.175,15 C5.4,15 5.625,14.775 5.625,14.55 Z M3.375,3.075 C3.375,2.85 3.15,2.625 2.925,2.625 C2.7,2.625 2.475,2.85 2.475,3.075 C2.475,3.3 2.7,3.525 2.925,3.525 C3.15,3.6 3.375,3.375 3.375,3.075 Z M3.375,7.65 C3.375,7.425 3.15,7.2 2.925,7.2 C2.7,7.2 2.475,7.425 2.475,7.65 C2.475,7.875 2.7,8.1 2.925,8.1 C3.15,8.175 3.375,7.95 3.375,7.65 Z M3.375,12.3 C3.375,12.075 3.15,11.85 2.925,11.85 C2.7,11.85 2.475,12.075 2.475,12.3 C2.475,12.525 2.7,12.75 2.925,12.75 C3.15,12.75 3.375,12.525 3.375,12.3 Z M3.375,16.875 C3.375,16.65 3.15,16.425 2.925,16.425 C2.7,16.425 2.475,16.65 2.475,16.875 C2.475,17.1 2.7,17.325 2.925,17.325 C3.15,17.325 3.375,17.175 3.375,16.875 Z M1.05,5.4 C1.05,5.175 0.825,4.95 0.6,4.95 C0.375,4.95 0.15,5.175 0.15,5.4 C0.15,5.625 0.375,5.85 0.6,5.85 C0.825,5.85 1.05,5.625 1.05,5.4 Z M1.05,9.975 C1.05,9.75 0.825,9.525 0.6,9.525 C0.375,9.525 0.15,9.75 0.15,9.975 C0.15,10.2 0.375,10.425 0.6,10.425 C0.825,10.425 1.05,10.275 1.05,9.975 Z M1.05,14.55 C1.05,14.325 0.825,14.1 0.6,14.1 C0.375,14.1 0.15,14.325 0.15,14.55 C0.15,14.775 0.375,15 0.6,15 C0.825,15 1.05,14.775 1.05,14.55 Z"></path>
                        </g>
                    </g>
                    <rect id="Rectangle" fill="#56F24B" fill-rule="nonzero" transform="translate(51.599798, 4.873898) rotate(45.000000) translate(-51.599798, -4.873898) " x="48.6748256" y="1.94892555" width="5.8499439" height="5.8499439"></rect>
                </g>
            </g>
        </g>
    </g>
</svg>