<svg id="Ebene_1" data-name="Ebene 1" xmlns="http://www.w3.org/2000/svg" viewBox="0 0 90 91"><defs><style>.cls-1{fill:#56f24b;}.cls-2,.cls-3{fill:none;stroke:#000;}.cls-2{stroke-width:0.52px;}.cls-3{stroke-width:0.5px;}.cls-4{fill:#898989;}</style></defs><polygon id="Path" class="cls-1" points="68.13 74.7 68.13 79.48 34.13 79.48 34.13 90.75 90 90.75 90 74.7 68.13 74.7"/><polygon id="Rectangle" class="cls-1" points="0 45.84 8.59 45.84 8.59 49.39 6.74 49.6 6.76 52.58 0 52.58 0 45.84"/><circle id="Oval" class="cls-2" cx="48.92" cy="35.67" r="13.32"/><path id="Path-2" data-name="Path" class="cls-2" d="M57.68,45.7a13.32,13.32,0,1,0-17.46.07,19,19,0,0,0-10.31,16.9v17H68v-17A18.82,18.82,0,0,0,57.68,45.7Z"/><polygon id="Path-3" data-name="Path" class="cls-3" points="86.58 21.72 86.58 13.3 86.58 4.82 80.12 11.27 73.67 4.82 67.22 11.27 60.77 4.82 60.77 13.3 60.77 21.72 60.77 22.77 86.58 22.77 86.58 21.72"/><path id="Path-4" data-name="Path" class="cls-3" d="M89.1,24.45H58.24v1.69a13,13,0,0,0-9.32-3.79,13.32,13.32,0,0,0-8.7,23.42,19,19,0,0,0-10.31,16.9v17H68v-17a19.09,19.09,0,0,0-10.38-17,13.24,13.24,0,0,0,4.56-10,13.41,13.41,0,0,0-2.1-7.22H89v-4Z"/><circle id="Oval-2" data-name="Oval" class="cls-1" cx="73.67" cy="16.81" r="2.31"/><circle id="Oval-3" data-name="Oval" class="cls-1" cx="83.84" cy="16.81" r="1.61"/><circle id="Oval-4" data-name="Oval" class="cls-1" cx="63.85" cy="16.81" r="1.61"/><path id="Shape" class="cls-4" d="M89.92,63.52a.47.47,0,0,0-.44-.44.48.48,0,0,0-.46.44.49.49,0,0,0,.46.46A.48.48,0,0,0,89.92,63.52Zm0,4.58a.48.48,0,0,0-.44-.45.49.49,0,0,0-.46.45.49.49,0,0,0,.46.45A.43.43,0,0,0,89.92,68.1ZM87.6,65.85a.45.45,0,1,0-.45.45C87.38,66.38,87.6,66.15,87.6,65.85Zm-2.33-2.33a.45.45,0,0,0-.89,0,.45.45,0,1,0,.89,0Zm0,4.58a.45.45,0,1,0-.89,0,.48.48,0,0,0,.45.45A.43.43,0,0,0,85.27,68.1ZM83.1,65.85a.45.45,0,1,0-.45.45A.43.43,0,0,0,83.1,65.85Zm-2.33-2.33a.45.45,0,0,0-.89,0,.45.45,0,1,0,.89,0Zm0,4.58a.45.45,0,1,0-.89,0,.47.47,0,0,0,.44.45A.43.43,0,0,0,80.77,68.1Zm-2.32-2.25a.45.45,0,1,0-.45.45A.43.43,0,0,0,78.45,65.85Zm-2.33-2.33a.45.45,0,0,0-.89,0,.49.49,0,0,0,.45.46A.43.43,0,0,0,76.12,63.52Zm0,4.58a.45.45,0,1,0-.89,0,.48.48,0,0,0,.45.45C76,68.62,76.12,68.4,76.12,68.1ZM74,65.85a.45.45,0,1,0-.45.45A.43.43,0,0,0,74,65.85Zm-2.33-2.33a.47.47,0,0,0-.44-.44.48.48,0,0,0-.46.44.49.49,0,0,0,.46.46A.48.48,0,0,0,71.62,63.52Zm0,4.58a.48.48,0,0,0-.44-.45.49.49,0,0,0-.46.45.49.49,0,0,0,.46.45A.43.43,0,0,0,71.62,68.1Zm-2.24-2.25a.46.46,0,1,0-.46.45A.44.44,0,0,0,69.38,65.85Z"/><path id="Shape-2" data-name="Shape" class="cls-4" d="M89.92,58.88a.48.48,0,0,0-.44-.46.46.46,0,1,0,0,.91A.43.43,0,0,0,89.92,58.88ZM87.6,61.27a.45.45,0,0,0-.9,0,.45.45,0,1,0,.9,0Zm-2.33-2.39a.45.45,0,1,0-.44.45A.43.43,0,0,0,85.27,58.88ZM83.1,61.27a.45.45,0,0,0-.9,0,.45.45,0,1,0,.9,0Zm-2.33-2.39a.45.45,0,1,0-.45.45A.44.44,0,0,0,80.77,58.88Zm-2.32,2.39a.45.45,0,0,0-.9,0,.45.45,0,1,0,.9,0Zm-2.33-2.39a.45.45,0,1,0-.44.45C76,59.4,76.12,59.17,76.12,58.88ZM74,61.27a.45.45,0,0,0-.9,0,.45.45,0,1,0,.9,0Zm-2.33-2.39a.48.48,0,0,0-.44-.46.46.46,0,1,0,0,.91A.43.43,0,0,0,71.62,58.88Zm-2.24,2.39a.46.46,0,0,0-.91,0,.46.46,0,1,0,.91,0Z"/><path id="Shape-3" data-name="Shape" class="cls-4" d="M90,72.75a.45.45,0,1,0-.45.45A.49.49,0,0,0,90,72.75ZM87.67,70.5a.47.47,0,0,0-.44-.45.45.45,0,1,0,0,.9A.47.47,0,0,0,87.67,70.5Zm-2.32,2.25a.49.49,0,0,0-.45-.45.45.45,0,0,0,0,.9A.49.49,0,0,0,85.35,72.75ZM83.17,70.5a.47.47,0,0,0-.44-.45.45.45,0,1,0,0,.9A.47.47,0,0,0,83.17,70.5Zm-2.32,2.25a.45.45,0,1,0-.45.45A.43.43,0,0,0,80.85,72.75ZM78.6,70.5a.48.48,0,0,0-.45-.45.45.45,0,0,0,0,.9A.48.48,0,0,0,78.6,70.5Zm-2.33,2.25a.45.45,0,1,0-.45.45A.48.48,0,0,0,76.27,72.75ZM74.1,70.5a.48.48,0,0,0-.45-.45.45.45,0,0,0,0,.9A.48.48,0,0,0,74.1,70.5Zm-2.32,2.25a.49.49,0,0,0-.46-.45.45.45,0,0,0,0,.9A.49.49,0,0,0,71.78,72.75ZM69.45,70.5A.45.45,0,1,0,69,71,.48.48,0,0,0,69.45,70.5Z"/><path class="cls-4" d="M90,40.73a.45.45,0,1,0-.9,0,.45.45,0,0,0,.9,0Zm-4.65,0a.49.49,0,0,0-.45-.46.49.49,0,0,0-.45.46.47.47,0,0,0,.45.44A.48.48,0,0,0,85.35,40.73Zm-4.5,0a.45.45,0,1,0-.9,0,.48.48,0,0,0,.45.44A.43.43,0,0,0,80.85,40.73Zm-4.58,0a.45.45,0,1,0-.89,0,.45.45,0,0,0,.89,0Zm-4.49,0a.49.49,0,0,0-.46-.46.48.48,0,0,0-.44.46.47.47,0,0,0,.44.44A.48.48,0,0,0,71.78,40.73Zm-4.66,0a.48.48,0,0,0-.44-.46.49.49,0,0,0-.46.46.48.48,0,0,0,.46.44A.47.47,0,0,0,67.12,40.73Z"/><path class="cls-4" d="M89.92,45.15a.48.48,0,0,0-.44-.45.49.49,0,0,0-.46.45.49.49,0,0,0,.46.45A.47.47,0,0,0,89.92,45.15Zm0,4.58a.48.48,0,0,0-.44-.46.46.46,0,1,0,0,.91A.43.43,0,0,0,89.92,49.73Zm0,4.57a.47.47,0,0,0-.44-.45.49.49,0,0,0-.46.45.49.49,0,0,0,.46.45A.48.48,0,0,0,89.92,54.3ZM87.6,42.83a.45.45,0,0,0-.9,0,.48.48,0,0,0,.45.45C87.38,43.35,87.6,43.12,87.6,42.83Zm0,4.57a.45.45,0,1,0-.45.45C87.38,47.93,87.6,47.7,87.6,47.4Zm0,4.65a.45.45,0,0,0-.9,0,.45.45,0,1,0,.9,0Zm0,4.57a.45.45,0,1,0-.45.46C87.38,57.15,87.6,56.92,87.6,56.62ZM85.27,45.15a.45.45,0,1,0-.89,0,.45.45,0,1,0,.89,0Zm0,4.58a.45.45,0,1,0-.44.45A.43.43,0,0,0,85.27,49.73Zm0,4.57a.45.45,0,1,0-.89,0,.45.45,0,1,0,.89,0ZM83.1,42.83a.45.45,0,1,0-.9,0,.48.48,0,0,0,.45.45C82.88,43.35,83.1,43.12,83.1,42.83Zm0,4.57a.45.45,0,1,0-.45.45C82.88,47.93,83.1,47.7,83.1,47.4Zm0,4.65a.45.45,0,0,0-.9,0,.45.45,0,0,0,.9,0Zm0,4.57a.45.45,0,1,0-.45.46A.44.44,0,0,0,83.1,56.62ZM80.77,45.15a.45.45,0,1,0-.89,0,.45.45,0,1,0,.89,0Zm0,4.58a.45.45,0,1,0-.45.45A.44.44,0,0,0,80.77,49.73Zm0,4.57a.45.45,0,1,0-.89,0,.45.45,0,1,0,.89,0ZM78.45,42.83a.45.45,0,0,0-.9,0,.48.48,0,0,0,.45.45C78.23,43.35,78.45,43.12,78.45,42.83Zm0,4.57a.45.45,0,1,0-.45.45C78.23,47.93,78.45,47.7,78.45,47.4Zm0,4.65a.45.45,0,1,0-.9,0,.45.45,0,1,0,.9,0Zm0,4.57a.45.45,0,1,0-.45.46A.44.44,0,0,0,78.45,56.62ZM76.12,45.15a.45.45,0,1,0-.89,0,.48.48,0,0,0,.45.45A.42.42,0,0,0,76.12,45.15Zm0,4.58a.45.45,0,1,0-.44.45A.39.39,0,0,0,76.12,49.73Zm0,4.57a.45.45,0,1,0-.89,0,.48.48,0,0,0,.45.45A.43.43,0,0,0,76.12,54.3ZM74,42.83a.45.45,0,0,0-.9,0,.49.49,0,0,0,.45.45C73.72,43.35,74,43.12,74,42.83Zm0,4.57a.45.45,0,1,0-.45.45C73.72,47.93,74,47.7,74,47.4Zm0,4.65a.45.45,0,0,0-.9,0,.43.43,0,0,0,.45.45A.49.49,0,0,0,74,52.05Zm0,4.57a.45.45,0,1,0-.45.46A.44.44,0,0,0,74,56.62ZM71.62,45.15a.48.48,0,0,0-.44-.45.49.49,0,0,0-.46.45.49.49,0,0,0,.46.45A.47.47,0,0,0,71.62,45.15Zm0,4.58a.48.48,0,0,0-.44-.46.46.46,0,1,0,0,.91A.43.43,0,0,0,71.62,49.73Zm0,4.57a.47.47,0,0,0-.44-.45.49.49,0,0,0-.46.45.49.49,0,0,0,.46.45A.48.48,0,0,0,71.62,54.3ZM69.38,42.83a.46.46,0,0,0-.91,0,.49.49,0,0,0,.45.45C69.15,43.35,69.38,43.12,69.38,42.83Zm0,4.57a.46.46,0,1,0-.46.45C69.15,47.93,69.38,47.7,69.38,47.4Zm0,4.65a.46.46,0,0,0-.91,0,.46.46,0,0,0,.91,0Zm0,4.57a.46.46,0,1,0-.46.46A.45.45,0,0,0,69.38,56.62ZM67.05,45.15a.45.45,0,0,0-.9,0,.45.45,0,0,0,.9,0Zm0,4.58a.45.45,0,1,0-.45.45A.44.44,0,0,0,67.05,49.73Z"/><path id="Shape-4" data-name="Shape" class="cls-4" d="M24.62,14.83a.45.45,0,1,0,0,.89.45.45,0,1,0,0-.89Zm4.57,0a.45.45,0,1,0,0,.89.48.48,0,0,0,.45-.45A.43.43,0,0,0,29.19,14.83Zm-2.25,2.32a.45.45,0,0,0,0,.9.48.48,0,0,0,.45-.45C27.47,17.37,27.24,17.15,26.94,17.15Zm-2.32,2.32a.48.48,0,0,0-.45.45.48.48,0,0,0,.45.45.48.48,0,0,0,.45-.45A.49.49,0,0,0,24.62,19.47Zm4.57,0a.49.49,0,0,0-.45.45.48.48,0,0,0,.45.45.48.48,0,0,0,.45-.45A.43.43,0,0,0,29.19,19.47Zm-2.25,2.18a.45.45,0,0,0,0,.9.48.48,0,0,0,.45-.45A.43.43,0,0,0,26.94,21.65ZM24.62,24a.48.48,0,0,0-.45.45.48.48,0,0,0,.45.45.48.48,0,0,0,.45-.45A.49.49,0,0,0,24.62,24Zm4.57,0a.49.49,0,0,0-.45.45.48.48,0,0,0,.45.45.48.48,0,0,0,.45-.45A.43.43,0,0,0,29.19,24ZM26.94,26.3a.48.48,0,0,0-.45.45.49.49,0,0,0,.45.45.48.48,0,0,0,.45-.45A.43.43,0,0,0,26.94,26.3Zm-2.32,2.32a.48.48,0,0,0-.45.45.48.48,0,0,0,.45.45.48.48,0,0,0,.45-.45A.43.43,0,0,0,24.62,28.62Zm4.57,0a.49.49,0,0,0-.45.45.48.48,0,0,0,.45.45.48.48,0,0,0,.45-.45C29.72,28.77,29.49,28.62,29.19,28.62ZM26.94,30.8a.48.48,0,0,0-.45.45.49.49,0,0,0,.45.45.48.48,0,0,0,.45-.45A.43.43,0,0,0,26.94,30.8Zm-2.32,2.32a.48.48,0,0,0-.45.45.48.48,0,0,0,.45.45.48.48,0,0,0,.45-.45A.49.49,0,0,0,24.62,33.12Zm4.57,0a.49.49,0,0,0-.45.45.48.48,0,0,0,.45.45.48.48,0,0,0,.45-.45A.43.43,0,0,0,29.19,33.12Zm-2.25,2.25a.49.49,0,0,0-.45.45.48.48,0,0,0,.45.45.48.48,0,0,0,.45-.45A.43.43,0,0,0,26.94,35.37Z"/><path id="Shape-5" data-name="Shape" class="cls-4" d="M20,14.83a.45.45,0,1,0,0,.89.48.48,0,0,0,.45-.45A.43.43,0,0,0,20,14.83Zm2.4,2.32a.45.45,0,0,0,0,.9.45.45,0,0,0,0-.9ZM20,19.47a.48.48,0,0,0-.45.45.48.48,0,0,0,.45.45.48.48,0,0,0,.45-.45A.43.43,0,0,0,20,19.47Zm2.4,2.18a.45.45,0,0,0,0,.9.45.45,0,0,0,0-.9ZM20,24a.48.48,0,0,0-.45.45.48.48,0,0,0,.45.45.48.48,0,0,0,.45-.45A.43.43,0,0,0,20,24Zm2.4,2.33a.48.48,0,0,0-.45.45.48.48,0,0,0,.45.45.49.49,0,0,0,.45-.45A.48.48,0,0,0,22.37,26.3ZM20,28.62a.48.48,0,0,0-.45.45.48.48,0,0,0,.45.45.48.48,0,0,0,.45-.45C20.49,28.77,20.27,28.62,20,28.62Zm2.4,2.18a.48.48,0,0,0-.45.45.48.48,0,0,0,.45.45.49.49,0,0,0,.45-.45A.48.48,0,0,0,22.37,30.8ZM20,33.12a.48.48,0,0,0-.45.45A.48.48,0,0,0,20,34a.48.48,0,0,0,.45-.45A.43.43,0,0,0,20,33.12Zm2.4,2.25a.48.48,0,0,0-.45.45.48.48,0,0,0,.45.45.48.48,0,0,0,.45-.45A.49.49,0,0,0,22.37,35.37Z"/><path id="Shape-6" data-name="Shape" class="cls-4" d="M31.59,17.08a.45.45,0,1,0,0,.89.45.45,0,1,0,0-.89Zm0,4.5a.45.45,0,1,0,0,.89.45.45,0,1,0,0-.89Zm0,4.57a.48.48,0,0,0-.45.45.49.49,0,0,0,.45.45A.48.48,0,0,0,32,26.6.48.48,0,0,0,31.59,26.15Zm0,4.5a.48.48,0,0,0-.45.45.49.49,0,0,0,.45.45A.48.48,0,0,0,32,31.1.48.48,0,0,0,31.59,30.65Zm0,4.65a.48.48,0,0,0-.45.45.49.49,0,0,0,.45.45.48.48,0,0,0,.45-.45A.48.48,0,0,0,31.59,35.3Z"/><path class="cls-4" d="M1.82,14.75a.48.48,0,0,0-.45.45.48.48,0,0,0,.45.45.49.49,0,0,0,.45-.45A.48.48,0,0,0,1.82,14.75Zm0,4.65a.45.45,0,0,0,0,.9.45.45,0,0,0,0-.9Zm0,4.5a.48.48,0,0,0-.45.45.48.48,0,0,0,.45.45.49.49,0,0,0,.45-.45A.43.43,0,0,0,1.82,23.9Zm0,4.57a.48.48,0,0,0-.45.45.48.48,0,0,0,.45.45.48.48,0,0,0,.45-.45A.49.49,0,0,0,1.82,28.47Zm0,4.5a.48.48,0,0,0-.45.45.48.48,0,0,0,.45.45.48.48,0,0,0,.45-.45A.49.49,0,0,0,1.82,33Zm-.45,5.1"/><path class="cls-4" d="M6.24,14.83a.45.45,0,1,0,0,.89.45.45,0,1,0,0-.89Zm4.58,0a.45.45,0,1,0,0,.89.48.48,0,0,0,.45-.45A.43.43,0,0,0,10.82,14.83Zm4.57,0a.45.45,0,1,0,0,.89.45.45,0,1,0,0-.89ZM3.92,17.15a.45.45,0,0,0,0,.9.48.48,0,0,0,.45-.45C4.44,17.37,4.22,17.15,3.92,17.15Zm4.57,0a.45.45,0,0,0,0,.9.48.48,0,0,0,.45-.45C9,17.37,8.79,17.15,8.49,17.15Zm4.65,0a.45.45,0,0,0,0,.9.45.45,0,0,0,0-.9Zm4.58,0a.45.45,0,0,0,0,.9.48.48,0,0,0,.45-.45C18.24,17.37,18,17.15,17.72,17.15ZM6.24,19.47a.49.49,0,0,0-.45.45.48.48,0,0,0,.45.45.48.48,0,0,0,.45-.45A.48.48,0,0,0,6.24,19.47Zm4.58,0a.48.48,0,0,0-.45.45.48.48,0,0,0,.45.45.48.48,0,0,0,.45-.45A.43.43,0,0,0,10.82,19.47Zm4.57,0a.49.49,0,0,0-.45.45.48.48,0,0,0,.45.45.48.48,0,0,0,.45-.45A.48.48,0,0,0,15.39,19.47ZM3.92,21.65a.45.45,0,0,0,0,.9.48.48,0,0,0,.45-.45C4.44,21.87,4.22,21.65,3.92,21.65Zm4.57,0a.45.45,0,0,0,0,.9.48.48,0,0,0,.45-.45C9,21.87,8.79,21.65,8.49,21.65Zm4.65,0a.45.45,0,1,0,0,.9.45.45,0,0,0,0-.9Zm4.58,0a.45.45,0,0,0,0,.9.48.48,0,0,0,.45-.45A.43.43,0,0,0,17.72,21.65ZM6.24,24a.49.49,0,0,0-.45.45.48.48,0,0,0,.45.45.48.48,0,0,0,.45-.45A.48.48,0,0,0,6.24,24Zm4.58,0a.48.48,0,0,0-.45.45.48.48,0,0,0,.45.45.48.48,0,0,0,.45-.45A.43.43,0,0,0,10.82,24Zm4.57,0a.49.49,0,0,0-.45.45.48.48,0,0,0,.45.45.48.48,0,0,0,.45-.45A.48.48,0,0,0,15.39,24ZM3.92,26.3a.48.48,0,0,0-.45.45.48.48,0,0,0,.45.45.49.49,0,0,0,.45-.45C4.44,26.52,4.22,26.3,3.92,26.3Zm4.57,0a.48.48,0,0,0-.45.45.49.49,0,0,0,.45.45.48.48,0,0,0,.45-.45C9,26.52,8.79,26.3,8.49,26.3Zm4.65,0a.48.48,0,0,0-.45.45.49.49,0,0,0,.45.45.48.48,0,0,0,.45-.45A.48.48,0,0,0,13.14,26.3Zm4.58,0a.48.48,0,0,0-.45.45.48.48,0,0,0,.45.45.49.49,0,0,0,.45-.45A.43.43,0,0,0,17.72,26.3ZM6.24,28.62a.49.49,0,0,0-.45.45.48.48,0,0,0,.45.45.48.48,0,0,0,.45-.45A.43.43,0,0,0,6.24,28.62Zm4.58,0a.48.48,0,0,0-.45.45.48.48,0,0,0,.45.45.48.48,0,0,0,.45-.45A.4.4,0,0,0,10.82,28.62Zm4.57,0a.49.49,0,0,0-.45.45.48.48,0,0,0,.45.45.48.48,0,0,0,.45-.45A.43.43,0,0,0,15.39,28.62ZM3.92,30.8a.48.48,0,0,0-.45.45.48.48,0,0,0,.45.45.49.49,0,0,0,.45-.45C4.44,31,4.22,30.8,3.92,30.8Zm4.57,0a.48.48,0,0,0-.45.45.49.49,0,0,0,.45.45.48.48,0,0,0,.45-.45C9,31,8.79,30.8,8.49,30.8Zm4.65,0a.48.48,0,0,0-.45.45.49.49,0,0,0,.45.45.43.43,0,0,0,.45-.45A.48.48,0,0,0,13.14,30.8Zm4.58,0a.48.48,0,0,0-.45.45.48.48,0,0,0,.45.45.49.49,0,0,0,.45-.45A.43.43,0,0,0,17.72,30.8ZM6.24,33.12a.49.49,0,0,0-.45.45.48.48,0,0,0,.45.45.48.48,0,0,0,.45-.45A.48.48,0,0,0,6.24,33.12Zm4.58,0a.48.48,0,0,0-.45.45.48.48,0,0,0,.45.45.48.48,0,0,0,.45-.45A.43.43,0,0,0,10.82,33.12Zm4.57,0a.49.49,0,0,0-.45.45.48.48,0,0,0,.45.45.48.48,0,0,0,.45-.45A.48.48,0,0,0,15.39,33.12ZM3.92,35.37a.48.48,0,0,0-.45.45.48.48,0,0,0,.45.45.48.48,0,0,0,.45-.45C4.44,35.6,4.22,35.37,3.92,35.37Zm4.57,0a.49.49,0,0,0-.45.45.48.48,0,0,0,.45.45.48.48,0,0,0,.45-.45C9,35.6,8.79,35.37,8.49,35.37Zm4.65,0a.49.49,0,0,0-.45.45.48.48,0,0,0,.45.45.48.48,0,0,0,.45-.45A.48.48,0,0,0,13.14,35.37Zm4.58,0a.48.48,0,0,0-.45.45.48.48,0,0,0,.45.45.48.48,0,0,0,.45-.45A.43.43,0,0,0,17.72,35.37Z"/><rect id="Rectangle-2" data-name="Rectangle" class="cls-1" x="70.94" y="1.87" width="5.47" height="5.47" transform="translate(18.32 53.44) rotate(-45)"/><path id="Path-5" data-name="Path" class="cls-3" d="M31.12,79.65a14.73,14.73,0,0,1-14,10.18H.22"/><path id="Path-6" data-name="Path" class="cls-3" d="M17.15,60.47A14.66,14.66,0,0,1,29.91,67.9"/><rect id="Rectangle-3" data-name="Rectangle" class="cls-3" x="6.66" y="49.38" width="10.47" height="24.86"/><rect id="Rectangle-4" data-name="Rectangle" class="cls-3" x="8.59" y="46.95" width="6.17" height="2.44"/><rect id="Rectangle-5" data-name="Rectangle" class="cls-3" x="10.85" y="74.24" width="2.82" height="4.16"/><line id="Path-7" data-name="Path" class="cls-3" x1="29.91" y1="82.47" x2="6.68" y2="82.47"/></svg>