<?xml version="1.0" encoding="utf-8"?>
<!-- Generator: Adobe Illustrator 22.1.0, SVG Export Plug-In . SVG Version: 6.00 Build 0)  -->
<svg version="1.1" id="Layer_1" xmlns="http://www.w3.org/2000/svg" xmlns:xlink="http://www.w3.org/1999/xlink" x="0px" y="0px"
	 viewBox="0 0 24 24" style="enable-background:new 0 0 24 24;" xml:space="preserve">
<g id="Creator_x27_s-Heaven">
	<g id="Flow-1---Skills-in-Studio-Start" transform="translate(-232.000000, -324.000000)">
		<g id="Dropdown_x2F_with-icon-templates_x2F_4-icon-list-items" transform="translate(224.000000, 156.000000)">
			<g id="Dropdown_x2F_list-item_x2F_left-icon_x2F_32--hover" transform="translate(8.000000, 168.000000)">
				<g id="Icons_x2F_24px_x2F_User_x2F_team" transform="translate(8.000000, 6.000000)">
					<path id="Fill" d="M11.5-2.8H4.6c-0.7,0-1.2,0.6-1.2,1.2v3.8h-6.9c-0.7,0-1.2,0.6-1.2,1.2v10c0,0.7,0.6,1.2,1.2,1.2h6.9
						c0.7,0,1.2-0.6,1.2-1.2V9.8h6.9c0.7,0,1.2-0.6,1.2-1.2v-10C12.7-2.2,12.2-2.7,11.5-2.8z M11.5-1.5V1H4.6v-2.5H11.5z M3.4,9.8
						h-6.9V7.2h6.9V9.8z M4.6,2.2h6.9l0,2.5H4.6V2.2z M3.4,3.5V6h-6.9V3.5H3.4z M-3.5,13.5V11h6.9v2.5H-3.5z M4.6,8.5V6h6.9v2.5H4.6
						z"/>
				</g>
			</g>
		</g>
	</g>
</g>
</svg>
