<?xml version="1.0" encoding="UTF-8"?>
<svg width="91px" height="90px" viewBox="0 0 91 90" version="1.1" xmlns="http://www.w3.org/2000/svg" xmlns:xlink="http://www.w3.org/1999/xlink">
    <title>0037 Rebranded help page-32</title>
    <g id="Page-1" stroke="none" stroke-width="1" fill="none" fill-rule="evenodd">
        <g id="membersfix-copy" transform="translate(-888.000000, -135.000000)">
            <g id="Group-7" transform="translate(246.000000, 110.000000)">
                <g id="Group-6" transform="translate(304.000000, 24.000000)">
                    <g id="0037-Rebranded-help-page-32" transform="translate(338.000000, 1.000000)">
                        <circle id="Oval" stroke="#000000" stroke-width="0.5" cx="64.275" cy="14.85" r="13.875"></circle>
                        <path d="M73.425,25.35 C76.35,22.8 78.15,19.05 78.15,14.925 C78.15,7.275 71.925,1.05 64.275,1.05 C56.625,1.05 50.4,7.2 50.4,14.85 C50.4,19.05 52.275,22.8 55.2,25.35 C48.9,28.65 44.55,35.25 44.55,42.9 L44.55,60.525 L84.15,60.525 L84.15,42.9 C84.15,35.25 79.8,28.575 73.425,25.35 Z" id="Path" stroke="#000000" stroke-width="0.5"></path>
                        <g id="Group" transform="translate(18.750000, 3.000000)" fill="#898989" fill-rule="nonzero">
                            <path d="M24.075,23.775 C24.075,23.55 23.85,23.325 23.625,23.325 C23.4,23.325 23.175,23.55 23.175,23.775 C23.175,24 23.4,24.225 23.625,24.225 C23.85,24.225 24.075,24.075 24.075,23.775 Z M24.075,28.425 C24.075,28.2 23.85,27.975 23.625,27.975 C23.4,27.975 23.175,28.2 23.175,28.425 C23.175,28.65 23.4,28.875 23.625,28.875 C23.85,28.875 24.075,28.65 24.075,28.425 Z M21.75,26.175 C21.75,25.95 21.525,25.725 21.3,25.725 C21.075,25.725 20.85,25.95 20.85,26.175 C20.85,26.4 21.075,26.625 21.3,26.625 C21.525,26.625 21.75,26.4 21.75,26.175 Z M19.425,23.775 C19.425,23.55 19.2,23.325 18.975,23.325 C18.75,23.325 18.525,23.55 18.525,23.775 C18.525,24 18.75,24.225 18.975,24.225 C19.2,24.225 19.425,24.075 19.425,23.775 Z M19.425,28.425 C19.425,28.2 19.2,27.975 18.975,27.975 C18.75,27.975 18.525,28.2 18.525,28.425 C18.525,28.65 18.75,28.875 18.975,28.875 C19.2,28.875 19.425,28.65 19.425,28.425 Z M17.25,26.175 C17.25,25.95 17.025,25.725 16.8,25.725 C16.575,25.725 16.35,25.95 16.35,26.175 C16.35,26.4 16.575,26.625 16.8,26.625 C17.025,26.625 17.25,26.4 17.25,26.175 Z M14.925,23.775 C14.925,23.55 14.7,23.325 14.475,23.325 C14.25,23.325 14.025,23.55 14.025,23.775 C14.025,24 14.25,24.225 14.475,24.225 C14.7,24.225 14.925,24.075 14.925,23.775 Z M14.925,28.425 C14.925,28.2 14.7,27.975 14.475,27.975 C14.25,27.975 14.025,28.2 14.025,28.425 C14.025,28.65 14.25,28.875 14.475,28.875 C14.7,28.875 14.925,28.65 14.925,28.425 Z M12.6,26.175 C12.6,25.95 12.375,25.725 12.15,25.725 C11.925,25.725 11.7,25.95 11.7,26.175 C11.7,26.4 11.925,26.625 12.15,26.625 C12.375,26.625 12.6,26.4 12.6,26.175 Z M10.35,23.775 C10.35,23.55 10.125,23.325 9.9,23.325 C9.675,23.325 9.45,23.55 9.45,23.775 C9.45,24 9.675,24.225 9.9,24.225 C10.125,24.3 10.35,24.075 10.35,23.775 Z M10.35,28.425 C10.35,28.2 10.125,27.975 9.9,27.975 C9.675,27.975 9.45,28.2 9.45,28.425 C9.45,28.65 9.675,28.875 9.9,28.875 C10.125,28.875 10.35,28.65 10.35,28.425 Z" id="Shape"></path>
                            <path d="M24.075,19.2 C24.075,18.975 23.85,18.75 23.625,18.75 C23.4,18.75 23.175,18.975 23.175,19.2 C23.175,19.425 23.4,19.65 23.625,19.65 C23.85,19.65 24.075,19.425 24.075,19.2 Z M21.75,21.525 C21.75,21.3 21.525,21.075 21.3,21.075 C21.075,21.075 20.85,21.3 20.85,21.525 C20.85,21.75 21.075,21.975 21.3,21.975 C21.525,21.975 21.75,21.825 21.75,21.525 Z M19.425,19.2 C19.425,18.975 19.2,18.75 18.975,18.75 C18.75,18.75 18.525,18.975 18.525,19.2 C18.525,19.425 18.75,19.65 18.975,19.65 C19.2,19.65 19.425,19.425 19.425,19.2 Z M17.25,21.525 C17.25,21.3 17.025,21.075 16.8,21.075 C16.575,21.075 16.35,21.3 16.35,21.525 C16.35,21.75 16.575,21.975 16.8,21.975 C17.025,22.05 17.25,21.825 17.25,21.525 Z M14.925,19.2 C14.925,18.975 14.7,18.75 14.475,18.75 C14.25,18.75 14.025,18.975 14.025,19.2 C14.025,19.425 14.25,19.65 14.475,19.65 C14.7,19.65 14.925,19.425 14.925,19.2 Z M12.6,21.525 C12.6,21.3 12.375,21.075 12.15,21.075 C11.925,21.075 11.7,21.3 11.7,21.525 C11.7,21.75 11.925,21.975 12.15,21.975 C12.375,21.975 12.6,21.825 12.6,21.525 Z M10.35,19.2 C10.35,18.975 10.125,18.75 9.9,18.75 C9.675,18.75 9.45,18.975 9.45,19.2 C9.45,19.425 9.675,19.65 9.9,19.65 C10.125,19.65 10.35,19.425 10.35,19.2 Z M5.775,19.2 C5.775,18.975 5.55,18.75 5.325,18.75 C5.1,18.75 4.875,18.975 4.875,19.2 C4.875,19.425 5.1,19.65 5.325,19.65 C5.625,19.65 5.775,19.425 5.775,19.2 Z" id="Shape"></path>
                            <path d="M24.15,33 C24.15,32.775 23.925,32.55 23.7,32.55 C23.475,32.55 23.25,32.775 23.25,33 C23.25,33.225 23.475,33.45 23.7,33.45 C23.925,33.45 24.15,33.3 24.15,33 Z M21.825,30.75 C21.825,30.525 21.6,30.3 21.375,30.3 C21.15,30.3 20.925,30.525 20.925,30.75 C20.925,30.975 21.15,31.2 21.375,31.2 C21.6,31.275 21.825,31.05 21.825,30.75 Z M19.575,33 C19.575,32.775 19.35,32.55 19.125,32.55 C18.9,32.55 18.675,32.775 18.675,33 C18.675,33.225 18.9,33.45 19.125,33.45 C19.35,33.45 19.575,33.3 19.575,33 Z M17.325,30.75 C17.325,30.525 17.1,30.3 16.875,30.3 C16.65,30.3 16.425,30.525 16.425,30.75 C16.425,30.975 16.65,31.2 16.875,31.2 C17.1,31.2 17.325,31.05 17.325,30.75 Z M15,33 C15,32.775 14.775,32.55 14.55,32.55 C14.325,32.55 14.1,32.775 14.1,33 C14.1,33.225 14.325,33.45 14.55,33.45 C14.85,33.525 15,33.3 15,33 Z M12.75,30.75 C12.75,30.525 12.525,30.3 12.3,30.3 C12.075,30.3 11.85,30.525 11.85,30.75 C11.85,30.975 12.075,31.2 12.3,31.2 C12.525,31.2 12.75,31.05 12.75,30.75 Z M10.425,33 C10.425,32.775 10.2,32.55 9.975,32.55 C9.75,32.55 9.525,32.775 9.525,33 C9.525,33.225 9.75,33.45 9.975,33.45 C10.2,33.45 10.425,33.3 10.425,33 Z" id="Shape"></path>
                            <g id="Shape">
                                <path d="M24.15,0.975 C24.15,0.75 23.925,0.525 23.7,0.525 C23.475,0.525 23.175,0.75 23.175,0.975 C23.175,1.2 23.4,1.425 23.625,1.425 C23.85,1.425 24.15,1.275 24.15,0.975 Z M19.575,0.975 C19.575,0.75 19.35,0.525 19.125,0.525 C18.9,0.525 18.6,0.75 18.6,0.975 C18.6,1.2 18.825,1.425 19.05,1.425 C19.275,1.425 19.575,1.275 19.575,0.975 Z M15,0.975 C15,0.75 14.775,0.525 14.55,0.525 C14.325,0.525 14.1,0.75 14.1,0.975 C14.1,1.2 14.325,1.425 14.55,1.425 C14.85,1.5 15,1.275 15,0.975 Z M10.425,0.975 C10.425,0.75 10.2,0.525 9.975,0.525 C9.75,0.525 9.45,0.75 9.45,0.975 C9.45,1.2 9.675,1.425 9.9,1.425 C10.125,1.425 10.425,1.275 10.425,0.975 Z M5.925,0.975 C5.925,0.75 5.7,0.525 5.475,0.525 C5.25,0.525 5.025,0.75 5.025,0.975 C5.025,1.2 5.25,1.425 5.475,1.425 C5.7,1.5 5.925,1.275 5.925,0.975 Z M1.275,0.975 C1.275,0.75 1.05,0.525 0.825,0.525 C0.6,0.525 0.375,0.75 0.375,0.975 C0.375,1.2 0.6,1.425 0.825,1.425 C1.125,1.5 1.275,1.275 1.275,0.975 Z"></path>
                                <path d="M24.075,5.4 C24.075,5.175 23.85,4.95 23.625,4.95 C23.4,4.95 23.175,5.175 23.175,5.4 C23.175,5.625 23.4,5.85 23.625,5.85 C23.85,5.85 24.075,5.625 24.075,5.4 Z M24.075,9.975 C24.075,9.75 23.85,9.525 23.625,9.525 C23.4,9.525 23.175,9.75 23.175,9.975 C23.175,10.2 23.4,10.425 23.625,10.425 C23.85,10.425 24.075,10.275 24.075,9.975 Z M24.075,14.55 C24.075,14.325 23.85,14.1 23.625,14.1 C23.4,14.1 23.175,14.325 23.175,14.55 C23.175,14.775 23.4,15 23.625,15 C23.85,15 24.075,14.85 24.075,14.55 Z M21.75,3.075 C21.75,2.85 21.525,2.625 21.3,2.625 C21.075,2.625 20.85,2.85 20.85,3.075 C20.85,3.3 21.075,3.525 21.3,3.525 C21.525,3.6 21.75,3.375 21.75,3.075 Z M21.75,7.725 C21.75,7.5 21.525,7.275 21.3,7.275 C21.075,7.275 20.85,7.5 20.85,7.725 C20.85,7.95 21.075,8.175 21.3,8.175 C21.525,8.175 21.75,7.95 21.75,7.725 Z M21.75,12.3 C21.75,12.075 21.525,11.85 21.3,11.85 C21.075,11.85 20.85,12.075 20.85,12.3 C20.85,12.525 21.075,12.75 21.3,12.75 C21.525,12.825 21.75,12.6 21.75,12.3 Z M21.75,16.95 C21.75,16.725 21.525,16.5 21.3,16.5 C21.075,16.5 20.85,16.725 20.85,16.95 C20.85,17.175 21.075,17.4 21.3,17.4 C21.525,17.4 21.75,17.175 21.75,16.95 Z M19.425,5.4 C19.425,5.175 19.2,4.95 18.975,4.95 C18.75,4.95 18.525,5.175 18.525,5.4 C18.525,5.625 18.75,5.85 18.975,5.85 C19.2,5.85 19.425,5.625 19.425,5.4 Z M19.425,9.975 C19.425,9.75 19.2,9.525 18.975,9.525 C18.75,9.525 18.525,9.75 18.525,9.975 C18.525,10.2 18.75,10.425 18.975,10.425 C19.2,10.425 19.425,10.275 19.425,9.975 Z M19.425,14.55 C19.425,14.325 19.2,14.1 18.975,14.1 C18.75,14.1 18.525,14.325 18.525,14.55 C18.525,14.775 18.75,15 18.975,15 C19.2,15 19.425,14.85 19.425,14.55 Z M17.25,3.075 C17.25,2.85 17.025,2.625 16.8,2.625 C16.575,2.625 16.35,2.85 16.35,3.075 C16.35,3.3 16.575,3.525 16.8,3.525 C17.025,3.6 17.25,3.375 17.25,3.075 Z M17.25,7.725 C17.25,7.5 17.025,7.275 16.8,7.275 C16.575,7.275 16.35,7.5 16.35,7.725 C16.35,7.95 16.575,8.175 16.8,8.175 C17.025,8.175 17.25,7.95 17.25,7.725 Z M17.25,12.3 C17.25,12.075 17.025,11.85 16.8,11.85 C16.575,11.85 16.35,12.075 16.35,12.3 C16.35,12.525 16.575,12.75 16.8,12.75 C17.025,12.825 17.25,12.6 17.25,12.3 Z M17.25,16.95 C17.25,16.725 17.025,16.5 16.8,16.5 C16.575,16.5 16.35,16.725 16.35,16.95 C16.35,17.175 16.575,17.4 16.8,17.4 C17.025,17.4 17.25,17.175 17.25,16.95 Z M14.925,5.4 C14.925,5.175 14.7,4.95 14.475,4.95 C14.25,4.95 14.025,5.175 14.025,5.4 C14.025,5.625 14.25,5.85 14.475,5.85 C14.7,5.85 14.925,5.625 14.925,5.4 Z M14.925,9.975 C14.925,9.75 14.7,9.525 14.475,9.525 C14.25,9.525 14.025,9.75 14.025,9.975 C14.025,10.2 14.25,10.425 14.475,10.425 C14.7,10.425 14.925,10.275 14.925,9.975 Z M14.925,14.55 C14.925,14.325 14.7,14.1 14.475,14.1 C14.25,14.1 14.025,14.325 14.025,14.55 C14.025,14.775 14.25,15 14.475,15 C14.7,15 14.925,14.85 14.925,14.55 Z M12.6,3.075 C12.6,2.85 12.375,2.625 12.15,2.625 C11.925,2.625 11.7,2.85 11.7,3.075 C11.7,3.3 11.925,3.525 12.15,3.525 C12.375,3.6 12.6,3.375 12.6,3.075 Z M12.6,7.725 C12.6,7.5 12.375,7.275 12.15,7.275 C11.925,7.275 11.7,7.5 11.7,7.725 C11.7,7.95 11.925,8.175 12.15,8.175 C12.375,8.175 12.6,7.95 12.6,7.725 Z M12.6,12.3 C12.6,12.075 12.375,11.85 12.15,11.85 C11.925,11.85 11.7,12.075 11.7,12.3 C11.7,12.525 11.925,12.75 12.15,12.75 C12.375,12.825 12.6,12.6 12.6,12.3 Z M12.6,16.95 C12.6,16.725 12.375,16.5 12.15,16.5 C11.925,16.5 11.7,16.725 11.7,16.95 C11.7,17.175 11.925,17.4 12.15,17.4 C12.375,17.4 12.6,17.175 12.6,16.95 Z M10.35,5.4 C10.35,5.175 10.125,4.95 9.9,4.95 C9.675,4.95 9.45,5.175 9.45,5.4 C9.45,5.625 9.675,5.85 9.9,5.85 C10.125,5.85 10.35,5.625 10.35,5.4 Z M10.35,9.975 C10.35,9.75 10.125,9.525 9.9,9.525 C9.675,9.525 9.45,9.75 9.45,9.975 C9.45,10.2 9.675,10.425 9.9,10.425 C10.125,10.5 10.35,10.275 10.35,9.975 Z M10.35,14.55 C10.35,14.325 10.125,14.1 9.9,14.1 C9.675,14.1 9.45,14.325 9.45,14.55 C9.45,14.775 9.675,15 9.9,15 C10.125,15.075 10.35,14.85 10.35,14.55 Z M8.1,3.075 C8.1,2.85 7.875,2.625 7.65,2.625 C7.425,2.625 7.2,2.85 7.2,3.075 C7.2,3.3 7.425,3.525 7.65,3.525 C7.875,3.6 8.1,3.375 8.1,3.075 Z M8.1,7.725 C8.1,7.5 7.875,7.275 7.65,7.275 C7.425,7.275 7.2,7.5 7.2,7.725 C7.2,7.95 7.425,8.175 7.65,8.175 C7.875,8.175 8.1,7.95 8.1,7.725 Z M8.1,12.3 C8.1,12.075 7.875,11.85 7.65,11.85 C7.425,11.85 7.2,12.075 7.2,12.3 C7.2,12.525 7.425,12.75 7.65,12.75 C7.875,12.825 8.1,12.6 8.1,12.3 Z M8.1,16.95 C8.1,16.725 7.875,16.5 7.65,16.5 C7.425,16.5 7.2,16.725 7.2,16.95 C7.2,17.175 7.425,17.4 7.65,17.4 C7.875,17.4 8.1,17.175 8.1,16.95 Z M5.775,5.4 C5.775,5.175 5.55,4.95 5.325,4.95 C5.1,4.95 4.875,5.175 4.875,5.4 C4.875,5.625 5.1,5.85 5.325,5.85 C5.625,5.85 5.775,5.625 5.775,5.4 Z M5.775,9.975 C5.775,9.75 5.55,9.525 5.325,9.525 C5.1,9.525 4.875,9.75 4.875,9.975 C4.875,10.2 5.1,10.425 5.325,10.425 C5.625,10.5 5.775,10.275 5.775,9.975 Z M5.775,14.55 C5.775,14.325 5.55,14.1 5.325,14.1 C5.1,14.1 4.875,14.325 4.875,14.55 C4.875,14.775 5.1,15 5.325,15 C5.625,15.075 5.775,14.85 5.775,14.55 Z M3.525,3.075 C3.525,2.85 3.3,2.625 3.075,2.625 C2.85,2.625 2.625,2.85 2.625,3.075 C2.625,3.3 2.85,3.525 3.075,3.525 C3.3,3.6 3.525,3.375 3.525,3.075 Z M3.525,7.725 C3.525,7.5 3.3,7.275 3.075,7.275 C2.85,7.275 2.625,7.5 2.625,7.725 C2.625,7.95 2.85,8.175 3.075,8.175 C3.3,8.175 3.525,7.95 3.525,7.725 Z M3.525,12.3 C3.525,12.075 3.3,11.85 3.075,11.85 C2.85,11.85 2.625,12.075 2.625,12.3 C2.625,12.525 2.85,12.75 3.075,12.75 C3.3,12.825 3.525,12.6 3.525,12.3 Z M1.2,5.4 C1.2,5.175 0.975,4.95 0.75,4.95 C0.525,4.95 0.3,5.175 0.3,5.4 C0.3,5.625 0.525,5.85 0.75,5.85 C0.975,5.85 1.2,5.625 1.2,5.4 Z M1.2,9.975 C1.2,9.75 0.975,9.525 0.75,9.525 C0.525,9.525 0.3,9.75 0.3,9.975 C0.3,10.2 0.525,10.425 0.75,10.425 C0.975,10.5 1.2,10.275 1.2,9.975 Z M1.2,14.55 C1.2,14.325 0.975,14.1 0.75,14.1 C0.525,14.1 0.3,14.325 0.3,14.55 C0.3,14.775 0.525,15 0.75,15 C0.975,15.075 1.2,14.85 1.2,14.55 Z"></path>
                            </g>
                        </g>
                        <g id="Group" transform="translate(0.000000, 19.500000)" stroke="#000000" stroke-width="0.5">
                            <path d="M26.55,21.75 C39.3,21.75 49.575,32.1 49.575,44.775 C49.575,57.45 39.225,67.8 26.55,67.8 L0,67.8" id="Path"></path>
                            <rect id="Rectangle" transform="translate(18.317250, 23.849625) rotate(-180.000000) translate(-18.317250, -23.849625) " x="10.10475" y="4.349625" width="16.425" height="39"></rect>
                            <rect id="Rectangle" transform="translate(17.958825, 2.447475) rotate(-180.000000) translate(-17.958825, -2.447475) " x="13.121325" y="0.534974999" width="9.675" height="3.825"></rect>
                            <rect id="Rectangle" transform="translate(18.889725, 46.610475) rotate(-180.000000) translate(-18.889725, -46.610475) " x="16.677225" y="43.347975" width="4.425" height="6.525"></rect>
                            <line x1="46.575" y1="56.25" x2="10.125" y2="56.25" id="Path"></line>
                        </g>
                        <g id="Group" transform="translate(54.750000, 57.000000)" fill="#56F24B" fill-rule="nonzero">
                            <rect id="Rectangle" transform="translate(31.007625, 21.652050) rotate(-180.000000) translate(-31.007625, -21.652050) " x="26.732625" y="10.32705" width="8.55" height="22.65"></rect>
                            <rect id="Rectangle" transform="translate(17.749575, 16.661550) rotate(-180.000000) translate(-17.749575, -16.661550) " x="13.474575" y="0.349049997" width="8.55" height="32.625"></rect>
                            <rect id="Rectangle" transform="translate(4.566525, 20.102700) rotate(-180.000000) translate(-4.566525, -20.102700) " x="0.291525003" y="7.2402" width="8.55" height="25.725"></rect>
                        </g>
                        <rect id="Rectangle" fill="#56F24B" fill-rule="nonzero" x="10.425" y="0" width="11.85" height="6.6"></rect>
                    </g>
                </g>
            </g>
        </g>
    </g>
</svg>