<?xml version="1.0" encoding="UTF-8"?>
<svg width="24px" height="24px" viewBox="0 0 24 24" version="1.1" xmlns="http://www.w3.org/2000/svg" xmlns:xlink="http://www.w3.org/1999/xlink">
    <title>Anomalies Icon 2</title>
    <g id="Anomalies-Icon-2" stroke="none" stroke-width="1" fill="none" fill-rule="evenodd">
        <circle id="Oval" fill="#00BE58" cx="12" cy="12" r="12"></circle>
        <g id="New-icons-002-08" transform="translate(4.000000, 4.000000)" fill="#FFFFFF" fill-rule="nonzero">
            <path d="M9.69362532e-16,4.36562074 L4.36562074,4.36562074 L4.36562074,-9.69362532e-16 L9.69362532e-16,-9.69362532e-16 L9.69362532e-16,4.36562074 Z M1.09140518,1.09140518 L3.27421555,1.09140518 L3.27421555,3.27421555 L1.09140518,3.27421555 L1.09140518,1.09140518 Z" id="Shape"></path>
            <path d="M9.69362532e-16,16 L4.36562074,16 L4.36562074,11.6343793 L9.69362532e-16,11.6343793 L9.69362532e-16,16 Z M1.09140518,12.7257844 L3.27421555,12.7257844 L3.27421555,14.9085948 L1.09140518,14.9085948 L1.09140518,12.7257844 Z" id="Shape"></path>
            <path d="M9.69362532e-16,10.1828104 L4.36562074,10.1828104 L4.36562074,5.81718963 L9.69362532e-16,5.81718963 L9.69362532e-16,10.1828104 Z M1.09140518,6.90859482 L3.27421555,6.90859482 L3.27421555,9.09140518 L1.09140518,9.09140518 L1.09140518,6.90859482 Z" id="Shape"></path>
            <path d="M5.81718963,16 L10.1828104,16 L10.1828104,11.6343793 L5.81718963,11.6343793 L5.81718963,16 Z M6.90859482,12.7257844 L9.09140518,12.7257844 L9.09140518,14.9085948 L6.90859482,14.9085948 L6.90859482,12.7257844 Z" id="Shape"></path>
            <path d="M5.81718963,4.38744884 L10.1828104,4.38744884 L10.1828104,0.0218281037 L5.81718963,0.0218281037 L5.81718963,4.38744884 Z M6.90859482,1.11323329 L9.09140518,1.11323329 L9.09140518,3.29604366 L6.90859482,3.29604366 L6.90859482,1.11323329 Z" id="Shape"></path>
            <path d="M5.81718963,10.2046385 L10.1828104,10.2046385 L10.1828104,5.83901774 L5.81718963,5.83901774 L5.81718963,10.2046385 Z M6.90859482,6.93042292 L9.09140518,6.93042292 L9.09140518,9.11323329 L6.90859482,9.11323329 L6.90859482,6.93042292 Z" id="Shape"></path>
            <rect id="Rectangle" x="11.6343793" y="2.93587995" width="4.36562074" height="4.36562074"></rect>
        </g>
    </g>
</svg>