<?xml version="1.0" encoding="UTF-8"?>
<svg width="24px" height="24px" viewBox="0 0 24 24" version="1.1" xmlns="http://www.w3.org/2000/svg" xmlns:xlink="http://www.w3.org/1999/xlink">
    <title>Attribute Icon BW</title>
    <g id="Attribute-Icon-BW" stroke="none" stroke-width="1" fill="none" fill-rule="evenodd">
        <g id="Attribute-Icon" transform="translate(5.000000, 5.000000)" fill="#000000" fill-rule="nonzero">
            <path d="M14,1.07692308 C14,0.482154885 13.5178451,0 12.9230769,0 L1.07692308,0 C0.482154885,0 0,0.482154885 0,1.07692308 L0,12.9230769 C0,13.5178451 0.482154885,14 1.07692308,14 L12.9230769,14 C13.5178451,14 14,13.5178451 14,12.9230769 L14,1.07692308 Z M12.9230769,1.07692308 L12.9230769,3.23076923 L1.07692308,3.23076923 L1.07692308,1.07692308 L12.9230769,1.07692308 Z M12.9230769,12.9230769 L1.07692308,12.9230769 L1.07692308,10.7692308 L12.9230769,10.7692308 L12.9230769,12.9230769 Z M12.9230769,9.69230769 L1.07692308,9.69230769 L1.07692308,7.53846154 L12.9230769,7.53846154 L12.9230769,9.69230769 Z M12.9230769,6.46153846 L1.07692308,6.46153846 L1.07692308,4.30769231 L12.9230769,4.30769231 L12.9230769,6.46153846 Z" id="Shape" transform="translate(7.000000, 7.000000) rotate(90.000000) translate(-7.000000, -7.000000) "></path>
        </g>
    </g>
</svg>