<?xml version="1.0" encoding="UTF-8"?>
<svg width="24px" height="24px" viewBox="0 0 24 24" version="1.1" xmlns="http://www.w3.org/2000/svg" xmlns:xlink="http://www.w3.org/1999/xlink">
    <title>Attribute Icon 2</title>
    <g id="Attribute-Icon-2" stroke="none" stroke-width="1" fill="none" fill-rule="evenodd">
        <g id="Attribute-Icon">
            <rect id="Rectangle" fill="#FF3E98" x="0" y="0" width="24" height="24" rx="12"></rect>
            <path d="M20,5.23076923 C20,4.55103415 19.4489658,4 18.7692308,4 L5.23076923,4 C4.55103415,4 4,4.55103415 4,5.23076923 L4,18.7692308 C4,19.4489658 4.55103415,20 5.23076923,20 L18.7692308,20 C19.4489658,20 20,19.4489658 20,18.7692308 L20,5.23076923 Z M18.7692308,5.23076923 L18.7692308,7.69230769 L5.23076923,7.69230769 L5.23076923,5.23076923 L18.7692308,5.23076923 Z M18.7692308,18.7692308 L5.23076923,18.7692308 L5.23076923,16.3076923 L18.7692308,16.3076923 L18.7692308,18.7692308 Z M18.7692308,15.0769231 L5.23076923,15.0769231 L5.23076923,12.6153846 L18.7692308,12.6153846 L18.7692308,15.0769231 Z M18.7692308,11.3846154 L5.23076923,11.3846154 L5.23076923,8.92307692 L18.7692308,8.92307692 L18.7692308,11.3846154 Z" id="Shape" fill="#FFFFFF" fill-rule="nonzero" transform="translate(12.000000, 12.000000) rotate(90.000000) translate(-12.000000, -12.000000) "></path>
        </g>
    </g>
</svg>