<?xml version="1.0" encoding="UTF-8"?>
<svg width="28px" height="24px" viewBox="0 0 28 24" version="1.1" xmlns="http://www.w3.org/2000/svg" xmlns:xlink="http://www.w3.org/1999/xlink">
    <title>Autogenerated Eventlog Icon</title>
    <g id="Autogenerated-Eventlog-Icon" stroke="none" stroke-width="1" fill="none" fill-rule="evenodd">
        <g id="Attribute-Icon">
            <rect id="Rectangle" fill="#000000" x="0" y="0" width="24" height="24" rx="12"></rect>
            <g id="Icons/24px/Data/data-model" transform="translate(3.999852, 5.000000)" fill="#FFFFFF">
                <path d="M12.500148,10.07 L12.500148,8 C12.500148,7.44771525 12.0524328,7 11.500148,7 L7.50014801,7 L7.50014801,5 L12.000148,5 C12.5524328,5 13.000148,4.55228475 13.000148,4 L13.000148,1 C13.000148,0.44771525 12.5524328,0 12.000148,0 L2.00014801,0 C1.44786326,0 1.00014801,0.44771525 1.00014801,1 L1.00014801,4 C1.00014801,4.55228475 1.44786326,5 2.00014801,5 L6.50014801,5 L6.50014801,7 L2.50014801,7 C1.94786326,7 1.50014801,7.44771525 1.50014801,8 L1.50014801,10.07 C0.524994652,10.3217835 -0.110814593,11.2593934 0.0160886218,12.2585003 C0.142991837,13.2576072 0.993013953,14.0064917 2.00014801,14.0064917 C3.00728208,14.0064917 3.85730419,13.2576072 3.98420741,12.2585003 C4.11111062,11.2593934 3.47530138,10.3217835 2.50014801,10.07 L2.50014801,8 L6.50014801,8 L6.50014801,10 L5.00014801,10 L5.00014801,14 L9.00014801,14 L9.00014801,10 L7.50014801,10 L7.50014801,8 L11.500148,8 L11.500148,10.07 C10.5249947,10.3217835 9.88918541,11.2593934 10.0160886,12.2585003 C10.1429918,13.2576072 10.993014,14.0064917 12.000148,14.0064917 C13.0072821,14.0064917 13.8573042,13.2576072 13.9842074,12.2585003 C14.1111106,11.2593934 13.4753014,10.3217835 12.500148,10.07 Z M3.00014801,12 C3.00014801,12.5522847 2.55243276,13 2.00014801,13 C1.44786326,13 1.00014801,12.5522847 1.00014801,12 C1.00014801,11.4477153 1.44786326,11 2.00014801,11 C2.55243276,11 3.00014801,11.4477153 3.00014801,12 Z M8.00014801,11 L8.00014801,13 L6.00014801,13 L6.00014801,11 L8.00014801,11 Z M2.00014801,4 L2.00014801,1 L12.000148,1 L12.000148,4 L2.00014801,4 Z M12.000148,13 C11.4478633,13 11.000148,12.5522847 11.000148,12 C11.000148,11.4477153 11.4478633,11 12.000148,11 C12.5524328,11 13.000148,11.4477153 13.000148,12 C13.000148,12.5522847 12.5524328,13 12.000148,13 Z" id="Fill"></path>
            </g>
            <rect id="Rectangle" fill="#3BD8F7" x="16" y="6" width="12" height="12" rx="2"></rect>
        </g>
        <g id="New-icons-002-04" transform="translate(17.000000, 7.000000)" fill="#FFFFFF" fill-rule="nonzero">
            <polygon id="Path" points="1.36425648 7.85129604 1.36425648 7.1691678 1.36425648 6.48703956 1.36425648 5.80491132 1.36425648 5.12278308 1.36425648 4.44065484 1.36425648 3.7585266 1.36425648 3.07639836 0.68212824 3.07639836 -6.05851582e-16 3.07639836 -6.05851582e-16 3.7585266 0.68212824 3.7585266 0.68212824 4.44065484 -6.05851582e-16 4.44065484 -6.05851582e-16 5.12278308 0.68212824 5.12278308 0.68212824 5.80491132 -6.05851582e-16 5.80491132 -6.05851582e-16 6.48703956 0.68212824 6.48703956 0.68212824 7.1691678 -6.05851582e-16 7.1691678 -6.05851582e-16 7.85129604 0.68212824 7.85129604"></polygon>
            <rect id="Rectangle" x="2.72851296" y="4.78171896" width="4.09276944" height="1"></rect>
            <rect id="Rectangle" x="2.72851296" y="6.14597544" width="4.09276944" height="1"></rect>
            <rect id="Rectangle" x="2.72851296" y="7.51023192" width="4.09276944" height="1"></rect>
            <path d="M10,2.33287858 C10,1.04365621 8.95634379,0 7.66712142,0 C6.91678035,0 6.25511596,0.361527967 5.83219645,0.907230559 L1.8212824,0.907230559 C1.19372442,0.914051842 0.68212824,1.42564802 0.68212824,2.053206 L0.68212824,2.27830832 L1.36425648,2.27830832 L1.36425648,2.053206 C1.36425648,1.80081855 1.56889495,1.59618008 1.8212824,1.59618008 L5.47066849,1.59618008 C5.3888131,1.82810368 5.34106412,2.07366985 5.34106412,2.33287858 C5.34106412,3.62210095 6.38472033,4.66575716 7.6739427,4.66575716 C7.85129604,4.66575716 8.0218281,4.64529332 8.18553888,4.60436562 L8.18553888,8.86766712 C8.18553888,9.12005457 7.98090041,9.32469304 7.72851296,9.32469304 L1.8212824,9.32469304 C1.56889495,9.32469304 1.36425648,9.12005457 1.36425648,8.86766712 L1.36425648,8.6425648 L0.68212824,8.6425648 L0.68212824,8.86766712 C0.68212824,9.4952251 1.19372442,10.0068213 1.8212824,10.0068213 L7.72851296,10.0068213 C8.35607094,10.0068213 8.86766712,9.4952251 8.86766712,8.86766712 L8.86766712,4.32469304 C9.54297408,3.92223738 10,3.18553888 10,2.33287858 Z M7.41473397,1.0845839 L8.09686221,1.0845839 L8.09686221,1.76671214 L7.41473397,1.76671214 L7.41473397,1.0845839 Z M7.41473397,2.22373806 L8.09686221,2.22373806 L8.09686221,3.58799454 L7.41473397,3.58799454 L7.41473397,2.22373806 Z" id="Shape"></path>
        </g>
    </g>
</svg>