<?xml version="1.0" encoding="UTF-8"?>
<svg width="16px" height="16px" viewBox="0 0 16 16" version="1.1" xmlns="http://www.w3.org/2000/svg" xmlns:xlink="http://www.w3.org/1999/xlink">
    <title>autugenerated icon copy 2</title>
    <g id="KM-Visual-Editor-4.0-" stroke="none" stroke-width="1" fill="none" fill-rule="evenodd">
        <g id="data-share">
            <path d="M2.5,12.5 L2.5,7.91405 L0.70705,9.70705 L0,9 L3,6 L6,9 L5.29295,9.70705 L3.5,7.91405 L3.5,12.5 L9.5,12.5 L9.5,13.5 L3.5,13.5 C2.94798937,13.4993388 2.50066122,13.0520106 2.5,12.5 Z" id="Path" fill="#FFFFFF" fill-rule="nonzero"></path>
            <path d="M12,11 L14,11 C14.5520563,11.0005512 14.9994488,11.4479437 15,12 L15,14 C14.9994488,14.5520563 14.5520563,14.9994488 14,15 L12,15 C11.4479437,14.9994488 11.0005512,14.5520563 11,14 L11,12 C11.0005512,11.4479437 11.4479437,11.0005512 12,11 L12,11 Z M14,14 L14,12 L11.99925,12 L12,14 L14,14 Z" id="Shape" fill="#FFFFFF" fill-rule="nonzero"></path>
            <path d="M13.5,3 L13.5,7.58595 L15.29295,5.79295 L16,6.5 L13,9.5 L10,6.5 L10.70705,5.79295 L12.5,7.58595 L12.5,3 L6.5,3 L6.5,2 L12.5,2 C13.0520106,2.00066122 13.4993388,2.44798937 13.5,3 Z" id="Path" fill="#FFFFFF" fill-rule="nonzero"></path>
            <rect id="Rectangle" fill="#FFFFFF" fill-rule="nonzero" x="1" y="3" width="3" height="1"></rect>
            <rect id="Rectangle" fill="#FFFFFF" fill-rule="nonzero" x="1" y="1" width="4" height="1"></rect>
            <rect id="_Transparent_Rectangle_" x="0" y="0" width="16" height="16"></rect>
        </g>
    </g>
</svg>