<?xml version="1.0" encoding="UTF-8"?>
<svg width="28px" height="24px" viewBox="0 0 28 24" version="1.1" xmlns="http://www.w3.org/2000/svg" xmlns:xlink="http://www.w3.org/1999/xlink">
    <title>Autogenerated Variable Icon</title>
    <g id="Autogenerated-Variable-Icon" stroke="none" stroke-width="1" fill="none" fill-rule="evenodd">
        <g id="Attribute-Icon">
            <rect id="Rectangle" fill="#000000" x="0" y="0" width="24" height="24" rx="12"></rect>
            <g id="Icons/24px/Data/data-model" transform="translate(3.999852, 5.000000)" fill="#FFFFFF">
                <path d="M12.500148,10.07 L12.500148,8 C12.500148,7.44771525 12.0524328,7 11.500148,7 L7.50014801,7 L7.50014801,5 L12.000148,5 C12.5524328,5 13.000148,4.55228475 13.000148,4 L13.000148,1 C13.000148,0.44771525 12.5524328,0 12.000148,0 L2.00014801,0 C1.44786326,0 1.00014801,0.44771525 1.00014801,1 L1.00014801,4 C1.00014801,4.55228475 1.44786326,5 2.00014801,5 L6.50014801,5 L6.50014801,7 L2.50014801,7 C1.94786326,7 1.50014801,7.44771525 1.50014801,8 L1.50014801,10.07 C0.524994652,10.3217835 -0.110814593,11.2593934 0.0160886218,12.2585003 C0.142991837,13.2576072 0.993013953,14.0064917 2.00014801,14.0064917 C3.00728208,14.0064917 3.85730419,13.2576072 3.98420741,12.2585003 C4.11111062,11.2593934 3.47530138,10.3217835 2.50014801,10.07 L2.50014801,8 L6.50014801,8 L6.50014801,10 L5.00014801,10 L5.00014801,14 L9.00014801,14 L9.00014801,10 L7.50014801,10 L7.50014801,8 L11.500148,8 L11.500148,10.07 C10.5249947,10.3217835 9.88918541,11.2593934 10.0160886,12.2585003 C10.1429918,13.2576072 10.993014,14.0064917 12.000148,14.0064917 C13.0072821,14.0064917 13.8573042,13.2576072 13.9842074,12.2585003 C14.1111106,11.2593934 13.4753014,10.3217835 12.500148,10.07 Z M3.00014801,12 C3.00014801,12.5522847 2.55243276,13 2.00014801,13 C1.44786326,13 1.00014801,12.5522847 1.00014801,12 C1.00014801,11.4477153 1.44786326,11 2.00014801,11 C2.55243276,11 3.00014801,11.4477153 3.00014801,12 Z M8.00014801,11 L8.00014801,13 L6.00014801,13 L6.00014801,11 L8.00014801,11 Z M2.00014801,4 L2.00014801,1 L12.000148,1 L12.000148,4 L2.00014801,4 Z M12.000148,13 C11.4478633,13 11.000148,12.5522847 11.000148,12 C11.000148,11.4477153 11.4478633,11 12.000148,11 C12.5524328,11 13.000148,11.4477153 13.000148,12 C13.000148,12.5522847 12.5524328,13 12.000148,13 Z" id="Fill"></path>
            </g>
            <rect id="Rectangle" fill="#264AFF" x="16" y="6" width="12" height="12" rx="2"></rect>
        </g>
        <g id="Icons/24px/Data/data-cluster" transform="translate(17.000000, 7.000000)" fill="#FFFFFF">
            <path d="M0.625,2.8125 L3.4375,2.8125 L3.4375,0.625 L0.625,0.625 L0.625,2.8125 Z M1.25,1.25 L2.8125,1.25 L2.8125,2.1875 L1.25,2.1875 L1.25,1.25 Z M0.625,5.9375 L3.4375,5.9375 L3.4375,3.75 L0.625,3.75 L0.625,5.9375 Z M1.25,4.375 L2.8125,4.375 L2.8125,5.3125 L1.25,5.3125 L1.25,4.375 Z M0.625,9.0625 L3.4375,9.0625 L3.4375,6.875 L0.625,6.875 L0.625,9.0625 Z M1.25,7.5 L2.8125,7.5 L2.8125,8.4375 L1.25,8.4375 L1.25,7.5 Z M8.4375,2.8125 L5.625,2.8125 L6.690625,1.690625 L6.25,1.25 L4.375,3.125 L6.25,5 L6.690625,4.559375 L5.625,3.4375 L8.4375,3.4375 C8.61008898,3.4375 8.75,3.57741102 8.75,3.75 L8.75,7.5 C8.75,7.67258898 8.61008898,7.8125 8.4375,7.8125 L4.6875,7.8125 L4.6875,8.4375 L8.4375,8.4375 C8.95526695,8.4375 9.375,8.01776695 9.375,7.5 L9.375,3.75 C9.375,3.23223305 8.95526695,2.8125 8.4375,2.8125 Z" id="Fill"></path>
        </g>
    </g>
</svg>