<?xml version="1.0" encoding="UTF-8"?>
<svg width="28px" height="24px" viewBox="0 0 28 24" version="1.1" xmlns="http://www.w3.org/2000/svg" xmlns:xlink="http://www.w3.org/1999/xlink">
    <title>Autogenerated Actions Icon</title>
    <g id="Autogenerated-Actions-Icon" stroke="none" stroke-width="1" fill="none" fill-rule="evenodd">
        <g id="Attribute-Icon">
            <rect id="Rectangle" fill="#000000" x="0" y="0" width="24" height="24" rx="12"></rect>
            <g id="Icons/24px/Data/data-model" transform="translate(3.999852, 5.000000)" fill="#FFFFFF">
                <path d="M12.500148,10.07 L12.500148,8 C12.500148,7.44771525 12.0524328,7 11.500148,7 L7.50014801,7 L7.50014801,5 L12.000148,5 C12.5524328,5 13.000148,4.55228475 13.000148,4 L13.000148,1 C13.000148,0.44771525 12.5524328,0 12.000148,0 L2.00014801,0 C1.44786326,0 1.00014801,0.44771525 1.00014801,1 L1.00014801,4 C1.00014801,4.55228475 1.44786326,5 2.00014801,5 L6.50014801,5 L6.50014801,7 L2.50014801,7 C1.94786326,7 1.50014801,7.44771525 1.50014801,8 L1.50014801,10.07 C0.524994652,10.3217835 -0.110814593,11.2593934 0.0160886218,12.2585003 C0.142991837,13.2576072 0.993013953,14.0064917 2.00014801,14.0064917 C3.00728208,14.0064917 3.85730419,13.2576072 3.98420741,12.2585003 C4.11111062,11.2593934 3.47530138,10.3217835 2.50014801,10.07 L2.50014801,8 L6.50014801,8 L6.50014801,10 L5.00014801,10 L5.00014801,14 L9.00014801,14 L9.00014801,10 L7.50014801,10 L7.50014801,8 L11.500148,8 L11.500148,10.07 C10.5249947,10.3217835 9.88918541,11.2593934 10.0160886,12.2585003 C10.1429918,13.2576072 10.993014,14.0064917 12.000148,14.0064917 C13.0072821,14.0064917 13.8573042,13.2576072 13.9842074,12.2585003 C14.1111106,11.2593934 13.4753014,10.3217835 12.500148,10.07 Z M3.00014801,12 C3.00014801,12.5522847 2.55243276,13 2.00014801,13 C1.44786326,13 1.00014801,12.5522847 1.00014801,12 C1.00014801,11.4477153 1.44786326,11 2.00014801,11 C2.55243276,11 3.00014801,11.4477153 3.00014801,12 Z M8.00014801,11 L8.00014801,13 L6.00014801,13 L6.00014801,11 L8.00014801,11 Z M2.00014801,4 L2.00014801,1 L12.000148,1 L12.000148,4 L2.00014801,4 Z M12.000148,13 C11.4478633,13 11.000148,12.5522847 11.000148,12 C11.000148,11.4477153 11.4478633,11 12.000148,11 C12.5524328,11 13.000148,11.4477153 13.000148,12 C13.000148,12.5522847 12.5524328,13 12.000148,13 Z" id="Fill"></path>
            </g>
            <rect id="Rectangle" fill="#058E8F" x="16" y="6" width="12" height="12" rx="2"></rect>
        </g>
        <g id="New-icons-002-06" transform="translate(17.000000, 7.000000)" fill="#FFFFFF" fill-rule="nonzero">
            <path d="M1.5893588,8.4106412 L1.5893588,9.31787176 L0.68212824,9.31787176 L0.68212824,8.4106412 L1.5893588,8.4106412 M2.27148704,7.72851296 L-6.05851582e-16,7.72851296 L-6.05851582e-16,10 L2.27148704,10 L2.27148704,7.72851296 L2.27148704,7.72851296 Z" id="Shape"></path>
            <path d="M1.5893588,5 L1.5893588,5.90723056 L0.68212824,5.90723056 L0.68212824,5 L1.5893588,5 M2.27148704,4.31787176 L-6.05851582e-16,4.31787176 L-6.05851582e-16,6.5893588 L2.27148704,6.5893588 L2.27148704,4.31787176 L2.27148704,4.31787176 Z" id="Shape"></path>
            <path d="M5,8.4106412 L5,9.31787176 L4.09276944,9.31787176 L4.09276944,8.4106412 L5,8.4106412 M5.68212824,7.72851296 L3.4106412,7.72851296 L3.4106412,10 L5.68212824,10 L5.68212824,7.72851296 L5.68212824,7.72851296 Z" id="Shape"></path>
            <rect id="Rectangle" x="3.4106412" y="4.31787176" width="2.27148704" height="2.27148704"></rect>
            <path d="M5,-6.05851582e-16 C2.72851296,-6.05851582e-16 0.811732606,1.52114598 0.204638472,3.59481583 L0.920873124,3.59481583 C1.50068213,1.90313779 3.11050477,0.68212824 5,0.68212824 C7.38062756,0.68212824 9.31787176,2.61937244 9.31787176,5 C9.31787176,6.88949523 8.09686221,8.49931787 6.40518417,9.07912688 L6.40518417,9.79536153 C8.48567531,9.18826739 10,7.27148704 10,5 C10,2.23738063 7.76261937,-6.05851582e-16 5,-6.05851582e-16 Z" id="Path"></path>
            <path d="M5,2.27148704 C4.00409277,2.27148704 3.14461119,2.80354707 2.66712142,3.59481583 L3.51978172,3.59481583 C3.89495225,3.19918145 4.41336971,2.95361528 5,2.95361528 C6.1255116,2.95361528 7.04638472,3.8744884 7.04638472,5 C7.04638472,5.58663029 6.80081855,6.10504775 6.40518417,6.48021828 L6.40518417,7.33287858 C7.19645293,6.85538881 7.72851296,5.99590723 7.72851296,5 C7.72851296,3.49249659 6.50750341,2.27148704 5,2.27148704 Z" id="Path"></path>
        </g>
    </g>
</svg>