<?xml version="1.0" encoding="UTF-8"?>
<svg width="28px" height="24px" viewBox="0 0 28 24" version="1.1" xmlns="http://www.w3.org/2000/svg" xmlns:xlink="http://www.w3.org/1999/xlink">
    <title>Autogenerated Filter ICon</title>
    <g id="Autogenerated-Filter-ICon" stroke="none" stroke-width="1" fill="none" fill-rule="evenodd">
        <g id="Attribute-Icon">
            <rect id="Rectangle" fill="#000000" x="0" y="0" width="24" height="24" rx="12"></rect>
            <g id="Icons/24px/Data/data-model" transform="translate(3.999852, 5.000000)" fill="#FFFFFF">
                <path d="M12.500148,10.07 L12.500148,8 C12.500148,7.44771525 12.0524328,7 11.500148,7 L7.50014801,7 L7.50014801,5 L12.000148,5 C12.5524328,5 13.000148,4.55228475 13.000148,4 L13.000148,1 C13.000148,0.44771525 12.5524328,0 12.000148,0 L2.00014801,0 C1.44786326,0 1.00014801,0.44771525 1.00014801,1 L1.00014801,4 C1.00014801,4.55228475 1.44786326,5 2.00014801,5 L6.50014801,5 L6.50014801,7 L2.50014801,7 C1.94786326,7 1.50014801,7.44771525 1.50014801,8 L1.50014801,10.07 C0.524994652,10.3217835 -0.110814593,11.2593934 0.0160886218,12.2585003 C0.142991837,13.2576072 0.993013953,14.0064917 2.00014801,14.0064917 C3.00728208,14.0064917 3.85730419,13.2576072 3.98420741,12.2585003 C4.11111062,11.2593934 3.47530138,10.3217835 2.50014801,10.07 L2.50014801,8 L6.50014801,8 L6.50014801,10 L5.00014801,10 L5.00014801,14 L9.00014801,14 L9.00014801,10 L7.50014801,10 L7.50014801,8 L11.500148,8 L11.500148,10.07 C10.5249947,10.3217835 9.88918541,11.2593934 10.0160886,12.2585003 C10.1429918,13.2576072 10.993014,14.0064917 12.000148,14.0064917 C13.0072821,14.0064917 13.8573042,13.2576072 13.9842074,12.2585003 C14.1111106,11.2593934 13.4753014,10.3217835 12.500148,10.07 Z M3.00014801,12 C3.00014801,12.5522847 2.55243276,13 2.00014801,13 C1.44786326,13 1.00014801,12.5522847 1.00014801,12 C1.00014801,11.4477153 1.44786326,11 2.00014801,11 C2.55243276,11 3.00014801,11.4477153 3.00014801,12 Z M8.00014801,11 L8.00014801,13 L6.00014801,13 L6.00014801,11 L8.00014801,11 Z M2.00014801,4 L2.00014801,1 L12.000148,1 L12.000148,4 L2.00014801,4 Z M12.000148,13 C11.4478633,13 11.000148,12.5522847 11.000148,12 C11.000148,11.4477153 11.4478633,11 12.000148,11 C12.5524328,11 13.000148,11.4477153 13.000148,12 C13.000148,12.5522847 12.5524328,13 12.000148,13 Z" id="Fill"></path>
            </g>
            <rect id="Rectangle" fill="#02059C" x="16" y="6" width="12" height="12" rx="2"></rect>
        </g>
        <g id="Icons/24px/Data/data-cluster" transform="translate(17.000000, 7.000000)" fill="#FFFFFF">
            <path d="M5.625,8.75 L4.375,8.75 C4.02982203,8.75 3.75,8.47017797 3.75,8.125 L3.75,5.753125 L1.434375,3.4375 C1.31700382,3.32082803 1.25069775,3.16236777 1.25,2.996875 L1.25,1.875 C1.25,1.52982203 1.52982203,1.25 1.875,1.25 L8.125,1.25 C8.47017797,1.25 8.75,1.52982203 8.75,1.875 L8.75,2.996875 C8.74930225,3.16236777 8.68299618,3.32082803 8.565625,3.4375 L6.25,5.753125 L6.25,8.125 C6.25,8.47017797 5.97017797,8.75 5.625,8.75 Z M1.875,1.875 L1.875,2.996875 L4.375,5.496875 L4.375,8.125 L5.625,8.125 L5.625,5.496875 L8.125,2.996875 L8.125,1.875 L1.875,1.875 Z" id="Fill"></path>
        </g>
    </g>
</svg>