<?xml version="1.0" encoding="UTF-8"?>
<svg width="28px" height="24px" viewBox="0 0 28 24" version="1.1" xmlns="http://www.w3.org/2000/svg" xmlns:xlink="http://www.w3.org/1999/xlink">
    <title>Autogenerated Anomalies Icon</title>
    <g id="Autogenerated-Anomalies-Icon" stroke="none" stroke-width="1" fill="none" fill-rule="evenodd">
        <g id="Attribute-Icon">
            <rect id="Rectangle" fill="#000000" x="0" y="0" width="24" height="24" rx="12"></rect>
            <g id="Icons/24px/Data/data-model" transform="translate(3.999852, 5.000000)" fill="#FFFFFF">
                <path d="M12.500148,10.07 L12.500148,8 C12.500148,7.44771525 12.0524328,7 11.500148,7 L7.50014801,7 L7.50014801,5 L12.000148,5 C12.5524328,5 13.000148,4.55228475 13.000148,4 L13.000148,1 C13.000148,0.44771525 12.5524328,0 12.000148,0 L2.00014801,0 C1.44786326,0 1.00014801,0.44771525 1.00014801,1 L1.00014801,4 C1.00014801,4.55228475 1.44786326,5 2.00014801,5 L6.50014801,5 L6.50014801,7 L2.50014801,7 C1.94786326,7 1.50014801,7.44771525 1.50014801,8 L1.50014801,10.07 C0.524994652,10.3217835 -0.110814593,11.2593934 0.0160886218,12.2585003 C0.142991837,13.2576072 0.993013953,14.0064917 2.00014801,14.0064917 C3.00728208,14.0064917 3.85730419,13.2576072 3.98420741,12.2585003 C4.11111062,11.2593934 3.47530138,10.3217835 2.50014801,10.07 L2.50014801,8 L6.50014801,8 L6.50014801,10 L5.00014801,10 L5.00014801,14 L9.00014801,14 L9.00014801,10 L7.50014801,10 L7.50014801,8 L11.500148,8 L11.500148,10.07 C10.5249947,10.3217835 9.88918541,11.2593934 10.0160886,12.2585003 C10.1429918,13.2576072 10.993014,14.0064917 12.000148,14.0064917 C13.0072821,14.0064917 13.8573042,13.2576072 13.9842074,12.2585003 C14.1111106,11.2593934 13.4753014,10.3217835 12.500148,10.07 Z M3.00014801,12 C3.00014801,12.5522847 2.55243276,13 2.00014801,13 C1.44786326,13 1.00014801,12.5522847 1.00014801,12 C1.00014801,11.4477153 1.44786326,11 2.00014801,11 C2.55243276,11 3.00014801,11.4477153 3.00014801,12 Z M8.00014801,11 L8.00014801,13 L6.00014801,13 L6.00014801,11 L8.00014801,11 Z M2.00014801,4 L2.00014801,1 L12.000148,1 L12.000148,4 L2.00014801,4 Z M12.000148,13 C11.4478633,13 11.000148,12.5522847 11.000148,12 C11.000148,11.4477153 11.4478633,11 12.000148,11 C12.5524328,11 13.000148,11.4477153 13.000148,12 C13.000148,12.5522847 12.5524328,13 12.000148,13 Z" id="Fill"></path>
            </g>
            <rect id="Rectangle" fill="#00BE58" x="16" y="6" width="12" height="12" rx="2"></rect>
        </g>
        <g id="New-icons-002-08" transform="translate(17.000000, 7.000000)" fill="#FFFFFF" fill-rule="nonzero">
            <path d="M6.05851582e-16,2.72851296 L2.72851296,2.72851296 L2.72851296,-6.05851582e-16 L6.05851582e-16,-6.05851582e-16 L6.05851582e-16,2.72851296 Z M0.68212824,0.68212824 L2.04638472,0.68212824 L2.04638472,2.04638472 L0.68212824,2.04638472 L0.68212824,0.68212824 Z" id="Shape"></path>
            <path d="M6.05851582e-16,10 L2.72851296,10 L2.72851296,7.27148704 L6.05851582e-16,7.27148704 L6.05851582e-16,10 Z M0.68212824,7.95361528 L2.04638472,7.95361528 L2.04638472,9.31787176 L0.68212824,9.31787176 L0.68212824,7.95361528 Z" id="Shape"></path>
            <path d="M6.05851582e-16,6.36425648 L2.72851296,6.36425648 L2.72851296,3.63574352 L6.05851582e-16,3.63574352 L6.05851582e-16,6.36425648 Z M0.68212824,4.31787176 L2.04638472,4.31787176 L2.04638472,5.68212824 L0.68212824,5.68212824 L0.68212824,4.31787176 Z" id="Shape"></path>
            <path d="M3.63574352,10 L6.36425648,10 L6.36425648,7.27148704 L3.63574352,7.27148704 L3.63574352,10 Z M4.31787176,7.95361528 L5.68212824,7.95361528 L5.68212824,9.31787176 L4.31787176,9.31787176 L4.31787176,7.95361528 Z" id="Shape"></path>
            <path d="M3.63574352,2.74215553 L6.36425648,2.74215553 L6.36425648,0.0136425648 L3.63574352,0.0136425648 L3.63574352,2.74215553 Z M4.31787176,0.695770805 L5.68212824,0.695770805 L5.68212824,2.06002729 L4.31787176,2.06002729 L4.31787176,0.695770805 Z" id="Shape"></path>
            <path d="M3.63574352,6.37789905 L6.36425648,6.37789905 L6.36425648,3.64938608 L3.63574352,3.64938608 L3.63574352,6.37789905 Z M4.31787176,4.33151432 L5.68212824,4.33151432 L5.68212824,5.6957708 L4.31787176,5.6957708 L4.31787176,4.33151432 Z" id="Shape"></path>
            <rect id="Rectangle" x="7.27148704" y="1.83492497" width="2.72851296" height="2.72851296"></rect>
        </g>
    </g>
</svg>