<?xml version="1.0" encoding="UTF-8"?>
<svg width="28px" height="24px" viewBox="0 0 28 24" version="1.1" xmlns="http://www.w3.org/2000/svg" xmlns:xlink="http://www.w3.org/1999/xlink">
    <title>Autogenerated KPI Icon</title>
    <g id="Autogenerated-KPI-Icon" stroke="none" stroke-width="1" fill="none" fill-rule="evenodd">
        <g id="Group-5">
            <rect id="Rectangle" fill="#8D27D6" x="0" y="0" width="24" height="24" rx="12"></rect>
            <path d="M12,24.0022881 C19.1016601,24.1166478 24,18.6256737 24,12.0043191 C24,5.38296447 18.9175001,-0.128712032 12,0.00228811052 C11.9783654,0.00228811052 11.9944295,24.0022881 12,24.0022881 Z" id="Oval" fill="#000000"></path>
            <g id="Icons/24px/Data/data-cluster" transform="translate(4.000000, 4.000000)" fill="#FFFFFF">
                <path d="M8,2 C11.3137085,2 14,4.6862915 14,8 C14,11.3137085 11.3137085,14 8,14 C4.6862915,14 2,11.3137085 2,8 C2,4.6862915 4.6862915,2 8,2 L8,2 Z M8,1 C4.13400675,1 1,4.13400675 1,8 C1,11.8659932 4.13400675,15 8,15 C11.8659932,15 15,11.8659932 15,8 C15,4.13400675 11.8659932,1 8,1 Z M11.5,5.205 L10.795,4.5 L8.645,6.65 C8.07138709,6.37604692 7.38738296,6.49340348 6.93789322,6.94289322 C6.48840348,7.39238296 6.37104692,8.07638709 6.645,8.65 L4.5,10.795 L5.205,11.5 L7.355,9.35 C7.92861291,9.62395308 8.61261704,9.50659652 9.06210678,9.05710678 C9.51159652,8.60761704 9.62895308,7.92361291 9.355,7.35 L11.5,5.205 Z M8.5,8 C8.5,8.27614237 8.27614237,8.5 8,8.5 C7.72385763,8.5 7.5,8.27614237 7.5,8 C7.5,7.72385763 7.72385763,7.5 8,7.5 C8.27614237,7.5 8.5,7.72385763 8.5,8 Z M8,4.5 C8.41421356,4.5 8.75,4.16421356 8.75,3.75 C8.75,3.33578644 8.41421356,3 8,3 C7.58578644,3 7.25,3.33578644 7.25,3.75 C7.25,4.16421356 7.58578644,4.5 8,4.5 Z" id="Fill"></path>
            </g>
        </g>
        <g id="Attribute-Icon">
            <rect id="Rectangle" fill="#000000" x="0" y="0" width="24" height="24" rx="12"></rect>
            <g id="Icons/24px/Data/data-model" transform="translate(3.999852, 5.000000)" fill="#FFFFFF">
                <path d="M12.500148,10.07 L12.500148,8 C12.500148,7.44771525 12.0524328,7 11.500148,7 L7.50014801,7 L7.50014801,5 L12.000148,5 C12.5524328,5 13.000148,4.55228475 13.000148,4 L13.000148,1 C13.000148,0.44771525 12.5524328,0 12.000148,0 L2.00014801,0 C1.44786326,0 1.00014801,0.44771525 1.00014801,1 L1.00014801,4 C1.00014801,4.55228475 1.44786326,5 2.00014801,5 L6.50014801,5 L6.50014801,7 L2.50014801,7 C1.94786326,7 1.50014801,7.44771525 1.50014801,8 L1.50014801,10.07 C0.524994652,10.3217835 -0.110814593,11.2593934 0.0160886218,12.2585003 C0.142991837,13.2576072 0.993013953,14.0064917 2.00014801,14.0064917 C3.00728208,14.0064917 3.85730419,13.2576072 3.98420741,12.2585003 C4.11111062,11.2593934 3.47530138,10.3217835 2.50014801,10.07 L2.50014801,8 L6.50014801,8 L6.50014801,10 L5.00014801,10 L5.00014801,14 L9.00014801,14 L9.00014801,10 L7.50014801,10 L7.50014801,8 L11.500148,8 L11.500148,10.07 C10.5249947,10.3217835 9.88918541,11.2593934 10.0160886,12.2585003 C10.1429918,13.2576072 10.993014,14.0064917 12.000148,14.0064917 C13.0072821,14.0064917 13.8573042,13.2576072 13.9842074,12.2585003 C14.1111106,11.2593934 13.4753014,10.3217835 12.500148,10.07 Z M3.00014801,12 C3.00014801,12.5522847 2.55243276,13 2.00014801,13 C1.44786326,13 1.00014801,12.5522847 1.00014801,12 C1.00014801,11.4477153 1.44786326,11 2.00014801,11 C2.55243276,11 3.00014801,11.4477153 3.00014801,12 Z M8.00014801,11 L8.00014801,13 L6.00014801,13 L6.00014801,11 L8.00014801,11 Z M2.00014801,4 L2.00014801,1 L12.000148,1 L12.000148,4 L2.00014801,4 Z M12.000148,13 C11.4478633,13 11.000148,12.5522847 11.000148,12 C11.000148,11.4477153 11.4478633,11 12.000148,11 C12.5524328,11 13.000148,11.4477153 13.000148,12 C13.000148,12.5522847 12.5524328,13 12.000148,13 Z" id="Fill"></path>
            </g>
            <rect id="Rectangle" fill="#8D27D6" x="16" y="6" width="12" height="12" rx="2"></rect>
        </g>
        <g id="Icons/24px/Data/data-cluster" transform="translate(17.000000, 7.000000)" fill="#FFFFFF">
            <path d="M5,1.25 C7.07106781,1.25 8.75,2.92893219 8.75,5 C8.75,7.07106781 7.07106781,8.75 5,8.75 C2.92893219,8.75 1.25,7.07106781 1.25,5 C1.25,2.92893219 2.92893219,1.25 5,1.25 L5,1.25 Z M5,0.625 C2.58375422,0.625 0.625,2.58375422 0.625,5 C0.625,7.41624578 2.58375422,9.375 5,9.375 C7.41624578,9.375 9.375,7.41624578 9.375,5 C9.375,2.58375422 7.41624578,0.625 5,0.625 Z M7.1875,3.253125 L6.746875,2.8125 L5.403125,4.15625 C5.04461693,3.98502933 4.61711435,4.05837717 4.33618326,4.33930826 C4.05525217,4.62023935 3.98190433,5.04774193 4.153125,5.40625 L2.8125,6.746875 L3.253125,7.1875 L4.596875,5.84375 C4.95538307,6.01497067 5.38288565,5.94162283 5.66381674,5.66069174 C5.94474783,5.37976065 6.01809567,4.95225807 5.846875,4.59375 L7.1875,3.253125 Z M5.3125,5 C5.3125,5.17258898 5.17258898,5.3125 5,5.3125 C4.82741102,5.3125 4.6875,5.17258898 4.6875,5 C4.6875,4.82741102 4.82741102,4.6875 5,4.6875 C5.17258898,4.6875 5.3125,4.82741102 5.3125,5 Z M5,2.8125 C5.25888348,2.8125 5.46875,2.60263348 5.46875,2.34375 C5.46875,2.08486652 5.25888348,1.875 5,1.875 C4.74111652,1.875 4.53125,2.08486652 4.53125,2.34375 C4.53125,2.60263348 4.74111652,2.8125 5,2.8125 Z" id="Fill"></path>
        </g>
    </g>
</svg>