<?xml version="1.0" encoding="UTF-8"?>
<svg width="28px" height="24px" viewBox="0 0 28 24" version="1.1" xmlns="http://www.w3.org/2000/svg" xmlns:xlink="http://www.w3.org/1999/xlink">
    <title>Autogenerated Display Content Rules ICon</title>
    <g id="Autogenerated-Display-Content-Rules-ICon" stroke="none" stroke-width="1" fill="none" fill-rule="evenodd">
        <g id="Attribute-Icon">
            <rect id="Rectangle" fill="#000000" x="0" y="0" width="24" height="24" rx="12"></rect>
            <g id="Icons/24px/Data/data-model" transform="translate(3.999852, 5.000000)" fill="#FFFFFF">
                <path d="M12.500148,10.07 L12.500148,8 C12.500148,7.44771525 12.0524328,7 11.500148,7 L7.50014801,7 L7.50014801,5 L12.000148,5 C12.5524328,5 13.000148,4.55228475 13.000148,4 L13.000148,1 C13.000148,0.44771525 12.5524328,0 12.000148,0 L2.00014801,0 C1.44786326,0 1.00014801,0.44771525 1.00014801,1 L1.00014801,4 C1.00014801,4.55228475 1.44786326,5 2.00014801,5 L6.50014801,5 L6.50014801,7 L2.50014801,7 C1.94786326,7 1.50014801,7.44771525 1.50014801,8 L1.50014801,10.07 C0.524994652,10.3217835 -0.110814593,11.2593934 0.0160886218,12.2585003 C0.142991837,13.2576072 0.993013953,14.0064917 2.00014801,14.0064917 C3.00728208,14.0064917 3.85730419,13.2576072 3.98420741,12.2585003 C4.11111062,11.2593934 3.47530138,10.3217835 2.50014801,10.07 L2.50014801,8 L6.50014801,8 L6.50014801,10 L5.00014801,10 L5.00014801,14 L9.00014801,14 L9.00014801,10 L7.50014801,10 L7.50014801,8 L11.500148,8 L11.500148,10.07 C10.5249947,10.3217835 9.88918541,11.2593934 10.0160886,12.2585003 C10.1429918,13.2576072 10.993014,14.0064917 12.000148,14.0064917 C13.0072821,14.0064917 13.8573042,13.2576072 13.9842074,12.2585003 C14.1111106,11.2593934 13.4753014,10.3217835 12.500148,10.07 Z M3.00014801,12 C3.00014801,12.5522847 2.55243276,13 2.00014801,13 C1.44786326,13 1.00014801,12.5522847 1.00014801,12 C1.00014801,11.4477153 1.44786326,11 2.00014801,11 C2.55243276,11 3.00014801,11.4477153 3.00014801,12 Z M8.00014801,11 L8.00014801,13 L6.00014801,13 L6.00014801,11 L8.00014801,11 Z M2.00014801,4 L2.00014801,1 L12.000148,1 L12.000148,4 L2.00014801,4 Z M12.000148,13 C11.4478633,13 11.000148,12.5522847 11.000148,12 C11.000148,11.4477153 11.4478633,11 12.000148,11 C12.5524328,11 13.000148,11.4477153 13.000148,12 C13.000148,12.5522847 12.5524328,13 12.000148,13 Z" id="Fill"></path>
            </g>
            <rect id="Rectangle" fill="#97B90E" x="16" y="6" width="12" height="12" rx="2"></rect>
        </g>
        <g id="Icons/24px/Actions/cloud-transfer" transform="translate(17.000000, 7.000000)" fill="#FFFFFF">
            <path d="M7.1875,4.375 C7.53267797,4.375 7.8125,4.09517797 7.8125,3.75 C7.8125,3.40482203 7.53267797,3.125 7.1875,3.125 C6.84232203,3.125 6.5625,3.40482203 6.5625,3.75 C6.5625,4.09517797 6.84232203,4.375 7.1875,4.375 Z M8.75,1.5625 L5.075,1.5625 C4.44831166,0.774490426 3.41007319,0.439311918 2.44091442,0.71212804 C1.47175565,0.984944163 0.760827077,1.81250945 0.637237557,2.81172064 C0.513648038,3.81093183 1.00151851,4.78677307 1.875,5.2875 L1.875,8.4375 C1.875,8.78267797 2.15482203,9.0625 2.5,9.0625 L8.75,9.0625 C9.09517797,9.0625 9.375,8.78267797 9.375,8.4375 L9.375,2.1875 C9.375,1.84232203 9.09517797,1.5625 8.75,1.5625 L8.75,1.5625 Z M1.25,3.125 C1.25149902,2.27769441 1.82105694,1.53668463 2.63946243,1.31727297 C3.45786791,1.09786132 4.32172252,1.45457819 4.746875,2.1875 L2.5,2.1875 L2.5,2.8125 L4.971875,2.8125 C4.98912343,2.91580756 4.9985253,3.0202728 5,3.125 C4.9985253,3.2297272 4.98912343,3.33419244 4.971875,3.4375 L3.125,3.4375 L3.125,4.0625 L4.746875,4.0625 C4.32172252,4.79542181 3.45786791,5.15213868 2.63946243,4.93272703 C1.82105694,4.71331537 1.25149902,3.97230559 1.25,3.125 Z M8.75,8.4375 L2.5,8.4375 L4.0625,6.875 L4.559375,7.371875 C4.80314841,7.61420225 5.19685159,7.61420225 5.440625,7.371875 L7.1875,5.625 L8.75,7.1875 L8.75,8.4375 Z M8.75,6.303125 L7.628125,5.18125 C7.38435159,4.93892275 6.99064841,4.93892275 6.746875,5.18125 L5,6.928125 L4.503125,6.43125 C4.25935159,6.18892275 3.86564841,6.18892275 3.621875,6.43125 L2.5,7.553125 L2.5,5.54375 C2.70422041,5.59632326 2.91412564,5.62361094 3.125,5.625 C4.50571187,5.625 5.625,4.50571187 5.625,3.125 C5.62517705,2.80347528 5.56254596,2.48501211 5.440625,2.1875 L8.75,2.1875 L8.75,6.303125 Z" id="Fill"></path>
        </g>
    </g>
</svg>