<?xml version="1.0" encoding="UTF-8" standalone="no"?>
<svg width="32px" height="22px" viewBox="0 0 32 22" version="1.1" xmlns="http://www.w3.org/2000/svg" xmlns:xlink="http://www.w3.org/1999/xlink">
    <!-- Generator: Sketch 41.2 (35397) - http://www.bohemiancoding.com/sketch -->
    <title>icon billing</title>
    <desc>Created with Sketch.</desc>
    <defs></defs>
    <g stroke="none" stroke-width="1" fill="none" fill-rule="evenodd">
        <g transform="translate(-296.000000, -282.000000)">
            <g transform="translate(296.000000, 282.000000)">
                <rect fill="#D6F9FF" x="2" y="2" width="28" height="4" rx="2"></rect>
                <path d="M24,12.4347826 C23.399,12.4347826 22.867,12.6930435 22.5,13.0947826 C22.133,12.6930435 21.601,12.4347826 21,12.4347826 C19.896,12.4347826 19,13.2908696 19,14.3478261 C19,15.4047826 19.896,16.2608696 21,16.2608696 C21.601,16.2608696 22.133,16.0026087 22.5,15.6008696 C22.867,16.0026087 23.399,16.2608696 24,16.2608696 C25.105,16.2608696 26,15.4047826 26,14.3478261 C26,13.2908696 25.105,12.4347826 24,12.4347826 L24,12.4347826 Z M30,18.173913 C30,19.229913 29.105,20 28,20 L4,20 C2.896,20 2,19.229913 2,18.173913 L2,8 L30,8 L30,6 L2,6 L2,3.82608696 C2,2.76913043 2.896,2 4,2 L28,2 C29.105,2 30,2.76913043 30,3.82608696 L30,18.173913 Z M29,0 L3,0 C1.343,0 0,1.2846087 0,2.86956522 L0,19.1304348 C0,20.7153913 1.343,22 3,22 L29,22 C30.657,22 32,20.7153913 32,19.1304348 L32,2.86956522 C32,1.2846087 30.657,0 29,0 L29,0 Z" fill="#5E687C"></path>
            </g>
        </g>
    </g>
</svg>