<svg xmlns="http://www.w3.org/2000/svg" viewBox="0 0 21 22"><path d="M19.5.5c.828 0 1.5.672 1.5 1.5v18a1.502 1.502 0 0 1-1.5 1.5h-18C.672 21.5 0 20.828 0 20V2C0 1.172.672.5 1.5.5zm0 1.5h-18v18h18.002L19.5 2zM8.143 17v1.5H3V17h5.143zM18 17v1.5h-8V17h8zM6.449 3.5c.88 0 1.592.697 1.592 1.557-.001.222-.052.44-.146.64l-.08.146 1.518 1.484a2.014 2.014 0 0 1 2.046-.086l.145.086 1.014-.991a1.163 1.163 0 0 1 .388-1.473 1.225 1.225 0 0 1 1.55.128 1.16 1.16 0 0 1 .13 1.516 1.22 1.22 0 0 1-1.382.43l-.124-.05-1.013.99c.41.603.44 1.375.088 2.002l-.088.142 1.517 1.484a1.6 1.6 0 0 1 .804-.22c.88 0 1.592.697 1.592 1.556 0 .86-.713 1.557-1.592 1.557-.879 0-1.592-.697-1.592-1.557.002-.221.052-.44.147-.64l.079-.145-1.518-1.485a1.997 1.997 0 0 1-.513.239l-.184.046v1.279c.548.19.877.737.778 1.298-.098.56-.595.97-1.176.97-.582 0-1.079-.41-1.177-.97-.091-.52.186-1.03.665-1.252l.114-.046v-1.279a2.006 2.006 0 0 1-.535-.19l-.163-.095-1.518 1.484c.146.238.224.51.226.786 0 .86-.713 1.557-1.592 1.557-.88 0-1.592-.697-1.592-1.557s.713-1.556 1.592-1.556c.227 0 .45.05.654.143l.15.077 1.517-1.484a1.897 1.897 0 0 1-.088-2.001l.088-.142-1.517-1.485a1.6 1.6 0 0 1-.804.22c-.88 0-1.592-.696-1.592-1.556 0-.86.713-1.557 1.592-1.557zm7.96 8.563a.787.787 0 0 0-.797.778c0 .43.357.779.796.779.44 0 .795-.349.796-.779a.787.787 0 0 0-.796-.778zM6.45 12.3a.5.5 0 1 0 0 1 .5.5 0 0 0 0-1zm3.979-4.518c-.66 0-1.194.523-1.194 1.167 0 .645.534 1.168 1.194 1.168.659 0 1.193-.523 1.193-1.168 0-.645-.534-1.167-1.193-1.167zM6.45 4.5a.5.5 0 1 0 0 1 .5.5 0 0 0 0-1z" fill="#6C778E" fill-rule="evenodd"/></svg>
