<svg xmlns="http://www.w3.org/2000/svg" viewBox="0 0 21 22"><path d="M19.5.5c.828 0 1.5.672 1.5 1.5v18a1.502 1.502 0 0 1-1.5 1.5h-18c-.15 0-.295-.022-.431-.063l-.036.063-.022-.082A1.502 1.502 0 0 1 0 20V2C0 1.172.672.5 1.5.5zm0 8.25h-18v8.857l2.438-4.332c.196-.354.526-.612.912-.72l.148-.033c.449-.077.909.054 1.25.356l5.576 4.867.053-.077 5.25-7.836 1.245.836-5.227 7.802a1.5 1.5 0 0 1-2.313.4l-5.576-4.867L1.877 20h17.625L19.5 8.75zm0-6.75H9v5.25h10.5V2zm-12 0h-6v5.25h6V2zm9 2v1.5h-6V4h6zm-11 0v1.5h-2V4h2z" fill="#6C778E" fill-rule="evenodd"/></svg>
