<?xml version="1.0" encoding="UTF-8"?>
<svg width="48px" height="48px" viewBox="0 0 48 48" version="1.1" xmlns="http://www.w3.org/2000/svg" xmlns:xlink="http://www.w3.org/1999/xlink">
    <title>Avatars/avatar icons/user_Icon Copy 5</title>
    <g id="Page-1" stroke="none" stroke-width="1" fill="none" fill-rule="evenodd">
        <g id="permissionsfix" transform="translate(-473.000000, -1000.000000)">
            <g id="Avatars/avatar-icons/user_Icon-Copy-5" transform="translate(473.000000, 1000.000000)">
                <g id="icon__shape-2" opacity="0.2" fill="#56F24B">
                    <circle id="icon__shape" cx="24" cy="24" r="24"></circle>
                </g>
                <g id="Icons/24px/Menu/settings" transform="translate(12.000000, 12.000000)" fill="#51C300">
                    <path d="M12,22.5 C6.20101013,22.5 1.5,17.7989899 1.5,12 C1.5,6.20101013 6.20101013,1.5 12,1.5 C17.7989899,1.5 22.5,6.20101013 22.5,12 C22.5,17.7989899 17.7989899,22.5 12,22.5 L12,22.5 Z M12,3 C7.02943725,3 3,7.02943725 3,12 C3,16.9705627 7.02943725,21 12,21 C16.9705627,21 21,16.9705627 21,12 C21,7.02943725 16.9705627,3 12,3 Z M15.4425,16.5 L11.25,12.3075 L11.25,5.25 L12.75,5.25 L12.75,11.685 L16.5,15.4425 L15.4425,16.5 Z" id="Fill"></path>
                </g>
            </g>
        </g>
    </g>
</svg>