<svg width="24" height="24" viewBox="0 0 24 24" fill="none" xmlns="http://www.w3.org/2000/svg">
<path fill-rule="evenodd" clip-rule="evenodd" d="M4 8C4 6.89543 4.89543 6 6 6H8C8.27614 6 8.5 6.22386 8.5 6.5C8.5 6.77614 8.27614 7 8 7H6C5.44772 7 5 7.44772 5 8V16C5 16.5523 5.44772 17 6 17H8C8.27614 17 8.5 17.2239 8.5 17.5C8.5 17.7761 8.27614 18 8 18H6C4.89543 18 4 17.1046 4 16V8Z" fill="#0A1F44"/>
<path fill-rule="evenodd" clip-rule="evenodd" d="M20 8C20 6.89543 19.1046 6 18 6H16C15.7239 6 15.5 6.22386 15.5 6.5C15.5 6.77614 15.7239 7 16 7H18C18.5523 7 19 7.44772 19 8V16C19 16.5523 18.5523 17 18 17H16C15.7239 17 15.5 17.2239 15.5 17.5C15.5 17.7761 15.7239 18 16 18H18C19.1046 18 20 17.1046 20 16V8Z" fill="#0A1F44"/>
<path d="M16.5 9H7.5C7.22386 9 7 9.22386 7 9.5C7 9.77614 7.22386 10 7.5 10H16.5C16.7761 10 17 9.77614 17 9.5C17 9.22386 16.7761 9 16.5 9Z" fill="#0A1F44"/>
<path d="M16.5 11.5H7.5C7.22386 11.5 7 11.7239 7 12C7 12.2761 7.22386 12.5 7.5 12.5H16.5C16.7761 12.5 17 12.2761 17 12C17 11.7239 16.7761 11.5 16.5 11.5Z" fill="#0A1F44"/>
<path d="M16.5 14H7.5C7.22386 14 7 14.2239 7 14.5C7 14.7761 7.22386 15 7.5 15H16.5C16.7761 15 17 14.7761 17 14.5C17 14.2239 16.7761 14 16.5 14Z" fill="#0A1F44"/>
</svg>
