<svg width="24" height="24" viewBox="0 0 24 24" fill="none" xmlns="http://www.w3.org/2000/svg">
<path fill-rule="evenodd" clip-rule="evenodd" d="M18 7H6C5.44772 7 5 7.44772 5 8V16C5 16.5523 5.44772 17 6 17H18C18.5523 17 19 16.5523 19 16V8C19 7.44772 18.5523 7 18 7ZM6 6C4.89543 6 4 6.89543 4 8V16C4 17.1046 4.89543 18 6 18H18C19.1046 18 20 17.1046 20 16V8C20 6.89543 19.1046 6 18 6H6Z" fill="#0A1F44"/>
<path fill-rule="evenodd" clip-rule="evenodd" d="M10.8569 9.96558H14.4569C14.6778 9.96558 14.8569 10.1447 14.8569 10.3656V13.9656C14.8569 14.1865 14.6778 14.3656 14.4569 14.3656C14.2359 14.3656 14.0569 14.1865 14.0569 13.9656V11.3313L9.64853 15.7396C9.49232 15.8958 9.23905 15.8958 9.08284 15.7396C8.92663 15.5834 8.92663 15.3301 9.08284 15.1739L13.4912 10.7656H10.8569C10.6359 10.7656 10.4569 10.5865 10.4569 10.3656C10.4569 10.1447 10.6359 9.96558 10.8569 9.96558Z" fill="#0A1F44"/>
</svg>
