<?xml version="1.0" encoding="UTF-8"?>
<svg width="16px" height="16px" viewBox="0 0 16 16" version="1.1" xmlns="http://www.w3.org/2000/svg" xmlns:xlink="http://www.w3.org/1999/xlink">
    <title>58B2FBF8-641F-4842-97C0-DCBE7C59A3EC@1x</title>
    <g id="Symbols" stroke="none" stroke-width="1" fill="none" fill-rule="evenodd">
        <g id="Icons/16px/close-thick" fill="#eb0010">
            <path d="M2.32558779,3.89682174 C1.89147074,3.46270067 1.89147074,2.75971188 2.32558779,2.32559081 C2.75970485,1.89146973 3.46268712,1.89146973 3.89680418,2.32559081 L8,6.42882462 L12.1031958,2.32559081 C12.5373129,1.89146973 13.2402952,1.89146973 13.6744122,2.32559081 C14.1085293,2.75971188 14.1085293,3.46270067 13.6744122,3.89682174 L9.57121639,8.00005556 L13.6744122,12.1032894 C14.1085293,12.5374104 14.1085293,13.2403992 13.6744122,13.6745203 C13.4637404,13.885194 13.1809857,14 12.888804,14 C12.5966224,14 12.3138676,13.885194 12.1031958,13.6745203 L8,9.57128649 L3.89680418,13.6745203 C3.68613238,13.885194 3.40337763,14 3.11119599,14 C2.81901434,14 2.53625959,13.885194 2.32558779,13.6745203 C1.89147074,13.2403992 1.89147074,12.5374104 2.32558779,12.1032894 L6.42878361,8.00005556 L2.32558779,3.89682174 Z" id="Fill-59"></path>
        </g>
    </g>
</svg>
