<?xml version="1.0" encoding="UTF-8"?>
<svg width="16px" height="16px" viewBox="0 0 16 16" version="1.1" xmlns="http://www.w3.org/2000/svg" xmlns:xlink="http://www.w3.org/1999/xlink">
    <title>8C5A058E-D2E6-4298-AF8D-4172411B15DA@1x</title>
    <g id="Symbols" stroke="none" stroke-width="1" fill="none" fill-rule="evenodd">
        <g id="Icons/16px/locked" fill="#ff7800">
            <path d="M10.1428571,6.5 L5.85714286,6.5 L5.85714286,5.75 C5.85714286,4.5095 6.81857143,3.5 8,3.5 C9.18142857,3.5 10.1428571,4.5095 10.1428571,5.75 L10.1428571,6.5 Z M8.5,11.75 C8.5,12.025 8.275,12.25 8,12.25 C7.725,12.25 7.5,12.025 7.5,11.75 L7.5,10.1115 C7.2025,9.938 7,9.619 7,9.25 C7,8.698 7.448,8.25 8,8.25 C8.552,8.25 9,8.698 9,9.25 C9,9.619 8.7975,9.938 8.5,10.1115 L8.5,11.75 Z M11.5714286,6.5 L11.5714286,5.75 C11.5714286,3.67925 9.97214286,2 8,2 C6.02714286,2 4.42857143,3.67925 4.42857143,5.75 L4.42857143,6.5 L3.71428571,6.5 C3.32,6.5 3,6.836 3,7.25 L3,13.25 C3,13.664 3.32,14 3.71428571,14 L12.2857143,14 C12.68,14 13,13.664 13,13.25 L13,7.25 C13,6.836 12.68,6.5 12.2857143,6.5 L11.5714286,6.5 Z" id="Fill-1"></path>
        </g>
    </g>
</svg>
