<?xml version="1.0" encoding="UTF-8"?>
<svg width="16px" height="16px" viewBox="0 0 16 16" version="1.1" xmlns="http://www.w3.org/2000/svg" xmlns:xlink="http://www.w3.org/1999/xlink">
    <title>3C2CFF59-B5C7-4AC9-8633-4E2E8F16298F@1x</title>
    <g id="Symbols" stroke="none" stroke-width="1" fill="none" fill-rule="evenodd">
        <g id="Icons/16px/warning" fill="#ff7800">
            <path d="M8,11 C8.828,11 9.5,11.672 9.5,12.5 C9.5,13.328 8.828,14 8,14 C7.17125,14 6.5,13.328 6.5,12.5 C6.5,11.672 7.17125,11 8,11 Z M8,2 C8.825,2 9.5,2.675 9.5,3.5 L9.5,3.5 L9.5,8 C9.5,8.825 8.825,9.5 8,9.5 C7.17425,9.5 6.5,8.825 6.5,8 L6.5,8 L6.5,3.5 C6.5,2.675 7.17425,2 8,2 Z" id="Combined-Shape"></path>
        </g>
    </g>
</svg>
