<svg width="24" height="24" viewBox="0 0 24 24" fill="none" xmlns="http://www.w3.org/2000/svg">
<path d="M17.1429 7.94364V14.5714C17.1429 15.9916 15.9916 17.1429 14.5714 17.1429H7.94363C8.24003 17.6553 8.79404 18 9.42857 18H14.5714C16.465 18 18 16.465 18 14.5714V9.42858C18 8.79405 17.6553 8.24004 17.1429 7.94364ZM13.2857 11.5714C13.5224 11.5714 13.7143 11.3795 13.7143 11.1429C13.7143 10.9062 13.5224 10.7143 13.2857 10.7143L11.5714 10.7143L11.5714 9C11.5714 8.7633 11.3796 8.57143 11.1429 8.57143C10.9062 8.57143 10.7143 8.7633 10.7143 9L10.7143 10.7143H9C8.76331 10.7143 8.57143 10.9062 8.57143 11.1429C8.57143 11.3795 8.76331 11.5714 9 11.5714H10.7143V13.2857C10.7143 13.5224 10.9062 13.7143 11.1429 13.7143C11.3796 13.7143 11.5714 13.5224 11.5714 13.2857V11.5714L13.2857 11.5714ZM14.5714 6C15.5182 6 16.2857 6.76751 16.2857 7.71428V14.5714C16.2857 15.5182 15.5182 16.2857 14.5714 16.2857H7.71429C6.76751 16.2857 6 15.5182 6 14.5714L6 7.71428C6 6.76751 6.76751 6 7.71429 6L14.5714 6ZM15.4286 7.71428C15.4286 7.2409 15.0448 6.85714 14.5714 6.85714L7.71429 6.85714C7.2409 6.85714 6.85714 7.2409 6.85714 7.71428L6.85714 14.5714C6.85714 15.0448 7.2409 15.4286 7.71429 15.4286H14.5714C15.0448 15.4286 15.4286 15.0448 15.4286 14.5714V7.71428Z" fill="#0A1F44"/>
</svg>
