<?xml version="1.0" encoding="UTF-8"?>
<svg width="40px" height="40px" viewBox="0 0 40 40" version="1.1" xmlns="http://www.w3.org/2000/svg" xmlns:xlink="http://www.w3.org/1999/xlink">
    <title>Icons/24px/Actions/add-new-filters Copy 3</title>
    <g id="Future-State---License-Snap+" stroke="none" stroke-width="1" fill="none" fill-rule="evenodd">
        <g id="v2-2" transform="translate(-1204.000000, -367.000000)">
            <g id="Group-4" transform="translate(901.000000, 317.000000)">
                <g id="Icons/24px/Actions/add-new-filters-Copy-3" transform="translate(303.000000, 50.000000)">
                    <g id="icon__shape-2" opacity="0.2" fill="#56F24B">
                        <circle id="icon__shape" cx="20" cy="20" r="20"></circle>
                    </g>
                    <g id="Icons/24px/Menu/settings" transform="translate(10.000000, 10.000000)" fill="#51C300">
                        <path d="M9.375,11.875 L10.625,11.875 L10.625,13.125 L9.375,13.125 L9.375,11.875 Z M9.375,14.375 L10.625,14.375 L10.625,15.625 L9.375,15.625 L9.375,14.375 Z M14.375,7.29375 L14.375,2.5 L16.25,2.5 L16.25,1.25 L3.75,1.25 L3.75,2.5 L5.625,2.5 L5.625,7.29375 C5.625,7.56421277 5.71272234,7.82737979 5.875,8.04375 L7.34375,10 L5.875,11.95625 C5.71272234,12.1726202 5.625,12.4357872 5.625,12.70625 L5.625,17.5 L3.75,17.5 L3.75,18.75 L16.25,18.75 L16.25,17.5 L14.375,17.5 L14.375,12.70625 C14.375,12.4357872 14.2872777,12.1726202 14.125,11.95625 L12.65625,10 L14.125,8.04375 C14.2872777,7.82737979 14.375,7.56421277 14.375,7.29375 Z M13.125,2.5 L13.125,6.875 L6.875,6.875 L6.875,2.5 L13.125,2.5 Z M13.125,12.70625 L13.125,17.5 L6.875,17.5 L6.875,12.70625 L8.90625,10 L7.5,8.125 L12.5,8.125 L11.09375,10 L13.125,12.70625 Z" id="Fill"></path>
                    </g>
                </g>
            </g>
        </g>
    </g>
</svg>