<?xml version="1.0" encoding="utf-8"?>
<!-- Generator: Adobe Illustrator 19.2.1, SVG Export Plug-In . SVG Version: 6.00 Build 0)  -->
<svg version="1.1" id="Layer_1" xmlns="http://www.w3.org/2000/svg" xmlns:xlink="http://www.w3.org/1999/xlink" x="0px" y="0px"
	 width="32.6px" height="24.7px" viewBox="0 0 32.6 24.7" style="enable-background:new 0 0 32.6 24.7;" xml:space="preserve">
<g>
	<path d="M31,11.6l-7.7-7.7c-0.4-0.4-1-0.4-1.4,0s-0.4,1,0,1.4l7,7l-7,7c-0.4,0.4-0.4,1,0,1.4c0.2,0.2,0.5,0.3,0.7,0.3
		s0.5-0.1,0.7-0.3L31,13C31.4,12.6,31.4,12,31,11.6z"/>
	<path d="M10.5,3.9c-0.4-0.4-1-0.4-1.4,0l-7.7,7.7c-0.2,0.2-0.3,0.4-0.3,0.7s0.1,0.5,0.3,0.7l7.7,7.7C9.3,20.9,9.6,21,9.8,21
		s0.5-0.1,0.7-0.3c0.4-0.4,0.4-1,0-1.4l-7-7l7-7C10.9,4.9,10.9,4.3,10.5,3.9z"/>
	<path d="M20,0.5c-0.5-0.2-1.1,0.1-1.3,0.7l-6.9,21.7c-0.2,0.5,0.1,1.1,0.7,1.3c0.5,0.2,1.1-0.1,1.3-0.7l6.9-21.7
		C20.8,1.2,20.5,0.6,20,0.5z"/>
</g>
</svg>
