<?xml version="1.0" encoding="utf-8"?>
<svg version="1.1" id="Layer_1" xmlns="http://www.w3.org/2000/svg" xmlns:xlink="http://www.w3.org/1999/xlink" x="0px" y="0px"
	 viewBox="0 0 24 24" style="enable-background:new 0 0 24 24;" xml:space="preserve">
<path fill="#35A6FF" d="M21,0H3C1.3,0,0,1.3,0,3v7.7v1.7V22c0,0.8,0.5,1.5,1.2,1.8C1.4,24,1.7,24,2,24c0.5,0,1-0.2,1.4-0.6L8.8,18H21
	c1.7,0,3-1.3,3-3v-2.6v-1.7V3C24,1.3,22.7,0,21,0z M22,12.4V15c0,0.6-0.4,1-1,1H8.3c-0.3,0-0.5,0.1-0.7,0.3L2,22v-9.7v-1.7V3
	c0-0.6,0.4-1,1-1h18c0.6,0,1,0.4,1,1v7.7V12.4z"/>
</svg>
