<?xml version="1.0" encoding="utf-8"?>
<!-- Generator: Adobe Illustrator 19.2.1, SVG Export Plug-In . SVG Version: 6.00 Build 0)  -->
<svg version="1.1" id="Layer_1" xmlns="http://www.w3.org/2000/svg" xmlns:xlink="http://www.w3.org/1999/xlink" x="0px" y="0px"
	 width="20.2px" height="20.8px" viewBox="0 0 20.2 20.8" style="enable-background:new 0 0 20.2 20.8;" xml:space="preserve">
<g id="layer1" transform="translate(0,-540.36218)">
	<g id="g4305">
		<g id="g4345" transform="translate(28,-40.00001)">
			<g id="text2994">
				<g id="layer1-1-1" transform="matrix(0.8,0,0,0.8,120.63721,336.56725)">
					<g id="g3989" transform="translate(94.875498,-44.842982)">
						<g id="layer1-1-7" transform="translate(-266.66383,-76.760125)">
							<path id="path3833-1" d="M-2.7,432.8c0,0-0.1,0-0.1,0h-7.1c-0.4,0-0.8,0.4-0.8,0.8v15.1c0,0.4,0.4,0.8,0.8,0.8H2.5
								c0.4,0,0.8-0.4,0.8-0.8V439c0-0.3-0.1-0.6-0.3-0.8l-5.1-5.1C-2.2,432.9-2.4,432.8-2.7,432.8z M-9,434.4h5.6v4.3
								c0,0.3,0,0.5,0.2,0.7c0,0,0,0,0,0c0,0,0,0,0,0c0.2,0.2,0.4,0.3,0.7,0.2h4.3v8.3H-9V434.4z M-1.8,435.6l2.5,2.5h-2.5V435.6z"
								/>
							<g id="layer1-5-1" transform="translate(-573.14286,170.28574)">
							</g>
						</g>
						<path id="path3833-4" d="M-264.1,350.8c0,0-0.1,0-0.1,0h-7.1c-0.2,0-0.4,0.1-0.6,0.2c-0.1,0.1-0.2,0.4-0.2,0.6v2.2h1.6v-1.4
							h5.6v3.3l1.9,1.9h3.3v8.3h-1.4v1.6h2.2c0.2,0,0.4-0.1,0.6-0.2c0.1-0.1,0.2-0.4,0.2-0.6V357c0-0.3-0.1-0.6-0.3-0.8l-5.1-5.1
							C-263.6,351-263.8,350.8-264.1,350.8L-264.1,350.8z M-263.3,353.6l2.5,2.5h-2.5V353.6z"/>
					</g>
					<g id="layer1-5-2" transform="translate(-573.14286,170.28574)">
					</g>
				</g>
			</g>
		</g>
	</g>
</g>
</svg>
