<?xml version="1.0" encoding="UTF-8"?>
<svg width="24px" height="24px" viewBox="0 0 24 24" version="1.1" xmlns="http://www.w3.org/2000/svg" xmlns:xlink="http://www.w3.org/1999/xlink">
    <title>custom objects icon</title>
    <g id="custom-objects-icon" stroke="none" stroke-width="1" fill="none" fill-rule="evenodd">
        <circle id="Oval" fill="#E0AF45" cx="12" cy="12" r="12"></circle>
        <g id="Icons/24px/Controls/connect" transform="translate(4.000000, 4.500000)" fill="#FFFFFF">
            <path d="M5.5,12 L10.5,12 L10.5,13 L5.5,13 L5.5,12 Z M6.5,14 L9.5,14 L9.5,15 L6.5,15 L6.5,14 Z M8,1 C5.23857625,1 3,3.23857625 3,6 C2.93140724,7.47411862 3.57498691,8.89148194 4.73,9.81 C5.23,10.275 5.5,10.54 5.5,11 L6.5,11 C6.5,10.08 5.945,9.565 5.405,9.07 C4.45608965,8.34333969 3.92968355,7.19311427 4,6 C4.00000003,3.79086102 5.79086102,2 8,2 C10.209139,2 12,3.79086102 12,6 C12.06915,7.19401912 11.5407891,8.34442197 10.59,9.07 C10.055,9.57 9.5,10.07 9.5,11 L10.5,11 C10.5,10.54 10.765,10.275 11.27,9.805 C12.4242104,8.88805203 13.0677901,7.47254869 13,6 C13,4.67391755 12.4732158,3.40214799 11.5355339,2.46446609 C10.597852,1.5267842 9.32608245,1 8,1 Z" id="Fill"></path>
        </g>
    </g>
</svg>