<?xml version="1.0" encoding="UTF-8" standalone="no"?>
<svg width="15px" height="18px" viewBox="0 0 15 18" version="1.1" xmlns="http://www.w3.org/2000/svg" xmlns:xlink="http://www.w3.org/1999/xlink">
    <!-- Generator: sketchtool 42 (36781) - http://www.bohemiancoding.com/sketch -->
    <title>D4E9D4CD-7BBC-460F-AE3C-F533A8FCF049</title>
    <desc>Created with sketchtool.</desc>
    <defs>
        <rect id="path-1" x="0" y="2" width="15" height="3" rx="1.5"></rect>
        <mask id="mask-2" maskContentUnits="userSpaceOnUse" maskUnits="objectBoundingBox" x="0" y="0" width="15" height="3" fill="white">
            <use xlink:href="#path-1"></use>
        </mask>
        <path d="M5,1.5 C5,0.671572875 5.67432225,0 6.50016487,0 L8.49983513,0 C9.32835331,0 10,0.665797234 10,1.5 L10,3 L5,3 L5,1.5 Z" id="path-3"></path>
        <mask id="mask-4" maskContentUnits="userSpaceOnUse" maskUnits="objectBoundingBox" x="0" y="0" width="5" height="3" fill="white">
            <use xlink:href="#path-3"></use>
        </mask>
        <path d="M1,6 L14,6 L14,15.9914698 C14,17.1007504 13.1064574,18 11.9972399,18 L3.00276013,18 C1.89666625,18 1,17.0980496 1,15.9914698 L1,6 Z" id="path-5"></path>
        <mask id="mask-6" maskContentUnits="userSpaceOnUse" maskUnits="objectBoundingBox" x="0" y="0" width="13" height="12" fill="white">
            <use xlink:href="#path-5"></use>
        </mask>
    </defs>
    <g id="UI-Elements" stroke="none" stroke-width="1" fill="none" fill-rule="evenodd">
        <g id="Add-icons" transform="translate(-168.000000, -60.000000)" stroke="#7C8697" stroke-width="2">
            <g id="icon-delete" transform="translate(168.000000, 60.000000)">
                <use id="Rectangle-2-Copy-2" mask="url(#mask-2)" fill="#E1E6EB" xlink:href="#path-1"></use>
                <use id="Rectangle-2-Copy-3" mask="url(#mask-4)" fill="#E1E6EB" xlink:href="#path-3"></use>
                <use id="Rectangle-2-Copy-4" mask="url(#mask-6)" xlink:href="#path-5"></use>
            </g>
        </g>
    </g>
</svg>