<?xml version="1.0" encoding="UTF-8"?>
<svg width="24px" height="24px" viewBox="0 0 24 24" version="1.1" xmlns="http://www.w3.org/2000/svg" xmlns:xlink="http://www.w3.org/1999/xlink">
    <title>Icons/24px/Formatting/Description</title>
    <g id="Icons/24px/Formatting/Description" stroke="none" stroke-width="1" fill="none" fill-rule="evenodd">
        <path d="M20.4425,15.1925 L21.5,16.25 L16.25,21.5 L13.25,18.5 L14.3075,17.4425 L16.25,19.385 L20.4425,15.1925 Z M18.5,2 C19.3284271,2 20,2.67157288 20,3.5 L20,11.75 L18.5,11.75 L18.5,3.5 L3.5,3.5 L3.5,18.5 L8,18.5 L8,20 L3.5,20 C2.67157288,20 2,19.3284271 2,18.5 L2,3.5 C2,2.67157288 2.67157288,2 3.5,2 L18.5,2 Z M11,12 L11,13.5 L5,13.5 L5,12 L11,12 Z M16,9 L16,10.5 L5,10.5 L5,9 L16,9 Z M16,6 L16,7.5 L5,7.5 L5,6 L16,6 Z" id="Fill" fill="#000000"></path>
    </g>
</svg>
