<?xml version="1.0" encoding="UTF-8"?>
<svg width="24px" height="24px" viewBox="0 0 24 24" version="1.1" xmlns="http://www.w3.org/2000/svg" xmlns:xlink="http://www.w3.org/1999/xlink">
    <title>Display Content Rule Icon 2</title>
    <g id="Display-Content-Rule-Icon-2" stroke="none" stroke-width="1" fill="none" fill-rule="evenodd">
        <circle id="Oval" fill="#97B90E" cx="12" cy="12" r="12"></circle>
        <g id="Icons/24px/Actions/cloud-transfer" transform="translate(4.000000, 4.000000)" fill="#FFFFFF">
            <path d="M11.5,7 C12.0522847,7 12.5,6.55228475 12.5,6 C12.5,5.44771525 12.0522847,5 11.5,5 C10.9477153,5 10.5,5.44771525 10.5,6 C10.5,6.55228475 10.9477153,7 11.5,7 Z M14,2.5 L8.12,2.5 C7.11729865,1.23918468 5.45611711,0.702899068 3.90546307,1.13940486 C2.35480903,1.57591066 1.21732332,2.90001512 1.01958009,4.49875302 C0.821836861,6.09749092 1.60242962,7.65883692 3,8.46 L3,13.5 C3,14.0522847 3.44771525,14.5 4,14.5 L14,14.5 C14.5522847,14.5 15,14.0522847 15,13.5 L15,3.5 C15,2.94771525 14.5522847,2.5 14,2.5 L14,2.5 Z M2,5 C2.00239844,3.64431105 2.91369111,2.45869541 4.22313988,2.10763676 C5.53258866,1.75657811 6.91475603,2.3273251 7.595,3.5 L4,3.5 L4,4.5 L7.955,4.5 C7.98259749,4.6652921 7.99764048,4.83243648 8,5 C7.99764048,5.16756352 7.98259749,5.3347079 7.955,5.5 L5,5.5 L5,6.5 L7.595,6.5 C6.91475603,7.6726749 5.53258866,8.24342189 4.22313988,7.89236324 C2.91369111,7.54130459 2.00239844,6.35568895 2,5 Z M14,13.5 L4,13.5 L6.5,11 L7.295,11.795 C7.68503745,12.1827236 8.31496255,12.1827236 8.705,11.795 L11.5,9 L14,11.5 L14,13.5 Z M14,10.085 L12.205,8.29 C11.8149625,7.90227641 11.1850375,7.90227641 10.795,8.29 L8,11.085 L7.205,10.29 C6.81496255,9.90227641 6.18503745,9.90227641 5.795,10.29 L4,12.085 L4,8.87 C4.32675266,8.95411722 4.66260102,8.99777751 5,9 C7.209139,9 9,7.209139 9,5 C9.00028328,4.48556045 8.90007354,3.97601938 8.705,3.5 L14,3.5 L14,10.085 Z" id="Fill"></path>
        </g>
    </g>
</svg>