<svg xmlns="http://www.w3.org/2000/svg" width="16" height="16" viewBox="0 0 16 16">
    <g fill="none" fill-rule="evenodd">
        <path d="M0 0h16v16H0z"/>
        <path fill="#889AAB" d="M4 5a1 1 0 1 1 0-2 1 1 0 0 1 0 2zm0 4a1 1 0 1 1 0-2 1 1 0 0 1 0 2zm0 4a1 1 0 1 1 0-2 1 1 0 0 1 0 2zm4-8a1 1 0 1 1 0-2 1 1 0 0 1 0 2zm0 4a1 1 0 1 1 0-2 1 1 0 0 1 0 2zm0 4a1 1 0 1 1 0-2 1 1 0 0 1 0 2zm4-8a1 1 0 1 1 0-2 1 1 0 0 1 0 2zm0 4a1 1 0 1 1 0-2 1 1 0 0 1 0 2zm0 4a1 1 0 1 1 0-2 1 1 0 0 1 0 2z"/>
    </g>
</svg>
