<?xml version="1.0" encoding="UTF-8"?>
<svg width="16px" height="16px" viewBox="0 0 16 16" version="1.1" xmlns="http://www.w3.org/2000/svg" xmlns:xlink="http://www.w3.org/1999/xlink">
    <title>Group 5</title>
    <g id="Symbols" stroke="none" stroke-width="1" fill="none" fill-rule="evenodd">
        <g id="PQL-Formula" transform="translate(-664.000000, -59.000000)" fill="#000000">
            <g id="Icons/24px/Actions/edit" transform="translate(664.000000, 59.000000)">
                <path d="M1,13.678887 L15,13.678887 L15,14.6666667 L1,14.6666667 L1,13.678887 Z M12.705,4.78886982 C12.892777,4.60359371 12.9982867,4.35218156 12.9982867,4.0900157 C12.9982867,3.82784983 12.892777,3.57643768 12.705,3.39116157 L10.915,1.62303593 C10.7274317,1.43755359 10.4729092,1.33333333 10.2075,1.33333333 C9.94209075,1.33333333 9.68756826,1.43755359 9.5,1.62303593 L2,9.03138357 L2,12.1972175 L5.205,12.1972175 L12.705,4.78886982 Z M10.205,2.31942061 L12,4.09248515 L10.5,5.57415467 L8.705,3.80109014 L10.205,2.31942061 Z M3,11.2094378 L3,9.43637324 L8,4.49747482 L9.795,6.27053935 L4.795,11.2094378 L3,11.2094378 Z" id="Fill"></path>
            </g>
        </g>
    </g>
</svg>
