<?xml version="1.0" encoding="UTF-8"?>
<svg width="24px" height="24px" viewBox="0 0 24 24" version="1.1" xmlns="http://www.w3.org/2000/svg" xmlns:xlink="http://www.w3.org/1999/xlink">
    <title>Event Log Icon BW</title>
    <g id="Event-Log-Icon-BW" stroke="none" stroke-width="1" fill="none" fill-rule="evenodd">
        <g id="Icons/24px/Data/data-cluster" transform="translate(4.000000, 4.000000)" fill="#000000">
            <path d="M7,9.5 L9,9.5 L9,10.5 L7,10.5 L7,9.5 Z M3,1 L3,14 C3,14.5522847 3.44771525,15 4,15 L12,15 C12.5522847,15 13,14.5522847 13,14 L13,1 L3,1 Z M12,14 L4,14 L4,8 L12,8 L12,14 Z M12,7 L4,7 L4,5 L12,5 L12,7 Z M4,4 L4,2 L12,2 L12,4 L4,4 Z" id="Fill"></path>
        </g>
    </g>
</svg>