<?xml version="1.0" encoding="UTF-8"?>
<svg width="24px" height="24px" viewBox="0 0 24 24" version="1.1" xmlns="http://www.w3.org/2000/svg" xmlns:xlink="http://www.w3.org/1999/xlink">
    <title>Event Log Icon 2</title>
    <g id="Event-Log-Icon-2" stroke="none" stroke-width="1" fill="none" fill-rule="evenodd">
        <circle id="Oval" fill="#3BD8F7" cx="12" cy="12" r="12"></circle>
        <g id="New-icons-002-04" transform="translate(4.000000, 4.000000)" fill="#FFFFFF" fill-rule="nonzero">
            <polygon id="Path" points="2.18281037 12.5620737 2.18281037 11.4706685 2.18281037 10.3792633 2.18281037 9.28785812 2.18281037 8.19645293 2.18281037 7.10504775 2.18281037 6.01364256 2.18281037 4.92223738 1.09140518 4.92223738 -9.69362532e-16 4.92223738 -9.69362532e-16 6.01364256 1.09140518 6.01364256 1.09140518 7.10504775 -9.69362532e-16 7.10504775 -9.69362532e-16 8.19645293 1.09140518 8.19645293 1.09140518 9.28785812 -9.69362532e-16 9.28785812 -9.69362532e-16 10.3792633 1.09140518 10.3792633 1.09140518 11.4706685 -9.69362532e-16 11.4706685 -9.69362532e-16 12.5620737 1.09140518 12.5620737"></polygon>
            <rect id="Rectangle" x="4.36562074" y="7.65075034" width="6.54843111" height="1.09140518"></rect>
            <rect id="Rectangle" x="4.36562074" y="9.83356071" width="6.54843111" height="1.09140518"></rect>
            <rect id="Rectangle" x="4.36562074" y="12.0163711" width="6.54843111" height="1.09140518"></rect>
            <path d="M16,3.73260573 C16,1.66984993 14.3301501,0 12.2673943,0 C11.0668486,0 10.0081855,0.578444748 9.33151432,1.45156889 L2.91405184,1.45156889 C1.90995907,1.46248295 1.09140518,2.28103683 1.09140518,3.2851296 L1.09140518,3.64529332 L2.18281037,3.64529332 L2.18281037,3.2851296 C2.18281037,2.88130969 2.51023192,2.55388813 2.91405184,2.55388813 L8.75306958,2.55388813 C8.62210095,2.92496589 8.54570259,3.31787176 8.54570259,3.73260573 C8.54570259,5.79536153 10.2155525,7.46521146 12.2783083,7.46521146 C12.5620737,7.46521146 12.834925,7.4324693 13.0968622,7.36698499 L13.0968622,14.1882674 C13.0968622,14.5920873 12.7694407,14.9195089 12.3656207,14.9195089 L2.91405184,14.9195089 C2.51023192,14.9195089 2.18281037,14.5920873 2.18281037,14.1882674 L2.18281037,13.8281037 L1.09140518,13.8281037 L1.09140518,14.1882674 C1.09140518,15.1923602 1.90995907,16.0109141 2.91405184,16.0109141 L12.3656207,16.0109141 C13.3697135,16.0109141 14.1882674,15.1923602 14.1882674,14.1882674 L14.1882674,6.91950887 C15.2687585,6.27557981 16,5.09686221 16,3.73260573 Z M11.8635744,1.73533424 L12.9549795,1.73533424 L12.9549795,2.82673943 L11.8635744,2.82673943 L11.8635744,1.73533424 Z M11.8635744,3.5579809 L12.9549795,3.5579809 L12.9549795,5.74079127 L11.8635744,5.74079127 L11.8635744,3.5579809 Z" id="Shape"></path>
        </g>
    </g>
</svg>