<?xml version="1.0" encoding="UTF-8"?>
<svg width="24px" height="24px" viewBox="0 0 24 24" version="1.1" xmlns="http://www.w3.org/2000/svg" xmlns:xlink="http://www.w3.org/1999/xlink">
    <title>E18A712D-2BD8-425B-AA04-ED08AE75EB92@1x</title>
    <g id="Symbols" stroke="none" stroke-width="1" fill="none" fill-rule="evenodd">
        <g id="Icons/24px/Toggle/view-off" fill="#000000">
            <path d="M3.93,16.8825 L5.0025,15.8175 C3.82816198,14.7630852 2.90548155,13.4585176 2.3025,12 C3.825,8.1975 8.025,5.25 12,5.25 C13.0229199,5.26350288 14.0365766,5.4459611 15,5.79 L16.1625,4.62 C14.8444902,4.06299284 13.4307691,3.76751238 12,3.75 C7.00342679,3.93789621 2.59797716,7.08127593 0.795,11.745 C0.735425436,11.9097807 0.735425436,12.0902193 0.795,12.255 C1.4611853,14.0227635 2.53532113,15.6082702 3.93,16.8825 L3.93,16.8825 Z M9,11.7975 C9.10780979,10.3118545 10.2893545,9.13030979 11.775,9.0225 L13.1325,7.6575 C11.5845365,7.24991158 9.93657927,7.69531274 8.80469601,8.82719601 C7.67281274,9.95907927 7.22741158,11.6070365 7.635,13.155 L9,11.7975 Z M23.205,11.745 C22.3449977,9.50490324 20.8485595,7.56526905 18.9,6.165 L22.5,2.5575 L21.4425,1.5 L1.5,21.4425 L2.5575,22.5 L6.3825,18.675 C8.08790665,19.6755054 10.0230319,20.2180638 12,20.25 C16.9965732,20.0621038 21.4020228,16.9187241 23.205,12.255 C23.2645746,12.0902193 23.2645746,11.9097807 23.205,11.745 Z M15,12 C14.9935725,13.0685659 14.4192368,14.0530491 13.4922066,14.5845464 C12.5651764,15.1160437 11.4254108,15.1143119 10.5,14.58 L14.58,10.5 C14.8496298,10.9542984 14.9945138,11.4717414 15,12 L15,12 Z M12,18.75 C10.426547,18.7225125 8.88292155,18.3160245 7.5,17.565 L9.405,15.66 C11.1932566,16.9007995 13.613238,16.6838689 15.1523035,15.1448035 C16.6913689,13.605738 16.9082995,11.1857566 15.6675,9.3975 L17.82,7.245 C19.540942,8.42623734 20.886716,10.0765676 21.6975,12 C20.175,15.8025 15.975,18.75 12,18.75 Z" id="Fill"></path>
        </g>
    </g>
</svg>