<?xml version="1.0" encoding="UTF-8"?>
<svg width="24px" height="24px" viewBox="0 0 24 24" version="1.1" xmlns="http://www.w3.org/2000/svg" xmlns:xlink="http://www.w3.org/1999/xlink">
    <title>52F7989C-A233-49CB-8ED7-32307FEB9373@1x</title>
    <g id="Symbols" stroke="none" stroke-width="1" fill="none" fill-rule="evenodd">
        <g id="Icons/24px/Toggle/view" fill="#000000">
            <path d="M23.205,11.745 C21.4020228,7.08127593 16.9965732,3.93789621 12,3.75 C7.00342679,3.93789621 2.59797716,7.08127593 0.795,11.745 C0.735425436,11.9097807 0.735425436,12.0902193 0.795,12.255 C2.59797716,16.9187241 7.00342679,20.0621038 12,20.25 C16.9965732,20.0621038 21.4020228,16.9187241 23.205,12.255 C23.2645746,12.0902193 23.2645746,11.9097807 23.205,11.745 Z M12,18.75 C8.025,18.75 3.825,15.8025 2.3025,12 C3.825,8.1975 8.025,5.25 12,5.25 C15.975,5.25 20.175,8.1975 21.6975,12 C20.175,15.8025 15.975,18.75 12,18.75 Z M12,7.5 C9.51471863,7.5 7.5,9.51471863 7.5,12 C7.5,14.4852814 9.51471863,16.5 12,16.5 C14.4852814,16.5 16.5,14.4852814 16.5,12 C16.5,9.51471863 14.4852814,7.5 12,7.5 Z M12,15 C10.3431458,15 9,13.6568542 9,12 C9,10.3431458 10.3431458,9 12,9 C13.6568542,9 15,10.3431458 15,12 C15,12.7956495 14.6839295,13.5587112 14.1213203,14.1213203 C13.5587112,14.6839295 12.7956495,15 12,15 Z" id="Fill"></path>
        </g>
    </g>
</svg>