<?xml version="1.0" encoding="UTF-8"?>
<svg width="24px" height="24px" viewBox="0 0 24 24" version="1.1" xmlns="http://www.w3.org/2000/svg" xmlns:xlink="http://www.w3.org/1999/xlink">
    <title>Filter Icon 2</title>
    <g id="Filter-Icon-2" stroke="none" stroke-width="1" fill="none" fill-rule="evenodd">
        <rect id="Rectangle" fill="#02059C" x="0" y="0" width="24" height="24" rx="12"></rect>
        <g id="Icons/24px/Data/data-cluster" transform="translate(4.000000, 4.000000)" fill="#FFFFFF">
            <path d="M9,14 L7,14 C6.44771525,14 6,13.5522847 6,13 L6,9.205 L2.295,5.5 C2.10720611,5.31332485 2.00111639,5.05978842 2,4.795 L2,3 C2,2.44771525 2.44771525,2 3,2 L13,2 C13.5522847,2 14,2.44771525 14,3 L14,4.795 C13.9988836,5.05978842 13.8927939,5.31332485 13.705,5.5 L10,9.205 L10,13 C10,13.5522847 9.55228475,14 9,14 Z M3,3 L3,4.795 L7,8.795 L7,13 L9,13 L9,8.795 L13,4.795 L13,3 L3,3 Z" id="Fill"></path>
        </g>
    </g>
</svg>