<?xml version="1.0" encoding="UTF-8" standalone="no"?>
<svg width="44px" height="46px" viewBox="0 0 44 46" version="1.1" xmlns="http://www.w3.org/2000/svg" xmlns:xlink="http://www.w3.org/1999/xlink">
    <!-- Generator: sketchtool 42 (36781) - http://www.bohemiancoding.com/sketch -->
    <title>DEF79BD1-4DFD-4FBA-AEF9-23F041139A90</title>
    <desc>Created with sketchtool.</desc>
    <defs>
        <path d="M2,17 L40,17 L40,42.0035095 C40,43.6584255 38.6475599,45 37.0023401,45 L4.99765987,45 C3.34209804,45 2,43.6495018 2,42.0035095 L2,17 Z" id="path-1"></path>
        <mask id="mask-2" maskContentUnits="userSpaceOnUse" maskUnits="objectBoundingBox" x="0" y="0" width="38" height="28" fill="white">
            <use xlink:href="#path-1"></use>
        </mask>
    </defs>
    <g id="LOGIN" stroke="none" stroke-width="1" fill="none" fill-rule="evenodd">
        <g id="Start-your-team" transform="translate(-242.000000, -329.000000)">
            <g id="BODY" transform="translate(190.000000, 159.000000)">
                <g id="left-side" transform="translate(35.000000, 58.000000)">
                    <g id="icon" transform="translate(18.000000, 113.000000)">
                        <rect id="Rectangle-path" stroke="#6B7985" stroke-width="2" stroke-linecap="round" stroke-linejoin="round" fill="#AEE3E9" x="0" y="9" width="42" height="9"></rect>
                        <use id="Rectangle-13" stroke="#6B7985" mask="url(#mask-2)" stroke-width="4" fill="#AEE3E9" xlink:href="#path-1"></use>
                        <path d="M17,18 L17,44" id="Shape" stroke="#6B7985" stroke-width="2" stroke-linecap="round" stroke-linejoin="round"></path>
                        <path d="M25,18 L25,44" id="Shape" stroke="#6B7985" stroke-width="2" stroke-linecap="round" stroke-linejoin="round"></path>
                        <rect id="Rectangle-3" fill="#F1F0B5" x="18" y="19" width="6" height="24"></rect>
                        <rect id="Rectangle-4" fill="#F1F0B5" x="16" y="10" width="10" height="7"></rect>
                        <path d="M15,9 L15,18" id="Shape" stroke="#6B7985" stroke-width="2" stroke-linecap="round" stroke-linejoin="round"></path>
                        <path d="M27,9 L27,18" id="Shape" stroke="#6B7985" stroke-width="2" stroke-linecap="round" stroke-linejoin="round"></path>
                        <path d="M21,9 C21,9 20.413929,2.7950068 27,1 C33.586071,-0.7950068 35.5492783,9.3994741 21,9 Z" id="Shape" stroke="#6B7985" stroke-width="2" stroke-linecap="round" stroke-linejoin="round"></path>
                        <path d="M21.9860096,9 C21.9860096,9 22.5720806,2.7950068 15.9860096,1 C9.3999386,-0.7950068 7.4367332,9.3994741 21.9860096,9 Z" id="Shape" stroke="#6B7985" stroke-width="2" stroke-linecap="round" stroke-linejoin="round"></path>
                    </g>
                </g>
            </g>
        </g>
    </g>
</svg>