<svg xmlns="http://www.w3.org/2000/svg" width="28" height="21" viewBox="0 0 28 21">
    <g fill="none" fill-rule="evenodd">
        <ellipse cx="18.5" cy="11" fill="#0778D0" opacity=".2" rx="9.5" ry="10"/>
        <path fill="#0778D0" d="M14.506 11.337c0 2.288 1.705 3.806 3.806 3.806 1.243 0 2.255-.517 2.959-1.298V11.15h-3.454v.968h2.354v1.32a2.846 2.846 0 0 1-1.859.726c-1.529 0-2.673-1.188-2.673-2.827 0-1.65 1.144-2.816 2.673-2.816a2.53 2.53 0 0 1 2.013.99l.891-.517c-.616-.825-1.529-1.452-2.904-1.452-2.101 0-3.806 1.507-3.806 3.795z"/>
        <path fill="#12C4A3" d="M0 9.87c0 3.718 2.556 7.152 6 8.13-2.05-2.136-3.336-5.15-3.333-8.13C2.664 6.15 3.95 3.136 6 1c-3.444.978-6 4.412-6 8.87" opacity=".2"/>
        <path fill="#FF5216" d="M4 10.5C4 16.29 8.187 21 13.625 21c.279 0 .834-.067 1.375 0-4.358-1.063-7.666-5.343-7.563-10.5C7.335 5.343 10.643 1.063 15 0c-.541.067-1.096 0-1.375 0C8.187 0 4 4.71 4 10.5" opacity=".2"/>
    </g>
</svg>
