<?xml version="1.0" encoding="utf-8"?>
<!-- Generator: Adobe Illustrator 22.1.0, SVG Export Plug-In . SVG Version: 6.00 Build 0)  -->
<svg version="1.1" id="Ebene_1" xmlns="http://www.w3.org/2000/svg" xmlns:xlink="http://www.w3.org/1999/xlink" x="0px" y="0px"
	 viewBox="0 0 24 21" style="enable-background:new 0 0 24 21;" xml:space="preserve">
<style type="text/css">
	.st0{fill:#6F5DFF;}
</style>
<path id="Shape" class="st0" d="M5.3,15.6c0,0.1,0,0.1,0.1,0.2l5.7,3c0.1,0.1,0.2,0.1,0.3,0l5.7-3c0.1,0,0.1-0.1,0.1-0.2v-1.8
	l-4,2.1c-1.3,0.7-2.8,0.7-4.1,0l-4-2.1V15.6z M3.3,10.5l6.9,3.7c0.7,0.4,1.5,0.4,2.2,0l6.9-3.7v5.1c0,0.8-0.5,1.6-1.2,2l-5.7,3
	c-0.7,0.4-1.5,0.4-2.2,0l-5.7-3c-0.7-0.4-1.2-1.1-1.2-2V10.5z M10.3,0.3c0.7-0.4,1.5-0.4,2.2,0L23.4,6C23.8,6.2,24,6.6,24,7v7.1
	c0,0.6-0.5,1.1-1.1,1.1c-0.6,0-1.1-0.5-1.1-1.1V7.6l-9.2,4.9c-0.7,0.4-1.5,0.4-2.2,0L0.6,7.3c-0.8-0.4-0.8-1.5,0-2L10.3,0.3z
	 M11.3,2L3,6.2l8.3,4.5L20,6.2L11.3,2z"/>
</svg>
