<?xml version="1.0" encoding="utf-8"?>
<!-- Generator: Adobe Illustrator 22.1.0, SVG Export Plug-In . SVG Version: 6.00 Build 0)  -->
<svg version="1.1" id="Layer_1" xmlns="http://www.w3.org/2000/svg" xmlns:xlink="http://www.w3.org/1999/xlink" x="0px" y="0px"
	 viewBox="0 0 24 24" style="enable-background:new 0 0 24 24;" xml:space="preserve">
<style type="text/css">
	.st0{fill:#A3A3A3;}
	.st1{fill:#889AAB;}
	.st2{fill:#FF0000;}
	.st3{fill:#FFA200;}
	.st4{fill:#35A6FF;}
	.st5{fill:#7D00A8;}
</style>
<path class="st2" d="M20.5,3.5c-4.7-4.7-12.3-4.7-17,0c-4.7,4.7-4.7,12.3,0,17c4.7,4.7,12.3,4.7,17,0S25.2,8.2,20.5,3.5z M17.9,4
	L15,6.8c-1.9-1.1-4.2-1.1-6.1,0L6.1,4C9.6,1.4,14.4,1.4,17.9,4z M9.2,14.8c-1.6-1.6-1.6-4.1,0-5.7c1.6-1.6,4.1-1.6,5.7,0
	s1.6,4.1,0,5.7C13.3,16.4,10.7,16.4,9.2,14.8z M4,6.1L6.8,9c-1.1,1.9-1.1,4.2,0,6.1L4,17.9C1.4,14.4,1.4,9.6,4,6.1z M6.1,20L9,17.2
	c1.9,1.1,4.2,1.1,6.1,0l2.9,2.9C14.4,22.6,9.6,22.6,6.1,20z M20,17.9L17.2,15c1.1-1.9,1.1-4.2,0-6.1L20,6.1
	C22.6,9.6,22.6,14.4,20,17.9z"/>
</svg>
