<?xml version="1.0" encoding="utf-8"?>
<!-- Generator: Adobe Illustrator 22.1.0, SVG Export Plug-In . SVG Version: 6.00 Build 0)  -->
<svg version="1.1" id="Layer_1" xmlns="http://www.w3.org/2000/svg" xmlns:xlink="http://www.w3.org/1999/xlink" x="0px" y="0px"
	 viewBox="0 0 24 24" style="enable-background:new 0 0 24 24;" xml:space="preserve">
<style type="text/css">
	.st0{fill:#A3A3A3;}
	.st1{fill:#889AAB;}
	.st2{fill:#FF0000;}
	.st3{fill:#FFA200;}
	.st4{fill:#35A6FF;}
	.st5{fill:#7D00A8;}
</style>
<g>
	<path class="st5" d="M23.1,2l-1.2-1.2c-1.1-1.1-3.1-1.1-4.2,0L3.3,15.3c0,0,0,0,0,0c-0.1,0.1-0.1,0.2-0.2,0.3l0,0c0,0,0,0,0,0l-3,7
		c0,0.1,0,0.1-0.1,0.2v0.4c0,0.2,0.1,0.4,0.3,0.5C0.5,23.9,0.7,24,1,24c0.1,0,0.3,0,0.4-0.1l7-3c0,0,0,0,0,0l0,0
		c0.1,0,0.2-0.1,0.3-0.2c0,0,0,0,0,0L23.1,6.3C24.3,5.1,24.3,3.2,23.1,2z M2.9,21.1l1.4-3.3l1.9,1.9L2.9,21.1z M8,18.6L5.4,16
		L15.5,5.9l2.6,2.6L8,18.6z M21.7,4.9l-2.2,2.2l-2.6-2.6l2.2-2.2c0.4-0.4,1-0.4,1.4,0c0,0,0,0,0,0l1.2,1.2
		C22.1,3.8,22.1,4.5,21.7,4.9z"/>
	<path class="st5" d="M19.8,13.4c-0.4-0.4-1-0.4-1.4,0c-0.4,0.4-0.4,1,0,1.4l0.3,0.3L18,15.9c-0.4,0.4-0.4,1,0,1.4
		c0.4,0.4,1,0.4,1.4,0l0.7-0.7l1.4,1.4L18,21.6l-3.2-3.2c-0.4-0.4-1-0.4-1.4,0c-0.4,0.4-0.4,1,0,1.4l3.9,3.9
		c0.2,0.2,0.5,0.3,0.7,0.3s0.5-0.1,0.7-0.3l5-5c0.4-0.4,0.4-1,0-1.4L19.8,13.4z"/>
	<path class="st5" d="M4.2,10.6c0.4,0.4,1,0.4,1.4,0c0.4-0.4,0.4-1,0-1.4L2.4,6L6,2.4l1.4,1.4L6.7,4.5c-0.4,0.4-0.4,1,0,1.4
		c0.4,0.4,1,0.4,1.4,0l0.7-0.7l0.4,0.4c0.4,0.4,1,0.4,1.4,0c0.4-0.4,0.4-1,0-1.4L6.7,0.3c-0.4-0.4-1-0.4-1.4,0l-5,5
		c-0.4,0.4-0.4,1,0,1.4L4.2,10.6z"/>
</g>
</svg>
