<?xml version="1.0" encoding="utf-8"?>
<!-- Generator: Adobe Illustrator 22.1.0, SVG Export Plug-In . SVG Version: 6.00 Build 0)  -->
<svg version="1.1" id="Layer_1" xmlns="http://www.w3.org/2000/svg" xmlns:xlink="http://www.w3.org/1999/xlink" x="0px" y="0px"
	 viewBox="0 0 24 24" style="enable-background:new 0 0 24 24;" xml:space="preserve">
<style type="text/css">
	.st0{fill:#A3A3A3;}
	.st1{fill:none;stroke:#A3A3A3;stroke-width:2;stroke-miterlimit:10;}
	.st2{fill:#00a18d;}
	.st3{fill:#495062;}
	.st4{fill:#27ACFF;}
	.st5{fill:#3AA4FB;}
	.st6{fill:#FFFFFF;}
	.st7{fill:#4E586D;}
	.st8{fill:#026ECD;}
	.st9{fill:#BBCAD9;}
	.st10{fill:none;}
	.st11{fill:#37DBBC;}
	.st12{fill:#FC6D41;}
	.st13{fill:#E70E3F;}
	.st14{fill:#477FAA;}
	.st15{fill:none;stroke:#07293E;stroke-width:2;stroke-linecap:round;stroke-linejoin:round;stroke-miterlimit:10;}
	.st16{fill:#07293E;}
	.st17{fill:none;stroke:#07293E;stroke-width:1.9359;stroke-linecap:round;stroke-linejoin:round;stroke-miterlimit:10;}
	.st18{fill:#305D80;}
	.st19{fill:#21A5D1;}
	.st20{fill:url(#SVGID_1_);}
	.st21{fill:#0095D5;}
</style>
<g>
	<path class="st2" d="M15.3,15.7c1-0.9,1.7-2.2,1.7-3.7v-2c0-2.8-2.2-5-5-5c-2.8,0-5,2.2-5,5v2c0,1.5,0.7,2.8,1.7,3.7
		C5.9,17,4,19.8,4,23c0,0.6,0.4,1,1,1h14c0.6,0,1-0.4,1-1C20,19.8,18.1,17,15.3,15.7z M9,12v-2c0-1.7,1.3-3,3-3s3,1.3,3,3v2
		c0,1.7-1.3,3-3,3S9,13.7,9,12z M6.1,22c0.5-2.8,2.9-5,5.9-5s5.4,2.2,5.9,5H6.1z"/>
	<path class="st2" d="M14.3,2.4C15,0.9,16.6-0.2,18.5,0c2,0.2,3.5,2.1,3.5,4.2l0,1.3c0,1.1-0.4,2-1.1,2.7c1.9,1,3.1,3,3.1,5.3
		c0,0.5-0.5,1-1,1l-3.2,0c-0.6,0-1.1-0.6-1-1.2c0,0,0,0,0,0c0.1-0.5,0.5-0.8,1-0.8h2c-0.3-1.1-1-2-2-2.5c-0.5-0.3-0.9-0.7-1-1.3
		c0,0,0,0,0,0c-0.1-0.6,0-1.3,0.5-1.7C19.8,6.6,20,6.1,20,5.5V4c0-1.2-1.1-2.2-2.3-2c-0.7,0.1-1.2,0.6-1.4,1.1
		C16,3.6,15.5,3.9,15,3.7l-0.1-0.1C14.4,3.4,14.1,2.9,14.3,2.4z"/>
	<path class="st2" d="M9.6,2.3C8.9,0.8,7.3-0.2,5.5,0C3.5,0.3,2,2.1,2,4.2l0,1.3c0,1.1,0.4,2,1.1,2.7c-1.9,1-3.1,3-3.1,5.3
		c0,0.5,0.5,1,1,1l3.2,0c0.6,0,1.1-0.6,1-1.2c0,0,0,0,0,0c-0.1-0.5-0.5-0.8-1-0.8h-2c0.3-1.1,1-2,2-2.5c0.5-0.3,0.9-0.7,1-1.3
		c0,0,0,0,0,0C5.3,8,5.1,7.4,4.6,7C4.2,6.6,4,6.1,4,5.5l0-1.4c0-1,0.7-1.9,1.7-2.1c0.9-0.2,1.7,0.3,2.1,1.1C8,3.6,8.5,3.8,9,3.6l0,0
		C9.6,3.4,9.8,2.8,9.6,2.3z"/>
</g>
</svg>
