<?xml version="1.0" encoding="UTF-8"?>
<svg width="38px" height="38px" viewBox="0 0 38 38" version="1.1" xmlns="http://www.w3.org/2000/svg" xmlns:xlink="http://www.w3.org/1999/xlink">
    <title>Lifesaver pt2</title>
    <g stroke="none" stroke-width="1" fill="none" fill-rule="evenodd">
        <g transform="translate(4.500000, 20.000000)">
            <g transform="translate(18.500000, 3.000000) rotate(-270.000000) translate(-18.500000, -3.000000) translate(16.000000, -15.000000)"></g>
        </g>
        <path d="M18.7500167,25.7500167 C19.371337,25.7500167 19.8750167,25.246337 19.8750167,24.6250167 C19.8750167,24.0036964 19.371337,23.5000167 18.7500167,23.5000167 C18.1286964,23.5000167 17.6250167,24.0036964 17.6250167,24.6250167 C17.6250167,25.246337 18.1286964,25.7500167 18.7500167,25.7500167 Z M19.5000083,13.0000083 L18.3750167,13.0000083 C17.4793003,12.9980195 16.619695,13.3529575 15.9863262,13.9863262 C15.3529575,14.619695 14.9980195,15.4793003 15.0000083,16.3750167 L15.0000083,16.7500167 L16.5000083,16.7500167 L16.5000083,16.3750167 C16.5000083,15.3394828 17.3394828,14.5000083 18.3750167,14.5000083 L19.5000083,14.5000083 C20.5355506,14.5000083 21.3750167,15.3394828 21.3750167,16.3750167 C21.3750167,17.4105506 20.5355506,18.2500167 19.5000083,18.2500167 L18.0000083,18.2500167 L18.0000083,21.6250167 L19.5000083,21.6250167 L19.5000083,19.7500167 C21.3639777,19.7500167 22.8750167,18.2389777 22.8750167,16.3750167 C22.8750167,14.5110557 21.3639777,13.0000083 19.5000083,13.0000083 Z" fill="#000000"></path>
    </g>
</svg>