<?xml version="1.0" encoding="UTF-8"?>
<svg width="38px" height="38px" viewBox="0 0 38 38" version="1.1" xmlns="http://www.w3.org/2000/svg" xmlns:xlink="http://www.w3.org/1999/xlink">
    <title>Lifesaver pt1</title>
    <g stroke="none" stroke-width="1" fill="none" fill-rule="evenodd">
        <g transform="translate(0.000000, 1.000000)">
            <g transform="translate(1.000000, 0.000000)" fill="#FFFFFF" stroke="#000000" stroke-width="0.5">
                <path d="M18,0.25 C22.9015272,0.25 27.3390272,2.23673642 30.5511454,5.44885463 C33.7632636,8.66097285 35.75,13.0984728 35.75,18 C35.75,22.9015272 33.7632636,27.3390272 30.5511454,30.5511454 C27.3390272,33.7632636 22.9015272,35.75 18,35.75 C13.0984728,35.75 8.66097285,33.7632636 5.44885463,30.5511454 C2.23673642,27.3390272 0.25,22.9015272 0.25,18 C0.25,13.0984728 2.23673642,8.66097285 5.44885463,5.44885463 C8.66097285,2.23673642 13.0984728,0.25 18,0.25 Z M18,6.75 C14.8933983,6.75 12.0808983,8.00919914 10.0450487,10.0450487 C8.00919914,12.0808983 6.75,14.8933983 6.75,18 C6.75,21.1066017 8.00919914,23.9191017 10.0450487,25.9549513 C12.0808983,27.9908009 14.8933983,29.25 18,29.25 C21.1066017,29.25 23.9191017,27.9908009 25.9549513,25.9549513 C27.9908009,23.9191017 29.25,21.1066017 29.25,18 C29.25,14.8933983 27.9908009,12.0808983 25.9549513,10.0450487 C23.9191017,8.00919914 21.1066017,6.75 18,6.75 Z"></path>
            </g>
            <path d="M27.4852814,23.6568542 L33.1421356,29.3137085 L30.3137085,32.1421356 L24.6568542,26.4852814 L27.4852814,23.6568542 Z M10.5147186,23.6568542 L13.3431458,26.4852814 L7.6862915,32.1421356 L4.85786438,29.3137085 L10.5147186,23.6568542 Z M30.3137085,3.85786438 L33.1421356,6.6862915 L27.4852814,12.3431458 L24.6568542,9.51471863 L30.3137085,3.85786438 Z M7.6862915,3.85786438 L13.3431458,9.51471863 L10.5147186,12.3431458 L4.85786438,6.6862915 L7.6862915,3.85786438 Z" fill="#56F24B"></path>
            <g transform="translate(0.500000, 15.000000)">
                <g transform="translate(18.500000, 3.000000) rotate(-270.000000) translate(-18.500000, -3.000000) translate(16.000000, -15.000000)"></g>
            </g>
        </g>
    </g>
</svg>