<?xml version="1.0" encoding="utf-8"?>
<!-- Generator: Adobe Illustrator 22.1.0, SVG Export Plug-In . SVG Version: 6.00 Build 0)  -->
<svg version="1.1" id="Layer_1" xmlns="http://www.w3.org/2000/svg" xmlns:xlink="http://www.w3.org/1999/xlink" x="0px" y="0px"
	 viewBox="0 0 24 24" style="enable-background:new 0 0 24 24;" xml:space="preserve">
<style type="text/css">
	.st0{fill:#A3A3A3;}
	.st1{fill:#889AAB;}
	.st2{fill:#FF0000;}
	.st3{fill:#FFA200;}
	.st4{fill:#35A6FF;}
	.st5{fill:#7D00A8;}
</style>
<g>
	<path class="st3" d="M10,3C8.3,3,7,4.3,7,6h2c0-0.6,0.4-1,1-1s1,0.4,1,1s-0.4,1-1,1H9v3h2V8.8c1.2-0.4,2-1.5,2-2.8
		C13,4.3,11.7,3,10,3z"/>
	<circle class="st3" cx="10" cy="12" r="1"/>
	<path class="st3" d="M21,5h-1V3c0-1.7-1.3-3-3-3H3C1.3,0,0,1.3,0,3v15c0,0.4,0.2,0.8,0.6,0.9C0.7,19,0.9,19,1,19
		c0.3,0,0.5-0.1,0.7-0.3L4,16.4V18c0,1.7,1.3,3,3,3h12.6l2.7,2.7c0.2,0.2,0.4,0.3,0.7,0.3c0.1,0,0.3,0,0.4-0.1
		c0.4-0.2,0.6-0.5,0.6-0.9V8C24,6.3,22.7,5,21,5z M4,14c-0.3,0-0.5,0.1-0.7,0.3L2,15.6V3c0-0.6,0.4-1,1-1h14c0.6,0,1,0.4,1,1v10
		c0,0.6-0.4,1-1,1H4z M22,20.6l-1.3-1.3C20.5,19.1,20.3,19,20,19H7c-0.6,0-1-0.4-1-1v-2h11c1.7,0,3-1.3,3-3V7h1c0.6,0,1,0.4,1,1
		V20.6z"/>
</g>
</svg>
