<?xml version="1.0" encoding="utf-8"?>
<!-- Generator: Adobe Illustrator 22.1.0, SVG Export Plug-In . SVG Version: 6.00 Build 0)  -->
<svg version="1.1" id="Layer_1" xmlns="http://www.w3.org/2000/svg" xmlns:xlink="http://www.w3.org/1999/xlink" x="0px" y="0px"
	 viewBox="0 0 110 120" style="enable-background:new 0 0 110 120;" xml:space="preserve">
<style type="text/css">
	.st0{fill:#ECF9FC;}
	.st1{fill:#90B8D3;}
	.st2{fill:#E2DED9;}
	.st3{fill:#F5F3EF;}
	.st4{fill:#A9CFEF;}
	.st5{fill:#CECCC8;}
	.st6{fill:#4C6472;}
	.st7{fill:#FF9AC1;}
	.st8{fill:#79A1B7;}
	.st9{fill:#CCE3F2;}
	.st10{fill:#E079A3;}
	.st11{fill:#EDCFA4;}
	.st12{fill:#F9E1BB;}
	.st13{fill:#FCF1E0;}
	.st14{fill:#FFFFFF;}
	.st15{fill:#92C161;}
	.st16{fill:#AFE67B;}
	.st17{fill:#7FA8BF;}
	.st18{fill:#F9F3EA;}
	.st19{fill:#F9E5C5;}
	.st20{fill:#EFD3AB;}
	.st21{fill:#AACCE0;}
	.st22{fill:#C6E0F4;}
	.st23{fill:#EDD3AE;}
	.st24{fill:#C4C0BC;}
	.st25{fill:#DBD8D1;}
	.st26{fill:#80B3CE;}
	.st27{fill:#EFDFCA;}
	.st28{fill:#E5C79C;}
	.st29{fill:#B7B6B6;}
	.st30{fill:#7DAAC9;}
	.st31{fill:#F9F7BB;}
	.st32{fill:#EAE1AC;}
	.st33{fill:#FFFBD2;}
	.st34{fill:#4D6472;}
	.st35{fill:#D8B891;}
	.st36{fill:#DDB98E;}
	.st37{fill:#BCBBBB;}
	.st38{fill:#E0DDDA;}
	.st39{fill:#6E98AF;}
	.st40{fill:#80A6BA;}
	.st41{fill:#FF7EAE;}
	.st42{fill:#90BFE0;}
</style>
<g>
	<circle class="st33" cx="55" cy="55" r="55"/>
	<g>
		<path class="st31" d="M55,21.6c-17.3,0-31.4,14.1-31.4,31.4c0,5.9,1.7,11.7,4.9,16.8c0.4,0.7,0.8,1.3,1.3,2
			c9.3,11.7,13.4,23.9,13.5,24.4l0,0.1l0.1,0.4c0.1,0.1,0.1,0.2,0.3,0.2l0.5,0.3c0.2,0.1,0.5,0.2,0.7,0.3c0.1,0.1,0.3,0.1,0.4,0.1
			c0.2,0.1,0.5,0.2,0.7,0.3l0.4,0.1c0.3,0.1,0.5,0.2,0.8,0.2l0.4,0.1c0.4,0.1,0.8,0.2,1.2,0.2c0.1,0,0.1,0,0.2,0l0.1,0
			c0.2,0,0.3,0.1,0.5,0.1c1.5,0.2,3.3,0.4,5.3,0.4c2.1,0,3.9-0.2,5.4-0.4c0.1,0,0.3,0,0.4-0.1l0.2,0c0.1,0,0.1,0,0.2,0
			c0.4-0.1,0.8-0.2,1.2-0.3l0.4-0.1c0.3-0.1,0.6-0.1,0.8-0.2L64,98c0.2-0.1,0.5-0.2,0.7-0.3l0.4-0.1c0.3-0.1,0.5-0.2,0.7-0.3
			l0.1-0.1l0.3-0.2c0.2-0.1,0.3-0.2,0.4-0.3l0.1-0.5c0.2-0.5,4.2-12.8,13.5-24.4c0.5-0.6,0.9-1.2,1.2-1.8l0,0
			c3.2-5.1,4.9-10.9,4.9-16.9C86.4,35.7,72.3,21.6,55,21.6z"/>
		<path class="st34" d="M55,20.1c-18.1,0-32.9,14.8-32.9,32.9c0,6.2,1.8,12.3,5.1,17.5c0.4,0.8,0.9,1.4,1.4,2.2
			c9,11.2,12.9,22.9,13.3,23.9l0.1,0.4c0.1,0.4,0.4,0.8,1,1.2v11.8l0,0.1c0.1,0.9,1.6,1.9,4,2.5c0.6,4.1,4.2,7.3,8.4,7.3
			c4.3,0,7.9-3.3,8.5-7.5c2-0.7,3.2-1.5,3.3-2.3l0-11.9c0.6-0.4,0.9-0.8,1-1.2l0.1-0.4c0.3-1,4.3-12.7,13.3-23.9
			c0.6-0.7,1-1.4,1.4-2c3.4-5.3,5.2-11.4,5.2-17.6C87.9,34.9,73.1,20.1,55,20.1z M55.3,118.5c-3.3,0-6.1-2.3-6.8-5.4
			c1.8,0.4,4,0.6,6.5,0.6c2.8,0,5.2-0.3,7.2-0.8C61.5,116.1,58.7,118.5,55.3,118.5z M65.6,109.9c-0.5,0.6-3.9,2.4-10.6,2.4
			c-6.7,0-10.1-1.8-10.6-2.4V99.1c1.1,0.4,2.4,0.8,4.1,1.1c0.1,0,0.1,0,0.2,0l0.2,0c0.4,0.1,0.8,0.1,1.2,0.2l0.5,0.1
			c0.3,0,0.6,0.1,1,0.1l0.5,0c0.3,0,0.7,0,1,0.1l0.5,0c1,0,2,0,2.9,0l0.5,0c0.3,0,0.7,0,1-0.1l0.5,0c0.3,0,0.6-0.1,1-0.1l0.5-0.1
			c0.4-0.1,0.8-0.1,1.3-0.2l0.2,0c0.1,0,0.1,0,0.2,0c1.6-0.3,3-0.7,4-1.1V109.9z M81.5,69.9L81.5,69.9c-0.3,0.6-0.8,1.2-1.3,1.9
			c-9.3,11.7-13.4,23.9-13.5,24.4l-0.1,0.5c-0.1,0.1-0.2,0.2-0.4,0.3l-0.3,0.2l-0.1,0.1c-0.2,0.1-0.5,0.2-0.7,0.3l-0.4,0.1
			c-0.2,0.1-0.5,0.2-0.7,0.3l-0.4,0.1c-0.3,0.1-0.5,0.2-0.8,0.2l-0.4,0.1c-0.4,0.1-0.8,0.2-1.2,0.3c-0.1,0-0.1,0-0.2,0l-0.2,0
			c-0.1,0-0.3,0-0.4,0.1c-1.5,0.2-3.3,0.4-5.4,0.4c-2.1,0-3.8-0.2-5.3-0.4c-0.2,0-0.3,0-0.5-0.1l-0.1,0c-0.1,0-0.1,0-0.2,0
			c-0.4-0.1-0.8-0.2-1.2-0.2l-0.4-0.1c-0.3-0.1-0.6-0.1-0.8-0.2L46,98c-0.2-0.1-0.5-0.2-0.7-0.3c-0.1,0-0.3-0.1-0.4-0.1
			c-0.3-0.1-0.5-0.2-0.7-0.3L43.7,97c-0.1-0.1-0.2-0.2-0.3-0.2l-0.1-0.4l0-0.1c-0.2-0.5-4.2-12.8-13.5-24.4c-0.5-0.6-0.9-1.2-1.3-2
			c-3.2-5-4.9-10.8-4.9-16.8c0-17.3,14.1-31.4,31.4-31.4S86.4,35.7,86.4,53C86.4,59,84.7,64.8,81.5,69.9z"/>
		<path class="st32" d="M51.8,77.8c0,0,6.4,4.3,7.7,21.2c0.3,0,0.6-0.1,0.9-0.1c0.1,0,0.3,0,0.4-0.1l0.2,0c0.1,0,0.1,0,0.2,0
			c0.4-0.1,0.8-0.2,1.2-0.3l0.4-0.1c0.3-0.1,0.6-0.1,0.8-0.2L64,98c0.2-0.1,0.5-0.2,0.7-0.3l0.4-0.1c0.3-0.1,0.5-0.2,0.7-0.3
			l0.1-0.1l0.3-0.2c0.2-0.1,0.3-0.2,0.4-0.3l0.1-0.5c0.2-0.5,4.2-12.8,13.5-24.4c0.5-0.6,0.9-1.2,1.2-1.8l0,0
			c3.2-5.1,4.9-10.9,4.9-16.9c0-3.1-0.5-6-1.3-8.9C83.5,50.7,75.4,77.8,51.8,77.8z"/>
		<path class="st4" d="M55.3,118.5c3.4,0,6.2-2.4,6.9-5.5c-2,0.5-4.4,0.8-7.2,0.8c-2.4,0-4.6-0.2-6.5-0.6
			C49.3,116.2,52,118.5,55.3,118.5z"/>
		<path class="st4" d="M65.6,109.9V99.1c-1.1,0.4-2.4,0.8-4,1.1c-0.1,0-0.1,0-0.2,0l-0.2,0c-0.5,0.1-0.9,0.1-1.3,0.2l-0.5,0.1
			c-0.3,0-0.6,0.1-1,0.1l-0.5,0c-0.3,0-0.7,0-1,0.1l-0.5,0c-1,0-2,0-2.9,0l-0.5,0c-0.3,0-0.7,0-1-0.1l-0.5,0c-0.3,0-0.7-0.1-1-0.1
			l-0.5-0.1c-0.4-0.1-0.8-0.1-1.2-0.2l-0.2,0c-0.1,0-0.1,0-0.2,0c-1.6-0.3-3-0.7-4.1-1.1v10.9c0.5,0.6,3.9,2.4,10.6,2.4
			C61.7,112.3,65.1,110.5,65.6,109.9z"/>
	</g>
</g>
</svg>
