<?xml version="1.0" encoding="UTF-8"?>
<svg width="14px" height="12px" viewBox="0 0 14 12" version="1.1" xmlns="http://www.w3.org/2000/svg" xmlns:xlink="http://www.w3.org/1999/xlink">
    <title>Icons/24px/General/explore Copy</title>
    <g id="Symbols" stroke="none" stroke-width="1" fill="none" fill-rule="evenodd">
        <g id="Icons/24px/General/explore" transform="translate(-1.000000, -2.000000)" fill="#FFFFFF">
            <path d="M14,4 L14,2.5 C14,2.22385763 13.7761424,2 13.5,2 L10.5,2 C10.2238576,2 10,2.22385763 10,2.5 L10,4 C9.44771525,4 9,4.44771525 9,5 L9,6 L7,6 L7,5 C7,4.44771525 6.55228475,4 6,4 L6,2.5 C6,2.22385763 5.77614237,2 5.5,2 L2.5,2 C2.22385763,2 2,2.22385763 2,2.5 L2,4 C1.44771525,4 1,4.44771525 1,5 L1,11 C1.00214346,11.3551111 1.19245546,11.6824477 1.5,11.86 L1.5,13.5 C1.5,13.7761424 1.72385763,14 2,14 L6,14 C6.27614237,14 6.5,13.7761424 6.5,13.5 L6.5,11.86 C6.80754454,11.6824477 6.99785654,11.3551111 7,11 L7,10 L9,10 L9,11 C9.00214346,11.3551111 9.19245546,11.6824477 9.5,11.86 L9.5,13.5 C9.5,13.7761424 9.72385763,14 10,14 L14,14 C14.2761424,14 14.5,13.7761424 14.5,13.5 L14.5,11.86 C14.8075445,11.6824477 14.9978565,11.3551111 15,11 L15,5 C15,4.44771525 14.5522847,4 14,4 Z M5.5,13 L2.5,13 L2.5,12 L5.5,12 L5.5,13 Z M6,11 L2,11 L2,5 L3,5 L3,3 L5,3 L5,5 L6,5 L6,11 Z M7,9 L7,7 L9,7 L9,9 L7,9 Z M13.5,13 L10.5,13 L10.5,12 L13.5,12 L13.5,13 Z M14,11 L10,11 L10,5 L11,5 L11,3 L13,3 L13,5 L14,5 L14,11 Z" id="Fill"></path>
        </g>
    </g>
</svg>