<?xml version="1.0" encoding="utf-8"?>
<!-- Generator: Adobe Illustrator 22.1.0, SVG Export Plug-In . SVG Version: 6.00 Build 0)  -->
<svg version="1.1" id="Layer_1" xmlns="http://www.w3.org/2000/svg" xmlns:xlink="http://www.w3.org/1999/xlink" x="0px" y="0px"
	 viewBox="0 0 109 82" style="enable-background:new 0 0 109 82;" xml:space="preserve">
<style type="text/css">
	.st0{fill:#F2F2F2;}
	.st1{filter:url(#Adobe_OpacityMaskFilter);}
	.st2{fill:#FFFFFF;}
	.st3{mask:url(#mask-6_1_);fill:#EAEAEA;}
	.st4{fill:none;}
	.st5{fill:#EAEAEA;}
</style>
<title>Group 24</title>
<desc>Created with Sketch.</desc>
<g id="Clip-4">
</g>
<g id="Clip-9">
</g>
<circle class="st0" cx="80.1" cy="62.6" r="5"/>
<path class="st0" d="M11.1,66.2c-2.8,0-5,2.2-5,5c0,2.7,2.2,5,4.9,5c0,0,0.1,0,0.1,0c2.8,0,5-2.2,5-5C16.1,68.4,13.8,66.2,11.1,66.2
	z"/>
<g id="Group-21" transform="translate(0.000000, 0.150400)">
	<g id="Clip-20">
	</g>
	<defs>
		<filter id="Adobe_OpacityMaskFilter" filterUnits="userSpaceOnUse" x="0" y="-0.2" width="107.7" height="73.9">
			<feColorMatrix  type="matrix" values="1 0 0 0 0  0 1 0 0 0  0 0 1 0 0  0 0 0 1 0"/>
		</filter>
	</defs>
	<mask maskUnits="userSpaceOnUse" x="0" y="-0.2" width="107.7" height="73.9" id="mask-6_1_">
		<g class="st1">
			<polygon id="path-5_1_" class="st2" points="0,-0.1 107.7,-0.1 107.7,73.8 0,73.8 			"/>
		</g>
	</mask>
	<path id="Fill-19" class="st3" d="M100,41.7c-1.6,0-3.2-0.8-4.1-2.2c-0.6-0.8-0.9-1.8-0.9-2.8c0-2.8,2.2-5,5-5c2.8,0,5,2.2,5,5
		C105.1,39.5,102.8,41.8,100,41.7L100,41.7z M50.3,70.9c-2.8,0-5-2.2-5-4.9c0-2.8,2.2-5,4.9-5c2.8,0,5,2.2,5.1,5c0,0,0,0,0,0
		C55.3,68.7,53.1,70.9,50.3,70.9z M43.2,31.8c2.8,0,5,2.2,5,5s-2.2,5-5,5c-2.8,0-5-2.2-5-5S40.5,31.8,43.2,31.8z M50.3,12.5
		c-2.8,0-5-2.2-5-4.9c0-2.8,2.2-5,5-5.1c2.8,0,5,2.2,5,4.9c0,0,0,0.1,0,0.1C55.3,10.3,53.1,12.5,50.3,12.5z M23.7,27.9
		c-2.8,0-5-2.2-5-5c0-2.8,2.2-5,5-5c2.8,0,5,2.2,5,5C28.7,25.7,26.5,27.9,23.7,27.9z M100,29c-2.1,0-4.1,0.9-5.6,2.4L57.6,10.2
		c0.3-0.8,0.5-1.7,0.5-2.6c0-4.3-3.5-7.7-7.7-7.7c-4.3,0-7.7,3.5-7.7,7.7v0c0,0.9,0.2,1.8,0.5,2.6L29.6,18
		c-2.8-3.2-7.7-3.6-10.9-0.9c-3.2,2.8-3.6,7.7-0.9,10.9c2.8,3.2,7.6,3.6,10.9,0.9c1.7-1.5,2.7-3.6,2.7-5.9c0-0.9-0.2-1.8-0.5-2.6
		l13.5-7.8c2.8,3.3,7.6,3.7,10.9,0.9c0.3-0.3,0.6-0.6,0.9-0.9l36.6,21.1c-0.8,1.9-0.8,4.2,0,6.1L56.2,61c-2.7-3.2-7.6-3.7-10.9-0.9
		c-0.3,0.3-0.6,0.6-0.9,0.9L5,38.2h30.6c0.8,4.2,4.8,7,9,6.2c4.2-0.8,7-4.8,6.2-9c-0.8-4.2-4.8-7-9-6.2c-3.2,0.6-5.6,3.1-6.2,6.2H0
		v3.1l43.1,24.9c-1.5,4,0.6,8.5,4.7,9.9c4,1.5,8.5-0.6,9.9-4.7c0.6-1.7,0.6-3.6,0-5.3l36.8-21.2c3,3.1,7.9,3.1,10.9,0.1
		c3.1-3,3.1-7.9,0.1-10.9C104,29.9,102.1,29,100,29z"/>
</g>
<path id="Fill-22" class="st0" d="M100,41.9c-1.6,0-3.2-0.8-4.1-2.2c-0.6-0.8-0.9-1.8-0.9-2.8c0-2.8,2.2-5,5-5c2.8,0,5,2.2,5,5
	C105.1,39.7,102.8,41.9,100,41.9L100,41.9z M50.3,71.1c-2.8,0-5-2.2-5-4.9c0-2.8,2.2-5,4.9-5c2.8,0,5,2.2,5.1,4.9c0,0,0,0,0,0
	C55.3,68.8,53.1,71.1,50.3,71.1z M43.2,32c2.8,0,5,2.2,5,5c0,2.8-2.2,5-5,5c-2.8,0-5-2.2-5-5C38.2,34.2,40.5,32,43.2,32z M50.3,12.7
	c-2.8,0-5-2.2-5-5c0-2.8,2.2-5,5-5c2.8,0,5,2.2,5,5c0,0,0,0.1,0,0.1C55.3,10.5,53.1,12.7,50.3,12.7z M23.7,28.1c-2.8,0-5-2.2-5-5
	c0-2.8,2.2-5,5-5c2.8,0,5,2.2,5,5C28.7,25.8,26.5,28.1,23.7,28.1z"/>
<g>
	<path class="st4" d="M24.7,78.6v-12L1.2,53v29h8.5v-3.2c-3.2-0.6-5.6-3.1-6.2-6.2c-0.8-4.2,2-8.2,6.2-9c4.2-0.8,8.2,2,9,6.2
		c0.8,4.2-2,8.2-6.2,9V82h6.9C20.5,80.2,22.4,78.9,24.7,78.6z"/>
	<circle class="st4" cx="80.1" cy="62.6" r="5"/>
	<path class="st4" d="M99.5,77.8V53l-12.1,7c1.1,3.1,0.2,6.5-2.3,8.6c-3.3,2.7-8.2,2.3-10.9-1l-16.1,9.3V82h14.3
		c-0.2-3.9,2.4-7.4,6.3-8.1c4.2-0.8,8.2,2,9,6.2c0.1,0.6,0.1,1.2,0.1,1.9H94C95,79.9,97,78.2,99.5,77.8z"/>
	<path class="st4" d="M16.1,71.2c0-2.8-2.2-5-5-5c-2.8,0-5,2.2-5,5c0,2.7,2.2,5,4.9,5c0,0,0.1,0,0.1,0
		C13.8,76.2,16.1,73.9,16.1,71.2z"/>
	<path class="st0" d="M80.2,76.6c-2.7,0-5,2.2-5,4.9c0,0.2,0,0.3,0.1,0.5H85c0-0.1,0-0.3,0-0.4C85.1,78.9,82.9,76.6,80.2,76.6z"/>
	<path class="st5" d="M87.7,80.1c-0.8-4.2-4.8-7-9-6.2c-3.9,0.7-6.6,4.2-6.3,8.1h2.8c0-0.2-0.1-0.3-0.1-0.5c0-2.7,2.3-4.9,5-4.9
		c2.7,0,4.9,2.3,4.9,5c0,0.1,0,0.3,0,0.4h2.8C87.9,81.4,87.9,80.8,87.7,80.1z"/>
	<path class="st5" d="M58.1,76.9l16.1-9.3c2.7,3.3,7.6,3.7,10.9,1c2.5-2.1,3.4-5.5,2.3-8.6l12.1-7v24.8C97,78.2,95,79.9,94,82h3.3
		c0.9-1,2.2-1.7,3.7-1.7c1.5,0,2.8,0.6,3.7,1.7h3.2c-1.1-2.2-3.1-3.8-5.5-4.2V50.6c0-0.8-0.6-1.4-1.4-1.4c-0.2,0-0.5,0.1-0.7,0.2
		L86,57.6c-2.8-3.2-7.7-3.6-10.9-0.8c-1.7,1.5-2.7,3.6-2.7,5.8c0,0.9,0.1,1.7,0.4,2.5L56,74.9c-0.4,0.2-0.7,0.7-0.7,1.2V82h2.8V76.9
		z M80.1,57.6c2.8,0,5,2.2,5,5c0,2.8-2.2,5-5,5c-2.8,0-5-2.2-5-5C75.1,59.8,77.4,57.6,80.1,57.6z"/>
	<path class="st5" d="M18.6,69.7c-0.8-4.2-4.8-7-9-6.2c-4.2,0.8-7,4.8-6.2,9c0.6,3.2,3.1,5.6,6.2,6.2V82h2.8v-3.2
		C16.6,78,19.4,74,18.6,69.7z M11,76.2c-2.7,0-4.9-2.3-4.9-5c0-2.8,2.2-5,5-5c2.8,0,5,2.2,5,5C16.1,73.9,13.8,76.2,11,76.2
		C11.1,76.2,11,76.2,11,76.2z"/>
	<path class="st5" d="M1.2,53l23.5,13.6v12c-2.3,0.3-4.2,1.6-5.4,3.4h3.7c0.8-0.5,1.7-0.8,2.6-0.8h0c1,0,1.9,0.3,2.7,0.8h3.8
		c-1.1-1.7-2.8-2.9-4.8-3.3V65.8c0-0.5-0.3-1-0.7-1.2L0.5,49.4c-0.1-0.1-0.3-0.2-0.5-0.2V82h1.2V53z"/>
	<path class="st0" d="M100.9,80.3c-1.5,0-2.8,0.6-3.7,1.7h7.4C103.7,81,102.4,80.3,100.9,80.3z"/>
	<path class="st0" d="M25.7,81.2c-1,0-1.9,0.3-2.6,0.8h5.4C27.7,81.5,26.8,81.2,25.7,81.2L25.7,81.2z"/>
</g>
</svg>
