<?xml version="1.0" encoding="UTF-8"?>
<svg width="18px" height="18px" viewBox="0 0 18 18" version="1.1" xmlns="http://www.w3.org/2000/svg" xmlns:xlink="http://www.w3.org/1999/xlink">
    <title>Icons/status icons color 24px/icon status info</title>
    <g id="Symbols" stroke="none" stroke-width="1" fill="none" fill-rule="evenodd">
        <g id="Group" transform="translate(-3.000000, -3.000000)">
            <circle id="status__background" fill="#7F7F7F" cx="12" cy="12" r="9"></circle>
            <path d="M13.5478516,6.86132812 C13.5478516,7.25195508 13.4095066,7.5856106 13.1328125,7.86230469 C12.8561184,8.13899878 12.5224629,8.27734375 12.1318359,8.27734375 C11.7477194,8.27734375 11.4140639,8.1357436 11.1308594,7.85253906 C10.8476548,7.56933452 10.7060547,7.23893418 10.7060547,6.86132812 C10.7060547,6.47070117 10.8460272,6.13541807 11.1259766,5.85546875 C11.4059259,5.57551943 11.741209,5.43554688 12.1318359,5.43554688 C12.5289733,5.43554688 12.8642564,5.57226426 13.1376953,5.84570312 C13.4111342,6.11914199 13.5478516,6.45768027 13.5478516,6.86132812 Z M14.6513672,18 L9.34863281,18 L9.34863281,17.1015625 L9.63183594,17.1015625 C10.009442,17.1015625 10.2845043,17.0494797 10.4570312,16.9453125 C10.6295582,16.8411453 10.7353514,16.6946624 10.7744141,16.5058594 C10.8134768,16.3170563 10.8330078,16.0403664 10.8330078,15.6757812 L10.8330078,12.7753906 C10.8330078,12.3717428 10.808594,12.0852873 10.7597656,11.9160156 C10.7109373,11.7467439 10.5839854,11.6230473 10.3789062,11.5449219 C10.1738271,11.4667965 9.83040605,11.4244792 9.34863281,11.4179688 L9.34863281,10.5195312 L13.3525391,9.6796875 L13.3525391,15.6757812 C13.3525391,16.222659 13.4208978,16.5970042 13.5576172,16.7988281 C13.6943366,17.0006521 14.0589163,17.1015625 14.6513672,17.1015625 L14.6513672,18 Z" id="i" fill="#FFFFFF"></path>
        </g>
    </g>
</svg>
