<?xml version="1.0" encoding="UTF-8"?>
<svg width="17px" height="20px" viewBox="0 0 17 20" version="1.1" xmlns="http://www.w3.org/2000/svg" xmlns:xlink="http://www.w3.org/1999/xlink">
    <title>Icons/24px/Actions/overwrite</title>
    <g id="Symbols" stroke="none" stroke-width="1" fill="none" fill-rule="evenodd">
        <g id="Format-Unit-Block" transform="translate(-389.000000, -45.000000)" fill="#000000">
            <g id="Group-8" transform="translate(13.000000, 8.000000)">
                <g id="Overwrite-button" transform="translate(368.000000, 30.000000)">
                    <g id="Icons/24px/Actions/overwrite" transform="translate(8.470588, 7.138961)">
                        <g id="Icons/24px/Actions/reset" transform="translate(5.073908, 0.000000)">
                            <path d="M11.7280426,6.73578393 C11.6625202,4.73833907 11.4116035,3.44145207 10.9752925,2.84512295 C9.65288128,1.03771407 7.9589144,0.801950472 6.66543364,0.801950472 C3.35354501,0.801950472 1.69667654,3.42720592 1.69667654,6.73578393 L1.69667654,9.83098431 L-0.10233491,8.03377119 L-0.801950472,8.7326874 L2.19640194,11.7280426 L4.92619027,9.05092901 L4.2265747,8.35201279 L2.69612734,9.83098431 L2.69612734,6.73578393 C2.69612734,3.97863559 3.90461946,1.80040221 6.66543364,1.80040221 C7.82075365,1.80040221 9.32293653,2.05558597 10.0951505,3.3519956 C10.4004849,3.86459782 10.57577,4.61973886 10.6210057,5.61741873 L11.7280426,6.73578393 Z" id="Fill" transform="translate(5.463046, 6.264997) rotate(90.000000) translate(-5.463046, -6.264997) "></path>
                        </g>
                        <g id="Icons/24px/Actions/edit" transform="translate(0.000000, 5.005868)">
                            <path d="M0,13.4361748 L15.296529,13.4361748 L15.296529,14.5112161 L0,14.5112161 L0,13.4361748 Z M12.7889909,3.76080276 C12.9941578,3.55915913 13.1094386,3.28553693 13.1094386,3.00021102 C13.1094386,2.7148851 12.9941578,2.4412629 12.7889909,2.23961927 L10.8332204,0.315295279 C10.6282816,0.113427196 10.3501879,0 10.0601993,0 C9.77021075,0 9.49211713,0.113427196 9.28717832,0.315295279 L1.09260921,8.3781053 L1.09260921,11.8236128 L4.59442175,11.8236128 L12.7889909,3.76080276 Z M10.0574678,1.07319942 L12.0187014,3.00289862 L10.3797875,4.61546062 L8.418554,2.68576143 L10.0574678,1.07319942 Z M2.18521843,10.7485714 L2.18521843,8.81887225 L7.6482645,3.44366557 L9.60949804,5.37336477 L4.14645197,10.7485714 L2.18521843,10.7485714 Z" id="Fill"></path>
                        </g>
                    </g>
                </g>
            </g>
        </g>
    </g>
</svg>
