<svg xmlns="http://www.w3.org/2000/svg" width="14" height="13" viewBox="0 0 14 13">
    <path fill="#5E687C" fill-rule="evenodd" d="M6.5 3c0-.417-.146-.77-.438-1.063A1.447 1.447 0 0 0 5 1.5c-.417 0-.77.146-1.063.438A1.447 1.447 0 0 0 3.5 3c0 .219.05.435.148.648A1.529 1.529 0 0 0 3 3.5c-.417 0-.77.146-1.063.438A1.447 1.447 0 0 0 1.5 5c0 .417.146.77.438 1.063.291.291.645.437 1.062.437.417 0 .77-.146 1.063-.438.291-.291.437-.645.437-1.062 0-.219-.05-.435-.148-.648.213.099.43.148.648.148.417 0 .77-.146 1.063-.438.291-.291.437-.645.437-1.062zm6.648 5.5c0 .089-.127.26-.382.516-.256.255-.427.382-.516.382-.047 0-.121-.041-.223-.125a3.913 3.913 0 0 1-.285-.257 13.047 13.047 0 0 1-.3-.313L11.25 8.5l-.75.75 1.719 1.719a.723.723 0 0 1 .219.531c0 .219-.102.43-.305.633s-.414.305-.633.305a.723.723 0 0 1-.531-.22L5.727 6.978C4.81 7.659 3.859 8 2.875 8c-.849 0-1.54-.267-2.074-.8C.267 6.664 0 5.973 0 5.124c0-.833.247-1.648.742-2.445A5.938 5.938 0 0 1 2.68.742C3.477.247 4.292 0 5.125 0c.849 0 1.54.267 2.074.8.534.535.801 1.226.801 2.075 0 .984-.341 1.935-1.023 2.852L9.75 8.5l.75-.75c-.016-.016-.083-.08-.203-.191-.12-.112-.224-.213-.313-.301a3.913 3.913 0 0 1-.257-.285c-.084-.102-.125-.176-.125-.223 0-.089.127-.26.382-.516.256-.255.427-.382.516-.382.068 0 .128.026.18.078a126.498 126.498 0 0 1 1 .969c.218.213.444.437.675.671.232.235.422.438.57.61.15.172.223.278.223.32z"/>
</svg>
