<?xml version="1.0" encoding="UTF-8"?>
<svg width="24px" height="24px" viewBox="0 0 24 24" version="1.1" xmlns="http://www.w3.org/2000/svg" xmlns:xlink="http://www.w3.org/1999/xlink">
    <title>Kpi Icon 2</title>
    <g id="Kpi-Icon-2" stroke="none" stroke-width="1" fill="none" fill-rule="evenodd">
        <g id="Group-5">
            <rect id="Rectangle" fill="#8D27D6" x="0" y="0" width="24" height="24" rx="12"></rect>
            <g id="Icons/24px/Data/data-cluster" transform="translate(4.000000, 4.000000)" fill="#FFFFFF">
                <path d="M8,2 C11.3137085,2 14,4.6862915 14,8 C14,11.3137085 11.3137085,14 8,14 C4.6862915,14 2,11.3137085 2,8 C2,4.6862915 4.6862915,2 8,2 L8,2 Z M8,1 C4.13400675,1 1,4.13400675 1,8 C1,11.8659932 4.13400675,15 8,15 C11.8659932,15 15,11.8659932 15,8 C15,4.13400675 11.8659932,1 8,1 Z M11.5,5.205 L10.795,4.5 L8.645,6.65 C8.07138709,6.37604692 7.38738296,6.49340348 6.93789322,6.94289322 C6.48840348,7.39238296 6.37104692,8.07638709 6.645,8.65 L4.5,10.795 L5.205,11.5 L7.355,9.35 C7.92861291,9.62395308 8.61261704,9.50659652 9.06210678,9.05710678 C9.51159652,8.60761704 9.62895308,7.92361291 9.355,7.35 L11.5,5.205 Z M8.5,8 C8.5,8.27614237 8.27614237,8.5 8,8.5 C7.72385763,8.5 7.5,8.27614237 7.5,8 C7.5,7.72385763 7.72385763,7.5 8,7.5 C8.27614237,7.5 8.5,7.72385763 8.5,8 Z M8,4.5 C8.41421356,4.5 8.75,4.16421356 8.75,3.75 C8.75,3.33578644 8.41421356,3 8,3 C7.58578644,3 7.25,3.33578644 7.25,3.75 C7.25,4.16421356 7.58578644,4.5 8,4.5 Z" id="Fill"></path>
            </g>
        </g>
    </g>
</svg>