<?xml version="1.0" encoding="UTF-8" standalone="no"?>
<svg width="27px" height="30px" viewBox="0 0 27 30" version="1.1" xmlns="http://www.w3.org/2000/svg" xmlns:xlink="http://www.w3.org/1999/xlink">
    <!-- Generator: Sketch 41.2 (35397) - http://www.bohemiancoding.com/sketch -->
    <title>logo</title>
    <desc>Created with Sketch.</desc>
    <defs></defs>
    <g stroke="none" stroke-width="1" fill="none" fill-rule="evenodd">
        <g transform="translate(-1202.000000, -16.000000)" fill="#34A4D4">
            <g>
                <g transform="translate(1202.000000, 16.000000)">
                    <path d="M12.4894701,1.58199526 C12.8219398,1.39044642 13.2311688,1.39044642 13.5636421,1.58196192 L24.0757464,7.63597649 C24.409265,7.82804522 24.6148526,8.18370907 24.6148526,8.56862676 L24.6148526,20.668884 C24.6148526,21.0538615 24.4093021,21.4094441 24.075757,21.6015281 L13.5636954,27.6556208 C13.2312113,27.8470809 12.8218972,27.8470809 12.4894912,27.6556304 L1.97742823,21.6015369 C1.643868,21.4094441 1.43831753,21.0538615 1.43831753,20.668884 L1.43831753,8.56862676 C1.43831753,8.18370907 1.64390515,7.82804522 1.97741306,7.63598259 L12.4894701,1.58199526 Z M0,8.56862676 L0,20.668884 C0,21.5682808 0.480284149,22.3991263 1.25962329,22.847937 L11.7716545,28.9020123 C12.5483803,29.3493706 13.5046459,29.3493706 14.2814822,28.9020315 L24.793562,22.8479283 C25.572886,22.3991263 26.0531701,21.5682808 26.0531701,20.668884 L26.0531701,8.56862676 C26.0531701,7.66930112 25.5728586,6.83836867 24.7935468,6.38957368 L14.281511,0.335598558 C13.5046885,-0.111876535 12.5483377,-0.111876535 11.7715513,0.335660657 L1.25961269,6.38957979 C0.480311451,6.83836867 0,7.66930112 0,8.56862676 Z"></path>
                    <path d="M13.6568455,11.0175473 C14.5116171,11.0175473 15.046363,11.2947316 15.7299748,12.0430677 L17.2267496,10.5897506 C16.2007155,9.49991682 15.1535176,9.07212009 13.6568455,9.07212009 C11.2201301,9.07212009 8.82635882,10.5472175 8.82635882,14.608307 C8.82635882,18.6694993 11.2201301,20.1654523 13.6568455,20.1654523 C15.1535176,20.1654523 16.2007155,19.7166972 17.2267496,18.6265552 L15.7299748,17.1945047 C15.046363,17.9420188 14.5116171,18.2200251 13.6568455,18.2200251 C12.8233405,18.2200251 12.1183594,17.8789383 11.6475159,17.2579961 C11.1774943,16.6601697 11.0064373,15.8693005 11.0064373,14.608307 C11.0064373,13.3474162 11.1774943,12.5774027 11.6475159,11.9795762 C12.1183594,11.358634 12.8233405,11.0175473 13.6568455,11.0175473"></path>
                </g>
            </g>
        </g>
    </g>
</svg>