<?xml version="1.0" encoding="UTF-8"?>
<svg width="31px" height="35px" viewBox="0 0 31 35" version="1.1" xmlns="http://www.w3.org/2000/svg" xmlns:xlink="http://www.w3.org/1999/xlink">
    <!-- Generator: Sketch 45 (43475) - http://www.bohemiancoding.com/sketch -->
    <title>logo</title>
    <desc>Created with Sketch.</desc>
    <defs></defs>
    <g id="Page-1" stroke="none" stroke-width="1" fill="none" fill-rule="evenodd">
        <g id="logo" fill="#FFFFFF">
            <path d="M14.8636822,1.96605645 C15.2575576,1.73781686 15.7423695,1.73781686 16.1362493,1.96601673 L28.5898947,9.17966418 C28.9850127,9.40852324 29.2285714,9.83231371 29.2285714,10.2909615 L29.2285714,24.7089958 C29.2285714,25.1677149 28.9850567,25.5914086 28.5899072,25.8202858 L16.1363124,33.0340264 C15.7424199,33.2621603 15.2575072,33.2621603 14.8637072,33.0340377 L2.41011073,25.8202962 C2.01494334,25.5914086 1.77142857,25.1677149 1.77142857,24.7089958 L1.77142857,10.2909615 C1.77142857,9.83231371 2.01498735,9.40852324 2.41009275,9.17967145 L14.8636822,1.96605645 Z M0,10.2574295 L0,24.7425434 C0,25.8192036 0.571477811,26.8138016 1.4987935,27.3510691 L14.0067903,34.5983505 C14.9309964,35.1338793 16.0688324,35.1338793 16.99317,34.5983735 L29.5012246,27.3510586 C30.4285222,26.8138016 31,25.8192036 31,24.7425434 L31,10.2574295 C31,9.18085446 30.4284897,8.18615236 29.5012065,7.64890375 L16.9932042,0.401742149 C16.068883,-0.133926439 14.9309458,-0.133926439 14.0066675,0.401816487 L1.49878088,7.64891106 C0.571510296,8.18615236 0,9.18085446 0,10.2574295 Z" id="Stroke-1" fill-rule="nonzero"></path>
            <path d="M16.7503119,13.2797977 C17.7678497,13.2797977 18.4044224,13.6046232 19.2182081,14.4815796 L21,12.7784734 C19.7785877,11.5013243 18.5319815,11 16.7503119,11 C13.8495952,11 11,12.7286299 11,17.4877197 C11,22.2469299 13.8495952,24 16.7503119,24 C18.5319815,24 19.7785877,23.4741151 21,22.1966049 L19.2182081,20.5184204 C18.4044224,21.3944137 17.7678497,21.7202023 16.7503119,21.7202023 C15.7580902,21.7202023 14.918866,21.3204912 14.3583641,20.5928245 C13.7988406,19.8922466 13.5952107,18.9654467 13.5952107,17.4877197 C13.5952107,16.0101132 13.7988406,15.1077534 14.3583641,14.4071755 C14.918866,13.6795088 15.7580902,13.2797977 16.7503119,13.2797977" id="Fill-3"></path>
        </g>
    </g>
</svg>