<?xml version="1.0" encoding="UTF-8"?>
<svg width="48px" height="48px" viewBox="0 0 48 48" version="1.1" xmlns="http://www.w3.org/2000/svg" xmlns:xlink="http://www.w3.org/1999/xlink">
    <title>Avatars/avatar icons/user_Icon Copy 6</title>
    <g id="Page-1" stroke="none" stroke-width="1" fill="none" fill-rule="evenodd">
        <g id="permissionsfix" transform="translate(-545.000000, -1000.000000)">
            <g id="Avatars/avatar-icons/user_Icon-Copy-6" transform="translate(545.000000, 1000.000000)">
                <g id="icon__shape-2" opacity="0.2" fill="#56F24B">
                    <circle id="icon__shape" cx="24" cy="24" r="24"></circle>
                </g>
                <g id="Icons/24px/Menu/settings" transform="translate(12.000000, 12.000000)" fill="#51C300">
                    <path d="M15.3,2 C17.1,2 18.6,3.5 18.6,5.3 C18.6,5.5 18.5,5.8 18.5,6 C20.5,6.4 22,8.2 22,10.4 C22,11.7 21.4,12.9 20.6,13.8 C21.2,14.3 21.5,15 21.5,15.8 C21.5,17.4 20.2,18.7 18.6,18.7 L18.6,18.7 L18.6,18.8 C18.6,20.6 17.1,22.1 15.3,22.1 C13.5,22.1 12,20.6 12,18.8 L12,18.8 L12,5.3 C12,3.5 13.5,2 15.3,2 Z M8.5,17 C9.9,17 11,18.1 11,19.5 C11,20.9 9.9,22 8.5,22 C7.1,22 6,20.9 6,19.5 C6,18.1 7.1,17 8.5,17 Z M15.3,3.5 C14.3,3.5 13.5,4.3 13.5,5.3 L13.5,5.3 L13.5,18.8 C13.5,19.8 14.3,20.6 15.3,20.6 C16.3,20.6 17.1,19.8 17.1,18.9 L17.1,18.9 L17.1,18.8 C17.1,18.4 17.2,18 17.5,17.7 C17.8,17.4 18.2,17.2 18.6,17.2 L18.6,17.2 L18.7299561,17.1754883 C19.3726562,17.0246094 19.9,16.45625 19.9,15.8 C19.9,15.4 19.8,15.1 19.5,14.8 C19.2,14.5 19,14.2 19,13.8 C19,13.4 19.2,13 19.5,12.7 C20.2,12.1 20.5,11.3 20.5,10.5 C20.5,9 19.5,7.8 18.1,7.5 C17.3,7.3 16.8,6.5 17,5.7 L17,5.7 L17,5.3 C17,4.3 16.3,3.5 15.3,3.5 Z M8.5,18.5 C7.9,18.5 7.5,18.9 7.5,19.5 C7.5,20.1 7.9,20.5 8.5,20.5 C9.1,20.5 9.5,20.1 9.5,19.5 C9.5,18.9 9.1,18.5 8.5,18.5 Z M4.5,9.6 C5.9,9.6 7,10.7 7,12.1 C7,13.5 5.9,14.6 4.5,14.6 C3.1,14.6 2,13.5 2,12.1 C2,10.8 3.1,9.6 4.5,9.6 Z M4.5,11.1 C3.9,11.1 3.5,11.5 3.5,12.1 C3.5,12.7 3.9,13.1 4.5,13.1 C5.1,13.1 5.5,12.7 5.5,12.1 C5.5,11.5 5.1,11.1 4.5,11.1 Z M8.5,2 C9.9,2 11,3.1 11,4.5 C11,5.9 9.9,7 8.5,7 C7.1,7 6,5.9 6,4.5 C6,3.1 7.1,2 8.5,2 Z M8.5,3.5 C7.9,3.5 7.5,3.9 7.5,4.5 C7.5,5.1 7.9,5.5 8.5,5.5 C9.1,5.5 9.5,5.1 9.5,4.5 C9.5,3.9 9.1,3.5 8.5,3.5 Z" id="Combined-Shape"></path>
                </g>
            </g>
        </g>
    </g>
</svg>