<?xml version="1.0" encoding="UTF-8"?>
<svg width="90px" height="90px" viewBox="0 0 90 90" version="1.1" xmlns="http://www.w3.org/2000/svg" xmlns:xlink="http://www.w3.org/1999/xlink">
    <title>0037 Rebranded help page-33</title>
    <g id="Page-1" stroke="none" stroke-width="1" fill="none" fill-rule="evenodd">
        <g id="membersfix-copy" transform="translate(-291.000000, -135.000000)">
            <g id="0037-Rebranded-help-page-33" transform="translate(291.000000, 135.000000)">
                <path d="M74.025,58.05 C70.575,58.05 67.425,59.175 64.8,60.975 L64.8,69.225 L58.8,69.225 C58.35,70.725 58.05,72.3 58.05,73.95 C58.05,82.8 65.175,89.925 74.025,89.925 C82.875,89.925 90,82.8 90,73.95 C90,65.1 82.875,58.05 74.025,58.05 Z" id="Path" fill="#56F24B" fill-rule="nonzero"></path>
                <circle id="Oval" stroke="#000000" stroke-width="0.54765" cx="42.975" cy="19.2" r="15.225"></circle>
                <path d="M53.025,30.675 C56.175,27.9 58.2,23.775 58.2,19.2 C58.2,10.8 51.375,3.975 42.975,3.975 C34.575,3.975 27.75,10.8 27.75,19.2 C27.75,23.775 29.775,27.9 33,30.675 C26.1,34.275 21.3,41.55 21.3,49.95 L21.3,69.3 L64.725,69.3 L64.725,49.95 C64.8,41.55 60,34.275 53.025,30.675 Z" id="Path" stroke="#000000" stroke-width="0.54765"></path>
                <g id="Group" transform="translate(13.500000, 59.250000)" fill="#898989" fill-rule="nonzero">
                    <path d="M10.425,24.15 C10.65,24.15 10.875,23.925 10.875,23.7 C10.875,23.475 10.65,23.25 10.425,23.25 C10.2,23.25 9.975,23.475 9.975,23.7 C9.975,23.925 10.125,24.15 10.425,24.15 Z M5.775,24.15 C6,24.15 6.225,23.925 6.225,23.7 C6.225,23.475 6,23.25 5.775,23.25 C5.55,23.25 5.325,23.475 5.325,23.7 C5.325,23.925 5.55,24.15 5.775,24.15 Z M8.025,21.825 C8.25,21.825 8.475,21.6 8.475,21.375 C8.475,21.15 8.25,20.925 8.025,20.925 C7.8,20.925 7.575,21.15 7.575,21.375 C7.575,21.6 7.8,21.825 8.025,21.825 Z M10.425,19.5 C10.65,19.5 10.875,19.275 10.875,19.05 C10.875,18.825 10.65,18.6 10.425,18.6 C10.2,18.6 9.975,18.825 9.975,19.05 C9.975,19.275 10.125,19.5 10.425,19.5 Z M5.775,19.5 C6,19.5 6.225,19.275 6.225,19.05 C6.225,18.825 6,18.6 5.775,18.6 C5.55,18.6 5.325,18.825 5.325,19.05 C5.325,19.275 5.55,19.5 5.775,19.5 Z M8.025,17.325 C8.25,17.325 8.475,17.1 8.475,16.875 C8.475,16.65 8.25,16.425 8.025,16.425 C7.8,16.425 7.575,16.65 7.575,16.875 C7.575,17.1 7.8,17.325 8.025,17.325 Z M10.425,15 C10.65,15 10.875,14.775 10.875,14.55 C10.875,14.325 10.65,14.1 10.425,14.1 C10.2,14.1 9.975,14.325 9.975,14.55 C9.975,14.775 10.125,15 10.425,15 Z M5.775,15 C6,15 6.225,14.775 6.225,14.55 C6.225,14.325 6,14.1 5.775,14.1 C5.55,14.1 5.325,14.325 5.325,14.55 C5.325,14.775 5.55,15 5.775,15 Z M8.025,12.675 C8.25,12.675 8.475,12.45 8.475,12.225 C8.475,12 8.25,11.775 8.025,11.775 C7.8,11.775 7.575,12 7.575,12.225 C7.575,12.45 7.8,12.675 8.025,12.675 Z M5.775,10.35 C6,10.35 6.225,10.125 6.225,9.9 C6.225,9.675 6,9.45 5.775,9.45 C5.55,9.45 5.325,9.675 5.325,9.9 C5.325,10.125 5.55,10.35 5.775,10.35 Z M10.425,5.85 C10.65,5.85 10.875,5.625 10.875,5.4 C10.875,5.175 10.65,4.95 10.425,4.95 C10.2,4.95 9.975,5.175 9.975,5.4 C9.975,5.625 10.125,5.85 10.425,5.85 Z M5.775,5.85 C6,5.85 6.225,5.625 6.225,5.4 C6.225,5.175 6,4.95 5.775,4.95 C5.55,4.95 5.325,5.175 5.325,5.4 C5.325,5.625 5.55,5.85 5.775,5.85 Z M10.425,1.275 C10.65,1.275 10.875,1.05 10.875,0.825 C10.875,0.6 10.65,0.375 10.425,0.375 C10.2,0.375 9.975,0.6 9.975,0.825 C9.9,1.05 10.125,1.275 10.425,1.275 Z M5.775,1.275 C6,1.275 6.225,1.05 6.225,0.825 C6.225,0.6 6,0.375 5.775,0.375 C5.55,0.375 5.325,0.6 5.325,0.825 C5.325,1.05 5.55,1.275 5.775,1.275 Z" id="Shape"></path>
                    <path d="M15,24.15 C15.225,24.15 15.45,23.925 15.45,23.7 C15.45,23.475 15.225,23.25 15,23.25 C14.775,23.25 14.55,23.475 14.55,23.7 C14.55,23.925 14.775,24.15 15,24.15 Z M12.675,21.825 C12.9,21.825 13.125,21.6 13.125,21.375 C13.125,21.15 12.9,20.925 12.675,20.925 C12.45,20.925 12.225,21.15 12.225,21.375 C12.225,21.6 12.375,21.825 12.675,21.825 Z M15,19.5 C15.225,19.5 15.45,19.275 15.45,19.05 C15.45,18.825 15.225,18.6 15,18.6 C14.775,18.6 14.55,18.825 14.55,19.05 C14.55,19.275 14.775,19.5 15,19.5 Z M12.675,17.325 C12.9,17.325 13.125,17.1 13.125,16.875 C13.125,16.65 12.9,16.425 12.675,16.425 C12.45,16.425 12.225,16.65 12.225,16.875 C12.225,17.1 12.375,17.325 12.675,17.325 Z M15,15 C15.225,15 15.45,14.775 15.45,14.55 C15.45,14.325 15.225,14.1 15,14.1 C14.775,14.1 14.55,14.325 14.55,14.55 C14.55,14.775 14.775,15 15,15 Z M12.675,12.675 C12.9,12.675 13.125,12.45 13.125,12.225 C13.125,12 12.9,11.775 12.675,11.775 C12.45,11.775 12.225,12 12.225,12.225 C12.225,12.45 12.375,12.675 12.675,12.675 Z M12.675,8.175 C12.9,8.175 13.125,7.95 13.125,7.725 C13.125,7.5 12.9,7.275 12.675,7.275 C12.45,7.275 12.225,7.5 12.225,7.725 C12.225,7.95 12.375,8.175 12.675,8.175 Z M15,5.85 C15.225,5.85 15.45,5.625 15.45,5.4 C15.45,5.175 15.225,4.95 15,4.95 C14.775,4.95 14.55,5.175 14.55,5.4 C14.55,5.625 14.775,5.85 15,5.85 Z M12.675,3.6 C12.9,3.6 13.125,3.375 13.125,3.15 C13.125,2.925 12.9,2.7 12.675,2.7 C12.45,2.7 12.225,2.925 12.225,3.15 C12.225,3.375 12.375,3.6 12.675,3.6 Z M15,1.275 C15.225,1.275 15.45,1.05 15.45,0.825 C15.45,0.6 15.225,0.375 15,0.375 C14.775,0.375 14.55,0.6 14.55,0.825 C14.55,1.05 14.775,1.275 15,1.275 Z" id="Shape"></path>
                    <path d="M1.2,24.225 C1.425,24.225 1.65,24 1.65,23.775 C1.65,23.55 1.425,23.325 1.2,23.325 C0.975,23.325 0.75,23.55 0.75,23.775 C0.75,24 0.9,24.225 1.2,24.225 Z M3.45,21.9 C3.675,21.9 3.9,21.675 3.9,21.45 C3.9,21.225 3.675,21 3.45,21 C3.225,21 3,21.225 3,21.45 C2.925,21.675 3.15,21.9 3.45,21.9 Z M1.2,19.575 C1.425,19.575 1.65,19.35 1.65,19.125 C1.65,18.9 1.425,18.675 1.2,18.675 C0.975,18.675 0.75,18.9 0.75,19.125 C0.75,19.35 0.9,19.575 1.2,19.575 Z M3.45,17.4 C3.675,17.4 3.9,17.175 3.9,16.95 C3.9,16.725 3.675,16.5 3.45,16.5 C3.225,16.5 3,16.725 3,16.95 C3,17.175 3.15,17.4 3.45,17.4 Z M1.2,15.075 C1.425,15.075 1.65,14.85 1.65,14.625 C1.65,14.4 1.425,14.175 1.2,14.175 C0.975,14.175 0.75,14.4 0.75,14.625 C0.675,14.925 0.9,15.075 1.2,15.075 Z M3.45,12.825 C3.675,12.825 3.9,12.6 3.9,12.375 C3.9,12.15 3.675,11.925 3.45,11.925 C3.225,11.925 3,12.15 3,12.375 C3,12.6 3.15,12.825 3.45,12.825 Z M1.2,10.5 C1.425,10.5 1.65,10.275 1.65,10.05 C1.65,9.825 1.425,9.6 1.2,9.6 C0.975,9.6 0.75,9.825 0.75,10.05 C0.675,10.275 0.9,10.5 1.2,10.5 Z M3.45,8.25 C3.675,8.25 3.9,8.025 3.9,7.8 C3.9,7.575 3.675,7.35 3.45,7.35 C3.225,7.35 3,7.575 3,7.8 C2.925,8.1 3.15,8.25 3.45,8.25 Z M1.2,6 C1.425,6 1.65,5.775 1.65,5.55 C1.65,5.325 1.425,5.1 1.2,5.1 C0.975,5.1 0.75,5.325 0.75,5.55 C0.675,5.775 0.9,6 1.2,6 Z M3.45,3.675 C3.675,3.675 3.9,3.45 3.9,3.225 C3.9,3 3.675,2.775 3.45,2.775 C3.225,2.775 3,3 3,3.225 C3,3.45 3.15,3.675 3.45,3.675 Z M1.2,1.35 C1.425,1.35 1.65,1.125 1.65,0.9 C1.65,0.675 1.425,0.45 1.2,0.45 C0.975,0.45 0.75,0.675 0.75,0.9 C0.675,1.125 0.9,1.35 1.2,1.35 Z" id="Shape"></path>
                    <g transform="translate(16.500000, 0.000000)" id="Shape">
                        <path d="M16.725,24.225 C16.95,24.225 17.175,24 17.175,23.775 C17.175,23.55 16.95,23.325 16.725,23.325 C16.5,23.325 16.275,23.55 16.275,23.775 C16.275,24 16.425,24.225 16.725,24.225 Z M16.725,19.575 C16.95,19.575 17.175,19.35 17.175,19.125 C17.175,18.9 16.95,18.675 16.725,18.675 C16.5,18.675 16.275,18.9 16.275,19.125 C16.275,19.35 16.425,19.575 16.725,19.575 Z M16.725,15.075 C16.95,15.075 17.175,14.85 17.175,14.625 C17.175,14.4 16.95,14.175 16.725,14.175 C16.5,14.175 16.275,14.4 16.275,14.625 C16.2,14.925 16.425,15.075 16.725,15.075 Z M16.725,6 C16.95,6 17.175,5.775 17.175,5.55 C17.175,5.325 16.95,5.1 16.725,5.1 C16.5,5.1 16.275,5.325 16.275,5.55 C16.2,5.775 16.425,6 16.725,6 Z M16.725,1.35 C16.95,1.35 17.175,1.125 17.175,0.9 C17.175,0.675 16.95,0.45 16.725,0.45 C16.5,0.45 16.275,0.675 16.275,0.9 C16.2,1.125 16.425,1.35 16.725,1.35 Z"></path>
                        <path d="M12.3,24.15 C12.525,24.15 12.75,23.925 12.75,23.7 C12.75,23.475 12.525,23.25 12.3,23.25 C12.075,23.25 11.85,23.475 11.85,23.7 C11.85,23.925 12,24.15 12.3,24.15 Z M7.65,24.15 C7.875,24.15 8.1,23.925 8.1,23.7 C8.1,23.475 7.875,23.25 7.65,23.25 C7.425,23.25 7.2,23.475 7.2,23.7 C7.2,23.925 7.425,24.15 7.65,24.15 Z M3.15,24.15 C3.375,24.15 3.6,23.925 3.6,23.7 C3.6,23.475 3.375,23.25 3.15,23.25 C2.925,23.25 2.7,23.475 2.7,23.7 C2.7,23.925 2.85,24.15 3.15,24.15 Z M14.625,21.825 C14.85,21.825 15.075,21.6 15.075,21.375 C15.075,21.15 14.85,20.925 14.625,20.925 C14.4,20.925 14.175,21.15 14.175,21.375 C14.1,21.6 14.25,21.825 14.625,21.825 Z M9.975,21.825 C10.2,21.825 10.425,21.6 10.425,21.375 C10.425,21.15 10.2,20.925 9.975,20.925 C9.75,20.925 9.525,21.15 9.525,21.375 C9.525,21.6 9.75,21.825 9.975,21.825 Z M5.4,21.825 C5.625,21.825 5.85,21.6 5.85,21.375 C5.85,21.15 5.625,20.925 5.4,20.925 C5.175,20.925 4.95,21.15 4.95,21.375 C4.875,21.6 5.1,21.825 5.4,21.825 Z M0.75,21.825 C0.975,21.825 1.2,21.6 1.2,21.375 C1.2,21.15 0.975,20.925 0.75,20.925 C0.525,20.925 0.3,21.15 0.3,21.375 C0.3,21.6 0.525,21.825 0.75,21.825 Z M12.3,19.5 C12.525,19.5 12.75,19.275 12.75,19.05 C12.75,18.825 12.525,18.6 12.3,18.6 C12.075,18.6 11.85,18.825 11.85,19.05 C11.85,19.275 12,19.5 12.3,19.5 Z M7.65,19.5 C7.875,19.5 8.1,19.275 8.1,19.05 C8.1,18.825 7.875,18.6 7.65,18.6 C7.425,18.6 7.2,18.825 7.2,19.05 C7.2,19.275 7.425,19.5 7.65,19.5 Z M3.15,19.5 C3.375,19.5 3.6,19.275 3.6,19.05 C3.6,18.825 3.375,18.6 3.15,18.6 C2.925,18.6 2.7,18.825 2.7,19.05 C2.7,19.275 2.85,19.5 3.15,19.5 Z M14.625,17.325 C14.85,17.325 15.075,17.1 15.075,16.875 C15.075,16.65 14.85,16.425 14.625,16.425 C14.4,16.425 14.175,16.65 14.175,16.875 C14.1,17.1 14.25,17.325 14.625,17.325 Z M9.975,17.325 C10.2,17.325 10.425,17.1 10.425,16.875 C10.425,16.65 10.2,16.425 9.975,16.425 C9.75,16.425 9.525,16.65 9.525,16.875 C9.525,17.1 9.75,17.325 9.975,17.325 Z M5.4,17.325 C5.625,17.325 5.85,17.1 5.85,16.875 C5.85,16.65 5.625,16.425 5.4,16.425 C5.175,16.425 4.95,16.65 4.95,16.875 C4.875,17.1 5.1,17.325 5.4,17.325 Z M0.75,17.325 C0.975,17.325 1.2,17.1 1.2,16.875 C1.2,16.65 0.975,16.425 0.75,16.425 C0.525,16.425 0.3,16.65 0.3,16.875 C0.3,17.1 0.525,17.325 0.75,17.325 Z M12.3,15 C12.525,15 12.75,14.775 12.75,14.55 C12.75,14.325 12.525,14.1 12.3,14.1 C12.075,14.1 11.85,14.325 11.85,14.55 C11.85,14.775 12,15 12.3,15 Z M7.65,15 C7.875,15 8.1,14.775 8.1,14.55 C8.1,14.325 7.875,14.1 7.65,14.1 C7.425,14.1 7.2,14.325 7.2,14.55 C7.2,14.775 7.425,15 7.65,15 Z M3.15,15 C3.375,15 3.6,14.775 3.6,14.55 C3.6,14.325 3.375,14.1 3.15,14.1 C2.925,14.1 2.7,14.325 2.7,14.55 C2.7,14.775 2.85,15 3.15,15 Z M14.625,12.675 C14.85,12.675 15.075,12.45 15.075,12.225 C15.075,12 14.85,11.775 14.625,11.775 C14.4,11.775 14.175,12 14.175,12.225 C14.1,12.45 14.25,12.675 14.625,12.675 Z M9.975,12.675 C10.2,12.675 10.425,12.45 10.425,12.225 C10.425,12 10.2,11.775 9.975,11.775 C9.75,11.775 9.525,12 9.525,12.225 C9.525,12.45 9.75,12.675 9.975,12.675 Z M5.4,12.675 C5.625,12.675 5.85,12.45 5.85,12.225 C5.85,12 5.625,11.775 5.4,11.775 C5.175,11.775 4.95,12 4.95,12.225 C4.875,12.45 5.1,12.675 5.4,12.675 Z M0.75,12.675 C0.975,12.675 1.2,12.45 1.2,12.225 C1.2,12 0.975,11.775 0.75,11.775 C0.525,11.775 0.3,12 0.3,12.225 C0.3,12.45 0.525,12.675 0.75,12.675 Z M14.625,8.175 C14.85,8.175 15.075,7.95 15.075,7.725 C15.075,7.5 14.85,7.275 14.625,7.275 C14.4,7.275 14.175,7.5 14.175,7.725 C14.1,7.95 14.25,8.175 14.625,8.175 Z M9.975,8.175 C10.2,8.175 10.425,7.95 10.425,7.725 C10.425,7.5 10.2,7.275 9.975,7.275 C9.75,7.275 9.525,7.5 9.525,7.725 C9.525,7.95 9.75,8.175 9.975,8.175 Z M5.4,8.175 C5.625,8.175 5.85,7.95 5.85,7.725 C5.85,7.5 5.625,7.275 5.4,7.275 C5.175,7.275 4.95,7.5 4.95,7.725 C4.875,7.95 5.1,8.175 5.4,8.175 Z M0.75,8.175 C0.975,8.175 1.2,7.95 1.2,7.725 C1.2,7.5 0.975,7.275 0.75,7.275 C0.525,7.275 0.3,7.5 0.3,7.725 C0.3,7.95 0.525,8.175 0.75,8.175 Z M12.3,5.85 C12.525,5.85 12.75,5.625 12.75,5.4 C12.75,5.175 12.525,4.95 12.3,4.95 C12.075,4.95 11.85,5.175 11.85,5.4 C11.85,5.625 12,5.85 12.3,5.85 Z M7.65,5.85 C7.875,5.85 8.1,5.625 8.1,5.4 C8.1,5.175 7.875,4.95 7.65,4.95 C7.425,4.95 7.2,5.175 7.2,5.4 C7.2,5.625 7.425,5.85 7.65,5.85 Z M3.15,5.85 C3.375,5.85 3.6,5.625 3.6,5.4 C3.6,5.175 3.375,4.95 3.15,4.95 C2.925,4.95 2.7,5.175 2.7,5.4 C2.7,5.625 2.85,5.85 3.15,5.85 Z M14.625,3.6 C14.85,3.6 15.075,3.375 15.075,3.15 C15.075,2.925 14.85,2.7 14.625,2.7 C14.4,2.7 14.175,2.925 14.175,3.15 C14.1,3.375 14.25,3.6 14.625,3.6 Z M9.975,3.6 C10.2,3.6 10.425,3.375 10.425,3.15 C10.425,2.925 10.2,2.7 9.975,2.7 C9.75,2.7 9.525,2.925 9.525,3.15 C9.525,3.375 9.75,3.6 9.975,3.6 Z M5.4,3.6 C5.625,3.6 5.85,3.375 5.85,3.15 C5.85,2.925 5.625,2.7 5.4,2.7 C5.175,2.7 4.95,2.925 4.95,3.15 C4.875,3.375 5.1,3.6 5.4,3.6 Z M0.75,3.6 C0.975,3.6 1.2,3.375 1.2,3.15 C1.2,2.925 0.975,2.7 0.75,2.7 C0.525,2.7 0.3,2.925 0.3,3.15 C0.3,3.375 0.525,3.6 0.75,3.6 Z M12.3,1.275 C12.525,1.275 12.75,1.05 12.75,0.825 C12.75,0.6 12.525,0.375 12.3,0.375 C12.075,0.375 11.85,0.6 11.85,0.825 C11.85,1.05 12,1.275 12.3,1.275 Z M7.65,1.275 C7.875,1.275 8.1,1.05 8.1,0.825 C8.1,0.6 7.875,0.375 7.65,0.375 C7.425,0.375 7.2,0.6 7.2,0.825 C7.2,1.05 7.425,1.275 7.65,1.275 Z M3.15,1.275 C3.375,1.275 3.6,1.05 3.6,0.825 C3.6,0.6 3.375,0.375 3.15,0.375 C2.925,0.375 2.7,0.6 2.7,0.825 C2.625,1.05 2.85,1.275 3.15,1.275 Z"></path>
                    </g>
                </g>
                <path d="M53.025,30.675 C56.175,27.9 58.2,23.775 58.2,19.2 C58.2,10.8 51.375,3.975 42.975,3.975 C34.575,3.975 27.75,10.8 27.75,19.2 C27.75,23.775 29.775,27.9 33,30.675 C31.05,31.725 29.25,33 27.75,34.575 L27.75,26.775 L4.35,26.775 L4.35,42.075 L22.875,42.075 C21.9,44.55 21.375,47.175 21.375,49.95 L21.375,69.3 L64.8,69.3 L64.8,49.95 C64.8,41.55 60,34.275 53.025,30.675 Z" id="Path" stroke="#000000" stroke-width="0.54765"></path>
                <rect id="Rectangle" fill="#56F24B" fill-rule="nonzero" x="6.375" y="28.725" width="5.625" height="5.625"></rect>
                <line x1="14.025" y1="31.575" x2="24.6" y2="31.575" id="Path" stroke="#000000" stroke-width="0.5"></line>
                <line x1="6.75" y1="38.7" x2="17.325" y2="38.7" id="Path" stroke="#000000" stroke-width="0.5"></line>
                <line x1="14.025" y1="34.425" x2="21.375" y2="34.425" id="Path" stroke="#000000" stroke-width="0.5"></line>
                <g id="Group" fill="#898989" fill-rule="nonzero">
                    <path d="M23.775,23.25 C23.775,23.025 23.55,22.8 23.325,22.8 C23.1,22.8 22.875,23.025 22.875,23.25 C22.875,23.475 23.1,23.7 23.325,23.7 C23.55,23.7 23.775,23.55 23.775,23.25 Z M21.525,25.65 C21.525,25.425 21.3,25.2 21.075,25.2 C20.85,25.2 20.625,25.425 20.625,25.65 C20.625,25.875 20.85,26.1 21.075,26.1 C21.3,26.1 21.525,25.875 21.525,25.65 Z M19.2,23.25 C19.2,23.025 18.975,22.8 18.75,22.8 C18.525,22.8 18.3,23.025 18.3,23.25 C18.3,23.475 18.525,23.7 18.75,23.7 C18.975,23.7 19.2,23.55 19.2,23.25 Z M16.95,25.65 C16.95,25.425 16.725,25.2 16.5,25.2 C16.275,25.2 16.05,25.425 16.05,25.65 C16.05,25.875 16.275,26.1 16.5,26.1 C16.8,26.1 16.95,25.875 16.95,25.65 Z M14.7,23.25 C14.7,23.025 14.475,22.8 14.25,22.8 C14.025,22.8 13.8,23.025 13.8,23.25 C13.8,23.475 14.025,23.7 14.25,23.7 C14.475,23.7 14.7,23.55 14.7,23.25 Z M12.375,25.65 C12.375,25.425 12.15,25.2 11.925,25.2 C11.7,25.2 11.475,25.425 11.475,25.65 C11.475,25.875 11.7,26.1 11.925,26.1 C12.15,26.1 12.375,25.875 12.375,25.65 Z M10.05,23.25 C10.05,23.025 9.825,22.8 9.6,22.8 C9.375,22.8 9.15,23.025 9.15,23.25 C9.15,23.475 9.375,23.7 9.6,23.7 C9.825,23.775 10.05,23.55 10.05,23.25 Z M7.875,25.65 C7.875,25.425 7.65,25.2 7.425,25.2 C7.2,25.2 6.975,25.425 6.975,25.65 C6.975,25.875 7.2,26.1 7.425,26.1 C7.65,26.1 7.875,25.875 7.875,25.65 Z M5.55,23.25 C5.55,23.025 5.325,22.8 5.1,22.8 C4.875,22.8 4.65,23.025 4.65,23.25 C4.65,23.475 4.875,23.7 5.1,23.7 C5.325,23.775 5.55,23.55 5.55,23.25 Z M3.225,25.65 C3.225,25.425 3,25.2 2.775,25.2 C2.55,25.2 2.325,25.425 2.325,25.65 C2.325,25.875 2.55,26.1 2.775,26.1 C3,26.1 3.225,25.875 3.225,25.65 Z M0.975,23.25 C0.975,23.025 0.75,22.8 0.525,22.8 C0.3,22.8 0,23.025 0,23.25 C0,23.475 0.225,23.7 0.45,23.7 C0.75,23.775 0.975,23.55 0.975,23.25 Z M0.975,27.9 C0.975,27.675 0.75,27.45 0.525,27.45 C0.3,27.45 0,27.6 0,27.9 C0,28.125 0.225,28.35 0.45,28.35 C0.75,28.35 0.975,28.125 0.975,27.9 Z" id="Shape"></path>
                    <path d="M23.775,18.675 C23.775,18.45 23.55,18.225 23.325,18.225 C23.1,18.225 22.875,18.45 22.875,18.675 C22.875,18.9 23.1,19.125 23.325,19.125 C23.55,19.125 23.775,18.9 23.775,18.675 Z M21.525,21 C21.525,20.775 21.3,20.55 21.075,20.55 C20.85,20.55 20.625,20.775 20.625,21 C20.625,21.225 20.85,21.45 21.075,21.45 C21.3,21.45 21.525,21.3 21.525,21 Z M19.2,18.675 C19.2,18.45 18.975,18.225 18.75,18.225 C18.525,18.225 18.3,18.45 18.3,18.675 C18.3,18.9 18.525,19.125 18.75,19.125 C18.975,19.125 19.2,18.9 19.2,18.675 Z M16.95,21 C16.95,20.775 16.725,20.55 16.5,20.55 C16.275,20.55 16.05,20.775 16.05,21 C16.05,21.225 16.275,21.45 16.5,21.45 C16.8,21.525 16.95,21.3 16.95,21 Z M14.7,18.675 C14.7,18.45 14.475,18.225 14.25,18.225 C14.025,18.225 13.8,18.45 13.8,18.675 C13.8,18.9 14.025,19.125 14.25,19.125 C14.475,19.125 14.7,18.9 14.7,18.675 Z M12.375,21 C12.375,20.775 12.15,20.55 11.925,20.55 C11.7,20.55 11.475,20.775 11.475,21 C11.475,21.225 11.7,21.45 11.925,21.45 C12.15,21.525 12.375,21.3 12.375,21 Z M10.05,18.675 C10.05,18.45 9.825,18.225 9.6,18.225 C9.375,18.225 9.15,18.45 9.15,18.675 C9.15,18.9 9.375,19.125 9.6,19.125 C9.825,19.125 10.05,18.9 10.05,18.675 Z M7.875,21 C7.875,20.775 7.65,20.55 7.425,20.55 C7.2,20.55 6.975,20.775 6.975,21 C6.975,21.225 7.2,21.45 7.425,21.45 C7.65,21.525 7.875,21.3 7.875,21 Z M5.55,18.675 C5.55,18.45 5.325,18.225 5.1,18.225 C4.875,18.225 4.65,18.45 4.65,18.675 C4.65,18.9 4.875,19.125 5.1,19.125 C5.325,19.125 5.55,18.9 5.55,18.675 Z M3.225,21 C3.225,20.775 3,20.55 2.775,20.55 C2.55,20.55 2.325,20.775 2.325,21 C2.325,21.225 2.55,21.45 2.775,21.45 C3,21.45 3.225,21.3 3.225,21 Z M0.975,18.675 C0.975,18.45 0.75,18.225 0.525,18.225 C0.3,18.225 0,18.375 0,18.675 C0,18.975 0.225,19.125 0.45,19.125 C0.75,19.125 0.975,18.9 0.975,18.675 Z" id="Shape"></path>
                    <path d="M3.375,30.225 C3.375,30 3.15,29.775 2.925,29.775 C2.7,29.775 2.4,30 2.4,30.225 C2.4,30.45 2.625,30.675 2.85,30.675 C3.075,30.675 3.375,30.525 3.375,30.225 Z M1.05,32.475 C1.05,32.25 0.825,32.025 0.6,32.025 C0.375,32.025 0.075,32.25 0.075,32.475 C0.075,32.7 0.3,33 0.6,33 C0.9,33 1.05,32.775 1.05,32.475 Z" id="Shape"></path>
                    <g id="Shape">
                        <path d="M23.925,0.45 C23.925,0.225 23.7,0 23.475,0 C23.25,0 23.025,0.225 23.025,0.45 C23.025,0.675 23.25,0.9 23.475,0.9 C23.7,0.9 23.925,0.75 23.925,0.45 Z M19.275,0.45 C19.275,0.225 19.05,0 18.825,0 C18.6,0 18.375,0.225 18.375,0.45 C18.375,0.675 18.6,0.9 18.825,0.9 C19.05,0.9 19.275,0.75 19.275,0.45 Z M14.775,0.45 C14.775,0.225 14.55,0 14.325,0 C14.1,0 13.875,0.225 13.875,0.45 C13.875,0.675 14.1,0.9 14.325,0.9 C14.55,0.975 14.775,0.75 14.775,0.45 Z M10.2,0.45 C10.2,0.225 9.975,0 9.75,0 C9.525,0 9.3,0.225 9.3,0.45 C9.3,0.675 9.525,0.9 9.75,0.9 C9.975,0.975 10.2,0.75 10.2,0.45 Z M5.625,0.45 C5.625,0.225 5.475,0 5.175,0 C4.95,0 4.725,0.225 4.725,0.45 C4.725,0.675 4.95,0.9 5.175,0.9 C5.475,0.975 5.625,0.75 5.625,0.45 Z M1.05,0.45 C1.05,0.225 0.825,0 0.6,0 C0.375,0 0.075,0.225 0.075,0.45 C0.075,0.675 0.3,0.9 0.525,0.9 C0.75,0.9 1.05,0.75 1.05,0.45 Z"></path>
                        <path d="M23.775,4.875 C23.775,4.65 23.55,4.425 23.325,4.425 C23.1,4.425 22.875,4.65 22.875,4.875 C22.875,5.1 23.1,5.325 23.325,5.325 C23.55,5.325 23.775,5.1 23.775,4.875 Z M23.775,9.525 C23.775,9.3 23.55,9.075 23.325,9.075 C23.1,9.075 22.875,9.3 22.875,9.525 C22.875,9.75 23.1,9.975 23.325,9.975 C23.55,9.975 23.775,9.75 23.775,9.525 Z M23.775,14.025 C23.775,13.8 23.55,13.575 23.325,13.575 C23.1,13.575 22.875,13.8 22.875,14.025 C22.875,14.25 23.1,14.475 23.325,14.475 C23.55,14.475 23.775,14.325 23.775,14.025 Z M21.525,2.55 C21.525,2.325 21.3,2.1 21.075,2.1 C20.85,2.1 20.625,2.325 20.625,2.55 C20.625,2.775 20.85,3 21.075,3 C21.3,3.075 21.525,2.85 21.525,2.55 Z M21.525,7.2 C21.525,6.975 21.3,6.75 21.075,6.75 C20.85,6.75 20.625,6.975 20.625,7.2 C20.625,7.425 20.85,7.65 21.075,7.65 C21.3,7.65 21.525,7.425 21.525,7.2 Z M21.525,11.775 C21.525,11.55 21.3,11.325 21.075,11.325 C20.85,11.325 20.625,11.55 20.625,11.775 C20.625,12 20.85,12.225 21.075,12.225 C21.3,12.3 21.525,12.075 21.525,11.775 Z M21.525,16.425 C21.525,16.2 21.3,15.975 21.075,15.975 C20.85,15.975 20.625,16.2 20.625,16.425 C20.625,16.65 20.85,16.875 21.075,16.875 C21.3,16.875 21.525,16.65 21.525,16.425 Z M19.2,4.875 C19.2,4.65 18.975,4.425 18.75,4.425 C18.525,4.425 18.3,4.65 18.3,4.875 C18.3,5.1 18.525,5.325 18.75,5.325 C18.975,5.325 19.2,5.1 19.2,4.875 Z M19.2,9.525 C19.2,9.3 18.975,9.075 18.75,9.075 C18.525,9.075 18.3,9.3 18.3,9.525 C18.3,9.75 18.525,9.975 18.75,9.975 C18.975,9.975 19.2,9.75 19.2,9.525 Z M19.2,14.025 C19.2,13.8 18.975,13.575 18.75,13.575 C18.525,13.575 18.3,13.8 18.3,14.025 C18.3,14.25 18.525,14.475 18.75,14.475 C18.975,14.475 19.2,14.325 19.2,14.025 Z M16.95,2.55 C16.95,2.325 16.725,2.1 16.5,2.1 C16.275,2.1 16.05,2.325 16.05,2.55 C16.05,2.775 16.275,3 16.5,3 C16.8,3.075 16.95,2.85 16.95,2.55 Z M16.95,7.2 C16.95,6.975 16.725,6.75 16.5,6.75 C16.275,6.75 16.05,6.975 16.05,7.2 C16.05,7.425 16.275,7.65 16.5,7.65 C16.8,7.65 16.95,7.425 16.95,7.2 Z M16.95,11.775 C16.95,11.55 16.725,11.325 16.5,11.325 C16.275,11.325 16.05,11.55 16.05,11.775 C16.05,12 16.275,12.225 16.5,12.225 C16.8,12.3 16.95,12.075 16.95,11.775 Z M16.95,16.425 C16.95,16.2 16.725,15.975 16.5,15.975 C16.275,15.975 16.05,16.2 16.05,16.425 C16.05,16.65 16.275,16.875 16.5,16.875 C16.8,16.875 16.95,16.65 16.95,16.425 Z M14.7,4.875 C14.7,4.65 14.475,4.425 14.25,4.425 C14.025,4.425 13.8,4.65 13.8,4.875 C13.8,5.1 14.025,5.325 14.25,5.325 C14.475,5.325 14.7,5.1 14.7,4.875 Z M14.7,9.525 C14.7,9.3 14.475,9.075 14.25,9.075 C14.025,9.075 13.8,9.3 13.8,9.525 C13.8,9.75 14.025,9.975 14.25,9.975 C14.475,9.975 14.7,9.75 14.7,9.525 Z M14.7,14.025 C14.7,13.8 14.475,13.575 14.25,13.575 C14.025,13.575 13.8,13.8 13.8,14.025 C13.8,14.25 14.025,14.475 14.25,14.475 C14.475,14.475 14.7,14.325 14.7,14.025 Z M12.375,2.55 C12.375,2.325 12.15,2.1 11.925,2.1 C11.7,2.1 11.475,2.325 11.475,2.55 C11.475,2.775 11.7,3 11.925,3 C12.15,3.075 12.375,2.85 12.375,2.55 Z M12.375,7.2 C12.375,6.975 12.15,6.75 11.925,6.75 C11.7,6.75 11.475,6.975 11.475,7.2 C11.475,7.425 11.7,7.65 11.925,7.65 C12.15,7.65 12.375,7.425 12.375,7.2 Z M12.375,11.775 C12.375,11.55 12.15,11.325 11.925,11.325 C11.7,11.325 11.475,11.55 11.475,11.775 C11.475,12 11.7,12.225 11.925,12.225 C12.15,12.3 12.375,12.075 12.375,11.775 Z M12.375,16.425 C12.375,16.2 12.15,15.975 11.925,15.975 C11.7,15.975 11.475,16.2 11.475,16.425 C11.475,16.65 11.7,16.875 11.925,16.875 C12.15,16.875 12.375,16.65 12.375,16.425 Z M10.05,4.875 C10.05,4.65 9.825,4.425 9.6,4.425 C9.375,4.425 9.15,4.65 9.15,4.875 C9.15,5.1 9.375,5.325 9.6,5.325 C9.825,5.325 10.05,5.1 10.05,4.875 Z M10.05,9.525 C10.05,9.3 9.825,9.075 9.6,9.075 C9.375,9.075 9.15,9.3 9.15,9.525 C9.15,9.75 9.375,9.975 9.6,9.975 C9.825,9.975 10.05,9.75 10.05,9.525 Z M10.05,14.025 C10.05,13.8 9.825,13.575 9.6,13.575 C9.375,13.575 9.15,13.8 9.15,14.025 C9.15,14.25 9.375,14.475 9.6,14.475 C9.825,14.55 10.05,14.325 10.05,14.025 Z M7.875,2.55 C7.875,2.325 7.65,2.1 7.425,2.1 C7.2,2.1 6.975,2.325 6.975,2.55 C6.975,2.775 7.2,3 7.425,3 C7.65,3.075 7.875,2.85 7.875,2.55 Z M7.875,7.2 C7.875,6.975 7.65,6.75 7.425,6.75 C7.2,6.75 6.975,6.975 6.975,7.2 C6.975,7.425 7.2,7.65 7.425,7.65 C7.65,7.65 7.875,7.425 7.875,7.2 Z M7.875,11.775 C7.875,11.55 7.65,11.325 7.425,11.325 C7.2,11.325 6.975,11.55 6.975,11.775 C6.975,12 7.2,12.225 7.425,12.225 C7.65,12.3 7.875,12.075 7.875,11.775 Z M7.875,16.425 C7.875,16.2 7.65,15.975 7.425,15.975 C7.2,15.975 6.975,16.2 6.975,16.425 C6.975,16.65 7.2,16.875 7.425,16.875 C7.65,16.875 7.875,16.65 7.875,16.425 Z M5.55,4.875 C5.55,4.65 5.325,4.425 5.1,4.425 C4.875,4.425 4.65,4.65 4.65,4.875 C4.65,5.1 4.875,5.325 5.1,5.325 C5.325,5.325 5.55,5.1 5.55,4.875 Z M5.55,9.525 C5.55,9.3 5.325,9.075 5.1,9.075 C4.875,9.075 4.65,9.3 4.65,9.525 C4.65,9.75 4.875,9.975 5.1,9.975 C5.325,9.975 5.55,9.75 5.55,9.525 Z M5.55,14.025 C5.55,13.8 5.325,13.575 5.1,13.575 C4.875,13.575 4.65,13.8 4.65,14.025 C4.65,14.25 4.875,14.475 5.1,14.475 C5.325,14.55 5.55,14.325 5.55,14.025 Z M3.225,2.55 C3.225,2.325 3,2.1 2.775,2.1 C2.55,2.1 2.325,2.325 2.325,2.55 C2.325,2.775 2.55,3 2.775,3 C3.075,3.075 3.225,2.85 3.225,2.55 Z M3.225,7.2 C3.225,6.975 3,6.75 2.775,6.75 C2.55,6.75 2.325,6.9 2.325,7.2 C2.325,7.425 2.55,7.65 2.775,7.65 C3.075,7.65 3.225,7.425 3.225,7.2 Z M3.225,11.775 C3.225,11.55 3,11.325 2.775,11.325 C2.55,11.325 2.325,11.55 2.325,11.775 C2.325,12 2.55,12.225 2.775,12.225 C3.075,12.3 3.225,12.075 3.225,11.775 Z M3.225,16.425 C3.225,16.2 3,15.975 2.775,15.975 C2.55,15.975 2.325,16.2 2.325,16.425 C2.325,16.65 2.55,16.875 2.775,16.875 C3,16.875 3.225,16.65 3.225,16.425 Z M0.975,4.875 C0.975,4.65 0.75,4.425 0.525,4.425 C0.3,4.425 0,4.65 0,4.875 C0,5.1 0.225,5.325 0.45,5.325 C0.75,5.325 0.975,5.1 0.975,4.875 Z M0.975,9.525 C0.975,9.225 0.75,9 0.45,9 C0.15,9 0,9.225 0,9.525 C0,9.825 0.225,9.975 0.45,9.975 C0.75,9.975 0.975,9.75 0.975,9.525 Z M0.975,14.025 C0.975,13.8 0.75,13.575 0.525,13.575 C0.3,13.575 0,13.8 0,14.025 C0,14.25 0.225,14.475 0.45,14.475 C0.75,14.55 0.975,14.325 0.975,14.025 Z"></path>
                    </g>
                </g>
            </g>
        </g>
    </g>
</svg>