<svg xmlns="http://www.w3.org/2000/svg" width="20" height="20" viewBox="0 0 20 20">
    <g fill="none" fill-rule="evenodd">
        <path fill="#F6F9FC" d="M-1131-444H309V556h-1440z"/>
        <path fill-rule="nonzero" stroke="#6C778E" stroke-width="1.5" d="M3.831 15.46l3.679-2.64.45.43 3.99 3.817a.519.519 0 0 0 .35.137.526.526 0 0 0 .195-.04.424.424 0 0 0 .284-.387c0-2.68.459-4.592 1.418-6.424.816-1.565 2.185-2.736 4.467-3.777a.463.463 0 0 0 .163-.098.392.392 0 0 0-.005-.582l-4.916-4.73a.518.518 0 0 0-.695-.008.588.588 0 0 0-.13.217C12.016 3.5 10.79 4.81 9.159 5.59c-1.938.915-3.916 1.348-6.696 1.348a.49.49 0 0 0-.45.274.39.39 0 0 0 .097.443l4.48 4.285-2.759 3.518z"/>
    </g>
</svg>
