<svg width="24" height="24" xmlns="http://www.w3.org/2000/svg"><g fill="none" fill-rule="evenodd"><path d="M11.957 5.45L7.701 9.704A1 1 0 016.287 8.29l5.657-5.656 5.757 5.653a1 1 0 01-1.402 1.426L11.957 5.45z" fill="#930113"/><path d="M11.957 11.45l-4.256 4.254a1 1 0 01-1.414-1.414l5.657-5.656 5.757 5.653a1 1 0 01-1.402 1.426l-4.342-4.263z" fill="#D0021B"/><path d="M11.957 17.45l-4.256 4.254a1 1 0 01-1.414-1.414l5.657-5.656 5.757 5.653a1 1 0 01-1.402 1.426l-1.26-1.238-3.082-3.025z" fill="#EC1A34"/></g></svg>