<?xml version="1.0" encoding="UTF-8"?>
<svg width="100px" height="86px" viewBox="0 0 100 86" version="1.1" xmlns="http://www.w3.org/2000/svg" xmlns:xlink="http://www.w3.org/1999/xlink">
    <title>Empty States/Processes</title>
    <g id="Future-State---License-Snap+" stroke="none" stroke-width="1" fill="none" fill-rule="evenodd">
        <g id="v2-1" transform="translate(-917.000000, -132.000000)" fill-rule="nonzero">
            <g id="Group-8" transform="translate(901.000000, 112.000000)">
                <g id="Empty-States/Processes" transform="translate(16.000000, 20.000000)">
                    <g id="empty-state-processes-green" transform="translate(0.150000, 0.000000)">
                        <g id="Group-3" transform="translate(0.600000, 0.000000)">
                            <path d="M37.05,5.364 C37.05,5.11547186 36.8485281,4.914 36.6,4.914 C36.3514719,4.914 36.15,5.11547186 36.15,5.364 C36.15,5.61252814 36.3514719,5.814 36.6,5.814 C36.8485281,5.814 37.05,5.61252814 37.05,5.364 Z M37.05,9.81 C37.05,9.56147186 36.8485281,9.36 36.6,9.36 C36.3514719,9.36 36.15,9.56147186 36.15,9.81 C36.15,10.0585281 36.3514719,10.26 36.6,10.26 C36.8485281,10.26 37.05,10.0585281 37.05,9.81 Z M37.05,14.2515 C37.05,14.0029719 36.8485281,13.8015 36.6,13.8015 C36.3514719,13.8015 36.15,14.0029719 36.15,14.2515 C36.15,14.5000281 36.3514719,14.7015 36.6,14.7015 C36.8485281,14.7015 37.05,14.5000281 37.05,14.2515 Z M37.05,18.6975 C37.05,18.4390307 36.8404693,18.2295 36.582,18.2295 C36.3235307,18.2295 36.114,18.4390307 36.114,18.6975 C36.114,18.9559693 36.3235307,19.1655 36.582,19.1655 C36.8404693,19.1655 37.05,18.9559693 37.05,18.6975 Z M36.15,23.1435 C36.15,23.4019693 36.3595307,23.6115 36.618,23.6115 C36.8764693,23.6115 37.086,23.4019693 37.086,23.1435 C37.086,22.8850307 36.8764693,22.6755 36.618,22.6755 C36.3595307,22.6755 36.15,22.8850307 36.15,23.1435 Z M36.15,27.5895 C36.15,27.8380281 36.3514719,28.0395 36.6,28.0395 C36.8485281,28.0395 37.05,27.8380281 37.05,27.5895 C37.05,27.3409719 36.8485281,27.1395 36.6,27.1395 C36.3514719,27.1395 36.15,27.3409719 36.15,27.5895 Z M37.086,32.0355 C37.086,31.7869719 36.8845281,31.5855 36.636,31.5855 C36.3874719,31.5855 36.186,31.7869719 36.186,32.0355 C36.186,32.2840281 36.3874719,32.4855 36.636,32.4855 C36.8703699,32.4666913 37.0507535,32.2706222 37.05,32.0355 L37.086,32.0355 Z M34.9485,3.15 C34.9485,2.89153074 34.7389693,2.682 34.4805,2.682 C34.2220307,2.682 34.0125,2.89153074 34.0125,3.15 C34.0125,3.40846926 34.2220307,3.618 34.4805,3.618 C34.7389693,3.618 34.9485,3.40846926 34.9485,3.15 Z M34.9485,7.596 C34.9485,7.33753074 34.7389693,7.128 34.4805,7.128 C34.2220307,7.128 34.0125,7.33753074 34.0125,7.596 C34.0125,7.85446926 34.2220307,8.064 34.4805,8.064 C34.7389693,8.064 34.9485,7.85446926 34.9485,7.596 Z M34.9485,12.0375 C34.9485,11.7889719 34.7470281,11.5875 34.4985,11.5875 C34.2499719,11.5875 34.0485,11.7889719 34.0485,12.0375 C34.0485,12.2860281 34.2499719,12.4875001 34.4985,12.4875001 C34.7401651,12.4876934 34.9388335,12.2969718 34.9485,12.0555 L34.9485,12.0375 Z M34.9485,16.4835 C34.9485,16.2349719 34.7470281,16.0335 34.4985,16.0335 C34.2499719,16.0335 34.0485,16.2349719 34.0485,16.4835 C34.0485,16.7320281 34.2499719,16.9335001 34.4985,16.9335001 C34.7401651,16.9336934 34.9388335,16.7429718 34.9485,16.5015 L34.9485,16.4835 Z M34.9485,20.9295 C34.9485,20.6809719 34.7470281,20.4795 34.4985,20.4795 C34.2499719,20.4795 34.0485,20.6809719 34.0485,20.9295 C34.0485,21.1780281 34.2499719,21.3795001 34.4985,21.3795001 C34.7401651,21.3796934 34.9388335,21.1889718 34.9485,20.9475 L34.9485,20.9295 Z M34.9485,25.3755 C34.9485,25.1269719 34.7470281,24.9255 34.4985,24.9255 C34.2499719,24.9255 34.0485,25.1269719 34.0485,25.3755 C34.0485,25.6240281 34.2499719,25.8255001 34.4985,25.8255001 C34.7401651,25.8256934 34.9388335,25.6349718 34.9485,25.3935 L34.9485,25.3755 Z M28.3605,23.1795 C28.3605,22.9309719 28.1590281,22.7295 27.9105,22.7295 C27.6619719,22.7295 27.4605,22.9309719 27.4605,23.1795 C27.4605,23.4280281 27.6619719,23.6295001 27.9105,23.6295001 C28.1521651,23.6296934 28.3508335,23.4389718 28.3605,23.1975 L28.3605,23.1795 Z M28.3605,27.621 C28.3605,27.3724719 28.1590281,27.171 27.9105,27.171 C27.6619719,27.171 27.4605,27.3724719 27.4605,27.621 C27.4605,27.8695281 27.6619719,28.0710001 27.9105,28.0710001 C28.1521651,28.0711934 28.3508335,27.8804718 28.3605,27.639 L28.3605,27.621 Z M34.9485,29.8215 C34.9485,29.5729719 34.7470281,29.3715 34.4985,29.3715 C34.2499719,29.3715 34.0485,29.5729719 34.0485,29.8215 C34.0485,30.0700281 34.2499719,30.2715001 34.4985,30.2715001 C34.7401651,30.2716934 34.9388335,30.0809718 34.9485,29.8395 L34.9485,29.8215 Z M32.6985,5.346 C32.6985,5.09747186 32.4970281,4.896 32.2485,4.896 C31.9999719,4.896 31.7985,5.09747186 31.7985,5.346 C31.7985,5.59452814 31.9999719,5.796 32.2485,5.796 C32.3678729,5.80087057 32.4842828,5.75807125 32.5720714,5.67703565 C32.6598599,5.59600005 32.7118204,5.48338049 32.7165,5.364 L32.6985,5.346 Z M32.6985,9.792 C32.6985,9.54347186 32.4970281,9.342 32.2485,9.342 C31.9999719,9.342 31.7985,9.54347186 31.7985,9.792 C31.7985,10.0405281 31.9999719,10.242 32.2485,10.242 C32.3678729,10.2468706 32.4842828,10.2040712 32.5720714,10.1230357 C32.6598599,10.0420001 32.7118204,9.92938049 32.7165,9.81 L32.6985,9.792 Z M32.6985,14.2335 C32.6985,13.9849719 32.4970281,13.7835 32.2485,13.7835 C31.9999719,13.7835 31.7985,13.9849719 31.7985,14.2335 C31.7985,14.4820281 31.9999719,14.6835 32.2485,14.6835 C32.3678729,14.6883706 32.4842828,14.6455712 32.5720714,14.5645357 C32.6598599,14.4835001 32.7118204,14.3708805 32.7165,14.2515 L32.6985,14.2335 Z M32.6985,18.6795 C32.6985,18.4309719 32.4970281,18.2295 32.2485,18.2295 C31.9999719,18.2295 31.7985,18.4309719 31.7985,18.6795 C31.7985,18.9280281 31.9999719,19.1295 32.2485,19.1295 C32.3678729,19.1343706 32.4842828,19.0915712 32.5720714,19.0105357 C32.6598599,18.9295001 32.7118204,18.8168805 32.7165,18.6975 L32.6985,18.6795 Z M31.7625,23.1255 C31.7625,23.3740281 31.9639719,23.5755 32.2125,23.5755 C32.4610281,23.5755 32.6625,23.3740281 32.6625,23.1255 C32.6625,22.8769719 32.4610281,22.6755 32.2125,22.6755 C32.0931195,22.6801796 31.9804999,22.7321401 31.8994643,22.8199286 C31.8184288,22.9077172 31.7756294,23.0241271 31.7805,23.1435 L31.7625,23.1255 Z M31.7625,27.5715 C31.7625,27.8200281 31.9639719,28.0215 32.2125,28.0215 C32.4610281,28.0215 32.6625,27.8200281 32.6625,27.5715 C32.6625,27.3229719 32.4610281,27.1215 32.2125,27.1215 C32.0931195,27.1261796 31.9804999,27.1781401 31.8994643,27.2659286 C31.8184288,27.3537172 31.7756294,27.4701271 31.7805,27.5895 L31.7625,27.5715 Z M32.6985,32.0175 C32.6985,31.7689719 32.4970281,31.5675 32.2485,31.5675 C31.9999719,31.5675 31.7985,31.7689719 31.7985,32.0175 C31.7985,32.2660281 31.9999719,32.4675 32.2485,32.4675 C32.3678729,32.4723706 32.4842828,32.4295712 32.5720714,32.3485357 C32.6598599,32.2675001 32.7118204,32.1548805 32.7165,32.0355 L32.6985,32.0175 Z M30.48,3.15 C30.48,2.90147186 30.2785281,2.7 30.03,2.7 C29.7814719,2.7 29.58,2.90147186 29.58,3.15 C29.58,3.39852814 29.7814719,3.6 30.03,3.6 C30.2785281,3.6 30.48,3.39852814 30.48,3.15 Z M30.48,7.596 C30.48,7.34747186 30.2785281,7.146 30.03,7.146 C29.7814719,7.146 29.58,7.34747186 29.58,7.596 C29.58,7.84452814 29.7814719,8.04600015 30.03,8.04600015 C30.2716651,8.04619341 30.4703335,7.85547176 30.48,7.614 L30.48,7.596 Z M30.48,12.0375 C30.48,11.7889719 30.2785281,11.5875 30.03,11.5875 C29.7814719,11.5875 29.58,11.7889719 29.58,12.0375 C29.58,12.2860281 29.7814719,12.4875001 30.03,12.4875001 C30.2716651,12.4876934 30.4703335,12.2969718 30.48,12.0555 L30.48,12.0375 Z M30.48,16.4835 C30.48,16.2349719 30.2785281,16.0335 30.03,16.0335 C29.7814719,16.0335 29.58,16.2349719 29.58,16.4835 C29.58,16.7320281 29.7814719,16.9335001 30.03,16.9335001 C30.2716651,16.9336934 30.4703335,16.7429718 30.48,16.5015 L30.48,16.4835 Z M30.48,20.9295 C30.48,20.6809719 30.2785281,20.4795 30.03,20.4795 C29.7814719,20.4795 29.58,20.6809719 29.58,20.9295 C29.58,21.1780281 29.7814719,21.3795001 30.03,21.3795001 C30.2716651,21.3796934 30.4703335,21.1889718 30.48,20.9475 L30.48,20.9295 Z M30.48,25.3755 C30.4930659,25.1785746 30.3762924,24.996116 30.192,24.9255 C30.1334625,24.901495 30.0707679,24.889262 30.0075,24.8894966 C29.7502734,24.8894966 29.54175,25.0980234 29.54175,25.35525 C29.54175,25.6124766 29.7502734,25.821 30.0075,25.821 L30.0075,25.821 C30.1268856,25.8271189 30.2437998,25.7854835 30.3324447,25.705281 C30.4210896,25.6250784 30.4741796,25.5129006 30.48,25.3935 L30.48,25.3755 Z M30.48,29.8215 C30.4930659,29.6245746 30.3762924,29.442116 30.192,29.3715 C30.1334625,29.347495 30.0707679,29.335262 30.0075,29.3355 C29.7589719,29.287037 29.518213,29.4492219 29.46975,29.69775 C29.421287,29.9462781 29.5834719,30.187037 29.832,30.2355 C29.8895035,30.2631936 29.9526842,30.2770625 30.0165,30.276 C30.1358623,30.2796346 30.2517745,30.235676 30.3387096,30.1538051 C30.4256448,30.0719342 30.4764728,29.9588655 30.48,29.8395 L30.48,29.8215 Z M28.23,5.346 C28.23,5.08753074 28.0204693,4.878 27.762,4.878 C27.5035307,4.878 27.294,5.08753074 27.294,5.346 C27.294,5.60446926 27.5035307,5.814 27.762,5.814 C28.0204693,5.814 28.23,5.60446926 28.23,5.346 L28.23,5.346 Z M28.23,9.792 C28.23,9.54347186 28.0285281,9.342 27.78,9.342 C27.5314719,9.342 27.33,9.54347186 27.33,9.792 C27.33,10.0405281 27.5314719,10.242 27.78,10.242 C27.8993729,10.2468706 28.0157828,10.2040712 28.1035714,10.1230357 C28.1913599,10.0420001 28.2433204,9.92938049 28.248,9.81 L28.23,9.792 Z M28.23,14.2335 C28.23,13.9849719 28.0285281,13.7835 27.78,13.7835 C27.5314719,13.7835 27.33,13.9849719 27.33,14.2335 C27.33,14.4820281 27.5314719,14.6835 27.78,14.6835 C27.8993729,14.6883706 28.0157828,14.6455712 28.1035714,14.5645357 C28.1913599,14.4835001 28.2433204,14.3708805 28.248,14.2515 L28.23,14.2335 Z M28.23,18.6795 C28.23,18.4309719 28.0285281,18.2295 27.78,18.2295 C27.5314719,18.2295 27.33,18.4309719 27.33,18.6795 C27.33,18.9280281 27.5314719,19.1295 27.78,19.1295 C27.8993729,19.1343706 28.0157828,19.0915712 28.1035714,19.0105357 C28.1913599,18.9295001 28.2433204,18.8168805 28.248,18.6975 L28.23,18.6795 Z M28.23,32.0175 C28.23,31.7689719 28.0285281,31.5675 27.78,31.5675 C27.5314719,31.5675 27.33,31.7689719 27.33,32.0175 C27.33,32.2660281 27.5314719,32.4675 27.78,32.4675 C27.8993729,32.4723706 28.0157828,32.4295712 28.1035714,32.3485357 C28.1913599,32.2675001 28.2433204,32.1548805 28.248,32.0355 L28.23,32.0175 Z M26.133,3.15 C26.133,2.90147186 25.9315281,2.7 25.683,2.7 C25.4344719,2.7 25.233,2.90147186 25.233,3.15 C25.233,3.39852814 25.4344719,3.6 25.683,3.6 C25.9315281,3.6 26.133,3.39852814 26.133,3.15 Z M26.133,7.596 C26.133,7.34747186 25.9315281,7.146 25.683,7.146 C25.4344719,7.146 25.233,7.34747186 25.233,7.596 C25.233,7.84452814 25.4344719,8.04600015 25.683,8.04600015 C25.9246651,8.04619341 26.1233335,7.85547176 26.133,7.614 L26.133,7.596 Z M26.133,12.0375 C26.133,11.7889719 25.9315281,11.5875 25.683,11.5875 C25.4344719,11.5875 25.233,11.7889719 25.233,12.0375 C25.233,12.2860281 25.4344719,12.4875001 25.683,12.4875001 C25.9246651,12.4876934 26.1233335,12.2969718 26.133,12.0555 L26.133,12.0375 Z M26.133,16.4835 C26.133,16.2250307 25.9234693,16.0155 25.665,16.0155 C25.4065307,16.0155 25.197,16.2250307 25.197,16.4835 C25.197,16.7419693 25.4065307,16.9515 25.665,16.9515 C25.9234693,16.9515 26.133,16.7419693 26.133,16.4835 Z M26.133,20.9295 C26.133,20.6710307 25.9234693,20.4615 25.665,20.4615 C25.4065307,20.4615 25.197,20.6710307 25.197,20.9295 C25.197,21.1879693 25.4065307,21.3975 25.665,21.3975 C25.9234693,21.3975 26.133,21.1879693 26.133,20.9295 Z M26.133,25.3755 C26.133,25.1269719 25.9315281,24.9255 25.683,24.9255 C25.4344719,24.9255 25.233,25.1269719 25.233,25.3755 C25.233,25.6240281 25.4344719,25.8255001 25.683,25.8255001 C25.9246651,25.8256934 26.1233335,25.6349718 26.133,25.3935 L26.133,25.3755 Z M26.133,29.8215 C26.133,29.5729719 25.9315281,29.3715 25.683,29.3715 C25.4344719,29.3715 25.233,29.5729719 25.233,29.8215 C25.233,30.0700281 25.4344719,30.2715001 25.683,30.2715001 C25.9246651,30.2716934 26.1233335,30.0809718 26.133,29.8395 L26.133,29.8215 Z M23.883,5.346 C23.883,5.09747186 23.6815281,4.896 23.433,4.896 C23.1844719,4.896 22.983,5.09747186 22.983,5.346 C22.983,5.59452814 23.1844719,5.796 23.433,5.796 C23.6798748,5.80360277 23.8867374,5.6107988 23.8965,5.364 L23.883,5.346 Z M23.883,9.792 C23.883,9.54347186 23.6815281,9.342 23.433,9.342 C23.1844719,9.342 22.983,9.54347186 22.983,9.792 C22.983,10.0405281 23.1844719,10.242 23.433,10.242 C23.6798748,10.2496028 23.8867374,10.0567988 23.8965,9.81 L23.883,9.792 Z M23.883,14.2335 C23.883,13.9849719 23.6815281,13.7835 23.433,13.7835 C23.1844719,13.7835 22.983,13.9849719 22.983,14.2335 C22.983,14.4820281 23.1844719,14.6835 23.433,14.6835 C23.6798748,14.6911028 23.8867374,14.4982988 23.8965,14.2515 L23.883,14.2335 Z M23.883,18.6795 C23.883,18.4309719 23.6815281,18.2295 23.433,18.2295 C23.1844719,18.2295 22.983,18.4309719 22.983,18.6795 C22.983,18.9280281 23.1844719,19.1295 23.433,19.1295 C23.6798748,19.1371028 23.8867374,18.9442988 23.8965,18.6975 L23.883,18.6795 Z M23.883,23.1255 C23.883,22.8769719 23.6815281,22.6755 23.433,22.6755 C23.1844719,22.6755 22.983,22.8769719 22.983,23.1255 C22.983,23.3740281 23.1844719,23.5755 23.433,23.5755 C23.6798748,23.5831028 23.8867374,23.3902988 23.8965,23.1435 L23.883,23.1255 Z M23.883,27.5715 C23.883,27.3229719 23.6815281,27.1215 23.433,27.1215 C23.1844719,27.1215 22.983,27.3229719 22.983,27.5715 C22.983,27.8200281 23.1844719,28.0215 23.433,28.0215 C23.6798748,28.0291028 23.8867374,27.8362988 23.8965,27.5895 L23.883,27.5715 Z M23.883,32.0175 C23.883,31.7689719 23.6815281,31.5675 23.433,31.5675 C23.1844719,31.5675 22.983,31.7689719 22.983,32.0175 C22.983,32.2660281 23.1844719,32.4675 23.433,32.4675 C23.6798748,32.4751028 23.8867374,32.2822988 23.8965,32.0355 L23.883,32.0175 Z M21.633,3.15 C21.633,2.90147186 21.4315281,2.7 21.183,2.7 C20.9344719,2.7 20.733,2.90147186 20.733,3.15 C20.733,3.39852814 20.9344719,3.6 21.183,3.6 C21.3077048,3.60875118 21.4304299,3.56523282 21.5217635,3.47987439 C21.613097,3.39451597 21.6648067,3.27501111 21.6645014,3.15 L21.633,3.15 Z M21.633,7.596 C21.633,7.34747186 21.4315281,7.146 21.183,7.146 C20.9344719,7.146 20.733,7.34747186 20.733,7.596 C20.733,7.84452814 20.9344719,8.046 21.183,8.046 C21.3046373,8.05462173 21.4245658,8.01350962 21.5153314,7.9320751 C21.606097,7.85064058 21.6599275,7.73585672 21.6645,7.614 L21.633,7.596 Z M21.633,12.0375 C21.633,11.7889719 21.4315281,11.5875 21.183,11.5875 C20.9344719,11.5875 20.733,11.7889719 20.733,12.0375 C20.733,12.2860281 20.9344719,12.4875 21.183,12.4875 C21.3046373,12.4961217 21.4245658,12.4550096 21.5153314,12.3735751 C21.606097,12.2921406 21.6599275,12.1773567 21.6645,12.0555 L21.633,12.0375 Z M21.633,16.4835 C21.633,16.2349719 21.4315281,16.0335 21.183,16.0335 C20.9344719,16.0335 20.733,16.2349719 20.733,16.4835 C20.733,16.7320281 20.9344719,16.9335 21.183,16.9335 C21.3046373,16.9421217 21.4245658,16.9010096 21.5153314,16.8195751 C21.606097,16.7381406 21.6599275,16.6233567 21.6645,16.5015 L21.633,16.4835 Z M21.633,20.9295 C21.633,20.6809719 21.4315281,20.4795 21.183,20.4795 C20.9344719,20.4795 20.733,20.6809719 20.733,20.9295 C20.733,21.1780281 20.9344719,21.3795 21.183,21.3795 C21.3046373,21.3881217 21.4245658,21.3470096 21.5153314,21.2655751 C21.606097,21.1841406 21.6599275,21.0693567 21.6645,20.9475 L21.633,20.9295 Z M21.633,25.3755 C21.633,25.1269719 21.4315281,24.9255 21.183,24.9255 C20.9344719,24.9255 20.733,25.1269719 20.733,25.3755 C20.733,25.6240281 20.9344719,25.8255 21.183,25.8255 C21.3046373,25.8341217 21.4245658,25.7930096 21.5153314,25.7115751 C21.606097,25.6301406 21.6599275,25.5153567 21.6645,25.3935 L21.633,25.3755 Z M21.633,29.8215 C21.633,29.5729719 21.4315281,29.3715 21.183,29.3715 C20.9344719,29.3715 20.733,29.5729719 20.733,29.8215 C20.733,30.0700281 20.9344719,30.2715 21.183,30.2715 C21.3046373,30.2801217 21.4245658,30.2390096 21.5153314,30.1575751 C21.606097,30.0761406 21.6599275,29.9613567 21.6645,29.8395 L21.633,29.8215 Z M19.383,5.346 C19.383,5.09747186 19.1815281,4.896 18.933,4.896 C18.6844719,4.896 18.483,5.09747186 18.483,5.346 C18.483,5.59452814 18.6844719,5.796 18.933,5.796 C19.0575881,5.80986116 19.1823113,5.77112526 19.2771265,5.68912286 C19.3719418,5.60712046 19.4282544,5.4892849 19.4325,5.364 L19.383,5.346 Z M19.383,9.792 C19.383,9.54347186 19.1815281,9.342 18.933,9.342 C18.6844719,9.342 18.483,9.54347186 18.483,9.792 C18.483,10.0405281 18.6844719,10.242 18.933,10.242 C19.0575881,10.2558612 19.1823113,10.2171253 19.2771265,10.1351229 C19.3719418,10.0531205 19.4282544,9.9352849 19.4325,9.81 L19.383,9.792 Z M19.383,14.2335 C19.383,13.9849719 19.1815281,13.7835 18.933,13.7835 C18.6844719,13.7835 18.483,13.9849719 18.483,14.2335 C18.483,14.4820281 18.6844719,14.6835 18.933,14.6835 C19.0575881,14.6973612 19.1823113,14.6586253 19.2771265,14.5766229 C19.3719418,14.4946205 19.4282544,14.3767849 19.4325,14.2515 L19.383,14.2335 Z M19.383,18.6795 C19.383,18.4210307 19.1734693,18.2115 18.915,18.2115 C18.6565307,18.2115 18.447,18.4210307 18.447,18.6795 C18.447,18.9379693 18.6565307,19.1475 18.915,19.1475 C19.1734693,19.1475 19.383,18.9379693 19.383,18.6795 Z M19.383,23.1255 C19.383,22.8670307 19.1734693,22.6575 18.915,22.6575 C18.6565307,22.6575 18.447,22.8670307 18.447,23.1255 C18.447,23.3839693 18.6565307,23.5935 18.915,23.5935 C19.1734693,23.5935 19.383,23.3839693 19.383,23.1255 Z M19.383,27.5715 C19.383,27.3229719 19.1815281,27.1215 18.933,27.1215 C18.6844719,27.1215 18.483,27.3229719 18.483,27.5715 C18.483,27.8200281 18.6844719,28.0215 18.933,28.0215 C19.0575881,28.0353612 19.1823113,27.9966253 19.2771265,27.9146229 C19.3719418,27.8326205 19.4282544,27.7147849 19.4325,27.5895 L19.383,27.5715 Z M19.383,32.0175 C19.383,31.7689719 19.1815281,31.5675 18.933,31.5675 C18.6844719,31.5675 18.483,31.7689719 18.483,32.0175 C18.483,32.2660281 18.6844719,32.4675 18.933,32.4675 C19.0575881,32.4813612 19.1823113,32.4426253 19.2771265,32.3606229 C19.3719418,32.2786205 19.4282544,32.1607849 19.4325,32.0355 L19.383,32.0175 Z M17.313,3.15 C17.313,2.89153074 17.1034693,2.682 16.845,2.682 C16.5865307,2.682 16.377,2.89153074 16.377,3.15 C16.377,3.40846926 16.5865307,3.618 16.845,3.618 C17.1034693,3.618 17.313,3.40846926 17.313,3.15 Z M17.313,7.596 C17.313,7.34747186 17.1115281,7.146 16.863,7.146 C16.6144719,7.146 16.413,7.34747186 16.413,7.596 C16.413,7.84452814 16.6144719,8.04600015 16.863,8.04600015 C17.1046651,8.04619341 17.3033335,7.85547176 17.313,7.614 L17.313,7.596 Z M17.313,12.0375 C17.313,11.7889719 17.1115281,11.5875 16.863,11.5875 C16.6144719,11.5875 16.413,11.7889719 16.413,12.0375 C16.413,12.2860281 16.6144719,12.4875001 16.863,12.4875001 C17.1046651,12.4876934 17.3033335,12.2969718 17.313,12.0555 L17.313,12.0375 Z M17.313,16.4835 C17.313,16.2349719 17.1115281,16.0335 16.863,16.0335 C16.6144719,16.0335 16.413,16.2349719 16.413,16.4835 C16.413,16.7320281 16.6144719,16.9335001 16.863,16.9335001 C17.1046651,16.9336934 17.3033335,16.7429718 17.313,16.5015 L17.313,16.4835 Z M17.313,20.9295 C17.313,20.6809719 17.1115281,20.4795 16.863,20.4795 C16.6144719,20.4795 16.413,20.6809719 16.413,20.9295 C16.413,21.1780281 16.6144719,21.3795001 16.863,21.3795001 C17.1046651,21.3796934 17.3033335,21.1889718 17.313,20.9475 L17.313,20.9295 Z M17.313,25.3755 C17.313,25.1269719 17.1115281,24.9255 16.863,24.9255 C16.6144719,24.9255 16.413,25.1269719 16.413,25.3755 C16.413,25.6240281 16.6144719,25.8255001 16.863,25.8255001 C17.1046651,25.8256934 17.3033335,25.6349718 17.313,25.3935 L17.313,25.3755 Z M17.313,29.8215 C17.313,29.5729719 17.1115281,29.3715 16.863,29.3715 C16.6144719,29.3715 16.413,29.5729719 16.413,29.8215 C16.413,30.0700281 16.6144719,30.2715001 16.863,30.2715001 C17.1046651,30.2716934 17.3033335,30.0809718 17.313,29.8395 L17.313,29.8215 Z M15.063,5.346 C15.063,5.09747186 14.8615281,4.896 14.613,4.896 C14.3644719,4.896 14.163,5.09747186 14.163,5.346 C14.163,5.59452814 14.3644719,5.796 14.613,5.796 C14.7323729,5.80087057 14.8487828,5.75807125 14.9365714,5.67703565 C15.0243599,5.59600005 15.0763204,5.48338049 15.081,5.364 L15.063,5.346 Z M15.063,9.792 C15.063,9.54347186 14.8615281,9.342 14.613,9.342 C14.3644719,9.342 14.163,9.54347186 14.163,9.792 C14.163,10.0405281 14.3644719,10.242 14.613,10.242 C14.7323729,10.2468706 14.8487828,10.2040712 14.9365714,10.1230357 C15.0243599,10.0420001 15.0763204,9.92938049 15.081,9.81 L15.063,9.792 Z M15.063,14.2335 C15.063,13.9849719 14.8615281,13.7835 14.613,13.7835 C14.3644719,13.7835 14.163,13.9849719 14.163,14.2335 C14.163,14.4820281 14.3644719,14.6835 14.613,14.6835 C14.7323729,14.6883706 14.8487828,14.6455712 14.9365714,14.5645357 C15.0243599,14.4835001 15.0763204,14.3708805 15.081,14.2515 L15.063,14.2335 Z M15.063,18.6795 C15.063,18.4309719 14.8615281,18.2295 14.613,18.2295 C14.3644719,18.2295 14.163,18.4309719 14.163,18.6795 C14.163,18.9280281 14.3644719,19.1295 14.613,19.1295 C14.7323729,19.1343706 14.8487828,19.0915712 14.9365714,19.0105357 C15.0243599,18.9295001 15.0763204,18.8168805 15.081,18.6975 L15.063,18.6795 Z M15.063,23.1255 C15.063,22.8769719 14.8615281,22.6755 14.613,22.6755 C14.3644719,22.6755 14.163,22.8769719 14.163,23.1255 C14.163,23.3740281 14.3644719,23.5755 14.613,23.5755 C14.7323729,23.5803706 14.8487828,23.5375712 14.9365714,23.4565357 C15.0243599,23.3755001 15.0763204,23.2628805 15.081,23.1435 L15.063,23.1255 Z M15.063,27.5715 C15.063,27.3229719 14.8615281,27.1215 14.613,27.1215 C14.3644719,27.1215 14.163,27.3229719 14.163,27.5715 C14.163,27.8200281 14.3644719,28.0215 14.613,28.0215 C14.7323729,28.0263706 14.8487828,27.9835712 14.9365714,27.9025357 C15.0243599,27.8215001 15.0763204,27.7088805 15.081,27.5895 L15.063,27.5715 Z M15.063,32.0175 C15.063,31.7689719 14.8615281,31.5675 14.613,31.5675 C14.3644719,31.5675 14.163,31.7689719 14.163,32.0175 C14.163,32.2660281 14.3644719,32.4675 14.613,32.4675 C14.7323729,32.4723706 14.8487828,32.4295712 14.9365714,32.3485357 C15.0243599,32.2675001 15.0763204,32.1548805 15.081,32.0355 L15.063,32.0175 Z M12.8445,3.15 C12.8445,2.90147186 12.6430281,2.7 12.3945,2.7 C12.1459719,2.7 11.9445,2.90147186 11.9445,3.15 C11.9445,3.39852814 12.1459719,3.6 12.3945,3.6 C12.6430281,3.6 12.8445,3.39852814 12.8445,3.15 Z M12.8445,7.596 C12.8445,7.34747186 12.6430281,7.146 12.3945,7.146 C12.1459719,7.146 11.9445,7.34747186 11.9445,7.596 C11.9445,7.84452814 12.1459719,8.04600015 12.3945,8.04600015 C12.6361651,8.04619341 12.8348335,7.85547176 12.8445,7.614 L12.8445,7.596 Z M12.8445,12.0375 C12.8445,11.7889719 12.6430281,11.5875 12.3945,11.5875 C12.1459719,11.5875 11.9445,11.7889719 11.9445,12.0375 C11.9445,12.2860281 12.1459719,12.4875001 12.3945,12.4875001 C12.6361651,12.4876934 12.8348335,12.2969718 12.8445,12.0555 L12.8445,12.0375 Z M12.8445,16.4835 C12.8445,16.2349719 12.6430281,16.0335 12.3945,16.0335 C12.1459719,16.0335 11.9445,16.2349719 11.9445,16.4835 C11.9445,16.7320281 12.1459719,16.9335001 12.3945,16.9335001 C12.6361651,16.9336934 12.8348335,16.7429718 12.8445,16.5015 L12.8445,16.4835 Z M12.8445,20.9295 C12.8445,20.6710307 12.6349693,20.4615 12.3765,20.4615 C12.1180307,20.4615 11.9085,20.6710307 11.9085,20.9295 C11.9085,21.1879693 12.1180307,21.3975 12.3765,21.3975 C12.6349693,21.3975 12.8445,21.1879693 12.8445,20.9295 Z M12.8445,25.3755 C12.8445,25.1269719 12.6430281,24.9255 12.3945,24.9255 C12.1459719,24.9255 11.9445,25.1269719 11.9445,25.3755 C11.9445,25.6240281 12.1459719,25.8255 12.3945,25.8255 C12.6379058,25.8281284 12.8392774,25.6367258 12.849,25.3935 L12.8445,25.3755 Z M12.8445,29.8215 C12.8445,29.5729719 12.6430281,29.3715 12.3945,29.3715 C12.1459719,29.3715 11.9445,29.5729719 11.9445,29.8215 C11.9445,30.0700281 12.1459719,30.2715 12.3945,30.2715 C12.6379058,30.2741284 12.8392774,30.0827258 12.849,29.8395 L12.8445,29.8215 Z" id="Shape" fill="#7F7F7F"></path>
                            <path d="M9.9645,5.364 C9.9645,5.11547186 9.76302814,4.914 9.5145,4.914 C9.26597186,4.914 9.0645,5.11547186 9.0645,5.364 C9.0645,5.61252814 9.26597186,5.814 9.5145,5.814 C9.76302814,5.814 9.9645,5.61252814 9.9645,5.364 Z M9.9645,9.81 C9.9645,9.56147186 9.76302814,9.36 9.5145,9.36 C9.26597186,9.36 9.0645,9.56147186 9.0645,9.81 C9.0645,10.0585281 9.26597186,10.26 9.5145,10.26 C9.76302814,10.26 9.9645,10.0585281 9.9645,9.81 Z M9.9645,14.2515 C9.9645,14.0029719 9.76302814,13.8015 9.5145,13.8015 C9.26597186,13.8015 9.0645,14.0029719 9.0645,14.2515 C9.0645,14.5000281 9.26597186,14.7015 9.5145,14.7015 C9.76302814,14.7015 9.9645,14.5000281 9.9645,14.2515 Z M9.9645,18.6975 C9.9645,18.4489719 9.76302814,18.2475 9.5145,18.2475 C9.26597186,18.2475 9.0645,18.4489719 9.0645,18.6975 C9.0645,18.9460281 9.26597186,19.1475 9.5145,19.1475 C9.76302814,19.1475 9.9645,18.9460281 9.9645,18.6975 Z M9.0285,23.1435 C9.0285,23.3920281 9.22997186,23.5935 9.4785,23.5935 C9.72702814,23.5935 9.9285,23.3920281 9.9285,23.1435 C9.9285,22.8949719 9.72702814,22.6935 9.4785,22.6935 C9.22997186,22.6935 9.0285,22.8949719 9.0285,23.1435 L9.0285,23.1435 Z M9.0285,27.5895 C9.0285,27.8380281 9.22997186,28.0395 9.4785,28.0395 C9.72702814,28.0395 9.9285,27.8380281 9.9285,27.5895 C9.9285,27.3409719 9.72702814,27.1395 9.4785,27.1395 C9.22997186,27.1395 9.0285,27.3409719 9.0285,27.5895 L9.0285,27.5895 Z M9.9645,32.0355 C9.9645,31.7869719 9.76302814,31.5855 9.5145,31.5855 C9.26597186,31.5855 9.0645,31.7869719 9.0645,32.0355 C9.0645,32.2840281 9.26597186,32.4855 9.5145,32.4855 C9.76302814,32.4855 9.9645,32.2840281 9.9645,32.0355 L9.9645,32.0355 Z M7.7325,3.15 C7.7325,2.90147186 7.53102814,2.7 7.2825,2.7 C7.03397186,2.7 6.8325,2.90147186 6.8325,3.15 C6.8325,3.39852814 7.03397186,3.6 7.2825,3.6 C7.53102814,3.6 7.7325,3.39852814 7.7325,3.15 Z M7.7325,7.596 C7.7325,7.34747186 7.53102814,7.146 7.2825,7.146 C7.03397186,7.146 6.8325,7.34747186 6.8325,7.596 C6.8325,7.84452814 7.03397186,8.04600015 7.2825,8.04600015 C7.52416509,8.04619341 7.72283347,7.85547176 7.7325,7.614 L7.7325,7.596 Z M7.7325,12.0375 C7.7325,11.7889719 7.53102814,11.5875 7.2825,11.5875 C7.03397186,11.5875 6.8325,11.7889719 6.8325,12.0375 C6.8325,12.2860281 7.03397186,12.4875001 7.2825,12.4875001 C7.52416509,12.4876934 7.72283347,12.2969718 7.7325,12.0555 L7.7325,12.0375 Z M7.7325,16.4835 C7.7325,16.2250307 7.52296926,16.0155 7.2645,16.0155 C7.00603074,16.0155 6.7965,16.2250307 6.7965,16.4835 C6.7965,16.7419693 7.00603074,16.9515 7.2645,16.9515 C7.52296926,16.9515 7.7325,16.7419693 7.7325,16.4835 Z M7.7325,20.9295 C7.7325,20.6710307 7.52296926,20.4615 7.2645,20.4615 C7.00603074,20.4615 6.7965,20.6710307 6.7965,20.9295 C6.7965,21.1879693 7.00603074,21.3975 7.2645,21.3975 C7.52296926,21.3975 7.7325,21.1879693 7.7325,20.9295 Z M7.7325,25.3755 C7.7325,25.1269719 7.53102814,24.9255 7.2825,24.9255 C7.03397186,24.9255 6.8325,25.1269719 6.8325,25.3755 C6.8325,25.6240281 7.03397186,25.8255001 7.2825,25.8255001 C7.52416509,25.8256934 7.72283347,25.6349718 7.7325,25.3935 L7.7325,25.3755 Z M7.7325,29.8215 C7.7325,29.5729719 7.53102814,29.3715 7.2825,29.3715 C7.03397186,29.3715 6.8325,29.5729719 6.8325,29.8215 C6.8325,30.0700281 7.03397186,30.2715001 7.2825,30.2715001 C7.52416509,30.2716934 7.72283347,30.0809718 7.7325,29.8395 L7.7325,29.8215 Z M5.4825,5.346 C5.4825,5.08753074 5.27296926,4.878 5.0145,4.878 C4.75603074,4.878 4.5465,5.08753074 4.5465,5.346 C4.5465,5.60446926 4.75603074,5.814 5.0145,5.814 C5.27296926,5.814 5.4825,5.60446926 5.4825,5.346 L5.4825,5.346 Z M5.4825,9.792 C5.4825,9.54347186 5.28102814,9.342 5.0325,9.342 C4.78397186,9.342 4.5825,9.54347186 4.5825,9.792 C4.5825,10.0405281 4.78397186,10.242 5.0325,10.242 C5.27937478,10.2496028 5.48623737,10.0567988 5.496,9.81 L5.4825,9.792 Z M5.4825,14.2335 C5.4825,13.9849719 5.28102814,13.7835 5.0325,13.7835 C4.78397186,13.7835 4.5825,13.9849719 4.5825,14.2335 C4.5825,14.4820281 4.78397186,14.6835 5.0325,14.6835 C5.27937478,14.6911028 5.48623737,14.4982988 5.496,14.2515 L5.4825,14.2335 Z M5.4825,18.6795 C5.4825,18.4309719 5.28102814,18.2295 5.0325,18.2295 C4.78397186,18.2295 4.5825,18.4309719 4.5825,18.6795 C4.5825,18.9280281 4.78397186,19.1295 5.0325,19.1295 C5.27937478,19.1371028 5.48623737,18.9442988 5.496,18.6975 L5.4825,18.6795 Z M4.5465,23.1255 C4.5465,23.3740281 4.74797186,23.5755 4.9965,23.5755 C5.24502814,23.5755 5.4465,23.3740281 5.4465,23.1255 C5.4465,22.8769719 5.24502814,22.6755 4.9965,22.6755 C4.87632639,22.6790085 4.76255353,22.7304588 4.68055207,22.8183779 C4.5985506,22.906297 4.5551398,23.0233735 4.56,23.1435 L4.5465,23.1255 Z M4.5465,27.5715 C4.5465,27.8200281 4.74797186,28.0215 4.9965,28.0215 C5.24502814,28.0215 5.4465,27.8200281 5.4465,27.5715 C5.4465,27.3229719 5.24502814,27.1215 4.9965,27.1215 C4.87632639,27.1250085 4.76255353,27.1764588 4.68055207,27.2643779 C4.5985506,27.352297 4.5551398,27.4693735 4.56,27.5895 L4.5465,27.5715 Z M5.4825,32.0175 C5.4825,31.7689719 5.28102814,31.5675 5.0325,31.5675 C4.78397186,31.5675 4.5825,31.7689719 4.5825,32.0175 C4.5825,32.2660281 4.78397186,32.4675 5.0325,32.4675 C5.27937478,32.4751028 5.48623737,32.2822988 5.496,32.0355 L5.4825,32.0175 Z M3.381,3.15 C3.381,2.90147186 3.17952814,2.7 2.931,2.7 C2.68247186,2.7 2.481,2.90147186 2.481,3.15 C2.481,3.39852814 2.68247186,3.6 2.931,3.6 C3.17952814,3.6 3.381,3.39852814 3.381,3.15 Z M3.381,7.596 C3.381,7.34747186 3.17952814,7.146 2.931,7.146 C2.68247186,7.146 2.481,7.34747186 2.481,7.596 C2.481,7.84452814 2.68247186,8.04600015 2.931,8.04600015 C3.17266509,8.04619341 3.37133347,7.85547176 3.381,7.614 L3.381,7.596 Z M3.381,12.0375 C3.381,11.7889719 3.17952814,11.5875 2.931,11.5875 C2.68247186,11.5875 2.481,11.7889719 2.481,12.0375 C2.481,12.2860281 2.68247186,12.4875001 2.931,12.4875001 C3.17266509,12.4876934 3.37133347,12.2969718 3.381,12.0555 L3.381,12.0375 Z M3.381,16.4835 C3.381,16.2349719 3.17952814,16.0335 2.931,16.0335 C2.68247186,16.0335 2.481,16.2349719 2.481,16.4835 C2.481,16.7320281 2.68247186,16.9335001 2.931,16.9335001 C3.17266509,16.9336934 3.37133347,16.7429718 3.381,16.5015 L3.381,16.4835 Z M3.381,20.9295 C3.381,20.6809719 3.17952814,20.4795 2.931,20.4795 C2.68247186,20.4795 2.481,20.6809719 2.481,20.9295 C2.481,21.1780281 2.68247186,21.3795001 2.931,21.3795001 C3.17266509,21.3796934 3.37133347,21.1889718 3.381,20.9475 L3.381,20.9295 Z M3.381,25.3755 C3.381,25.1269719 3.17952814,24.9255 2.931,24.9255 C2.68247186,24.9255 2.481,25.1269719 2.481,25.3755 C2.481,25.6240281 2.68247186,25.8255001 2.931,25.8255001 C3.17266509,25.8256934 3.37133347,25.6349718 3.381,25.3935 L3.381,25.3755 Z M3.381,29.8215 C3.381,29.5729719 3.17952814,29.3715 2.931,29.3715 C2.68247186,29.3715 2.481,29.5729719 2.481,29.8215 C2.481,30.0700281 2.68247186,30.2715001 2.931,30.2715001 C3.17266509,30.2716934 3.37133347,30.0809718 3.381,29.8395 L3.381,29.8215 Z M1.131,5.346 C1.131,5.09747186 0.929528137,4.896 0.681,4.896 C0.432471863,4.896 0.231,5.09747186 0.231,5.346 C0.231,5.59452814 0.432471863,5.796 0.681,5.796 C0.927874778,5.80360277 1.13473737,5.6107988 1.1445,5.364 L1.131,5.346 Z M1.131,9.792 C1.131,9.54347186 0.929528137,9.342 0.681,9.342 C0.432471863,9.342 0.231,9.54347186 0.231,9.792 C0.231,10.0405281 0.432471863,10.242 0.681,10.242 C0.927874778,10.2496028 1.13473737,10.0567988 1.1445,9.81 L1.131,9.792 Z M1.131,14.2335 C1.131,13.9849719 0.929528137,13.7835 0.681,13.7835 C0.432471863,13.7835 0.231,13.9849719 0.231,14.2335 C0.231,14.4820281 0.432471863,14.6835 0.681,14.6835 C0.927874778,14.6911028 1.13473737,14.4982988 1.1445,14.2515 L1.131,14.2335 Z M1.131,18.6795 C1.131,18.4309719 0.929528137,18.2295 0.681,18.2295 C0.432471863,18.2295 0.231,18.4309719 0.231,18.6795 C0.231,18.9280281 0.432471863,19.1295 0.681,19.1295 C0.927874778,19.1371028 1.13473737,18.9442988 1.1445,18.6975 L1.131,18.6795 Z M0.1995,23.1255 C0.1995,23.3740281 0.400971863,23.5755 0.6495,23.5755 C0.898028137,23.5755 1.0995,23.3740281 1.0995,23.1255 C1.0995,22.8769719 0.898028137,22.6755 0.6495,22.6755 C0.529326385,22.6790085 0.41555353,22.7304588 0.333552067,22.8183779 C0.251550604,22.906297 0.208139803,23.0233735 0.213,23.1435 L0.1995,23.1255 Z M0.1995,27.5715 C0.1995,27.8200281 0.400971863,28.0215 0.6495,28.0215 C0.898028137,28.0215 1.0995,27.8200281 1.0995,27.5715 C1.0995,27.3229719 0.898028137,27.1215 0.6495,27.1215 C0.529326385,27.1250085 0.41555353,27.1764588 0.333552067,27.2643779 C0.251550604,27.352297 0.208139803,27.4693735 0.213,27.5895 L0.1995,27.5715 Z M1.131,32.0175 C1.131,31.7689719 0.929528137,31.5675 0.681,31.5675 C0.432471863,31.5675 0.231,31.7689719 0.231,32.0175 C0.231,32.2660281 0.432471863,32.4675 0.681,32.4675 C0.927874778,32.4751028 1.13473737,32.2822988 1.1445,32.0355 L1.131,32.0175 Z" id="Shape" fill="#7F7F7F"></path>
                            <path d="M21.8535,37.0125 L11.8095,37.0125 C8.28040045,37.0125 5.4195,39.8734004 5.4195,43.4025 L5.4195,45.396 L10.707,45.396 C12.5341559,45.3982532 14.0145014,46.8804263 14.0145,48.7079997 L14.0145,73.6965 C14.0145,75.5231818 12.5336818,77.004 10.707,77.004 L5.4195,77.004 L5.4195,79.2855 C5.4195,82.8145996 8.28040045,85.6755 11.8095,85.6755 L21.858,85.6755 C25.3870996,85.6755 28.248,82.8145996 28.248,79.2855 L28.248,77.004 L22.9605,77.004 C21.1338182,77.004 19.653,75.5231818 19.653,73.6965 L19.653,48.708 C19.6529944,46.8820168 21.1308557,45.400502 22.9568323,45.395999 L28.2435,45.396 L28.2435,43.4025 C28.2435,41.7077666 27.5702698,40.0824451 26.3719123,38.8840877 C25.1735549,37.6857302 23.5482334,37.0125 21.8535,37.0125 Z M11.8095,37.6875 L21.8535,37.6875 C23.3692122,37.6875 24.8228449,38.2896143 25.8946153,39.3613847 L26.0076446,39.4776639 C27.0086258,40.5370652 27.5685,41.9409203 27.5685,43.4025 L27.5685,44.72055 L22.956,44.721 C20.7570491,44.7264218 18.9779933,46.5098758 18.978,48.708001 L18.978,73.6965 L18.9796979,73.8139228 C19.0418123,75.9590849 20.8003023,77.679 22.9605,77.679 L27.573,77.679 L27.573,79.2855 C27.573,82.4418073 25.0143073,85.0005 21.858,85.0005 L11.8095,85.0005 L11.6706451,84.9988462 C8.57849034,84.9251151 6.0945,82.3953911 6.0945,79.2855 L6.09405,77.679 L10.707,77.679 C12.906474,77.679 14.6895,75.895974 14.6895,73.6965 L14.6895,48.708 L14.6878031,48.5905462 C14.6257239,46.4448044 12.8681689,44.7236646 10.7074162,44.7210003 L6.09405,44.72055 L6.0945,43.4025 C6.0945,40.2461927 8.65319265,37.6875 11.8095,37.6875 Z" id="Path" fill="#000000"></path>
                            <path d="M69.4725,37.0125 L59.424,37.0125 C55.8965053,37.0151226 53.0385,39.8752547 53.0385,43.4025 L53.0385,45.396 L58.6725,45.396 C60.4996559,45.3982532 61.9800014,46.8804263 61.98,48.7079997 L61.98,73.6965 C61.98,75.5231818 60.4991818,77.004 58.6725,77.004 L53.0385,77.004 L53.0385,79.2855 C53.0385,82.8127453 55.8965053,85.6728774 59.4237491,85.6755 L69.4725,85.6755 C71.1668637,85.6755 72.7917609,85.0020919 73.9894109,83.8035509 C75.1870606,82.60501 75.8592605,80.9796125 75.8580034,79.2852492 L75.8580034,77.004 L70.9305,77.004 C69.1038182,77.004 67.623,75.5231818 67.623,73.6965 L67.623,48.708 C67.6229986,46.8804263 69.1033441,45.3982532 70.9309162,45.3959997 L75.8580034,45.396 L75.8580034,43.4025 C75.8592605,41.7083875 75.1870606,40.08299 73.9894109,38.8844491 C72.7917609,37.6859081 71.1668637,37.0125 69.4725,37.0125 Z M59.4242509,37.6874999 L69.4725,37.6874999 C70.9877557,37.6874999 72.4408879,38.2897233 73.5119363,39.3615687 L73.6248874,39.4778554 C74.6251553,40.5373198 75.1840874,41.94111 75.1830033,43.4022492 L75.1830033,44.721 L70.9305,44.721 C68.7300447,44.723713 66.9479983,46.5079594 66.948,48.7080003 L66.948,73.6965 L66.9496979,73.8139228 C67.0118123,75.9590849 68.7703023,77.679 70.9305,77.679 L75.1830033,77.679 L75.1830033,79.2855 C75.1841276,80.8010063 74.5829847,82.254586 73.5119363,83.3264313 C72.4408879,84.3982767 70.9877557,85.0005 69.4725,85.0005 L59.424,85.0005 L59.2852298,84.9987447 C56.1949767,84.9227901 53.7135,82.3937572 53.7135,79.2855 L53.7135,77.679 L58.6725,77.679 C60.871974,77.679 62.655,75.895974 62.655,73.6965 L62.655,48.708 L62.6533031,48.5905462 C62.5912239,46.4448044 60.8336689,44.7236646 58.6729162,44.7210003 L53.7135,44.721 L53.7135,43.4025 C53.7135,40.2478509 56.2696034,37.6898454 59.4242509,37.6874999 Z" id="Path" fill="#000000"></path>
                            <path d="M10.7029162,44.721 L4.3395,44.721 C2.1375407,44.721 0.3525,46.5060407 0.3525,48.708 L0.3525,73.6965 C0.355213007,75.8969548 2.1394588,77.679 4.3395,77.679 L10.7025,77.679 C12.901974,77.679 14.685,75.895974 14.685,73.6965 L14.685,48.708 C14.685,46.5079588 12.9029548,44.723713 10.7029162,44.721 Z M4.3395,45.396 L10.7025,45.396 C12.5296554,45.3982532 14.01,46.8804259 14.01,48.708 L14.01,73.6965 C14.01,75.5231818 12.5291818,77.004 10.7025,77.004 L4.3395,77.004 C2.51192585,77.004 1.02975322,75.5236554 1.02749974,73.6960838 L1.02749974,48.708 C1.02749974,46.8788329 2.51033291,45.396 4.3395,45.396 Z" id="Path" fill="#000000"></path>
                            <path d="M29.3235,44.721 L22.9605,44.721 C20.7600452,44.723713 18.978,46.5079588 18.978,48.708 L18.978,73.6965 C18.978,75.895974 20.761026,77.679 22.9605,77.679 L29.3235,77.679 C31.5235412,77.679 33.307787,75.8969548 33.3105,73.6969162 L33.3105,48.708 C33.3105,46.5060407 31.5254593,44.721 29.3235,44.721 Z M22.9609162,45.3959997 L29.3235,45.3959997 C31.1526671,45.3959997 32.6355,46.8788329 32.6355,48.708 L32.6355,73.6965 C32.6332468,75.5236554 31.1510741,77.004 29.3235,77.004 L22.9605,77.004 C21.1338182,77.004 19.653,75.5231818 19.653,73.6965 L19.653,48.708 C19.653,46.8804259 21.1333446,45.3982532 22.9609162,45.3959997 Z" id="Path" fill="#000000"></path>
                            <path d="M58.6729162,44.721 L52.3095,44.721 C51.2520819,44.721 50.2379728,45.1410577 49.4902653,45.8887653 C48.7425577,46.6364728 48.3225,47.6505819 48.3225,48.708 L48.3225,73.6965 C48.325213,75.8969548 50.1094588,77.679 52.3095,77.679 L58.6725,77.679 C60.871974,77.679 62.655,75.895974 62.655,73.6965 L62.655,48.708 C62.655,46.5079588 60.8729548,44.723713 58.6729162,44.721 Z M52.3095,45.396 L58.6725,45.396 C60.4996554,45.3982532 61.98,46.8804259 61.98,48.708 L61.98,73.6965 C61.98,75.5231818 60.4991818,77.004 58.6725,77.004 L52.3095,77.004 C50.4819259,77.004 48.9997532,75.5236554 48.9974997,73.6960838 L48.9974997,48.708 C48.9974997,47.829603 49.3464419,46.9871828 49.9675623,46.3660623 C50.5886828,45.7449419 51.431103,45.396 52.3095,45.396 Z" id="Path" fill="#000000"></path>
                            <path d="M77.2935,44.721 L70.9305,44.721 C68.7300452,44.723713 66.948,46.5079588 66.948,48.708 L66.948,73.6965 C66.948,75.895974 68.731026,77.679 70.9305,77.679 L77.2935,77.679 C79.4935412,77.679 81.277787,75.8969548 81.2805,73.6969162 L81.2805,48.708 C81.2805,46.5060407 79.4954593,44.721 77.2935,44.721 Z M70.9309162,45.3959997 L77.2935,45.3959997 C79.1226671,45.3959997 80.6055,46.8788329 80.6055,48.708 L80.6055,73.6965 C80.6032468,75.5236554 79.1210741,77.004 77.2935,77.004 L70.9305,77.004 C69.1038182,77.004 67.623,75.5231818 67.623,73.6965 L67.623,48.708 C67.623,46.8804259 69.1033446,45.3982532 70.9309162,45.3959997 Z" id="Path" fill="#000000"></path>
                            <path d="M20.8995,25.065 L60.8149267,25.065 C62.9261587,25.0676693 64.6435288,26.7488278 64.7052807,28.8451202 L64.707,28.962 L64.707,31.05 L64.032,31.05 L64.032,28.962 C64.032,27.2204104 62.6501214,25.8012395 60.9228921,25.741927 L60.8145,25.74 L20.8995,25.74 C19.1563541,25.74 17.7365195,27.1242602 17.679293,28.8534838 L17.6775,28.962 L17.6775,31.05 L17.0025,31.05 L17.0025,28.962 C17.0025,26.8488782 18.6843778,25.12858 20.7825165,25.0667223 L20.8995,25.065 Z" id="Path" fill="#000000"></path>
                            <polygon id="Path" fill="#000000" points="17.655 29.9025 17.655 36.954 16.98 36.954 16.98 29.9025"></polygon>
                            <polygon id="Path" fill="#000000" points="64.734 30.0105 64.734 37.0665 64.059 37.0665 64.059 30.0105"></polygon>
                            <circle id="Oval" fill="#56F24B" cx="40.7265" cy="10.116" r="9.954"></circle>
                            <polygon id="Path" fill="#000000" points="41.064 20.07 41.064 25.047 40.389 25.047 40.389 20.07"></polygon>
                            <path d="M84.8535,45.0585 C84.6860526,45.0585 84.5350932,45.1593679 84.4710139,45.3140691 C84.4069345,45.4687703 84.4423546,45.646839 84.5607578,45.7652422 C84.679161,45.8836454 84.8572297,45.9190655 85.0119309,45.8549861 C85.1666321,45.7909068 85.2675,45.6399474 85.2675,45.4725 C85.2650652,45.2448702 85.0811298,45.0609348 84.8535,45.0585 Z M88.8,45.9 C88.9674474,45.9 89.1184068,45.7991321 89.1824861,45.6444309 C89.2465655,45.4897297 89.2111454,45.311661 89.0927422,45.1932578 C88.974339,45.0748546 88.7962703,45.0394345 88.6415691,45.1035139 C88.4868679,45.1675932 88.386,45.3185526 88.386,45.486 C88.386,45.7146459 88.5713541,45.9 88.8,45.9 L88.8,45.9 Z M92.7465,45.9 C92.9751459,45.9 93.1605,45.7146459 93.1605,45.486 C93.1605,45.2573541 92.9751459,45.072 92.7465,45.072 C92.5178541,45.072 92.3325,45.2573541 92.3325,45.486 C92.3325,45.7146459 92.5178541,45.9 92.7465,45.9 Z M96.693,45.072 C96.4649563,45.0744789 96.2818627,45.2609163 96.2835108,45.4889674 C96.2851589,45.7170186 96.4709281,45.9007902 96.6989837,45.8999756 C96.9270394,45.8991556 97.1114865,45.7140571 97.1115,45.486 C97.115191,45.3730951 97.072585,45.2635852 96.9935608,45.1828615 C96.9145366,45.1021379 96.8059579,45.0572118 96.693,45.0585 L96.693,45.072 Z M86.8515,46.9485 C86.6924542,46.9319409 86.5378743,47.0074593 86.4531815,47.1430945 C86.3684887,47.2787297 86.3684887,47.4507703 86.4531815,47.5864055 C86.5378743,47.7220407 86.6924542,47.7975591 86.8515,47.781 C87.0647003,47.7588026 87.2266619,47.5791027 87.2266619,47.36475 C87.2266619,47.1503973 87.0647003,46.9706974 86.8515,46.9485 L86.8515,46.9485 Z M90.798,46.9485 C90.6389542,46.9319409 90.4843743,47.0074593 90.3996815,47.1430945 C90.3149887,47.2787297 90.3149887,47.4507703 90.3996815,47.5864055 C90.4843743,47.7220407 90.6389542,47.7975591 90.798,47.781 C91.0112003,47.7588026 91.1731619,47.5791027 91.1731619,47.36475 C91.1731619,47.1503973 91.0112003,46.9706974 90.798,46.9485 L90.798,46.9485 Z M88.845,52.7985 C88.6163541,52.7985 88.431,52.9838541 88.431,53.2125 C88.431,53.4411459 88.6163541,53.6265 88.845,53.6265 C89.0736459,53.6265 89.259,53.4411459 89.259,53.2125 C89.2614212,53.1011494 89.2188747,52.9935199 89.1409707,52.9139223 C89.0630667,52.8343247 88.9563769,52.7894737 88.845,52.7895 L88.845,52.7985 Z M92.7915,52.7985 C92.5628541,52.7985 92.3775,52.9838541 92.3775,53.2125 C92.3775,53.4411459 92.5628541,53.6265 92.7915,53.6265 C93.0201459,53.6265 93.2055,53.4411459 93.2055,53.2125 C93.2079212,53.1011494 93.1653747,52.9935199 93.0874707,52.9139223 C93.0095667,52.8343247 92.9028769,52.7894737 92.7915,52.7895 L92.7915,52.7985 Z M94.7445,46.9485 C94.574835,46.9466755 94.420859,47.0474749 94.3546629,47.2037043 C94.2884668,47.3599337 94.3231526,47.5406711 94.4424806,47.6612961 C94.5618085,47.7819211 94.7421604,47.8185587 94.8990963,47.7540554 C95.0560322,47.6895521 95.1584902,47.5366748 95.1585,47.367 C95.162138,47.2544634 95.1202759,47.1452082 95.0423706,47.0639157 C94.9644652,46.9826232 94.8570895,46.9361519 94.7445,46.935 L94.7445,46.9485 Z M84.8445,48.933 C84.6744273,48.9311809 84.5201695,49.0324723 84.4542424,49.1892576 C84.3883152,49.346043 84.4238333,49.5271338 84.5440997,49.6474003 C84.6643662,49.7676667 84.845457,49.8031848 85.0022424,49.7372576 C85.1590277,49.6713305 85.2603191,49.5170727 85.2585,49.347 C85.2635531,49.1175573 85.0828806,48.9268475 84.8535,48.9195 L84.8445,48.933 Z M88.791,49.7655 C88.960665,49.7673245 89.114641,49.6665251 89.1808371,49.5102957 C89.2470332,49.3540663 89.2123474,49.1733289 89.0930194,49.0527039 C88.9736915,48.9320789 88.7933396,48.8954413 88.6364037,48.9599446 C88.4794678,49.0244479 88.377,49.1773252 88.377,49.347 C88.3843313,49.5746 88.5722964,49.7545666 88.8,49.752 L88.791,49.7655 Z M92.7375,49.7655 C92.907165,49.7673245 93.061141,49.6665251 93.1273371,49.5102957 C93.1935332,49.3540663 93.1588474,49.1733289 93.0395194,49.0527039 C92.9201915,48.9320789 92.7398396,48.8954413 92.5829037,48.9599446 C92.4259678,49.0244479 92.3235,49.1773252 92.3235,49.347 C92.3308313,49.5746 92.5187964,49.7545666 92.7465,49.752 L92.7375,49.7655 Z M96.684,48.933 C96.4707997,48.9551974 96.3088381,49.1348973 96.3088381,49.34925 C96.3088381,49.5636027 96.4707997,49.7433026 96.684,49.7655 C96.8430458,49.7820591 96.9976257,49.7065407 97.0823185,49.5709055 C97.1670113,49.4352703 97.1670113,49.2632297 97.0823185,49.1275945 C96.9976257,48.9919593 96.8430458,48.9164409 96.684,48.933 Z M86.838,50.9175 C86.6099563,50.9199789 86.4268627,51.1064163 86.4285108,51.3344674 C86.4301589,51.5625186 86.6159281,51.7462902 86.8439837,51.7454756 C87.0720394,51.7446556 87.2564865,51.5595571 87.2565,51.3315 C87.2601386,51.2201571 87.218751,51.1120463 87.1416895,51.0315974 C87.064628,50.9511486 86.9583964,50.9051515 86.847,50.904 L86.838,50.9175 Z M90.789,50.9175 C90.6209458,50.9164113 90.4692873,51.0181118 90.4065,51.174 C90.3829269,51.2247615 90.3706446,51.2800321 90.3705,51.336 C90.3539409,51.4950458 90.4294593,51.6496257 90.5650945,51.7343185 C90.7007297,51.8190113 90.8727703,51.8190113 91.0084055,51.7343185 C91.1440407,51.6496257 91.2195591,51.4950458 91.203,51.336 L91.203,51.336 C91.2078695,51.2246616 91.1676455,51.1160621 91.0914238,51.0347589 C91.0152021,50.9534558 90.9094207,50.9063163 90.798,50.904 L90.789,50.9175 Z M94.7355,50.9175 C94.5678209,50.9176501 94.4167909,51.0189289 94.353,51.174 C94.3294269,51.2247615 94.3171446,51.2800321 94.317,51.336 C94.3205897,51.5322467 94.460085,51.6996317 94.6524693,51.7385409 C94.8448535,51.7774501 95.0384311,51.6774281 95.118,51.498 C95.1374983,51.4445861 95.1481385,51.3883452 95.1495,51.3315 C95.1531325,51.220925 95.112356,51.1134962 95.0362676,51.0331807 C94.9601792,50.9528652 94.8551098,50.9063455 94.7445,50.904 L94.7355,50.9175 Z M84.8355,52.902 C84.6680526,52.902 84.5170932,53.0028679 84.4530139,53.1575691 C84.3889345,53.3122703 84.4243546,53.490339 84.5427578,53.6087422 C84.661161,53.7271454 84.8392297,53.7625655 84.9939309,53.6984861 C85.1486321,53.6344068 85.2495,53.4834474 85.2495,53.316 C85.2546873,53.0899115 85.0793241,52.900599 84.8535,52.8885 L84.8355,52.902 Z M96.675,52.902 C96.4469563,52.9044789 96.2638627,53.0909163 96.2655108,53.3189674 C96.2671589,53.5470186 96.4529281,53.7307902 96.6809837,53.7299756 C96.9090394,53.7291556 97.0934865,53.5440571 97.0935,53.316 C97.0971394,53.2061844 97.0569753,53.0994262 96.9818547,53.0192414 C96.9067342,52.9390565 96.8028194,52.8920226 96.693,52.8885 L96.675,52.902 Z M86.829,54.7785 C86.5978688,54.7785 86.4105,54.9658688 86.4105,55.197 C86.4105,55.4281312 86.5978688,55.6155 86.829,55.6155 C87.0601312,55.6155 87.2475,55.4281312 87.2475,55.197 C87.2551139,54.9675148 87.0764044,54.7747495 86.847,54.765 L86.829,54.7785 Z M90.78,54.7785 C90.6209542,54.7619409 90.4663743,54.8374593 90.3816815,54.9730945 C90.2969887,55.1087297 90.2969887,55.2807703 90.3816815,55.4164055 C90.4663743,55.5520407 90.6209542,55.6275591 90.78,55.611 C90.9932003,55.5888026 91.1551619,55.4091027 91.1551619,55.19475 C91.1551619,54.9803973 90.9932003,54.8006974 90.78,54.7785 L90.78,54.7785 Z M94.7265,54.7785 C94.556835,54.7766755 94.402859,54.8774749 94.3366629,55.0337043 C94.2704668,55.1899337 94.3051526,55.3706711 94.4244806,55.4912961 C94.5438085,55.6119211 94.7241604,55.6485587 94.8810963,55.5840554 C95.0380322,55.5195521 95.1404902,55.3666748 95.1405,55.197 C95.1481758,54.9691854 94.9721212,54.7771258 94.7445,54.765 L94.7265,54.7785 Z M84.8265,56.763 C84.6674542,56.7464409 84.5128743,56.8219593 84.4281815,56.9575945 C84.3434887,57.0932297 84.3434887,57.2652703 84.4281815,57.4009055 C84.5128743,57.5365407 84.6674542,57.6120591 84.8265,57.5955 C85.0397003,57.5733026 85.2016619,57.3936027 85.2016619,57.17925 C85.2016619,56.9648973 85.0397003,56.7851974 84.8265,56.763 Z M88.773,56.763 C88.603335,56.7611755 88.449359,56.8619749 88.3831629,57.0182043 C88.3169668,57.1744337 88.3516526,57.3551711 88.4709806,57.4757961 C88.5903085,57.5964211 88.7706604,57.6330587 88.9275963,57.5685554 C89.0845322,57.5040521 89.1869902,57.3511748 89.187,57.1815 C89.1948745,56.9569637 89.0240474,56.7662729 88.8,56.7495 L88.773,56.763 Z M92.7195,56.763 C92.549835,56.7611755 92.395859,56.8619749 92.3296629,57.0182043 C92.2634668,57.1744337 92.2981526,57.3551711 92.4174806,57.4757961 C92.5368085,57.5964211 92.7171604,57.6330587 92.8740963,57.5685554 C93.0310322,57.5040521 93.1334902,57.3511748 93.1335,57.1815 C93.1413745,56.9569637 92.9705474,56.7662729 92.7465,56.7495 L92.7195,56.763 Z M96.666,56.763 C96.4348688,56.763 96.2475,56.9503688 96.2475,57.1815 C96.2475,57.4126312 96.4348688,57.6 96.666,57.6 C96.8971312,57.6 97.0845,57.4126312 97.0845,57.1815 C97.0922628,56.9553349 96.9188354,56.7639667 96.693,56.7495 L96.666,56.763 Z M86.82,58.7475 C86.6067997,58.7696974 86.4448381,58.9493973 86.4448381,59.16375 C86.4448381,59.3781027 86.6067997,59.5578026 86.82,59.58 C86.9790458,59.5965591 87.1336257,59.5210407 87.2183185,59.3854055 C87.3030113,59.2497703 87.3030113,59.0777297 87.2183185,58.9420945 C87.1336257,58.8064593 86.9790458,58.7309409 86.82,58.7475 L86.82,58.7475 Z M90.771,58.7475 C90.6009273,58.7456809 90.4466695,58.8469723 90.3807424,59.0037576 C90.3148152,59.160543 90.3503333,59.3416338 90.4705997,59.4619003 C90.5908662,59.5821667 90.771957,59.6176848 90.9287424,59.5517576 C91.0855277,59.4858305 91.1868191,59.3315727 91.185,59.1615 C91.1904205,58.9386815 91.0202571,58.7507103 90.798,58.734 L90.771,58.7475 Z M94.7175,58.7475 C94.5474273,58.7456809 94.3931695,58.8469723 94.3272424,59.0037576 C94.2613152,59.160543 94.2968333,59.3416338 94.4170997,59.4619003 C94.5373662,59.5821667 94.718457,59.6176848 94.8752424,59.5517576 C95.0320277,59.4858305 95.1333191,59.3315727 95.1315,59.1615 C95.1392661,58.937817 94.96785,58.748462 94.7445,58.734 L94.7175,58.7475 Z M84.8175,60.732 C84.5888541,60.732 84.4035,60.9173541 84.4035,61.146 C84.4035,61.3746459 84.5888541,61.56 84.8175,61.56 C85.0461459,61.56 85.2315,61.3746459 85.2315,61.146 C85.2372488,60.9263699 85.0721815,60.7396866 84.8535,60.7185 L84.8175,60.732 Z M88.764,60.732 C88.5353541,60.732 88.35,60.9173541 88.35,61.146 C88.35,61.3746459 88.5353541,61.56 88.764,61.56 C88.9926459,61.56 89.178,61.3746459 89.178,61.146 C89.1860162,60.9255515 89.0197713,60.7375364 88.8,60.7185 L88.764,60.732 Z M92.7105,60.732 C92.4818541,60.732 92.2965,60.9173541 92.2965,61.146 C92.2965,61.3746459 92.4818541,61.56 92.7105,61.56 C92.9391459,61.56 93.1245,61.3746459 93.1245,61.146 C93.1325162,60.9255515 92.9662713,60.7375364 92.7465,60.7185 L92.7105,60.732 Z M96.657,60.732 C96.4289563,60.7344789 96.2458627,60.9209163 96.2475108,61.1489674 C96.2491589,61.3770186 96.4349281,61.5607902 96.6629837,61.5599756 C96.8910394,61.5591556 97.0754865,61.3740571 97.0755,61.146 C97.083379,60.9239445 96.9145617,60.7352664 96.693,60.7185 L96.657,60.732 Z M86.811,62.613 C86.5829563,62.6154789 86.3998627,62.8019163 86.4015108,63.0299674 C86.4031589,63.2580186 86.5889281,63.4417902 86.8169837,63.4409756 C87.0450394,63.4401556 87.2294865,63.2550571 87.2295,63.027 C87.237379,62.8049445 87.0685617,62.6162664 86.847,62.5995 L86.811,62.613 Z M90.762,62.613 C90.5333541,62.613 90.348,62.7983541 90.348,63.027 C90.348,63.2556459 90.5333541,63.441 90.762,63.441 C90.9906459,63.441 91.176,63.2556459 91.176,63.027 C91.1817488,62.8073699 91.0166815,62.6206866 90.798,62.5995 L90.762,62.613 Z M94.7085,62.613 C94.4798541,62.613 94.2945,62.7983541 94.2945,63.027 C94.2945,63.2556459 94.4798541,63.441 94.7085,63.441 C94.9371459,63.441 95.1225,63.2556459 95.1225,63.027 C95.1305162,62.8065515 94.9642713,62.6185364 94.7445,62.5995 L94.7085,62.613 Z M84.8085,64.593 C84.6494542,64.5764409 84.4948743,64.6519593 84.4101815,64.7875945 C84.3254887,64.9232297 84.3254887,65.0952703 84.4101815,65.2309055 C84.4948743,65.3665407 84.6494542,65.4420591 84.8085,65.4255 C85.0217003,65.4033026 85.1836619,65.2236027 85.1836619,65.00925 C85.1836619,64.7948973 85.0217003,64.6151974 84.8085,64.593 L84.8085,64.593 Z M88.755,64.593 C88.585335,64.5911755 88.431359,64.6919749 88.3651629,64.8482043 C88.2989668,65.0044337 88.3336526,65.1851711 88.4529806,65.3057961 C88.5723085,65.4264211 88.7526604,65.4630587 88.9095963,65.3985554 C89.0665322,65.3340521 89.1689902,65.1811748 89.169,65.0115 C89.1775579,64.7932784 89.0168763,64.6051633 88.8,64.5795 L88.755,64.593 Z M92.7015,64.593 C92.531835,64.5911755 92.377859,64.6919749 92.3116629,64.8482043 C92.2454668,65.0044337 92.2801526,65.1851711 92.3994806,65.3057961 C92.5188085,65.4264211 92.6991604,65.4630587 92.8560963,65.3985554 C93.0130322,65.3340521 93.1154902,65.1811748 93.1155,65.0115 C93.1240579,64.7932784 92.9633763,64.6051633 92.7465,64.5795 L92.7015,64.593 Z M96.648,64.593 C96.4168688,64.593 96.2295,64.7803688 96.2295,65.0115 C96.2295,65.2426312 96.4168688,65.43 96.648,65.43 C96.8791312,65.43 97.0665,65.2426312 97.0665,65.0115 C97.0748525,64.7917292 96.9116715,64.6029897 96.693,64.5795 L96.648,64.593 Z M86.802,66.5775 C86.5887997,66.5996974 86.4268381,66.7793973 86.4268381,66.99375 C86.4268381,67.2081027 86.5887997,67.3878026 86.802,67.41 C86.9610458,67.4265591 87.1156257,67.3510407 87.2003185,67.2154055 C87.2850113,67.0797703 87.2850113,66.9077297 87.2003185,66.7720945 C87.1156257,66.6364593 86.9610458,66.5609409 86.802,66.5775 L86.802,66.5775 Z M90.753,66.5775 C90.5829273,66.5756809 90.4286695,66.6769723 90.3627424,66.8337576 C90.2968152,66.990543 90.3323333,67.1716338 90.4525997,67.2919003 C90.5728662,67.4121667 90.753957,67.4476848 90.9107424,67.3817576 C91.0675277,67.3158305 91.1688191,67.1615727 91.167,66.9915 C91.1731683,66.7749791 91.0130987,66.5895325 90.798,66.564 L90.753,66.5775 Z M94.6995,66.5775 C94.5294273,66.5756809 94.3751695,66.6769723 94.3092424,66.8337576 C94.2433152,66.990543 94.2788333,67.1716338 94.3990997,67.2919003 C94.5193662,67.4121667 94.700457,67.4476848 94.8572424,67.3817576 C95.0140277,67.3158305 95.1153191,67.1615727 95.1135,66.9915 C95.1218618,66.7742049 94.960685,66.5874757 94.7445,66.564 L94.6995,66.5775 Z" id="Shape" fill="#7F7F7F"></path>
                            <path d="M84.8535,69.1245 C84.6834273,69.1226809 84.5291695,69.2239723 84.4632424,69.3807576 C84.3973152,69.537543 84.4328333,69.7186338 84.5530997,69.8389003 C84.6733662,69.9591667 84.854457,69.9946848 85.0112424,69.9287576 C85.1680277,69.8628305 85.2693191,69.7085727 85.2675,69.5385 C85.2650652,69.3108702 85.0811298,69.1269348 84.8535,69.1245 L84.8535,69.1245 Z M88.8,69.9525 C88.9674474,69.9525 89.1184068,69.8516321 89.1824861,69.6969309 C89.2465655,69.5422297 89.2111454,69.364161 89.0927422,69.2457578 C88.974339,69.1273546 88.7962703,69.0919345 88.6415691,69.1560139 C88.4868679,69.2200932 88.386,69.3710526 88.386,69.5385 C88.386,69.7671459 88.5713541,69.9525 88.8,69.9525 L88.8,69.9525 Z M92.7465,69.9525 C92.9139474,69.9525 93.0649068,69.8516321 93.1289861,69.6969309 C93.1930655,69.5422297 93.1576454,69.364161 93.0392422,69.2457578 C92.920839,69.1273546 92.7427703,69.0919345 92.5880691,69.1560139 C92.4333679,69.2200932 92.3325,69.3710526 92.3325,69.5385 C92.3325,69.7671459 92.5178541,69.9525 92.7465,69.9525 L92.7465,69.9525 Z M96.693,69.1245 C96.4649563,69.1269789 96.2818627,69.3134163 96.2835108,69.5414674 C96.2851589,69.7695186 96.4709281,69.9532902 96.6989837,69.9524756 C96.9270394,69.9516556 97.1114865,69.7665571 97.1115,69.5385 C97.1115,69.4279162 97.0672716,69.321926 96.9886556,69.2441552 C96.9100395,69.1663845 96.8035772,69.123298 96.693,69.1245 L96.693,69.1245 Z M86.847,71.1 C86.6189563,71.1024789 86.4358627,71.2889163 86.4375108,71.5169674 C86.4391589,71.7450186 86.6249281,71.9287902 86.8529837,71.9279756 C87.0810394,71.9271556 87.2654865,71.7420571 87.2655,71.514 C87.2655,71.4034162 87.2212716,71.297426 87.1426556,71.2196552 C87.0640395,71.1418845 86.9575772,71.098798 86.847,71.1 Z M90.798,71.1 C90.5693541,71.1 90.384,71.2853541 90.384,71.514 C90.384,71.7426459 90.5693541,71.928 90.798,71.928 C91.0266459,71.928 91.212,71.7426459 91.212,71.514 C91.2095652,71.2863702 91.0256298,71.1024348 90.798,71.1 Z M94.7445,71.1 C94.5158541,71.1 94.3305,71.2853541 94.3305,71.514 C94.3305,71.7426459 94.5158541,71.928 94.7445,71.928 C94.9731459,71.928 95.1585,71.7426459 95.1585,71.514 C95.1585,71.2853541 94.9731459,71.1 94.7445,71.1 L94.7445,71.1 Z M84.8445,73.0845 C84.6158541,73.0845 84.4305,73.2698541 84.4305,73.4985 C84.4305,73.7271459 84.6158541,73.9125 84.8445,73.9125 C85.0731459,73.9125 85.2585,73.7271459 85.2585,73.4985 C85.2514882,73.2777943 85.0742057,73.1005118 84.8535,73.0935 L84.8445,73.0845 Z M88.791,73.9125 C89.0196459,73.9125 89.205,73.7271459 89.205,73.4985 C89.205,73.2698541 89.0196459,73.0845 88.791,73.0845 C88.5623541,73.0845 88.377,73.2698541 88.377,73.4985 C88.3745171,73.6114294 88.4182853,73.7204698 88.4981578,73.8003422 C88.5780302,73.8802147 88.6870706,73.9239829 88.8,73.9215 L88.791,73.9125 Z M92.7375,73.9125 C92.9661459,73.9125 93.1515,73.7271459 93.1515,73.4985 C93.1515,73.2698541 92.9661459,73.0845 92.7375,73.0845 C92.5088541,73.0845 92.3235,73.2698541 92.3235,73.4985 C92.3210171,73.6114294 92.3647853,73.7204698 92.4446578,73.8003422 C92.5245302,73.8802147 92.6335706,73.9239829 92.7465,73.9215 L92.7375,73.9125 Z M96.684,73.0845 C96.4559563,73.0869789 96.2728627,73.2734163 96.2745108,73.5014674 C96.2761589,73.7295186 96.4619281,73.9132902 96.6899837,73.9124756 C96.9180394,73.9116556 97.1024865,73.7265571 97.1025,73.4985 C97.0976553,73.2751146 96.9164253,73.0958761 96.693,73.0935 L96.684,73.0845 Z M86.838,74.961 C86.6068688,74.961 86.4195,75.1483688 86.4195,75.3795 C86.4195,75.6106312 86.6068688,75.798 86.838,75.798 C87.0691312,75.798 87.2565,75.6106312 87.2565,75.3795 C87.2517291,75.1553453 87.0711547,74.9747709 86.847,74.97 L86.838,74.961 Z M90.789,74.961 C90.6299542,74.9444409 90.4753743,75.0199593 90.3906815,75.1555945 C90.3059887,75.2912297 90.3059887,75.4632703 90.3906815,75.5989055 C90.4753743,75.7345407 90.6299542,75.8100591 90.789,75.7935 C91.0022003,75.7713026 91.1641619,75.5916027 91.1641619,75.37725 C91.1641619,75.1628973 91.0022003,74.9831974 90.789,74.961 L90.789,74.961 Z M94.7355,74.961 C94.565835,74.9591755 94.411859,75.0599749 94.3456629,75.2162043 C94.2794668,75.3724337 94.3141526,75.5531711 94.4334806,75.6737961 C94.5528085,75.7944211 94.7331604,75.8310587 94.8900963,75.7665554 C95.0470322,75.7020521 95.1494902,75.5491748 95.1495,75.3795 C95.1448291,75.1570391 94.9668958,74.9771287 94.7445,74.97 L94.7355,74.961 Z M84.8355,76.9455 C84.6654273,76.9436809 84.5111695,77.0449723 84.4452424,77.2017576 C84.3793152,77.358543 84.4148333,77.5396338 84.5350997,77.6599003 C84.6553662,77.7801667 84.836457,77.8156848 84.9932424,77.7497576 C85.1500277,77.6838305 85.2513191,77.5295727 85.2495,77.3595 C85.245101,77.1403616 85.0723679,76.9617399 84.8535,76.95 L84.8355,76.9455 Z M88.782,77.778 C88.951665,77.7798245 89.105641,77.6790251 89.1718371,77.5227957 C89.2380332,77.3665663 89.2033474,77.1858289 89.0840194,77.0652039 C88.9646915,76.9445789 88.7843396,76.9079413 88.6274037,76.9724446 C88.4704678,77.0369479 88.3680098,77.1898252 88.368,77.3595 C88.3654672,77.4744255 88.4103188,77.5853329 88.4920276,77.6661905 C88.5737363,77.7470482 88.6851074,77.7907361 88.8,77.787 L88.782,77.778 Z M92.7285,77.778 C92.898165,77.7798245 93.052141,77.6790251 93.1183371,77.5227957 C93.1845332,77.3665663 93.1498474,77.1858289 93.0305194,77.0652039 C92.9111915,76.9445789 92.7308396,76.9079413 92.5739037,76.9724446 C92.4169678,77.0369479 92.3145098,77.1898252 92.3145,77.3595 C92.3119672,77.4744255 92.3568188,77.5853329 92.4385276,77.6661905 C92.5202363,77.7470482 92.6316074,77.7907361 92.7465,77.787 L92.7285,77.778 Z M96.675,76.9455 C96.4617997,76.9676974 96.2998381,77.1473973 96.2998381,77.36175 C96.2998381,77.5761027 96.4617997,77.7558026 96.675,77.778 C96.8340458,77.7945591 96.9886257,77.7190407 97.0733185,77.5834055 C97.1580113,77.4477703 97.1580113,77.2757297 97.0733185,77.1400945 C96.9886257,77.0044593 96.8340458,76.9289409 96.675,76.9455 Z" id="Shape" fill="#7F7F7F"></path>
                            <polygon id="Path" fill="#000000" points="64.6305 85.0005 64.6305 85.6755 21.8535 85.6755 21.8535 85.0005"></polygon>
                            <polygon id="Path" fill="#000000" points="64.6305 36.9855 64.6305 37.6605 21.8535 37.6605 21.8535 36.9855"></polygon>
                        </g>
                    </g>
                </g>
            </g>
        </g>
    </g>
</svg>