<?xml version="1.0" encoding="utf-8"?>
<!-- Generator: Adobe Illustrator 25.0.1, SVG Export Plug-In . SVG Version: 6.00 Build 0)  -->
<svg version="1.1" id="Layer_1" xmlns="http://www.w3.org/2000/svg" xmlns:xlink="http://www.w3.org/1999/xlink" x="0px" y="0px"
	 viewBox="0 0 16 16" style="enable-background:new 0 0 16 16;" xml:space="preserve">
<path d="M15,13.1V3.8C15,1.7,13.3,0,11.2,0S7.5,1.7,7.5,3.8V5H5v6h2.5v1.2c0,1.5-1.2,2.8-2.8,2.8S2,13.8,2,12.2V2.9
	c0.6-0.2,1-0.8,1-1.4C3,0.7,2.3,0,1.5,0S0,0.7,0,1.5c0,0.7,0.4,1.2,1,1.4v9.3C1,14.3,2.7,16,4.8,16s3.8-1.7,3.8-3.8V11H11V5H8.5V3.8
	C8.5,2.2,9.7,1,11.2,1S14,2.2,14,3.8v9.3c-0.6,0.2-1,0.8-1,1.4c0,0.8,0.7,1.5,1.5,1.5s1.5-0.7,1.5-1.5C16,13.8,15.6,13.3,15,13.1z
	 M10,10H6V6h4V10z"/>
</svg>
