<?xml version="1.0" encoding="utf-8"?>
<!-- Generator: Adobe Illustrator 25.0.1, SVG Export Plug-In . SVG Version: 6.00 Build 0)  -->
<svg version="1.1" id="Layer_1" xmlns="http://www.w3.org/2000/svg" xmlns:xlink="http://www.w3.org/1999/xlink" x="0px" y="0px"
	 viewBox="0 0 16 16" style="enable-background:new 0 0 16 16;" xml:space="preserve">
<g>
	<path d="M12,4H4v8h8V4z M11,11H5V5h6V11z"/>
	<polygon points="12,0 12,1 15,1 15,4 16,4 16,0 	"/>
	<polygon points="1,1 4,1 4,0 0,0 0,4 1,4 	"/>
	<polygon points="1,12 0,12 0,16 4,16 4,15 1,15 	"/>
	<polygon points="15,15 12,15 12,16 16,16 16,12 15,12 	"/>
	<rect x="7" y="7" width="2" height="2"/>
	<circle cx="8" cy="1" r="1"/>
	<circle cx="8" cy="15" r="1"/>
</g>
</svg>
