<?xml version="1.0" encoding="utf-8"?>
<!-- Generator: Adobe Illustrator 25.0.1, SVG Export Plug-In . SVG Version: 6.00 Build 0)  -->
<svg version="1.1" id="Layer_1" xmlns="http://www.w3.org/2000/svg" xmlns:xlink="http://www.w3.org/1999/xlink" x="0px" y="0px"
	 viewBox="0 0 16 16" style="enable-background:new 0 0 16 16;" xml:space="preserve">
<path d="M14,12c-0.4,0-0.7,0.1-1,0.3l-1.8-1.8C11.7,9.8,12,8.9,12,8c0-2.2-1.8-4-4-4C7.1,4,6.2,4.3,5.6,4.9L3.7,3C3.9,2.7,4,2.4,4,2
	c0-1.1-0.9-2-2-2S0,0.9,0,2s0.9,2,2,2c0.4,0,0.7-0.1,1-0.3l1.8,1.8C4.3,6.2,4,7.1,4,8c0,2.2,1.8,4,4,4c0.9,0,1.8-0.3,2.4-0.9
	l1.8,1.8c-0.2,0.3-0.3,0.6-0.3,1c0,1.1,0.9,2,2,2s2-0.9,2-2C16,12.9,15.1,12,14,12z M8,11c-1.7,0-3-1.3-3-3s1.3-3,3-3s3,1.3,3,3
	S9.7,11,8,11z"/>
</svg>
