<?xml version="1.0" encoding="utf-8"?>
<!-- Generator: Adobe Illustrator 22.1.0, SVG Export Plug-In . SVG Version: 6.00 Build 0)  -->
<svg version="1.1" id="Layer_1" xmlns="http://www.w3.org/2000/svg" xmlns:xlink="http://www.w3.org/1999/xlink" x="0px" y="0px"
	 viewBox="0 0 16 16" style="enable-background:new 0 0 16 16;" xml:space="preserve">
<style type="text/css">
	.st0{fill:none;}
	.st1{fill:#6C778C;}
	.st2{fill:#767676;}
	.st3{fill:#878787;}
	.st4{fill:none;stroke:#767676;stroke-miterlimit:10;}
	.st5{fill:url(#SVGID_1_);}
	.st6{fill:#231F20;}
	.st7{fill:url(#SVGID_2_);}
	.st8{fill:url(#SVGID_3_);}
	.st9{fill:#FFFFFF;}
	.st10{fill:#599DD3;}
	.st11{fill:#6574A7;}
	.st12{fill:#49557E;}
	.st13{fill:#451550;}
	.st14{fill:none;stroke:#6574A7;stroke-width:2;stroke-miterlimit:10;}
	.st15{enable-background:new    ;}
	.st16{fill:#292929;}
	.st17{opacity:0.5;fill:none;}
	.st18{fill:none;stroke:#6C778C;stroke-miterlimit:10;}
	.st19{fill:#3DFFA8;}
	.st20{fill:#00ACEA;}
	.st21{fill:#299A29;}
	.st22{fill:url(#SVGID_4_);}
	.st23{fill:#CECECE;}
	.st24{fill:#EAEAEA;}
	.st25{fill:#F4F2E9;}
	.st26{fill:#9B9B9B;}
	.st27{fill:url(#SVGID_5_);}
	.st28{fill:#D6CE93;}
	.st29{opacity:0.25;}
	.st30{fill:#E5E5E5;}
	.st31{fill:#D0472A;}
	.st32{opacity:0.5;}
	.st33{fill:#939393;}
	.st34{fill:#C1C1C1;}
	.st35{fill:url(#SVGID_6_);}
	.st36{opacity:0.15;}
	.st37{opacity:0.45;}
	.st38{fill:#A32B17;}
	.st39{fill:#130C0E;}
	.st40{fill:#50586B;}
	.st41{fill:#00C0C5;}
</style>
<g>
	<path class="st9" d="M10,14h1.6c-1.1,0.6-2.3,1-3.6,1c-3.9,0-7-3.1-7-7H0c0,4.4,3.6,8,8,8c1.5,0,2.8-0.4,4-1.1V16h1v-3h-3V14z"/>
	<path class="st9" d="M8,0C6.5,0,5.2,0.4,4,1.1V0H3v3h3V2H4.4c1-0.6,2.3-1,3.6-1c3.9,0,7,3.1,7,7h1C16,3.6,12.4,0,8,0z"/>
	<rect x="7" y="5" class="st9" width="2" height="6"/>
	<rect x="11" y="8" class="st9" width="2" height="3"/>
	<rect x="3" y="7" class="st9" width="2" height="4"/>
</g>
</svg>
