<?xml version="1.0" encoding="utf-8"?>
<!-- Generator: Adobe Illustrator 25.0.1, SVG Export Plug-In . SVG Version: 6.00 Build 0)  -->
<svg version="1.1" id="Layer_1" xmlns="http://www.w3.org/2000/svg" xmlns:xlink="http://www.w3.org/1999/xlink" x="0px" y="0px"
	 viewBox="0 0 24 24" style="enable-background:new 0 0 24 24;" xml:space="preserve">
<style type="text/css">
	.st0{fill-rule:evenodd;clip-rule:evenodd;}
</style>
<g>
	<g>
		<path class="st0" d="M12.2,10.3c0.3,0,0.6,0.1,0.8,0.3l0,0l2.1,2.1h7.8c0.7,0,1.1,0.5,1.1,1.1l0,0v9c0,0.7-0.5,1.1-1.1,1.1l0,0H8
			c-0.7,0-1.1-0.5-1.1-1.1l0,0V11.4c0-0.7,0.5-1.1,1.1-1.1l0,0H12.2z M12,12H8.6v10.3h13.7v-7.9h-7.9L12,12z M15.4,0
			c0.9,0,1.7,0.8,1.7,1.7l0,0V11h-1.7V8.6H1.7v5.1h3.4v1.7H1.7v5.1h3.4v1.7H1.7c-0.9,0-1.7-0.8-1.7-1.7l0,0V1.7C0,0.8,0.8,0,1.7,0
			l0,0H15.4z M4.3,17.1c0.5,0,0.9,0.5,0.9,0.9S4.8,19,4.3,19s-0.9-0.5-0.9-0.9C3.4,17.6,3.9,17.1,4.3,17.1z M4.3,10.3
			c0.5,0,0.9,0.5,0.9,0.9c0,0.5-0.5,0.9-0.9,0.9s-0.9-0.5-0.9-0.9C3.4,10.7,3.9,10.3,4.3,10.3z M15.4,1.7H1.7v5.1h13.7V1.7z
			 M4.3,3.4c0.5,0,0.9,0.5,0.9,0.9S4.8,5.3,4.3,5.3S3.4,4.8,3.4,4.3S3.9,3.4,4.3,3.4z"/>
	</g>
</g>
</svg>
