<?xml version="1.0" encoding="utf-8"?>
<!-- Generator: Adobe Illustrator 22.1.0, SVG Export Plug-In . SVG Version: 6.00 Build 0)  -->
<svg version="1.1" id="Layer_1" xmlns="http://www.w3.org/2000/svg" xmlns:xlink="http://www.w3.org/1999/xlink" x="0px" y="0px"
	 viewBox="0 0 16 16" style="enable-background:new 0 0 16 16;" xml:space="preserve">
<style type="text/css">
	.st0{fill:#F6F9FC;}
	.st1{fill:none;}
	.st2{fill:#6C778C;}
	.st3{fill:#767676;}
	.st4{fill:#878787;}
	.st5{fill:none;stroke:#767676;stroke-miterlimit:10;}
	.st6{fill:url(#SVGID_1_);}
	.st7{fill:#231F20;}
	.st8{fill:url(#SVGID_2_);}
	.st9{fill:url(#SVGID_3_);}
	.st10{fill:#FFFFFF;}
	.st11{fill:#599DD3;}
	.st12{fill:#6574A7;}
	.st13{fill:#49557E;}
	.st14{fill:#451550;}
	.st15{fill:none;stroke:#6574A7;stroke-width:2;stroke-miterlimit:10;}
	.st16{enable-background:new    ;}
	.st17{fill:#292929;}
	.st18{opacity:0.5;fill:none;}
	.st19{fill:none;stroke:#6C778C;stroke-miterlimit:10;}
	.st20{fill:#00ACEA;}
	.st21{fill:#3DFFA8;}
	.st22{fill:#299A29;}
	.st23{fill:url(#SVGID_4_);}
	.st24{fill:#CECECE;}
	.st25{fill:#EAEAEA;}
	.st26{fill:#F4F2E9;}
	.st27{fill:#9B9B9B;}
	.st28{fill:url(#SVGID_5_);}
	.st29{fill:#D6CE93;}
	.st30{opacity:0.25;}
	.st31{fill:#E5E5E5;}
	.st32{fill:#D0472A;}
	.st33{opacity:0.5;}
	.st34{fill:#939393;}
	.st35{fill:#C1C1C1;}
	.st36{fill:url(#SVGID_6_);}
	.st37{opacity:0.15;}
	.st38{opacity:0.45;}
	.st39{fill:#A32B17;}
	.st40{fill:#130C0E;}
	.st41{fill:#50586B;}
	.st42{fill:#00C0C5;}
</style>
<path class="st10" d="M8,4v1H6.4V1.5H3.9C3.7,0.6,2.9,0,2,0C0.9,0,0,0.9,0,2c0,1.1,0.9,2,2,2c0.9,0,1.7-0.6,1.9-1.5h1.4V6H8v1.5H3.9
	C3.7,6.6,2.9,6,2,6C0.9,6,0,6.9,0,8c0,1.1,0.9,2,2,2c0.9,0,1.7-0.6,1.9-1.5H8V10H5.4v3.5H3.9C3.7,12.6,2.9,12,2,12c-1.1,0-2,0.9-2,2
	c0,1.1,0.9,2,2,2c0.9,0,1.7-0.6,1.9-1.5h2.4V11H8v1h8V4H8z M15,11H9V5h6V11z"/>
</svg>
