<?xml version="1.0" encoding="utf-8"?>
<!-- Generator: Adobe Illustrator 22.1.0, SVG Export Plug-In . SVG Version: 6.00 Build 0)  -->
<svg version="1.1" id="Layer_1" xmlns="http://www.w3.org/2000/svg" xmlns:xlink="http://www.w3.org/1999/xlink" x="0px" y="0px"
	 viewBox="0 0 16 16" style="enable-background:new 0 0 16 16;" xml:space="preserve">
<style type="text/css">
	.st0{fill:none;}
	.st1{fill:#6C778C;}
	.st2{fill:#767676;}
	.st3{fill:#878787;}
	.st4{fill:none;stroke:#767676;stroke-miterlimit:10;}
	.st5{fill:url(#SVGID_1_);}
	.st6{fill:#231F20;}
	.st7{fill:url(#SVGID_2_);}
	.st8{fill:url(#SVGID_3_);}
	.st9{fill:#FFFFFF;}
	.st10{fill:#599DD3;}
	.st11{fill:#6574A7;}
	.st12{fill:#49557E;}
	.st13{fill:#451550;}
	.st14{fill:none;stroke:#6574A7;stroke-width:2;stroke-miterlimit:10;}
	.st15{enable-background:new    ;}
	.st16{fill:#292929;}
	.st17{opacity:0.5;fill:none;}
	.st18{fill:none;stroke:#6C778C;stroke-miterlimit:10;}
	.st19{fill:#3DFFA8;}
	.st20{fill:#00ACEA;}
	.st21{fill:#299A29;}
	.st22{fill:url(#SVGID_4_);}
	.st23{fill:#CECECE;}
	.st24{fill:#EAEAEA;}
	.st25{fill:#F4F2E9;}
	.st26{fill:#9B9B9B;}
	.st27{fill:url(#SVGID_5_);}
	.st28{fill:#D6CE93;}
	.st29{opacity:0.25;}
	.st30{fill:#E5E5E5;}
	.st31{fill:#D0472A;}
	.st32{opacity:0.5;}
	.st33{fill:#939393;}
	.st34{fill:#C1C1C1;}
	.st35{fill:url(#SVGID_6_);}
	.st36{opacity:0.15;}
	.st37{opacity:0.45;}
	.st38{fill:#A32B17;}
	.st39{fill:#130C0E;}
	.st40{fill:#50586B;}
	.st41{fill:#00C0C5;}
</style>
<g>
	<path class="st9" d="M12,3.1c-0.1,0-0.2,0-0.2,0C11.1,1.3,9.3,0,7.2,0C4.6,0,2.4,2.1,2.4,4.7c0,0,0,0.1,0,0.1C1,5.2,0,6.4,0,7.9
		C0,9.6,1.4,11,3.2,11H12v0c2.2,0,4-1.8,4-3.9C16,4.9,14.2,3.1,12,3.1z M12,10l-0.3,0H3.2C2,10,1,9,1,7.9c0-1,0.7-1.8,1.7-2.1
		l0.8-0.2l0-0.8l0-0.1l0,0c0-2,1.7-3.7,3.8-3.7c1.6,0,3.1,1,3.6,2.5l0.3,0.7l0.8,0c0.1,0,0.1,0,0.2,0c1.7,0,3,1.3,3,2.9
		C15,8.7,13.7,10,12,10z"/>
	<circle class="st9" cx="6" cy="15" r="1"/>
	<circle class="st9" cx="10" cy="15" r="1"/>
	<circle class="st9" cx="3" cy="13" r="1"/>
	<circle class="st9" cx="13" cy="13" r="1"/>
</g>
</svg>
