<?xml version="1.0" encoding="utf-8"?>
<!-- Generator: Adobe Illustrator 25.0.1, SVG Export Plug-In . SVG Version: 6.00 Build 0)  -->
<svg version="1.1" id="Layer_1" xmlns="http://www.w3.org/2000/svg" xmlns:xlink="http://www.w3.org/1999/xlink" x="0px" y="0px"
	 viewBox="0 0 16 16" style="enable-background:new 0 0 16 16;" xml:space="preserve">
<path d="M8,4v1H6.4V1.5H3.9C3.7,0.6,2.9,0,2,0C0.9,0,0,0.9,0,2s0.9,2,2,2c0.9,0,1.7-0.6,1.9-1.5h1.4V6H8v1.5H3.9C3.7,6.6,2.9,6,2,6
	C0.9,6,0,6.9,0,8s0.9,2,2,2c0.9,0,1.7-0.6,1.9-1.5H8V10H5.4v3.5H3.9C3.7,12.6,2.9,12,2,12c-1.1,0-2,0.9-2,2s0.9,2,2,2
	c0.9,0,1.7-0.6,1.9-1.5h2.4V11H8v1h8V4H8z M15,11H9V5h6V11z"/>
</svg>
