<?xml version="1.0" encoding="utf-8"?>
<!-- Generator: Adobe Illustrator 25.0.1, SVG Export Plug-In . SVG Version: 6.00 Build 0)  -->
<svg version="1.1" id="Layer_1" xmlns="http://www.w3.org/2000/svg" xmlns:xlink="http://www.w3.org/1999/xlink" x="0px" y="0px"
	 viewBox="0 0 16 16" style="enable-background:new 0 0 16 16;" xml:space="preserve">
<g>
	<polygon points="12,0 12,1 15,1 15,4 16,4 16,0 	"/>
	<polygon points="1,1 4,1 4,0 0,0 0,4 1,4 	"/>
	<polygon points="1,12 0,12 0,16 4,16 4,15 1,15 	"/>
	<polygon points="15,15 12,15 12,16 16,16 16,12 15,12 	"/>
	<path d="M9.4,6L9.4,6L10,7l2.5-4.3C11.3,1.6,9.7,1,8,1C7.5,1,7,1.1,6.6,1.1L9.4,6L9.4,6z"/>
	<path d="M14.9,9.2C15,8.8,15,8.4,15,8c0-1.8-0.7-3.4-1.7-4.6L9.9,9.2H14.9z"/>
	<path d="M1.4,5.8h6.7L5.6,1.4C3.6,2.2,2,3.8,1.4,5.8z"/>
	<path d="M3.6,13.4C4.8,14.4,6.3,15,8,15c0.5,0,0.9,0,1.4-0.1L6,9L3.6,13.4z"/>
	<path d="M1,8c0,1.8,0.7,3.5,1.8,4.7l2.7-4.9V7.7l0,0L6,6.8H1C1,7.2,1,7.6,1,8z"/>
	<path d="M14.6,10.2H7.9l2.5,4.3C12.4,13.9,13.9,12.3,14.6,10.2z"/>
	<circle cx="8" cy="8" r="1"/>
</g>
</svg>
