<?xml version="1.0" encoding="utf-8"?>
<!-- Generator: Adobe Illustrator 25.0.1, SVG Export Plug-In . SVG Version: 6.00 Build 0)  -->
<svg version="1.1" id="Layer_1" xmlns="http://www.w3.org/2000/svg" xmlns:xlink="http://www.w3.org/1999/xlink" x="0px" y="0px"
	 viewBox="0 0 16 16" style="enable-background:new 0 0 16 16;" xml:space="preserve">
<g>
	<circle cx="4" cy="2" r="2"/>
	<circle cx="4" cy="14" r="2"/>
	<circle cx="2" cy="8" r="2"/>
	<path d="M16,6.7c0-1.7-1.2-3.2-2.8-3.5c0-0.2,0.1-0.4,0.1-0.6c0-1.4-1.2-2.6-2.6-2.6C9.2,0,8,1.2,8,2.6v10.8c0,1.4,1.2,2.6,2.6,2.6
		s2.6-1.2,2.6-2.6v-0.1l0,0c1.3,0,2.3-1,2.3-2.3c0-0.6-0.3-1.2-0.7-1.6C15.5,8.7,16,7.8,16,6.7z M13.3,12.3L13.3,12.3h-1.1v1v0.1
		l0,0c0,0.9-0.7,1.6-1.6,1.6C9.7,15,9,14.3,9,13.4V2.6C9,1.7,9.7,1,10.6,1s1.6,0.7,1.6,1.6c0,0.1,0,0.2,0,0.3l-0.2,1l1,0.2
		c1.2,0.3,2,1.4,2,2.6c0,0.7-0.3,1.4-0.8,1.9l-0.8,0.7l0.7,0.7c0.2,0.2,0.4,0.6,0.4,0.9C14.5,11.7,14,12.3,13.3,12.3z"/>
</g>
</svg>
