<?xml version="1.0" encoding="utf-8"?>
<!-- Generator: Adobe Illustrator 22.1.0, SVG Export Plug-In . SVG Version: 6.00 Build 0)  -->
<svg version="1.1" id="Layer_1" xmlns="http://www.w3.org/2000/svg" xmlns:xlink="http://www.w3.org/1999/xlink" x="0px" y="0px"
	 viewBox="0 0 16 16" style="enable-background:new 0 0 16 16;" xml:space="preserve">
<style type="text/css">
	.st0{fill:none;}
	.st1{fill:#6C778C;}
	.st2{fill:#767676;}
	.st3{fill:#878787;}
	.st4{fill:none;stroke:#767676;stroke-miterlimit:10;}
	.st5{fill:url(#SVGID_1_);}
	.st6{fill:#231F20;}
	.st7{fill:url(#SVGID_2_);}
	.st8{fill:url(#SVGID_3_);}
	.st9{fill:#FFFFFF;}
	.st10{fill:#599DD3;}
	.st11{fill:#6574A7;}
	.st12{fill:#49557E;}
	.st13{fill:#451550;}
	.st14{fill:none;stroke:#6574A7;stroke-width:2;stroke-miterlimit:10;}
	.st15{enable-background:new    ;}
	.st16{fill:#292929;}
	.st17{opacity:0.5;fill:none;}
	.st18{fill:none;stroke:#6C778C;stroke-miterlimit:10;}
	.st19{fill:#3DFFA8;}
	.st20{fill:#00ACEA;}
	.st21{fill:#299A29;}
	.st22{fill:url(#SVGID_4_);}
	.st23{fill:#CECECE;}
	.st24{fill:#EAEAEA;}
	.st25{fill:#F4F2E9;}
	.st26{fill:#9B9B9B;}
	.st27{fill:url(#SVGID_5_);}
	.st28{fill:#D6CE93;}
	.st29{opacity:0.25;}
	.st30{fill:#E5E5E5;}
	.st31{fill:#D0472A;}
	.st32{opacity:0.5;}
	.st33{fill:#939393;}
	.st34{fill:#C1C1C1;}
	.st35{fill:url(#SVGID_6_);}
	.st36{opacity:0.15;}
	.st37{opacity:0.45;}
	.st38{fill:#A32B17;}
	.st39{fill:#130C0E;}
	.st40{fill:#50586B;}
	.st41{fill:#00C0C5;}
</style>
<g>
	<circle class="st9" cx="4" cy="2" r="2"/>
	<circle class="st9" cx="4" cy="14" r="2"/>
	<circle class="st9" cx="2" cy="8" r="2"/>
	<path class="st9" d="M16,6.7c0-1.7-1.2-3.2-2.8-3.5c0-0.2,0.1-0.4,0.1-0.6c0-1.4-1.2-2.6-2.6-2.6C9.2,0,8,1.2,8,2.6v10.8
		c0,1.4,1.2,2.6,2.6,2.6c1.4,0,2.6-1.2,2.6-2.6c0,0,0-0.1,0-0.1c0,0,0,0,0,0c1.3,0,2.3-1,2.3-2.3c0-0.6-0.3-1.2-0.7-1.6
		C15.5,8.7,16,7.8,16,6.7z M13.3,12.3L13.3,12.3h-1.1l0,1l0,0.1l0,0c0,0.9-0.7,1.6-1.6,1.6C9.7,15,9,14.3,9,13.4V2.6
		C9,1.7,9.7,1,10.6,1s1.6,0.7,1.6,1.6c0,0.1,0,0.2,0,0.3l-0.2,1l1,0.2C14.2,4.4,15,5.5,15,6.7c0,0.7-0.3,1.4-0.8,1.9l-0.8,0.7
		l0.7,0.7c0.2,0.2,0.4,0.6,0.4,0.9C14.5,11.7,14,12.3,13.3,12.3z"/>
</g>
</svg>
