<?xml version="1.0" encoding="UTF-8"?>
<svg width="19px" height="24px" viewBox="0 0 19 24" version="1.1" xmlns="http://www.w3.org/2000/svg" xmlns:xlink="http://www.w3.org/1999/xlink">
    <title>Icons/24px/User/touch 1</title>
    <g id="Ratings-V2" stroke="none" stroke-width="1" fill="none" fill-rule="evenodd">
        <g id="Preview-Modal-for-Demo-Story----selected-version-Copy-5" transform="translate(-884.000000, -218.000000)" fill="#FFFFFF">
            <g id="Fill" transform="translate(882.000000, 218.000000)">
                <path d="M15,6 L13.5,6 C13.5,3.92893219 11.8210678,2.25000011 9.75,2.25000011 C7.67893219,2.25000011 6,3.92893219 6,6 L4.5,6 C4.5,3.10050511 6.85050511,0.750000111 9.75,0.750000111 C12.6494949,0.750000111 15,3.10050511 15,6 L15,6 Z M18.75,11.25 C18.3625244,11.2513935 17.9822575,11.3548675 17.6475,11.55 C17.2365302,10.8981665 16.5205707,10.5019834 15.75,10.5 C15.3625244,10.5013935 14.9822575,10.6048675 14.6475,10.8 C14.0856128,9.91586887 12.9878994,9.53648919 12,9.885 L12,6 C12,4.75735931 10.9926407,3.75 9.75,3.75 C8.50735931,3.75 7.5,4.75735931 7.5,6 L7.5,14.325 L5.8275,13.185 C5.44409453,12.8994668 4.97803594,12.7467471 4.5,12.75 C3.5872706,12.7477473 2.7636116,13.2971164 2.41501415,14.1406564 C2.06641669,14.9841965 2.26195737,15.9547553 2.91,16.5975 L8.91,22.0725 C9.75944721,22.8327915 10.8600004,23.2521771 12,23.25 L15.75,23.25 C18.6494949,23.25 21,20.8994949 21,18 L21,13.5 C21,12.2573593 19.9926407,11.25 18.75,11.25 Z M19.5,18 C19.5,20.0710678 17.8210678,21.75 15.75,21.75 L12,21.75 C11.2419026,21.7591633 10.5062862,21.4926357 9.93,21 L3.9675,15.525 C3.82894188,15.3853045 3.75082847,15.1967549 3.75,15 C3.75,14.715921 3.91050178,14.4562236 4.1645898,14.3291796 C4.41867782,14.2021356 4.72273676,14.2295526 4.95,14.4 L9,17.175 L9,6 C9,5.58578644 9.33578644,5.25 9.75,5.25 C10.1642136,5.25 10.5,5.58578644 10.5,6 L10.5,14.25 L12,14.25 L12,12 C12,11.5857864 12.3357864,11.25 12.75,11.25 C13.1642136,11.25 13.5,11.5857864 13.5,12 L13.5,14.25 L15,14.25 L15,12.75 C15,12.3357864 15.3357864,12 15.75,12 C16.1642136,12 16.5,12.3357864 16.5,12.75 L16.5,14.25 L18,14.25 L18,13.5 C18,13.0857864 18.3357864,12.75 18.75,12.75 C19.1642136,12.75 19.5,13.0857864 19.5,13.5 L19.5,18 Z"></path>
            </g>
        </g>
    </g>
</svg>
