<?xml version="1.0" encoding="utf-8"?>
<!-- Generator: Adobe Illustrator 25.4.1, SVG Export Plug-In . SVG Version: 6.00 Build 0)  -->
<svg version="1.0" id="Layer_1" xmlns="http://www.w3.org/2000/svg" xmlns:xlink="http://www.w3.org/1999/xlink" x="0px" y="0px"
	 viewBox="0 0 150 150" style="enable-background:new 0 0 150 150;" xml:space="preserve">
<style type="text/css">
	.st0{fill:#264AFF;}
	.st1{fill:#61F52F;}
	.st2{fill:#1A1818;}
	.st3{fill:#FFFFFF;stroke:#000000;stroke-miterlimit:10;}
	.st4{fill:none;stroke:#000000;stroke-width:1.5;stroke-miterlimit:10;}
	.st5{fill:#898989;}
	.st6{fill:#33FFFF;stroke:#000000;stroke-width:1.2304;stroke-miterlimit:10;}
	.st7{fill:none;stroke:#000000;stroke-width:1.5;stroke-linejoin:round;stroke-miterlimit:10;}
	.st8{fill:none;stroke:#000000;stroke-width:1.2304;stroke-miterlimit:10;}
	.st9{fill:none;stroke:#000000;stroke-width:1.5;stroke-linecap:round;stroke-linejoin:round;stroke-miterlimit:10;}
	.st10{fill:none;stroke:#000000;stroke-width:1.7718;stroke-miterlimit:10;}
	.st11{fill:none;stroke:#000000;stroke-width:1.4296;stroke-miterlimit:10;}
	.st12{fill:none;stroke:#000000;stroke-width:1.2803;stroke-miterlimit:10;}
	.st13{fill:none;stroke:#000000;stroke-width:1.4146;stroke-miterlimit:10;}
	.st14{fill:#2F2FFF;}
	.st15{fill:#767676;}
	.st16{fill:#5BF94E;}
	.st17{fill:#FFFFFF;}
	.st18{fill:none;stroke:#000000;stroke-width:1.3839;stroke-miterlimit:10;}
	.st19{fill:none;stroke:#000000;stroke-width:1.3354;stroke-miterlimit:10;}
	.st20{fill:none;stroke:#FFFFFF;stroke-width:1.5;stroke-miterlimit:10;}
	.st21{fill:none;stroke:#FFFFFF;stroke-width:1.5;stroke-linejoin:round;stroke-miterlimit:10;}
	.st22{fill:none;stroke:#FFFFFF;stroke-width:1.3839;stroke-miterlimit:10;}
	.st23{fill:none;stroke:#FFFFFF;stroke-width:1.5;stroke-linecap:round;stroke-linejoin:round;stroke-miterlimit:10;}
	.st24{fill:none;stroke:#FFFFFF;stroke-width:1.3354;stroke-miterlimit:10;}
	.st25{fill:none;stroke:#000000;stroke-miterlimit:10;}
	.st26{fill:none;stroke:#000000;stroke-width:0.75;stroke-miterlimit:10;}
	.st27{fill:#284AFD;}
	.st28{fill:#878787;}
	.st29{fill:none;stroke:#000000;stroke-width:1.5783;stroke-miterlimit:10;}
	.st30{fill:none;stroke:#000000;stroke-width:1.1057;stroke-miterlimit:10;}
	.st31{fill:#2329FF;}
	.st32{fill:none;stroke:#000000;stroke-width:1.1894;stroke-miterlimit:10;}
	.st33{fill:none;stroke:#000000;stroke-width:1.5988;stroke-miterlimit:10;}
	.st34{fill:#88898C;}
	.st35{fill:none;stroke:#000000;stroke-width:1.5776;stroke-miterlimit:10;}
	.st36{fill:none;stroke:#000000;stroke-width:1.7004;stroke-miterlimit:10;}
	.st37{fill:none;stroke:#000000;stroke-width:18;stroke-miterlimit:10;}
	.st38{fill:none;stroke:#000000;stroke-width:2.1809;stroke-miterlimit:10;}
	.st39{fill:none;stroke:#000000;stroke-width:3;stroke-miterlimit:10;}
	.st40{fill:none;stroke:#FFFFFF;stroke-width:3;stroke-miterlimit:10;}
	.st41{fill:#95979A;}
	.st42{fill:#8F8978;}
	.st43{fill:none;stroke:#000000;stroke-width:0.3957;stroke-miterlimit:10;}
	.st44{fill:none;stroke:#000000;stroke-width:0.399;stroke-miterlimit:10;}
	.st45{fill:none;stroke:#000000;stroke-width:0.421;stroke-miterlimit:10;}
	.st46{fill:none;stroke:#000000;stroke-width:0.4471;stroke-miterlimit:10;}
	.st47{fill:none;stroke:#000000;stroke-width:0.4176;stroke-miterlimit:10;}
	.st48{fill:none;stroke:#000000;stroke-width:0.3938;stroke-miterlimit:10;}
	.st49{fill:none;stroke:#000000;stroke-width:0.4215;stroke-miterlimit:10;}
	.st50{fill:none;stroke:#000000;stroke-width:0.45;stroke-miterlimit:10;}
	.st51{fill:none;stroke:#000000;stroke-width:0.3949;stroke-miterlimit:10;}
	.st52{fill-rule:evenodd;clip-rule:evenodd;}
	.st53{fill-rule:evenodd;clip-rule:evenodd;fill:#61F52F;}
	.st54{fill:none;stroke:#302EFB;stroke-width:1.5;stroke-miterlimit:10;}
	.st55{fill:none;stroke:#CCCCCC;stroke-miterlimit:10;}
	.st56{fill:none;stroke:#000000;stroke-width:0.4497;stroke-miterlimit:10;}
	.st57{fill:none;stroke:#CCCCCC;stroke-width:1.3031;stroke-miterlimit:10;}
	.st58{fill:none;stroke:#000000;stroke-width:1.3493;stroke-miterlimit:10;}
	.st59{fill:none;stroke:#000000;stroke-width:0.3795;stroke-miterlimit:10;}
	.st60{fill:none;stroke:#000000;stroke-width:0.4485;stroke-miterlimit:10;}
	.st61{fill:none;stroke:#000000;stroke-width:0.3998;stroke-miterlimit:10;}
	.st62{fill:none;stroke:#000000;stroke-width:0.375;stroke-miterlimit:10;}
</style>
<g>
	<g>
		<path d="M105,34.4l-1.6,1.6l-5.4,5.4l-7.1,7.1h0l-7.1,7.1l-7.1,7.1L55.5,41.4l-7.1,7.1l0,0L34.9,62l0,0l-0.6,0.6L69.6,98l-7.1,7.1
			l-7.1,7.1l17.7,17.7c17.6,17.6,46.1,17.6,63.6,0l0,0l0,0l0,0l0,0c17.6-17.6,17.6-46.1,0-63.6L105,34.4z M80.3,122.7l-10.6-10.6
			l7.1-7.1l7.1,7.1l7.1-7.1L48.4,62.6l7.1-7.1L97.9,98l7.1-7.1L83.8,69.7l7.1-7.1l21.2,21.2l7.1-7.1L97.9,55.6l7.1-7.1l24.7,24.7
			c13.7,13.7,13.7,35.8,0,49.5l0,0C116.1,136.4,93.9,136.4,80.3,122.7z"/>
	</g>
	<path d="M53.2,95.7l-26-26l-7.1-7.1l7.1-7.1l0.6-0.6l13.5-13.5l7.1-7.1l7.1-7.1l7.1,7.1l14.1,14.1l0,0l7.1-7.1l3.4-3.4
		C81.4,20,64.5,7,44.6,7C19.8,7-0.2,27.1-0.2,51.8c0,24.7,20.1,44.8,44.8,44.8C47.5,96.6,50.4,96.3,53.2,95.7z"/>
</g>
</svg>
