<?xml version="1.0" encoding="utf-8"?>
<!-- Generator: Adobe Illustrator 25.0.1, SVG Export Plug-In . SVG Version: 6.00 Build 0)  -->
<svg version="1.1" id="Layer_1" xmlns="http://www.w3.org/2000/svg" xmlns:xlink="http://www.w3.org/1999/xlink" x="0px" y="0px"
	 viewBox="0 0 16 16" style="enable-background:new 0 0 16 16;" xml:space="preserve">
<g>
	<path d="M12,3.1c-0.1,0-0.2,0-0.2,0C11.1,1.3,9.3,0,7.2,0C4.6,0,2.4,2.1,2.4,4.7v0.1C1,5.2,0,6.4,0,7.9C0,9.6,1.4,11,3.2,11H12l0,0
		c2.2,0,4-1.8,4-3.9C16,4.9,14.2,3.1,12,3.1z M12,10h-0.3H3.2C2,10,1,9,1,7.9c0-1,0.7-1.8,1.7-2.1l0.8-0.2V4.8V4.7l0,0
		c0-2,1.7-3.7,3.8-3.7c1.6,0,3.1,1,3.6,2.5l0.3,0.7H12c0.1,0,0.1,0,0.2,0c1.7,0,3,1.3,3,2.9C15,8.7,13.7,10,12,10z"/>
	<circle cx="6" cy="15" r="1"/>
	<circle cx="10" cy="15" r="1"/>
	<circle cx="3" cy="13" r="1"/>
	<circle cx="13" cy="13" r="1"/>
</g>
</svg>
