<?xml version="1.0" encoding="utf-8"?>
<!-- Generator: Adobe Illustrator 22.1.0, SVG Export Plug-In . SVG Version: 6.00 Build 0)  -->
<svg version="1.1" id="Layer_1" xmlns="http://www.w3.org/2000/svg" xmlns:xlink="http://www.w3.org/1999/xlink" x="0px" y="0px"
	 viewBox="0 0 16 16" style="enable-background:new 0 0 16 16;" xml:space="preserve">
<style type="text/css">
	.st0{fill:none;}
	.st1{fill:#6C778C;}
	.st2{fill:#767676;}
	.st3{fill:#878787;}
	.st4{fill:none;stroke:#767676;stroke-miterlimit:10;}
	.st5{fill:url(#SVGID_1_);}
	.st6{fill:#231F20;}
	.st7{fill:url(#SVGID_2_);}
	.st8{fill:url(#SVGID_3_);}
	.st9{fill:#FFFFFF;}
	.st10{fill:#599DD3;}
	.st11{fill:#6574A7;}
	.st12{fill:#49557E;}
	.st13{fill:#451550;}
	.st14{fill:none;stroke:#6574A7;stroke-width:2;stroke-miterlimit:10;}
	.st15{enable-background:new    ;}
	.st16{fill:#292929;}
	.st17{opacity:0.5;fill:none;}
	.st18{fill:none;stroke:#6C778C;stroke-miterlimit:10;}
	.st19{fill:#3DFFA8;}
	.st20{fill:#00ACEA;}
	.st21{fill:#299A29;}
	.st22{fill:url(#SVGID_4_);}
	.st23{fill:#CECECE;}
	.st24{fill:#EAEAEA;}
	.st25{fill:#F4F2E9;}
	.st26{fill:#9B9B9B;}
	.st27{fill:url(#SVGID_5_);}
	.st28{fill:#D6CE93;}
	.st29{opacity:0.25;}
	.st30{fill:#E5E5E5;}
	.st31{fill:#D0472A;}
	.st32{opacity:0.5;}
	.st33{fill:#939393;}
	.st34{fill:#C1C1C1;}
	.st35{fill:url(#SVGID_6_);}
	.st36{opacity:0.15;}
	.st37{opacity:0.45;}
	.st38{fill:#A32B17;}
	.st39{fill:#130C0E;}
	.st40{fill:#50586B;}
	.st41{fill:#00C0C5;}
</style>
<g>
	<polygon class="st9" points="12,0 12,1 15,1 15,4 16,4 16,0 	"/>
	<polygon class="st9" points="1,1 4,1 4,0 0,0 0,4 1,4 	"/>
	<polygon class="st9" points="1,12 0,12 0,16 4,16 4,15 1,15 	"/>
	<polygon class="st9" points="15,15 12,15 12,16 16,16 16,12 15,12 	"/>
	<path class="st9" d="M9.4,6C9.4,6,9.4,6,9.4,6L10,7l2.5-4.3C11.3,1.6,9.7,1,8,1C7.5,1,7,1.1,6.6,1.1L9.4,6C9.4,6,9.4,6,9.4,6z"/>
	<path class="st9" d="M14.9,9.2C15,8.8,15,8.4,15,8c0-1.8-0.7-3.4-1.7-4.6L9.9,9.2H14.9z"/>
	<path class="st9" d="M1.4,5.8h6.7L5.6,1.4C3.6,2.2,2,3.8,1.4,5.8z"/>
	<path class="st9" d="M3.6,13.4C4.8,14.4,6.3,15,8,15c0.5,0,0.9,0,1.4-0.1L6,9L3.6,13.4z"/>
	<path class="st9" d="M1,8c0,1.8,0.7,3.5,1.8,4.7l2.7-4.9c0,0,0-0.1,0-0.1c0,0,0,0,0,0l0.5-0.9h-5C1,7.2,1,7.6,1,8z"/>
	<path class="st9" d="M14.6,10.2H7.9l2.5,4.3C12.4,13.9,13.9,12.3,14.6,10.2z"/>
	<circle class="st9" cx="8" cy="8" r="1"/>
</g>
</svg>
