<?xml version="1.0" encoding="utf-8"?>
<!-- Generator: Adobe Illustrator 22.1.0, SVG Export Plug-In . SVG Version: 6.00 Build 0)  -->
<svg version="1.1" id="Layer_1" xmlns="http://www.w3.org/2000/svg" xmlns:xlink="http://www.w3.org/1999/xlink" x="0px" y="0px"
	 viewBox="0 0 16 16" style="enable-background:new 0 0 16 16;" xml:space="preserve">
<style type="text/css">
	.st0{fill:none;}
	.st1{fill:#6C778C;}
	.st2{fill:#767676;}
	.st3{fill:#878787;}
	.st4{fill:none;stroke:#767676;stroke-miterlimit:10;}
	.st5{fill:url(#SVGID_1_);}
	.st6{fill:#231F20;}
	.st7{fill:url(#SVGID_2_);}
	.st8{fill:url(#SVGID_3_);}
	.st9{fill:#FFFFFF;}
	.st10{fill:#599DD3;}
	.st11{fill:#6574A7;}
	.st12{fill:#49557E;}
	.st13{fill:#451550;}
	.st14{fill:none;stroke:#6574A7;stroke-width:2;stroke-miterlimit:10;}
	.st15{enable-background:new    ;}
	.st16{fill:#292929;}
	.st17{opacity:0.5;fill:none;}
	.st18{fill:none;stroke:#6C778C;stroke-miterlimit:10;}
	.st19{fill:#3DFFA8;}
	.st20{fill:#00ACEA;}
	.st21{fill:#299A29;}
	.st22{fill:url(#SVGID_4_);}
	.st23{fill:#CECECE;}
	.st24{fill:#EAEAEA;}
	.st25{fill:#F4F2E9;}
	.st26{fill:#9B9B9B;}
	.st27{fill:url(#SVGID_5_);}
	.st28{fill:#D6CE93;}
	.st29{opacity:0.25;}
	.st30{fill:#E5E5E5;}
	.st31{fill:#D0472A;}
	.st32{opacity:0.5;}
	.st33{fill:#939393;}
	.st34{fill:#C1C1C1;}
	.st35{fill:url(#SVGID_6_);}
	.st36{opacity:0.15;}
	.st37{opacity:0.45;}
	.st38{fill:#A32B17;}
	.st39{fill:#130C0E;}
	.st40{fill:#50586B;}
	.st41{fill:#00C0C5;}
</style>
<path class="st9" d="M10.5,0C7.5,0,5,2.5,5,5.5c0,0.6,0.1,1.2,0.3,1.8L0.1,9.1l2.1,2.1L0,13.3L2.7,16l2.1-2.1l2.1,2.1l1.8-5.3
	c0.6,0.2,1.2,0.3,1.8,0.3c3,0,5.5-2.5,5.5-5.5C16,2.5,13.5,0,10.5,0z M6.5,14.1l-0.9-0.9l-0.7-0.7l-0.7,0.7l-1.4,1.4l-1.3-1.3
	l1.4-1.4l0.7-0.7l-0.7-0.7L1.9,9.5l7-2.4L6.5,14.1z M10.5,10C10,10,9.5,9.9,9,9.7l1.5-4.3L6.2,6.9C6.1,6.5,6,6,6,5.5C6,3,8,1,10.5,1
	S15,3,15,5.5S13,10,10.5,10z"/>
</svg>
