<svg xmlns="http://www.w3.org/2000/svg" width="16" height="16" viewBox="0 0 16 16">
    <g fill="none" fill-rule="evenodd">
        <rect width="16" height="16" fill="#F6F9FC" rx="8"/>
        <path fill="#889AAB" d="M6.936 9.066c0 .462.168.868.504 1.19l1.232-.406a.88.88 0 0 1-.308-.63c0-.56.49-.896 1.022-1.288.7-.49 1.484-1.05 1.484-2.212 0-1.26-1.078-2.198-2.842-2.198-1.26 0-2.338.518-3.052 1.386l.938 1.05c.476-.588 1.092-.98 1.946-.98.91 0 1.33.462 1.33 1.008s-.462.868-.98 1.232c-.602.434-1.274.91-1.274 1.848zm.028 3.108c0 .532.448.98.98.98s.98-.448.98-.98a.992.992 0 0 0-.98-.98.992.992 0 0 0-.98.98z"/>
    </g>
</svg>
