<?xml version="1.0" encoding="UTF-8"?>
<svg width="24px" height="24px" viewBox="0 0 24 24" version="1.1" xmlns="http://www.w3.org/2000/svg" xmlns:xlink="http://www.w3.org/1999/xlink">
    <title>Record Icon 2</title>
    <g id="Record-Icon-2" stroke="none" stroke-width="1" fill="none" fill-rule="evenodd">
        <g id="Record-Icon" fill="#9F186E">
            <rect id="Rectangle" x="0" y="0" width="24" height="24" rx="12"></rect>
        </g>
        <path d="M19,6.07692308 C19,5.48215488 18.5178451,5 17.9230769,5 L6.07692308,5 C5.48215488,5 5,5.48215488 5,6.07692308 L5,17.9230769 C5,18.5178451 5.48215488,19 6.07692308,19 L17.9230769,19 C18.5178451,19 19,18.5178451 19,17.9230769 L19,6.07692308 Z M17.9230769,6.07692308 L17.9230769,8.23076923 L6.07692308,8.23076923 L6.07692308,6.07692308 L17.9230769,6.07692308 Z M17.9230769,17.9230769 L6.07692308,17.9230769 L6.07692308,15.7692308 L17.9230769,15.7692308 L17.9230769,17.9230769 Z M17.9230769,14.6923077 L6.07692308,14.6923077 L6.07692308,12.5384615 L17.9230769,12.5384615 L17.9230769,14.6923077 Z M17.9230769,11.4615385 L6.07692308,11.4615385 L6.07692308,9.30769231 L17.9230769,9.30769231 L17.9230769,11.4615385 Z" id="Shape" fill="#FFFFFF" fill-rule="nonzero"></path>
    </g>
</svg>