<?xml version="1.0" encoding="UTF-8"?>
<svg width="24px" height="24px" viewBox="0 0 24 24" version="1.1" xmlns="http://www.w3.org/2000/svg" xmlns:xlink="http://www.w3.org/1999/xlink">
    <title>Icons/24px/General/add comment2</title>
    <g id="Symbols" stroke="none" stroke-width="1" fill="none" fill-rule="evenodd">
        <g id="Studio/Elements/Icon-left-use--without-indicator-Copy" transform="translate(-12.000000, -12.000000)" fill="#FFFFFF">
            <g id="Icons/24px/General/add-comment" transform="translate(12.000000, 12.000000)">
                <path d="M17.25,6.75375 L21.75,6.75375 C22.5784271,6.75375 23.25,6.08217712 23.25,5.25375 L23.25,2.25375 C23.25,1.42532288 22.5784271,0.75375 21.75,0.75375 L17.25,0.75375 C16.4215729,0.75375 15.75,1.42532288 15.75,2.25375 L15.75,3.00375 L8.25,3.00375 L8.25,2.25375 C8.25,1.42532288 7.57842712,0.75375 6.75,0.75375 L2.25,0.75375 C1.42157288,0.75375 0.75,1.42532288 0.75,2.25375 L0.75,5.25375 C0.75,6.08217712 1.42157288,6.75375 2.25,6.75375 L6.75,6.75375 C7.57842712,6.75375 8.25,6.08217712 8.25,5.25375 L8.25,4.50375 L11.25,4.50375 L11.25,19.50375 C11.2508268,20.3318344 11.9219156,21.0029232 12.75,21.00375 L15.75,21.00375 L15.75,21.75375 C15.75,22.5821771 16.4215729,23.25375 17.25,23.25375 L21.75,23.25375 C22.5784271,23.25375 23.25,22.5821771 23.25,21.75375 L23.25,18.75375 C23.25,17.9253229 22.5784271,17.25375 21.75,17.25375 L17.25,17.25375 C16.4215729,17.25375 15.75,17.9253229 15.75,18.75375 L15.75,19.50375 L12.75,19.50375 L12.75,12.75375 L15.75,12.75375 L15.75,13.50375 C15.75,14.3321771 16.4215729,15.00375 17.25,15.00375 L21.75,15.00375 C22.5784271,15.00375 23.25,14.3321771 23.25,13.50375 L23.25,10.50375 C23.25,9.67532288 22.5784271,9.00375 21.75,9.00375 L17.25,9.00375 C16.4215729,9.00375 15.75,9.67532288 15.75,10.50375 L15.75,11.25375 L12.75,11.25375 L12.75,4.50375 L15.75,4.50375 L15.75,5.25375 C15.75,6.08217712 16.4215729,6.75375 17.25,6.75375 Z M17.25,2.25375 L21.75,2.25375 L21.75,5.25375 L17.25,5.25375 L17.25,2.25375 Z M6.75,5.25375 L2.25,5.25375 L2.25,2.25375 L6.75,2.25375 L6.75,5.25375 Z M17.25,18.75375 L21.75,18.75375 L21.75,21.75375 L17.25,21.75375 L17.25,18.75375 Z M17.25,10.50375 L21.75,10.50375 L21.75,13.50375 L17.25,13.50375 L17.25,10.50375 Z" id="Fill"></path>
            </g>
        </g>
    </g>
</svg>