<?xml version="1.0" encoding="UTF-8"?>
<svg width="24px" height="24px" viewBox="0 0 24 24" version="1.1" xmlns="http://www.w3.org/2000/svg" xmlns:xlink="http://www.w3.org/1999/xlink">
    <title>Icons/24px/Toggle/sort down</title>
    <g stroke="none" stroke-width="1" fill="none" fill-rule="evenodd">
        <path d="M6.27297077,2.6 L11.0459415,7.37297077 L9.98528137,8.43363094 L7.02073619,5.46908576 L7.02073619,20.6408168 L5.51990205,20.6355135 L5.52520535,5.46908576 L2.56066017,8.43363094 L1.5,7.37297077 L6.27297077,2.6 Z M22.647971,19.119291 L22.647971,20.619291 L10.647971,20.619291 L10.647971,19.119291 L22.647971,19.119291 Z M19.647971,16.119291 L19.647971,17.619291 L10.647971,17.619291 L10.647971,16.119291 L19.647971,16.119291 Z M16.647971,13.119291 L16.647971,14.619291 L10.647971,14.619291 L10.647971,13.119291 L16.647971,13.119291 Z M13.647971,10.119291 L13.647971,11.619291 L10.647971,11.619291 L10.647971,10.119291 L13.647971,10.119291 Z" fill="#000000" transform="translate(12.073985, 11.620408) scale(-1, 1) rotate(-180.000000) translate(-12.073985, -11.620408) "></path>
    </g>
</svg>