<?xml version="1.0" encoding="UTF-8"?>
<svg width="24px" height="24px" viewBox="0 0 24 24" version="1.1" xmlns="http://www.w3.org/2000/svg" xmlns:xlink="http://www.w3.org/1999/xlink">
    <title>Icons/24px/Toggle/sort up</title>
    <g stroke="none" stroke-width="1" fill="none" fill-rule="evenodd">
        <path d="M5.52520535,3.34776542 L7.02603949,3.35306872 L7.02073619,18.5194965 L9.98528137,15.5549513 L11.0459415,16.6156115 L6.27297077,21.3885822 L1.5,16.6156115 L2.56066017,15.5549513 L5.52520535,18.5194965 L5.52520535,3.34776542 Z M22.647971,12.119291 L22.647971,13.619291 L10.647971,13.619291 L10.647971,12.119291 L22.647971,12.119291 Z M19.647971,9.119291 L19.647971,10.619291 L10.647971,10.619291 L10.647971,9.119291 L19.647971,9.119291 Z M16.647971,6.119291 L16.647971,7.619291 L10.647971,7.619291 L10.647971,6.119291 L16.647971,6.119291 Z M13.647971,3.119291 L13.647971,4.619291 L10.647971,4.619291 L10.647971,3.119291 L13.647971,3.119291 Z" fill="#000000"></path>
    </g>
</svg>