<svg width="20" height="20" viewBox="0 0 20 20" fill="none" xmlns="http://www.w3.org/2000/svg">
<path d="M10.0002 17.0001C13.8662 17.0001 17.0003 13.866 17.0003 9.99991C17.0003 6.13383 13.8662 2.99976 10.0002 2.99976C6.13407 2.99976 3 6.13383 3 9.99991C3 13.866 6.13407 17.0001 10.0002 17.0001Z" fill="#E12E2E"/>
<path opacity="0.3" d="M11.7104 14.271C11.8578 14.6391 11.6794 15.0622 11.2948 15.1587C10.5815 15.3377 9.83617 15.3675 9.10611 15.243C8.13919 15.0781 7.23672 14.649 6.49845 14.0032C5.76018 13.3574 5.21488 12.52 4.92285 11.5836C4.6308 10.6472 4.6034 9.64827 4.84366 8.69727C5.08391 7.74628 5.58249 6.88025 6.28423 6.19492C6.98598 5.50959 7.86357 5.03168 8.82 4.81401C9.77642 4.59634 10.7744 4.6474 11.7036 4.96153C12.4052 5.19871 13.0469 5.57888 13.5896 6.07518C13.8823 6.34279 13.8383 6.79986 13.5337 7.0538C13.2292 7.30776 12.7799 7.26036 12.4742 7.00768C12.1108 6.70724 11.6942 6.4742 11.2437 6.32192C10.5654 6.0926 9.83686 6.05534 9.13866 6.21423C8.44049 6.37314 7.79984 6.72202 7.28756 7.2223C6.77529 7.72259 6.41133 8.35479 6.23595 9.04902C6.06056 9.74325 6.08056 10.4725 6.29375 11.156C6.50695 11.8396 6.905 12.4509 7.44394 12.9223C7.98288 13.3938 8.64169 13.707 9.34753 13.8273C9.81628 13.9073 10.2936 13.9002 10.7561 13.8083C11.1451 13.7312 11.563 13.9028 11.7104 14.271Z" fill="white"/>
<path d="M9.94167 5.39972C9.93662 5.0032 10.2553 4.67267 10.6489 4.72102C11.3788 4.81071 12.0849 5.05117 12.7213 5.43005C13.5641 5.93186 14.2517 6.65695 14.7081 7.52517C15.1645 8.3934 15.372 9.37092 15.3075 10.3497C15.243 11.3284 14.9091 12.2703 14.3427 13.0711C13.7763 13.8719 12.9994 14.5005 12.0981 14.8874C11.1967 15.2743 10.2059 15.4044 9.23526 15.2633C8.26459 15.1222 7.35183 14.7154 6.59791 14.088C6.02867 13.6142 5.56674 13.0286 5.23901 12.3702C5.06228 12.0152 5.26774 11.6046 5.6433 11.4773C6.01885 11.3499 6.42102 11.5558 6.61524 11.9016C6.84618 12.3127 7.15107 12.68 7.51656 12.9842C8.06691 13.4423 8.73322 13.7392 9.44181 13.8421C10.1504 13.9451 10.8737 13.8503 11.5317 13.5678C12.1897 13.2854 12.7567 12.8265 13.1702 12.2419C13.5837 11.6573 13.8274 10.9697 13.8744 10.2553C13.9216 9.54076 13.7702 8.82717 13.437 8.19337C13.1038 7.55957 12.6018 7.03025 11.9866 6.66393C11.578 6.42066 11.1301 6.25557 10.6656 6.17478C10.2749 6.10683 9.94672 5.79623 9.94167 5.39972Z" fill="white"/>
</svg>
