<svg width="20" height="20" viewBox="0 0 20 20" fill="none" xmlns="http://www.w3.org/2000/svg">
<path d="M10.0002 17.0001C13.8662 17.0001 17.0003 13.866 17.0003 9.99991C17.0003 6.13383 13.8662 2.99976 10.0002 2.99976C6.13407 2.99976 3 6.13383 3 9.99991C3 13.866 6.13407 17.0001 10.0002 17.0001Z" fill="#264AFF"/>
<path d="M8.54595 5.66407C8.54595 5.49579 8.68236 5.35938 8.85064 5.35938H11.2882C11.4565 5.35938 11.5929 5.49579 11.5929 5.66407C11.5929 5.83235 11.4565 5.96876 11.2882 5.96876H8.85064C8.68236 5.96876 8.54595 5.83235 8.54595 5.66407ZM10.0694 13.8908C12.0887 13.8908 13.7257 12.2538 13.7257 10.2345C13.7257 8.21514 12.0887 6.57815 10.0694 6.57815C8.05008 6.57815 6.41309 8.21514 6.41309 10.2345C6.41309 12.2538 8.05008 13.8908 10.0694 13.8908ZM10.0694 7.79693C10.2377 7.79693 10.3741 7.93334 10.3741 8.10162V10.5392C10.3741 10.7075 10.2377 10.8439 10.0694 10.8439C9.90114 10.8439 9.76472 10.7075 9.76472 10.5392V8.10162C9.76472 7.93334 9.90114 7.79693 10.0694 7.79693ZM13.0878 6.35992C12.9688 6.24093 12.7759 6.24093 12.6569 6.35992C12.5379 6.47891 12.5379 6.67183 12.6569 6.79082L13.5118 7.64572C13.6308 7.76471 13.8238 7.76471 13.9427 7.64572C14.0617 7.52673 14.0617 7.33382 13.9427 7.21483L13.0878 6.35992Z" fill="white"/>
</svg>
