<svg width="20" height="20" viewBox="0 0 20 20" fill="none" xmlns="http://www.w3.org/2000/svg">
<path d="M10.0002 17.0001C13.8662 17.0001 17.0003 13.866 17.0003 9.99991C17.0003 6.13383 13.8662 2.99976 10.0002 2.99976C6.13407 2.99976 3 6.13383 3 9.99991C3 13.866 6.13407 17.0001 10.0002 17.0001Z" fill="#157757"/>
<path d="M13.9658 7.03741C14.1523 7.23521 14.1431 7.54668 13.9453 7.7331L8.74179 12.6374C8.52112 12.8454 8.17474 12.839 7.96192 12.623L6.2031 10.8379C6.01234 10.6443 6.01464 10.3327 6.20826 10.1419C6.40187 9.95119 6.71347 9.95348 6.90424 10.1471L8.37026 11.635L13.2702 7.01682C13.468 6.83039 13.7795 6.83961 13.9658 7.03741Z" fill="white" stroke="white" stroke-width="0.625014" stroke-linecap="round"/>
</svg>
