<svg width="20" height="20" viewBox="0 0 20 20" fill="none" xmlns="http://www.w3.org/2000/svg">
<path d="M10.0002 17.0001C13.8662 17.0001 17.0003 13.866 17.0003 9.99991C17.0003 6.13383 13.8662 2.99976 10.0002 2.99976C6.13407 2.99976 3 6.13383 3 9.99991C3 13.866 6.13407 17.0001 10.0002 17.0001Z" fill="#606582"/>
<path d="M11.5375 6.94034C11.958 6.51987 12.6398 6.51989 13.0603 6.94038C13.4808 7.36089 13.4808 8.04269 13.0602 8.46319L12.6475 8.87589L11.1247 7.35312L11.5375 6.94034ZM10.727 7.75085L7.3778 11.0997C7.27597 11.2015 7.19924 11.3257 7.1537 11.4623L6.63944 13.0051C6.60575 13.1061 6.63205 13.2176 6.70738 13.2929C6.78271 13.3682 6.89413 13.3945 6.9952 13.3608L8.53803 12.8465C8.67461 12.801 8.79873 12.7243 8.90053 12.6225L12.2497 9.27363L10.727 7.75085Z" fill="white"/>
</svg>
