<svg width="20" height="20" viewBox="0 0 20 20" fill="none" xmlns="http://www.w3.org/2000/svg">
<path d="M10.0002 17.0001C13.8662 17.0001 17.0003 13.866 17.0003 9.99991C17.0003 6.13383 13.8662 2.99976 10.0002 2.99976C6.13407 2.99976 3 6.13383 3 9.99991C3 13.866 6.13407 17.0001 10.0002 17.0001Z" fill="#157757"/>
<path d="M11.1476 7.61865H11.4863C12.8402 7.61865 13.9367 8.76044 13.9367 10.1675C13.9367 11.5292 12.9098 12.6425 11.6205 12.7129L11.4907 12.7164L11.1519 12.7196C10.8801 12.722 10.6578 12.4958 10.6553 12.2143C10.6532 11.9562 10.8365 11.7412 11.0764 11.7053L11.1432 11.7L11.4863 11.6969C12.2954 11.6969 12.9523 11.0128 12.9523 10.1675C12.9523 9.35751 12.349 8.69549 11.5866 8.64174L11.4863 8.63821H11.1476C10.8757 8.63821 10.6553 8.40997 10.6553 8.12843C10.6553 7.87035 10.8405 7.65707 11.0808 7.6233L11.1476 7.61865ZM8.52401 7.61865H8.85065C9.12248 7.61865 9.34284 7.84688 9.34284 8.12843C9.34284 8.38651 9.15768 8.5998 8.91744 8.63355L8.85065 8.63821H8.52401C7.70768 8.63821 7.04592 9.32361 7.04592 10.1691C7.04592 10.9794 7.65368 11.6426 8.42282 11.6965L8.52401 11.7H8.85065C9.12248 11.7 9.34284 11.9282 9.34284 12.2098C9.34284 12.4678 9.15768 12.6811 8.91744 12.7149L8.85065 12.7195H8.52401C7.16402 12.7195 6.06152 11.5777 6.06152 10.1691C6.06152 8.80597 7.09403 7.6926 8.39324 7.62219L8.52401 7.61865ZM8.52251 9.65776H11.4757C11.7475 9.65776 11.9679 9.88599 11.9679 10.1675C11.9679 10.4256 11.7827 10.6389 11.5425 10.6727L11.4757 10.6773H8.52251C8.25068 10.6773 8.03032 10.4491 8.03032 10.1675C8.03032 9.90945 8.21548 9.69617 8.45573 9.66241L8.52251 9.65776Z" fill="white"/>
</svg>
