<svg width="20" height="20" viewBox="0 0 20 20" fill="none" xmlns="http://www.w3.org/2000/svg">
<path d="M11.4126 3.77335C10.9346 3.03093 9.96196 2.77781 9.18282 3.21343C8.90606 3.36817 8.67801 3.59838 8.52476 3.87778L2.71231 14.4736L2.65768 14.582C2.28786 15.3849 2.59137 16.3514 3.37056 16.787C3.62052 16.9267 3.90156 17 4.18728 17H15.8138L15.9292 16.9961C16.8065 16.9362 17.4998 16.1989 17.4998 15.2981C17.4998 15.0096 17.4271 14.7259 17.2886 14.4735L11.4746 3.8776L11.4126 3.77335Z" fill="#F9A60C"/>
<path d="M8.40828 8.4101C8.27633 7.4865 8.993 6.66016 9.926 6.66016C10.859 6.66016 11.5757 7.4865 11.4437 8.4101L10.9349 11.9722C10.8631 12.4743 10.4332 12.8472 9.926 12.8472C9.41884 12.8472 8.98886 12.4743 8.91714 11.9722L8.40828 8.4101ZM10.8098 14.6148C10.8098 15.1031 10.4141 15.4987 9.92594 15.4987C9.43781 15.4987 9.04208 15.1031 9.04208 14.6148C9.04208 14.1267 9.43781 13.731 9.92594 13.731C10.4141 13.731 10.8098 14.1267 10.8098 14.6148Z" fill="#0A1F44"/>
</svg>
