<svg width="20" height="20" viewBox="0 0 20 20" fill="none" xmlns="http://www.w3.org/2000/svg">
<path d="M10.0002 17.0001C13.8662 17.0001 17.0003 13.866 17.0003 9.99991C17.0003 6.13383 13.8662 2.99976 10.0002 2.99976C6.13407 2.99976 3 6.13383 3 9.99991C3 13.866 6.13407 17.0001 10.0002 17.0001Z" fill="#264AFF"/>
<path d="M10.0557 8.84423C10.4359 8.84423 10.7441 9.13977 10.7441 9.50434V13.4651C10.7441 13.8296 10.4359 14.1252 10.0557 14.1252C9.67548 14.1252 9.36727 13.8296 9.36727 13.4651V9.50434C9.36727 9.13977 9.67548 8.84423 10.0557 8.84423ZM10.0557 7.85281C10.6252 7.85281 11.087 7.41006 11.087 6.86391C11.087 6.31775 10.6252 5.875 10.0557 5.875C9.48612 5.875 9.02441 6.31775 9.02441 6.86391C9.02441 7.41006 9.48612 7.85281 10.0557 7.85281Z" fill="white"/>
</svg>
