<svg width="20" height="20" viewBox="0 0 20 20" fill="none" xmlns="http://www.w3.org/2000/svg">
<path d="M10.0002 17.0001C13.8662 17.0001 17.0003 13.866 17.0003 9.99991C17.0003 6.13383 13.8662 2.99976 10.0002 2.99976C6.13407 2.99976 3 6.13383 3 9.99991C3 13.866 6.13407 17.0001 10.0002 17.0001Z" fill="#264AFF"/>
<path d="M9.99896 5.9314C10.2791 5.9314 10.5104 6.13953 10.547 6.40964L10.5482 6.41846L10.5524 6.48453L10.5521 10.4924L11.5966 9.44849C11.7931 9.25206 12.1003 9.23431 12.3169 9.39505L12.3247 9.40082L12.3791 9.44824C12.5756 9.6447 12.5931 9.95218 12.4323 10.1688L12.4265 10.1766L12.3791 10.231L10.3901 12.2195C10.1936 12.416 9.88638 12.4337 9.66974 12.273L9.66195 12.2672L9.60757 12.2198L7.61904 10.2307C7.40303 10.0147 7.40303 9.6645 7.61904 9.44849C7.8155 9.25203 8.12274 9.23431 8.33939 9.39505L8.34717 9.40082L8.40156 9.44825L9.44582 10.4933V6.48453C9.44582 6.20439 9.65395 5.97308 9.92406 5.93643L9.93288 5.93523L9.99896 5.9314Z" fill="white"/>
<path d="M7.46818 12.6814H12.5308C12.8363 12.6814 13.0839 12.929 13.0839 13.2345C13.0839 13.5147 12.8758 13.746 12.6057 13.7826L12.5969 13.7838L12.5308 13.788L7.46818 13.7876C7.16268 13.7876 6.91504 13.54 6.91504 13.2345C6.91504 12.9544 7.12317 12.7231 7.39327 12.6864L7.4021 12.6852L7.46818 12.6814Z" fill="white"/>
</svg>
