<svg width="20" height="20" viewBox="0 0 20 20" fill="none" xmlns="http://www.w3.org/2000/svg">
<path d="M10.0002 17.0001C13.8662 17.0001 17.0003 13.866 17.0003 9.99991C17.0003 6.13383 13.8662 2.99976 10.0002 2.99976C6.13407 2.99976 3 6.13383 3 9.99991C3 13.866 6.13407 17.0001 10.0002 17.0001Z" fill="#264AFF"/>
<path opacity="0.3" d="M11.7104 14.2705C11.8578 14.6386 11.6794 15.0617 11.2948 15.1582C10.5815 15.3373 9.83616 15.367 9.10611 15.2425C8.1392 15.0776 7.23672 14.6485 6.49845 14.0027C5.76018 13.3569 5.21489 12.5195 4.92284 11.5831C4.63081 10.6467 4.6034 9.64778 4.84367 8.69678C5.08392 7.74579 5.58248 6.87975 6.28423 6.19444C6.98597 5.50911 7.86358 5.0312 8.81999 4.81352C9.77641 4.59585 10.7744 4.6469 11.7036 4.96104C12.4052 5.19822 13.0469 5.5784 13.5896 6.07469C13.8822 6.3423 13.8384 6.79936 13.5338 7.05332C13.2292 7.30726 12.7799 7.25987 12.4742 7.00719C12.1108 6.70676 11.6942 6.47372 11.2437 6.32144C10.5654 6.09212 9.83686 6.05485 9.13867 6.21375C8.44048 6.37266 7.79984 6.72153 7.28757 7.22181C6.77528 7.7221 6.41134 8.3543 6.23595 9.04853C6.06055 9.74275 6.08057 10.472 6.29375 11.1555C6.50694 11.8391 6.90501 12.4504 7.44395 12.9218C7.98288 13.3933 8.64169 13.7065 9.34754 13.8268C9.81627 13.9068 10.2936 13.8997 10.7561 13.8078C11.1451 13.7307 11.563 13.9023 11.7104 14.2705Z" fill="white"/>
<path d="M9.94167 5.39947C9.93661 5.00296 10.2553 4.67242 10.6489 4.72078C11.3788 4.81047 12.0849 5.05092 12.7213 5.42979C13.5641 5.93161 14.2517 6.65671 14.7081 7.52493C15.1645 8.39316 15.3718 9.37068 15.3075 10.3494C15.243 11.3282 14.909 12.27 14.3426 13.0709C13.7762 13.8717 12.9994 14.5002 12.0981 14.8871C11.1967 15.274 10.2059 15.4041 9.23526 15.263C8.26458 15.122 7.35183 14.7152 6.5979 14.0877C6.02868 13.614 5.56673 13.0283 5.239 12.37C5.06228 12.015 5.26775 11.6044 5.6433 11.477C6.01885 11.3497 6.42101 11.5556 6.61524 11.9013C6.84617 12.3124 7.15107 12.6798 7.51655 12.984C8.06691 13.442 8.73323 13.739 9.44182 13.842C10.1504 13.945 10.8737 13.85 11.5317 13.5676C12.1897 13.2851 12.7567 12.8263 13.1702 12.2417C13.5837 11.6571 13.8274 10.9695 13.8744 10.255C13.9216 9.54052 13.7702 8.82693 13.437 8.19313C13.1038 7.55933 12.6018 7.03 11.9866 6.66368C11.578 6.42042 11.1301 6.25532 10.6655 6.17454C10.2749 6.10658 9.94673 5.79599 9.94167 5.39947Z" fill="white"/>
</svg>
