<svg width="20" height="20" viewBox="0 0 20 20" fill="none" xmlns="http://www.w3.org/2000/svg">
<path d="M10.0001 17C13.8661 17 17.0002 13.8659 17.0002 9.99985C17.0002 6.13381 13.8661 2.99976 10.0001 2.99976C6.13405 2.99976 3 6.13381 3 9.99985C3 13.8659 6.13405 17 10.0001 17Z" fill="#606582"/>
<path d="M8.5 8C8.22385 8 8 8.22386 8 8.5V11.5C8 11.7761 8.22385 12 8.5 12H9C9.27615 12 9.5 11.7761 9.5 11.5V8.5C9.5 8.22386 9.27615 8 9 8H8.5ZM11 8C10.7239 8 10.5 8.22386 10.5 8.5V11.5C10.5 11.7761 10.7239 12 11 12H11.5C11.7761 12 12 11.7761 12 11.5V8.5C12 8.22386 11.7761 8 11.5 8H11Z" fill="white"/>
</svg>
