<svg width="20" height="20" viewBox="0 0 20 20" fill="none" xmlns="http://www.w3.org/2000/svg">
<path d="M10.0002 17.0001C13.8662 17.0001 17.0003 13.866 17.0003 9.99991C17.0003 6.13383 13.8662 2.99976 10.0002 2.99976C6.13407 2.99976 3 6.13383 3 9.99991C3 13.866 6.13407 17.0001 10.0002 17.0001Z" fill="#264AFF"/>
<path d="M9.90553 6.4872L9.99975 6.48438C10.8224 6.48438 11.495 7.12653 11.5437 7.93689L11.5465 8.03112V8.31234H11.9683C12.4343 8.31234 12.812 8.69007 12.812 9.15602V12.5307C12.812 12.9967 12.4343 13.3744 11.9683 13.3744H8.03118C7.56523 13.3744 7.1875 12.9967 7.1875 12.5307V9.15602C7.1875 8.69007 7.56523 8.31234 8.03118 8.31234H8.45301V8.03112C8.45301 7.20851 9.09517 6.5359 9.90553 6.4872ZM9.99975 10.2809C9.68912 10.2809 9.4373 10.5327 9.4373 10.8434C9.4373 11.154 9.68912 11.4058 9.99975 11.4058C10.3104 11.4058 10.5622 11.154 10.5622 10.8434C10.5622 10.5327 10.3104 10.2809 9.99975 10.2809ZM10.0716 7.33168L9.99975 7.32805C9.63574 7.32805 9.33633 7.6047 9.30032 7.95923L9.29669 8.03112V8.31234H10.7028V8.03112C10.7028 7.6671 10.4262 7.36769 10.0716 7.33168Z" fill="white"/>
</svg>
