<svg width="20" height="20" viewBox="0 0 20 20" fill="none" xmlns="http://www.w3.org/2000/svg">
<path d="M11.4132 3.77334C10.9353 3.03093 9.96267 2.77781 9.18355 3.21343C8.90681 3.36817 8.67877 3.59839 8.52552 3.87777L2.71328 14.4736L2.65866 14.582C2.28884 15.3849 2.59234 16.3514 3.3715 16.787C3.62145 16.9266 3.90248 17 4.1882 17H15.8143L15.9297 16.9961C16.807 16.9362 17.5002 16.1988 17.5002 15.2981C17.5002 15.0096 17.4275 14.7259 17.2891 14.4735L11.4753 3.8776L11.4132 3.77334Z" fill="#F9A60C"/>
<path fill-rule="evenodd" clip-rule="evenodd" d="M7.4797 9.88693L6.54628 9.0033C6.3456 8.8026 6.34564 8.47718 6.54634 8.2765C6.7468 8.07602 7.0717 8.0758 7.27244 8.27586L14.1615 15.045L14.1627 15.0462C14.3633 15.2468 14.3633 15.5722 14.1627 15.773C13.9625 15.973 13.6382 15.9736 13.4374 15.7746L12.0962 14.4909L11.3361 14.5001C11.0522 14.5015 10.8211 14.2723 10.8198 13.9886C10.8188 13.7796 10.9426 13.5994 11.1212 13.5182L10.1422 12.5393L8.72213 12.5386C8.43833 12.5385 8.20835 12.3083 8.20848 12.0245M7.4797 9.88693C6.74454 10.3152 6.25 11.112 6.25 12.0247C6.25 13.3902 7.35691 14.4972 8.72237 14.4972H9.38362L9.45906 14.4903L9.46733 14.4889C9.70718 14.4453 9.88908 14.2358 9.88908 13.9832C9.88908 13.6994 9.65902 13.4693 9.3752 13.4693H8.7254L8.62424 13.4661C7.87227 13.4157 7.27778 12.7896 7.27778 12.0247C7.27778 11.3892 7.68835 10.8491 8.25897 10.656L9.11398 11.511L8.63877 11.5176L8.63044 11.5191C8.39058 11.5625 8.20859 11.772 8.20848 12.0245M12.7286 13.2819L12.8913 13.1509C13.2208 12.8859 13.4311 12.4799 13.4311 12.0247C13.4311 11.2599 12.8366 10.6337 12.0846 10.5834L11.9835 10.5801H11.6586H11.3337C11.0499 10.5801 10.8198 10.3501 10.8198 10.0662C10.8198 9.81377 11.0017 9.60415 11.2415 9.56063L11.2498 9.55912L11.3253 9.55236H11.9865C13.352 9.55236 14.4589 10.6593 14.4589 12.0247C14.4589 12.7764 14.1232 13.4499 13.5945 13.903L13.4626 14.016L12.7286 13.2819ZM10.9585 11.5119L11.9867 11.5123C12.2706 11.5125 12.5005 11.7427 12.5004 12.0264C12.5003 12.2724 12.3276 12.4775 12.0971 12.5282L11.9969 12.5502L10.9585 11.5119Z" fill="#0A1F44"/>
</svg>
