<svg width="20" height="20" viewBox="0 0 20 20" fill="none" xmlns="http://www.w3.org/2000/svg">
<path d="M11.4115 3.77334C10.9337 3.03093 9.96112 2.77781 9.18207 3.21343C8.90534 3.36816 8.67732 3.59839 8.52408 3.87777L2.71229 14.4737L2.65768 14.582C2.28788 15.3849 2.59135 16.3514 3.37045 16.787C3.62039 16.9267 3.9014 17 4.1871 17H15.8123L15.9277 16.996C16.805 16.9361 17.4981 16.1989 17.4981 15.298C17.4981 15.0096 17.4255 14.7258 17.287 14.4735L11.4736 3.87759L11.4115 3.77334Z" fill="#F9A60C"/>
<path d="M10.3095 9.17477C10.5438 8.94044 10.9238 8.94044 11.1582 9.17477L13.1047 11.1217L13.1651 11.2005L13.2113 11.2896L13.2388 11.3712L13.2562 11.4709V11.5223L13.2571 11.5224C13.2571 11.5338 13.2568 11.5453 13.2562 11.5567V11.5645L13.2545 11.5788C13.2522 11.6023 13.2487 11.6257 13.2437 11.6485L13.2424 11.6548L13.2362 11.681L13.2118 11.7532L13.176 11.8255L13.1185 11.908L11.1478 13.8802L11.0875 13.9306L11.0753 13.9391C10.8413 14.1012 10.5181 14.0785 10.3095 13.8699C10.0752 13.6356 10.0752 13.2557 10.3095 13.0213L11.2085 12.1222L9.66775 12.1224L9.53062 12.1245C8.79131 12.148 8.22543 12.3644 7.85006 12.6871C7.47894 13.0062 7.27334 13.4456 7.27334 13.9703C7.27334 14.3016 7.00469 14.5703 6.6733 14.5703C6.34189 14.5703 6.07324 14.3016 6.07324 13.9703V13.9638L6.07563 13.8445C6.10943 12.9835 6.49056 12.2437 7.13205 11.7243C7.76973 11.208 8.64738 10.9223 9.66515 10.9223L11.2085 10.9221L10.2992 10.013L10.2488 9.95275L10.2403 9.94056C10.0782 9.70651 10.101 9.38332 10.3095 9.17477Z" fill="#0A1F44"/>
</svg>
