<svg width="20" height="20" viewBox="0 0 20 20" fill="none" xmlns="http://www.w3.org/2000/svg">
<path d="M10 17C13.866 17 17 13.866 17 10C17 6.13401 13.866 3 10 3C6.13401 3 3 6.13401 3 10C3 13.866 6.13401 17 10 17Z" fill="#606582"/>
<path d="M10 14.2C12.3196 14.2 14.2 12.3196 14.2 10C14.2 7.6804 12.3196 5.8 10 5.8C7.6804 5.8 5.8 7.6804 5.8 10C5.8 12.3196 7.6804 14.2 10 14.2ZM10 13.5C8.06701 13.5 6.5 11.933 6.5 10C6.5 8.06701 8.06701 6.5 10 6.5C11.933 6.5 13.5 8.06701 13.5 10C13.5 11.933 11.933 13.5 10 13.5Z" fill="white"/>
</svg>
