<svg width="20" height="20" viewBox="0 0 20 20" fill="none" xmlns="http://www.w3.org/2000/svg">
<path d="M5.46833 4.52348C5.84981 3.89015 6.55481 3.5 7.31778 3.5H12.6822C13.4452 3.5 14.1502 3.89015 14.5317 4.52348L17.2139 8.9765C17.5954 9.60984 17.5954 10.3901 17.2139 11.0235L14.5317 15.4765C14.1502 16.1098 13.4452 16.5 12.6822 16.5H7.31778C6.55481 16.5 5.84981 16.1098 5.46833 15.4765L2.78611 11.0235C2.40463 10.3901 2.40463 9.60984 2.78611 8.9765L5.46833 4.52348Z" fill="#E12E2E"/>
<path d="M12.2991 6.81715C12.5429 6.57332 12.9382 6.57332 13.1821 6.81716C13.4259 7.061 13.4259 7.45633 13.1821 7.70017L10.8826 9.99987L13.1821 12.2996C13.4039 12.5214 13.4238 12.8681 13.2423 13.1127L13.2377 13.1191L13.1876 13.177L13.1821 13.1826C12.9603 13.4044 12.6135 13.4243 12.3689 13.2428L12.3626 13.2381L12.3046 13.1881L9.99937 10.8831L7.69968 13.1826C7.45584 13.4264 7.0605 13.4264 6.81666 13.1826C6.57283 12.9387 6.57283 12.5434 6.81666 12.2996L9.11619 9.99987L6.81666 7.70017C6.59487 7.47836 6.57491 7.13158 6.75639 6.887L6.76108 6.88067L6.81114 6.82268L6.81666 6.81716C7.03847 6.59536 7.38525 6.5754 7.62985 6.75688L7.63617 6.76157L7.69415 6.81163L9.99937 9.11668L12.2991 6.81715Z" fill="white"/>
</svg>
