<svg width="20" height="20" viewBox="0 0 20 20" fill="none" xmlns="http://www.w3.org/2000/svg">
<path d="M10.0002 17.0001C13.8662 17.0001 17.0003 13.866 17.0003 9.99991C17.0003 6.13383 13.8662 2.99976 10.0002 2.99976C6.13407 2.99976 3 6.13383 3 9.99991C3 13.866 6.13407 17.0001 10.0002 17.0001Z" fill="#264AFF"/>
<path d="M11.6424 6.25C10.476 6.25 9.53054 7.19548 9.53054 8.36181C9.53054 8.52695 9.54954 8.68793 9.58557 8.84257L6.91897 11.6062C6.49006 12.0507 6.53647 12.7678 7.01908 13.1534C7.43829 13.4882 8.04269 13.4526 8.41961 13.0707L11.0628 10.393C11.2472 10.4456 11.4417 10.4736 11.6424 10.4736C12.8087 10.4736 13.7541 9.52812 13.7541 8.36181C13.7541 8.26613 13.7478 8.17182 13.7354 8.07929C13.7221 7.97976 13.6534 7.89642 13.5583 7.86425C13.4632 7.83207 13.3581 7.85665 13.2871 7.92765L12.1704 9.04436L10.9599 7.83388L12.0766 6.71709C12.1476 6.64608 12.1722 6.54096 12.14 6.44585C12.1079 6.35074 12.0245 6.28211 11.925 6.26879C11.8324 6.25639 11.7381 6.25 11.6424 6.25Z" fill="white"/>
</svg>
