<svg width="20" height="20" viewBox="0 0 20 20" fill="none" xmlns="http://www.w3.org/2000/svg">
<path d="M10.0002 17.0001C13.8662 17.0001 17.0003 13.866 17.0003 9.99991C17.0003 6.13383 13.8662 2.99976 10.0002 2.99976C6.13407 2.99976 3 6.13383 3 9.99991C3 13.866 6.13407 17.0001 10.0002 17.0001Z" fill="#264AFF"/>
<path d="M10.0001 5.40601C8.18784 5.40601 6.71875 6.8751 6.71875 8.68733C6.71875 9.76086 7.23429 10.714 8.03128 11.3126C8.07517 11.3456 8.11991 11.3775 8.16546 11.4082C8.68916 11.7621 9.32048 11.9686 10.0001 11.9686C10.7388 11.9686 11.4205 11.7246 11.9689 11.3126C12.7659 10.714 13.2814 9.76086 13.2814 8.68733C13.2814 6.8751 11.8123 5.40601 10.0001 5.40601ZM8.03128 14.2656V12.0981C8.61044 12.4332 9.28287 12.6249 10.0001 12.6249C10.7173 12.6249 11.3897 12.4332 11.9689 12.0981V14.2656C11.9689 14.3838 11.9053 14.4929 11.8024 14.5511C11.6995 14.6094 11.5733 14.6078 11.4719 14.5469L10.0001 13.6638L8.52824 14.5469C8.42686 14.6078 8.30061 14.6094 8.19774 14.5511C8.09487 14.4929 8.03128 14.3838 8.03128 14.2656Z" fill="white"/>
</svg>
