<svg width="20" height="20" viewBox="0 0 20 20" fill="none" xmlns="http://www.w3.org/2000/svg">
<path d="M5.46833 4.52348C5.84981 3.89015 6.55481 3.5 7.31778 3.5H12.6822C13.4452 3.5 14.1502 3.89015 14.5317 4.52348L17.2139 8.9765C17.5954 9.60984 17.5954 10.3901 17.2139 11.0235L14.5317 15.4765C14.1502 16.1098 13.4452 16.5 12.6822 16.5H7.31778C6.55481 16.5 5.84981 16.1098 5.46833 15.4765L2.78611 11.0235C2.40463 10.3901 2.40463 9.60984 2.78611 8.9765L5.46833 4.52348Z" fill="#E12E2E"/>
<path fill-rule="evenodd" clip-rule="evenodd" d="M7.44528 8.10044L6.61583 7.31524C6.43749 7.13691 6.43754 6.84772 6.61587 6.66939C6.79401 6.49125 7.08272 6.49106 7.2611 6.66882L13.3828 12.684L13.3838 12.685C13.5621 12.8634 13.5621 13.1525 13.3838 13.3308C13.206 13.5086 12.9179 13.5091 12.7394 13.3323L11.5476 12.1916L10.8721 12.1998C10.6199 12.201 10.4145 11.9974 10.4133 11.7453C10.4125 11.5595 10.5225 11.3994 10.6812 11.3273L9.81123 10.4574L8.54931 10.4568C8.29712 10.4567 8.09276 10.2521 8.09288 9.99993M7.44528 8.10044C6.792 8.48098 6.35254 9.18909 6.35254 10.0001C6.35254 11.2135 7.33616 12.1971 8.54953 12.1971H9.13714L9.20417 12.1911L9.21151 12.1898C9.42465 12.1511 9.58629 11.9649 9.58629 11.7405C9.58629 11.4883 9.38184 11.2838 9.12964 11.2838H8.55222L8.46234 11.2809C7.79412 11.2362 7.26584 10.6798 7.26584 10.0001C7.26584 9.43538 7.63068 8.95546 8.13774 8.78387L8.89751 9.54364L8.47524 9.54945L8.46785 9.5508C8.25469 9.58939 8.09298 9.77557 8.09288 9.99993M12.1095 11.1173L12.2541 11.0009C12.5469 10.7653 12.7338 10.4046 12.7338 10.0001C12.7338 9.32049 12.2055 8.76409 11.5373 8.71936L11.4474 8.71645H11.1587H10.87C10.6178 8.71645 10.4133 8.512 10.4133 8.25979C10.4133 8.03543 10.5749 7.84918 10.7881 7.81049L10.7955 7.80916L10.8625 7.80314H11.4501C12.6634 7.80314 13.647 8.78677 13.647 10.0001C13.647 10.6681 13.3488 11.2665 12.879 11.6692L12.7618 11.7696L12.1095 11.1173ZM10.5366 9.54439L11.4503 9.54482C11.7025 9.54493 11.9068 9.74949 11.9067 10.0017C11.9066 10.2202 11.7532 10.4025 11.5484 10.4475L11.4593 10.4671L10.5366 9.54439Z" fill="white"/>
</svg>
