<svg width="20" height="20" viewBox="0 0 20 20" fill="none" xmlns="http://www.w3.org/2000/svg">
<path d="M10.0002 17.0001C13.8662 17.0001 17.0003 13.866 17.0003 9.99991C17.0003 6.13383 13.8662 2.99976 10.0002 2.99976C6.13407 2.99976 3 6.13383 3 9.99991C3 13.866 6.13407 17.0001 10.0002 17.0001Z" fill="#E12E2E"/>
<path d="M8.51536 7.40695C8.38628 6.46644 9.08736 5.625 10 5.625C10.9127 5.625 11.6138 6.46646 11.4847 7.40695L10.9869 11.0342C10.9168 11.5454 10.4962 11.9251 10 11.9251C9.50392 11.9251 9.08331 11.5454 9.01314 11.0342L8.51536 7.40695ZM10.8646 13.7252C10.8646 14.2222 10.4775 14.6252 9.99999 14.6252C9.52248 14.6252 9.13537 14.2222 9.13537 13.7252C9.13537 13.2281 9.52248 12.8252 9.99999 12.8252C10.4775 12.8252 10.8646 13.2281 10.8646 13.7252Z" fill="white"/>
</svg>
