<svg width="20" height="20" viewBox="0 0 20 20" fill="none" xmlns="http://www.w3.org/2000/svg">
<path d="M10.0002 17.0001C13.8662 17.0001 17.0003 13.866 17.0003 9.99991C17.0003 6.13383 13.8662 2.99976 10.0002 2.99976C6.13407 2.99976 3 6.13383 3 9.99991C3 13.866 6.13407 17.0001 10.0002 17.0001Z" fill="#264AFF"/>
<path d="M9.29218 6.73915C9.29218 6.34818 9.60912 6.03125 10.0001 6.03125C10.391 6.03125 10.708 6.34818 10.708 6.73915V9.2922H13.261C13.652 9.2922 13.9689 9.60913 13.9689 10.0001C13.9689 10.391 13.652 10.708 13.261 10.708H10.708V13.261C10.708 13.652 10.391 13.969 10.0001 13.969C9.60912 13.969 9.29218 13.652 9.29218 13.261V10.708H6.73914C6.34818 10.708 6.03125 10.391 6.03125 10.0001C6.03125 9.60913 6.34818 9.2922 6.73914 9.2922H9.29218V6.73915Z" fill="white"/>
</svg>
