<svg width="20" height="20" viewBox="0 0 20 20" fill="none" xmlns="http://www.w3.org/2000/svg">
<path d="M10.0002 17.0001C13.8662 17.0001 17.0003 13.866 17.0003 9.99991C17.0003 6.13383 13.8662 2.99976 10.0002 2.99976C6.13407 2.99976 3 6.13383 3 9.99991C3 13.866 6.13407 17.0001 10.0002 17.0001Z" fill="#606582"/>
<path d="M7.89457 10C7.89457 10.5286 7.46609 10.9571 6.93751 10.9571C6.40895 10.9571 5.98047 10.5286 5.98047 10C5.98047 9.47145 6.40895 9.04297 6.93751 9.04297C7.46609 9.04297 7.89457 9.47145 7.89457 10ZM10.9571 10C10.9571 10.5286 10.5287 10.9571 10.0001 10.9571C9.47152 10.9571 9.04304 10.5286 9.04304 10C9.04304 9.47145 9.47152 9.04297 10.0001 9.04297C10.5287 9.04297 10.9571 9.47145 10.9571 10ZM13.0626 10.9571C13.5912 10.9571 14.0197 10.5286 14.0197 10C14.0197 9.47145 13.5912 9.04297 13.0626 9.04297C12.5341 9.04297 12.1056 9.47145 12.1056 10C12.1056 10.5286 12.5341 10.9571 13.0626 10.9571Z" fill="white"/>
</svg>
