<svg width="20" height="20" viewBox="0 0 20 20" fill="none" xmlns="http://www.w3.org/2000/svg">
<path d="M10.0002 17.0001C13.8662 17.0001 17.0003 13.866 17.0003 9.99991C17.0003 6.13383 13.8662 2.99976 10.0002 2.99976C6.13407 2.99976 3 6.13383 3 9.99991C3 13.866 6.13407 17.0001 10.0002 17.0001Z" fill="#606582"/>
<path d="M6.70867 10.4098L6.70803 10.412C6.66147 10.587 6.48184 10.6915 6.30676 10.6451C6.02389 10.5702 6.07369 10.2439 6.07369 10.2439L6.08528 10.2036C6.08528 10.2036 6.10242 10.1484 6.11622 10.1083C6.14379 10.0282 6.18597 9.9163 6.24592 9.7831C6.36551 9.51742 6.55773 9.16293 6.84933 8.80735C7.43834 8.08911 8.42852 7.37476 10.0003 7.37476C11.5721 7.37476 12.5623 8.08911 13.1513 8.80735C13.4429 9.16293 13.6351 9.51742 13.7547 9.7831C13.8147 9.9163 13.8568 10.0282 13.8844 10.1083C13.8982 10.1484 13.9084 10.1806 13.9153 10.2036C13.9188 10.2151 13.9215 10.2243 13.9234 10.2311L13.9257 10.2393L13.9264 10.2421L13.9269 10.2439C13.9734 10.419 13.869 10.5987 13.6939 10.6451C13.519 10.6915 13.3396 10.5875 13.2928 10.4128L13.2919 10.4098L13.2871 10.3934C13.2825 10.3779 13.2748 10.3537 13.2639 10.322C13.2421 10.2585 13.2071 10.1654 13.1563 10.0525C13.0543 9.82596 12.8904 9.52418 12.6438 9.2235C12.1565 8.62921 11.3419 8.03102 10.0003 8.03102C8.6587 8.03102 7.84414 8.62921 7.35678 9.2235C7.1102 9.52418 6.94631 9.82596 6.84436 10.0525C6.79353 10.1654 6.75857 10.2585 6.7367 10.322C6.72578 10.3537 6.71817 10.3779 6.71349 10.3934L6.70867 10.4098ZM8.3597 10.9842C8.3597 10.0781 9.09426 9.34355 10.0004 9.34355C10.9065 9.34355 11.641 10.0781 11.641 10.9842C11.641 11.8903 10.9065 12.6249 10.0004 12.6249C9.09426 12.6249 8.3597 11.8903 8.3597 10.9842Z" fill="white"/>
</svg>
