<svg xmlns="http://www.w3.org/2000/svg" width="18" height="18" viewBox="0 0 18 18">
    <g fill="none" fill-rule="evenodd">
        <path d="M-3-3h24v24H-3z"/>
        <g>
            <circle cx="9" cy="9" r="9" fill="#8B7DFF"/>
            <path fill="#FFF" d="M12.148 10.732c0 1.152-.744 2.244-2.568 2.388v1.08h-.852v-1.068c-1.236-.084-2.148-.576-2.76-1.26l.684-.924a3.356 3.356 0 0 0 2.076 1.092V9.424C7.504 9.112 6.22 8.668 6.22 7.156c0-1.236 1.02-2.16 2.508-2.268V3.784h.852V4.9c.996.096 1.788.48 2.388 1.092l-.708.888a2.974 2.974 0 0 0-1.68-.876v2.34c1.248.336 2.568.792 2.568 2.388zm-4.692-3.66c0 .576.552.84 1.272 1.044v-2.16c-.768.06-1.272.492-1.272 1.116zM9.58 12.04c.984-.108 1.344-.696 1.344-1.2 0-.684-.588-.96-1.344-1.188v2.388z"/>
        </g>
    </g>
</svg>
