<?xml version="1.0" encoding="UTF-8"?>
<svg width="16px" height="16px" viewBox="0 0 16 16" version="1.1" xmlns="http://www.w3.org/2000/svg" xmlns:xlink="http://www.w3.org/1999/xlink">
    <!-- Generator: Sketch 51.2 (57519) - http://www.bohemiancoding.com/sketch -->
    <title>tag</title>
    <desc>Created with Sketch.</desc>
    <defs>
        <path d="M14.6666667,6.83730828 L7.08681388,14.4480634 L1.58283893,8.94408842 L9.16269172,1.33333333 L14.6666667,1.33333333 L14.6666667,6.83730828 Z M15.3330902,0 C15.7018913,0 16,0.298766255 16,0.666888963 L16,7.00100033 C15.9993331,7.17772591 15.9286407,7.34711571 15.8032616,7.47115705 L7.46822279,15.8059353 C7.20812796,16.0646882 6.78797478,16.0646882 6.52787996,15.8059353 L0.193570573,9.47182394 C-0.0645235242,9.21107036 -0.0645235242,8.7915972 0.193570573,8.5315105 L8.52860939,0.196732244 C8.65265461,0.071357119 8.82204971,0.000666888963 8.99878081,0 L15.3330902,0 Z M11.6666667,4 C11.4833333,4 11.3333333,4.14933333 11.3333333,4.33333333 C11.3333333,4.51733333 11.4833333,4.66666667 11.6666667,4.66666667 C11.8506667,4.66666667 12,4.51733333 12,4.33333333 C12,4.14933333 11.8506667,4 11.6666667,4 Z M11.6663333,6 C12.5871841,6 13.3333333,5.25333333 13.3333333,4.33333333 C13.3333333,3.41266667 12.5871841,2.66666667 11.6663333,2.66666667 C10.7461492,2.66666667 10,3.41266667 10,4.33333333 C10,5.25333333 10.7461492,6 11.6663333,6" id="path-1"></path>
    </defs>
    <g id="Icons" stroke="none" stroke-width="1" fill="none" fill-rule="evenodd">
        <g transform="translate(-276.000000, -712.000000)" id="General-icons-16x16">
            <g transform="translate(42.000000, 615.000000)">
                <g id="Icons" transform="translate(0.000000, 48.000000)">
                    <g id="general-icons-24x24/icon-tag" transform="translate(234.000000, 49.000000)">
                        <g id="Fill-4-+-colors/ce-grey-light-Mask">
                            <mask id="mask-2" fill="white">
                                <use xlink:href="#path-1"></use>
                            </mask>
                            <use id="Mask" fill="#BBCAD9" xlink:href="#path-1"></use>
                            <g id="colors/ce-grey-light" mask="url(#mask-2)" fill="#BBCAD9">
                                <g transform="translate(-20.666667, -14.000000)">
                                    <rect x="0" y="0" width="61" height="61"></rect>
                                </g>
                            </g>
                        </g>
                    </g>
                </g>
            </g>
        </g>
    </g>
</svg>
