<?xml version="1.0" encoding="UTF-8" standalone="no"?>
<svg width="48px" height="47px" viewBox="0 0 48 47" version="1.1" xmlns="http://www.w3.org/2000/svg" xmlns:xlink="http://www.w3.org/1999/xlink">
    <!-- Generator: sketchtool 42 (36781) - http://www.bohemiancoding.com/sketch -->
    <title>8BE5AB28-2D88-49CD-AE10-43B5CCC10DF9</title>
    <desc>Created with sketchtool.</desc>
    <defs>
        <circle id="path-1" cx="7" cy="5" r="5"></circle>
        <mask id="mask-2" maskContentUnits="userSpaceOnUse" maskUnits="objectBoundingBox" x="0" y="0" width="10" height="10" fill="white">
            <use xlink:href="#path-1"></use>
        </mask>
    </defs>
    <g id="LOGIN" stroke="none" stroke-width="1" fill="none" fill-rule="evenodd">
        <g id="Start-your-team" transform="translate(-240.000000, -478.000000)" stroke="#6B7985">
            <g id="BODY" transform="translate(190.000000, 159.000000)">
                <g id="left-side" transform="translate(35.000000, 58.000000)">
                    <g id="icon" transform="translate(16.000000, 261.000000)">
                        <g id="Group" transform="translate(16.000000, 0.000000)">
                            <path d="M9,9.4497414 L9,8.6480103 C10,8.0240479 11.1867981,6.6286011 11.1867981,5 C11.1867981,2.7908325 9.3025665,1 7.0933991,1 C4.8842317,1 2.8862076,2.7908325 2.8862076,5 C2.8862076,6.6072388 4,7.9835815 5,8.6194458 L5,9.4287653 C5,11.7754669 4.4446716,14.0736742 3.5061741,16.2245407 C2.0547848,19.5508575 0.8395081,25.1467438 0.8395081,31.5 C0.8395081,36.6511803 1.6402398,41.3022003 2.7611943,44.6543503 C3.0321293,45.4645691 3.7997513,46 4.6540661,46 L9.2170429,46 C10.0704841,46 10.8372707,45.4656334 11.1090889,44.6566353 C12.2354507,41.3043137 13.0567322,36.6523514 13.0567322,31.5 C13.0567322,25.2120209 11.8998204,19.6621513 10.4776154,16.3219833 C9.5493221,14.1418133 9,11.819314 9,9.4497414 Z" id="Shape" stroke-width="2" stroke-linecap="round" stroke-linejoin="round" fill="#B8E986"></path>
                            <path d="M5,9 L9,9" id="Shape" stroke-width="2" stroke-linecap="round" stroke-linejoin="round"></path>
                            <use id="Oval-2" mask="url(#mask-2)" stroke-width="4" fill="#EAFFD4" xlink:href="#path-1"></use>
                            <path d="M5,15 L9,15" id="Shape" stroke-width="2" stroke-linecap="round" stroke-linejoin="round"></path>
                        </g>
                        <g id="Group" transform="translate(28.000000, 4.000000)" stroke-width="2" stroke-linecap="round" stroke-linejoin="round">
                            <path d="M7.9119339,7.3231096 L7.9119339,6.6282758 C8.7786026,6.0875081 9.8071594,4.8781213 9.8071594,3.4666662 C9.8071594,1.5520549 8.17416,0 6.2595482,0 C4.3449364,0 2.6133137,1.5520549 2.6133137,3.4666662 C2.6133137,4.8596067 3.5786019,6.0524378 4.4452667,6.6035194 L4.4452667,7.3049278 C4.4452667,9.3387356 3.9639816,11.3305168 3.1506195,13.194601 C1.8927479,16.0774097 0.839508,20.9271774 0.839508,26.4333324 C0.839508,30.7990684 1.5031547,34.7502746 2.440998,37.6395988 C2.7066479,38.4580193 3.4790878,39 4.3395424,39 L7.9062767,39 C8.7657433,39 9.5372429,38.45924 9.8039093,37.642189 C10.746994,34.7526359 11.4277687,30.8003769 11.4277687,26.4333324 C11.4277687,20.8056011 10.3584862,15.8600711 9.0709419,13.0013389 C8.2693214,11.2215023 7.9119339,9.2751369 7.9119339,7.3231096 Z" id="Shape"></path>
                            <path d="M5,7 L8,7" id="Shape"></path>
                            <path d="M4,12 L8,12" id="Shape"></path>
                        </g>
                        <g id="Group" transform="translate(39.000000, 11.000000)" stroke-width="2" stroke-linecap="round" stroke-linejoin="round">
                            <path d="M1.8836746,24.6333504 L4.1029777,24.6333504 C4.6377563,24.6333504 5.1178016,24.2968788 5.2837295,23.7884903 C5.8705368,21.9905434 6.2941322,19.5313549 6.2941322,16.8140812 C6.2941322,13.312376 5.6287994,10.2351532 4.8276596,8.4563828 C4.3288727,7.3489266 4.1064987,6.1378537 4.1064987,4.9232579 L4.1064987,4.4909154 C4.6457557,4.1544381 5.2857513,3.401929 5.2857513,2.5236894 C5.2857513,1.3323737 4.2696571,0.3666488 3.0783424,0.3666488 C1.8870277,0.3666488 0.8095741,1.3323737 0.8095741,2.5236894 C0.8095741,3.3904086 1.4101982,4.1326162 1.9494552,4.4755117 L1.9494552,4.9119436 C1.9494552,6.1774275 1.64999,7.4167577 1.1438941,8.5766355 C0.8233527,9.3112585 0.5241698,10.2511617 0.2826079,11.3403284" id="Shape"></path>
                            <path d="M2,5 L4,5" id="Shape"></path>
                            <path d="M2,8 L4,8" id="Shape"></path>
                        </g>
                        <g id="Group" transform="translate(0.000000, 11.000000)" stroke-width="2" stroke-linecap="round" stroke-linejoin="round">
                            <path d="M6.4755635,10.3032856 C6.2794695,9.5932293 6.0592375,8.9705582 5.8276582,8.4563828 C5.3288722,7.3489266 5.1064968,6.1378537 5.1064968,4.9232579 L5.1064968,4.4909154 C5.6457567,4.1544381 6.2857499,3.401929 6.2857499,2.5236894 C6.2857499,1.3323737 5.269659,0.3666488 4.0783429,0.3666488 C2.8870268,0.3666488 1.8095729,1.3323737 1.8095729,2.5236894 C1.8095729,3.3904086 2.4101965,4.1326162 2.9494567,4.4755117 L2.9494567,4.9119436 C2.9494567,6.1774275 2.6499903,7.4167577 2.1438954,8.5766355 C1.3612197,10.3703863 0.7058696,13.3880235 0.7058696,16.8140813 C0.7058696,19.5305425 1.1188057,21.989071 1.7023535,23.7868768 C1.8676472,24.2961198 2.3482778,24.6333505 2.8836727,24.6333505 L5.1029768,24.6333505" id="Shape"></path>
                            <path d="M3,5 L5,5" id="Shape"></path>
                            <path d="M3,8 L5,8" id="Shape"></path>
                        </g>
                        <g id="Group" transform="translate(5.000000, 4.000000)" stroke-width="2" stroke-linecap="round" stroke-linejoin="round">
                            <path d="M7.9119349,7.3231096 L7.9119349,6.6282758 C8.7786007,6.0875081 9.8071595,4.8781213 9.8071595,3.4666662 C9.8071594,1.5520549 8.174159,0 6.2595472,0 C4.3449354,0 2.6133146,1.5520549 2.6133146,3.4666662 C2.6133146,4.8596067 3.5786009,6.0524378 4.4452676,6.6035194 L4.4452676,7.3049278 C4.4452676,9.3387356 3.9639835,11.3305168 3.1506175,13.194601 C1.8927478,16.0774097 0.839508,20.9271774 0.839508,26.4333324 C0.839508,30.7990684 1.5031542,34.7502746 2.4409971,37.6395988 C2.7066479,38.4580193 3.4790888,39 4.3395443,39 L7.9062777,39 C8.7657433,39 9.5372439,38.45924 9.8039103,37.642189 C10.7469941,34.7526359 11.4277688,30.8003769 11.4277688,26.4333324 C11.4277688,20.8056011 10.3584863,15.8600711 9.070942,13.0013389 C8.2693224,11.2215023 7.9119349,9.2751369 7.9119349,7.3231096 Z" id="Shape"></path>
                            <path d="M5,7 L8,7" id="Shape"></path>
                            <path d="M4,12 L8,12" id="Shape"></path>
                        </g>
                    </g>
                </g>
            </g>
        </g>
    </g>
</svg>