<?xml version="1.0" encoding="UTF-8"?>
<svg width="59px" height="65px" viewBox="0 0 59 65" version="1.1" xmlns="http://www.w3.org/2000/svg" xmlns:xlink="http://www.w3.org/1999/xlink">
    <!-- Generator: Sketch 48.1 (47250) - http://www.bohemiancoding.com/sketch -->
    <title>line cube</title>
    <desc>Created with Sketch.</desc>
    <defs>
        <linearGradient x1="14.1199055%" y1="85.9129272%" x2="83.8048738%" y2="14.585415%" id="linearGradient-1">
            <stop stop-color="#3BD0EA" offset="0%"></stop>
            <stop stop-color="#6485FD" offset="100%"></stop>
        </linearGradient>
    </defs>
    <g id="Datapool-Tile" stroke="none" stroke-width="1" fill="none" fill-rule="evenodd" transform="translate(-90.000000, -15.000000)">
        <g id="line-cube" transform="translate(90.000000, 16.000000)">
            <path d="M30.1762997,60.3175676 L41.3428306,53.8669732 L41.3428306,39.8535462 L30.1762997,46.3005459 L30.1762997,60.3175676 Z M28.2369058,60.4150559 L28.2369058,45.8353948 L17.1878771,39.4565148 L17.1878771,53.9625909 L17.0619813,53.9625909 L28.2369058,60.4150559 Z M30.1762997,17.618297 L30.1762997,30.4373793 L41.3428306,36.8846616 L41.3428306,24.0655794 L30.1762997,17.618297 Z M28.2369058,17.6861399 L17.1878771,24.0655794 L17.1878771,36.8580665 L28.2369058,30.4786271 L28.2369058,17.6861399 Z M29.2297334,30.9344951 L29.2423228,30.9562996 L29.2549122,30.9344951 L29.2297334,30.9344951 Z M40.0351796,38.3690997 L29.2423228,32.1375676 L18.8163427,38.157274 L29.6094442,44.3884008 L40.0351796,38.3690997 Z M55.6733719,15.1543488 L56.2431886,15.4833642 L57.0300758,15.4833642 L57.0300758,47.0446193 L29.1226504,63.1659629 L2.47426912,47.7790358 L1.68738194,47.7790358 L1.68738194,16.2177806 L2.45245024,15.7758219 L3.02986271,14.775758 L3.6069027,15.1089268 L15.7816453,8.07591659 L16.218212,7.31979414 L16.654497,7.57169446 L29.5948073,0.0964370451 L42.2086591,7.37974688 L42.3124957,7.31979414 L42.4163514,7.49966961 L55.236234,14.9019428 L55.4547829,14.775758 L55.6733719,15.1543488 Z M55.0906819,17.2254249 L43.2822246,24.0433398 L43.2822246,36.4944174 L55.0906819,29.6768014 L55.0906819,17.2254249 Z M53.2969291,16.0216501 L42.2086338,9.61920525 L31.204684,15.9726172 L42.2932684,22.3748952 L53.2969291,16.0216501 Z M3.62677588,17.3598449 L3.62677588,29.3879581 L15.2484831,36.0974597 L15.2484831,24.069935 L3.62677588,17.3598449 Z M5.54598392,16.228505 L16.2144082,22.3881928 L27.3260237,15.9726172 L16.6547461,9.81128204 L5.54598392,16.228505 Z M55.0906819,31.9162206 L43.2822246,38.7338366 L43.2822246,52.7466392 L55.0906819,45.9252218 L55.0906819,31.9162206 Z M3.62677588,31.6273528 L3.62677588,46.2050268 L15.2484831,52.9154667 L15.2484831,38.3368543 L3.62677588,31.6273528 Z M40.2693542,8.49945417 L29.5950311,2.33603923 L18.5935782,8.69127262 L29.2653538,14.8528953 L40.2693542,8.49945417 Z" id="Combined-Shape" fill="url(#linearGradient-1)" fill-rule="nonzero"></path>
            <path d="M30.8257576,0.929030968 L55.439115,15.1395595 C56.2126177,15.5861415 56.689115,16.411459 56.689115,17.304623 L56.689115,45.72568 C56.689115,46.618844 56.2126177,47.4441616 55.439115,47.8907435 L30.8257576,62.1012721 C30.0522549,62.547854 29.0992603,62.547854 28.3257576,62.1012721 L3.71240018,47.8907435 C2.93889749,47.4441616 2.46240018,46.618844 2.46240018,45.72568 L2.46240018,17.304623 C2.46240018,16.411459 2.93889749,15.5861415 3.71240018,15.1395595 L28.3257576,0.929030968 C29.0992603,0.482448981 30.0522549,0.482448981 30.8257576,0.929030968 Z" id="Polygon-2" stroke="url(#linearGradient-1)" stroke-width="3"></path>
        </g>
    </g>
</svg>