<?xml version="1.0" encoding="UTF-8"?>
<svg width="91px" height="90px" viewBox="0 0 91 90" version="1.1" xmlns="http://www.w3.org/2000/svg" xmlns:xlink="http://www.w3.org/1999/xlink">
    <title>0037 Rebranded help page-30</title>
    <g id="Page-1" stroke="none" stroke-width="1" fill="none" fill-rule="evenodd">
        <g id="membersfix-copy" transform="translate(-1217.000000, -135.000000)">
            <g id="0037-Rebranded-help-page-30" transform="translate(1217.000000, 135.000000)">
                <path d="M82.275,32.4 L82.275,27.375 L78.75,27.375 L78.75,31.2 C79.875,33.15 80.55,35.475 80.55,37.875 C80.55,39 80.4,40.05 80.175,41.025 L82.275,41.025 L82.275,36 L87.3,36 L87.3,32.475 L82.275,32.475 L82.275,32.4 Z" id="Path" fill="#56F24B" fill-rule="nonzero"></path>
                <polygon id="Path" fill="#56F24B" fill-rule="nonzero" points="18.375 71.4 14.325 71.4 14.325 61.275 10.275 61.275 10.275 71.625 0 71.625 0 79.725 10.275 79.725 10.275 90 18.375 90 18.375 79.725 28.725 79.725 28.725 71.625 18.375 71.625"></polygon>
                <circle id="Oval" stroke="#000000" stroke-width="0.65835" cx="33.525" cy="27.375" r="13.35"></circle>
                <circle id="Oval" stroke="#000000" stroke-width="0.65835" cx="67.125" cy="37.8" r="13.35"></circle>
                <path d="M58.35,47.925 C55.575,45.45 53.775,41.85 53.775,37.875 C53.775,30.45 59.775,24.525 67.125,24.525 C74.475,24.525 80.475,30.525 80.475,37.875 C80.475,41.925 78.675,45.525 75.825,48 C81.9,51.15 86.1,57.6 86.1,64.95 L86.1,81.975 L48,81.975 L48,64.875 C48,57.45 52.2,51.075 58.35,47.925 Z" id="Path" stroke="#000000" stroke-width="0.65835"></path>
                <path d="M75.9,47.925 C78.75,45.45 80.55,41.85 80.55,37.8 C80.55,30.375 74.55,24.45 67.2,24.45 C59.85,24.45 53.85,30.45 53.85,37.8 C53.85,41.85 55.65,45.45 58.425,47.85 C56.175,49.05 54.15,50.625 52.5,52.575 C51.9,45.975 47.925,40.35 42.3,37.425 C45.15,34.95 46.95,31.35 46.95,27.3 C46.95,19.875 40.95,13.95 33.6,13.95 C26.175,13.95 20.25,19.95 20.25,27.3 C20.25,31.35 22.05,34.95 24.825,37.35 C18.675,40.5 14.475,46.95 14.475,54.375 L14.475,71.4 L48,71.4 L48,81.9 L86.175,81.9 L86.175,64.875 C86.175,57.525 81.975,51.15 75.9,47.925 Z" id="Path" stroke="#000000" stroke-width="0.65835"></path>
                <g id="Group" transform="translate(57.000000, 0.000000)" fill="#898989" fill-rule="nonzero">
                    <path d="M9.75,23.775 C9.975,23.775 10.2,23.55 10.2,23.325 C10.2,23.1 9.975,22.875 9.75,22.875 C9.525,22.875 9.3,23.1 9.3,23.325 C9.3,23.55 9.45,23.775 9.75,23.775 Z M5.1,23.775 C5.325,23.775 5.55,23.55 5.55,23.325 C5.55,23.1 5.325,22.875 5.1,22.875 C4.875,22.875 4.65,23.1 4.65,23.325 C4.65,23.55 4.875,23.775 5.1,23.775 Z M7.35,21.525 C7.575,21.525 7.8,21.3 7.8,21.075 C7.8,20.85 7.575,20.625 7.35,20.625 C7.125,20.625 6.9,20.85 6.9,21.075 C6.9,21.3 7.125,21.525 7.35,21.525 Z M9.75,19.2 C9.975,19.2 10.2,18.975 10.2,18.75 C10.2,18.525 9.975,18.3 9.75,18.3 C9.525,18.3 9.3,18.525 9.3,18.75 C9.3,18.975 9.45,19.2 9.75,19.2 Z M5.1,19.2 C5.325,19.2 5.55,18.975 5.55,18.75 C5.55,18.525 5.325,18.3 5.1,18.3 C4.875,18.3 4.65,18.525 4.65,18.75 C4.65,18.975 4.875,19.2 5.1,19.2 Z M7.35,16.95 C7.575,16.95 7.8,16.725 7.8,16.5 C7.8,16.275 7.575,16.05 7.35,16.05 C7.125,16.05 6.9,16.275 6.9,16.5 C6.9,16.8 7.125,16.95 7.35,16.95 Z M9.75,14.7 C9.975,14.7 10.2,14.475 10.2,14.25 C10.2,14.025 9.975,13.8 9.75,13.8 C9.525,13.8 9.3,14.025 9.3,14.25 C9.3,14.475 9.45,14.7 9.75,14.7 Z M5.1,14.7 C5.325,14.7 5.55,14.475 5.55,14.25 C5.55,14.025 5.325,13.8 5.1,13.8 C4.875,13.8 4.65,14.025 4.65,14.25 C4.65,14.475 4.875,14.7 5.1,14.7 Z M7.35,12.375 C7.575,12.375 7.8,12.15 7.8,11.925 C7.8,11.7 7.575,11.475 7.35,11.475 C7.125,11.475 6.9,11.7 6.9,11.925 C6.9,12.15 7.125,12.375 7.35,12.375 Z M9.75,10.05 C9.975,10.05 10.2,9.825 10.2,9.6 C10.2,9.375 9.975,9.15 9.75,9.15 C9.525,9.15 9.3,9.375 9.3,9.6 C9.225,9.825 9.45,10.05 9.75,10.05 Z M5.1,10.05 C5.325,10.05 5.55,9.825 5.55,9.6 C5.55,9.375 5.325,9.15 5.1,9.15 C4.875,9.15 4.65,9.375 4.65,9.6 C4.65,9.825 4.875,10.05 5.1,10.05 Z M7.35,7.875 C7.575,7.875 7.8,7.65 7.8,7.425 C7.8,7.2 7.575,6.975 7.35,6.975 C7.125,6.975 6.9,7.2 6.9,7.425 C6.9,7.65 7.125,7.875 7.35,7.875 Z M9.75,5.55 C9.975,5.55 10.2,5.325 10.2,5.1 C10.2,4.875 9.975,4.65 9.75,4.65 C9.525,4.65 9.3,4.875 9.3,5.1 C9.225,5.325 9.45,5.55 9.75,5.55 Z M5.1,5.55 C5.325,5.55 5.55,5.325 5.55,5.1 C5.55,4.875 5.325,4.65 5.1,4.65 C4.875,4.65 4.65,4.875 4.65,5.1 C4.65,5.325 4.875,5.55 5.1,5.55 Z M7.35,3.225 C7.575,3.225 7.8,3 7.8,2.775 C7.8,2.55 7.575,2.325 7.35,2.325 C7.125,2.325 6.9,2.55 6.9,2.775 C6.9,3 7.125,3.225 7.35,3.225 Z M9.75,0.975 C9.975,0.975 10.2,0.75 10.2,0.525 C10.2,0.3 9.975,0 9.75,0 C9.525,0 9.3,0.225 9.3,0.45 C9.225,0.75 9.45,0.975 9.75,0.975 Z M5.1,0.975 C5.325,0.975 5.55,0.75 5.55,0.525 C5.55,0.3 5.4,0 5.1,0 C4.8,0 4.65,0.225 4.65,0.45 C4.65,0.75 4.875,0.975 5.1,0.975 Z" id="Shape"></path>
                    <path d="M14.325,23.775 C14.55,23.775 14.775,23.55 14.775,23.325 C14.775,23.1 14.55,22.875 14.325,22.875 C14.1,22.875 13.875,23.1 13.875,23.325 C13.875,23.55 14.1,23.775 14.325,23.775 Z M12,21.525 C12.225,21.525 12.45,21.3 12.45,21.075 C12.45,20.85 12.225,20.625 12,20.625 C11.775,20.625 11.55,20.85 11.55,21.075 C11.55,21.3 11.7,21.525 12,21.525 Z M14.325,19.2 C14.55,19.2 14.775,18.975 14.775,18.75 C14.775,18.525 14.55,18.3 14.325,18.3 C14.1,18.3 13.875,18.525 13.875,18.75 C13.875,18.975 14.1,19.2 14.325,19.2 Z M12,16.95 C12.225,16.95 12.45,16.725 12.45,16.5 C12.45,16.275 12.225,16.05 12,16.05 C11.775,16.05 11.55,16.275 11.55,16.5 C11.475,16.8 11.7,16.95 12,16.95 Z M14.325,14.7 C14.55,14.7 14.775,14.475 14.775,14.25 C14.775,14.025 14.55,13.8 14.325,13.8 C14.1,13.8 13.875,14.025 13.875,14.25 C13.875,14.475 14.1,14.7 14.325,14.7 Z M12,12.375 C12.225,12.375 12.45,12.15 12.45,11.925 C12.45,11.7 12.225,11.475 12,11.475 C11.775,11.475 11.55,11.7 11.55,11.925 C11.475,12.15 11.7,12.375 12,12.375 Z M14.325,10.05 C14.55,10.05 14.775,9.825 14.775,9.6 C14.775,9.375 14.55,9.15 14.325,9.15 C14.1,9.15 13.875,9.375 13.875,9.6 C13.875,9.825 14.1,10.05 14.325,10.05 Z M12,7.875 C12.225,7.875 12.45,7.65 12.45,7.425 C12.45,7.2 12.225,6.975 12,6.975 C11.775,6.975 11.55,7.2 11.55,7.425 C11.475,7.65 11.7,7.875 12,7.875 Z M14.325,5.55 C14.55,5.55 14.775,5.325 14.775,5.1 C14.775,4.875 14.55,4.65 14.325,4.65 C14.1,4.65 13.875,4.875 13.875,5.1 C13.875,5.325 14.1,5.55 14.325,5.55 Z M12,3.225 C12.225,3.225 12.45,3 12.45,2.775 C12.45,2.55 12.225,2.325 12,2.325 C11.775,2.325 11.55,2.55 11.55,2.775 C11.55,3 11.7,3.225 12,3.225 Z M14.325,0.975 C14.55,0.975 14.775,0.75 14.775,0.525 C14.775,0.3 14.625,0 14.325,0 C14.025,0 13.875,0.225 13.875,0.45 C13.875,0.75 14.1,0.975 14.325,0.975 Z" id="Shape"></path>
                    <path d="M0.525,23.925 C0.75,23.925 0.975,23.7 0.975,23.475 C0.975,23.25 0.75,23.025 0.525,23.025 C0.3,23.025 0,23.175 0,23.4 C0,23.625 0.225,23.925 0.525,23.925 Z M2.775,21.6 C3,21.6 3.225,21.375 3.225,21.15 C3.225,20.925 3,20.7 2.775,20.7 C2.55,20.7 2.25,20.85 2.25,21.15 C2.25,21.375 2.475,21.6 2.775,21.6 Z M0.525,19.275 C0.75,19.275 0.975,19.05 0.975,18.825 C0.975,18.6 0.75,18.375 0.525,18.375 C0.3,18.375 0,18.525 0,18.825 C0,19.125 0.225,19.275 0.525,19.275 Z M2.775,17.1 C3,17.1 3.225,16.875 3.225,16.65 C3.225,16.425 3,16.2 2.775,16.2 C2.55,16.2 2.25,16.35 2.25,16.65 C2.25,16.95 2.475,17.1 2.775,17.1 Z M0.525,14.775 C0.75,14.775 0.975,14.55 0.975,14.325 C0.975,14.1 0.75,13.875 0.525,13.875 C0.3,13.875 0,14.025 0,14.325 C0,14.55 0.225,14.775 0.525,14.775 Z M2.775,12.45 C3,12.45 3.225,12.225 3.225,12 C3.225,11.775 3,11.55 2.775,11.55 C2.55,11.55 2.25,11.775 2.25,12 C2.25,12.225 2.475,12.45 2.775,12.45 Z M0.525,10.2 C0.75,10.2 0.975,9.975 0.975,9.75 C0.975,9.525 0.75,9.3 0.525,9.3 C0.3,9.3 0,9.45 0,9.675 C0,9.975 0.225,10.2 0.525,10.2 Z M2.775,7.95 C3,7.95 3.225,7.725 3.225,7.5 C3.225,7.275 3,7.05 2.775,7.05 C2.55,7.05 2.25,7.2 2.25,7.5 C2.25,7.725 2.475,7.95 2.775,7.95 Z M0.525,5.625 C0.75,5.625 0.975,5.4 0.975,5.175 C0.975,4.95 0.75,4.725 0.525,4.725 C0.3,4.725 0,4.95 0,5.175 C0,5.475 0.225,5.625 0.525,5.625 Z M2.775,3.375 C3,3.375 3.225,3.15 3.225,2.925 C3.225,2.7 3,2.4 2.775,2.4 C2.55,2.4 2.25,2.625 2.25,2.85 C2.25,3.075 2.475,3.375 2.775,3.375 Z M0.525,1.05 C0.75,1.05 0.975,0.825 0.975,0.6 C0.975,0.375 0.75,0.075 0.525,0.075 C0.3,0.075 0,0.3 0,0.6 C0,0.9 0.225,1.05 0.525,1.05 Z" id="Shape"></path>
                    <g transform="translate(15.750000, 0.000000)" id="Shape">
                        <path d="M16.8,23.925 C17.025,23.925 17.25,23.7 17.25,23.475 C17.25,23.25 17.025,23.025 16.8,23.025 C16.575,23.025 16.35,23.25 16.35,23.475 C16.35,23.7 16.5,23.925 16.8,23.925 Z M16.8,19.275 C17.025,19.275 17.25,19.05 17.25,18.825 C17.25,18.6 17.025,18.375 16.8,18.375 C16.575,18.375 16.35,18.6 16.35,18.825 C16.35,19.05 16.5,19.275 16.8,19.275 Z M16.8,14.775 C17.025,14.775 17.25,14.55 17.25,14.325 C17.25,14.1 17.025,13.875 16.8,13.875 C16.575,13.875 16.35,14.1 16.35,14.325 C16.275,14.55 16.5,14.775 16.8,14.775 Z M16.8,10.2 C17.025,10.2 17.25,9.975 17.25,9.75 C17.25,9.525 17.025,9.3 16.8,9.3 C16.575,9.3 16.35,9.525 16.35,9.75 C16.275,9.975 16.5,10.2 16.8,10.2 Z M16.8,5.625 C17.025,5.625 17.25,5.4 17.25,5.175 C17.25,4.95 17.025,4.725 16.8,4.725 C16.575,4.725 16.35,4.95 16.35,5.175 C16.275,5.475 16.5,5.625 16.8,5.625 Z M16.8,1.05 C17.025,1.05 17.25,0.825 17.25,0.6 C17.25,0.375 17.025,0.15 16.8,0.15 C16.575,0.15 16.35,0.375 16.35,0.6 C16.35,0.825 16.5,1.05 16.8,1.05 Z"></path>
                        <path d="M12.375,23.775 C12.6,23.775 12.825,23.55 12.825,23.325 C12.825,23.1 12.6,22.875 12.375,22.875 C12.15,22.875 11.925,23.1 11.925,23.325 C11.925,23.55 12.15,23.775 12.375,23.775 Z M7.725,23.775 C7.95,23.775 8.175,23.55 8.175,23.325 C8.175,23.1 7.95,22.875 7.725,22.875 C7.5,22.875 7.275,23.1 7.275,23.325 C7.275,23.55 7.5,23.775 7.725,23.775 Z M3.225,23.775 C3.45,23.775 3.675,23.55 3.675,23.325 C3.675,23.1 3.45,22.875 3.225,22.875 C3,22.875 2.775,23.1 2.775,23.325 C2.775,23.55 2.925,23.775 3.225,23.775 Z M14.7,21.525 C14.925,21.525 15.15,21.3 15.15,21.075 C15.15,20.85 14.925,20.625 14.7,20.625 C14.475,20.625 14.25,20.85 14.25,21.075 C14.175,21.3 14.4,21.525 14.7,21.525 Z M10.05,21.525 C10.275,21.525 10.5,21.3 10.5,21.075 C10.5,20.85 10.275,20.625 10.05,20.625 C9.825,20.625 9.6,20.85 9.6,21.075 C9.6,21.3 9.825,21.525 10.05,21.525 Z M5.475,21.525 C5.7,21.525 5.925,21.3 5.925,21.075 C5.925,20.85 5.7,20.625 5.475,20.625 C5.25,20.625 5.025,20.85 5.025,21.075 C4.95,21.3 5.175,21.525 5.475,21.525 Z M0.825,21.525 C1.05,21.525 1.275,21.3 1.275,21.075 C1.275,20.85 1.05,20.625 0.825,20.625 C0.6,20.625 0.375,20.85 0.375,21.075 C0.375,21.3 0.6,21.525 0.825,21.525 Z M12.375,19.2 C12.6,19.2 12.825,18.975 12.825,18.75 C12.825,18.525 12.6,18.3 12.375,18.3 C12.15,18.3 11.925,18.525 11.925,18.75 C11.925,18.975 12.15,19.2 12.375,19.2 Z M7.725,19.2 C7.95,19.2 8.175,18.975 8.175,18.75 C8.175,18.525 7.95,18.3 7.725,18.3 C7.5,18.3 7.275,18.525 7.275,18.75 C7.275,18.975 7.5,19.2 7.725,19.2 Z M3.225,19.2 C3.45,19.2 3.675,18.975 3.675,18.75 C3.675,18.525 3.45,18.3 3.225,18.3 C3,18.3 2.775,18.525 2.775,18.75 C2.775,18.975 2.925,19.2 3.225,19.2 Z M14.7,16.95 C14.925,16.95 15.15,16.725 15.15,16.5 C15.15,16.275 14.925,16.05 14.7,16.05 C14.475,16.05 14.25,16.275 14.25,16.5 C14.175,16.8 14.4,16.95 14.7,16.95 Z M10.05,16.95 C10.275,16.95 10.5,16.725 10.5,16.5 C10.5,16.275 10.275,16.05 10.05,16.05 C9.825,16.05 9.6,16.275 9.6,16.5 C9.6,16.8 9.825,16.95 10.05,16.95 Z M5.475,16.95 C5.7,16.95 5.925,16.725 5.925,16.5 C5.925,16.275 5.7,16.05 5.475,16.05 C5.25,16.05 5.025,16.275 5.025,16.5 C4.95,16.8 5.175,16.95 5.475,16.95 Z M0.825,16.95 C1.05,16.95 1.275,16.725 1.275,16.5 C1.275,16.275 1.05,16.05 0.825,16.05 C0.6,16.05 0.375,16.275 0.375,16.5 C0.375,16.8 0.6,16.95 0.825,16.95 Z M12.375,14.7 C12.6,14.7 12.825,14.475 12.825,14.25 C12.825,14.025 12.6,13.8 12.375,13.8 C12.15,13.8 11.925,14.025 11.925,14.25 C11.925,14.475 12.15,14.7 12.375,14.7 Z M7.725,14.7 C7.95,14.7 8.175,14.475 8.175,14.25 C8.175,14.025 7.95,13.8 7.725,13.8 C7.5,13.8 7.275,14.025 7.275,14.25 C7.275,14.475 7.5,14.7 7.725,14.7 Z M3.225,14.7 C3.45,14.7 3.675,14.475 3.675,14.25 C3.675,14.025 3.45,13.8 3.225,13.8 C3,13.8 2.775,14.025 2.775,14.25 C2.775,14.475 2.925,14.7 3.225,14.7 Z M14.7,12.375 C14.925,12.375 15.15,12.15 15.15,11.925 C15.15,11.7 14.925,11.475 14.7,11.475 C14.475,11.475 14.25,11.7 14.25,11.925 C14.175,12.15 14.4,12.375 14.7,12.375 Z M10.05,12.375 C10.275,12.375 10.5,12.15 10.5,11.925 C10.5,11.7 10.275,11.475 10.05,11.475 C9.825,11.475 9.6,11.7 9.6,11.925 C9.6,12.15 9.825,12.375 10.05,12.375 Z M5.475,12.375 C5.7,12.375 5.925,12.15 5.925,11.925 C5.925,11.7 5.7,11.475 5.475,11.475 C5.25,11.475 5.025,11.7 5.025,11.925 C4.95,12.15 5.175,12.375 5.475,12.375 Z M0.825,12.375 C1.05,12.375 1.275,12.15 1.275,11.925 C1.275,11.7 1.05,11.475 0.825,11.475 C0.6,11.475 0.375,11.7 0.375,11.925 C0.375,12.15 0.6,12.375 0.825,12.375 Z M12.375,10.05 C12.6,10.05 12.825,9.825 12.825,9.6 C12.825,9.375 12.6,9.15 12.375,9.15 C12.15,9.15 11.925,9.375 11.925,9.6 C11.925,9.825 12.15,10.05 12.375,10.05 Z M7.725,10.05 C7.95,10.05 8.175,9.825 8.175,9.6 C8.175,9.375 7.95,9.15 7.725,9.15 C7.5,9.15 7.275,9.375 7.275,9.6 C7.275,9.825 7.5,10.05 7.725,10.05 Z M3.225,10.05 C3.45,10.05 3.675,9.825 3.675,9.6 C3.675,9.375 3.45,9.15 3.225,9.15 C3,9.15 2.775,9.375 2.775,9.6 C2.7,9.825 2.925,10.05 3.225,10.05 Z M14.7,7.875 C14.925,7.875 15.15,7.65 15.15,7.425 C15.15,7.2 14.925,6.975 14.7,6.975 C14.475,6.975 14.25,7.2 14.25,7.425 C14.175,7.65 14.4,7.875 14.7,7.875 Z M10.05,7.875 C10.275,7.875 10.5,7.65 10.5,7.425 C10.5,7.2 10.275,6.975 10.05,6.975 C9.825,6.975 9.6,7.2 9.6,7.425 C9.6,7.65 9.825,7.875 10.05,7.875 Z M5.475,7.875 C5.7,7.875 5.925,7.65 5.925,7.425 C5.925,7.2 5.7,6.975 5.475,6.975 C5.25,6.975 5.025,7.2 5.025,7.425 C4.95,7.65 5.175,7.875 5.475,7.875 Z M0.825,7.875 C1.05,7.875 1.275,7.65 1.275,7.425 C1.275,7.2 1.05,6.975 0.825,6.975 C0.6,6.975 0.375,7.2 0.375,7.425 C0.375,7.65 0.6,7.875 0.825,7.875 Z M12.375,5.55 C12.6,5.55 12.825,5.325 12.825,5.1 C12.825,4.875 12.6,4.65 12.375,4.65 C12.15,4.65 11.925,4.875 11.925,5.1 C11.925,5.325 12.15,5.55 12.375,5.55 Z M7.725,5.55 C7.95,5.55 8.175,5.325 8.175,5.1 C8.175,4.875 7.95,4.65 7.725,4.65 C7.5,4.65 7.275,4.875 7.275,5.1 C7.275,5.325 7.5,5.55 7.725,5.55 Z M3.225,5.55 C3.45,5.55 3.675,5.325 3.675,5.1 C3.675,4.875 3.45,4.65 3.225,4.65 C3,4.65 2.775,4.875 2.775,5.1 C2.7,5.325 2.925,5.55 3.225,5.55 Z M14.7,3.225 C14.925,3.225 15.15,3 15.15,2.775 C15.15,2.55 14.925,2.325 14.7,2.325 C14.475,2.325 14.25,2.55 14.25,2.775 C14.175,3.075 14.4,3.225 14.7,3.225 Z M10.05,3.225 C10.275,3.225 10.5,3 10.5,2.775 C10.5,2.55 10.275,2.325 10.05,2.325 C9.825,2.325 9.6,2.55 9.6,2.775 C9.6,3.075 9.825,3.225 10.05,3.225 Z M5.475,3.225 C5.7,3.225 5.925,3 5.925,2.775 C5.925,2.55 5.7,2.325 5.475,2.325 C5.25,2.325 5.025,2.55 5.025,2.775 C4.95,3.075 5.175,3.225 5.475,3.225 Z M0.825,3.225 C1.05,3.225 1.275,3 1.275,2.775 C1.275,2.55 1.05,2.325 0.825,2.325 C0.6,2.325 0.375,2.55 0.375,2.775 C0.375,3 0.6,3.225 0.825,3.225 Z M12.375,0.975 C12.6,0.975 12.825,0.75 12.825,0.525 C12.825,0.3 12.6,0 12.375,0 C12.15,0 11.925,0.225 11.925,0.45 C11.925,0.75 12.15,0.975 12.375,0.975 Z M7.725,0.975 C7.95,0.975 8.175,0.75 8.175,0.525 C8.175,0.3 8.025,0 7.725,0 C7.425,0 7.275,0.225 7.275,0.45 C7.275,0.75 7.5,0.975 7.725,0.975 Z M3.225,0.975 C3.45,0.975 3.675,0.75 3.675,0.525 C3.675,0.3 3.45,0 3.225,0 C3,0 2.775,0.225 2.775,0.45 C2.7,0.75 2.925,0.975 3.225,0.975 Z"></path>
                    </g>
                </g>
                <g id="Group" transform="translate(24.750000, 0.000000)" fill="#898989" fill-rule="nonzero">
                    <path d="M7.725,12.375 C7.95,12.375 8.175,12.15 8.175,11.925 C8.175,11.7 7.95,11.475 7.725,11.475 C7.5,11.475 7.275,11.7 7.275,11.925 C7.2,12.15 7.425,12.375 7.725,12.375 Z M10.05,10.05 C10.275,10.05 10.5,9.825 10.5,9.6 C10.5,9.375 10.275,9.15 10.05,9.15 C9.825,9.15 9.6,9.375 9.6,9.6 C9.6,9.825 9.825,10.05 10.05,10.05 Z M5.475,10.05 C5.7,10.05 5.925,9.825 5.925,9.6 C5.925,9.375 5.7,9.15 5.475,9.15 C5.25,9.15 5.025,9.375 5.025,9.6 C4.95,9.825 5.175,10.05 5.475,10.05 Z M7.725,7.875 C7.95,7.875 8.175,7.65 8.175,7.425 C8.175,7.2 7.95,6.975 7.725,6.975 C7.5,6.975 7.275,7.2 7.275,7.425 C7.2,7.65 7.425,7.875 7.725,7.875 Z M10.05,5.55 C10.275,5.55 10.5,5.325 10.5,5.1 C10.5,4.875 10.275,4.65 10.05,4.65 C9.825,4.65 9.6,4.875 9.6,5.1 C9.6,5.325 9.825,5.55 10.05,5.55 Z M5.475,5.55 C5.7,5.55 5.925,5.325 5.925,5.1 C5.925,4.875 5.7,4.65 5.475,4.65 C5.25,4.65 5.025,4.875 5.025,5.1 C4.95,5.325 5.175,5.55 5.475,5.55 Z M7.725,3.225 C7.95,3.225 8.175,3 8.175,2.775 C8.175,2.55 7.95,2.325 7.725,2.325 C7.5,2.325 7.275,2.55 7.275,2.775 C7.275,3 7.425,3.225 7.725,3.225 Z M10.05,0.975 C10.35,0.975 10.5,0.75 10.5,0.45 C10.5,0.15 10.35,0 10.05,0 C9.75,0 9.6,0.225 9.6,0.45 C9.6,0.75 9.825,0.975 10.05,0.975 Z M5.475,0.975 C5.7,0.975 5.925,0.75 5.925,0.525 C5.925,0.3 5.7,0 5.475,0 C5.25,0 5.025,0.225 5.025,0.45 C4.95,0.75 5.175,0.975 5.475,0.975 Z" id="Shape"></path>
                    <path d="M14.7,14.7 C14.925,14.7 15.15,14.475 15.15,14.25 C15.15,14.025 14.925,13.8 14.7,13.8 C14.475,13.8 14.25,14.025 14.25,14.25 C14.25,14.475 14.4,14.7 14.7,14.7 Z M12.3,12.375 C12.525,12.375 12.75,12.15 12.75,11.925 C12.75,11.7 12.525,11.475 12.3,11.475 C12.075,11.475 11.85,11.7 11.85,11.925 C11.85,12.15 12.075,12.375 12.3,12.375 Z M14.7,10.05 C14.925,10.05 15.15,9.825 15.15,9.6 C15.15,9.375 14.925,9.15 14.7,9.15 C14.475,9.15 14.25,9.375 14.25,9.6 C14.175,9.825 14.4,10.05 14.7,10.05 Z M12.3,7.875 C12.525,7.875 12.75,7.65 12.75,7.425 C12.75,7.2 12.525,6.975 12.3,6.975 C12.075,6.975 11.85,7.2 11.85,7.425 C11.85,7.65 12.075,7.875 12.3,7.875 Z M14.7,5.55 C14.925,5.55 15.15,5.325 15.15,5.1 C15.15,4.875 14.925,4.65 14.7,4.65 C14.475,4.65 14.25,4.875 14.25,5.1 C14.175,5.325 14.4,5.55 14.7,5.55 Z M12.3,3.225 C12.525,3.225 12.75,3 12.75,2.775 C12.75,2.55 12.525,2.325 12.3,2.325 C12.075,2.325 11.85,2.55 11.85,2.775 C11.85,3 12.075,3.225 12.3,3.225 Z M14.7,0.975 C14.925,0.975 15.15,0.75 15.15,0.525 C15.15,0.3 14.925,0 14.7,0 C14.475,0 14.25,0.225 14.25,0.45 C14.175,0.75 14.4,0.975 14.7,0.975 Z" id="Shape"></path>
                    <path d="M0.825,14.775 C1.05,14.775 1.275,14.55 1.275,14.325 C1.275,14.1 1.05,13.875 0.825,13.875 C0.6,13.875 0.375,14.1 0.375,14.325 C0.375,14.55 0.6,14.775 0.825,14.775 Z M3.075,12.45 C3.3,12.45 3.525,12.225 3.525,12 C3.525,11.775 3.3,11.55 3.075,11.55 C2.85,11.55 2.625,11.775 2.625,12 C2.625,12.225 2.85,12.45 3.075,12.45 Z M0.825,10.2 C1.05,10.2 1.275,9.975 1.275,9.75 C1.275,9.525 1.05,9.3 0.825,9.3 C0.6,9.3 0.375,9.525 0.375,9.75 C0.375,9.975 0.6,10.2 0.825,10.2 Z M3.075,7.95 C3.3,7.95 3.525,7.725 3.525,7.5 C3.525,7.275 3.3,7.05 3.075,7.05 C2.85,7.05 2.625,7.275 2.625,7.5 C2.625,7.725 2.85,7.95 3.075,7.95 Z M0.825,5.625 C1.05,5.625 1.275,5.4 1.275,5.175 C1.275,4.95 1.05,4.725 0.825,4.725 C0.6,4.725 0.375,4.95 0.375,5.175 C0.375,5.475 0.6,5.625 0.825,5.625 Z M3.075,3.375 C3.3,3.375 3.525,3.15 3.525,2.925 C3.525,2.7 3.3,2.475 3.075,2.475 C2.85,2.475 2.625,2.7 2.625,2.925 C2.625,3.15 2.85,3.375 3.075,3.375 Z M0.825,1.05 C1.05,1.05 1.275,0.825 1.275,0.6 C1.275,0.375 1.05,0.15 0.825,0.15 C0.6,0.15 0.375,0.375 0.375,0.6 C0.375,0.825 0.6,1.05 0.825,1.05 Z" id="Shape"></path>
                    <path d="M28.425,23.775 C28.65,23.775 28.875,23.55 28.875,23.325 C28.875,23.1 28.65,22.875 28.425,22.875 C28.2,22.875 27.975,23.1 27.975,23.325 C27.975,23.55 28.2,23.775 28.425,23.775 Z M23.85,23.775 C24.075,23.775 24.3,23.55 24.3,23.325 C24.3,23.1 24.075,22.875 23.85,22.875 C23.625,22.875 23.4,23.1 23.4,23.325 C23.4,23.55 23.55,23.775 23.85,23.775 Z M30.75,21.525 C30.975,21.525 31.2,21.3 31.2,21.075 C31.2,20.85 30.975,20.625 30.75,20.625 C30.525,20.625 30.3,20.85 30.3,21.075 C30.225,21.3 30.45,21.525 30.75,21.525 Z M26.175,21.525 C26.4,21.525 26.625,21.3 26.625,21.075 C26.625,20.85 26.4,20.625 26.175,20.625 C25.95,20.625 25.725,20.85 25.725,21.075 C25.65,21.3 25.875,21.525 26.175,21.525 Z M21.525,21.525 C21.75,21.525 21.975,21.3 21.975,21.075 C21.975,20.85 21.75,20.625 21.525,20.625 C21.3,20.625 21.075,20.85 21.075,21.075 C21.075,21.3 21.3,21.525 21.525,21.525 Z M28.425,19.2 C28.65,19.2 28.875,18.975 28.875,18.75 C28.875,18.525 28.65,18.3 28.425,18.3 C28.2,18.3 27.975,18.525 27.975,18.75 C27.975,18.975 28.2,19.2 28.425,19.2 Z M23.85,19.2 C24.075,19.2 24.3,18.975 24.3,18.75 C24.3,18.525 24.075,18.3 23.85,18.3 C23.625,18.3 23.4,18.525 23.4,18.75 C23.4,18.975 23.55,19.2 23.85,19.2 Z M30.75,16.95 C30.975,16.95 31.2,16.725 31.2,16.5 C31.2,16.275 30.975,16.05 30.75,16.05 C30.525,16.05 30.3,16.275 30.3,16.5 C30.225,16.8 30.45,16.95 30.75,16.95 Z M26.175,16.95 C26.4,16.95 26.625,16.725 26.625,16.5 C26.625,16.275 26.4,16.05 26.175,16.05 C25.95,16.05 25.725,16.275 25.725,16.5 C25.65,16.8 25.875,16.95 26.175,16.95 Z M21.525,16.95 C21.75,16.95 21.975,16.725 21.975,16.5 C21.975,16.275 21.75,16.05 21.525,16.05 C21.3,16.05 21.075,16.275 21.075,16.5 C21.075,16.8 21.3,16.95 21.525,16.95 Z M28.425,14.7 C28.65,14.7 28.875,14.475 28.875,14.25 C28.875,14.025 28.65,13.8 28.425,13.8 C28.2,13.8 27.975,14.025 27.975,14.25 C27.975,14.475 28.2,14.7 28.425,14.7 Z M23.85,14.7 C24.075,14.7 24.3,14.475 24.3,14.25 C24.3,14.025 24.075,13.8 23.85,13.8 C23.625,13.8 23.4,14.025 23.4,14.25 C23.4,14.475 23.55,14.7 23.85,14.7 Z M19.275,14.7 C19.5,14.7 19.725,14.475 19.725,14.25 C19.725,14.025 19.5,13.8 19.275,13.8 C19.05,13.8 18.825,14.025 18.825,14.25 C18.825,14.475 19.05,14.7 19.275,14.7 Z M30.75,12.375 C30.975,12.375 31.2,12.15 31.2,11.925 C31.2,11.7 30.975,11.475 30.75,11.475 C30.525,11.475 30.3,11.7 30.3,11.925 C30.225,12.15 30.45,12.375 30.75,12.375 Z M26.175,12.375 C26.4,12.375 26.625,12.15 26.625,11.925 C26.625,11.7 26.4,11.475 26.175,11.475 C25.95,11.475 25.725,11.7 25.725,11.925 C25.65,12.15 25.875,12.375 26.175,12.375 Z M21.525,12.375 C21.75,12.375 21.975,12.15 21.975,11.925 C21.975,11.7 21.75,11.475 21.525,11.475 C21.3,11.475 21.075,11.7 21.075,11.925 C21.075,12.15 21.3,12.375 21.525,12.375 Z M16.95,12.375 C17.175,12.375 17.4,12.15 17.4,11.925 C17.4,11.7 17.175,11.475 16.95,11.475 C16.725,11.475 16.5,11.7 16.5,11.925 C16.425,12.15 16.65,12.375 16.95,12.375 Z M28.425,10.05 C28.65,10.05 28.875,9.825 28.875,9.6 C28.875,9.375 28.65,9.15 28.425,9.15 C28.2,9.15 27.975,9.375 27.975,9.6 C27.975,9.825 28.2,10.05 28.425,10.05 Z M23.85,10.05 C24.075,10.05 24.3,9.825 24.3,9.6 C24.3,9.375 24.075,9.15 23.85,9.15 C23.625,9.15 23.4,9.375 23.4,9.6 C23.4,9.825 23.55,10.05 23.85,10.05 Z M19.275,10.05 C19.5,10.05 19.725,9.825 19.725,9.6 C19.725,9.375 19.5,9.15 19.275,9.15 C19.05,9.15 18.825,9.375 18.825,9.6 C18.825,9.825 19.05,10.05 19.275,10.05 Z M30.75,7.875 C30.975,7.875 31.2,7.65 31.2,7.425 C31.2,7.2 30.975,6.975 30.75,6.975 C30.525,6.975 30.3,7.2 30.3,7.425 C30.225,7.65 30.45,7.875 30.75,7.875 Z M26.175,7.875 C26.4,7.875 26.625,7.65 26.625,7.425 C26.625,7.2 26.4,6.975 26.175,6.975 C25.95,6.975 25.725,7.2 25.725,7.425 C25.65,7.65 25.875,7.875 26.175,7.875 Z M21.525,7.875 C21.75,7.875 21.975,7.65 21.975,7.425 C21.975,7.2 21.75,6.975 21.525,6.975 C21.3,6.975 21.075,7.2 21.075,7.425 C21.075,7.65 21.3,7.875 21.525,7.875 Z M16.95,7.875 C17.175,7.875 17.4,7.65 17.4,7.425 C17.4,7.2 17.175,6.975 16.95,6.975 C16.725,6.975 16.5,7.2 16.5,7.425 C16.425,7.65 16.65,7.875 16.95,7.875 Z M28.425,5.55 C28.65,5.55 28.875,5.325 28.875,5.1 C28.875,4.875 28.65,4.65 28.425,4.65 C28.2,4.65 27.975,4.875 27.975,5.1 C27.975,5.325 28.2,5.55 28.425,5.55 Z M23.85,5.55 C24.075,5.55 24.3,5.325 24.3,5.1 C24.3,4.875 24.075,4.65 23.85,4.65 C23.625,4.65 23.4,4.875 23.4,5.1 C23.4,5.325 23.55,5.55 23.85,5.55 Z M19.275,5.55 C19.5,5.55 19.725,5.325 19.725,5.1 C19.725,4.875 19.5,4.65 19.275,4.65 C19.05,4.65 18.825,4.875 18.825,5.1 C18.825,5.325 19.05,5.55 19.275,5.55 Z M30.75,3.225 C30.975,3.225 31.2,3 31.2,2.775 C31.2,2.55 31.05,2.325 30.75,2.325 C30.45,2.325 30.3,2.55 30.3,2.775 C30.225,3.075 30.45,3.225 30.75,3.225 Z M26.175,3.225 C26.4,3.225 26.625,3 26.625,2.775 C26.625,2.55 26.4,2.325 26.175,2.325 C25.95,2.325 25.725,2.55 25.725,2.775 C25.65,3.075 25.875,3.225 26.175,3.225 Z M21.525,3.225 C21.75,3.225 21.975,3 21.975,2.775 C21.975,2.55 21.75,2.325 21.525,2.325 C21.3,2.325 21.075,2.55 21.075,2.775 C21.075,3.075 21.3,3.225 21.525,3.225 Z M16.95,3.225 C17.175,3.225 17.4,3 17.4,2.775 C17.4,2.55 17.175,2.325 16.95,2.325 C16.725,2.325 16.5,2.55 16.5,2.775 C16.5,3 16.65,3.225 16.95,3.225 Z M28.425,0.975 C28.65,0.975 28.875,0.75 28.875,0.525 C28.875,0.3 28.725,0 28.425,0 C28.125,0 27.975,0.225 27.975,0.45 C27.975,0.75 28.2,0.975 28.425,0.975 Z M23.85,0.975 C24.075,0.975 24.3,0.75 24.3,0.525 C24.3,0.3 24.075,0 23.85,0 C23.625,0 23.4,0.225 23.4,0.45 C23.4,0.75 23.55,0.975 23.85,0.975 Z M19.275,0.975 C19.5,0.975 19.725,0.75 19.725,0.525 C19.725,0.3 19.575,0 19.275,0 C18.975,0 18.825,0.225 18.825,0.45 C18.825,0.75 19.05,0.975 19.275,0.975 Z" id="Shape"></path>
                </g>
                <polygon id="Path" fill="#56F24B" fill-rule="nonzero" points="27 8.325 21.9 8.325 21.9 3.225 18.375 3.225 18.375 8.325 13.35 8.325 13.35 11.85 18.375 11.85 18.375 16.875 21.9 16.875 21.9 11.85 27 11.85"></polygon>
            </g>
        </g>
    </g>
</svg>