<?xml version="1.0" encoding="UTF-8"?>
<svg width="48px" height="48px" viewBox="0 0 48 48" version="1.1" xmlns="http://www.w3.org/2000/svg" xmlns:xlink="http://www.w3.org/1999/xlink">
    <title>Avatars/avatar icons/user_Icon Copy 2</title>
    <g id="Page-1" stroke="none" stroke-width="1" fill="none" fill-rule="evenodd">
        <g id="permissionsfix-copy" transform="translate(-271.000000, -332.000000)">
            <g id="Group-9" transform="translate(271.000000, 328.000000)">
                <g id="Avatars/avatar-icons/user_Icon-Copy-2" transform="translate(0.000000, 4.000000)">
                    <g id="icon__shape-2" opacity="0.2" fill="#56F24B">
                        <circle id="icon__shape" cx="24" cy="24" r="24"></circle>
                    </g>
                    <g id="Icons/24px/Menu/settings" transform="translate(12.000000, 12.000000)" fill="#51C300">
                        <path d="M18.75,17.2500002 L18.73425,17.2500002 C18.4054117,17.242346 18.1197637,17.0217285 18.02925,16.7055 L15.6525,8.3925 L14.20125,12.2625 C14.0918815,12.5552183 13.8124823,12.7494531 13.5,12.75 L10.5,12.75 L10.5,11.25 L12.98025,11.25 L15.048,5.73675 C15.1615543,5.43354822 15.4568568,5.23744182 15.7803659,5.25039581 C16.1038749,5.26334981 16.3825521,5.4824396 16.4715,5.79375 L18.80475,13.96275 L20.289,9.513 C20.3907695,9.20670998 20.6772453,9.00001227 21,9 L24,9 L24,10.5 L21.54,10.5 L19.461,16.737 C19.3594283,17.0434352 19.0728301,17.2502212 18.75,17.2500002 L18.75,17.2500002 Z M11.25,22.5 L9.75,22.5 L9.75,17.25 C9.74875973,16.0078734 8.74212659,15.0012403 7.5,15 L4.5,15 C3.25787341,15.0012403 2.25124027,16.0078734 2.25,17.25 L2.25,22.5 L0.75,22.5 L0.75,17.25 C0.752479587,15.1799601 2.42996014,13.5024796 4.5,13.5 L7.5,13.5 C9.57003986,13.5024796 11.2475204,15.1799601 11.25,17.25 L11.25,22.5 Z M6,6 C7.24264069,6 8.25,7.00735931 8.25,8.25 C8.25,9.49264069 7.24264069,10.5 6,10.5 C4.75735931,10.5 3.75,9.49264069 3.75,8.25 C3.75,7.00735931 4.75735931,6 6,6 L6,6 Z M6,4.5 C3.92893219,4.5 2.25,6.17893219 2.25,8.25 C2.25,10.3210678 3.92893219,12 6,12 C8.07106781,12 9.75,10.3210678 9.75,8.25 C9.75,6.17893219 8.07106781,4.5 6,4.5 L6,4.5 Z" id="Fill"></path>
                    </g>
                </g>
            </g>
        </g>
    </g>
</svg>