<?xml version="1.0" encoding="UTF-8"?>
<svg width="24px" height="24px" viewBox="0 0 24 24" version="1.1" xmlns="http://www.w3.org/2000/svg" xmlns:xlink="http://www.w3.org/1999/xlink">
    <title>New icons 002-03</title>
    <g id="KM-Visual-Editor-3.0" stroke="none" stroke-width="1" fill="none" fill-rule="evenodd">
        <g id="Main-View-Alternative-Copy-14" transform="translate(-296.000000, -617.000000)" fill-rule="nonzero">
            <g id="New-icons-002-03" transform="translate(296.000000, 617.000000)">
                <circle id="Oval" fill="#E06A45" cx="12" cy="12" r="12"></circle>
                <g id="Group" transform="translate(5.330000, 5.330000)" fill="#FFFFFF">
                    <polygon id="Path" points="1.69491525 11.0169492 1.69491525 10.1694915 1.69491525 9.3220339 1.69491525 8.47457627 1.69491525 7.62711864 1.69491525 6.77966102 1.69491525 5.93220339 0.847457627 5.93220339 7.52693576e-16 5.93220339 7.52693576e-16 6.77966102 0.847457627 6.77966102 0.847457627 7.62711864 7.52693576e-16 7.62711864 7.52693576e-16 8.47457627 0.847457627 8.47457627 0.847457627 9.3220339 7.52693576e-16 9.3220339 7.52693576e-16 10.1694915 0.847457627 10.1694915 0.847457627 11.0169492"></polygon>
                    <path d="M7.60169492,3.95762712 L2.00847458,3.95762712 C1.38135593,3.95762712 0.872881356,4.45762712 0.855932203,5.08474576 L1.70338983,5.08474576 C1.72033898,4.93220339 1.84745763,4.80508475 2.00847458,4.80508475 L7.60169492,4.80508475 C7.77118644,4.80508475 7.90677966,4.94067797 7.90677966,5.11016949 L7.90677966,11.8389831 C7.90677966,12.0084746 7.77118644,12.1440678 7.60169492,12.1440678 L2.00847458,12.1440678 C1.84745763,12.1440678 1.72033898,12.0169492 1.70338983,11.8644068 L0.855932203,11.8644068 C0.872881356,12.4915254 1.38135593,12.9915254 2.00847458,12.9915254 L7.60169492,12.9915254 C8.23728814,12.9915254 8.75423729,12.4745763 8.75423729,11.8389831 L8.75423729,5.11016949 C8.76271186,4.47457627 8.24576271,3.95762712 7.60169492,3.95762712 Z" id="Path"></path>
                    <polygon id="Rectangle" transform="translate(1.099010, 1.659141) rotate(-45.000000) translate(-1.099010, -1.659141) " points="0.67528542 1.23541593 1.52273492 1.23541593 1.52273492 2.08286543 0.67528542 2.08286543"></polygon>
                    <polygon id="Rectangle" transform="translate(2.298326, 2.864370) rotate(-45.000000) translate(-2.298326, -2.864370) " points="1.87460152 2.44064559 2.72205102 2.44064559 2.72205102 3.28809509 1.87460152 3.28809509"></polygon>
                    <polygon id="Rectangle" transform="translate(5.518547, 6.085048) rotate(-45.000000) translate(-5.518547, -6.085048) " points="5.09482186 5.66132356 5.94227136 5.66132356 5.94227136 6.50877306 5.09482186 6.50877306"></polygon>
                    <polygon id="Rectangle" transform="translate(6.712040, 7.282336) rotate(-45.000000) translate(-6.712040, -7.282336) " points="6.28831508 6.85861169 7.13576458 6.85861169 7.13576458 7.70606119 6.28831508 7.70606119"></polygon>
                    <polygon id="Rectangle" transform="translate(9.815575, 10.380811) rotate(-45.000000) translate(-9.815575, -10.380811) " points="9.39185067 9.95708627 10.2393002 9.95708627 10.2393002 10.8045358 9.39185067 10.8045358"></polygon>
                    <polygon id="Rectangle" transform="translate(11.009069, 11.578438) rotate(-45.000000) translate(-11.009069, -11.578438) " points="10.5853439 11.1547134 11.4327934 11.1547134 11.4327934 12.0021629 10.5853439 12.0021629"></polygon>
                    <rect id="Rectangle" x="3.11016949" y="10.1694915" width="3.38983051" height="1"></rect>
                    <rect id="Rectangle" x="3.11016949" y="8.47457627" width="3.38983051" height="1"></rect>
                    <path d="M10.7372881,0 C10.1694915,0 9.65254237,0.220338983 9.25423729,0.56779661 L5.6779661,0.56779661 C5.05084746,0.56779661 4.54237288,1.06779661 4.52542373,1.69491525 L4.52542373,3.3220339 L5.37288136,3.3220339 L5.37288136,1.69491525 C5.38983051,1.54237288 5.51694915,1.41525424 5.6779661,1.41525424 L8.6440678,1.41525424 C8.53389831,1.6779661 8.47457627,1.96610169 8.47457627,2.26271186 C8.47457627,3.50847458 9.48305085,4.52542373 10.7372881,4.52542373 C11.0338983,4.52542373 11.3220339,4.46610169 11.5847458,4.3559322 L11.5847458,8.44915254 C11.5847458,8.61864407 11.4491525,8.75423729 11.279661,8.75423729 L9.97457627,8.75423729 L9.97457627,9.60169492 L11.279661,9.60169492 C11.9152542,9.60169492 12.4322034,9.08474576 12.4322034,8.44915254 L12.4322034,3.74576271 C12.779661,3.34745763 13,2.83050847 13,2.26271186 C13,1.01694915 11.9830508,0 10.7372881,0 Z M11.1610169,3.81355932 L10.3135593,3.81355932 L10.3135593,2.11864407 L11.1610169,2.11864407 L11.1610169,3.81355932 Z M11.1610169,1.55932203 L10.3135593,1.55932203 L10.3135593,0.711864407 L11.1610169,0.711864407 L11.1610169,1.55932203 Z" id="Shape"></path>
                </g>
            </g>
        </g>
    </g>
</svg>