<svg width="24" height="24" viewBox="0 0 24 24" fill="none" xmlns="http://www.w3.org/2000/svg">
<circle cx="12" cy="12" r="12" fill="#33BB8F"/>
<rect width="16" height="16" transform="translate(4 4)" fill="#33BB8F"/>
<path d="M8.91349 5.71442C9.0398 5.29055 9.42956 5 9.87185 5H14.2776C14.9758 5 15.4591 5.69737 15.2139 6.35112L14.2206 9H16.2501C16.8781 9 17.228 9.72572 16.8369 10.2171L15.577 11.7999L15.3416 11.3292C15.3097 11.2654 15.2733 11.2039 15.2326 11.1452C15.1674 11.0513 15.0993 10.9641 15.0285 10.8833L15.7316 10H13.5002C13.3577 9.81031 13.1889 9.64155 12.9991 9.49915C12.9992 9.44027 13.0097 9.38109 13.031 9.32444L14.2776 6H9.87185L8.0839 12H9.05001C9.18968 12.688 9.61191 13.2735 10.1903 13.6299L9.01199 17.6688C8.98843 17.7496 8.99998 17.8045 9.01852 17.8434C9.0397 17.888 9.08024 17.9314 9.13697 17.9608C9.1937 17.9902 9.25256 17.9983 9.30116 17.9899C9.34369 17.9826 9.3952 17.9603 9.44758 17.8945L12.8758 13.5877C12.9367 13.5475 12.9957 13.5047 13.0527 13.4595L13.1584 13.6709L13.1667 13.6871L13.517 14.3878L10.23 18.5173C9.37629 19.5898 7.6681 18.7047 8.05201 17.3888L9.3324 13H7.74853C7.24671 13 6.88646 12.5167 7.02977 12.0358L8.91349 5.71442ZM11.5 10C12.1497 10 12.7029 10.4131 12.9114 10.9909C13.0581 10.9911 13.2186 10.9986 13.3665 11.0257C13.7443 11.0951 14.1144 11.2876 14.4109 11.7151C14.4244 11.7346 14.4366 11.7551 14.4472 11.7764L15.4297 13.7413C15.5567 13.9129 15.6809 13.9663 15.814 13.9907C15.9052 14.0074 15.9879 14.0108 16.082 14.0096C16.2852 13.422 16.8433 13 17.5 13C18.3284 13 19 13.6716 19 14.5C19 15.3284 18.3284 16 17.5 16C16.8503 16 16.2971 15.5869 16.0886 15.0091C15.9419 15.0089 15.7814 15.0014 15.6335 14.9743C15.2557 14.9049 14.8856 14.7124 14.5891 14.2849C14.5756 14.2654 14.5634 14.2449 14.5528 14.2236L13.5703 12.2587C13.4433 12.0871 13.3191 12.0337 13.186 12.0093C13.0948 11.9926 13.0121 11.9892 12.918 11.9904C12.7148 12.578 12.1567 13 11.5 13C10.6716 13 10 12.3284 10 11.5C10 10.6716 10.6716 10 11.5 10ZM12 11.5C12 11.2239 11.7761 11 11.5 11C11.2239 11 11 11.2239 11 11.5C11 11.7761 11.2239 12 11.5 12C11.7761 12 12 11.7761 12 11.5ZM18 14.5C18 14.2239 17.7761 14 17.5 14C17.2239 14 17 14.2239 17 14.5C17 14.7761 17.2239 15 17.5 15C17.7761 15 18 14.7761 18 14.5Z" fill="white"/>
</svg>
