<?xml version="1.0" encoding="utf-8"?>
<!-- Generator: Adobe Illustrator 22.0.0, SVG Export Plug-In . SVG Version: 6.00 Build 0)  -->
<svg version="1.1" id="Layer_1" xmlns="http://www.w3.org/2000/svg" xmlns:xlink="http://www.w3.org/1999/xlink" x="0px" y="0px"
	 viewBox="0 0 44 46" style="enable-background:new 0 0 44 46;" xml:space="preserve">
<style type="text/css">
	.st0{fill:none;}
	.st1{fill:#6485FD;}
	.st2{enable-background:new    ;}
</style>
<g>
	<g>
		<g>
			<polygon class="st0" points="32,3.4 32,12 40.6,12 			"/>
			<polygon class="st0" points="34,33 34,22 2,22 2,33 6,33 8,33 			"/>
			<path class="st0" d="M31,14c-0.6,0-1-0.4-1-1V2H9C8.4,2,8,2.4,8,3v17h27c0.6,0,1,0.4,1,1v13c0,0.6-0.4,1-1,1H8v8c0,0.6,0.4,1,1,1
				h32c0.6,0,1-0.4,1-1V14H31z"/>
			<path class="st1" d="M43.7,12.3l-12-12C31.5,0.1,31.3,0,31,0H9C7.3,0,6,1.3,6,3v17H1c-0.6,0-1,0.4-1,1v13c0,0.6,0.4,1,1,1h5v8
				c0,1.7,1.3,3,3,3h32c1.7,0,3-1.3,3-3V13C44,12.7,43.9,12.5,43.7,12.3z M32,3.4l8.6,8.6H32V3.4z M2,33V22h32v11H8H6H2z M41,44H9
				c-0.6,0-1-0.4-1-1v-8h27c0.6,0,1-0.4,1-1V21c0-0.6-0.4-1-1-1H8V3c0-0.6,0.4-1,1-1h21v11c0,0.6,0.4,1,1,1h11v29
				C42,43.6,41.6,44,41,44z"/>
		</g>
	</g>
	<g class="st2">
		<path class="st1" d="M5.8,30.4h0.9v1H5.8V30.4z"/>
		<path class="st1" d="M12.8,25.4c0.4,0.4,0.7,0.9,0.7,1.5h-0.9c-0.1-0.4-0.3-0.7-0.6-1c-0.3-0.2-0.7-0.4-1.2-0.4
			c-0.6,0-1.1,0.2-1.5,0.7c-0.4,0.4-0.6,1.1-0.6,2.1c0,0.8,0.2,1.4,0.5,1.8c0.3,0.5,0.9,0.7,1.6,0.7c0.6,0,1.1-0.2,1.4-0.7
			c0.2-0.3,0.3-0.6,0.4-1h0.9c-0.1,0.7-0.3,1.2-0.7,1.7c-0.5,0.6-1.2,0.8-2.1,0.8c-0.7,0-1.4-0.2-1.9-0.7c-0.7-0.6-1-1.5-1-2.8
			c0-1,0.2-1.7,0.7-2.3c0.5-0.7,1.3-1,2.2-1C11.7,24.7,12.4,24.9,12.8,25.4z"/>
		<path class="st1" d="M15.3,29.3c0,0.4,0.1,0.7,0.2,0.9c0.3,0.4,0.8,0.6,1.5,0.6c0.3,0,0.6,0,0.9-0.1c0.5-0.2,0.8-0.5,0.8-1
			c0-0.4-0.1-0.6-0.3-0.8c-0.2-0.1-0.6-0.3-1-0.4l-0.8-0.2c-0.6-0.1-0.9-0.3-1.2-0.4c-0.4-0.3-0.6-0.7-0.6-1.2
			c0-0.6,0.2-1.1,0.6-1.4c0.4-0.4,0.9-0.6,1.7-0.6c0.7,0,1.2,0.2,1.7,0.5c0.5,0.3,0.7,0.8,0.7,1.6h-0.8c0-0.3-0.1-0.6-0.3-0.8
			c-0.3-0.3-0.7-0.5-1.3-0.5c-0.5,0-0.9,0.1-1.1,0.3s-0.3,0.5-0.3,0.8c0,0.3,0.1,0.5,0.4,0.7c0.2,0.1,0.5,0.2,1.1,0.4l0.9,0.2
			c0.4,0.1,0.7,0.2,1,0.4c0.4,0.3,0.6,0.7,0.6,1.3c0,0.7-0.3,1.2-0.8,1.5s-1.1,0.5-1.8,0.5c-0.8,0-1.4-0.2-1.8-0.6
			c-0.4-0.4-0.7-1-0.7-1.7H15.3z"/>
		<path class="st1" d="M21.3,24.9l1.9,5.5l1.8-5.5h1l-2.4,6.5h-0.9l-2.4-6.5H21.3z"/>
	</g>
</g>
</svg>
