<?xml version="1.0" encoding="UTF-8" standalone="no"?>
<svg width="53px" height="40px" viewBox="0 0 53 40" version="1.1" xmlns="http://www.w3.org/2000/svg" xmlns:xlink="http://www.w3.org/1999/xlink">
    <!-- Generator: sketchtool 42 (36781) - http://www.bohemiancoding.com/sketch -->
    <title>05AAE07F-BD4B-4478-AF51-64608DAC14AB</title>
    <desc>Created with sketchtool.</desc>
    <defs></defs>
    <g id="STYLEGUIDE" stroke="none" stroke-width="1" fill="none" fill-rule="evenodd">
        <g id="Admin-icons" transform="translate(-33.000000, -116.000000)" stroke="#B9C3CB">
            <g id="icon-upload" transform="translate(34.000000, 117.000000)">
                <path d="M17.4,38 L9.3,38 C4.16330298,38 0,33.8142177 0,28.6507937 C0,24.7819866 2.33756333,21.4620354 5.67029786,20.0404349 C5.49368976,19.320724 5.4,18.5681865 5.4,17.7936508 C5.4,12.6302267 9.56375183,8.44444444 14.7,8.44444444 C15.7186114,8.44444444 16.6989744,8.60907168 17.6161976,8.91330305 C19.5066579,3.71247432 24.4720633,0 30.3,0 C37.7558441,0 43.8,6.07613554 43.8,13.5714286 C43.8,14.5033408 43.7065652,15.4133148 43.5285994,16.2923996 C47.8770675,17.8038064 51,21.9559085 51,26.8412698 C51,33.0040663 46.0267157,37.7876161 39.9,38 L37.2,38" id="Path"></path>
                <path d="M27,19 L27,39" id="Combined-Shape"></path>
                <path d="M26.363961,20 L20,26.363961" id="Path-6"></path>
                <path d="M28,20 L34.1987452,26.5249949" id="Path-7"></path>
            </g>
        </g>
    </g>
</svg>