<?xml version="1.0" encoding="UTF-8" standalone="no"?>
<svg width="30px" height="29px" viewBox="0 0 30 29" version="1.1" xmlns="http://www.w3.org/2000/svg" xmlns:xlink="http://www.w3.org/1999/xlink">
    <!-- Generator: sketchtool 42 (36781) - http://www.bohemiancoding.com/sketch -->
    <title>170E07DB-6F44-4A78-B4BA-E230F20B734A</title>
    <desc>Created with sketchtool.</desc>
    <defs>
        <path d="M30,29 C30,29 0,29 0,29 C8.78507962e-16,21.6670256 6.71590909,14 15,14 C23.2827273,14 30,20.1707069 30,29 Z" id="path-1"></path>
        <mask id="mask-2" maskContentUnits="userSpaceOnUse" maskUnits="objectBoundingBox" x="0" y="0" width="30" height="15" fill="white">
            <use xlink:href="#path-1"></use>
        </mask>
        <path d="M23.7774689,8.88873447 C23.7774689,13.7977401 19.796932,17.7774689 14.8887345,17.7774689 C9.97972884,17.7774689 6,13.7977401 6,8.88873447 C6,3.97972884 9.97972884,0 14.8887345,0 C19.796932,0 23.7774689,3.97972884 23.7774689,8.88873447 Z" id="path-3"></path>
        <mask id="mask-4" maskContentUnits="userSpaceOnUse" maskUnits="objectBoundingBox" x="0" y="0" width="17.7774689" height="17.7774689" fill="white">
            <use xlink:href="#path-3"></use>
        </mask>
    </defs>
    <g id="UI-Elements" stroke="none" stroke-width="1" fill="none" fill-rule="evenodd" stroke-linecap="round" stroke-linejoin="round">
        <g id="Add-icons" transform="translate(-34.000000, -170.000000)" stroke="#5E687C" stroke-width="4">
            <g id="icon-user" transform="translate(34.000000, 170.000000)">
                <use id="Stroke-3-Copy-2" mask="url(#mask-2)" fill="#D6F9FF" xlink:href="#path-1"></use>
                <use id="Stroke-3-Copy-3" mask="url(#mask-4)" fill="#FFFFFF" xlink:href="#path-3"></use>
            </g>
        </g>
    </g>
</svg>