<?xml version="1.0" encoding="UTF-8"?>
<svg width="24px" height="24px" viewBox="0 0 24 24" version="1.1" xmlns="http://www.w3.org/2000/svg" xmlns:xlink="http://www.w3.org/1999/xlink">
    <title>Icons/24px/User/user-polices</title>
    <g id="usercard2.0" stroke="none" stroke-width="1" fill="none" fill-rule="evenodd">
        <g id="ConfigureManageUsers/invite1-Copy-32" transform="translate(-761.000000, -680.000000)" fill="#000000">
            <g id="Combined-Shape" transform="translate(761.050000, 680.000000)">
                <path d="M7.303,17.25 C9.346,17.25 11.001,18.905 11.001,20.947 L11.001,20.947 L11.001,24 L9.501,24 L9.501,20.947 C9.501,19.736 8.515,18.75 7.303,18.75 L7.303,18.75 L4.199,18.75 C2.987,18.75 2,19.736 2,20.947 L2,20.947 L2,24 L0.5,24 L0.5,20.947 C0.5,18.905 2.157,17.25 4.199,17.25 L4.199,17.25 Z M17.7501,0 C19.8931303,0 21.6412295,1.68409917 21.745207,3.80037154 L21.7501,4 L21.7501,6 L22.2171,6 C23.0170444,6 23.6733809,6.61278704 23.7438382,7.39440518 L23.7501,7.534 L23.7501,16.466 C23.7501,17.2659444 23.1382049,17.9231728 22.3566859,17.9937293 L22.2171,18 L13.2841,18 C12.4851,18 11.8270321,17.387213 11.7563795,16.6055948 L11.7501,16.466 L11.7501,7.534 C11.7501,6.73405556 12.363779,6.07682716 13.1446538,6.00627075 L13.2841,6 L13.7501,6 L13.7501,4 C13.7501,1.791 15.5411,0 17.7501,0 Z M22.2171,7.5 L13.2841,7.5 L13.2501,16.466 L22.2171,16.5 L22.2501,7.534 L22.2171,7.5 Z M5.7503,8.25 C7.8213,8.25 9.5003,9.929 9.5003,12 C9.5003,14.071 7.8213,15.75 5.7503,15.75 C3.6803,15.75 2.0003,14.071 2.0003,12 C2.0003,9.929 3.6803,8.25 5.7503,8.25 Z M17.7503,9 C18.5793,9 19.2503,9.671 19.2503,10.5 C19.2503,11.0036364 18.9998868,11.4444628 18.6185194,11.7157926 L18.5003,11.792 L18.5003,14.25 C18.5003,14.663 18.1633,15 17.7503,15 C17.3726333,15 17.0571472,14.7168264 17.0071889,14.3515156 L17.0003,14.25 L17.0003,11.792 C16.5543,11.532 16.2503,11.054 16.2503,10.5 C16.2503,9.671 16.9223,9 17.7503,9 Z M5.7503,9.75 C4.5103,9.75 3.5003,10.759 3.5003,12 C3.5003,13.241 4.5103,14.25 5.7503,14.25 C6.9913,14.25 8.0003,13.241 8.0003,12 C8.0003,10.759 6.9913,9.75 5.7503,9.75 Z M17.7501,1.5 C16.42722,1.5 15.3402696,2.5340352 15.2554302,3.83592422 L15.2501,4 L15.2501,6 L20.2501,6 L20.2501,4 C20.2501,2.622 19.1291,1.5 17.7501,1.5 Z"></path>
            </g>
        </g>
    </g>
</svg>